G04 ================== begin FILE IDENTIFICATION RECORD ==================*
G04 Layout Name:  BeagleBone AI rev A1-20181221a.brd*
G04 Film Name:    BOTTOM*
G04 File Format:  Gerber RS274X*
G04 File Origin:  Cadence Allegro 16.6-2015-S100*
G04 Origin Date:  Fri Dec 21 17:06:42 2018*
G04 *
G04 Layer:  VIA CLASS/BOTTOM*
G04 Layer:  PIN/BOTTOM*
G04 Layer:  ETCH/BOTTOM*
G04 Layer:  BOARD GEOMETRY/OUTLINE*
G04 *
G04 Offset:    (0.000 0.000)*
G04 Mirror:    No*
G04 Mode:      Positive*
G04 Rotation:  0*
G04 FullContactRelief:  No*
G04 UndefLineWidth:     5.000*
G04 ================== end FILE IDENTIFICATION RECORD ====================*
%FSLAX55Y55*MOIN*%
%IR0*IPPOS*OFA0.00000B0.00000*MIA0B0*SFA1.00000B1.00000*%
%ADD20R,.11X.028*%
%ADD50O,.135X.08*%
%ADD26C,.126*%
%ADD31C,.175*%
%ADD64O,.100394X.059055*%
%ADD59R,.033465X.009055*%
%ADD54C,.007874*%
%ADD62R,.03937X.009055*%
%ADD43O,.031496X.009843*%
%ADD40O,.01X.032*%
%ADD18R,.022X.02*%
%ADD11R,.02X.022*%
%ADD25R,.016X.02*%
%ADD32R,.035X.03*%
%ADD16R,.04X.025*%
%ADD52O,.048X.012*%
%ADD38R,.03X.035*%
%ADD37C,.03*%
%ADD47R,.059X.04*%
%ADD17C,.04*%
%ADD14R,.04X.059*%
%ADD46C,.015*%
%ADD15C,.016*%
%ADD36C,.062*%
%ADD19C,.071*%
%ADD33C,.063*%
%ADD51C,.065*%
%ADD28R,.04X.04*%
%ADD57O,.011811X.035433*%
%ADD55R,.056X.069*%
%ADD53O,.035433X.011811*%
%ADD30C,.095*%
%ADD29R,.07X.07*%
%ADD35R,.062X.062*%
%ADD23C,.023622*%
%ADD34R,.063X.063*%
%ADD45R,.023622X.051181*%
%ADD27R,.048X.048*%
%AMMACRO42*
4,1,20,-.03248,-.047244,
-.015354,-.047244,
-.015354,-.074803,
-.004331,-.074803,
-.004331,-.047244,
.004331,-.047244,
.004331,-.074803,
.015354,-.074803,
.015354,-.047244,
.03248,-.047244,
.03248,.047244,
.015354,.047244,
.015354,.074803,
.004331,.074803,
.004331,.047244,
-.004331,.047244,
-.004331,.074803,
-.015354,.074803,
-.015354,.047244,
-.03248,.047244,
-.03248,-.047244,
0.0*
%
%ADD42MACRO42*%
%ADD60R,.018504X.021654*%
%ADD48R,.055118X.051181*%
%ADD21C,.03937*%
%ADD58R,.021654X.018504*%
%ADD44R,.023622X.074803*%
%ADD65R,.074803X.055118*%
%ADD13R,.047244X.055118*%
%ADD49R,.03937X.033465*%
%ADD12R,.03937X.055118*%
%ADD56R,.080709X.080709*%
%ADD41R,.043307X.027559*%
%ADD10O,.070866X.03937*%
%ADD63R,.059055X.031496*%
%ADD22O,.062992X.03937*%
%ADD39R,.033465X.07874*%
%ADD61R,.054331X.094488*%
%ADD24R,.1X.04*%
%ADD66C,.004*%
%ADD67C,.005*%
%ADD68C,.003201*%
%ADD69C,.007*%
%ADD70C,.0043*%
%ADD71C,.008*%
%ADD72C,.0045*%
%ADD73C,.003937*%
%ADD74C,.01*%
%ADD75C,.02*%
%ADD76C,.012*%
%ADD77C,.035*%
%ADD78C,.026004*%
%ADD79C,.086004*%
G75*
%LPD*%
G75*
G36*
G01X-50200Y91900D02*
Y60600D01*
X-47500Y57900D01*
Y53950D01*
X-48200Y53250D01*
X-54550D01*
X-55000Y53700D01*
Y58400D01*
X-52200Y61200D01*
Y97200D01*
X-46400Y103000D01*
X-42000D01*
Y100100D01*
X-50200Y91900D01*
G37*
G36*
G01X-22957Y41750D02*
G02X-23353Y42207I0J400D01*
G03X-25621Y45706I-3136J452D01*
G02X-25814Y46352I110J385D01*
G03X-27867Y46456I-986J848D01*
G02X-28195Y45828I-328J-229D01*
G01X-28851D01*
G03X-29750Y45698I0J-3169D01*
G01X-29864Y45664D01*
X-30300Y46100D01*
X-42100D01*
X-43550Y47550D01*
G02X-43533Y48131I283J283D01*
G03X-43431Y49967I-867J969D01*
G02Y50233I149J133D01*
G03X-44935Y52285I-969J867D01*
G02X-45500Y52649I-165J365D01*
G01Y59000D01*
X-40300D01*
X-39400Y58100D01*
Y56300D01*
X-38500Y55400D01*
X-34900D01*
X-33200Y57100D01*
Y60100D01*
X-30700Y62600D01*
X-13578D01*
G02X-13202Y62064I0J-400D01*
G03X-11290Y60518I1222J-444D01*
G02X-10777Y60442I212J-339D01*
G03X-9876Y60002I977J858D01*
G02X-9500Y59603I-24J-399D01*
G01Y53301D01*
X-11025Y51775D01*
G03X-11067Y49767I1025J-1025D01*
G02X-11052Y49514I-147J-136D01*
G03X-9924Y47452I1052J-764D01*
G02X-9500Y47053I23J-399D01*
G01Y43539D01*
X-18200D01*
Y42750D01*
X-18350D01*
X-19350Y41750D01*
X-22957D01*
G37*
G36*
G01X-37800Y56800D02*
X-38000Y57000D01*
Y63600D01*
X-37600Y64000D01*
X-36200D01*
X-33200Y67000D01*
Y68700D01*
X-32800Y69100D01*
X-22400D01*
X-22200Y68900D01*
Y64900D01*
X-22700Y64400D01*
X-31300D01*
X-34400Y61300D01*
Y60739D01*
X-34500Y60639D01*
Y57639D01*
X-35339Y56800D01*
X-37800D01*
G37*
G36*
G01X-23000Y37496D02*
Y40750D01*
X-9500D01*
Y34750D01*
X-17779D01*
G03X-17821I-21J-1300D01*
G01X-19000D01*
Y37100D01*
X-22604D01*
G03X-23000Y37496I-1096J-700D01*
G37*
G36*
G01X-4831Y158131D02*
X-4689Y158273D01*
X-4688Y158273D01*
G03X-5829Y160480I-912J927D01*
G02X-6300Y160874I-71J394D01*
G01Y173100D01*
X-4400Y175000D01*
X30000D01*
X31300Y173700D01*
Y160700D01*
X28100Y157500D01*
X24859D01*
X24834Y157507D01*
G03X24166I-334J-1257D01*
G01X24141Y157500D01*
X-4200D01*
X-4831Y158131D01*
G37*
G36*
G01X9375Y44138D02*
G03X11125I875J962D01*
G03X12306Y43836I875J962D01*
G02X12800Y43448I94J-389D01*
G01Y17300D01*
X14900Y15200D01*
Y12100D01*
X14400Y11600D01*
X12225D01*
G03X10300Y11738I-1025J-800D01*
G03X8450Y11688I-900J-938D01*
G03X7719Y12039I-900J-938D01*
G01X7652Y12048D01*
X5800Y13900D01*
Y67700D01*
X6700Y68600D01*
X11400D01*
X12800Y67200D01*
Y62488D01*
G02X12353Y62091I-400J0D01*
G03X11194Y59977I-153J-1291D01*
G02Y59723I-155J-127D01*
G03X11216Y58050I1006J-823D01*
G02X11223Y57797I-151J-131D01*
G03X12365Y55705I1027J-797D01*
G02X12800Y55306I35J-398D01*
G01Y46752D01*
G02X12306Y46364I-400J0D01*
G03X11125Y46062I-306J-1264D01*
G03X9375I-875J-962D01*
G03Y44138I-875J-962D01*
G37*
G36*
G01X4300Y12200D02*
X-650D01*
X-1050Y12600D01*
Y19400D01*
X-700Y19750D01*
X4200D01*
X4750Y19200D01*
Y12650D01*
X4300Y12200D01*
G37*
G36*
G01X-150Y24000D02*
X-1000Y24850D01*
Y52900D01*
X-200Y53700D01*
X4100D01*
X4600Y53200D01*
Y26500D01*
X4600Y24800D01*
X3800Y24000D01*
X-150D01*
G37*
G36*
G01X33800Y137200D02*
Y131067D01*
X33638Y131036D01*
G03Y128482I246J-1277D01*
G01X33800Y128451D01*
Y123400D01*
X33300Y122900D01*
X29900D01*
X27800Y120800D01*
X17400D01*
X16200Y122000D01*
Y146500D01*
X16800Y147100D01*
X23200D01*
X24900Y145400D01*
Y139100D01*
X26100Y137900D01*
X33100D01*
X33800Y137200D01*
G37*
G36*
G01X32200Y13000D02*
X33300Y14100D01*
Y22300D01*
X34000Y23000D01*
X44500D01*
X45250Y22250D01*
Y-9050D01*
X44200Y-10100D01*
X25800D01*
X24600Y-8900D01*
Y11700D01*
X25900Y13000D01*
X32200D01*
G37*
G36*
G01X30918Y34117D02*
X27884D01*
X27403Y33636D01*
X27373Y33621D01*
G03X26773Y33022I569J-1169D01*
G01X26758Y32991D01*
X25795Y32028D01*
X22643D01*
X22052Y32619D01*
Y33915D01*
G03X22170Y35539I-952J885D01*
G01X22075Y35676D01*
X23235Y36835D01*
X31272D01*
X31863Y36244D01*
Y35172D01*
X31777D01*
Y34858D01*
X31191Y34272D01*
X31074D01*
X30918Y34117D01*
G37*
G36*
G01X39042Y57757D02*
Y57528D01*
X38285Y56772D01*
Y56121D01*
G02X37778Y55736I-400J0D01*
G03X36644Y53448I-348J-1253D01*
G02X36685Y52846I-242J-319D01*
G01X36315Y52477D01*
X33951D01*
X32259Y50785D01*
X31929D01*
Y50454D01*
X31765Y50291D01*
Y47690D01*
X31193Y47118D01*
X26702D01*
X26347Y46764D01*
Y43848D01*
X25874Y43376D01*
X22565D01*
X21974Y43966D01*
Y52437D01*
X22250Y52713D01*
X31706D01*
X32454Y53462D01*
Y56929D01*
X32841Y57316D01*
X33036D01*
Y57512D01*
X34424Y58899D01*
Y61854D01*
X34897Y62327D01*
X36079D01*
X38325Y64573D01*
Y68394D01*
X38679Y68749D01*
X41516D01*
X42028Y68237D01*
Y65148D01*
X39073Y62193D01*
Y58059D01*
X39069Y58040D01*
G03X39042Y57757I1422J-283D01*
G37*
G36*
G01X36000Y25250D02*
X32500D01*
Y30250D01*
X36000D01*
Y25250D01*
G37*
G36*
G01X38200Y110900D02*
X39600D01*
X40500Y110000D01*
Y104400D01*
X41500Y103400D01*
X50900D01*
X51900Y102400D01*
Y94200D01*
X51100Y93400D01*
X47500D01*
Y93500D01*
X46500Y94500D01*
X44500D01*
X42900Y92900D01*
X38300D01*
X37700Y93500D01*
Y110400D01*
X38200Y110900D01*
G37*
G36*
G01X46600Y13000D02*
X46250Y13350D01*
Y22664D01*
X46250Y22750D01*
X45500Y23500D01*
Y27400D01*
X45600Y27500D01*
X48000D01*
Y22500D01*
X50450Y20050D01*
Y13000D01*
X46600D01*
G37*
G36*
G01X53550D02*
Y21000D01*
X54891D01*
X54916Y20993D01*
G03X55584I333J1257D01*
G01X55609Y21000D01*
X56891D01*
X56916Y20993D01*
G03X57584I334J1257D01*
G01X57609Y21000D01*
X62050D01*
X62500Y20550D01*
Y13500D01*
X62000Y13000D01*
X53550D01*
G37*
G36*
G01X49750Y22250D02*
X49000Y23000D01*
Y27250D01*
X54000D01*
Y22609D01*
X53993Y22584D01*
G03X53961Y22423I1257J-334D01*
G01X53938Y22250D01*
X49750D01*
G37*
G36*
G01X57300Y68800D02*
Y63691D01*
X55582Y61972D01*
X53772D01*
X53733Y61989D01*
G03X52683I-525J-1189D01*
G01X52645Y61972D01*
X52328D01*
X51580Y62719D01*
Y65278D01*
X51524D01*
Y65878D01*
X51580D01*
Y67407D01*
X52016Y67843D01*
Y69715D01*
X52509Y70207D01*
X52760Y70458D01*
X52970Y70248D01*
X52959Y70152D01*
G03X54473Y71281I1291J-152D01*
G02X54250Y71948I69J394D01*
G01Y76500D01*
X55075Y77325D01*
X55133D01*
X55308Y77500D01*
X57750D01*
X58500Y76750D01*
Y70000D01*
X57300Y68800D01*
G37*
G36*
G01X62300Y161800D02*
X57824Y166276D01*
X57825Y166359D01*
G03X55129Y169055I-2681J14D01*
G01X55046Y169054D01*
X54300Y169800D01*
Y175600D01*
X54900Y176200D01*
X68073D01*
G02X68365Y175527I0J-400D01*
G03X70268I951J-886D01*
G02X70560Y176200I293J273D01*
G01X72700D01*
X75800Y173100D01*
X79000D01*
X81200Y175300D01*
X86200D01*
X87400Y174100D01*
Y170200D01*
X86500Y169300D01*
X79600D01*
X78600Y168300D01*
Y163800D01*
X76600Y161800D01*
X62300D01*
G37*
G36*
G01X65200Y9800D02*
X64242Y10758D01*
Y25215D01*
X69650D01*
X71000Y26565D01*
Y61200D01*
X69484Y62716D01*
X69492Y62809D01*
G03X65170Y63550I-2192J191D01*
G01X65131Y63400D01*
X59300D01*
X58600Y64100D01*
Y68000D01*
X59700Y69100D01*
Y69361D01*
X59800Y69461D01*
Y77289D01*
X59700Y77389D01*
Y77400D01*
X58200Y78900D01*
Y81800D01*
X59200Y82800D01*
X67400D01*
X69000Y81200D01*
Y71500D01*
X71000Y69500D01*
X73750D01*
X75000Y68250D01*
Y20400D01*
G02X74800Y20200I-200J0D01*
G03X73839Y18024I0J-1300D01*
G03X74800Y15848I961J-876D01*
G02X75000Y15648I0J-200D01*
G01Y11013D01*
X73787Y9800D01*
X65200D01*
G37*
G36*
G01X63748Y26729D02*
X63691Y26834D01*
G03X63075Y27405I-1144J-617D01*
G01X63041Y27420D01*
X61800Y28661D01*
Y30721D01*
X62063Y30984D01*
X67579D01*
X67678Y30886D01*
Y26946D01*
X67461Y26729D01*
X63748D01*
G37*
G36*
G01X60756Y39042D02*
X60708Y39173D01*
G03X58311Y39278I-1221J-448D01*
G01X55770D01*
Y44368D01*
X55542D01*
Y45542D01*
X58300Y48300D01*
Y49821D01*
G02X58883Y50177I400J0D01*
G03Y52490I594J1156D01*
G02X58300Y52846I-183J356D01*
G01Y55117D01*
X58931Y55747D01*
X67244D01*
X67796Y55196D01*
Y42900D01*
X63550D01*
Y40346D01*
G02X63029Y39964I-400J0D01*
G03X61417Y39173I-392J-1240D01*
G01X61369Y39042D01*
X60756D01*
G37*
G36*
G01X81500Y113308D02*
X81244Y113052D01*
X81168Y113048D01*
G03X81135Y110455I81J-1298D01*
G02X81500Y110056I-35J-398D01*
G01Y108700D01*
X80600Y107800D01*
X71200D01*
X70300Y108700D01*
Y116800D01*
X60800Y126300D01*
Y157400D01*
X61900Y158500D01*
X68800D01*
X70000Y157300D01*
Y145000D01*
X66500Y141500D01*
Y127300D01*
X67500Y126300D01*
X80500D01*
X81500Y125300D01*
Y113308D01*
G37*
G36*
G01X78600Y26950D02*
X82000D01*
Y15200D01*
X81600Y14800D01*
X79150D01*
X78500Y15450D01*
Y20600D01*
X78000Y21100D01*
Y26350D01*
X78600Y26950D01*
G37*
G36*
G01X78000Y30800D02*
Y41750D01*
X81200D01*
X82000Y40950D01*
Y36900D01*
X84300Y34600D01*
X86400D01*
X86800Y34200D01*
Y17600D01*
X86500Y17300D01*
X84500D01*
X83400Y18400D01*
Y28150D01*
X82000Y29550D01*
X79250D01*
X78000Y30800D01*
G37*
G36*
G01X78700Y43700D02*
X78000Y44400D01*
Y64950D01*
X81853D01*
X82000Y64803D01*
Y44600D01*
X81100Y43700D01*
X78700D01*
G37*
G36*
G01X74339Y70750D02*
X74289Y70800D01*
X71539D01*
X71300Y71039D01*
Y74400D01*
X71900Y75000D01*
X79500D01*
X81500Y73000D01*
Y70750D01*
X74339D01*
G37*
G36*
G01X91214Y14400D02*
X90250Y15364D01*
Y42614D01*
X87200Y45664D01*
Y52800D01*
X87300Y52900D01*
X93500D01*
X93700Y52700D01*
Y50400D01*
X93200Y49900D01*
Y48800D01*
X90900D01*
Y45200D01*
X93200D01*
Y34800D01*
X94900Y33100D01*
Y15000D01*
X94300Y14400D01*
X91214D01*
G37*
G36*
G01X90500Y10100D02*
X87800Y12800D01*
Y17185D01*
X87800Y17186D01*
Y34614D01*
X87800Y35200D01*
X86300Y36700D01*
X84400D01*
X83000Y38100D01*
Y41364D01*
X83000Y53000D01*
X84000Y54000D01*
X85500D01*
X86100Y53400D01*
Y45350D01*
X89250Y42200D01*
Y14950D01*
X92200Y12000D01*
X104507D01*
G03X105893I693J1100D01*
G01X173600D01*
X175500Y13900D01*
Y57500D01*
X174500Y58500D01*
X145800D01*
X145300Y59000D01*
Y63000D01*
X147700Y65400D01*
X183000D01*
X183500Y64900D01*
Y63600D01*
X177500Y57600D01*
Y12800D01*
X174800Y10100D01*
X90500D01*
G37*
G36*
G01X98377Y56200D02*
G03X97827Y56641I-987J-669D01*
G01X97700Y56691D01*
Y58000D01*
X100100D01*
Y65600D01*
X102100D01*
Y14400D01*
X96400D01*
Y43500D01*
X100100D01*
Y56200D01*
X98377D01*
G37*
G36*
G01X112800Y57800D02*
X109490Y61110D01*
G02X109533Y61712I283J283D01*
G03X107712Y63533I-783J1038D01*
G02X107110Y63490I-319J241D01*
G01X107100Y63500D01*
X104000D01*
Y66100D01*
X103900D01*
X102100Y67900D01*
X99800D01*
X98700Y69000D01*
Y84100D01*
X104000Y89400D01*
Y95000D01*
X105212Y96212D01*
X105228Y96222D01*
G03X105525Y96500I-728J1078D01*
G01X114000D01*
Y87000D01*
X110900Y83900D01*
Y78600D01*
X112500Y77000D01*
X120500D01*
X120600Y76900D01*
Y74539D01*
X119461Y73400D01*
X118600D01*
X118000Y72800D01*
Y65000D01*
X120400Y62600D01*
Y58600D01*
X119600Y57800D01*
X112800D01*
G37*
G36*
G01X122400Y59500D02*
X121800Y60100D01*
Y63400D01*
X119500Y65700D01*
Y71600D01*
X121900Y74000D01*
Y77800D01*
X121200Y78500D01*
X113100D01*
X112500Y79100D01*
Y82000D01*
X118480Y87980D01*
G02X119072Y87952I283J-283D01*
G03X120902Y89782I1003J828D01*
G02X120874Y90374I255J309D01*
G01X121100Y90600D01*
Y91130D01*
G03Y92728I-1026J799D01*
G01Y94280D01*
G03Y95878I-1026J799D01*
G01Y97429D01*
G03Y99028I-1026J799D01*
G01Y103275D01*
G03Y105327I-799J1026D01*
G01Y106310D01*
G03X121339Y106500I-685J1105D01*
G01X122898D01*
X122933Y106487D01*
G03X123867I467J1213D01*
G01X123902Y106500D01*
X125600D01*
X126100Y106000D01*
Y102671D01*
X125966Y102625D01*
G03X127585Y100879I427J-1228D01*
G01X127637Y101000D01*
X128296D01*
X128349Y100879D01*
G03X130735I1193J517D01*
G01X130787Y101000D01*
X131446D01*
X131498Y100879D01*
G03X133884I1193J517D01*
G01X133936Y101000D01*
X134596D01*
X134648Y100879D01*
G03X136205Y100148I1193J517D01*
G01X136319Y100181D01*
X138000Y98500D01*
X143200D01*
X143914Y97786D01*
X143929Y97745D01*
G03X144300Y97187I1360J502D01*
G01Y95940D01*
G03Y94254I990J-843D01*
G01Y92791D01*
G03Y91104I990J-843D01*
G01Y89641D01*
G03Y87955I990J-843D01*
G01Y86900D01*
X144400D01*
X148800Y82500D01*
X154800D01*
X155500Y81800D01*
Y78500D01*
X146916D01*
G02X146529Y79001I0J400D01*
G03X145434Y78041I-1258J329D01*
G01X145532Y78053D01*
X145742Y77842D01*
X145380Y77480D01*
X145295Y77481D01*
G03X144950Y74921I-23J-1300D01*
G01X145100Y74883D01*
Y69200D01*
X143800Y67900D01*
Y60500D01*
X143100Y59800D01*
X137210D01*
G03X136455Y59500I0J-1100D01*
G01X122400D01*
G37*
G36*
G01X119300Y159100D02*
X118500Y159900D01*
Y166300D01*
X119100Y166900D01*
X133200D01*
X134600Y165500D01*
Y162100D01*
X131600Y159100D01*
X130318D01*
G03X128726I-796J-1028D01*
G01X127168D01*
G03X125576I-796J-1028D01*
G01X124019D01*
G03X122427I-796J-1028D01*
G01X119300D01*
G37*
G36*
G01X128604Y102300D02*
X128200D01*
X127500Y103000D01*
Y106400D01*
X127600Y106500D01*
X129030D01*
X129065Y106486D01*
G03X130018I477J1210D01*
G01X130054Y106500D01*
X132179D01*
X132214Y106486D01*
G03X133168I477J1210D01*
G01X133203Y106500D01*
X135329D01*
X135364Y106486D01*
G03X136318I477J1210D01*
G01X136353Y106500D01*
X138345D01*
X138386Y106480D01*
G03X138415Y106467I560J1173D01*
G01X138448Y106452D01*
X138538Y106362D01*
G02X138428Y105718I-283J-283D01*
G03X140156Y105123I562J-1172D01*
G02X140514Y105700I359J177D01*
G01X142300D01*
X143000Y105000D01*
Y100400D01*
X142400Y99800D01*
X138539D01*
X137131Y101208D01*
X137138Y101300D01*
G03X134906Y102300I-1297J97D01*
G01X133626D01*
G03X131756I-935J-904D01*
G01X130477D01*
G03X128661Y102353I-935J-904D01*
G01X128604Y102300D01*
G37*
G36*
G01X181500Y77300D02*
X184200D01*
X185400Y76100D01*
Y73400D01*
X182000Y70000D01*
X178800D01*
X176400Y72400D01*
X147600D01*
X146400Y73600D01*
Y75534D01*
X146423Y75578D01*
G03X146501Y76604I-1152J603D01*
G01X146460Y76722D01*
X146939Y77200D01*
X156800D01*
X157400Y77800D01*
X157500D01*
Y82000D01*
X158700Y83200D01*
X162000D01*
X162800Y84000D01*
Y96600D01*
X163300Y97100D01*
X166704D01*
X166744Y97082D01*
G03X166826Y97048I536J1185D01*
G01X166867Y97033D01*
X167905Y95995D01*
Y90469D01*
X168300Y90074D01*
Y85000D01*
X169300Y84000D01*
X172800D01*
X173800Y85000D01*
Y89000D01*
X173850Y89050D01*
Y92350D01*
X174600Y93100D01*
X179400D01*
X180800Y91700D01*
Y78000D01*
X181500Y77300D01*
G37*
G36*
G01X150300Y102600D02*
X149700Y103200D01*
Y108800D01*
X150300Y109400D01*
Y111600D01*
X150500Y111800D01*
X159100D01*
X159400Y111500D01*
Y109586D01*
X159700Y109286D01*
Y108900D01*
X159300Y108500D01*
X157100D01*
X156100Y109500D01*
X153600D01*
X152600Y108500D01*
Y102900D01*
X152300Y102600D01*
X151514D01*
G03X151471I-21J-1300D01*
G01X150300D01*
G37*
G36*
G01X150600Y116400D02*
X150400Y116600D01*
Y119200D01*
X151200Y120000D01*
X153000D01*
Y119786D01*
X153986Y118800D01*
X155814D01*
X157800Y120786D01*
Y121500D01*
X158200Y121900D01*
Y124200D01*
X158300Y124300D01*
X160300D01*
X160600Y124000D01*
Y122051D01*
X159588Y121038D01*
Y120294D01*
G03X159598Y120117I1450J0D01*
G01X159600Y120105D01*
Y119700D01*
X159883Y119417D01*
G03X160161Y119139I1155J877D01*
G01X160300Y119000D01*
X160382D01*
X160422Y118981D01*
G03X161654I616J1313D01*
G01X161694Y119000D01*
X165700D01*
X165830Y118870D01*
Y116830D01*
X165400Y116400D01*
X150600D01*
G37*
G36*
G01X140300Y106900D02*
X140121Y107079D01*
X140166Y107199D01*
G03X139800Y108635I-1218J454D01*
G01Y109500D01*
X140100Y109800D01*
X141112D01*
G03X143524Y111020I968J1080D01*
G01X143514Y111114D01*
X144300Y111900D01*
X148600D01*
X149100Y111400D01*
Y109700D01*
X148500Y109100D01*
X144300D01*
X143751Y108551D01*
X143370D01*
Y108170D01*
X143300Y108100D01*
Y107400D01*
X142800Y106900D01*
X140300D01*
G37*
G36*
G01X154400Y119800D02*
X154000Y120200D01*
Y126500D01*
X152500Y128000D01*
X152058D01*
X152022Y128015D01*
G03X151856Y128071I-548J-1342D01*
G02X151863Y128459I53J193D01*
G03X151012Y130900I-294J1267D01*
G02X150440Y131262I-172J361D01*
G01Y134560D01*
X150000Y135000D01*
X147430D01*
X147030Y135400D01*
Y137130D01*
X147600Y137700D01*
X151300D01*
X152000Y137700D01*
X152700Y137700D01*
X153100Y137300D01*
Y135600D01*
X155400Y133300D01*
Y127700D01*
X156420Y126680D01*
X156418Y126596D01*
G03X156800Y125596I1450J-20D01*
G01Y121253D01*
G03X156652Y121052I1088J-959D01*
G01X155400Y119800D01*
X154400D01*
G37*
G36*
G01X157300Y66600D02*
X156600Y67300D01*
Y69300D01*
X157800Y70500D01*
X175700D01*
X177600Y68600D01*
X179900D01*
X180000Y68700D01*
X180500D01*
X181100Y68100D01*
Y67300D01*
X180400Y66600D01*
X157300D01*
G37*
G36*
G01X153900Y102800D02*
X153600Y103100D01*
Y108086D01*
X153914Y108400D01*
X155600D01*
X156000Y108000D01*
Y103200D01*
X155600Y102800D01*
X155104D01*
X155081Y102806D01*
G03X154396I-343J-1409D01*
G01X154373Y102800D01*
X153900D01*
G37*
G36*
G01X153400Y113200D02*
Y115100D01*
X162400D01*
Y113221D01*
X162379Y113200D01*
X153400D01*
G37*
G36*
G01X162700Y115000D02*
Y113521D01*
X162179Y113000D01*
X153400D01*
X153200Y113200D01*
Y115200D01*
X153400Y115400D01*
X162300D01*
X162700Y115000D01*
G37*
G36*
G01X160700Y109700D02*
X160400Y110000D01*
Y111400D01*
X161100Y112100D01*
X162600D01*
X163500Y113000D01*
Y115200D01*
X163700Y115400D01*
X165814D01*
X167000Y116586D01*
Y116603D01*
G02X167342Y116744I200J0D01*
G01X168100Y115986D01*
Y115590D01*
X168097Y115587D01*
X168082D01*
Y115572D01*
X167800Y115290D01*
Y113300D01*
X167500Y113000D01*
X166000D01*
X165900Y112900D01*
X165810D01*
X163900Y110990D01*
Y110900D01*
X162700Y109700D01*
X160700D01*
G37*
G36*
G01X156700Y128400D02*
Y133839D01*
X154400Y136138D01*
Y137500D01*
X154700Y137800D01*
X158100D01*
X158394Y137506D01*
X158181Y137292D01*
X158080Y137308D01*
G03X158429Y134850I-209J-1283D01*
G02X159000Y134489I172J-361D01*
G01Y131700D01*
X159500Y131200D01*
X162500D01*
X163500Y130200D01*
X165600D01*
X165800Y130000D01*
Y125700D01*
X167200Y124300D01*
X170600D01*
X170965Y123935D01*
Y120108D01*
X171200D01*
Y116900D01*
X170800Y116500D01*
X169000D01*
X168730Y116770D01*
Y120314D01*
G03X168352Y121291I-1450J0D01*
G01X168300Y121348D01*
Y121400D01*
X166100Y123600D01*
X163400D01*
X162900Y124100D01*
Y124769D01*
X162932D01*
Y128170D01*
X162330D01*
X162100Y128400D01*
X159100D01*
X158726Y128026D01*
X157868D01*
G03X157611Y128003I0J-1450D01*
G01X157594Y128000D01*
X157100D01*
X156700Y128400D01*
G37*
G36*
G01X163000Y134900D02*
X162500Y135400D01*
Y136700D01*
X163200Y137400D01*
X164800D01*
X165802Y138402D01*
X166060D01*
Y138500D01*
X171200D01*
X171282Y138418D01*
Y137600D01*
X172100D01*
X172400Y137300D01*
X180900D01*
X181100Y137100D01*
Y135200D01*
X180900Y135000D01*
X172100D01*
X171900Y135200D01*
Y135300D01*
X171675D01*
Y135536D01*
X171687Y135570D01*
G03X169193Y135776I-1218J455D01*
G02X168800Y135300I-393J-76D01*
G01X168525D01*
Y135536D01*
X168538Y135570D01*
G03X166144Y135470I-1218J455D01*
G02X165782Y134900I-362J-170D01*
G01X163000D01*
G37*
G36*
G01X167614Y125300D02*
X166800Y126114D01*
Y130414D01*
X166500Y130714D01*
Y131000D01*
X165600Y131900D01*
X163214D01*
X162914Y132200D01*
X160300D01*
X160100Y132400D01*
Y134000D01*
X160400Y134300D01*
X162186D01*
X162586Y133900D01*
X167600D01*
X168129Y133371D01*
Y131857D01*
X168200D01*
Y131058D01*
X168129D01*
Y128057D01*
X168243D01*
X168700Y127600D01*
X170700D01*
X171200Y127100D01*
Y126510D01*
X171300Y126410D01*
Y126000D01*
X170600Y125300D01*
X167614D01*
G37*
G36*
G01X154093Y138607D02*
X153800Y138900D01*
Y143200D01*
X154200Y143600D01*
X156200D01*
X156416Y143384D01*
Y139016D01*
X156200Y138800D01*
X154286D01*
X154093Y138607D01*
G37*
G36*
G01X159078Y139666D02*
X159022Y139774D01*
G03X157640Y140454I-1154J-599D01*
G02X157170Y140848I-70J394D01*
G01Y143662D01*
X157116D01*
Y145356D01*
X157890Y146130D01*
X159337D01*
G02X159733Y145670I0J-400D01*
G03X162303I1285J-196D01*
G02X162699Y146130I395J60D01*
G01X170290D01*
X171040Y145380D01*
Y143842D01*
X171103D01*
Y139666D01*
X162228D01*
X162172Y139774D01*
G03X159864I-1154J-599D01*
G01X159808Y139666D01*
X159078D01*
G37*
G36*
G01X174400Y104086D02*
Y104000D01*
X173900Y103500D01*
X171486D01*
X171286Y103300D01*
X168994D01*
X168500Y103794D01*
Y105800D01*
X171314D01*
X171614Y106100D01*
X174086D01*
X174100Y106086D01*
Y104386D01*
X174400Y104086D01*
G37*
G36*
G01X174700Y94600D02*
X172778Y96522D01*
Y99796D01*
X172404D01*
X172200Y100000D01*
X171700D01*
X171400Y100300D01*
Y102000D01*
X171900Y102500D01*
X174200D01*
X174800Y101900D01*
Y97900D01*
X175100Y97600D01*
X175700Y97000D01*
X177900D01*
X178050Y96850D01*
Y94950D01*
X177700Y94600D01*
X174700D01*
G37*
G36*
G01X175400Y104500D02*
X175100Y104800D01*
Y106500D01*
X174874Y106726D01*
Y106879D01*
X174721D01*
X174500Y107100D01*
X171200D01*
X170900Y106800D01*
X164900D01*
X164600Y107100D01*
Y110700D01*
X166100Y112200D01*
X168200D01*
X168500Y112500D01*
Y113230D01*
G03X168730Y114015I-1220J784D01*
G01Y115200D01*
X171000D01*
X171200Y115000D01*
Y112700D01*
X171290Y112610D01*
Y112504D01*
X171396D01*
X171500Y112400D01*
X174600D01*
X174704Y112504D01*
X174890D01*
Y112690D01*
X175000Y112800D01*
Y115400D01*
X175600Y116000D01*
X177600D01*
X177800Y115800D01*
Y104900D01*
X177400Y104500D01*
X175400D01*
G37*
G36*
G01X171900Y133400D02*
X172100Y133600D01*
X180700D01*
X181200Y133100D01*
Y128000D01*
X182100Y127100D01*
X184000D01*
X184600Y126500D01*
Y123100D01*
X184400Y122900D01*
X182500D01*
X182300Y123100D01*
Y125100D01*
X181500Y125900D01*
X179100D01*
X178500Y126500D01*
Y127500D01*
X177800Y128200D01*
X174800D01*
X174400Y127800D01*
Y126200D01*
X174100Y125900D01*
X172800D01*
X171900Y126800D01*
Y133400D01*
G37*
G36*
G01X185500Y63800D02*
X205100D01*
X206200Y62700D01*
Y59400D01*
X205654Y58854D01*
X205608Y58840D01*
G03X204760Y57992I392J-1240D01*
G01X204746Y57946D01*
X204000Y57200D01*
X202400D01*
X198900Y60700D01*
X193900D01*
X190500Y57300D01*
X189900D01*
Y57200D01*
X187597D01*
G02X187198Y57576I0J400D01*
G03X184744Y58095I-1298J-77D01*
G02X184105Y57995I-356J183D01*
G01X183600Y58500D01*
Y61861D01*
X184800Y63061D01*
Y63100D01*
X185500Y63800D01*
G37*
G36*
G01X185000Y79392D02*
Y79300D01*
X184000Y78300D01*
X181914D01*
X181800Y78414D01*
Y90100D01*
X185200Y93500D01*
Y100700D01*
X185400Y100900D01*
X185900Y101400D01*
X186800D01*
X187300Y100900D01*
Y93300D01*
X186892Y92892D01*
X186384D01*
X183675Y90183D01*
Y86017D01*
X184100Y85592D01*
Y85000D01*
X184825Y84275D01*
Y79567D01*
X185000Y79392D01*
G37*
G36*
G01X178700Y111800D02*
X178900Y112000D01*
X180900D01*
X181400Y111500D01*
Y109200D01*
X182000Y108600D01*
Y106500D01*
X181500Y106000D01*
X178900D01*
X178700Y106200D01*
Y111800D01*
G37*
G36*
G01X184414Y128100D02*
X182514Y128100D01*
X182200Y128414D01*
Y130600D01*
X182600Y131000D01*
X185170D01*
G02X185310Y130657I0J-200D01*
G03X185173Y130500I907J-931D01*
G01X185000D01*
Y130183D01*
X184989Y130151D01*
G03Y129300I1229J-426D01*
G01X185000Y129268D01*
Y128100D01*
X184414D01*
G37*
G36*
G01X175500Y117400D02*
X175000Y117900D01*
Y120308D01*
X177700D01*
Y119900D01*
X178700Y118900D01*
Y117600D01*
X178500Y117400D01*
X175500D01*
G37*
G36*
G01X177966Y123148D02*
Y123509D01*
X175000D01*
Y125386D01*
X175400Y125786D01*
Y127200D01*
X177200D01*
X177500Y126900D01*
Y126086D01*
X177500Y125700D01*
X177900Y125300D01*
X178286D01*
X178686Y124900D01*
X180900D01*
Y123400D01*
X180600Y123100D01*
X178400D01*
X178307Y123007D01*
G02X177966Y123148I-141J141D01*
G37*
G36*
G01X182721Y150121D02*
X183069Y150469D01*
X183145Y150474D01*
G03X183930Y150800I-78J1298D01*
G01X185352D01*
G03X187080I864J972D01*
G01X188504D01*
G03X190230I863J973D01*
G01X193400D01*
X194100Y150100D01*
Y148600D01*
X193300Y147800D01*
X191100D01*
X190200Y146900D01*
X189000D01*
X188673Y146573D01*
G03X188267Y146167I694J-1100D01*
G01X188000Y145900D01*
Y144400D01*
X187300Y143700D01*
X185000D01*
X184700Y143400D01*
X184400D01*
Y142200D01*
X183800Y141600D01*
X183000D01*
X182400Y142200D01*
Y143795D01*
G02X182863Y144190I400J0D01*
G03Y146758I205J1284D01*
G02X182400Y147153I-63J395D01*
G01Y147396D01*
X182632D01*
X182662Y147386D01*
G03X183012Y149921I404J1236D01*
G01X182924Y149917D01*
X182721Y150121D01*
G37*
G36*
G01X193987Y139187D02*
X193803Y139371D01*
X193791Y139431D01*
G03X191816Y140270I-1275J-256D01*
G02X191200Y140607I-216J337D01*
G01Y140892D01*
G02X191816Y141229I400J0D01*
G03X191549Y143193I701J1095D01*
G01X191489Y143126D01*
X191200D01*
Y143400D01*
X189837D01*
X189798Y143417D01*
G03X189038Y143508I-527J-1189D01*
G01X188934Y143489D01*
X188719Y143704D01*
X189000Y143986D01*
Y145486D01*
X189414Y145900D01*
X190614D01*
X191214Y146500D01*
X193200D01*
X194372Y145328D01*
X194383Y145264D01*
G03X194396Y145198I1283J211D01*
G01X194400Y145177D01*
Y139600D01*
X193987Y139187D01*
G37*
G36*
G01X233202Y7870D02*
G03X227410Y8433I-3202J-2870D01*
G01X227272Y8328D01*
X225600Y10000D01*
X225090D01*
G02X224704Y10506I0J400D01*
G03X222392Y11605I-1254J344D01*
G02X221792Y11546I-326J232D01*
G03X219609Y10447I-892J-946D01*
G02X219212Y10000I-397J-47D01*
G01X215000D01*
X213700Y11300D01*
Y16500D01*
X215700Y18500D01*
X220900D01*
X222900Y16500D01*
X226900D01*
X229600Y19200D01*
X231700D01*
X233900Y17000D01*
Y8137D01*
G02X233202Y7870I-400J0D01*
G37*
G36*
G01X212200Y47100D02*
X210800Y48500D01*
Y53698D01*
X210813Y53733D01*
G03Y54667I-1213J467D01*
G01X210800Y54702D01*
Y64000D01*
X213900Y67100D01*
X217900D01*
X218000Y67000D01*
X219800D01*
X224400Y71600D01*
X228045D01*
G02X228309Y70900I0J-400D01*
G03X228041Y64477I2941J-3340D01*
G02X227752Y63800I-288J-277D01*
G01X225800D01*
X223900Y61900D01*
Y49100D01*
X221900Y47100D01*
X212200D01*
G37*
G36*
G01X257700Y137800D02*
Y131900D01*
X255700Y129900D01*
X254300D01*
X253625Y130575D01*
Y131402D01*
X253600Y131427D01*
Y132500D01*
X253100Y133000D01*
X245700D01*
X244200Y131500D01*
Y125000D01*
X246300Y122900D01*
X249100D01*
X251700Y120300D01*
Y116100D01*
X249300Y113700D01*
X233700D01*
X232200Y115200D01*
Y139600D01*
X233300Y140700D01*
X243600D01*
X244600Y141700D01*
Y151200D01*
X245000Y151600D01*
X254800D01*
X256600Y149800D01*
Y138900D01*
X257700Y137800D01*
G37*
G36*
G01X250900Y40600D02*
X247200D01*
X246400Y41400D01*
Y47900D01*
X246600Y48100D01*
X250600D01*
X251200Y47500D01*
Y40900D01*
X250900Y40600D01*
G37*
G36*
G01X257000Y121600D02*
X257700Y122300D01*
X267800D01*
X268900Y121200D01*
Y113300D01*
X266200Y110600D01*
X259000D01*
X257000Y112600D01*
Y121600D01*
G37*
%LPC*%
G75*
G36*
G01X-13610Y44525D02*
G03X-14140I-265J-300D01*
G02Y46475I-860J975D01*
G03X-13610I265J300D01*
G02Y44525I860J-975D01*
G37*
G36*
G01X-19775Y46390D02*
G03Y45860I300J-265D01*
G02X-21725I-975J-860D01*
G03Y46390I-300J265D01*
G02Y48110I975J860D01*
G03Y48640I-300J265D01*
G02Y50360I975J860D01*
G03Y50890I-300J265D01*
G02Y52610I975J860D01*
G03Y53140I-300J265D01*
G02Y54860I975J860D01*
G03Y55390I-300J265D01*
G02X-19775I975J860D01*
G03Y54860I300J-265D01*
G02Y53140I-975J-860D01*
G03Y52610I300J-265D01*
G02Y50890I-975J-860D01*
G03Y50360I300J-265D01*
G02Y48640I-975J-860D01*
G03Y48110I300J-265D01*
G02Y46390I-975J-860D01*
G37*
G36*
G01X9467Y28169D02*
G03X9733I133J149D01*
G02Y26231I867J-969D01*
G03X9467I-133J-149D01*
G02Y28169I-867J969D01*
G37*
G36*
G01X136706Y84678D02*
G02Y86619I-865J971D01*
G03X137372Y86918I266J299D01*
G01Y87455D01*
X140572D01*
Y86884D01*
G03X141247Y86593I400J0D01*
G02Y84704I893J-945D01*
G03X140574Y84455I-275J-291D01*
G01X139508D01*
X139472Y84441D01*
G02X138509I-482J1208D01*
G01X138473Y84455D01*
X137364D01*
G03X136706Y84678I-393J-76D01*
G37*
G36*
G01X140063Y80038D02*
G02X137881I-1091J-707D01*
G03X137545Y80655I-336J217D01*
G01X137372D01*
Y81229D01*
G03X136706Y81528I-400J0D01*
G02Y83470I-865J971D01*
G03X137356Y83655I266J299D01*
G01X138402D01*
X138442Y83675D01*
G02X139558I558J-1175D01*
G01X139598Y83655D01*
X140580D01*
G03X141247Y83444I392J79D01*
G02Y81554I893J-945D01*
G03X140572Y81263I-275J-291D01*
G01Y80655D01*
X140399D01*
G03X140063Y80038I0J-400D01*
G37*
G36*
G01X245006Y118877D02*
G03Y118623I155J-127D01*
G02X242994I-1006J-823D01*
G03Y118877I-155J127D01*
G02X245006I1006J823D01*
G37*
G36*
G01X249769Y118833D02*
G03Y118567I149J-133D01*
G02X247831I-969J-867D01*
G03Y118833I-149J133D01*
G02X249769I969J867D01*
G37*
G54D78*
X-30500Y50000D03*
X-24000D03*
X66600Y79600D03*
X59422Y45034D03*
X62571D03*
X62627Y51334D03*
X101300Y77500D03*
X105500Y70000D03*
X123224Y79331D03*
X126374D03*
Y76181D03*
X123224Y91929D03*
X120074Y85630D03*
X126392Y91948D03*
X120074Y82480D03*
X123224D03*
Y85630D03*
X126392Y88798D03*
Y85648D03*
Y82499D03*
X123224Y88780D03*
Y95079D03*
X126392Y98247D03*
X126374Y95079D03*
X123224Y98228D03*
X135822Y76181D03*
X129523Y79331D03*
X135822D03*
X129523Y76181D03*
X132673D03*
X138972D03*
X132673Y79331D03*
X132691Y88798D03*
X138969Y91969D03*
X129542Y91948D03*
Y82499D03*
Y88798D03*
X132673Y85630D03*
X135804Y91948D03*
X135841Y88798D03*
X135822Y98228D03*
X132673D03*
X129542Y98247D03*
Y95097D03*
X132691D03*
X135841Y95060D03*
X142122Y79331D03*
Y76181D03*
X142140Y88798D03*
Y91948D03*
X128000Y165000D03*
X131098D03*
X135841Y104546D03*
X186217Y148623D03*
X186254Y145511D03*
X189404Y148660D03*
X220900Y57500D03*
X217800Y64000D03*
X250400Y137800D03*
X251153Y141600D03*
G54D79*
X30000Y-5000D03*
Y5000D03*
X40000Y-5000D03*
Y5000D03*
%LPD*%
G75*
G54D10*
X-49757Y7226D03*
Y42659D03*
G54D11*
X-53400Y17000D03*
X-51100Y70300D03*
Y62300D03*
Y66300D03*
X-49600Y17000D03*
X-45900D03*
X-42100D03*
X-47300Y70300D03*
Y62300D03*
Y66300D03*
X-17100Y16500D03*
X-20900D03*
X-21000Y105700D03*
X-24800D03*
X-16800D03*
X-21000Y109700D03*
X-24800D03*
X-16800Y113700D03*
Y109700D03*
X-3200Y19900D03*
X-7000D03*
X-8300Y12300D03*
X-12100D03*
X-13000Y105700D03*
Y113700D03*
Y109700D03*
X-3400Y144000D03*
Y153000D03*
X6300Y24700D03*
X2500D03*
X4100Y144000D03*
X7900D03*
X400D03*
X4100Y153000D03*
X7900D03*
X400D03*
X18500Y20300D03*
X14700D03*
X18500Y24200D03*
X14700D03*
X18400Y28100D03*
X14600D03*
X18400Y31900D03*
X14600D03*
X18400Y43500D03*
X14600D03*
X18400Y35700D03*
X14600D03*
Y39600D03*
X18400D03*
Y47300D03*
X14600D03*
Y51300D03*
X18400D03*
Y63100D03*
X14600D03*
X18400Y59200D03*
X14600D03*
X18400Y66900D03*
X14600D03*
X32600Y101250D03*
Y106000D03*
Y96500D03*
Y110000D03*
X27850Y148750D03*
X31650D03*
X42944Y60268D03*
X36400Y101250D03*
Y106000D03*
Y96500D03*
Y110000D03*
X53750Y58032D03*
X49950D03*
X46744Y60268D03*
X52700Y112600D03*
X56500D03*
X56400Y116500D03*
X52600D03*
X54600Y160500D03*
X67596Y35161D03*
X63796D03*
X57543Y57678D03*
X61343D03*
X59900Y99800D03*
X63700D03*
X60000Y103800D03*
X63800D03*
X58400Y160500D03*
X77100Y100600D03*
X71600Y141500D03*
X75400D03*
X71600Y155750D03*
X75400D03*
X88400Y47000D03*
X84600D03*
Y68000D03*
X88400D03*
Y72000D03*
X84600D03*
X80900Y100600D03*
X88600Y100700D03*
X84800D03*
X84600Y104500D03*
X88400D03*
X101100Y19000D03*
Y22500D03*
Y15500D03*
X93600D03*
X97400D03*
X101100Y26000D03*
Y33000D03*
Y29500D03*
Y43500D03*
Y36500D03*
Y40000D03*
Y47000D03*
Y50500D03*
Y57500D03*
Y54000D03*
X92600Y47000D03*
X96400D03*
X101100Y61000D03*
X96400Y68000D03*
X92600D03*
X101100Y64500D03*
X96400Y72000D03*
X92600D03*
X97600Y153500D03*
X101400D03*
X97600Y149500D03*
X101400D03*
X97600Y145500D03*
X101400D03*
X104900Y19000D03*
Y22500D03*
Y15500D03*
Y26000D03*
Y33000D03*
Y29500D03*
Y43500D03*
Y36500D03*
Y40000D03*
Y47000D03*
Y50500D03*
Y57500D03*
Y54000D03*
Y61000D03*
Y64500D03*
X112700Y90400D03*
X112663Y95079D03*
X111300Y127800D03*
X115100D03*
X111200Y120000D03*
X115000D03*
X111300Y123800D03*
X115100D03*
X111300Y131900D03*
X115100D03*
X106600Y145500D03*
X110400D03*
X106600Y149500D03*
X110400D03*
X106600Y153500D03*
X110400D03*
X106600Y165500D03*
X110400D03*
X106600Y161500D03*
X110400D03*
X106600Y157500D03*
X110400D03*
X126906Y15667D03*
X119032D03*
X122832D03*
X119032Y56612D03*
X122832D03*
X126906D03*
X119032Y61336D03*
X122832D03*
X116500Y90400D03*
X116463Y95079D03*
X119000Y116700D03*
X122800D03*
X122900Y120700D03*
X119100D03*
X123800Y131300D03*
X120000D03*
X126700Y141800D03*
X126100Y151600D03*
X126377Y145798D03*
X130706Y15667D03*
X134780D03*
X138580D03*
X134780Y56612D03*
X138580D03*
X130706D03*
X138826Y136356D03*
X130500Y141800D03*
X129900Y151600D03*
X130177Y145798D03*
X150528Y15667D03*
X146454D03*
X142654D03*
X150528Y56612D03*
X142654D03*
X146454D03*
Y61336D03*
X142654D03*
X150554Y96884D03*
X151313Y103815D03*
X148670Y106951D03*
X144870D03*
X149203Y117370D03*
X145403D03*
X149173Y113876D03*
X145373D03*
X151518Y110343D03*
X147718D03*
X141610Y124217D03*
X145410D03*
X141610Y120816D03*
X145410D03*
X142626Y136356D03*
X151670Y136578D03*
X142198Y145980D03*
X145998D03*
X151670Y141862D03*
X144569Y141876D03*
X148369D03*
X154328Y15667D03*
X162202D03*
X158402D03*
X154328Y56612D03*
X162202D03*
X158402D03*
X154395Y85630D03*
X158195D03*
X154018Y100324D03*
X157818D03*
X162804Y99058D03*
X154354Y96884D03*
X155113Y103815D03*
X158282Y110852D03*
X162082D03*
X159300Y123000D03*
X155500D03*
X157716Y129434D03*
X153916D03*
X155470Y136578D03*
X157716Y132957D03*
X153916D03*
X155470Y141862D03*
X170076Y56612D03*
X166276D03*
X166604Y99058D03*
X172665Y121909D03*
X183900Y102500D03*
X180100D03*
X180185Y107066D03*
X176385D03*
X180185Y110583D03*
X176385D03*
X176465Y121909D03*
X179765Y124146D03*
X183565D03*
X183455Y129000D03*
X179655D03*
X187100Y124200D03*
X187000Y136200D03*
X183200D03*
X185900Y141800D03*
X195400Y51500D03*
X191600D03*
X195400Y47500D03*
X191600D03*
Y55500D03*
X195400D03*
X198478Y94656D03*
X198300Y113800D03*
X190900Y124200D03*
X198556Y136041D03*
X189700Y141800D03*
X203900Y43500D03*
X200100D03*
X203900Y47500D03*
X200100D03*
X203900Y51500D03*
X200100D03*
X202278Y94656D03*
X202100Y113800D03*
X202356Y136041D03*
X213600Y76500D03*
X217400D03*
X213600Y72500D03*
X217400D03*
X213600Y80500D03*
X217400D03*
Y92500D03*
X213600D03*
Y88500D03*
X217400D03*
X213600Y84500D03*
X217400D03*
Y104500D03*
X213600D03*
X217400Y96500D03*
X213600D03*
X217400Y100500D03*
X213600D03*
X217400Y108500D03*
X213600D03*
X217400Y112500D03*
X213600D03*
X217400Y116500D03*
X213600D03*
X217400Y120500D03*
X213600D03*
X217400Y124500D03*
X213600D03*
X217400Y128500D03*
X213600D03*
X217400Y140500D03*
X213600D03*
Y136500D03*
X217400D03*
Y132500D03*
X213600D03*
X217400Y152500D03*
X213600D03*
X217400Y144500D03*
X213600D03*
X217400Y148500D03*
X213600D03*
X217400Y164500D03*
X213600D03*
X217400Y160500D03*
X213600D03*
X217400Y156500D03*
X213600D03*
X227100Y80500D03*
X223300D03*
X227100Y92500D03*
X223300D03*
X227100Y84500D03*
X223300D03*
Y88500D03*
X227100D03*
X233600Y92500D03*
X223300Y104500D03*
X227100D03*
Y96500D03*
X223300D03*
Y100500D03*
X227100D03*
X233600Y104500D03*
Y100500D03*
Y96500D03*
X237400Y92500D03*
Y104500D03*
Y100500D03*
Y96500D03*
X265100Y50500D03*
X268900D03*
X265100Y54400D03*
X268900D03*
X268800Y58300D03*
X265000D03*
X268700Y63300D03*
X264900D03*
G54D20*
X-38950Y151800D03*
Y146800D03*
Y161800D03*
Y156800D03*
Y176800D03*
Y171800D03*
Y166800D03*
Y186800D03*
Y181800D03*
Y191800D03*
X-17650Y151800D03*
Y146800D03*
Y161800D03*
Y156800D03*
Y176800D03*
Y171800D03*
Y166800D03*
Y186800D03*
Y181800D03*
Y191800D03*
G54D12*
X-50280Y22669D03*
X-42720D03*
Y31331D03*
G54D21*
X-33615Y10277D03*
Y39608D03*
G54D30*
X-12992Y73996D03*
Y136004D03*
G54D22*
X-27670Y7226D03*
Y42659D03*
G54D13*
X-49492Y31331D03*
G54D40*
X45441Y148985D03*
X50559D03*
Y156515D03*
X48000D03*
X45441D03*
X102559Y104265D03*
X97441D03*
Y96735D03*
X100000D03*
X102559D03*
G54D31*
X0Y0D03*
Y190000D03*
X260000Y12500D03*
Y177500D03*
G54D41*
X79976Y88560D03*
Y96040D03*
X89424Y92300D03*
G54D23*
X-33615Y21793D03*
Y18643D03*
Y15494D03*
X-30859Y20218D03*
Y12935D03*
X-33615Y34391D03*
Y31242D03*
Y28092D03*
X-30859Y29667D03*
Y26517D03*
Y23368D03*
Y36950D03*
X40970Y166373D03*
X55143D03*
X48057D03*
G54D14*
X-50500Y56000D03*
X-43500D03*
X2750Y16000D03*
X9750D03*
X2500Y31750D03*
X9500D03*
X2500Y40000D03*
X9500D03*
X1500Y59950D03*
X8500D03*
X2500Y50200D03*
X9500D03*
X60500Y17500D03*
X67500D03*
X80500Y24000D03*
X73500D03*
X80000Y53500D03*
X73000D03*
X80000Y62000D03*
X73000D03*
X114500Y68500D03*
X121500D03*
G54D32*
X-12100Y21100D03*
Y26700D03*
X24513Y28598D03*
Y34198D03*
X24613Y39906D03*
Y45506D03*
Y56983D03*
Y51383D03*
X32500Y114700D03*
Y120300D03*
X29250Y135700D03*
Y141300D03*
X40570Y32661D03*
Y27061D03*
X34227Y32972D03*
Y27372D03*
X34379Y48585D03*
Y54185D03*
X42000Y114700D03*
Y120300D03*
X52193Y29785D03*
Y24185D03*
X53082Y47791D03*
Y53391D03*
X48000Y114700D03*
Y120300D03*
X66000Y23700D03*
Y29300D03*
Y40700D03*
Y46300D03*
Y58300D03*
Y52700D03*
X69500Y129200D03*
Y134800D03*
X114563Y74956D03*
Y80556D03*
X130700Y125600D03*
Y120000D03*
X148421Y74956D03*
Y80556D03*
X148476Y152670D03*
Y158270D03*
X164169Y149921D03*
Y144321D03*
X174900Y68000D03*
Y73600D03*
X170523Y153660D03*
Y159260D03*
G54D50*
X241920Y27910D03*
Y79650D03*
G54D24*
X-27500Y55750D03*
Y66750D03*
X217000Y38300D03*
Y49300D03*
G54D60*
X253200Y98150D03*
Y104450D03*
G54D42*
X90500Y57500D03*
G54D51*
X231250Y40000D03*
Y49840D03*
Y57720D03*
Y67560D03*
G54D33*
X0Y82500D03*
Y92500D03*
X10000Y87500D03*
X0Y102500D03*
X10000Y97500D03*
Y107500D03*
X0Y112500D03*
X10000Y117500D03*
X0Y122500D03*
G54D15*
X-53800Y56000D03*
X-53900Y58100D03*
X-52050Y58000D03*
X-53850Y54000D03*
X-52050D03*
Y56000D03*
X-54400Y66200D03*
X-54350Y68050D03*
X-54300Y70200D03*
X-42100Y17000D03*
X-45900D03*
X-48200Y33300D03*
X-46000Y25500D03*
Y27750D03*
X-48200Y35100D03*
X-44400Y49100D03*
Y51100D03*
X-50150Y58000D03*
Y56000D03*
Y54000D03*
X-44526Y56669D03*
X-42526D03*
X-42900Y67700D03*
X-44600Y68800D03*
X-44700Y66800D03*
X-39800Y63100D03*
X-44526Y58669D03*
X-42526D03*
X-48500Y106500D03*
X-41300Y140400D03*
X-38700Y157400D03*
X-38950Y166900D03*
X-39200Y171650D03*
Y176900D03*
X-39900Y186500D03*
X-36500Y58000D03*
X-30500Y50000D03*
X-26800Y47200D03*
X-30000Y56750D03*
X-27500D03*
X-30000Y54750D03*
X-27500D03*
X-36511Y54000D03*
X-27500Y66250D03*
X-30088D03*
X-30600Y98693D03*
X-29800Y140700D03*
X-31350Y152650D03*
X-26900Y160900D03*
X-29700Y157600D03*
Y173700D03*
X-29900Y166300D03*
X-28500Y177600D03*
X-30500Y190400D03*
X-19400Y4800D03*
X-15000Y6500D03*
X-18000D03*
Y8750D03*
X-15000Y13300D03*
X-23500Y13500D03*
X-21700Y13000D03*
X-19100Y19400D03*
X-17600Y17000D03*
X-21200Y17300D03*
X-23450Y20250D03*
X-21500Y20100D03*
X-23400Y18050D03*
Y15750D03*
X-19100Y11850D03*
Y14100D03*
X-15000Y30500D03*
X-23000Y24200D03*
X-24200Y26100D03*
X-16600Y28100D03*
X-17800Y33450D03*
Y31200D03*
X-21800Y29300D03*
X-23500Y29750D03*
X-21000Y26700D03*
X-15000Y45500D03*
X-23700Y36400D03*
X-22700Y34900D03*
X-18000Y38000D03*
Y40000D03*
X-20000D03*
Y38000D03*
X-22000Y40000D03*
Y38000D03*
X-16000Y40000D03*
Y38000D03*
X-20750Y45000D03*
Y49500D03*
Y51750D03*
Y47250D03*
Y54000D03*
Y56250D03*
X-24000Y50000D03*
X-25000Y56750D03*
Y54750D03*
X-25088Y66250D03*
X-16300Y65500D03*
X-20000Y64000D03*
X-16800Y105700D03*
X-21000D03*
X-16800Y109700D03*
Y113700D03*
X-24800Y109700D03*
X-21000D03*
X-24450Y151900D03*
X-24500Y146350D03*
X-24450Y156800D03*
X-26650Y164050D03*
X-25000Y166800D03*
X-24450Y177650D03*
X-24750Y188250D03*
X-15600Y181500D03*
X-12000Y8750D03*
Y6500D03*
X-11000Y16400D03*
X-4500Y18000D03*
X-13000Y15100D03*
X-8700Y18000D03*
X-5600Y14600D03*
Y12400D03*
X-4400Y31000D03*
X-4300Y24000D03*
X-4250Y28500D03*
X-8750D03*
X-12000Y32750D03*
Y30500D03*
X-12750Y45500D03*
X-14000Y38000D03*
Y40000D03*
X-3100Y42900D03*
X-10000Y50750D03*
Y48750D03*
X-11980Y61620D03*
X-9800Y61300D03*
X-10300Y63500D03*
X-12900Y109700D03*
X-5000Y144400D03*
X-5750Y153000D03*
X-11100Y162000D03*
X-5600Y159200D03*
X-10000Y174900D03*
X-11200Y166900D03*
X-10500Y178900D03*
X-250Y13000D03*
Y19000D03*
Y17000D03*
Y15000D03*
X7550Y10750D03*
X-2500Y22500D03*
X8200Y24500D03*
X8300Y22600D03*
X6300D03*
Y24700D03*
X-300Y29800D03*
Y31700D03*
X-250Y33750D03*
X8600Y27200D03*
X8000Y35300D03*
X6300D03*
X-2750Y45250D03*
X-300Y35800D03*
X-250Y41650D03*
X-200Y39700D03*
X-250Y43750D03*
X8500Y45100D03*
X-250Y56000D03*
Y57800D03*
X-2750Y52000D03*
Y47500D03*
Y54250D03*
Y49750D03*
Y57000D03*
X8800Y67450D03*
X-250Y59600D03*
Y61500D03*
X-2750Y59250D03*
Y61500D03*
X-200Y130800D03*
X2250Y144000D03*
Y153050D03*
X8000Y153000D03*
Y144000D03*
X3150Y165000D03*
X8500Y161900D03*
X3800Y160400D03*
X-1200D03*
X1300D03*
X3150Y168000D03*
X8600Y171050D03*
X-1200Y172900D03*
X1300D03*
X3800D03*
X14000Y13000D03*
X12700Y14500D03*
X11200Y10800D03*
X9400D03*
X17250Y15000D03*
X15000Y18000D03*
X10100Y24500D03*
Y22600D03*
X14600Y28100D03*
X10600Y27200D03*
X14600Y31900D03*
X9800Y35300D03*
X11600D03*
X14623Y43097D03*
X12000Y45100D03*
X10250D03*
X9400Y48400D03*
X9300Y50300D03*
Y52200D03*
X12250Y57000D03*
X20600Y54900D03*
X10600Y67500D03*
X9500Y65500D03*
X18500Y69000D03*
X14400D03*
X20800Y59000D03*
X12200Y60800D03*
Y58900D03*
X14600Y59200D03*
X14500Y63400D03*
X19250Y81500D03*
X19600Y103600D03*
X19400Y95600D03*
X19700Y111200D03*
X19100Y127500D03*
X19500Y119200D03*
X19400Y131800D03*
X20000Y152200D03*
X10500Y141800D03*
Y144000D03*
X20250Y161900D03*
X16250D03*
X12300D03*
X20350Y171050D03*
X16350D03*
X12350D03*
X25250Y18750D03*
X21250D03*
X23250D03*
X21250Y16750D03*
X23250D03*
X25250D03*
X21250Y20750D03*
X23250D03*
X25250D03*
X27250Y16750D03*
Y18750D03*
Y20750D03*
X24850Y26197D03*
X28031Y26242D03*
X31131Y32492D03*
X21300Y30400D03*
X21400Y25800D03*
X27942Y32452D03*
X21300Y28100D03*
X31131Y29342D03*
Y26193D03*
X23500Y40700D03*
X21000Y41750D03*
X31131Y45034D03*
X27981D03*
X31131Y38791D03*
X27981D03*
X21100Y34800D03*
X21200Y37000D03*
X31131Y35641D03*
X27981D03*
X24400Y35456D03*
X31131Y57633D03*
X27981D03*
X24832Y54183D03*
X31131D03*
X27981D03*
X31131Y48184D03*
X27981Y51334D03*
X31131D03*
X27981Y48184D03*
X24889Y48261D03*
X23000Y68000D03*
X23800Y65400D03*
X27981Y60782D03*
X25100Y60300D03*
X30900Y67600D03*
X30250Y91500D03*
X23519Y88026D03*
X27300Y91500D03*
X27200Y103300D03*
X31750Y101250D03*
Y96538D03*
X29600Y97300D03*
X27300Y99500D03*
Y95400D03*
X29500Y111600D03*
X27200Y107100D03*
X27100Y115000D03*
Y111100D03*
X31713Y105987D03*
X27200Y121400D03*
X30500Y123500D03*
X27000Y118700D03*
X22600Y136200D03*
X30250Y141500D03*
X28250D03*
X22900Y144500D03*
X29159Y152200D03*
X29100Y162800D03*
X24100Y161900D03*
X24500Y156250D03*
X24100Y171050D03*
X29100Y169900D03*
X37300Y32500D03*
X43683Y32462D03*
X40531D03*
X37430Y29286D03*
Y26137D03*
X43644Y26237D03*
X43444Y29056D03*
X34281Y26137D03*
Y29286D03*
Y26193D03*
X37401Y45061D03*
X40570Y41894D03*
X43674Y38791D03*
X34400Y45100D03*
X34281Y41941D03*
X37430D03*
X34281Y38791D03*
X37430D03*
X34281Y35641D03*
X43644Y41957D03*
X40531Y45070D03*
X43674Y45034D03*
X40570Y35614D03*
X43683D03*
X37430Y35641D03*
X40500Y51400D03*
X43721Y48221D03*
X43732Y51332D03*
X37430Y54483D03*
Y48184D03*
X40570Y48104D03*
X43722Y57717D03*
X34281Y57633D03*
X37430D03*
X40492Y57757D03*
X37430Y51334D03*
X35659Y64664D03*
X43900Y70100D03*
X43850Y60640D03*
X40580Y60782D03*
X40082Y64860D03*
X40000Y76400D03*
X35200Y73100D03*
X37400Y74693D03*
X41700Y70200D03*
X38300Y93900D03*
X40800D03*
X43300D03*
X34250Y89500D03*
X32750Y87750D03*
X42500Y86750D03*
X40250D03*
X43300Y98900D03*
X40800D03*
X38300D03*
Y96400D03*
X40800D03*
X43300D03*
X38300Y101400D03*
X40800D03*
X43300D03*
X38300Y103900D03*
X36500Y112400D03*
X35600Y115000D03*
X42500Y110700D03*
X40500Y123500D03*
X38000D03*
X33200Y123700D03*
X35200Y125400D03*
X44500Y126000D03*
X41000D03*
X37400Y137100D03*
X33000Y135700D03*
X41000Y135000D03*
X44500D03*
Y141400D03*
X41000D03*
X33884Y129759D03*
X37427D03*
X33900Y143400D03*
X33750Y148750D03*
X41500Y151100D03*
Y155200D03*
X44500Y170600D03*
X34000D03*
X44500Y174750D03*
X40970Y174641D03*
X37427D03*
X34000Y174500D03*
X55250Y22250D03*
X47000Y16000D03*
Y18000D03*
Y20000D03*
X53178Y29349D03*
X53139Y32422D03*
X49987Y32462D03*
X56333Y26052D03*
X56272Y32492D03*
X46796Y32422D03*
X56330Y29349D03*
X46400Y26100D03*
X49973Y23043D03*
Y26193D03*
X53053Y23112D03*
X53034Y26282D03*
X53189Y45024D03*
X53100Y41839D03*
X53122Y35641D03*
X56272Y35585D03*
X49987Y45030D03*
X53122Y38791D03*
X49987Y41878D03*
X49973Y38791D03*
X49908Y35692D03*
X46953Y38687D03*
X56370Y41918D03*
X56299Y45063D03*
X46870Y35613D03*
X56272Y54483D03*
Y51334D03*
X49973D03*
X53122Y48184D03*
X46953Y51256D03*
X46835Y48222D03*
X56272Y48184D03*
Y57633D03*
X50026Y57717D03*
X53122Y54483D03*
X46914Y57717D03*
X49973Y54483D03*
X46800Y67378D03*
X53208Y60800D03*
X56272Y60782D03*
X46832Y60832D03*
X54250Y70000D03*
X50026Y60751D03*
X56262Y63922D03*
X53152Y63961D03*
X48000Y76400D03*
X54250Y80000D03*
X48300Y70200D03*
X46100D03*
X52300Y72600D03*
X52000Y83900D03*
X48100Y93900D03*
X55400Y92800D03*
X47900Y83800D03*
X45750Y86750D03*
X45800Y98900D03*
X48100D03*
X45800Y96400D03*
X48100D03*
X45800Y101400D03*
X48100D03*
X55250Y96500D03*
X46100Y117500D03*
X55000Y108000D03*
X47237Y110170D03*
X56400Y116500D03*
X52750Y108000D03*
X55000Y126000D03*
X48000Y141400D03*
X55000Y135000D03*
X51600Y129759D03*
X55000Y141400D03*
X48057Y129759D03*
X54500Y155100D03*
X66750Y15500D03*
Y19500D03*
Y17500D03*
X59500Y22500D03*
X57250Y22250D03*
X58200Y13900D03*
X58100Y19300D03*
Y17500D03*
Y15800D03*
X66574Y24582D03*
X62547Y26217D03*
X59422Y32492D03*
X62571D03*
X62600Y29460D03*
X65830Y29390D03*
X66141Y32659D03*
X59422Y45034D03*
X62571D03*
X59488Y38725D03*
X62637D03*
X62571Y41941D03*
Y57633D03*
X59478Y51334D03*
X62627D03*
X65777Y54483D03*
X62571D03*
X59422D03*
X64200Y64000D03*
X59404Y60791D03*
X59000Y80000D03*
X60500Y76000D03*
X64400D03*
X68300Y76400D03*
X66600Y79600D03*
X56500Y80000D03*
X56600Y76000D03*
X66500Y91500D03*
X66600Y87400D03*
X56600Y94700D03*
X66500Y95500D03*
X56600Y98300D03*
X60000Y103800D03*
X57250Y104250D03*
X67250Y111050D03*
Y107500D03*
X58500Y126000D03*
X62300Y129800D03*
X58500Y135000D03*
Y141400D03*
X63600Y150600D03*
X67000Y144100D03*
X58500Y151100D03*
Y155200D03*
X67200Y169600D03*
X62200Y174600D03*
X72000Y13500D03*
Y19500D03*
X74800Y17148D03*
X76600Y18900D03*
X74800D03*
X69490Y32935D03*
X72000Y28500D03*
X76500Y32500D03*
Y30500D03*
Y28500D03*
X68500Y40500D03*
X72000Y37000D03*
Y43000D03*
X76500Y44000D03*
Y46000D03*
Y34500D03*
X72000Y49000D03*
X79600Y52000D03*
X79700Y53800D03*
Y55600D03*
X76500Y48000D03*
X72000Y68500D03*
X69500Y59235D03*
X76500Y64000D03*
Y60000D03*
Y62000D03*
X77000Y68300D03*
X73800Y79800D03*
X70400Y79600D03*
X77000Y71500D03*
X70400Y87400D03*
Y91500D03*
X75000Y87500D03*
X80000Y88500D03*
X70400Y83400D03*
X78500Y104500D03*
X70250Y100250D03*
Y98000D03*
X74600Y100600D03*
X70300Y95500D03*
X76000Y104500D03*
X72400Y111700D03*
X78500Y117200D03*
X79700Y109900D03*
X69500Y134800D03*
X69250Y141500D03*
X74000Y132000D03*
X69316Y129759D03*
X75500Y141500D03*
X74041Y152200D03*
Y148657D03*
Y145113D03*
X69500Y155800D03*
X74000Y162800D03*
X75500Y155750D03*
X74000Y169900D03*
X77250Y174750D03*
X69316Y174641D03*
X75000Y182250D03*
X91250Y20750D03*
Y15500D03*
X81200Y15700D03*
Y17600D03*
Y19400D03*
X85950Y20750D03*
Y18750D03*
X85500Y15000D03*
X91250Y31250D03*
Y26000D03*
X85950Y33500D03*
Y31500D03*
Y29500D03*
Y22750D03*
X91250Y36500D03*
X88550Y55750D03*
Y53750D03*
X81700Y55600D03*
Y53800D03*
X81600Y52000D03*
X85900Y55500D03*
X86000Y63500D03*
X80500Y68300D03*
X85900Y59400D03*
X88400Y72000D03*
X86500Y79000D03*
X80500Y71500D03*
X86524Y88460D03*
X82100Y104500D03*
X91000Y100500D03*
X88400Y104500D03*
X81250Y111750D03*
X87250Y151000D03*
X89250D03*
X85250D03*
X81800Y154900D03*
X84800D03*
X81000Y163750D03*
X85000Y163500D03*
X91750Y155000D03*
X85000Y173900D03*
Y167500D03*
X81000Y167400D03*
X91100Y170600D03*
X89000Y167400D03*
X81250Y179750D03*
X94500Y21750D03*
Y19750D03*
X101000Y22500D03*
Y19000D03*
Y15500D03*
X97500D03*
X98000Y20750D03*
X94500Y32250D03*
Y30250D03*
X101000Y33000D03*
Y29500D03*
Y26000D03*
X98000D03*
Y31250D03*
X101000Y36500D03*
Y40000D03*
Y43500D03*
X98000Y36500D03*
Y41750D03*
X92750Y55750D03*
Y53750D03*
X98500Y57000D03*
X96400Y47000D03*
X101000Y70000D03*
X96500Y63900D03*
X96400Y68000D03*
X98500Y60000D03*
X96400Y72000D03*
X101300Y77500D03*
X101000Y92750D03*
Y90500D03*
X97500Y100200D03*
X100000Y104000D03*
X100400Y100200D03*
X101300Y107800D03*
X101400Y110400D03*
X101500Y121700D03*
X102200Y130600D03*
X97600Y149500D03*
Y145500D03*
X101400Y149500D03*
Y145500D03*
Y161500D03*
Y157500D03*
X97600Y153500D03*
X101400D03*
X93500Y163600D03*
X97600Y157500D03*
X93500Y167400D03*
X96900Y176700D03*
X102059Y176691D03*
X103500Y170600D03*
X99537Y167693D03*
X93500Y174400D03*
X115000Y15600D03*
X105200Y13100D03*
X108000Y16000D03*
X107250Y19000D03*
X110250Y20750D03*
X107250Y22500D03*
X110250Y17250D03*
X108750Y31250D03*
X107250Y29500D03*
X110250Y24250D03*
X107250Y26000D03*
X110250Y27750D03*
X113254Y33187D03*
X107250Y33000D03*
Y38750D03*
X108750Y34750D03*
X107250Y36500D03*
X113254Y39092D03*
X107250Y43500D03*
X108750Y45250D03*
X115223Y36139D03*
X107250Y41250D03*
X108750Y55750D03*
X107250Y47000D03*
Y57500D03*
Y50500D03*
X108750Y48750D03*
Y52250D03*
X107250Y54000D03*
Y64500D03*
X108750Y62750D03*
X107250Y61000D03*
X108750Y59250D03*
X105500Y70000D03*
X112663Y90354D03*
X112920Y94780D03*
X111800Y105000D03*
X105700Y103900D03*
X104500Y97300D03*
X105700Y99300D03*
X111100Y109900D03*
Y115000D03*
X107900Y106100D03*
X107400Y111000D03*
X107382Y114000D03*
X114850Y111060D03*
X114800Y113900D03*
X111250Y123750D03*
X111100Y120000D03*
X106000Y129100D03*
X104100Y120000D03*
X107400Y121800D03*
X111500Y141000D03*
Y136000D03*
X111300Y129800D03*
X115500Y136000D03*
X104100Y141700D03*
X112485Y147504D03*
X104672Y147372D03*
X104900Y150300D03*
X112300Y150067D03*
X114750Y147500D03*
X114446Y151722D03*
X104250Y157500D03*
X104900Y153700D03*
Y161500D03*
X106750Y157500D03*
X113400Y156300D03*
X113250Y161500D03*
X112500Y153416D03*
X115750Y161500D03*
X115500Y174400D03*
X111500Y170600D03*
X115500D03*
X107500Y174400D03*
X111500Y176750D03*
X105500D03*
X113750D03*
X122506Y21966D03*
X125656D03*
X121128Y33187D03*
X117191D03*
X125065D03*
X121128Y39092D03*
X119160Y36139D03*
X127034D03*
X125065Y39092D03*
X123097Y36139D03*
X117191Y39092D03*
X122506Y50313D03*
X125656D03*
X120147Y76253D03*
X123224Y79331D03*
X126374D03*
Y76181D03*
X120074Y79331D03*
X123203Y76160D03*
X123224Y91929D03*
X120074Y85630D03*
X126392Y91948D03*
X120074Y82480D03*
X123224D03*
Y85630D03*
X126392Y88798D03*
Y85648D03*
Y82499D03*
X123224Y88780D03*
X120074D03*
Y91929D03*
X120301Y104301D03*
X120074Y98228D03*
X126392Y101396D03*
X123224Y95079D03*
X126392Y98247D03*
X120074Y95079D03*
X126374D03*
X123224Y98228D03*
X123242Y104509D03*
X126392Y107696D03*
Y110845D03*
X126300Y117144D03*
X120300Y113946D03*
X123325Y114025D03*
X120301Y110800D03*
X123400D03*
X120415Y107415D03*
X123400Y107700D03*
X119500Y124600D03*
X127350Y123950D03*
X117250Y124500D03*
X123200Y123600D03*
X116100Y120100D03*
X126200Y120250D03*
X119313Y140748D03*
X126384Y129726D03*
X126412Y139135D03*
X126372Y132875D03*
X119300Y145700D03*
X126372Y151773D03*
X117050Y145503D03*
X119411Y151801D03*
X126372Y148623D03*
X122900Y145800D03*
X119411Y159632D03*
Y162794D03*
X117125Y156529D03*
X123223Y158072D03*
X126372D03*
X127500Y174400D03*
Y170600D03*
X123500Y174400D03*
X128806Y21966D03*
X135105D03*
X131955D03*
X138254D03*
X136876Y33187D03*
X132939D03*
X129002D03*
X132939Y39092D03*
X136876D03*
X129002D03*
X130971Y36139D03*
X138828D03*
X134908D03*
X135105Y50313D03*
X128806D03*
X131955D03*
X135822Y76181D03*
X138972Y79331D03*
X129523D03*
X135822D03*
X129523Y76181D03*
X132673D03*
X138972D03*
X132673Y79331D03*
X132691Y88798D03*
X139000Y82500D03*
X138969Y91969D03*
X129542Y91948D03*
Y82499D03*
X135841D03*
X129542Y88798D03*
X135841Y85648D03*
X132673Y85630D03*
X135804Y91948D03*
X135841Y88798D03*
X132691Y82499D03*
X138991Y88798D03*
Y85648D03*
X138997Y101403D03*
X132691Y104546D03*
X129542D03*
X135822Y98228D03*
X132673D03*
X129542Y98247D03*
Y95097D03*
X132691Y101396D03*
X135841D03*
X132691Y95097D03*
X135841Y104546D03*
X138991D03*
X135841Y95060D03*
X129542Y101396D03*
X138991Y98247D03*
X138972Y95079D03*
X138991Y117144D03*
X135841Y107696D03*
X129542Y110845D03*
X132691Y107696D03*
X138948Y107653D03*
X129542Y107696D03*
X135841Y117144D03*
X138991Y113995D03*
X132691Y110845D03*
X135841D03*
Y113995D03*
X129650Y117150D03*
X138991Y110845D03*
X132691Y113995D03*
X132675Y117150D03*
X132672Y126576D03*
X135841Y123407D03*
X135821Y126576D03*
X139097Y126446D03*
X138971Y132875D03*
X132672Y136025D03*
X138971D03*
X135821Y129726D03*
X132672D03*
Y132875D03*
X129522Y129726D03*
X135861Y139135D03*
X135821Y132875D03*
X139000Y139201D03*
X132711Y139135D03*
X135821Y136025D03*
X129522Y132875D03*
X138969Y148676D03*
X129500Y151700D03*
X135821Y145474D03*
Y148623D03*
X135750Y151750D03*
X132672Y151773D03*
X138971Y145474D03*
X132672D03*
X138971Y151773D03*
X132711Y148584D03*
X138971Y142471D03*
X129522Y148623D03*
X134248Y165000D03*
X135821Y154922D03*
Y158072D03*
X132672Y154922D03*
Y158072D03*
X128000Y165000D03*
X129522Y158072D03*
X129576Y154913D03*
X131098Y165000D03*
X135500Y174400D03*
X139500Y170600D03*
X144554Y21966D03*
X141404Y18816D03*
X150853Y21966D03*
X147703D03*
X144554Y28265D03*
X144750Y33187D03*
X140813D03*
X150853Y31415D03*
Y28265D03*
X147703D03*
X150853Y25116D03*
X147703D03*
X144554D03*
Y44013D03*
X144750Y39092D03*
X140813D03*
X150853Y44013D03*
Y40864D03*
X147703Y44013D03*
X149278Y36139D03*
X146128D03*
X142782D03*
X144554Y50313D03*
X150853D03*
Y47163D03*
X147703D03*
X144554D03*
X147703Y50313D03*
X142654Y61349D03*
X151598Y76160D03*
X142122Y79331D03*
X145271Y76181D03*
Y79331D03*
X142122Y76181D03*
X151600Y79266D03*
X148439Y88798D03*
X142140Y82499D03*
Y85648D03*
Y88798D03*
X145290D03*
X142140Y91948D03*
X145290D03*
X151600Y104560D03*
X142140Y104546D03*
Y101396D03*
X148439D03*
X145290Y95097D03*
X145400Y101320D03*
X145271Y104528D03*
X151492Y101300D03*
X148491Y98344D03*
X145290Y98247D03*
X142140D03*
Y95097D03*
X151589Y110845D03*
Y117144D03*
X148439D03*
Y107696D03*
X148484Y113876D03*
X142080Y110880D03*
X145290Y113995D03*
Y117144D03*
X148439Y110845D03*
X142168Y107668D03*
X142101Y117147D03*
X151500Y114050D03*
X145200Y107606D03*
X148420Y126630D03*
X142140Y120294D03*
X142132Y123435D03*
X145400Y123550D03*
X145290Y120294D03*
X142074Y126622D03*
X151473Y126673D03*
X148439Y120294D03*
X148420Y132875D03*
X142120D03*
Y136025D03*
X151569Y132875D03*
X148420Y136025D03*
X151569D03*
X145270Y129726D03*
Y132875D03*
X151569Y139174D03*
X148420D03*
X151569Y129726D03*
X148420D03*
X142120Y145474D03*
Y142324D03*
X151569D03*
X145270Y148623D03*
X151569Y151773D03*
X142105Y148649D03*
X142120Y151773D03*
X148420Y145474D03*
X151569D03*
Y148623D03*
X148420D03*
Y142324D03*
X145270Y145474D03*
X148420Y151773D03*
Y158072D03*
X151569D03*
Y154922D03*
X145270D03*
X145217Y158125D03*
X148420Y154922D03*
X151500Y174400D03*
X147500D03*
X150250Y165500D03*
X145750D03*
X151500Y170600D03*
X147500D03*
X148000Y165500D03*
X143500D03*
Y174400D03*
X160302Y21966D03*
X154002Y21900D03*
X157152Y21966D03*
X163451D03*
X157152Y25116D03*
Y31415D03*
X163451Y28265D03*
X160302Y31415D03*
X163451D03*
Y25116D03*
X154002D03*
X157152Y28265D03*
X154002Y31415D03*
X160302Y28265D03*
X154002D03*
X160302Y25116D03*
X154002Y44013D03*
X157152Y40864D03*
X163451D03*
Y44013D03*
X160302Y40864D03*
X157152Y44013D03*
X154002Y40864D03*
Y36139D03*
X160302Y44013D03*
X163451Y50313D03*
X157152D03*
X160302Y47163D03*
X157152D03*
X154002D03*
X163451D03*
X154002Y50313D03*
X160302D03*
X158000Y69500D03*
X160953D03*
X161100Y74500D03*
X158000D03*
X161017Y88800D03*
Y85648D03*
X154739Y98247D03*
Y101396D03*
X161038Y104546D03*
X157888D03*
X154739D03*
X161038Y101396D03*
X157888D03*
X151640Y98344D03*
X157888Y107696D03*
X154739Y110845D03*
X157888D03*
Y117144D03*
X154739D03*
X161038D03*
Y113995D03*
X157888D03*
X154739D03*
X161019Y107677D03*
X154739Y107696D03*
X161038Y110845D03*
X157888Y120294D03*
X161122Y129622D03*
X157868Y126576D03*
X161001Y126556D03*
X154700Y120500D03*
X161038Y120294D03*
X157868Y132875D03*
Y129726D03*
X154719Y136025D03*
Y139174D03*
X161018Y132875D03*
X154719D03*
Y129726D03*
X161018Y136025D03*
X157871D03*
X161018Y139174D03*
X157868D03*
X154719Y142324D03*
Y151773D03*
Y145474D03*
Y148623D03*
X157868Y142324D03*
X161018D03*
Y145474D03*
X157868Y151773D03*
X161018D03*
Y148623D03*
X162593Y164961D03*
X157868Y158072D03*
X154719Y154922D03*
X157868D03*
X154721Y164371D03*
X159500Y174400D03*
X163500D03*
X155500D03*
X169750Y21966D03*
X172900D03*
X166601D03*
Y28265D03*
X172900D03*
X166601Y31415D03*
X169750D03*
Y25116D03*
X172900Y31415D03*
X166601Y25116D03*
X172900D03*
X169750Y28265D03*
Y36139D03*
Y44013D03*
X166601Y40864D03*
X172900D03*
X166601Y44013D03*
X169750Y40864D03*
X172900Y44013D03*
X169750Y50313D03*
X172900Y47163D03*
X166601D03*
X172900Y50313D03*
X169750Y47163D03*
X166601Y50313D03*
X166500Y69500D03*
X169453Y69389D03*
Y74389D03*
X166460Y74500D03*
X164100Y79400D03*
X170430Y85668D03*
Y104566D03*
X173580D03*
X170430Y98266D03*
X164131D03*
X167124Y104639D03*
X167280Y101416D03*
Y98266D03*
X173580D03*
Y101416D03*
X170424Y95124D03*
X170430Y117164D03*
X173580Y114015D03*
X167357Y110865D03*
X167318Y107677D03*
X170468Y110827D03*
Y107677D03*
Y113976D03*
X173618Y110827D03*
Y107677D03*
Y117126D03*
X167280Y117164D03*
Y114015D03*
X170430Y120314D03*
X170469Y126576D03*
X167320D03*
X173619D03*
X173580Y120314D03*
X167280D03*
X170469Y132875D03*
X173619Y136025D03*
X167320Y129726D03*
X170469Y136025D03*
X167320Y132875D03*
X173619Y129726D03*
Y132875D03*
X167320Y136025D03*
X170469Y129726D03*
X173619Y145474D03*
X173618Y148622D03*
X170469Y142324D03*
X167320D03*
X170469Y151773D03*
X167320Y148623D03*
Y151773D03*
X170469Y158072D03*
X173619Y161222D03*
Y164371D03*
X170469Y154922D03*
X170430Y164332D03*
X164250Y161220D03*
X171500Y174400D03*
X167500D03*
X185500Y1700D03*
X180600Y14700D03*
X181600Y22140D03*
X185900Y27600D03*
X182000Y25250D03*
X185900Y57500D03*
X186750Y46750D03*
X185900Y61500D03*
X175953Y68000D03*
X179600D03*
X182500Y64500D03*
X180500D03*
X178500D03*
X179600Y71500D03*
X175900Y73700D03*
X181900Y75326D03*
X182989Y79408D03*
X179879Y88818D03*
X186300Y88800D03*
X183200Y101400D03*
X183002Y95144D03*
X176767Y104528D03*
X179879Y104566D03*
X186200Y104500D03*
X183002Y98256D03*
X186169Y95031D03*
X186178Y98266D03*
X186247Y101347D03*
X179879Y117164D03*
X183028D03*
X186178Y114015D03*
X179879Y110865D03*
Y107715D03*
X183028D03*
Y110865D03*
X176767Y110827D03*
X176709Y107677D03*
X176767Y113976D03*
X183028Y114015D03*
X179879D03*
X186178Y110865D03*
Y117164D03*
Y107715D03*
X176729Y120314D03*
X176768Y126576D03*
X186178Y120314D03*
X186217Y126576D03*
X179918D03*
X183068D03*
X179879Y120314D03*
X183028D03*
X176768Y136025D03*
X179918D03*
X186217Y129726D03*
X183068D03*
X186300Y136000D03*
X176768Y129726D03*
X179918Y132875D03*
X176768D03*
X179918Y129726D03*
X183068Y139174D03*
X179918D03*
X176768D03*
X183068Y136025D03*
Y132875D03*
X186217D03*
Y139174D03*
X179918Y151773D03*
X176768Y145474D03*
Y142324D03*
X186217Y148623D03*
X183066Y148622D03*
X186216Y151772D03*
X179917Y145472D03*
X183066Y151772D03*
X179919Y148622D03*
X176767D03*
X176768Y151773D03*
X183068Y145474D03*
X186254Y145511D03*
X183044Y142300D03*
X179918Y164371D03*
Y154922D03*
X183066Y154921D03*
X186216D03*
X183068Y164371D03*
X186217Y161222D03*
X183068D03*
X176768Y164371D03*
Y154922D03*
X186217Y158072D03*
X176768D03*
X183068D03*
X186217Y164371D03*
X176768Y161222D03*
X179918D03*
X179500Y174400D03*
X175500D03*
X183500D03*
X195700Y2100D03*
X187600Y14500D03*
X197700Y27600D03*
X189800D03*
X193700D03*
X197600Y33800D03*
X189900Y33700D03*
X193500Y33600D03*
X195500Y43900D03*
X197750Y45500D03*
X199000Y38500D03*
X195000D03*
X189000Y42500D03*
Y44750D03*
X197016Y40750D03*
X198900Y35600D03*
X189000Y40000D03*
X195200Y36100D03*
X191600D03*
X189500Y37000D03*
Y57600D03*
X195750Y47500D03*
X195400Y55000D03*
X198000Y57600D03*
X189000Y51250D03*
X198000Y55000D03*
X189400Y48900D03*
X187500Y54750D03*
X196000Y67100D03*
X187500Y67250D03*
X195500Y75000D03*
X192000Y70900D03*
X198750Y76250D03*
X198841Y79304D03*
X196000Y70900D03*
X195610Y85570D03*
X198776Y88818D03*
X195627Y91967D03*
X198776D03*
X189400Y88800D03*
X189328Y91967D03*
X195627Y88818D03*
X198776Y82518D03*
X198802Y85766D03*
X195627Y104566D03*
X198776D03*
X189300Y101400D03*
X192474Y101474D03*
X189328Y98266D03*
X198700Y101400D03*
X195627Y101416D03*
X198776Y98266D03*
X189394Y95106D03*
X192600Y95000D03*
X195627Y95117D03*
X198776D03*
X195627Y98266D03*
X192477Y107639D03*
Y110789D03*
X195600Y107800D03*
X198776Y107712D03*
X189328Y117164D03*
X195627Y114015D03*
X198700Y113900D03*
X195627Y110865D03*
X189328D03*
Y114015D03*
X198776Y110865D03*
X192477Y113938D03*
X195666Y126576D03*
X198816D03*
X189328Y120314D03*
X192477D03*
X198776D03*
X189367Y139174D03*
X198816Y136025D03*
X195594Y136094D03*
X189367Y132875D03*
X192516Y136025D03*
Y139174D03*
Y129726D03*
X189367D03*
X195669Y139169D03*
X198816Y139174D03*
Y132875D03*
X192477Y132836D03*
X189367Y136025D03*
X195627Y132836D03*
X189272Y142229D03*
X189367Y145474D03*
X192516D03*
X195666Y148623D03*
X189367Y151773D03*
X195666D03*
X192516Y142324D03*
X195666Y145474D03*
X198816Y151773D03*
Y148623D03*
X198776Y142285D03*
Y145434D03*
X189404Y148660D03*
X192500Y148800D03*
X189379Y161219D03*
X195700Y155000D03*
X198816Y154920D03*
X195666Y158072D03*
X189367Y154922D03*
X198750Y164500D03*
X192516Y154922D03*
X198816Y158070D03*
X195664Y164371D03*
X192517Y161222D03*
X187500Y174400D03*
X191500D03*
X195500D03*
X194750Y183500D03*
X209300Y22400D03*
X201500Y21800D03*
X209700Y14500D03*
X209600Y27600D03*
X205800D03*
X201900D03*
X205500Y33700D03*
X209600D03*
X210200Y44700D03*
X207200Y40300D03*
X201000Y40750D03*
X207000Y43500D03*
X203200Y35900D03*
X207500Y36200D03*
X204000Y51500D03*
X202000Y57600D03*
X200000Y47500D03*
X209600Y54200D03*
X206000Y57600D03*
X207000Y47500D03*
X200250Y55000D03*
X207000Y49700D03*
X202600Y54900D03*
X204000Y67100D03*
X208225Y76219D03*
X205076Y79369D03*
X202023Y76123D03*
X201926Y79369D03*
X204000Y70900D03*
X200000D03*
X208000D03*
X209400Y91200D03*
X201926Y82518D03*
Y88818D03*
X205066Y91992D03*
X201926Y91967D03*
X205076Y88818D03*
X209600Y88500D03*
X208225Y82518D03*
X205097Y82497D03*
X201926Y85668D03*
X209200Y104700D03*
X201926Y95117D03*
X201800Y101400D03*
X201926Y98266D03*
X205000Y104600D03*
X202000Y113900D03*
X208225Y117164D03*
X205076D03*
X201800Y110900D03*
X208265Y120274D03*
X209000Y127000D03*
X209250Y123500D03*
X202000Y123433D03*
X201884Y126495D03*
X205076Y120314D03*
X201926D03*
X201965Y136025D03*
X208343Y129804D03*
X201965Y139174D03*
X205115D03*
X205034Y129644D03*
X201965Y132875D03*
X205115Y136025D03*
X208265Y148623D03*
X205115D03*
X208265Y145474D03*
X201965Y151773D03*
Y148623D03*
Y142324D03*
Y145474D03*
X205115D03*
Y142324D03*
Y164371D03*
X205128Y158072D03*
X201965Y164371D03*
X201963Y158072D03*
X201926Y154960D03*
X208250Y155000D03*
X199600Y174400D03*
X203500Y170600D03*
X207500D03*
X199500D03*
X220900Y10600D03*
X213800Y16600D03*
X219931Y17831D03*
X215864Y12336D03*
X211600Y22400D03*
X222900Y29800D03*
X213400Y27600D03*
X216200Y34300D03*
X214000Y33700D03*
X216350Y31650D03*
X211300Y35100D03*
X215600Y40200D03*
X215700Y38400D03*
X216200Y36600D03*
X220300Y44200D03*
X217900D03*
X212400Y51000D03*
Y54000D03*
X220900Y57500D03*
X212500Y63750D03*
X217800Y64000D03*
X217400Y76500D03*
Y80500D03*
X216400Y72500D03*
X222100Y80700D03*
X222000Y74600D03*
X217800Y92400D03*
X213600Y92500D03*
X217400Y84500D03*
X217800Y88400D03*
X222550Y85550D03*
X213600Y100500D03*
Y96500D03*
X217400D03*
Y100500D03*
Y116500D03*
Y108500D03*
X213600Y112500D03*
X217400D03*
X221250D03*
Y108500D03*
Y116500D03*
X217400Y120500D03*
Y124500D03*
X217500Y128500D03*
X213600D03*
X221250D03*
Y120500D03*
X217400Y132500D03*
Y136500D03*
X213600D03*
Y132500D03*
X221250Y140500D03*
Y137000D03*
Y146750D03*
Y150016D03*
X217400Y148500D03*
Y144500D03*
X219750Y142500D03*
X217400Y152500D03*
Y160500D03*
Y164500D03*
Y156500D03*
X213500D03*
X221250Y160500D03*
X211500Y170600D03*
X219500D03*
X215500D03*
X230400Y15300D03*
Y18400D03*
X224900Y14100D03*
X223450Y10850D03*
X224600Y22100D03*
X223000Y33400D03*
X223600Y27700D03*
X227000Y29800D03*
X225400Y31700D03*
X230300Y33100D03*
X223300Y38100D03*
Y39800D03*
X226000Y77900D03*
X227100Y92500D03*
X226100Y85900D03*
X230700Y89000D03*
X223300Y92500D03*
Y88500D03*
X233600Y92500D03*
X227100Y104500D03*
Y96500D03*
Y100500D03*
X223300D03*
X223700Y96500D03*
X233580Y100820D03*
X234000Y96500D03*
X223300Y104500D03*
X231800Y109100D03*
X227400Y124500D03*
Y128500D03*
X233900Y137100D03*
X227400Y136500D03*
Y132500D03*
Y140500D03*
Y148500D03*
Y152500D03*
X233200Y145200D03*
X232500Y147300D03*
X227400Y144500D03*
Y156500D03*
X232500Y156250D03*
X223600Y160500D03*
X227400D03*
X223500Y170600D03*
X232000Y170900D03*
X226500Y170600D03*
X227500Y174400D03*
X231500D03*
X236800Y40800D03*
X243500Y41200D03*
X241900Y54600D03*
X242600Y51400D03*
X235700Y62500D03*
X245450Y93650D03*
X243140Y89170D03*
X245400Y89600D03*
X240100Y91860D03*
X245500Y99000D03*
X245696Y97300D03*
X237225Y100720D03*
X237000Y96810D03*
X242100Y104900D03*
X240100Y94260D03*
X241300Y96400D03*
Y98800D03*
X240300Y101113D03*
Y103513D03*
X246000Y110000D03*
X234900Y109300D03*
X243400Y110500D03*
X241400D03*
X239400D03*
X242100Y107300D03*
X246500Y119750D03*
X242800Y123600D03*
X244000Y117800D03*
Y119700D03*
X246750Y130500D03*
X242824Y143280D03*
X235500Y174400D03*
X237500Y168250D03*
X242250D03*
X246750D03*
X240000D03*
X244500D03*
X243500Y174400D03*
X239500D03*
X235000Y168250D03*
X254700Y40700D03*
Y44800D03*
X257500Y40800D03*
Y44800D03*
X256100Y42700D03*
X250300Y44100D03*
Y41420D03*
X250900Y56400D03*
X255000D03*
X252900Y49500D03*
X250300Y46539D03*
X250900Y69700D03*
Y60700D03*
X255000D03*
X252900Y58500D03*
X248150Y68550D03*
X253200Y72700D03*
X255500Y72800D03*
X254200Y88600D03*
X254300Y84300D03*
X253900Y93100D03*
X254000Y90800D03*
X247600Y89700D03*
X254800Y102500D03*
X253200Y103600D03*
X257000Y101200D03*
X248700Y100000D03*
X256400Y95700D03*
X248700Y97600D03*
X253900Y98150D03*
X247800Y115300D03*
X258400Y108100D03*
X249900Y111200D03*
X253750Y108850D03*
X248800Y117700D03*
X251000Y119750D03*
X250750Y127500D03*
X247750D03*
X256604Y127646D03*
X248800Y119700D03*
X254600Y131500D03*
X256600Y133400D03*
X250700Y135400D03*
X252700Y137400D03*
X248700Y141300D03*
X258646Y141354D03*
X250400Y137800D03*
X252250Y131468D03*
X253400Y149900D03*
X251153Y141600D03*
X256500Y163450D03*
X249000Y168250D03*
X247500Y174400D03*
X268520Y43980D03*
X268580Y41420D03*
X268900Y54400D03*
Y50500D03*
X259900Y52000D03*
X262700Y50500D03*
X268800Y60600D03*
X268700Y65500D03*
X265000Y60500D03*
X264900Y65400D03*
X265200Y93400D03*
X265500Y87000D03*
X267000Y91900D03*
X267300Y84200D03*
X267000Y89500D03*
X267700Y86500D03*
X263400Y113900D03*
X263000Y108100D03*
X267400Y118300D03*
X259100Y118100D03*
X263700Y150000D03*
X268500Y145750D03*
X258750Y154250D03*
Y158750D03*
X266000Y164000D03*
X271100Y88100D03*
Y84900D03*
X277874Y114300D03*
X273000Y128250D03*
Y137000D03*
Y132750D03*
X277874Y156900D03*
G54D70*
G01X-42720Y22669D02*
Y23421D01*
X-44800Y25500D01*
X-46000D01*
G01Y27750D02*
X-44850Y26600D01*
X-42430D01*
X-41600Y27430D01*
Y30210D01*
X-42720Y31331D01*
G54D61*
X262540Y72917D03*
Y100083D03*
G54D34*
X10000Y127500D03*
G54D52*
X247476Y43980D03*
Y41420D03*
Y38861D03*
Y46539D03*
X264724Y38861D03*
Y41420D03*
Y43980D03*
Y46539D03*
G54D16*
X-52831Y105500D03*
X-44169Y101760D03*
Y109240D03*
X75169Y80000D03*
X83831Y76260D03*
Y83740D03*
X211269Y19100D03*
X219931Y22840D03*
Y15360D03*
G54D25*
X-36500Y67598D03*
Y62402D03*
G54D43*
X84693Y53563D03*
Y55532D03*
Y57500D03*
Y59468D03*
Y61437D03*
X96307Y53563D03*
Y55532D03*
Y57500D03*
Y59468D03*
Y61437D03*
G54D71*
G01X32600Y101250D02*
X31750D01*
G01X88400Y68000D02*
X92600D01*
G01X98500Y60000D02*
X97968Y59468D01*
X96307D01*
G01Y61437D02*
X97437D01*
X97700Y61700D01*
X97900D01*
X98700Y62500D01*
Y65000D01*
X97800Y65900D01*
X94700D01*
X92600Y68000D01*
G01D02*
Y72000D01*
G01X124081Y23541D02*
X122506Y21966D01*
G01X127231Y23541D02*
X125656Y21966D01*
G01X124081Y48738D02*
X122506Y50313D01*
G01X127231Y48738D02*
X125656Y50313D01*
G01X136680Y23541D02*
X135105Y21966D01*
G01X130380Y23541D02*
X128806Y21966D01*
G01X133530Y23541D02*
X131955Y21966D01*
G01X146156Y58700D02*
X137210D01*
G01X136680Y48738D02*
X135105Y50313D01*
G01X130380Y48738D02*
X128806Y50313D01*
G01X133530Y48738D02*
X131955Y50313D01*
G01X149278Y23541D02*
X147703Y21966D01*
G01X146128Y26691D02*
X144554Y28265D01*
G01X149278Y26691D02*
X147703Y25116D01*
G01X142979Y26691D02*
X144554Y25116D01*
G01X146128Y45588D02*
X144554Y44013D01*
G01X142979Y45588D02*
X144554Y47163D01*
G01X152428Y48738D02*
X150853Y50313D01*
G01X149278Y48738D02*
X147703Y47163D01*
G01X146454Y58998D02*
X146156Y58700D01*
G01X161876Y23541D02*
X160302Y21966D01*
G01X158727Y23541D02*
X160302Y21966D01*
G01X152428Y23541D02*
X154002Y21966D01*
Y21900D01*
G01X155577Y23541D02*
X157152Y21966D01*
G01X158727Y26691D02*
X157152Y25116D01*
G01X161876Y26691D02*
X160302Y25116D01*
G01X161876Y45588D02*
X160302Y47163D01*
G01X158727Y45588D02*
X160302Y47163D01*
G01X155577Y48738D02*
X157152Y50313D01*
G01X152428Y48738D02*
G01X158727D02*
X160302Y50313D01*
G01X161876Y48738D02*
X160302Y50313D01*
G01X168176Y23541D02*
X169750Y21966D01*
G01X171325Y23541D02*
X172900Y21966D01*
G01X165026Y23541D02*
X163451Y21966D01*
G01X168176Y26691D02*
X169750Y28265D01*
G01X171325Y45588D02*
X169750Y47163D01*
G01X171325Y48738D02*
X169750Y50313D01*
G01X168176Y48738D02*
X169750Y50313D01*
G01X165026Y48738D02*
X166601Y50313D01*
G01X164260Y136302D02*
X164360D01*
X166067Y138009D01*
X170991D01*
X172900Y136100D01*
X173120D01*
G01X245450Y93650D02*
Y93550D01*
X245400Y93500D01*
Y92125D01*
G01X254200Y88600D02*
X254462Y88862D01*
X257008D01*
G01Y84138D02*
X254462D01*
X254300Y84300D01*
G01X261831Y81776D02*
X267476D01*
X269400Y83700D01*
Y87400D01*
X268800Y88000D01*
Y92700D01*
X267900Y93600D01*
X265400D01*
X265200Y93400D01*
G01D02*
Y92500D01*
X263924Y91224D01*
X261831D01*
G01X265500Y87000D02*
X265000Y86500D01*
X261831D01*
G54D44*
X110700Y112300D03*
X111419Y138526D03*
G54D35*
X20000Y-5000D03*
Y185000D03*
G54D53*
X246207Y55547D03*
Y61453D03*
X259593Y55547D03*
Y61453D03*
G54D17*
X-43400Y-1500D03*
X-28106Y-5072D03*
X-22200D03*
X252500Y0D03*
Y190000D03*
G54D62*
X261831Y80201D03*
Y81776D03*
Y83350D03*
Y84925D03*
Y86500D03*
Y92799D03*
Y91224D03*
Y89650D03*
Y88075D03*
G54D26*
X-25000Y82500D03*
Y127500D03*
G54D72*
G01X-52831Y105500D02*
X-49500D01*
X-48500Y106500D01*
G01X-49600Y17000D02*
X-45900D01*
G01D02*
X-43900Y19000D01*
X-39000D01*
X-36223Y21777D01*
X-33631D01*
X-33615Y21793D01*
G01X-43000Y63500D02*
X-43100D01*
X-44300Y62300D01*
X-47300D01*
G01X-39800Y63100D02*
X-40200Y63500D01*
X-43000D01*
G01X-47300Y62300D02*
Y66300D01*
G01X-40984Y78898D02*
X-35500Y84382D01*
Y102300D01*
X-34100Y103700D01*
X-28400D01*
X-26400Y105700D01*
X-24800D01*
G01X-36500Y67598D02*
Y67798D01*
X-39102Y70400D01*
X-47400D01*
X-47500Y70300D01*
G01D02*
X-47800Y70000D01*
Y90200D01*
X-39500Y98500D01*
Y103600D01*
G01X-47300Y70300D02*
X-47500D01*
G01X-40984Y88898D02*
Y93516D01*
X-36900Y97600D01*
Y102800D01*
X-34900Y104800D01*
X-29700D01*
X-24800Y109700D01*
G01X-44169Y109240D02*
X-41340D01*
X-39500Y107400D01*
G01X-30600Y110307D02*
X-32293Y112000D01*
X-48050D01*
X-48500Y111550D01*
Y106500D01*
G01X-26900Y160900D02*
X-27750Y161750D01*
X-38900D01*
X-38950Y161800D01*
G01Y191800D02*
X-31900D01*
X-30500Y190400D01*
G01X-17600Y17000D02*
X-17100Y16500D01*
G01X-20100Y26300D02*
X-20500Y26700D01*
X-21000D01*
G01D02*
X-19700Y28000D01*
Y30200D01*
X-20800Y31300D01*
Y31600D01*
G01X-11100Y162000D02*
X-11300Y161800D01*
X-17650D01*
G01Y156800D02*
X-24450D01*
G01X-11200Y166900D02*
X-11350Y166750D01*
X-13500D01*
X-13550Y166800D01*
X-17650D01*
G01Y171800D02*
Y166800D01*
G01X-10000Y174900D02*
X-11900Y176800D01*
X-17650D01*
G01Y186800D02*
X-23300D01*
X-24750Y188250D01*
G01X-17650Y191800D02*
X-11425D01*
X-10650Y191025D01*
Y180575D01*
X-10500Y180425D01*
Y178900D01*
G01X-12100Y12300D02*
Y14200D01*
X-13000Y15100D01*
G01X-8700Y18000D02*
X-8250D01*
X-7000Y19250D01*
Y19900D01*
G01X-13000Y109700D02*
X-12900D01*
G01X-5000Y144400D02*
X-4600Y144000D01*
X-3400D01*
G01X10500D02*
Y146750D01*
X8500Y148750D01*
X-4250D01*
X-5750Y150250D01*
Y153000D01*
G01X-3400D02*
X-5750D01*
G01X7900Y144000D02*
X8000D01*
G01X10500Y141800D02*
X12750Y144050D01*
Y148150D01*
X7900Y153000D01*
G01D02*
X8000D01*
G01X18500Y20300D02*
Y21000D01*
X21750Y24250D01*
X29188D01*
X31131Y26193D01*
G01X17250Y15000D02*
Y18250D01*
X16500Y19000D01*
Y37500D01*
X14600Y39400D01*
Y39600D01*
G01X14700Y20300D02*
Y24200D01*
G01X15000Y18000D02*
Y20050D01*
X14750Y20300D01*
X14700D01*
G01X21300Y30400D02*
X19900D01*
X18400Y31900D01*
G01X21400Y25800D02*
X20100D01*
X18500Y24200D01*
G01X18400Y28100D02*
X21300D01*
G01X14600Y35700D02*
Y31900D01*
G01X18400Y47300D02*
Y43500D01*
G01X21000Y41750D02*
X20000D01*
X18400Y43350D01*
Y43500D01*
G01Y35700D02*
Y35550D01*
X19150Y34800D01*
X21100D01*
G01X21200Y37000D02*
Y37200D01*
X18800Y39600D01*
X18400D01*
G01X20600Y54900D02*
Y53600D01*
X18400Y51400D01*
Y51300D01*
G01Y66900D02*
X18300D01*
Y67686D01*
X18500D01*
Y69000D01*
G01X14600Y66900D02*
X14300D01*
Y69000D01*
X14400D01*
G01X18400Y59200D02*
X20600D01*
X20800Y59000D01*
G01X18400Y63100D02*
Y59200D01*
G01X40000Y80100D02*
X36900Y77000D01*
X23750D01*
X19250Y81500D01*
G01X30839Y41760D02*
X30878D01*
X32700Y39938D01*
Y37500D01*
X33010Y37190D01*
X35882D01*
X37430Y35641D01*
G01X28800Y67500D02*
X30800D01*
X30900Y67600D01*
G01X24500Y156250D02*
Y150050D01*
X25700Y148850D01*
X27750D01*
X27850Y148750D01*
G01X43900Y70100D02*
X44100Y70300D01*
Y72500D01*
X44000Y72600D01*
G01X33000Y83900D02*
X32750Y84150D01*
Y87750D01*
G01X44000Y83900D02*
Y85250D01*
X42500Y86750D01*
G01X40000Y83900D02*
Y86500D01*
X40250Y86750D01*
G01X41000Y137600D02*
Y135000D01*
G01D02*
Y132400D01*
G01X46800Y30100D02*
Y32418D01*
X46796Y32422D01*
G01X56500Y80000D02*
X54750Y78250D01*
X49850D01*
X48000Y80100D01*
G01X44000D02*
X48000D01*
G01X46100Y70200D02*
Y70700D01*
X48000Y72600D01*
G01X52700Y112600D02*
Y108050D01*
X52750Y108000D01*
G01X52600Y116500D02*
Y112700D01*
X52700Y112600D01*
G01X44500Y137600D02*
Y135000D01*
G01D02*
Y132400D01*
G01X55000Y137600D02*
Y135000D01*
G01D02*
Y132400D01*
G01X48000Y137600D02*
Y131341D01*
X48057Y131284D01*
Y129759D01*
G01X54500Y151100D02*
X58500D01*
G01X50559Y148985D02*
Y150150D01*
X51509Y151100D01*
X54500D01*
G01X54600Y160500D02*
X49000D01*
X48000Y159500D01*
Y156515D01*
G01X44500Y174400D02*
Y174750D01*
G01X59500Y22500D02*
Y24600D01*
X60000Y25100D01*
G01X59404Y60791D02*
X63891D01*
X66100Y63000D01*
X67300D01*
G01X78500Y104500D02*
X76500Y102500D01*
X66250D01*
X63700Y99950D01*
Y99800D01*
G01X63800Y103800D02*
X75300D01*
X76000Y104500D01*
G01X57250Y104250D02*
Y102250D01*
X59700Y99800D01*
X59900D01*
G01X58500Y137600D02*
Y135000D01*
G01D02*
Y132400D01*
G01X58400Y160500D02*
X94600D01*
X97600Y157500D01*
G01X77000Y68100D02*
X77500Y68300D01*
X77000D01*
G01X74000Y128850D02*
X69850D01*
X69500Y129200D01*
G01X71600Y141500D02*
X69250D01*
G01X75000Y182250D02*
Y177000D01*
X77250Y174750D01*
G01X114446Y151722D02*
X116972D01*
X118750Y153500D01*
Y157250D01*
X117500Y158500D01*
Y167000D01*
X116500Y168000D01*
X104250D01*
X101750Y165500D01*
X98500D01*
X96750Y167250D01*
Y171250D01*
X95500Y172500D01*
X90500D01*
X85000Y178000D01*
Y187250D01*
X82250Y190000D01*
X75000D01*
X70000Y195000D01*
G01X84693Y55532D02*
X85900D01*
Y55500D01*
G01X84693Y59468D02*
X85900D01*
Y59400D01*
G01X80500Y68100D02*
X81000Y68300D01*
X80500D01*
G01X93500Y104400D02*
X88500D01*
X88400Y104500D01*
G01X81250Y111750D02*
X93750Y124250D01*
Y154750D01*
X94750Y155750D01*
X99750D01*
X101400Y157400D01*
Y157500D01*
G01X85000Y163600D02*
Y163500D01*
G01X89000Y163600D02*
X85100D01*
X85000Y163500D01*
G01X89000Y154900D02*
X89100Y155000D01*
X91750D01*
G01X227400Y160500D02*
Y162400D01*
X221200Y168600D01*
X202000D01*
X201500Y169100D01*
Y176200D01*
X201400D01*
X199700Y177900D01*
X188500D01*
X185200Y181200D01*
Y187300D01*
X182000Y190500D01*
X95500D01*
X90000Y185000D01*
G01X96307Y53563D02*
Y47093D01*
X96400Y47000D01*
G01X100000Y96735D02*
Y93750D01*
X101000Y92750D01*
G01Y90500D02*
X98500D01*
X93500Y95500D01*
Y100600D01*
G01Y104400D02*
X97306D01*
X97441Y104265D01*
G01X106600Y165500D02*
X104250D01*
X103250Y164500D01*
Y158500D01*
X104250Y157500D01*
G01X99500Y170600D02*
X103500D01*
G01X117250Y124500D02*
X116550Y123800D01*
X115100D01*
G01X123200Y123600D02*
X119000Y127800D01*
X115100D01*
G01X116100Y120100D02*
X116000Y120000D01*
X115000D01*
G01X111300Y127800D02*
Y129800D01*
G01D02*
Y131900D01*
G01X138991Y110845D02*
X137396Y112441D01*
X135000D01*
X134220Y113220D01*
Y114780D01*
X133425Y115575D01*
X128675D01*
X127900Y116350D01*
Y121100D01*
X120000Y129000D01*
X118000D01*
X115100Y131900D01*
G01X106600Y145500D02*
X104728Y147372D01*
X104672D01*
G01X106600Y149500D02*
X105800Y150300D01*
X104900D01*
G01X110400Y149500D02*
Y149692D01*
X110775Y150067D01*
X112300D01*
G01X110400Y145500D02*
X112750D01*
X114750Y147500D01*
G01X106600Y153500D02*
X106400Y153700D01*
X104900D01*
G01X106600Y161500D02*
X104900D01*
G01X106600Y157500D02*
X106750D01*
G01X110400D02*
X112200D01*
X113400Y156300D01*
G01X113250Y161500D02*
Y163237D01*
X110750Y165737D01*
X110637D01*
X110400Y165500D01*
G01Y153500D02*
X110484Y153416D01*
X112500D01*
G01X115750Y161500D02*
X114000Y159750D01*
X112150D01*
X110400Y161500D01*
G01X107500Y170600D02*
X111500D01*
G01X105500Y176750D02*
Y188250D01*
X106750Y189500D01*
X175500D01*
X180000Y185000D01*
G01X116500Y90400D02*
Y90500D01*
X118549Y92549D01*
Y108549D01*
X119250Y109250D01*
X134246D01*
X135841Y110845D01*
G01X116463Y95079D02*
X117400Y96016D01*
Y110300D01*
X119500Y112400D01*
X131137D01*
X132691Y110845D01*
G01X127350Y123950D02*
X120000Y131300D01*
G01X139000Y139201D02*
X139025D01*
Y139226D01*
X138976D01*
X139000Y139250D01*
X138000D01*
X133450Y143800D01*
X117600D01*
X117050Y144350D01*
Y145503D01*
G01X123500Y170600D02*
X127500D01*
G01X115500D02*
X119500D01*
G01X120000Y185000D02*
X120250Y184750D01*
Y179750D01*
X122000Y178000D01*
X130500D01*
X131500Y177000D01*
Y174400D01*
G01X148420Y145474D02*
X146223Y143277D01*
Y140473D01*
X144750Y139000D01*
X142250D01*
X140500Y140750D01*
X138250D01*
X134250Y144750D01*
Y150250D01*
X135750Y151750D01*
G01X135821Y136025D02*
X134300Y137546D01*
Y140500D01*
X133000Y141800D01*
X130500D01*
G01X148420Y148623D02*
X146795Y150248D01*
X141489D01*
X140500Y151236D01*
Y158250D01*
X137250Y161500D01*
Y168850D01*
X135500Y170600D01*
G01X131500D02*
X136000Y166100D01*
Y161500D01*
X134197Y159697D01*
Y156447D01*
X132672Y154922D01*
G01X139500Y170600D02*
Y163000D01*
X140750Y161750D01*
X152750D01*
X154719Y159781D01*
Y154922D01*
G01X154721Y164371D02*
X153850Y163500D01*
X142750D01*
X141500Y164750D01*
Y168600D01*
X143500Y170600D01*
G01X159500Y165900D02*
X157150Y168250D01*
X153850D01*
X151500Y170600D01*
G01X155500D02*
X159500D01*
G01X173619Y164371D02*
X171998Y162750D01*
X167350D01*
X159500Y170600D01*
G01X163500D02*
X168200Y165900D01*
X175240D01*
X176768Y164371D01*
G01Y161222D02*
X178300Y162753D01*
Y165900D01*
X177300Y166900D01*
X171200D01*
X167500Y170600D01*
G01X179918Y161222D02*
X181500Y162804D01*
Y165300D01*
X178900Y167900D01*
X174200D01*
X171500Y170600D01*
G01X189000Y42500D02*
X188800D01*
X183900Y37600D01*
Y21300D01*
X194200Y11000D01*
Y3400D01*
X190400Y-400D01*
X184600D01*
X180000Y-5000D01*
G01X185500Y1700D02*
Y6800D01*
X178700Y13600D01*
Y42900D01*
X187050Y51250D01*
X189000D01*
G01X190000Y5000D02*
Y8790D01*
X179800Y18990D01*
Y42400D01*
X185800Y48400D01*
X187300D01*
X189000Y46700D01*
Y44750D01*
G01X186750Y46750D02*
X182000Y42000D01*
Y30900D01*
G01Y27100D02*
Y25250D01*
G01X185900Y30900D02*
Y33400D01*
X189500Y37000D01*
G01X189328Y91967D02*
X186767D01*
X184600Y89800D01*
Y86400D01*
X185750Y85250D01*
Y79950D01*
X187500Y78200D01*
Y70900D01*
G01X187669Y84900D02*
Y87431D01*
X186300Y88800D01*
G01X179879Y104566D02*
Y102721D01*
X180100Y102500D01*
G01X189250Y105150D02*
X188600Y104500D01*
X186200D01*
G01X183068Y164371D02*
X183000Y164439D01*
Y165400D01*
X179500Y168900D01*
X177200D01*
X175500Y170600D01*
G01X186217Y161222D02*
Y161717D01*
X188000Y163500D01*
Y170100D01*
X187500Y170600D01*
G01X183068Y161222D02*
X184600Y162754D01*
Y165500D01*
X179500Y170600D01*
G01X195500D02*
Y167500D01*
X190992Y162992D01*
Y160590D01*
X192250Y159332D01*
Y157550D01*
X191400Y156700D01*
X187400D01*
X186217Y157883D01*
Y158072D01*
G01X191500Y170600D02*
X189500Y168600D01*
Y163500D01*
X187750Y161750D01*
Y160450D01*
X186900Y159600D01*
X184600D01*
X183072Y158072D01*
X183068D01*
G01X183500Y170600D02*
X186200Y167900D01*
Y164389D01*
X186217Y164371D01*
G01X195700Y2100D02*
X195300Y2500D01*
Y12200D01*
X191700Y15800D01*
Y34000D01*
X193200Y35500D01*
Y36900D01*
X194800Y38500D01*
X195000D01*
G01X200000Y5000D02*
Y10500D01*
X195900Y14600D01*
Y34400D01*
X197100Y35600D01*
Y36400D01*
X199000Y38300D01*
Y38500D01*
G01X197700Y30900D02*
Y33700D01*
X197600Y33800D01*
G01X189800Y30900D02*
Y33600D01*
X189900Y33700D01*
G01X193700Y30900D02*
Y33400D01*
X193500Y33600D01*
G01X197016Y40750D02*
X197350D01*
X200100Y43500D01*
G01X198000Y55000D02*
Y54100D01*
X195400Y51500D01*
G01X189400Y48900D02*
Y48200D01*
X190100Y47500D01*
X191600D01*
G01Y55500D02*
Y51500D01*
G01X200250Y55000D02*
Y57550D01*
X198300Y59500D01*
X194200D01*
X191600Y56900D01*
Y55500D01*
G01X200000Y67100D02*
X196000D01*
G01X192000D02*
X187500D01*
G01D02*
Y67250D01*
G01X192000Y81100D02*
X192300Y81600D01*
X195500D01*
G01X187669Y81100D02*
X192000D01*
G01Y92400D02*
X191000Y93400D01*
Y96500D01*
X189328Y98172D01*
Y98266D01*
G01X195500Y81600D02*
X195600D01*
X197226Y83226D01*
Y90889D01*
X196147Y91967D01*
X195627D01*
G01X213600Y104500D02*
X212100Y103000D01*
X197211D01*
X195627Y101416D01*
G01X213600Y108500D02*
X206700D01*
X205900Y109300D01*
X197100D01*
X195600Y107800D01*
G01X195664Y164371D02*
X196742Y165450D01*
Y165492D01*
X198850Y167600D01*
X220300D01*
X223750Y164150D01*
Y160650D01*
X223600Y160500D01*
G01X221250D02*
Y164950D01*
X219700Y166500D01*
X211500D01*
X206222Y161222D01*
X192517D01*
G01X207200Y40300D02*
X205900Y39000D01*
Y35500D01*
X207700Y33700D01*
Y13900D01*
X214400Y7200D01*
Y2400D01*
X212300Y300D01*
X205300D01*
X200000Y-5000D01*
G01X201000Y40750D02*
X200600Y40350D01*
Y33800D01*
X199900Y33100D01*
Y16600D01*
X210000Y6500D01*
Y5000D01*
G01X211269Y19100D02*
Y16069D01*
X209700Y14500D01*
G01X205500Y33700D02*
Y31200D01*
X205800Y30900D01*
G01X209600D02*
Y33700D01*
G01X198776Y120314D02*
X199436D01*
X209150Y110600D01*
X218800D01*
X219500Y109900D01*
Y70000D01*
X218400Y68900D01*
X213650D01*
X207700Y62950D01*
Y51800D01*
X208600Y50900D01*
Y42500D01*
X208000Y41900D01*
X206200D01*
X201600Y37300D01*
Y31200D01*
X201900Y30900D01*
G01X203900Y43500D02*
X207000D01*
G01X200100Y51500D02*
Y51400D01*
X202000Y49500D01*
Y45400D01*
X200100Y43500D01*
G01X207000Y47500D02*
X203900D01*
G01X200250Y55000D02*
X200100Y54850D01*
Y51500D01*
G01X208000Y67100D02*
X204000D01*
G01X205076Y79369D02*
X210731D01*
X213600Y76500D01*
G01Y72500D02*
X213500D01*
X210500Y75500D01*
Y76500D01*
X209250Y77750D01*
X203545D01*
X201926Y79369D01*
G01X213600Y88500D02*
X211850Y86750D01*
X203750D01*
X203250Y87250D01*
X200344D01*
X198776Y88818D01*
G01X213600Y80500D02*
X209975Y84125D01*
X200443D01*
X198802Y85766D01*
G01X201926Y85668D02*
X210707D01*
X211875Y84500D01*
X213600D01*
G01X209400Y96100D02*
X205700D01*
G01X198776Y98266D02*
X200363Y96680D01*
X205120D01*
X205700Y96100D01*
G01X213600Y100500D02*
X202700D01*
X201800Y101400D01*
G01X201926Y98266D02*
X202292Y97900D01*
X212200D01*
X213600Y96500D01*
G01Y116500D02*
X213500D01*
X212500Y115500D01*
X206740D01*
X205076Y117164D01*
G01X213600Y120500D02*
X213500D01*
X212025Y121975D01*
X208275D01*
X207250Y123000D01*
Y123750D01*
X198816Y132184D01*
Y132875D01*
G01X201965D02*
Y130535D01*
X207250Y125250D01*
X212850D01*
X213600Y124500D01*
G01Y148500D02*
X211000Y145900D01*
Y144250D01*
X210000Y143250D01*
Y141750D01*
X209000Y140750D01*
X203541D01*
X201965Y139174D01*
G01X205115D02*
X209924D01*
X211400Y140650D01*
Y142300D01*
X213600Y144500D01*
G01Y140500D02*
X211100Y138000D01*
X206800D01*
X205115Y136315D01*
Y136025D01*
G01X213600Y164500D02*
X211100D01*
X206350Y159750D01*
X204500D01*
X203500Y158750D01*
Y150123D01*
X202000Y148623D01*
X201965D01*
G01Y142324D02*
X203551Y143909D01*
X208857D01*
X208948Y144000D01*
X209790Y144842D01*
Y148689D01*
X213600Y152500D01*
G01Y160500D02*
X210250Y157150D01*
Y153002D01*
X206640Y149390D01*
Y147991D01*
X205747Y147098D01*
X203590D01*
X201965Y145474D01*
G01X199500Y174400D02*
X199600D01*
G01X214000Y33700D02*
Y31500D01*
X213400Y30900D01*
G01X216350Y31650D02*
X222300Y25700D01*
X225800D01*
X228700Y28600D01*
Y33800D01*
X229700Y34800D01*
X233100D01*
X236800Y38500D01*
Y40800D01*
G01X217400Y72500D02*
X216400D01*
G01X223300Y80500D02*
X222300D01*
X222100Y80700D01*
G01X217400Y104500D02*
Y108500D01*
G01X227100Y88500D02*
X225300Y90660D01*
Y118950D01*
X221750Y122500D01*
X216250D01*
X215500Y123250D01*
Y130750D01*
X217250Y132500D01*
X217400D01*
G01Y128500D02*
X217500D01*
G01D02*
X229200Y116800D01*
Y93200D01*
X232300Y90100D01*
Y87500D01*
X229300Y84500D01*
Y82700D01*
X227100Y80500D01*
G01X217400Y140500D02*
Y144500D01*
G01X230300Y33100D02*
X233000D01*
X237300Y37400D01*
X263262D01*
X264724Y38861D01*
G01X227100Y84500D02*
Y84900D01*
X226100Y85900D01*
G01X223300Y84500D02*
Y84800D01*
X222550Y85550D01*
G01X223300Y96500D02*
X223700D01*
G01X234900Y109300D02*
X233600Y108000D01*
Y104500D01*
G01X243500Y41200D02*
X242300Y42400D01*
Y43100D01*
G01X247476Y38861D02*
X245839D01*
X243500Y41200D01*
G01X242600Y51400D02*
X244800Y49200D01*
X249900D01*
X250932Y50231D01*
Y51807D01*
G01X246207Y61453D02*
X242953D01*
X241900Y60400D01*
G01X237000Y96810D02*
Y96500D01*
X237400Y96100D01*
Y92500D01*
G01Y100500D02*
Y104500D01*
G01Y96500D02*
X237310D01*
X237000Y96810D01*
G01X247750Y127500D02*
X254300Y120950D01*
Y113200D01*
X250700Y109600D01*
X246400D01*
X246000Y110000D01*
G01X246750Y130500D02*
X245900Y129650D01*
Y126800D01*
X248300Y124400D01*
X249300D01*
X252900Y120800D01*
Y113700D01*
X250400Y111200D01*
X249900D01*
G01X237500Y168250D02*
Y168600D01*
X239500Y170600D01*
G01X243500D02*
X242250Y169350D01*
Y168250D01*
G01X235000D02*
Y170100D01*
X235500Y170600D01*
G01X256837Y51807D02*
X257030Y52000D01*
X259900D01*
G01X252900Y49500D02*
Y51807D01*
G01X262700Y50500D02*
X261100Y48900D01*
X255600D01*
X254868Y49632D01*
Y51807D01*
G01X248150Y68550D02*
X248700Y68000D01*
X250200D01*
X250932Y67268D01*
Y65193D01*
G01X257050Y70000D02*
Y65405D01*
X256837Y65193D01*
G01X253200Y72700D02*
X253900Y72000D01*
Y67700D01*
X252900Y66700D01*
Y65193D01*
G01X254868D02*
Y71068D01*
X255500Y71700D01*
Y72800D01*
G01X257050Y70000D02*
X257400Y70350D01*
Y79021D01*
X257008Y79413D01*
G01X253900Y93100D02*
X254988Y92012D01*
X257008D01*
G01X254000Y90800D02*
X254200D01*
X254563Y90437D01*
X257008D01*
G01X256400Y95700D02*
X258100D01*
X261001Y92799D01*
X261831D01*
G01X253200Y98150D02*
X253900D01*
G01X253200D02*
Y96300D01*
X255913Y93587D01*
X257008D01*
G01X253750Y108850D02*
Y110950D01*
X255400Y112600D01*
Y121700D01*
X252700Y124400D01*
Y131018D01*
X252250Y131468D01*
G01X247500Y170600D02*
X246750Y169850D01*
Y168250D01*
G01X259900Y52000D02*
X261300D01*
X263700Y54400D01*
X265100D01*
G01X262700Y50500D02*
X265100D01*
G01X273000Y128250D02*
X263065D01*
X262952Y128362D01*
G01X273000Y137000D02*
X268500D01*
X268476Y137024D01*
X262952D01*
G01X273000Y132750D02*
X270500D01*
Y132693D01*
X261378D01*
G01X262952Y145685D02*
X268435D01*
X268500Y145750D01*
G01X262952Y154346D02*
X258847D01*
X258750Y154250D01*
G01X262952Y158677D02*
X258823D01*
X258750Y158750D01*
G54D63*
X262952Y128362D03*
X263740Y141354D03*
X262952Y137024D03*
X261378Y132693D03*
X263740Y150016D03*
X262952Y145685D03*
Y158677D03*
Y154346D03*
G54D27*
X-30600Y98693D03*
Y110307D03*
G54D45*
X114637Y112300D03*
X106763D03*
X115356Y138526D03*
X107482D03*
G54D36*
X20000Y5000D03*
Y195000D03*
X30000Y-5000D03*
Y5000D03*
Y185000D03*
Y195000D03*
X40000Y-5000D03*
Y5000D03*
Y185000D03*
Y195000D03*
X50000Y-5000D03*
Y5000D03*
Y185000D03*
Y195000D03*
X70000Y-5000D03*
X60000D03*
X70000Y5000D03*
X60000D03*
X70000Y185000D03*
X60000D03*
X70000Y195000D03*
X60000D03*
X80000Y-5000D03*
Y5000D03*
Y185000D03*
Y195000D03*
X90000Y-5000D03*
Y5000D03*
Y185000D03*
Y195000D03*
X100000Y-5000D03*
Y5000D03*
Y185000D03*
Y195000D03*
X110000Y-5000D03*
Y5000D03*
Y185000D03*
Y195000D03*
X130000Y-5000D03*
X120000D03*
X130000Y5000D03*
X120000D03*
X130000Y185000D03*
X120000D03*
X130000Y195000D03*
X120000D03*
X140000Y-5000D03*
Y5000D03*
Y185000D03*
Y195000D03*
X150000Y-5000D03*
Y5000D03*
Y185000D03*
Y195000D03*
X160000Y-5000D03*
Y5000D03*
Y185000D03*
Y195000D03*
X170000Y-5000D03*
Y5000D03*
Y185000D03*
Y195000D03*
X180000Y-5000D03*
Y5000D03*
Y185000D03*
Y195000D03*
X200000Y-5000D03*
X190000D03*
X200000Y5000D03*
X190000D03*
X200000Y185000D03*
X190000D03*
X200000Y195000D03*
X190000D03*
X210000Y-5000D03*
Y5000D03*
Y185000D03*
Y195000D03*
X220000Y-5000D03*
Y5000D03*
Y185000D03*
Y195000D03*
X230000Y-5000D03*
Y5000D03*
Y185000D03*
Y195000D03*
X240000Y-5000D03*
Y5000D03*
Y185000D03*
Y195000D03*
G54D18*
X-43000Y67300D03*
Y63500D03*
X-39500Y103600D03*
Y107400D03*
X-36500Y57900D03*
Y54100D03*
X-16600Y22500D03*
X-20100D03*
X-20800Y31600D03*
X-16600Y26300D03*
X-20100D03*
X-20800Y35400D03*
X-5300Y37000D03*
Y40800D03*
X-5400Y52900D03*
Y49100D03*
X28700Y27200D03*
Y31000D03*
X28800Y67500D03*
Y63700D03*
X23800Y65400D03*
Y61600D03*
X39900Y41000D03*
Y37200D03*
X43625Y50585D03*
Y54385D03*
X40161Y50577D03*
Y54377D03*
X44561Y67694D03*
Y63894D03*
X44000Y76400D03*
Y72600D03*
Y80100D03*
X33000D03*
X40000D03*
X44000Y83900D03*
X33000D03*
X40000D03*
X42500Y104600D03*
Y108400D03*
X41000Y128600D03*
X44500D03*
X41000Y137600D03*
Y141400D03*
X44500Y137600D03*
Y141400D03*
X41000Y132400D03*
X44500D03*
X41500Y151100D03*
Y154900D03*
X44500Y174400D03*
Y170600D03*
X34000Y174400D03*
Y170600D03*
X56502Y32345D03*
X52501Y34255D03*
X56500Y25100D03*
Y28900D03*
X56502Y36145D03*
X52501Y38055D03*
X47300Y44200D03*
Y40400D03*
X47200Y50600D03*
Y54400D03*
X49780Y67378D03*
Y63578D03*
X48000Y72600D03*
Y76400D03*
Y80100D03*
X52000Y76400D03*
Y72600D03*
X48000Y83900D03*
X45700Y93100D03*
Y89300D03*
X47250Y104600D03*
Y108400D03*
X55000Y128600D03*
Y137600D03*
Y141400D03*
X48000Y137600D03*
Y141400D03*
X55000Y132400D03*
X54500Y151100D03*
Y154900D03*
X60000Y25100D03*
Y28900D03*
Y32350D03*
Y36150D03*
X67250Y110900D03*
Y107100D03*
X58500Y128600D03*
Y137600D03*
Y141400D03*
Y132400D03*
Y151100D03*
Y154900D03*
X77000Y68100D03*
Y71900D03*
X75200Y90400D03*
Y94200D03*
X74000Y128850D03*
Y132650D03*
X80500Y68100D03*
X89500Y79100D03*
X80500Y71900D03*
X89500Y82900D03*
X89000Y151100D03*
X85000D03*
X89000Y163600D03*
Y154900D03*
X85000Y163600D03*
X81000D03*
X85000Y154900D03*
X89000Y167400D03*
X85000D03*
X81000D03*
X93500Y100600D03*
Y104400D03*
Y174400D03*
Y170600D03*
X99500Y174400D03*
Y170600D03*
X103500D03*
Y174400D03*
X115000Y15600D03*
Y19400D03*
X107500Y170600D03*
Y174400D03*
X115500D03*
Y170600D03*
X111500Y174400D03*
Y170600D03*
X120074Y75856D03*
Y79656D03*
X123500Y170600D03*
Y174400D03*
X127500D03*
Y170600D03*
X119500D03*
Y174400D03*
X138972Y82155D03*
Y85955D03*
X139366Y101703D03*
Y97903D03*
X138478Y116895D03*
X135000Y123800D03*
Y120000D03*
X138478Y120695D03*
X138469Y129040D03*
Y132840D03*
X138700Y148900D03*
Y145100D03*
X139500Y174400D03*
Y170600D03*
X135500Y174400D03*
Y170600D03*
X131500Y174400D03*
Y170600D03*
X141456Y104738D03*
X141913Y112725D03*
Y116525D03*
X141456Y108538D03*
X142026Y129098D03*
X148677Y129391D03*
X148728Y124743D03*
Y120943D03*
X142026Y132898D03*
X148677Y133191D03*
X143500Y174400D03*
Y170600D03*
X151500Y174400D03*
Y170600D03*
X147500Y174400D03*
Y170600D03*
X153933Y75856D03*
Y79656D03*
X154720Y89242D03*
Y93042D03*
X158600Y103735D03*
X163500Y103500D03*
X158600Y107535D03*
X161386Y114165D03*
X157974D03*
X154543Y114205D03*
X163500Y107300D03*
X154864Y110961D03*
Y107161D03*
X152200Y121000D03*
Y124800D03*
X161132Y126469D03*
X161386Y117965D03*
X157974D03*
X154543Y118005D03*
X161132Y130269D03*
X159500Y162100D03*
X158196Y157983D03*
Y154183D03*
X155500Y170600D03*
Y174400D03*
X163500Y170600D03*
Y174400D03*
X159500D03*
Y170600D03*
Y165900D03*
X170388Y85530D03*
Y89330D03*
X170978Y98095D03*
Y94295D03*
X173074Y105179D03*
Y101379D03*
X169672Y104726D03*
X164799Y114173D03*
X169672Y108526D03*
X169682Y114087D03*
X173090Y114204D03*
X164614Y125262D03*
Y121462D03*
X169729Y129558D03*
X164799Y117973D03*
X168936Y122546D03*
Y126346D03*
X169682Y117887D03*
X173090Y118004D03*
X164688Y129205D03*
X173082Y139300D03*
X169729Y133358D03*
X164260Y136302D03*
Y140102D03*
X164688Y133005D03*
X173120Y136100D03*
Y132300D03*
X173082Y143100D03*
X167500Y174400D03*
Y170600D03*
X171500Y174400D03*
Y170600D03*
X175500Y174400D03*
Y170600D03*
X185900Y27100D03*
Y30900D03*
X182000Y27100D03*
Y30900D03*
X187500Y67100D03*
X179600Y67400D03*
X187500Y70900D03*
X183751Y75790D03*
Y79590D03*
X179600Y71200D03*
X176800Y92100D03*
X182450Y94780D03*
Y98580D03*
X176800Y95900D03*
X176900Y99300D03*
Y103100D03*
X183464Y114200D03*
X179915Y117700D03*
Y113900D03*
X183493Y107189D03*
Y110989D03*
X176507Y114692D03*
X186900Y114300D03*
Y110500D03*
X183464Y118000D03*
X176220Y125299D03*
Y129099D03*
X176507Y118492D03*
X186600Y129000D03*
X180641Y139300D03*
X176523Y136100D03*
Y132300D03*
X179926Y136100D03*
Y132300D03*
X186600Y132800D03*
X180641Y143100D03*
X176801Y145439D03*
Y141639D03*
X179500Y174400D03*
Y170600D03*
X183500Y174400D03*
Y170600D03*
X187500Y174400D03*
Y170600D03*
X193700Y27100D03*
Y30900D03*
X189800Y27100D03*
Y30900D03*
X197700Y27100D03*
Y30900D03*
X192000Y67100D03*
X196000D03*
X192000Y70900D03*
Y81100D03*
X187669D03*
X196000Y70900D03*
X195500Y77800D03*
Y81600D03*
X192000Y92400D03*
Y88600D03*
Y84900D03*
X187669D03*
X195394Y85455D03*
Y89255D03*
X189250Y101350D03*
Y105150D03*
X192500Y145100D03*
Y148900D03*
X189391Y158394D03*
Y154594D03*
X195216Y154787D03*
Y158587D03*
X195500Y170600D03*
Y174400D03*
X191500D03*
Y170600D03*
X209600Y27100D03*
Y30900D03*
X201900Y27100D03*
Y30900D03*
X205800Y27100D03*
Y30900D03*
X208000Y67100D03*
X204000D03*
X200000D03*
X208000Y70900D03*
X204000D03*
X200000D03*
X205700Y92300D03*
X209400D03*
X205700Y96100D03*
X209400D03*
X205355Y151280D03*
Y155080D03*
X203500Y170600D03*
Y174400D03*
X207500Y170600D03*
Y174400D03*
X199500D03*
Y170600D03*
X213400Y27100D03*
Y30900D03*
X211500Y170600D03*
Y174400D03*
X219500Y170600D03*
Y174400D03*
X215500Y170600D03*
Y174400D03*
X224600Y21900D03*
Y18100D03*
X227500Y170600D03*
Y174400D03*
X223500Y170600D03*
Y174400D03*
X231500Y170600D03*
Y174400D03*
X242300Y43100D03*
X241900Y56600D03*
X242300Y46900D03*
X241900Y60400D03*
X235500Y174400D03*
Y170600D03*
X239500D03*
Y174400D03*
X243500Y170600D03*
Y174400D03*
X247500Y170600D03*
Y174400D03*
G54D54*
X243825Y91338D03*
Y92913D03*
X245400Y92125D03*
X243825Y100638D03*
Y102213D03*
X245400Y101425D03*
X243825Y103787D03*
X245400Y104575D03*
X243825Y105362D03*
Y94487D03*
X245400Y95275D03*
X243825Y96062D03*
X246975Y91338D03*
Y92913D03*
Y100638D03*
Y102213D03*
Y103787D03*
Y105362D03*
Y94487D03*
Y96062D03*
G54D73*
G01X104900Y15500D02*
X107606D01*
X108000Y15894D01*
Y16000D01*
G01X104900Y19000D02*
X107250D01*
G01X115000Y19400D02*
X111750Y22650D01*
Y28500D01*
X110250Y30000D01*
Y35000D01*
X111389Y36139D01*
X115223D01*
G01X104900Y29500D02*
X107250D01*
G01X104900Y26000D02*
X107250D01*
G01X104900Y22500D02*
X107250D01*
G01X104900Y33000D02*
X107250D01*
G01X142979Y23541D02*
X141404Y25116D01*
X120632D01*
X114370Y31377D01*
X111750D01*
X111250Y31877D01*
Y34572D01*
X111750Y35072D01*
X112758D01*
X113254Y34576D01*
Y33187D01*
G01X124081Y26691D02*
X120538D01*
X115223Y32006D01*
Y36139D01*
G01X104900Y36500D02*
X107250D01*
G01X104900Y43500D02*
X107250D01*
G01X142979Y48738D02*
Y47557D01*
X141404Y45982D01*
Y44801D01*
X140616Y44013D01*
X135892D01*
X135105Y44801D01*
Y46376D01*
X134317Y47163D01*
X116994D01*
X115813Y45982D01*
Y41940D01*
X115053Y41180D01*
X112236D01*
X111793Y40737D01*
Y39484D01*
X112185Y39092D01*
X113254D01*
G01X104900Y47000D02*
X107250D01*
G01X104900Y50500D02*
X107250D01*
G01X104900Y54000D02*
X107250D01*
G01X104900Y57500D02*
X107250D01*
G01X104900Y61000D02*
X107250D01*
G01X124081Y29840D02*
X120610D01*
X120263Y30187D01*
Y30895D01*
X120651Y31282D01*
X122323D01*
X122978Y31937D01*
Y34334D01*
X122593Y34719D01*
X121563D01*
X121128Y34285D01*
Y33187D01*
G01X127231Y26691D02*
Y26689D01*
X127798Y26122D01*
X128636D01*
X129023Y26509D01*
Y27807D01*
X128668Y28162D01*
X120586D01*
X118961Y29787D01*
Y34062D01*
X118431Y34592D01*
X117706D01*
X117191Y34078D01*
Y33187D01*
G01X127231Y29840D02*
Y29839D01*
X126521Y29130D01*
X125870D01*
X125503Y29497D01*
Y30882D01*
X126553Y31932D01*
Y34492D01*
X126018Y35027D01*
X124778D01*
X124233Y34482D01*
Y34017D01*
X125063Y33187D01*
X125065D01*
G01X124081Y42439D02*
X123651Y42869D01*
X122048D01*
X121661Y42482D01*
Y41567D01*
X122786Y40442D01*
Y38014D01*
X122353Y37582D01*
X121498D01*
X121128Y37952D01*
Y39092D01*
G01X127231Y45588D02*
X126088D01*
X126035Y45588D01*
X124698Y44250D01*
X124650D01*
X124640Y44240D01*
X122149D01*
X119153Y41244D01*
Y36146D01*
X119160Y36139D01*
G01X133530Y45588D02*
X131955Y44013D01*
Y41566D01*
X130508Y40120D01*
Y37799D01*
X128848Y36139D01*
X127034D01*
G01X127231Y42439D02*
Y43824D01*
X126933Y44122D01*
X125834D01*
X125438Y43726D01*
Y41502D01*
X125020Y41084D01*
X124201D01*
X123703Y40587D01*
Y39622D01*
X124233Y39092D01*
X125065D01*
G01X123097Y36139D02*
X124428D01*
X126576Y38287D01*
Y39576D01*
X126580Y39580D01*
Y39842D01*
X128533Y41796D01*
X128836Y42099D01*
Y44044D01*
X130380Y45588D01*
G01X124081D02*
X120728D01*
X120216Y45076D01*
Y43657D01*
X119958Y43399D01*
X119043D01*
X118753Y43689D01*
Y45214D01*
X118380Y45588D01*
X117600D01*
X117208Y45197D01*
Y39092D01*
X117191D01*
G01X136680Y29840D02*
X136681D01*
X137478Y30638D01*
Y31069D01*
X137018Y31530D01*
X136078D01*
X135353Y32254D01*
Y34459D01*
X135998Y35104D01*
X136926D01*
X137478Y34552D01*
Y33787D01*
X136878Y33187D01*
X136876D01*
G01X133530Y29840D02*
X133603D01*
X134003Y30240D01*
Y31039D01*
X133503Y31539D01*
X131903D01*
X131403Y32039D01*
Y34439D01*
X131903Y34939D01*
X133003D01*
X133403Y34539D01*
Y33587D01*
X133003Y33187D01*
X132939D01*
G01X130380Y29840D02*
Y30367D01*
X129608Y31139D01*
X127838D01*
X127453Y31524D01*
Y34432D01*
X128048Y35027D01*
X129126D01*
X129608Y34544D01*
Y33519D01*
X129275Y33187D01*
X129002D01*
G01X130380Y26691D02*
X130382D01*
X131863Y28172D01*
Y30280D01*
X130503Y31639D01*
Y35672D01*
X130971Y36139D01*
G01X136680Y26691D02*
X138378Y28389D01*
Y35689D01*
X138828Y36139D01*
G01X133530Y26691D02*
X134901Y28061D01*
Y31415D01*
X134451Y31865D01*
Y35684D01*
X134906Y36139D01*
X134908D01*
G01X133530Y42439D02*
Y42435D01*
X134088Y41877D01*
Y41319D01*
X133741Y40972D01*
X132633D01*
X131566Y39904D01*
Y37659D01*
X131948Y37277D01*
X133163D01*
X133523Y37637D01*
Y38510D01*
X132941Y39092D01*
X132939D01*
G01X136680Y42439D02*
X136002Y43117D01*
X135493D01*
X135173Y42797D01*
Y40719D01*
X134670Y40217D01*
Y38320D01*
X135458Y37532D01*
X136706D01*
X137156Y37982D01*
Y38815D01*
X136878Y39092D01*
X136876D01*
G01X139829Y42439D02*
X139217Y43051D01*
X138799D01*
X138376Y42628D01*
Y38356D01*
X139119Y37613D01*
X140284D01*
X140813Y38142D01*
Y39092D01*
G01X130380Y42439D02*
Y41257D01*
X130026Y40902D01*
X128903D01*
X127473Y39472D01*
Y37930D01*
X127931Y37472D01*
X128913D01*
X129476Y38034D01*
Y38620D01*
X129003Y39092D01*
X129002D01*
G01X142979Y29840D02*
X144494D01*
X144763Y30109D01*
Y30802D01*
X144413Y31152D01*
X143513D01*
X143231Y31434D01*
Y34244D01*
X143668Y34682D01*
X144198D01*
X144750Y34130D01*
Y33187D01*
G01X139829Y29840D02*
X140181D01*
X140508Y30167D01*
Y30965D01*
X140281Y31192D01*
X139581D01*
X139278Y31494D01*
Y34459D01*
X139803Y34984D01*
X141013D01*
X141363Y34634D01*
Y33734D01*
X140816Y33187D01*
X140813D01*
G01X146128Y29840D02*
X146153D01*
X146353Y30040D01*
Y33792D01*
X144603Y35542D01*
Y38945D01*
X144750Y39092D01*
G01X142782Y36139D02*
X142781D01*
X142318Y35677D01*
Y31318D01*
X141404Y30404D01*
Y28265D01*
X139829Y26691D01*
G54D55*
X256100Y42700D03*
G54D28*
X-16294Y-5072D03*
G54D19*
X-40984Y78898D03*
Y88898D03*
Y121102D03*
Y131102D03*
G54D46*
G01X-42100Y17000D02*
Y14700D01*
X-43061Y13739D01*
X-52339D01*
X-53400Y14800D01*
Y17000D01*
G01X-31350Y152650D02*
Y148050D01*
X-32600Y146800D01*
X-38950D01*
G01X-12100Y21100D02*
X-13100D01*
X-14500Y22500D01*
X-16600D01*
G01X-20100D02*
X-16600D01*
G01X-8300Y12300D02*
Y15300D01*
X-6100Y17500D01*
X-5000D01*
X-4500Y18000D01*
G01X-3200Y19900D02*
Y19300D01*
X-4500Y18000D01*
G01X-5300Y37000D02*
Y33950D01*
X-4400Y33050D01*
Y31000D01*
G01X-5400Y49100D02*
Y43150D01*
X-5300Y43050D01*
Y40800D01*
G01X-5400Y52900D02*
X-7850D01*
X-10000Y50750D01*
G01X-2750Y49750D02*
X-4750D01*
X-5400Y49100D01*
G01X-13000Y109700D02*
Y113700D01*
G01Y105700D02*
Y109700D01*
G01X24513Y28598D02*
X24850Y28361D01*
Y26197D01*
G01X28031Y26242D02*
X25676Y28598D01*
X24513D01*
G01X31131Y57633D02*
Y59471D01*
X30836Y59766D01*
G01X34379Y54185D02*
X31528Y51334D01*
X31131D01*
G01X27981Y60782D02*
X29820D01*
X30836Y59766D01*
G01X34400Y48563D02*
Y45100D01*
G01Y48563D02*
X37051D01*
X37430Y48184D01*
G01X34379Y48585D02*
X34400Y48563D01*
G01X40161Y50577D02*
X39824D01*
X37430Y48184D01*
G01X43625Y54385D02*
Y57619D01*
X43722Y57717D01*
G01X40161Y54377D02*
X40492Y54708D01*
Y57757D01*
G01X35659Y64664D02*
X34276Y66047D01*
Y66897D01*
G01X42300Y103000D02*
X42500Y103200D01*
G01X38300Y101400D02*
X38150Y101250D01*
G01X38300Y96400D02*
X38200Y96500D01*
G01X42500Y103200D02*
Y104600D01*
G01X38150Y101250D02*
X36400D01*
G01X38200Y96500D02*
X36400D01*
G01X38200Y105900D02*
X38100Y106000D01*
G01X38700Y109800D02*
X38500Y110000D01*
G01X36500D02*
X36400D01*
G01X38500D02*
X36500D01*
G01X38100Y106000D02*
X36400D01*
G01X53139Y32422D02*
X53100Y32384D01*
Y31480D01*
X51839Y30218D01*
X49987Y32070D01*
Y32462D01*
G01X47200Y54400D02*
Y57431D01*
X46914Y57717D01*
G01X46800Y67378D02*
X49780D01*
G01X44561Y67694D02*
X46484D01*
X46800Y67378D01*
G01X57543Y57678D02*
X56317D01*
X56272Y57633D01*
G01X49780Y63578D02*
Y60997D01*
X50026Y60751D01*
G01X45700Y96300D02*
Y93100D01*
G01X47300Y102800D02*
X47250Y102850D01*
G01X45800Y96400D02*
X45700Y96300D01*
G01X47250Y102850D02*
Y104600D01*
G01X61343Y57678D02*
X62526D01*
X62571Y57633D01*
G01X64200Y64000D02*
X64096Y64104D01*
X59736D01*
G01X69550Y155750D02*
X69500Y155800D01*
G01X71600Y155750D02*
X69550D01*
G01X90782Y45000D02*
X92600Y47000D01*
G01D02*
Y49000D01*
G01X111250Y123750D02*
X111300Y123800D01*
G01X111200Y120000D02*
Y123700D01*
X111250Y123750D01*
G01X119000Y116700D02*
Y120600D01*
X119100Y120700D01*
G01D02*
X119500Y121100D01*
Y124600D01*
G01X126400Y136000D02*
X126426Y136026D01*
X132671D01*
X132672Y136025D01*
G01X126700Y141800D02*
X120365D01*
X119313Y140748D01*
G01X126400Y136000D02*
X123800Y133400D01*
Y131300D01*
G01X119300Y145700D02*
X121500Y147900D01*
X124000D01*
X126102Y145798D01*
X126377D01*
G01X138580Y15667D02*
Y11520D01*
G01X138972Y85955D02*
Y87655D01*
G01Y85955D02*
X139872Y87624D01*
G01X130700Y120000D02*
Y119125D01*
X132675Y117150D01*
G01X138478Y120695D02*
X141489D01*
X141610Y120816D01*
G01X130700Y125600D02*
X131696D01*
X132672Y126576D01*
G01X135000Y120000D02*
X135695Y120695D01*
X138478D01*
G01X135000Y123800D02*
X135448D01*
X135841Y123407D01*
G01X138469Y132840D02*
X141968D01*
X142026Y132898D01*
G01X146454Y15667D02*
Y11447D01*
G01X154720Y89242D02*
X150933D01*
X150489Y88798D01*
X148439D01*
G01X150554Y96884D02*
X149951D01*
X148491Y98344D01*
G01X145290Y98247D02*
X148393D01*
X148491Y98344D01*
G01D02*
X151640D01*
G01X149203Y117370D02*
X148665D01*
X148439Y117144D01*
G01X149173Y113876D02*
X148484D01*
G01X149203Y117370D02*
Y113906D01*
X149173Y113876D01*
G01X141913Y112725D02*
Y111047D01*
X142080Y110880D01*
G01X148670Y106951D02*
X150849D01*
G01X148728Y124743D02*
Y126322D01*
X148420Y126630D01*
G01X142140Y120294D02*
X142132D01*
X141610Y120816D01*
G01Y124217D02*
Y123957D01*
X142132Y123435D01*
G01X152200Y117756D02*
X151589Y117144D01*
G01X151473Y126673D02*
X152200Y125945D01*
Y124800D01*
G01X142026Y132898D02*
X142120Y132992D01*
Y136025D01*
G01X151733Y76160D02*
X151598D01*
G01X154720Y89242D02*
Y85955D01*
X154395Y85630D01*
G01X154720Y93042D02*
X157070D01*
X160210Y96182D01*
Y97720D01*
G01X154354Y96884D02*
Y97862D01*
G01X154018Y100324D02*
Y100676D01*
X154739Y101396D01*
G01X163500Y103500D02*
Y99754D01*
X162804Y99058D01*
G01D02*
X163339D01*
X164131Y98266D01*
G01X154354Y97862D02*
X154739Y98247D01*
G01X154018Y100324D02*
Y98197D01*
X154354Y97862D01*
G01X154739Y107696D02*
Y104546D01*
G01X154543Y118005D02*
Y117340D01*
X154739Y117144D01*
G01X158600Y107535D02*
Y109000D01*
G01X163500Y107300D02*
X161396D01*
X161019Y107677D01*
G01X164799Y114173D02*
Y113569D01*
X162082Y110852D01*
G01X159300Y123000D02*
Y121706D01*
X157888Y120294D01*
G01X161132Y130269D02*
X162196Y129205D01*
X164688D01*
G01X152200Y121000D02*
Y117756D01*
G01X157868Y126576D02*
X161025D01*
X161132Y126469D01*
G01X155500Y123000D02*
Y121300D01*
X154700Y120500D01*
G01X155200Y124600D02*
X155500Y124300D01*
Y123000D01*
G01X161038Y120294D02*
Y120438D01*
X162100Y121500D01*
X164576D01*
X164614Y121462D01*
G01X161018Y132875D02*
X164559D01*
X164688Y133005D01*
G01X169672Y104726D02*
X172621D01*
X173074Y105179D01*
G01X173580Y98266D02*
Y100874D01*
X173074Y101379D01*
G01X170468Y107677D02*
X167318D01*
G01X174300Y110300D02*
X174583Y110583D01*
X176385D01*
G01X169500Y110100D02*
X169672Y109928D01*
Y108526D01*
G01X165400Y107800D02*
X164900Y107300D01*
G01D02*
X163500D01*
G01X167280Y120314D02*
Y117164D01*
G01D02*
Y114015D01*
G01X164799Y114173D02*
X167122D01*
X167280Y114015D01*
G01X169682Y117887D02*
Y119566D01*
X170430Y120314D01*
G01X168936Y122546D02*
Y121808D01*
X170430Y120314D01*
G01X164688Y129205D02*
Y125337D01*
X164614Y125262D01*
G01X167320Y129726D02*
Y126576D01*
G01X173619D02*
Y129726D01*
G01X164614Y121462D02*
X166132D01*
X167280Y120314D01*
G01X167320Y132875D02*
Y129726D01*
G01X173619D02*
Y131801D01*
X173120Y132300D01*
G01X164169Y149921D02*
Y154169D01*
X169260Y159260D01*
X170523D01*
G01X181900Y75326D02*
X183287D01*
X183751Y75790D01*
G01X176800Y92100D02*
Y89800D01*
G01X182450Y94780D02*
Y94150D01*
X180000Y91700D01*
G01X182450Y94780D02*
X182231Y95000D01*
X180200D01*
X179500Y95700D01*
Y97800D01*
X178000Y99300D01*
X176900D01*
G01X183900Y102500D02*
Y106783D01*
X183493Y107189D01*
G01X176900Y103100D02*
Y104395D01*
X176767Y104528D01*
G01X179915Y117700D02*
X183164D01*
X183464Y118000D01*
G01X178100Y118300D02*
X178700Y117700D01*
G01X183493Y107189D02*
X181611D01*
G01X186178Y117164D02*
X189328D01*
G01X176465Y121909D02*
Y120578D01*
X176729Y120314D01*
G01X176507Y118492D02*
Y120091D01*
G01X179765Y124146D02*
X177374D01*
X176220Y125299D01*
G01D02*
Y126028D01*
X176768Y126576D01*
G01X183455Y129000D02*
X186600D01*
G01X178700Y117700D02*
X179915D01*
G01X176507Y120091D02*
X176729Y120314D01*
G01X176465Y121909D02*
Y123709D01*
G01Y121909D02*
X178102Y123709D01*
G01X183068Y126576D02*
X183565Y126078D01*
Y124146D01*
G01X179918Y126576D02*
Y128737D01*
X179655Y129000D01*
G01X195750Y47500D02*
X200000D01*
G01X195400D02*
X195750D01*
G01X192000Y84900D02*
Y88600D01*
G01D02*
X189600D01*
X189400Y88800D01*
G01X195627Y95117D02*
X198017D01*
X198478Y94656D01*
G01X198300Y113800D02*
X195841D01*
X195627Y114015D01*
G01X189328Y117164D02*
X192477D01*
X195627Y114015D01*
G01X189700Y141800D02*
Y139508D01*
X189367Y139174D01*
G01X189700Y141800D02*
Y143600D01*
G01Y141800D02*
X190518Y143600D01*
G01X203400Y57200D02*
X204961Y55639D01*
Y53161D01*
X203900Y52100D01*
Y51500D01*
G01X200000Y47500D02*
X200100D01*
G01X219931Y15360D02*
Y17831D01*
G01X273976Y161984D02*
X268986D01*
X268702Y161700D01*
X258600D01*
G01X224600Y18100D02*
Y14400D01*
G01D02*
X224900Y14100D01*
G01X227762Y64072D02*
X231250Y67560D01*
G01X227762Y71048D02*
X231250Y67560D01*
G01X241900Y56600D02*
Y54600D01*
G01X242300Y46900D02*
X241600D01*
X239800Y48700D01*
Y52500D01*
X241900Y54600D01*
G01X245500Y99000D02*
Y97496D01*
X245696Y97300D01*
G01X264724Y46539D02*
X259939D01*
X256100Y42700D01*
G01X250750Y70000D02*
X250900Y69850D01*
Y69700D01*
G01X253200Y104450D02*
Y103600D01*
G01X254800Y102500D02*
X255700D01*
X257000Y101200D01*
G01X263740Y150016D02*
X256616D01*
X255500Y148900D01*
G01X268800Y58300D02*
Y60600D01*
G01X268700Y63300D02*
Y65500D01*
G01X265000Y58300D02*
Y60500D01*
G01X264900Y63300D02*
Y65400D01*
G01X277874Y110016D02*
Y114300D01*
G01Y156900D02*
Y158087D01*
X273976Y161984D01*
X127231Y23541D03*
Y26691D03*
Y29840D03*
X124081Y23541D03*
Y26691D03*
Y29840D03*
X127231Y42439D03*
Y45588D03*
X124081Y42439D03*
Y45588D03*
X127231Y48738D03*
X124081D03*
X136680Y23541D03*
Y26691D03*
Y29840D03*
X133530Y23541D03*
Y26691D03*
Y29840D03*
X130380Y23541D03*
Y26691D03*
Y29840D03*
X136680Y42439D03*
Y45588D03*
X133530Y42439D03*
Y45588D03*
X130380Y42439D03*
Y45588D03*
X136680Y48738D03*
X133530D03*
X130380D03*
X149278Y23541D03*
Y26691D03*
Y29840D03*
X146128Y23541D03*
Y26691D03*
Y29840D03*
X142979Y23541D03*
Y26691D03*
Y29840D03*
X139829Y23541D03*
Y26691D03*
Y29840D03*
X149278Y42439D03*
Y45588D03*
X146128Y42439D03*
Y45588D03*
X142979Y42439D03*
Y45588D03*
X139829Y42439D03*
Y45588D03*
X149278Y48738D03*
X146128D03*
X142979D03*
X139829D03*
X161876Y23541D03*
Y26691D03*
Y29840D03*
X158727Y23541D03*
Y26691D03*
Y29840D03*
X155577Y23541D03*
Y26691D03*
Y29840D03*
X152428Y23541D03*
Y26691D03*
Y29840D03*
X161876Y42439D03*
Y45588D03*
X158727Y42439D03*
Y45588D03*
X155577Y42439D03*
Y45588D03*
X152428Y42439D03*
Y45588D03*
X161876Y48738D03*
X158727D03*
X155577D03*
X152428D03*
X171325Y23541D03*
Y26691D03*
Y29840D03*
X168176Y23541D03*
Y26691D03*
Y29840D03*
X165026Y23541D03*
Y26691D03*
Y29840D03*
X171325Y42439D03*
Y45588D03*
X168176Y42439D03*
Y45588D03*
X165026Y42439D03*
Y45588D03*
X171325Y48738D03*
X168176D03*
X165026D03*
G54D37*
G01X262540Y72917D02*
X274390D01*
X275768Y74295D01*
G01X262540Y100083D02*
X274390D01*
X275768Y98705D01*
X30839Y41760D03*
X46800Y30100D03*
X46870Y35613D03*
X67300Y63000D03*
X145310Y132661D03*
X179884Y120880D03*
G54D64*
X275768Y74295D03*
Y98705D03*
G54D74*
G01X-30859Y12935D02*
X-31224Y13300D01*
X-36300D01*
X-40000Y17000D01*
X-42100D01*
G01X-49492Y31331D02*
X-48400Y32423D01*
Y34900D01*
X-48200Y35100D01*
G01D02*
Y35200D01*
X-46800Y36600D01*
X-31210D01*
X-30859Y36950D01*
G01X-36500Y62402D02*
Y58000D01*
G01X-23700Y36400D02*
X-22600Y35300D01*
X-20900D01*
X-20800Y35400D01*
G01X400Y144000D02*
X2250D01*
G01X4100D02*
X2250D01*
G01X400Y153000D02*
X2250D01*
G01D02*
Y153050D01*
G01X4100Y153000D02*
X2250D01*
G01X14600Y51300D02*
Y47300D01*
G01Y51300D02*
Y59200D01*
G01X31650Y148750D02*
X33750D01*
G01X37400Y74693D02*
X37893Y74200D01*
X41700D01*
X43900Y76400D01*
X44000D01*
G01X45700Y89300D02*
X39500D01*
X36000Y85800D01*
Y81000D01*
X35100Y80100D01*
X33000D01*
G01X42500Y110800D02*
Y114200D01*
X42000Y114700D01*
G01X42500Y110800D02*
X42513D01*
Y108413D01*
X42500Y108400D01*
G01Y110700D02*
Y110800D01*
G01X41000Y128600D02*
Y126000D01*
G01X67250Y107100D02*
X67150Y107000D01*
X64800D01*
X63800Y108000D01*
Y121100D01*
X61500Y123400D01*
X45100D01*
X42000Y120300D01*
G01X45441Y148985D02*
Y150059D01*
X44400Y151100D01*
X41500D01*
G01X52000Y76400D02*
X48000D01*
G01X45700Y89300D02*
Y86800D01*
X45750Y86750D01*
G01X47237Y110170D02*
Y110150D01*
X47250D01*
Y108400D01*
G01X47237Y110170D02*
Y113937D01*
X48000Y114700D01*
G01X44500Y128600D02*
Y126000D01*
G01X55000Y128600D02*
Y126000D01*
G01X50559Y156515D02*
Y155441D01*
X51100Y154900D01*
X54500D01*
G01X62547Y26217D02*
X60000Y28764D01*
Y28900D01*
G01X67200Y72500D02*
X68300D01*
Y76400D01*
G01X67250Y107100D02*
Y107500D01*
G01X58500Y128600D02*
Y126000D01*
G01X75200Y90400D02*
X78100D01*
X80000Y88500D01*
G01X77100Y100600D02*
X74600D01*
G01X75200Y94200D02*
X78135D01*
X79976Y96040D01*
G01X71600Y155750D02*
Y155800D01*
X69500D01*
G01X93600Y15500D02*
X91250D01*
G01X88550Y55750D02*
Y57500D01*
X84693D01*
G01X88400Y47000D02*
X92600D01*
G01X81000Y71500D02*
X82535Y69965D01*
Y65965D01*
X83500Y65000D01*
Y61500D01*
X83563Y61437D01*
X84693D01*
G01X81000Y71500D02*
X80500D01*
G01X89500Y82900D02*
X89340Y82740D01*
X84831D01*
X83831Y83740D01*
G01X89500Y82900D02*
X89424Y82976D01*
Y92300D01*
G01D02*
X88600Y93124D01*
Y100700D01*
G01X84600Y104500D02*
X82100D01*
G01X84800Y100700D02*
X84700Y100600D01*
X80900D01*
G01X79976Y96040D02*
X80900Y96965D01*
Y100600D01*
G01X93500Y170600D02*
X91100D01*
G01X91700Y41750D02*
X92600D01*
G01X91700D02*
Y36500D01*
G01X92600Y41750D02*
Y47000D01*
G01X96307Y55532D02*
X92750D01*
Y55750D01*
G01X98500Y57000D02*
X98000Y57500D01*
G01D02*
X96307D01*
G01X97500Y100200D02*
Y99600D01*
X97441Y99541D01*
Y96735D01*
G01X100400Y100200D02*
X102559Y102359D01*
Y104265D01*
G01X107250Y38750D02*
X106500D01*
X105250Y40000D01*
X104900D01*
G01X114219Y104776D02*
X112024D01*
X111800Y105000D01*
G01X122800Y116700D02*
X123200D01*
X125905Y113995D01*
X132691D01*
G01X142120Y142324D02*
X144120D01*
X144569Y141876D01*
G01X157868Y151773D02*
Y153855D01*
X158196Y154183D01*
G01X159500Y162100D02*
X161000Y160600D01*
Y156500D01*
X158683Y154183D01*
X158196D01*
G01X184800Y129000D02*
X186600D01*
G01X184800Y130637D02*
X186600Y129000D01*
G01X187100Y124200D02*
Y125693D01*
X186217Y126576D01*
G01X195500Y77800D02*
Y75000D01*
G01X190900Y124200D02*
X193290D01*
X195666Y126576D01*
G01X189391Y158394D02*
Y161207D01*
X189379Y161219D01*
G01X209400Y92300D02*
Y91200D01*
G01X205128Y158072D02*
Y158071D01*
X205105Y158048D01*
Y155330D01*
X205355Y155080D01*
G01X212400Y54000D02*
X212500Y54100D01*
Y63750D01*
G01X222165Y155488D02*
X225200Y152453D01*
Y136082D01*
X222165Y133047D01*
G01X258600Y161700D02*
X255400Y158500D01*
X225177D01*
X222165Y155488D01*
G01X246207Y55547D02*
X249947D01*
X252900Y58500D01*
G01X245400Y95275D02*
Y93700D01*
X245450Y93650D01*
G01X245696Y97300D02*
X245689Y97294D01*
Y96989D01*
X245400Y96700D01*
Y95275D01*
G01Y101425D02*
Y99100D01*
X245500Y99000D01*
G01X245400Y104575D02*
Y101425D01*
G01X247476Y43980D02*
X250180D01*
X250300Y44100D01*
G01X247476Y41420D02*
X250300D01*
G01X247476Y46539D02*
X250300D01*
G01X264724Y43980D02*
X268520D01*
G01X264724Y41420D02*
X268580D01*
G01X259593Y55547D02*
X262247D01*
X265000Y58300D01*
G01X259593Y61453D02*
X263053D01*
X264900Y63300D01*
G01X263740Y141354D02*
X258646D01*
G54D56*
X252900Y58500D03*
G54D65*
X277874Y110016D03*
X273976Y161984D03*
G54D29*
X-14000Y39339D03*
Y56661D03*
X24339Y18750D03*
X41661D03*
G54D47*
X160100Y68500D03*
Y75500D03*
X168500Y68500D03*
Y75500D03*
G54D38*
X30836Y59766D03*
X34276Y66897D03*
X39876D03*
X36436Y59766D03*
X53570Y41918D03*
X54136Y64104D03*
X59170Y41918D03*
X59736Y64104D03*
X67200Y72500D03*
X73700Y46000D03*
X79300D03*
X73700Y40000D03*
X79300D03*
X72800Y72500D03*
X91700Y20750D03*
Y31250D03*
Y26000D03*
Y41750D03*
Y36500D03*
X97300Y20750D03*
Y31250D03*
Y26000D03*
Y41750D03*
Y36500D03*
X108619Y104776D03*
X114219D03*
X123574Y104528D03*
X126400Y136000D03*
X120800D03*
X129174Y104528D03*
X172550Y15667D03*
X166950D03*
G54D75*
G01X161038Y113995D02*
X161215D01*
X161386Y114165D01*
G01X157888Y113995D02*
X161038D01*
G01X154543Y114205D02*
X157935D01*
X157974Y114165D01*
G01X207500Y174400D02*
X211500D01*
G01X203500D02*
X207500D01*
G01X219500D02*
X223500D01*
G01X215500D02*
X219500D01*
G01X211500D02*
X215500D01*
G01X227500D02*
X231500D01*
G01X223500D02*
X227500D01*
G54D66*
G01X0Y82500D02*
X5444D01*
X7044Y80900D01*
X15956D01*
X19600Y84544D01*
Y90044D01*
X22456Y92900D01*
X25900D01*
X27300Y91500D01*
G01X10000Y97500D02*
X9000D01*
X6500Y95000D01*
Y93555D01*
X6956Y93100D01*
X14544D01*
X15400Y93955D01*
Y100455D01*
X16894Y101950D01*
X25850D01*
X27200Y103300D01*
G01X0Y92500D02*
X6000D01*
X6500Y92000D01*
X15000D01*
X16500Y93500D01*
Y100000D01*
X17350Y100850D01*
X25850D01*
X27200Y99500D01*
X27300D01*
G01X10000Y87500D02*
X8000D01*
X6500Y86000D01*
Y83000D01*
X7500Y82000D01*
X15500D01*
X18500Y85000D01*
Y90500D01*
X22000Y94000D01*
X25900D01*
X27300Y95400D01*
G01X0Y112500D02*
X7000D01*
X7600Y111900D01*
X13545D01*
X16944Y108500D01*
X25500D01*
X26900Y107100D01*
X27200D01*
G01X27100Y111100D02*
X25600Y109600D01*
X17400D01*
X14000Y113000D01*
X8000D01*
X7500Y113500D01*
Y115000D01*
X10000Y117500D01*
G01X0Y122500D02*
X7944D01*
X8794Y121650D01*
X12294D01*
X17644Y116300D01*
X25700D01*
X27000Y115000D01*
X27100D01*
G01X10000Y127500D02*
X8500Y126000D01*
Y123500D01*
X9250Y122750D01*
X12750D01*
X18100Y117400D01*
X25700D01*
X27000Y118700D01*
G01X146128Y42439D02*
Y41632D01*
X147600Y40160D01*
Y36900D01*
X148361Y36139D01*
X149278D01*
G01X142979Y42439D02*
X144160Y41258D01*
X144947D01*
X146500Y39705D01*
Y36511D01*
X146128Y36139D01*
G01X245400Y89600D02*
Y90200D01*
X246538Y91338D01*
X246975D01*
G01X240100Y91860D02*
X240360D01*
X240689Y92189D01*
X242974D01*
X243825Y91338D01*
G01X240100Y94260D02*
X240240D01*
X241211Y93289D01*
X243429D01*
X243816Y92903D01*
X243825Y92913D01*
G01Y103787D02*
X242713Y104900D01*
X242100D01*
G01X243825Y94487D02*
X241913Y96400D01*
X241300D01*
G01X243825Y96062D02*
Y96275D01*
X241300Y98800D01*
G01X243825Y100638D02*
X242963Y101500D01*
X240687D01*
X240300Y101113D01*
G01X243825Y102213D02*
X243438Y102600D01*
X241213D01*
X240300Y103513D01*
G01X242100Y107300D02*
Y107068D01*
X243806Y105362D01*
X243825D01*
G01X257008Y80988D02*
X256771Y81226D01*
X253619D01*
X249240Y85604D01*
Y93260D01*
X248000Y94500D01*
X246987D01*
X246975Y94487D01*
G01Y96062D02*
X247138D01*
X247600Y95600D01*
X248456D01*
X250340Y93716D01*
Y86060D01*
X254074Y82326D01*
X256771D01*
X257008Y82563D01*
G01X246975Y105362D02*
X247720D01*
X247958Y105125D01*
X248875D01*
X251400Y102600D01*
Y95856D01*
X252370Y94886D01*
Y88230D01*
X253600Y87000D01*
X256721D01*
X257008Y87287D01*
G01X246975Y103787D02*
X247720D01*
X247958Y104025D01*
X248419D01*
X250300Y102144D01*
Y95400D01*
X251270Y94430D01*
Y87774D01*
X253144Y85900D01*
X256821D01*
X257008Y85713D01*
G01X247600Y89700D02*
Y89900D01*
X248075Y90375D01*
Y91868D01*
X247030Y92913D01*
X246975D01*
G01Y102213D02*
X248715Y100472D01*
Y100000D01*
X248700D01*
G01Y97600D02*
X246975Y99325D01*
Y100638D01*
G01X267000Y91900D02*
Y91700D01*
X266100Y90800D01*
X265144D01*
X264044Y89700D01*
X261881D01*
X261831Y89650D01*
G01X267300Y84200D02*
Y84100D01*
X266900Y83700D01*
X262181D01*
X261831Y83350D01*
G01X267000Y89500D02*
X266800Y89700D01*
X265600D01*
X263975Y88075D01*
X261831D01*
G01X267700Y86500D02*
X267500Y86300D01*
X267000D01*
X265500Y84800D01*
X261956D01*
X261831Y84925D01*
G54D39*
X55248Y17000D03*
X48752D03*
G54D48*
X222165Y133047D03*
Y155488D03*
G54D57*
X248963Y51807D03*
X250932D03*
X252900D03*
X254868D03*
X256837D03*
Y65193D03*
X254868D03*
X252900D03*
X250932D03*
X248963D03*
G54D76*
G01X-16600Y26300D02*
X-12500D01*
X-12100Y26700D01*
G01X-11000Y16400D02*
Y20000D01*
X-12100Y21100D01*
G01X34227Y32972D02*
X31612D01*
X31131Y32492D01*
G01X28700Y31000D02*
Y31694D01*
X27942Y32452D01*
G01X24613Y56983D02*
Y57633D01*
X27981D01*
G01X23800Y61600D02*
X25100Y60300D01*
G01X28800Y63700D02*
X30028Y63680D01*
X32522D01*
X36436Y59766D01*
G01X32600Y110000D02*
Y109900D01*
X29500Y106800D01*
Y102500D01*
X30750Y101250D01*
X31750D01*
G01X32600Y110000D02*
Y114600D01*
X32500Y114700D01*
G01X29250Y135700D02*
X33000D01*
G01X34227Y32972D02*
X36828D01*
X37300Y32500D01*
G01X34227Y32972D02*
Y35587D01*
X34281Y35641D01*
G01X43644Y26237D02*
X41395D01*
X40570Y27061D01*
G01X43444Y29056D02*
X42565D01*
X40570Y27061D01*
G01X39900Y37200D02*
Y36284D01*
X40570Y35614D01*
G01X40580Y60782D02*
Y61570D01*
X42904Y63894D01*
X44561D01*
G01X36500Y110000D02*
Y112400D01*
G01X35200Y125400D02*
Y122750D01*
X32750Y120300D01*
X32500D01*
G01X47300Y44200D02*
X46835D01*
Y48222D01*
G01X46953Y38687D02*
Y40053D01*
X47300Y40400D01*
G01X53208Y60800D02*
Y58032D01*
X53750D01*
G01X56500Y112600D02*
X55000Y111100D01*
Y108000D01*
G01X48000Y120300D02*
X47300D01*
X46100Y119100D01*
Y117500D01*
G01X63796Y35161D02*
Y33717D01*
X62571Y32492D01*
G01X68500Y40500D02*
X66200D01*
X66000Y40700D01*
G01X60000Y36150D02*
X56507D01*
X56502Y36145D01*
G01X69490Y32935D02*
Y33267D01*
X67596Y35161D01*
G01X62571Y57633D02*
X65333D01*
X66000Y58300D01*
G01X83831Y76260D02*
Y78669D01*
X75000Y87500D01*
G01X84600Y68000D02*
Y67900D01*
X86000Y66500D01*
Y63500D01*
G01X84600Y72000D02*
Y68000D01*
G01X89500Y79100D02*
Y77500D01*
X88260Y76260D01*
X83831D01*
G01X100000Y104000D02*
Y106000D01*
X99000Y107000D01*
Y135250D01*
X102276Y138526D01*
X107482D01*
G01X99500Y174400D02*
X99200D01*
X96900Y176700D01*
G01X103500Y174400D02*
X107500D01*
G01X108619Y104776D02*
X107900Y105494D01*
Y106100D01*
G01X115356Y138526D02*
X115500D01*
Y136000D01*
G01D02*
X115526Y136026D01*
X120774D01*
X120800Y136000D01*
G01X111500Y174400D02*
X115500D01*
G01X126906Y15667D02*
X128806Y17567D01*
Y21966D01*
G01X119032Y15667D02*
X122506Y19142D01*
Y21966D01*
G01X122832Y15667D02*
X125656Y18491D01*
Y21966D01*
G01X126906Y56612D02*
X128806Y54712D01*
Y50313D01*
G01X119032Y61336D02*
Y56612D01*
G01D02*
X122506Y53137D01*
Y50313D01*
G01X122832Y61336D02*
Y56612D01*
G01D02*
X125656Y53787D01*
Y50313D01*
G01X122832Y68500D02*
Y61336D01*
G01X121500Y68500D02*
X122832D01*
G01D02*
Y75789D01*
X123203Y76160D01*
G01X126300Y117144D02*
X126156D01*
X122900Y120400D01*
Y120700D01*
G01X119500Y174400D02*
X123500D01*
G01X134780Y15667D02*
X135105Y15992D01*
Y21966D01*
G01X130706Y15667D02*
X131955Y16916D01*
Y21966D01*
G01X138580Y15667D02*
X138254Y15992D01*
Y21966D01*
G01X134780Y56612D02*
X135105Y56287D01*
Y50313D01*
G01X130706Y56612D02*
X131955Y55362D01*
Y50313D01*
G01X138469Y129040D02*
Y127074D01*
X139097Y126446D01*
G01X132672Y145474D02*
X132647Y145498D01*
X130477D01*
X130177Y145798D01*
G01X142654Y15667D02*
X141404Y16916D01*
Y18816D01*
G01X150528Y15667D02*
X150853Y15992D01*
Y21966D01*
G01X146454Y15667D02*
X147703Y16916D01*
Y21966D01*
G01X142654Y56612D02*
X144554Y54712D01*
Y50313D01*
G01X150528Y56612D02*
X154002Y53137D01*
Y50313D01*
G01X146454Y56612D02*
X147703Y55362D01*
Y50313D01*
G01X146454Y58998D02*
Y56612D01*
G01X142654Y61336D02*
Y61349D01*
G01X146454Y61336D02*
Y58998D01*
G01X148421Y74956D02*
X149625Y76160D01*
X151598D01*
G01X142168Y107668D02*
X141456Y108380D01*
Y108538D01*
G01X142026Y129098D02*
X144642D01*
X145270Y129726D01*
G01X148420Y154922D02*
Y152727D01*
X148476Y152670D01*
G01X139500Y174400D02*
X143500D01*
G01X154002Y21900D02*
Y18192D01*
X154328Y17867D01*
Y15667D01*
G01X162202D02*
X160302Y17567D01*
Y21966D01*
G01X158402Y15667D02*
X157152Y16916D01*
Y21966D01*
G01X162202Y56612D02*
X163451Y55362D01*
Y50313D01*
G01X154328Y56612D02*
X157152Y53787D01*
Y50313D01*
G01X158402Y56612D02*
X160302Y54712D01*
Y50313D01*
G01X153933Y75856D02*
X153628Y76160D01*
X151733D01*
G01X160210Y97720D02*
Y100568D01*
X161038Y101396D01*
G01X158195Y85630D02*
X160998D01*
X161017Y85648D01*
G01X158600Y103735D02*
X160227D01*
X161038Y104546D01*
G01X164799Y117973D02*
X161394D01*
X161386Y117965D01*
G01X172550Y15667D02*
X169750Y18467D01*
Y21966D01*
G01X166950Y15667D02*
X166601Y16016D01*
Y21966D01*
G01X170076Y56612D02*
X169750Y56287D01*
Y50313D01*
G01X166276Y56612D02*
X166601Y56287D01*
Y50313D01*
G01X167280Y101416D02*
X166604Y100740D01*
Y99058D01*
G01X176800Y95900D02*
X175200D01*
X173580Y97521D01*
Y98266D01*
G01X167320Y126576D02*
X168706D01*
X168936Y126346D01*
G01D02*
X170239D01*
X170469Y126576D01*
G01X172665Y121909D02*
Y121228D01*
X173580Y120314D01*
G01X164688Y133005D02*
X167190D01*
X167320Y132875D01*
G01X173082Y139300D02*
X173195Y139174D01*
X176768D01*
G01X173082Y143100D02*
X174382Y143087D01*
X176768Y145474D01*
G01X179879Y88818D02*
Y89021D01*
G01X186247Y101347D02*
X186391Y101204D01*
Y98479D01*
X186178Y98266D01*
G01X183068Y139174D02*
X183274D01*
X185900Y141800D01*
G01X180641Y143100D02*
X179400D01*
X177026Y145474D01*
X176768D01*
G01X205115Y148623D02*
X205105Y148633D01*
Y151030D01*
X205355Y151280D01*
G01X227400Y152500D02*
Y150500D01*
G01D02*
X239750D01*
X242824Y147426D01*
Y143280D01*
G01X227400Y150500D02*
Y148500D01*
G54D67*
G01X-50500Y56000D02*
X-50150D01*
G01X-16600Y26300D02*
Y28100D01*
G01X32600Y106000D02*
X31713Y105987D01*
G01X40161Y50577D02*
X40814Y51400D01*
X40500D01*
G01X58100Y19300D02*
X55800Y17000D01*
G01X55248D02*
X55800D01*
G01X52501Y34255D02*
X53122D01*
Y35641D01*
G01X54500Y154900D02*
Y155100D01*
G01X56900Y17000D02*
X57600D01*
X58100Y17500D01*
G01X56900Y17000D02*
X58100Y15800D01*
G01X55800Y17000D02*
X56900D01*
G01X74000Y132650D02*
Y132000D01*
G01X80500Y71900D02*
X81000Y71500D01*
G01X138478Y116895D02*
X138742D01*
X138991Y117144D01*
G01X138278Y116895D02*
X138478D01*
G01X149278Y29840D02*
X150853Y28265D01*
G01X152428Y26691D02*
X150853Y25116D01*
G01X149278Y45588D02*
X150853Y47163D01*
G01X149278Y42439D02*
X147703Y44013D01*
G01X155577Y29840D02*
X157152Y31415D01*
G01X161876Y29840D02*
X163451Y28265D01*
G01X152428Y29840D02*
X154002Y31415D01*
G01X158727Y29840D02*
X160302Y28265D01*
G01X155577Y26691D02*
X154002Y28265D01*
G01X152428Y48738D02*
Y45588D01*
G01X155577D02*
X154002Y44013D01*
G01X155577Y42439D02*
X157152Y40864D01*
G01X161876Y42439D02*
X163451Y44013D01*
G01X158727Y42439D02*
X160302Y40864D01*
G01X152428Y42439D02*
X152428Y37714D01*
X154002Y36139D01*
G01X168176Y29840D02*
X168176Y34565D01*
X169750Y36139D01*
G01X165026Y29840D02*
X166601Y28265D01*
G01X165026Y26691D02*
X163991D01*
X163451Y26151D01*
Y25116D01*
G01X171325Y29840D02*
X172900Y28265D01*
G01X171325Y26691D02*
X172900Y25116D01*
G01X168176Y45588D02*
X169750Y44013D01*
G01X165026Y42439D02*
X166601Y40864D01*
G01X168176Y42439D02*
X169750Y40864D01*
G01X165026Y45588D02*
X163451Y47163D01*
G01X171325Y42439D02*
X172900Y44013D01*
G01X170388Y89330D02*
X168856Y90862D01*
Y102094D01*
X167124Y103826D01*
Y104639D01*
G01X179600Y71200D02*
Y71500D01*
G01X195400Y55500D02*
Y55000D01*
G01X224600Y21900D02*
X220871D01*
X219931Y22840D01*
G01X224600Y22100D02*
Y21900D01*
G01X-32500Y-12500D02*
X232500D01*
G03X282500Y37500I0J50000D01*
G01Y152500D01*
G03X232500Y202500I-50000J0D01*
G01X-32500D01*
G03X-57500Y177500I0J-25000D01*
G01Y12500D01*
G03X-32500Y-12500I25000J0D01*
G54D49*
X221378Y150016D03*
G54D58*
X257050Y70000D03*
X250750D03*
G54D77*
G01X36618Y-8382D02*
X40000Y-5000D01*
G01D02*
X43382Y-1618D01*
G01X36618D02*
X40000Y-5000D01*
G01D02*
X43382Y-8382D01*
G01X36618Y1618D02*
X40000Y5000D01*
G01D02*
X43382Y8382D01*
G01X36618D02*
X40000Y5000D01*
G01D02*
X43382Y1618D01*
G54D68*
G01X221378Y150016D02*
X221250D01*
G54D59*
X257008Y79413D03*
Y80988D03*
Y82563D03*
Y84138D03*
Y85713D03*
Y93587D03*
Y92012D03*
Y90437D03*
Y88862D03*
Y87287D03*
G54D69*
G01X137210Y58700D02*
X136672Y58162D01*
Y51895D01*
X138254Y50313D01*
Y47163D01*
X136680Y45588D01*
G01X139829D02*
Y46376D01*
X141404Y47950D01*
Y50313D01*
X138580Y53137D01*
Y56612D01*
M02*
