G04 ================== begin FILE IDENTIFICATION RECORD ==================*
G04 Layout Name:  BeagleBone AI rev A1-20181221a.brd*
G04 Film Name:    LAY10*
G04 File Format:  Gerber RS274X*
G04 File Origin:  Cadence Allegro 16.6-2015-S100*
G04 Origin Date:  Fri Dec 21 17:06:42 2018*
G04 *
G04 Layer:  VIA CLASS/SIG_L10*
G04 Layer:  PIN/SIG_L10*
G04 Layer:  ETCH/SIG_L10*
G04 Layer:  BOARD GEOMETRY/OUTLINE*
G04 *
G04 Offset:    (0.000 0.000)*
G04 Mirror:    No*
G04 Mode:      Positive*
G04 Rotation:  0*
G04 FullContactRelief:  No*
G04 UndefLineWidth:     5.000*
G04 ================== end FILE IDENTIFICATION RECORD ====================*
%FSLAX55Y55*MOIN*%
%IR0*IPPOS*OFA0.00000B0.00000*MIA0B0*SFA1.00000B1.00000*%
%ADD10C,.016*%
%ADD13C,.062*%
%ADD14C,.065*%
%ADD12C,.023622*%
%ADD11C,.03937*%
%ADD15C,.004*%
%ADD16C,.006*%
%ADD17C,.008*%
%ADD18C,.0045*%
%ADD19C,.004748*%
%ADD20C,.01*%
%ADD21C,.015*%
%ADD22C,.005*%
%ADD23C,.024004*%
%ADD26C,.070004*%
%ADD24C,.066004*%
%ADD27C,.089004*%
%ADD25C,.053626*%
G75*
%LPD*%
G75*
G36*
G01X-40700Y50500D02*
X-42800Y52600D01*
Y55074D01*
G02X-42431Y55472I400J0D01*
G03X-41589Y57419I-94J1196D01*
G02Y57919I312J250D01*
G03X-42431Y59865I-937J750D01*
G02X-42800Y60264I31J399D01*
G01Y63700D01*
X-39900Y66600D01*
X-24304D01*
G02X-24022Y65917I0J-400D01*
G01X-24100Y65839D01*
Y60861D01*
X-22856Y59617D01*
X-23900Y58573D01*
Y58189D01*
G02X-24475Y57829I-400J0D01*
G03X-25938Y57499I-525J-1079D01*
G02X-26562I-312J250D01*
G03X-28438I-938J-749D01*
G02X-29063I-313J250D01*
G03X-30899Y55955I-938J-749D01*
G02X-30909Y55679I-150J-132D01*
G03X-31287Y54934I909J-930D01*
G01X-31297Y54868D01*
X-35664Y50500D01*
X-40700D01*
G37*
G36*
G01X82450Y56537D02*
G03X80905Y56499I-750J-937D01*
G02X80630Y56509I-132J150D01*
G03X79233Y56814I-930J-909D01*
G01X79199Y56800D01*
X73632D01*
X70703Y59730D01*
X70688Y59763D01*
G03X69156Y60489I-1188J-528D01*
G02X68650Y60875I-106J386D01*
G01Y66289D01*
X65289Y69650D01*
X55950D01*
G02X55550Y70038I0J400D01*
G03X52951Y70049I-1300J-38D01*
G01X52948Y69971D01*
X52627Y69650D01*
X49893D01*
G02X49495Y70088I0J400D01*
G03X47475Y71072I-1195J112D01*
G02X46925I-275J290D01*
G03X45235Y71033I-825J-872D01*
G02X44686Y71008I-288J277D01*
G03X43114I-786J-907D01*
G02X42565Y71033I-262J302D01*
G03X40505Y70088I-865J-832D01*
G02X40107Y69650I-398J-37D01*
G01X27500D01*
Y88239D01*
X25339Y90400D01*
X19461D01*
X6461Y77400D01*
X-1839D01*
X-3117Y76122D01*
G02X-3800Y76404I-283J283D01*
G01Y141400D01*
X-4952Y142552D01*
G02X-4752Y143226I283J283D01*
G03X-6174Y144648I-248J1174D01*
G02X-6848Y144448I-391J83D01*
G01X-8200Y145800D01*
X-22907D01*
G02X-23305Y146238I0J400D01*
G03X-25695I-1195J113D01*
G02X-26093Y145800I-398J-38D01*
G01X-39900D01*
X-40500Y146400D01*
Y178400D01*
X-34500Y184400D01*
X-13600D01*
X-10077Y180877D01*
G02X-10393Y180196I-283J-283D01*
G03X-11780Y178671I-107J-1296D01*
G02X-12174Y178200I-394J-70D01*
G01X-12627D01*
X-14577Y180150D01*
X-15001D01*
Y180455D01*
X-14915Y180514D01*
G03X-16566Y180788I-685J986D01*
G02X-16888Y180150I-322J-237D01*
G01X-27373D01*
X-28628Y178896D01*
X-28693Y178886D01*
G03X-27202Y177679I193J-1286D01*
G01X-27208Y177769D01*
X-26627Y178350D01*
X-15323D01*
X-13373Y176400D01*
X-11162D01*
G02X-10872Y175725I0J-400D01*
G03X-9128I872J-825D01*
G02X-8838Y176400I291J275D01*
G01X-4589D01*
G02X-4306Y175717I0J-400D01*
G01X-10400Y169623D01*
Y168373D01*
X-10677Y168096D01*
X-10794Y168135D01*
G03X-10316Y165946I-407J-1235D01*
G01X-10259Y166000D01*
X-10227D01*
X-8600Y167627D01*
Y168877D01*
X-1977Y175500D01*
X32517D01*
G02X32887Y174950I0J-400D01*
G03X35113I1113J-450D01*
G02X35484Y175500I371J150D01*
G01X35894D01*
G02X36277Y174985I0J-400D01*
G03X38577I1150J-344D01*
G02X38960Y175500I383J115D01*
G01X39437D01*
G02X39820Y174985I0J-400D01*
G03X42120I1150J-344D01*
G02X42503Y175500I383J115D01*
G01X42938D01*
G02X43329Y175012I0J-400D01*
G03X45671I1171J-262D01*
G02X46062Y175500I390J87D01*
G01X67784D01*
G02X68167Y174985I0J-400D01*
G03X70466I1150J-344D01*
G02X70850Y175500I383J115D01*
G01X75688D01*
G02X76079Y175012I0J-400D01*
G03X78421I1171J-262D01*
G02X78812Y175500I390J87D01*
G01X81773D01*
X86373Y180100D01*
X192927D01*
X196164Y176863D01*
Y175978D01*
G02X195698Y175584I-400J0D01*
G03Y173216I-198J-1184D01*
G02X196164Y172822I66J-395D01*
G01Y165900D01*
X185961D01*
X185742Y165680D01*
G02X185400Y165822I-141J141D01*
G01Y170123D01*
X182400Y173123D01*
Y176373D01*
X179123Y179650D01*
X104877D01*
X103100Y177873D01*
Y177811D01*
G02X102780Y177651I-200J0D01*
G03X102540Y175591I-721J-960D01*
G02X103100Y175225I160J-367D01*
G01Y171844D01*
X102980Y171792D01*
G03X102247Y170948I520J-1192D01*
G01X102233Y170897D01*
X102054Y170719D01*
X101879Y170894D01*
X93120D01*
X92935Y170708D01*
G02X92264Y170893I-283J283D01*
G03X90807Y169436I-1164J-293D01*
G02X90992Y168765I-98J-388D01*
G01X90445Y168218D01*
G02X89871Y168225I-283J283D01*
G03X89525Y166321I-871J-825D01*
G02X90100Y165961I175J-360D01*
G01Y158173D01*
X85827Y153900D01*
X84627D01*
X75889Y145162D01*
G02X75215Y145362I-283J283D01*
G03X73792Y143939I-1174J-249D01*
G02X73992Y143265I-83J-391D01*
G01X64350Y133623D01*
Y129123D01*
X48127Y112900D01*
X46127D01*
X45083Y111856D01*
G02X44400Y112139I-283J283D01*
G01Y112639D01*
X42939Y114100D01*
X37120D01*
G02X36740Y114625I0J400D01*
G03X34460I-1140J375D01*
G02X34080Y114100I-380J-125D01*
G01X30761D01*
X28561Y111900D01*
G02X27984Y111912I-283J283D01*
G03X26928Y109912I-884J-812D01*
G01X27100Y109887D01*
Y108307D01*
X26943Y108272D01*
G03Y105928I257J-1172D01*
G01X27100Y105893D01*
Y104507D01*
X26943Y104472D01*
G03Y102128I257J-1172D01*
G01X27100Y102093D01*
Y100693D01*
X26957Y100650D01*
G03Y98350I343J-1150D01*
G01X27100Y98307D01*
Y96593D01*
X26957Y96550D01*
G03X28068Y94478I343J-1150D01*
G02X28607Y94454I256J-307D01*
G01X29061Y94000D01*
X33439D01*
X34917Y95478D01*
G02X35600Y95195I283J-283D01*
G01Y90788D01*
G02X34962Y90466I-400J0D01*
G03X33055Y89386I-712J-966D01*
G02X32680Y88948I-398J-38D01*
G03X33945Y87864I70J-1198D01*
G02X34320Y88302I398J38D01*
G03X34962Y88534I-70J1198D01*
G02X35600Y88212I237J-322D01*
G01Y85377D01*
X47877Y73100D01*
X50703D01*
G02X51102Y72675I0J-400D01*
G03X53498I1198J-75D01*
G02X53897Y73100I399J25D01*
G01X65123D01*
X67017Y74994D01*
G02X67700Y74711I283J-283D01*
G01Y67961D01*
X71661Y64000D01*
X75287D01*
X75312Y63828D01*
G03X75563Y63250I1188J172D01*
G02Y62750I-312J-250D01*
G03Y61250I937J-750D01*
G02Y60750I-312J-250D01*
G03X77437I937J-750D01*
G02Y61250I312J250D01*
G03Y62750I-937J750D01*
G02Y63250I312J250D01*
G03X77688Y63828I-937J750D01*
G01X77713Y64000D01*
X81039D01*
X82417Y65378D01*
G02X83100Y65095I283J-283D01*
G01Y56849D01*
G02X82450Y56537I-400J0D01*
G37*
G36*
G01X-21100Y2700D02*
X-22700Y4300D01*
Y6541D01*
G02X-22017Y6824I400J0D01*
G01X-21368Y6175D01*
X-19266D01*
X-19218Y6045D01*
G03X-17025Y7360I1218J455D01*
G02Y7890I300J265D01*
G03X-18735Y9822I-975J860D01*
G02X-19362Y10152I-226J330D01*
G01Y10155D01*
G02X-18994Y10554I400J0D01*
G03X-17800Y11827I-106J1296D01*
G01X-17799Y11908D01*
X-14808Y14899D01*
G02X-14144Y14737I283J-283D01*
G03X-13244Y16275I1144J363D01*
G02X-13725Y16667I-81J392D01*
G01Y20518D01*
X-16857Y23650D01*
X-21407D01*
G02X-21805Y24088I0J400D01*
G03X-22728Y25369I-1195J112D01*
G02X-23028Y25844I91J390D01*
G03X-24950Y27037I-1173J256D01*
G02X-25600Y27349I-250J312D01*
G01Y30275D01*
X-25095D01*
G02X-24696Y29844I0J-400D01*
G03X-23010Y28654I1197J-94D01*
G02X-22768Y28590I82J-183D01*
G03X-22104Y28139I968J710D01*
G02X-21904Y27489I-101J-387D01*
G03X-20696Y27861I904J-789D01*
G02X-20896Y28511I101J387D01*
G03X-20680Y29731I-904J789D01*
G02X-20307Y30275I373J144D01*
G01X-18928D01*
X-18889Y30257D01*
G03X-18606Y30180I381J843D01*
G03X-16825Y32060I806J1020D01*
G02Y32590I300J265D01*
G03X-18749Y34338I-975J860D01*
G01X-18808Y34275D01*
X-18933D01*
X-20033Y33175D01*
X-24617D01*
X-25600Y34158D01*
Y40339D01*
G03X-25938Y45082I-889J2320D01*
G01X-25994Y45094D01*
X-26380Y45480D01*
G02X-26273Y46122I283J283D01*
G03X-27878Y47727I-527J1078D01*
G02X-28520Y47620I-359J176D01*
G01X-29572Y48672D01*
G02X-29592Y49216I283J283D01*
G03X-31539Y50600I-909J784D01*
G01X-31597Y50500D01*
X-31870D01*
G02X-32153Y51183I0J400D01*
G01X-29882Y53453D01*
X-29816Y53463D01*
G03X-28994Y53927I-184J1287D01*
G02X-28388Y53943I310J-253D01*
G03X-26562Y54001I888J807D01*
G02X-25938I312J-250D01*
G03X-25065Y53552I938J749D01*
G02X-24804Y52869I-22J-399D01*
G01X-24900Y52773D01*
Y50938D01*
G03X-23100I900J-938D01*
G01Y52027D01*
X-22100Y53027D01*
Y53401D01*
X-21795D01*
X-21736Y53315D01*
G03X-21655Y53211I986J685D01*
G02X-21672Y52666I-301J-263D01*
G03X-21725Y50890I922J-916D01*
G02Y50360I-300J-265D01*
G03Y48640I975J-860D01*
G02Y48110I-300J-265D01*
G03Y46390I975J-860D01*
G02Y45860I-300J-265D01*
G03X-21675Y44086I975J-860D01*
G01Y43617D01*
X-20904Y42846D01*
G03X-20250Y42575I654J654D01*
G01X-19117D01*
X-18346Y43346D01*
G03X-18336Y43356I-653J656D01*
G02X-18051Y43358I143J-139D01*
G01X-16518Y41825D01*
X-14368D01*
X-13928Y41384D01*
X-14116Y41196D01*
X-14181Y41187D01*
G03X-14750Y40937I181J-1187D01*
G02X-15250I-250J312D01*
G03X-16750I-750J-937D01*
G02X-17250I-250J312D01*
G03X-18750I-750J-937D01*
G02X-19250I-250J312D01*
G03X-20750I-750J-937D01*
G02X-21250I-250J312D01*
G03X-22937Y39250I-750J-937D01*
G02Y38750I-312J-250D01*
G03X-21250Y37063I937J-750D01*
G02X-20750I250J-312D01*
G03X-19250I750J937D01*
G02X-18750I250J-312D01*
G03X-17250I750J937D01*
G02X-16750I250J-312D01*
G03X-15250I750J937D01*
G02X-14750I250J-312D01*
G03X-13063Y38750I750J937D01*
G02Y39250I312J250D01*
G03X-12886Y39554I-937J750D01*
G02X-12232Y39688I371J-149D01*
G01X-11175Y38632D01*
Y34396D01*
G02X-11675Y34009I-400J0D01*
G03X-12975Y31890I-325J-1259D01*
G02Y31360I-300J-265D01*
G03X-10839Y29915I975J-860D01*
G01X-10784Y30025D01*
X-9932D01*
X-8708Y31248D01*
G02X-8025Y30966I283J-283D01*
G01Y30067D01*
G02X-8506Y29675I-400J0D01*
G03Y27325I-244J-1175D01*
G02X-8025Y26933I81J-392D01*
G01Y22332D01*
X-5222Y19528D01*
G02X-5254Y18934I-283J-283D01*
G03X-4369Y16807I754J-934D01*
G02X-3925Y16409I44J-398D01*
G01Y16118D01*
X-4596Y15447D01*
X-4737Y15572D01*
G03X-6591Y13759I-863J-973D01*
G02Y13241I-305J-259D01*
G03X-6843Y12018I991J-841D01*
G02X-7225Y11500I-382J-118D01*
G01X-7300D01*
X-10130Y8670D01*
G02X-10810Y8902I-283J283D01*
G03X-12854Y7906I-1191J-152D01*
G02Y7344I-284J-281D01*
G03X-13061Y5939I853J-844D01*
G01X-12992Y5808D01*
X-16100Y2700D01*
X-21100D01*
G37*
G36*
G01X-22628Y11606D02*
X-22698D01*
X-24175Y13083D01*
Y14092D01*
G02X-23687Y14482I400J0D01*
G03X-22100Y15773I287J1268D01*
G02X-21575Y16160I400J7D01*
G03X-21691Y18395I375J1140D01*
G02X-22219Y18593I-164J365D01*
G03X-22300Y18743I-1181J-543D01*
G02X-22041Y19028I169J107D01*
G03X-20810Y19118I541J1071D01*
G02X-20210Y18943I230J-327D01*
G03X-18415Y20386I1110J457D01*
G01X-18501Y20445D01*
Y20750D01*
X-18058D01*
X-16625Y19317D01*
Y18493D01*
G02X-17169Y18120I-400J0D01*
G03X-18360Y16071I-431J-1120D01*
G02X-18330Y15478I-253J-310D01*
G01X-18532Y15276D01*
X-18652Y15320D01*
G03X-20075Y13240I-448J-1221D01*
G02Y12710I-300J-265D01*
G03X-20308Y12332I975J-860D01*
G02X-20570Y12221I-186J74D01*
G03X-20923Y12292I-353J-855D01*
G01X-21560D01*
G03X-22214Y12021I0J-925D01*
G01X-22628Y11606D01*
G37*
G36*
G01X-3362Y24900D02*
G03X-4625Y25259I-938J-900D01*
G02X-5125Y25646I-100J387D01*
G01Y26972D01*
G02X-4606Y27354I400J0D01*
G03Y29646I356J1146D01*
G02X-5125Y30028I-119J382D01*
G01Y40933D01*
X-8025Y43833D01*
Y45833D01*
X-10675Y48483D01*
Y50468D01*
X-12282Y52075D01*
X-19484D01*
X-19532Y52205D01*
G03X-19828Y52666I-1218J-455D01*
G02X-19845Y53211I284J282D01*
G03X-19896Y54844I-905J789D01*
G02Y55406I284J281D01*
G03X-21462Y57216I-854J844D01*
G02X-22100Y57538I-237J322D01*
G01Y57827D01*
X-21627Y58300D01*
X-19273D01*
X-17073Y56100D01*
X-12339D01*
X-4300Y48061D01*
Y46161D01*
X-3860Y45722D01*
X-3896Y45606D01*
G03X-3677Y44487I1146J-356D01*
G02X-3764Y43900I-309J-254D01*
G03X-2173Y43663I664J-1000D01*
G02X-2086Y44250I309J254D01*
G03X-1741Y44600I-664J1000D01*
G01X-1290D01*
Y44351D01*
X-1313Y44307D01*
G03X-1156Y42962I1063J-557D01*
G02Y42438I-302J-263D01*
G03X-1089Y40792I906J-787D01*
G02X-1082Y40514I-140J-143D01*
G03X639Y40558I882J-814D01*
G02X632Y40836I140J143D01*
G03X656Y42438I-882J814D01*
G02Y42962I302J262D01*
G03X902Y44087I-906J788D01*
G02X1286Y44600I384J112D01*
G01X7403D01*
X7461Y44500D01*
G03X9250Y44163I1039J600D01*
G02X9500I125J-156D01*
G03X11000I750J937D01*
G02X11250I125J-156D01*
G03X13039Y44500I750J937D01*
G01X13097Y44600D01*
X17839D01*
X19467Y46228D01*
G02X20150Y45945I283J-283D01*
G01Y42597D01*
G03Y40903I850J-847D01*
G01Y37583D01*
X20128Y37540D01*
G03Y36460I1072J-540D01*
G01X20150Y36417D01*
Y35533D01*
G03X19935Y35089I950J-733D01*
G02X19264Y34903I-388J96D01*
G01X18667Y35500D01*
X12986D01*
X10436Y32950D01*
X4336D01*
X1554Y30168D01*
G02X901Y30298I-283J283D01*
G03X648Y30689I-1201J-498D01*
G02X638Y30951I146J137D01*
G03X640Y32446I-938J749D01*
G02X652Y32959I313J249D01*
G03Y34541I-902J791D01*
G02X640Y35054I301J264D01*
G03X-1202Y35009I-940J746D01*
G02X-1190Y34496I-301J-264D01*
G03Y33004I940J-746D01*
G02X-1202Y32491I-313J-249D01*
G03X-1238Y30951I902J-791D01*
G02X-1248Y30689I-156J-125D01*
G03X-484Y28513I948J-889D01*
G01X-418Y28503D01*
X311Y27774D01*
X435D01*
G02X718Y27091I0J-400D01*
G01X-1473Y24900D01*
X-3362D01*
G37*
G36*
G01X-1741Y45900D02*
G03X-1896Y46094I-1009J-650D01*
G02Y46656I284J281D01*
G03X-2961Y48682I-854J844D01*
G01X-3063Y48663D01*
X-9817Y55417D01*
G02X-9534Y56100I283J283D01*
G01X-3688D01*
G03X-3447Y55903I938J900D01*
G02X-3434Y55236I-215J-338D01*
G03X-3603Y53406I684J-986D01*
G02Y52844I-284J-281D01*
G03X-1896I853J-844D01*
G02Y53406I284J281D01*
G03X-2066Y55236I-854J844D01*
G02X-2053Y55903I228J329D01*
G03X-2021Y55923I-697J1098D01*
G02X-1411Y55694I224J-331D01*
G03X669Y56771I1161J306D01*
G02Y57029I153J129D01*
G03Y58571I-919J771D01*
G02Y58829I153J129D01*
G03X632Y60414I-919J771D01*
G02Y60686I147J136D01*
G03X-1188Y62249I-882J814D01*
G02X-1812I-312J250D01*
G03Y60751I-938J-749D01*
G02X-1188I312J-250D01*
G03X-1132Y60686I938J749D01*
G02Y60414I-147J-136D01*
G03X-1169Y58829I882J-814D01*
G02Y58571I-153J-129D01*
G03X-1371Y58228I919J-771D01*
G02X-1981Y58049I-374J143D01*
G03X-3688Y57900I-769J-1049D01*
G01X-12300D01*
X-12700Y58300D01*
X-16000D01*
X-18100Y60400D01*
X-21800D01*
X-22800Y61400D01*
Y65300D01*
X-21800Y66300D01*
X-6700D01*
X-2500Y70500D01*
Y74900D01*
X-1300Y76100D01*
X7000D01*
X20000Y89100D01*
X24800D01*
X26200Y87700D01*
Y70200D01*
X25700Y69700D01*
X22780D01*
X20000Y66920D01*
Y59895D01*
G03Y58105I800J-895D01*
G01Y55940D01*
G03Y53860I600J-1039D01*
G01Y48600D01*
X17300Y45900D01*
X12895D01*
G03X11250Y46037I-895J-800D01*
G02X11000I-125J156D01*
G03X9500I-750J-937D01*
G02X9250I-125J156D01*
G03X7605Y45900I-750J-937D01*
G01X-1741D01*
G37*
G36*
G01X22860Y1500D02*
Y1787D01*
X22924Y1847D01*
G03X15712Y5323I-2924J3153D01*
G02X15030Y5070I-399J30D01*
G01X11164Y8936D01*
G02X11385Y9614I283J283D01*
G03X10429Y11719I-185J1186D01*
G02X10171I-129J153D01*
G03X8583Y11679I-771J-919D01*
G02X8318Y11672I-136J146D01*
G03X6613Y11500I-768J-922D01*
G01X912D01*
G02X622Y12175I0J400D01*
G03X687Y13750I-872J825D01*
G02Y14250I312J250D01*
G03Y15750I-937J750D01*
G02Y16250I312J250D01*
G03Y17750I-937J750D01*
G02Y18250I312J250D01*
G03X-1011Y19928I-937J750D01*
G02X-1547Y19955I-253J310D01*
G01X-2208Y20617D01*
G02X-2061Y21276I283J283D01*
G03X-1562Y21600I-439J1224D01*
G01X527D01*
X5027Y17100D01*
X14062D01*
G03Y18900I938J900D01*
G01X5773D01*
X1273Y23400D01*
X539D01*
G02X256Y24083I0J400D01*
G01X5873Y29700D01*
X13673D01*
X14571Y30598D01*
X14649Y30601D01*
G03X15521Y32818I-49J1299D01*
G02X15805Y33500I283J282D01*
G01X17838D01*
X19886Y31452D01*
X20150D01*
Y30744D01*
X20143Y30718D01*
G03Y30082I1157J-318D01*
G01X20150Y30056D01*
Y28444D01*
X20143Y28418D01*
G03Y27782I1157J-318D01*
G01X20150Y27756D01*
Y21231D01*
X20136Y21195D01*
G03Y20305I1114J-445D01*
G01X20150Y20269D01*
Y19231D01*
X20136Y19195D01*
G03Y18305I1114J-445D01*
G01X20150Y18269D01*
Y17231D01*
X20136Y17195D01*
G03Y16305I1114J-445D01*
G01X20150Y16269D01*
Y15311D01*
X22511Y12950D01*
X57467D01*
G03X58933I733J950D01*
G01X61389D01*
X68650Y20211D01*
Y26770D01*
X69316D01*
X71486Y24600D01*
X75386D01*
X80022Y19964D01*
X79978Y19844D01*
G03X80216Y18550I1222J-444D01*
G02X80227Y18302I-151J-131D01*
G03X80318Y16786I973J-702D01*
G02Y16514I-147J-136D01*
G03X82082I882J-814D01*
G02Y16786I147J136D01*
G03X82173Y18302I-882J814D01*
G02X82184Y18550I162J117D01*
G03X82240Y20180I-984J850D01*
G01X82200Y20233D01*
Y20614D01*
X76214Y26600D01*
X72314D01*
X70144Y28770D01*
X68650D01*
Y33736D01*
X68664Y33750D01*
X73414D01*
X74664Y35000D01*
X74903D01*
G02X75302Y34575I0J-400D01*
G03X75563Y33750I1198J-75D01*
G02Y33250I-312J-250D01*
G03Y31750I937J-750D01*
G02Y31250I-312J-250D01*
G03Y29750I937J-750D01*
G02Y29250I-312J-250D01*
G03X77437I937J-750D01*
G02Y29750I312J250D01*
G03Y31250I-937J750D01*
G02Y31750I312J250D01*
G03Y33250I-937J750D01*
G02Y33750I312J250D01*
G03X77698Y34575I-937J750D01*
G02X78097Y35000I399J25D01*
G01X83036D01*
X84653Y33382D01*
X84663Y33316D01*
G03X85041Y32570I1287J184D01*
G02X85051Y32295I-140J-143D01*
G03X85013Y30750I899J-795D01*
G02Y30250I-312J-250D01*
G03X86137Y28314I937J-750D01*
G02X86600Y27919I62J-395D01*
G01Y24331D01*
G02X86137Y23936I-400J0D01*
G03X85013Y22000I-187J-1185D01*
G02Y21500I-312J-250D01*
G03Y20000I937J-750D01*
G02Y19500I-312J-250D01*
G03X85850Y17554I937J-750D01*
G02X86100Y16872I-33J-399D01*
G01X85529Y16302D01*
X85451Y16299D01*
G03X86799Y14951I49J-1299D01*
G01X86802Y15029D01*
X86892Y15119D01*
G02X87575Y14836I283J-283D01*
G01Y13017D01*
X90008Y10583D01*
G02X89726Y9900I-283J-283D01*
G01X83627D01*
X82627Y8900D01*
X82440D01*
X82392Y8929D01*
G03X77560Y8900I-2392J-3929D01*
G01X42440D01*
G03X37560I-2440J-3900D01*
G01X30900D01*
X30380Y8380D01*
X30288Y8388D01*
G03X26612Y4712I-288J-3388D01*
G01X26620Y4620D01*
X23500Y1500D01*
X22860D01*
G37*
G36*
G01X23050Y14250D02*
X21450Y15850D01*
Y24589D01*
X21614Y24619D01*
G03X22195Y26699I-214J1181D01*
G02X22170Y27274I265J300D01*
G03X22135Y28963I-870J826D01*
G02Y29538I278J287D01*
G03X22396Y30889I-835J863D01*
G02X22761Y31452I365J163D01*
G01X27111D01*
G03Y33453I831J1000D01*
G01X22390D01*
G02X22067Y34089I0J400D01*
G03X22008Y35586I-967J711D01*
G02X22032Y36135I302J262D01*
G03X21586Y38136I-832J865D01*
G01X21450Y38183D01*
Y40631D01*
X21557Y40687D01*
G03X21691Y40768I-557J1063D01*
G02X22316Y40506I230J-327D01*
G03X22809Y41682I1184J194D01*
G02X22184Y41944I-230J327D01*
G03X21557Y42813I-1184J-194D01*
G01X21450Y42869D01*
Y54053D01*
G03Y55747I-850J847D01*
G01Y57991D01*
G03Y60009I-650J1009D01*
G01Y65050D01*
X21925Y65525D01*
G02X22606Y65282I283J-283D01*
G03X24104Y66561I1194J119D01*
G02X23904Y67211I101J387D01*
G03X24168Y67726I-904J789D01*
G01X24182Y67782D01*
X24750Y68350D01*
X29338D01*
G02X29729Y67862I0J-400D01*
G03X32071I1171J-262D01*
G02X32462Y68350I390J87D01*
G01X45306D01*
G02X45679Y67807I0J-400D01*
G03X47921I1121J-429D01*
G02X48294Y68350I374J143D01*
G01X50361D01*
G02X50644Y67667I0J-400D01*
G01X50600Y67623D01*
Y62342D01*
G02X50157Y61944I-400J0D01*
G03Y59558I-130J-1193D01*
G02X50600Y59160I43J-398D01*
G01Y58867D01*
X50373D01*
X50346Y58874D01*
G03X50157Y56524I-320J-1157D01*
G02X50600Y56126I43J-398D01*
G01Y56067D01*
G02X50143Y55671I-400J0D01*
G03Y53295I-170J-1188D01*
G02X50600Y52899I57J-396D01*
G01Y52467D01*
X50369D01*
X50339Y52477D01*
G03X50143Y50145I-366J-1143D01*
G02X50600Y49750I57J-396D01*
G01Y46873D01*
X50058Y46331D01*
X49976Y46330D01*
G03X51284Y44941I11J-1300D01*
G01X51289Y45016D01*
X51807Y45534D01*
X52021Y45320D01*
X52004Y45219D01*
G03X52897Y46188I1184J-195D01*
G02X52400Y46576I-97J388D01*
G01Y46617D01*
G02X52881Y47008I400J0D01*
G03Y49360I242J1176D01*
G02X52400Y49751I-80J392D01*
G01Y52916D01*
G02X52881Y53308I400J0D01*
G03Y55659I242J1176D01*
G02X52400Y56050I-80J392D01*
G01Y59253D01*
G02X52902Y59640I400J0D01*
G03Y61961I306J1160D01*
G02X52400Y62347I-102J387D01*
G01Y66877D01*
X53873Y68350D01*
X64750D01*
X67350Y65750D01*
Y40844D01*
X67343Y40818D01*
G03Y40182I1157J-318D01*
G01X67350Y40156D01*
Y35264D01*
X66042Y33957D01*
X65975Y33948D01*
G03X66760Y31515I166J-1290D01*
G02X67350Y31163I190J-352D01*
G01Y28770D01*
X58324D01*
X57627Y29467D01*
X57617Y29533D01*
G03X56146Y28062I-1287J-184D01*
G01X56212Y28053D01*
X56352Y27914D01*
G02X56135Y27236I-283J-283D01*
G03X57509Y26290I198J-1184D01*
G02X57901Y26770I392J79D01*
G01X60954D01*
G02X61352Y26332I0J-400D01*
G03X63742I1195J-115D01*
G02X64140Y26770I398J38D01*
G01X67350D01*
Y26137D01*
G02X66856Y25749I-400J0D01*
G03Y23415I-282J-1167D01*
G02X67350Y23026I94J-389D01*
G01Y21088D01*
G02X66900Y20691I-400J0D01*
G03X65602Y19151I-150J-1191D01*
G01X65636Y19036D01*
X60850Y14250D01*
X59356D01*
X59304Y14371D01*
G03X59037Y14761I-1104J-471D01*
G02X59022Y15032I139J143D01*
G03X58947Y16650I-922J768D01*
G03X59019Y18271I-847J850D01*
G02Y18529I153J129D01*
G03X57181I-919J771D01*
G02Y18271I-153J-129D01*
G03X57253Y16650I919J-771D01*
G03X57263Y14939I847J-850D01*
G02X57278Y14668I-139J-143D01*
G03X57096Y14371I922J-768D01*
G01X57044Y14250D01*
X23050D01*
G37*
G36*
G01X29001Y110501D02*
X29119Y110462D01*
G03X30638Y111981I381J1138D01*
G01X30599Y112099D01*
X31300Y112800D01*
X34900D01*
G02X35300Y112400I0J-400D01*
G03X37700I1200J0D01*
G02X38100Y112800I400J0D01*
G01X42400D01*
X43100Y112100D01*
Y109900D01*
X40400Y107200D01*
X37600D01*
X34400Y104000D01*
Y96800D01*
X32900Y95300D01*
X29600D01*
X28400Y96500D01*
Y99018D01*
X28414Y99054D01*
G03Y99946I-1114J446D01*
G01X28400Y99982D01*
Y103280D01*
G03Y103320I-1200J20D01*
G01Y107080D01*
G03Y107120I-1200J20D01*
G01Y109900D01*
X29001Y110501D01*
G37*
G36*
G01X48900Y111100D02*
Y93673D01*
X48252Y93025D01*
X39002D01*
X38083Y92106D01*
G02X37400Y92389I-283J283D01*
G01Y104127D01*
X38273Y105000D01*
X40773D01*
X45519Y109746D01*
G02X46160Y109640I283J-283D01*
G03X48261Y110796I1077J530D01*
G02X48432Y111100I171J104D01*
G01X48900D01*
G37*
G36*
G01X86600Y35182D02*
G02X86141Y34786I-400J0D01*
G03X86134Y34787I-185J-1287D01*
G01X86068Y34797D01*
X83864Y37000D01*
X73836D01*
X72586Y35750D01*
X68650D01*
Y58083D01*
X68896D01*
X68937Y58064D01*
G03X68972Y58047I561J1173D01*
G01X69006Y58032D01*
X72638Y54400D01*
X78112D01*
G02X78509Y53950I0J-400D01*
G03X78740Y53080I1191J-150D01*
G02X78726Y52822I-160J-120D01*
G03X80350Y51063I874J-822D01*
G02X80850I250J-312D01*
G03X82560Y52720I750J937D01*
G02X82574Y52978I160J120D01*
G03X82728Y53181I-874J822D01*
G01X82787Y53278D01*
X83100D01*
Y52927D01*
X86600Y49427D01*
Y35182D01*
G37*
G36*
G01X72200Y65300D02*
X69000Y68500D01*
Y75425D01*
G03Y77375I-700J975D01*
G01Y78227D01*
X69150Y78377D01*
Y86123D01*
X69000Y86273D01*
Y86878D01*
X69313D01*
X69371Y86782D01*
G03X69650Y88337I1029J618D01*
G02X69000Y88649I-250J312D01*
G01Y90477D01*
X69084Y90561D01*
G02X69625Y90584I283J-283D01*
G03X69950Y92613I775J917D01*
G02X69400Y92984I-150J371D01*
G01Y93873D01*
X69000Y94273D01*
Y96100D01*
X69700Y96800D01*
X69750D01*
G03X70717Y96787I501J1200D01*
G01X70752Y96800D01*
X71600D01*
X74248Y99448D01*
X74354Y99425D01*
G03X75775Y100846I247J1175D01*
G01X75752Y100952D01*
X77800Y103000D01*
X90100D01*
X91600Y101500D01*
Y82400D01*
X88329Y79129D01*
G02X87660Y79309I-283J283D01*
G03X86191Y77840I-1160J-309D01*
G02X86371Y77171I-103J-387D01*
G01X82700Y73500D01*
Y67500D01*
X80500Y65300D01*
X72200D01*
G37*
G36*
G01X75692Y102730D02*
X74755Y101794D01*
X74666Y101798D01*
G03X73402Y100534I-66J-1198D01*
G01X73407Y100445D01*
X73333Y100372D01*
G02X72650Y100655I-283J283D01*
G01Y101373D01*
X71650Y102373D01*
Y113577D01*
X91017Y132944D01*
G02X91700Y132661I283J-283D01*
G01Y104205D01*
G02X91017Y103922I-400J0D01*
G01X90639Y104300D01*
X89600D01*
Y104500D01*
G03X87200I-1200J0D01*
G01Y104300D01*
X79700D01*
Y104500D01*
G03X77562Y105249I-1200J0D01*
G02X76938I-313J250D01*
G03X75556Y103385I-938J-749D01*
G02X75692Y102730I-148J-372D01*
G37*
G36*
G01X92268Y12425D02*
X90475Y14218D01*
Y49482D01*
X92125Y51132D01*
Y69432D01*
X96875Y74182D01*
Y101382D01*
X98426Y102932D01*
G02X99119Y103185I400J-19D01*
G03X101113Y104450I881J815D01*
G02X101484Y105000I371J150D01*
G01X104261D01*
G02X104621Y104425I0J-400D01*
G03X105982Y102734I1079J-525D01*
G01X106091Y102760D01*
X106312Y102539D01*
X106200Y102427D01*
Y100897D01*
G02X105775Y100498I-400J0D01*
G03X104545Y98973I-75J-1198D01*
G02X104245Y98473I-385J-109D01*
G03X105655Y97627I255J-1173D01*
G02X105955Y98127I385J109D01*
G03X105957Y98128I-269J1170D01*
G01X105979Y98132D01*
X106200D01*
Y95092D01*
G03X106317Y94809I400J0D01*
G02Y94243I-283J-283D01*
G01X105762Y93688D01*
Y71594D01*
G02X105397Y71196I-400J0D01*
G03X106546Y69411I103J-1196D01*
G02X107177Y69497I348J-196D01*
G01X107812Y68862D01*
Y64704D01*
X108149Y64367D01*
G02X108087Y63751I-283J-283D01*
G03X107555Y62636I663J-1001D01*
G02X107180Y62198I-398J-38D01*
G03Y59802I70J-1198D01*
G02X107555Y59364I-23J-399D01*
G03Y59136I1195J-114D01*
G02X107180Y58698I-398J-38D01*
G03Y56302I70J-1198D01*
G02X107555Y55864I-23J-399D01*
G03Y55636I1195J-114D01*
G02X107180Y55198I-398J-38D01*
G03Y52802I70J-1198D01*
G02X107555Y52364I-23J-399D01*
G03Y52136I1195J-114D01*
G02X107180Y51698I-398J-38D01*
G03Y49302I70J-1198D01*
G02X107555Y48864I-23J-399D01*
G03Y48636I1195J-114D01*
G02X107180Y48198I-398J-38D01*
G03Y45802I70J-1198D01*
G02X107555Y45364I-23J-399D01*
G03Y45136I1195J-114D01*
G02X107180Y44698I-398J-38D01*
G03X106396Y42656I70J-1198D01*
G02Y42094I-284J-281D01*
G03X108104I853J-844D01*
G02Y42656I284J281D01*
G03X108445Y43614I-854J844D01*
G02X108820Y44052I398J38D01*
G03X108984Y44073I-70J1198D01*
G02X109462Y43681I78J-392D01*
G01Y36319D01*
G02X108984Y35927I-400J0D01*
G03X108820Y35948I-235J-1177D01*
G02X108445Y36386I23J399D01*
G03X107180Y35302I-1195J114D01*
G02X107555Y34864I-23J-399D01*
G03Y34636I1195J-114D01*
G02X107180Y34198I-398J-38D01*
G03Y31802I70J-1198D01*
G02X107555Y31364I-23J-399D01*
G03Y31136I1195J-114D01*
G02X107180Y30698I-398J-38D01*
G03X108445Y29614I70J-1198D01*
G02X108820Y30052I398J38D01*
G03X109722Y30546I-70J1198D01*
G02X110329Y30595I324J-234D01*
G01X113462Y27462D01*
X140352D01*
X144051Y31162D01*
X144052D01*
X144774Y31885D01*
X144848Y31890D01*
G03X144994Y31909I-98J1297D01*
G01X145012Y31913D01*
X145231D01*
Y26692D01*
G02X144762Y26298I-400J0D01*
G03X144963Y23988I-208J-1182D01*
G01X144996Y24000D01*
X145231D01*
Y23637D01*
X146280Y22588D01*
X146568D01*
Y22357D01*
X146559Y22328D01*
G03X148892Y22132I1144J-362D01*
G02X149288Y22588I396J56D01*
G01X149718D01*
Y22357D01*
X149708Y22328D01*
G03X152041Y22132I1144J-362D01*
G02X152438Y22588I396J56D01*
G01X155567D01*
G02X155963Y22132I0J-400D01*
G03X158296Y22328I1189J-166D01*
G01X158287Y22357D01*
Y22588D01*
X158557D01*
X159638Y23668D01*
Y23995D01*
X159872D01*
X159904Y23983D01*
G03X160834Y24040I398J1132D01*
G01X160963Y24104D01*
X162439Y22627D01*
X162376Y22499D01*
G03X164640Y22132I1076J-533D01*
G02X165036Y22588I396J56D01*
G01X165466D01*
Y22357D01*
X165456Y22328D01*
G03X167789Y22132I1144J-362D01*
G02X168186Y22588I396J56D01*
G01X171315D01*
G02X171711Y22132I0J-400D01*
G03X172501Y20834I1189J-166D01*
G02X172651Y20174I-133J-377D01*
G01X172127Y19650D01*
X144123D01*
X142623Y21150D01*
X139800D01*
G02X139413Y21654I0J400D01*
G03X137095I-1159J312D01*
G02X136709Y21150I-386J-104D01*
G01X133500D01*
G02X133114Y21654I0J400D01*
G03X130796I-1159J312D01*
G02X130410Y21150I-386J-104D01*
G01X127201D01*
G02X126815Y21654I0J400D01*
G03X124497I-1159J312D01*
G02X124111Y21150I-386J-104D01*
G01X117127D01*
X111377Y15400D01*
X109588D01*
G02X109191Y15850I0J400D01*
G03X109194Y16122I-1191J150D01*
G02X109515Y16301I199J20D01*
G03X109060Y17405I735J949D01*
G02X108497Y17092I-397J52D01*
G03X106850Y15657I-497J-1092D01*
G01X106858Y15629D01*
Y15400D01*
X106373D01*
X104900Y16873D01*
Y47773D01*
X103700Y48973D01*
Y71473D01*
X102200Y72973D01*
Y76562D01*
G03X100400I-900J938D01*
G01Y72227D01*
X101900Y70727D01*
Y48227D01*
X103100Y47027D01*
Y16127D01*
X105627Y13600D01*
X112123D01*
X117873Y19350D01*
X139809D01*
G02X140208Y18916I0J-400D01*
G03X142402Y18149I1196J-100D01*
G02X143017Y18210I333J-222D01*
G01X143377Y17850D01*
X172873D01*
X180165Y25142D01*
G02X180836Y24957I283J-283D01*
G03X182293Y26414I1164J293D01*
G02X182108Y27085I98J388D01*
G01X183873Y28850D01*
X184544D01*
G02X184883Y28237I0J-400D01*
G03X186917I1017J-637D01*
G02X187256Y28850I339J212D01*
G01X188444D01*
G02X188783Y28237I0J-400D01*
G03X190817I1017J-637D01*
G02X191156Y28850I339J212D01*
G01X192344D01*
G02X192683Y28237I0J-400D01*
G03X194717I1017J-637D01*
G02X195056Y28850I339J212D01*
G01X196344D01*
G02X196683Y28237I0J-400D01*
G03X198717I1017J-637D01*
G02X199056Y28850I339J212D01*
G01X199623D01*
X203807Y33034D01*
G02X204421Y32974I283J-283D01*
G03X206627Y34349I1079J726D01*
G01X206600Y34395D01*
Y34575D01*
G02X207118Y34957I400J0D01*
G03X208795Y36320I382J1243D01*
G01X208786Y36413D01*
X209717Y37344D01*
G02X210400Y37061I283J-283D01*
G01Y36038D01*
G03X210009Y35253I900J-938D01*
G02X209609Y34900I-397J47D01*
G03X210780Y33478I-9J-1200D01*
G02X211203Y33804I393J-74D01*
G03X212000Y34005I97J1297D01*
G01X212136Y34091D01*
X212712Y33515D01*
X212723Y33455D01*
G03X215134Y33065I1277J245D01*
G02X215662Y33227I349J-195D01*
G03X215882Y33143I538J1073D01*
G02X215904Y32764I-53J-193D01*
G03X216931Y30600I446J-1114D01*
G02X217525Y30250I194J-350D01*
G01Y27418D01*
X213172Y23065D01*
G02X212567Y23111I-283J283D01*
G03X210889Y21433I-967J-711D01*
G02X210935Y20828I-237J-322D01*
G01X202532Y12425D01*
X92268D01*
G37*
G36*
G01X87732Y50841D02*
X84900Y53673D01*
Y54016D01*
G02X85450Y54387I400J0D01*
G03Y56613I450J1113D01*
G02X84900Y56984I-150J371D01*
G01Y57916D01*
G02X85450Y58287I400J0D01*
G03Y60513I450J1113D01*
G02X84900Y60884I-150J371D01*
G01Y62061D01*
G02X85475Y62421I400J0D01*
G03Y64579I525J1079D01*
G02X84900Y64939I-175J360D01*
G01Y72127D01*
X93500Y80727D01*
Y132727D01*
X98373Y137600D01*
X103873D01*
X110900Y144627D01*
Y146284D01*
G02X111579Y146572I400J0D01*
G03X112435Y146205I906J933D01*
G01X112514Y146202D01*
X115616Y143100D01*
X127810D01*
X128919Y141990D01*
X131638D01*
X132648Y140980D01*
G02X132451Y140307I-283J-283D01*
G03X133908Y139223I260J-1172D01*
G01X133901Y139314D01*
X134107Y139521D01*
X134560Y139068D01*
X134568Y138998D01*
G03X135723Y137842I1293J138D01*
G01X135794Y137835D01*
X136207Y137421D01*
X136001Y137215D01*
X135909Y137222D01*
G03X136993Y135765I-88J-1197D01*
G02X137666Y135961I391J-87D01*
G01X137783Y135845D01*
X137795Y135786D01*
G03X138732Y134849I1176J239D01*
G01X138791Y134837D01*
X139395Y134233D01*
G02X139112Y133550I-283J-283D01*
G01X136814D01*
G03X134829I-992J-675D01*
G01X133664D01*
G03X131679I-992J-675D01*
G01X130633D01*
G03X128411I-1111J-675D01*
G01X127484D01*
G03X125261I-1111J-675D01*
G01X124958D01*
X123183Y135325D01*
X117076D01*
G02X116682Y135794I0J400D01*
G03X114318I-1182J206D01*
G02X113924Y135325I-394J-69D01*
G01X101232D01*
X95525Y129618D01*
Y104133D01*
X93975Y102583D01*
Y75383D01*
X89225Y70633D01*
Y52333D01*
X87732Y50841D01*
G37*
G36*
G01X100500Y106300D02*
X99300Y107500D01*
Y126500D01*
X102197Y129397D01*
X102273Y129402D01*
G03X103398Y130527I-73J1198D01*
G01X103403Y130603D01*
X105050Y132250D01*
X122157D01*
X124032Y130375D01*
X124804D01*
G02X125199Y129913I0J-400D01*
G03X127570I1186J-187D01*
G02X127965Y130375I395J62D01*
G01X128396D01*
Y130142D01*
X128385Y130111D01*
G03X129378Y130917I1137J-385D01*
G01X129281Y130905D01*
X129071Y131116D01*
X129528Y131573D01*
X129604Y131578D01*
G03X130662Y132250I-81J1298D01*
G01X131647D01*
G03X133696I1025J625D01*
G01X134797D01*
G03X136846I1024J625D01*
G01X137946D01*
G03X139995I1025J625D01*
G01X141096D01*
G03X143145I1025J625D01*
G01X144246D01*
G03X145915Y131863I1025J625D01*
G01X146051Y131949D01*
X146750Y131250D01*
Y125750D01*
X145713Y124713D01*
X145611Y124732D01*
G03X144425Y124250I-211J-1182D01*
G01X143013D01*
G03X141250I-881J-815D01*
G01X136695D01*
G03X134987I-854J-843D01*
G01X128520D01*
X128471Y124379D01*
G03X126152Y124023I-1121J-429D01*
G01X126147Y123947D01*
X123800Y121600D01*
X113936D01*
X113836Y121500D01*
X113200D01*
X112531Y120831D01*
G02X111961Y120836I-283J283D01*
G03X110264Y119139I-861J-836D01*
G02X110269Y118569I-279J-287D01*
G01X108000Y116300D01*
Y115664D01*
X107750Y115414D01*
Y115190D01*
X107538D01*
X107526Y115192D01*
G03X107358Y112800I-144J-1192D01*
G02X107750Y112400I-8J-400D01*
G01Y112192D01*
X107539D01*
X107528Y112193D01*
G03X107362Y109800I-128J-1193D01*
G02X107750Y109401I-13J-400D01*
G01Y108350D01*
X105700Y106300D01*
X100500D01*
G37*
G36*
G01X146329Y122790D02*
X149360D01*
X151561Y120589D01*
Y118356D01*
X151394Y118329D01*
G03X150545Y116552I195J-1184D01*
G01X150620Y116420D01*
X149110Y114909D01*
X148983Y114967D01*
G03X147393Y113377I-499J-1092D01*
G01X147450Y113250D01*
X147100Y112900D01*
Y111230D01*
X146140Y110270D01*
X143666D01*
G02X143270Y110723I0J400D01*
G03X140890I-1190J157D01*
G02X140494Y110270I-397J-52D01*
G01X140140D01*
Y110497D01*
X140147Y110524D01*
G03X137798Y110714I-1156J322D01*
G02X137400Y110270I-398J-44D01*
G01X136990D01*
Y110497D01*
X136997Y110524D01*
G03X134648Y110714I-1156J322D01*
G02X134250Y110270I-398J-44D01*
G01X133840D01*
Y110497D01*
X133848Y110524D01*
G03X131498Y110714I-1156J322D01*
G02X131101Y110270I-398J-44D01*
G01X130691D01*
Y110497D01*
X130698Y110524D01*
G03X128349Y110714I-1156J322D01*
G02X127951Y110270I-398J-44D01*
G01X127541D01*
Y110497D01*
X127548Y110524D01*
G03X125199Y110714I-1156J322D01*
G02X124802Y110270I-398J-44D01*
G01X124561D01*
Y110494D01*
X124566Y110517D01*
G03X122204Y110703I-1166J283D01*
G02X121805Y110270I-399J-32D01*
G01X121462D01*
Y110494D01*
X121468Y110517D01*
G03X119182Y110366I-1166J283D01*
G01X119229Y110245D01*
X118002Y109018D01*
Y106702D01*
X114300Y103000D01*
X110000D01*
X108750Y104250D01*
Y105253D01*
G03Y106947I-850J847D01*
G01Y115000D01*
X114350Y120600D01*
X114503D01*
G02X114902Y120175I0J-400D01*
G03X117298I1198J-75D01*
G02X117697Y120600I399J25D01*
G01X124601D01*
G02X125000Y120213I0J-400D01*
G03X126757Y121313I1200J38D01*
G02X126660Y121950I186J354D01*
G01X127463Y122753D01*
X127528Y122763D01*
G03X127636Y122784I-178J1187D01*
G01X127660Y122790D01*
X134811D01*
G03X136871I1030J616D01*
G01X141120D01*
G03X143144I1012J645D01*
G01X144471D01*
G03X146329I929J760D01*
G37*
G36*
G01X117827Y173600D02*
X113227D01*
X111529Y171902D01*
X111451Y171899D01*
G03X110270Y170180I49J-1299D01*
G02X109891Y169650I-379J-129D01*
G01X105109D01*
G02X104730Y170180I0J400D01*
G03X104799Y170551I-1230J421D01*
G01X104802Y170629D01*
X104900Y170727D01*
Y175162D01*
G02X105350Y175559I400J0D01*
G03X106579Y177275I150J1191D01*
G02X106939Y177850I360J175D01*
G01X110061D01*
G02X110421Y177275I0J-400D01*
G03X112344Y175896I1079J-525D01*
G02X112906I281J-284D01*
G03X114829Y177275I844J854D01*
G02X115189Y177850I360J175D01*
G01X178377D01*
X180600Y175627D01*
Y172377D01*
X183600Y169377D01*
Y165966D01*
G02X183167Y165567I-400J0D01*
G03X182867Y165555I-99J-1196D01*
G02X182400Y165949I-67J394D01*
G01Y168873D01*
X178400Y172873D01*
Y175873D01*
X176873Y177400D01*
X121627D01*
X117827Y173600D01*
G37*
G36*
G01X119239Y171500D02*
G02X118956Y172183I0J400D01*
G01X122373Y175600D01*
X122720D01*
Y175316D01*
X122660Y175257D01*
G03X124540Y175000I840J-857D01*
G02X124886Y175600I346J200D01*
G01X134114D01*
G02X134460Y175000I0J-400D01*
G03X134563Y173650I1040J-600D01*
G02X134251Y173000I-312J-250D01*
G01X125127D01*
X123627Y171500D01*
X119239D01*
G37*
G36*
G01X145894Y33805D02*
G03X143454Y33284I-1144J-618D01*
G01X143448Y33211D01*
X143275Y33037D01*
X143274D01*
X142029Y31792D01*
G02X141688Y31933I-141J141D01*
G01Y32221D01*
X141744Y32279D01*
G03X139812Y32357I-931J908D01*
G01Y31388D01*
X139112Y30688D01*
X136688D01*
Y31686D01*
G02X136886Y31886I200J0D01*
G03X137814Y34087I-10J1300D01*
G01Y34662D01*
G02X138368Y35031I400J0D01*
G03X139447Y37168I461J1108D01*
G02X139351Y37774I206J343D01*
G01Y37895D01*
G02X140017Y38194I400J0D01*
G03X140845Y40292I797J898D01*
G01X140766Y40294D01*
X140568Y40492D01*
X140888Y40812D01*
X143138D01*
X143913Y41587D01*
G03X144188Y42250I-663J663D01*
G01Y43388D01*
X143413Y44163D01*
G03X143352Y44219I-663J-663D01*
G01X143346Y44224D01*
X143198Y44372D01*
X143913Y45087D01*
G03X144188Y45750I-663J663D01*
G01Y45973D01*
X144400D01*
X144411Y45971D01*
G03X144762Y45981I142J1192D01*
G02X145231Y45587I69J-394D01*
G01Y40690D01*
G02X144811Y40291I-400J0D01*
G03X145754Y38434I-61J-1199D01*
G02X146371Y38497I334J-219D01*
G01X146731Y38137D01*
Y37727D01*
G02X146281Y37330I-400J0D01*
G03Y34949I-152J-1190D01*
G02X146731Y34552I51J-397D01*
G01Y33914D01*
X146529Y33712D01*
G02X145894Y33805I-283J283D01*
G37*
G36*
G01X138510Y94170D02*
X137900Y94780D01*
Y96618D01*
X138335Y97052D01*
Y98810D01*
X140130D01*
X140323Y99003D01*
X140388D01*
X141671Y100285D01*
X141786Y100250D01*
G03X142337Y102580I354J1147D01*
G01X142170Y102608D01*
Y103334D01*
X142337Y103362D01*
G03Y105730I-197J1184D01*
G01X142170Y105758D01*
Y106455D01*
X142341Y106480D01*
G03X143362Y107788I-173J1188D01*
G01X143353Y107883D01*
X143750Y108280D01*
X144082D01*
Y108045D01*
X144071Y108012D01*
G03X146329I1129J-406D01*
G01X146318Y108045D01*
Y108280D01*
X146570D01*
X148009Y109719D01*
X148121Y109688D01*
G03X148898Y111955I318J1157D01*
G02X148767Y112607I153J370D01*
G01X148915Y112755D01*
X148951Y112770D01*
G03X149590Y113409I-467J1106D01*
G01X149605Y113445D01*
X153090Y116930D01*
X153549D01*
X153592Y116789D01*
G03X155733Y116473I1146J355D01*
G02X156348Y116532I332J-224D01*
G01X156750Y116130D01*
Y114376D01*
X156741Y114348D01*
G03Y113642I1147J-353D01*
G01X156750Y113614D01*
Y111227D01*
X156741Y111198D01*
G03Y110493I1147J-353D01*
G01X156750Y110464D01*
Y108077D01*
X156741Y108048D01*
G03Y107343I1147J-353D01*
G01X156750Y107314D01*
Y104928D01*
X156741Y104899D01*
G03Y104194I1147J-353D01*
G01X156750Y104165D01*
Y101778D01*
X156741Y101749D01*
G03Y101044I1147J-353D01*
G01X156750Y101015D01*
Y100345D01*
X156870D01*
Y98280D01*
X156620Y98030D01*
G02X155938Y98296I-283J283D01*
G03X155178Y97130I-1199J-49D01*
G01X155300Y97178D01*
X155534Y96944D01*
X155190Y96600D01*
X145020D01*
X142590Y94170D01*
X138510D01*
G37*
G36*
G01X188164Y101789D02*
G02X187503Y101635I-378J130D01*
G01X187373Y101766D01*
X187357Y101803D01*
G03X185441Y102236I-1110J-456D01*
G01X184061D01*
G03X182051Y101748I-861J-836D01*
G01X182008Y101606D01*
X174774D01*
X174732Y101750D01*
G03X172437Y101784I-1153J-334D01*
G01X172392Y101645D01*
X168468D01*
X168423Y101784D01*
G03X166138I-1143J-368D01*
G01X166093Y101645D01*
X162221D01*
X162175Y101781D01*
G03X159901I-1137J-384D01*
G01X159855Y101645D01*
X159071D01*
X159025Y101781D01*
G03X158198Y102556I-1137J-384D01*
G01X158050Y102596D01*
Y103347D01*
X158198Y103387D01*
G03Y105706I-310J1159D01*
G01X158050Y105745D01*
Y106497D01*
X158198Y106536D01*
G03Y108855I-310J1159D01*
G01X158050Y108895D01*
Y109646D01*
X158198Y109686D01*
G03Y112005I-310J1159D01*
G01X158050Y112044D01*
Y112796D01*
X158198Y112836D01*
G03Y115154I-310J1159D01*
G01X158050Y115194D01*
Y115945D01*
X158198Y115985D01*
G03X157034Y117988I-310J1159D01*
G02X156751Y117987I-142J141D01*
G01X155599Y119139D01*
G02X155587Y119691I283J283D01*
G03X153891Y121387I-887J809D01*
G02X153339Y121399I-270J295D01*
G01X150198Y124540D01*
Y125333D01*
G02X150816Y125668I400J0D01*
G03Y127677I656J1005D01*
G02X150198Y128012I-219J335D01*
G01Y131552D01*
X149470Y132280D01*
X149524Y132404D01*
G03X147395Y133500I-1104J471D01*
G01X146295D01*
G03X144245I-1025J-625D01*
G01X143145D01*
G03X141659Y133983I-1025J-625D01*
G01X141535Y133932D01*
X140027Y135439D01*
X140079Y135563D01*
G03X138509Y137133I-1108J462D01*
G01X138386Y137081D01*
X138066Y137400D01*
X136990Y138477D01*
X137047Y138602D01*
G03X135910Y140434I-1186J533D01*
G01X135831Y140437D01*
X135700Y140569D01*
Y140573D01*
X131373Y144900D01*
X128591D01*
Y146088D01*
X128675Y146173D01*
X134249D01*
G02X134642Y145698I0J-400D01*
G03X137000I1179J-224D01*
G02X137393Y146173I393J75D01*
G01X139283D01*
X139700Y145756D01*
Y144637D01*
X141212Y143125D01*
X141121Y142989D01*
G03X142601Y141224I999J-665D01*
G01X142726Y141279D01*
X144183Y139822D01*
X145522D01*
X147070Y138274D01*
X147482D01*
G03X149458Y138392I938J900D01*
G02X150061Y138435I320J-241D01*
G01X150222Y138274D01*
X150631D01*
G03X150937Y140310I938J900D01*
G01X150805Y140237D01*
X149411Y141631D01*
X149480Y141762D01*
G03X149430Y142973I-1060J562D01*
G01X149342Y143108D01*
X150714Y144480D01*
X150851Y144390D01*
G03X152867Y145557I719J1084D01*
G01X152861Y145648D01*
X153066Y145853D01*
X153417Y145503D01*
X153420Y145424D01*
G03X154768Y146773I1299J49D01*
G01X154690Y146776D01*
X154340Y147126D01*
X154545Y147332D01*
X154635Y147326D01*
G03X154822Y149919I84J1298D01*
G01X154749Y149925D01*
X154401Y150273D01*
X154603Y150475D01*
X154689Y150473D01*
G03X154768Y153072I30J1300D01*
G01X154690Y153075D01*
X154227Y153538D01*
X154440Y153751D01*
X154540Y153736D01*
G03X154626Y156119I179J1187D01*
G02X154195Y156518I-31J399D01*
G01Y158184D01*
X156659D01*
X156671Y157996D01*
G03X159066I1198J76D01*
G01X159078Y158184D01*
X169260D01*
X169272Y157996D01*
G03X171579Y157615I1198J76D01*
G02X172232Y157745I370J-152D01*
G01X172692Y157285D01*
X174885Y155091D01*
X175327D01*
X175466Y154952D01*
X175469Y154873D01*
G03X176852Y153625I1299J49D01*
G01X176942Y153631D01*
X177148Y153425D01*
X176798Y153075D01*
X176719Y153072D01*
G03X176852Y150475I49J-1299D01*
G01X176942Y150481D01*
X177148Y150276D01*
X176796Y149924D01*
X176718Y149921D01*
G03X175469Y148548I49J-1299D01*
G01X175474Y148458D01*
X175270Y148254D01*
X174920Y148603D01*
X174917Y148681D01*
G03X173578Y147322I-1299J-59D01*
G01X173657Y147320D01*
X174120Y146857D01*
X173907Y146643D01*
X173806Y146659D01*
G03X174762Y145839I-187J-1185D01*
G01X174753Y145869D01*
Y146100D01*
X175184D01*
G02X175580Y145643I0J-400D01*
G03X177957I1188J-170D01*
G02X178353Y146100I396J56D01*
G01X178784D01*
Y145868D01*
X178774Y145839D01*
G03X180956Y146073I1143J-366D01*
G01X180879Y146206D01*
X182333Y147660D01*
X182466Y147583D01*
G03X184073Y149276I601J1039D01*
G01X183985Y149412D01*
X185426Y150853D01*
X185562Y150765D01*
G03X185904Y152931I654J1007D01*
G02X185400Y153317I-104J386D01*
G01Y153376D01*
G02X185904Y153762I400J0D01*
G03Y156080I312J1159D01*
G02X185400Y156466I-104J386D01*
G01Y156527D01*
G02X185904Y156913I400J0D01*
G03Y159231I313J1159D01*
G02X185400Y159617I-104J386D01*
G01Y159677D01*
G02X185904Y160063I400J0D01*
G03Y162380I313J1159D01*
G02X185400Y162767I-104J386D01*
G01Y162826D01*
G02X185904Y163213I400J0D01*
G03X187411Y164243I313J1159D01*
G02X187808Y164600I398J-43D01*
G01X194073D01*
G02X194470Y164243I0J-400D01*
G03X196220Y163308I1193J128D01*
G01X196351Y163376D01*
X197877Y161850D01*
X200627D01*
X201677Y160800D01*
X206500D01*
X207800Y159500D01*
Y157973D01*
X205900Y156073D01*
Y153577D01*
X209100Y150377D01*
Y150163D01*
G02X208591Y149778I-400J0D01*
G03Y147468I-326J-1155D01*
G02X209100Y147083I109J-385D01*
G01Y147014D01*
G02X208591Y146629I-400J0D01*
G03X207807Y144364I-326J-1155D01*
G02X207938Y143711I-152J-370D01*
G01X207700Y143473D01*
Y136300D01*
X206600Y135200D01*
X206573D01*
X206224Y135549D01*
X206260Y135665D01*
G03X203927Y135856I-1145J360D01*
G02X203531Y135400I-396J-56D01*
G01X203100D01*
Y135631D01*
X203109Y135661D01*
G03X200822I-1144J364D01*
G01X200831Y135631D01*
Y135400D01*
X200627D01*
X200427Y135200D01*
X197073D01*
X197070Y135203D01*
G02X196736Y135724I46J397D01*
G03X195374Y137274I-1142J371D01*
G02X194900Y137667I-74J393D01*
G01Y138090D01*
X195143D01*
X195182Y138072D01*
G03X195392Y140337I488J1097D01*
G02X194900Y140726I-92J389D01*
G01Y143100D01*
X196873D01*
X198165Y144392D01*
X198291Y144337D01*
G03X199846Y145978I486J1098D01*
G01X199780Y146108D01*
X201292Y147619D01*
X201422Y147553D01*
G03X201842Y149817I544J1070D01*
G02X201400Y150215I-41J398D01*
G01Y150621D01*
X201627D01*
X201652Y150614D01*
G03X201368Y152814I313J1159D01*
G01X201235Y152738D01*
X199782Y154192D01*
X199858Y154324D01*
G03X198636Y156107I-1042J596D01*
G01X198536Y156092D01*
X198324Y156305D01*
X198786Y156768D01*
X198865Y156770D01*
G03X197516Y158119I-49J1299D01*
G01X197514Y158040D01*
X196400Y156927D01*
Y156572D01*
G02X195925Y156179I-400J0D01*
G03X194538Y154701I-225J-1179D01*
G01X194566Y154590D01*
X194344Y154368D01*
X193819Y154893D01*
X193816Y154972D01*
G03X192467Y153623I-1299J-49D01*
G01X192546Y153620D01*
X193566Y152600D01*
X196127D01*
X196400Y152327D01*
Y150188D01*
G02X195916Y149797I-400J0D01*
G03X194491Y148381I-250J-1174D01*
G02X194099Y147900I-392J-81D01*
G01X194020D01*
G02X193640Y148425I0J400D01*
G03X191360I-1140J375D01*
G02X191030Y147903I-380J-125D01*
G01X190000Y146873D01*
Y146605D01*
X189768D01*
X189738Y146615D01*
G03X189542Y144286I-371J-1141D01*
G02X190000Y143890I58J-396D01*
G01Y143795D01*
G02X189518Y143403I-400J0D01*
G03Y141054I-246J-1175D01*
G02X190000Y140662I82J-391D01*
G01Y140306D01*
X189768D01*
X189738Y140316D01*
G03X189542Y137987I-371J-1141D01*
G02X190000Y137591I58J-396D01*
G01Y137156D01*
X189768D01*
X189738Y137166D01*
G03X189542Y134837I-371J-1141D01*
G02X190000Y134442I58J-396D01*
G01Y134007D01*
X189768D01*
X189738Y134017D01*
G03X188614Y131940I-371J-1141D01*
G02X188646Y131346I-251J-312D01*
G01X187900Y130600D01*
Y123972D01*
X189677Y122195D01*
G02X189377Y121513I-283J-283D01*
G03X190527Y120363I-50J-1199D01*
G02X191209Y120663I400J17D01*
G01X191301Y120571D01*
X191288Y120473D01*
G03X192637Y119124I1190J-159D01*
G01X192735Y119137D01*
X193100Y118772D01*
Y117627D01*
X196350Y114377D01*
Y112432D01*
G02X195869Y112041I-400J0D01*
G03X194570Y110295I-242J-1175D01*
G01X194641Y110164D01*
X193132Y108655D01*
X193004Y108718D01*
G03X192344Y108832I-526J-1079D01*
G02X191900Y109229I-44J398D01*
G01Y109640D01*
X192128D01*
X192154Y109633D01*
G03X191282Y110684I323J1156D01*
G01X191290Y110591D01*
X191082Y110383D01*
X190630Y110836D01*
X190627Y110914D01*
G03X189278Y109566I-1299J-49D01*
G01X189357Y109563D01*
X190100Y108820D01*
Y102949D01*
G02X189600Y102562I-400J0D01*
G03X188164Y101789I-300J-1162D01*
G37*
G36*
G01X187575Y68448D02*
G03X186714Y66343I-75J-1198D01*
G02X186735Y65758I-262J-302D01*
G01X183100Y62123D01*
Y56636D01*
G02X182417Y56354I-400J0D01*
G01X170274Y68496D01*
X170387Y68636D01*
G03X168271Y69182I-934J753D01*
G02X167877Y68713I-394J-69D01*
G01X167571D01*
Y68957D01*
X167590Y68997D01*
G03X165592Y70285I-1090J503D01*
G02X165007Y70264I-303J262D01*
G01X161433Y73838D01*
X157788D01*
X157356Y74270D01*
Y76914D01*
X146232Y88038D01*
X146314Y88173D01*
G03X144805Y89896I-1024J625D01*
G01X144680Y89841D01*
X143183Y91338D01*
X143238Y91463D01*
G03X143021Y92762I-1098J485D01*
G01X144475Y94216D01*
G03X146490Y95099I815J881D01*
G01Y95300D01*
X155729D01*
X158170Y97741D01*
Y100222D01*
X158301Y100270D01*
G03X158426Y100324I-413J1127D01*
G01X158468Y100345D01*
X160458D01*
X160500Y100324D01*
G03X161576I538J1073D01*
G01X161618Y100345D01*
X166738D01*
X166778Y100326D01*
G03X167783I503J1090D01*
G01X167823Y100345D01*
X172811D01*
X172850Y100305D01*
X173124D01*
X173158Y100292D01*
G03X174002I422J1124D01*
G01X174036Y100305D01*
X182792D01*
X183422Y100936D01*
X185113D01*
X185167Y100823D01*
G03X186812Y100288I1080J524D01*
G01X186942Y100357D01*
X188338Y98962D01*
X188268Y98831D01*
G03X189607Y97099I1059J-564D01*
G02X190100Y96710I93J-389D01*
G01Y96677D01*
G02X189623Y96284I-400J0D01*
G03Y93928I-230J-1178D01*
G02X190100Y93536I77J-393D01*
G01Y93524D01*
G02X189607Y93135I-400J0D01*
G03Y90800I-279J-1167D01*
G02X190100Y90411I93J-389D01*
G01Y90372D01*
G02X189625Y89979I-400J0D01*
G03Y87621I-225J-1179D01*
G02X190100Y87228I75J-393D01*
G01Y77773D01*
X188000Y75673D01*
Y68847D01*
G02X187575Y68448I-400J0D01*
G37*
G36*
G01X154195Y159484D02*
Y159948D01*
X150243Y163900D01*
X149205D01*
G02X148921Y164582I0J400D01*
G03X148049Y166799I-921J918D01*
G01X147971Y166802D01*
X147356Y167417D01*
G02X147639Y168100I283J283D01*
G01X148877D01*
X149877Y167100D01*
X162877D01*
X169810Y160167D01*
G02X169527Y159484I-283J-283D01*
G01X154195D01*
G37*
G36*
G01X144437Y173650D02*
G03X144540Y175000I-937J750D01*
G02X144886Y175600I346J200D01*
G01X154114D01*
G02X154460Y175000I0J-400D01*
G03X154563Y173650I1040J-600D01*
G02X154251Y173000I-312J-250D01*
G01X144749D01*
G02X144437Y173650I0J400D01*
G37*
G36*
G01X180600Y162797D02*
G02X180129Y162403I-400J0D01*
G03X179755Y162411I-211J-1182D01*
G02X179300Y162807I-54J396D01*
G01Y165273D01*
X177423Y167150D01*
X173023D01*
X167173Y173000D01*
X164749D01*
G02X164437Y173650I0J400D01*
G03X164540Y175000I-937J750D01*
G02X164886Y175600I346J200D01*
G01X176127D01*
X176600Y175127D01*
Y172127D01*
X180600Y168127D01*
Y162797D01*
G37*
G36*
G01X195965Y30992D02*
X196000Y31027D01*
Y33327D01*
X196282Y33609D01*
X196455Y33436D01*
X196470Y33394D01*
G03X198796Y33894I1129J406D01*
G02X199126Y34320I399J31D01*
G03X197962Y36500I-226J1280D01*
G01X196339D01*
X196284Y36614D01*
G03X195913Y37066I-1084J-514D01*
G02X195863Y37666I238J322D01*
G03X195000Y39700I-863J834D01*
G02X194800Y39900I0J200D01*
G01Y53412D01*
G02X195250Y53809I400J0D01*
G03X196375Y54300I150J1191D01*
G02X197025I325J-233D01*
G03X198844Y54147I975J700D01*
G02X199406I281J-284D01*
G03X201097Y54149I844J854D01*
G02X201684Y54124I282J-284D01*
G03X203573Y54198I916J776D01*
G02X204180Y54247I324J-234D01*
G01X204650Y53777D01*
Y51123D01*
X202700Y49173D01*
Y37106D01*
X202593Y37050D01*
G03X202429Y34853I607J-1150D01*
G02X202475Y34248I-237J-322D01*
G01X198877Y30650D01*
X196106D01*
G02X195965Y30992I0J200D01*
G37*
G36*
G01X189351Y55124D02*
G02X188699Y55252I-283J283D01*
G03X188400Y55688I-1199J-502D01*
G01Y62627D01*
X191000Y65227D01*
Y74227D01*
X193500Y76727D01*
Y92427D01*
X195103Y94030D01*
X195222Y93987D01*
G03X195869Y93941I405J1130D01*
G02X196350Y93550I81J-392D01*
G01Y93535D01*
G02X195869Y93143I-400J0D01*
G03Y90792I-242J-1175D01*
G02X196350Y90400I81J-392D01*
G01Y90385D01*
G02X195869Y89993I-400J0D01*
G03Y87642I-242J-1176D01*
G02X196350Y87250I81J-392D01*
G01Y83123D01*
X196100Y82873D01*
Y74396D01*
X197397Y73099D01*
Y72152D01*
G02X196748Y71839I-400J0D01*
G03Y69961I-748J-939D01*
G02X197397Y69648I249J-313D01*
G01Y68352D01*
G02X196748Y68039I-400J0D01*
G03X195648Y65952I-748J-939D01*
G02X195814Y65287I-117J-382D01*
G01X190100Y59573D01*
Y55873D01*
X189351Y55124D01*
G37*
G36*
G01X196375Y55700D02*
G03X195250Y56191I-975J-700D01*
G02X194800Y56588I-50J397D01*
G01Y57027D01*
X199573Y61800D01*
X203211D01*
G02X203500Y61123I0J-400D01*
G01Y56420D01*
G02X202975Y56040I-400J0D01*
G03X201753Y55751I-375J-1140D01*
G02X201166Y55776I-282J284D01*
G03X199406Y55854I-916J-776D01*
G02X198844I-281J284D01*
G03X198700Y55975I-844J-854D01*
G02Y56625I233J325D01*
G03X197300I-700J975D01*
G02Y55975I-233J-325D01*
G03X197025Y55700I700J-975D01*
G02X196375I-325J233D01*
G37*
G36*
G01X218100Y65162D02*
G03X217286Y62915I-300J-1162D01*
G02X217398Y62271I-171J-361D01*
G01X216500Y61373D01*
Y51073D01*
X213283Y47856D01*
G02X212600Y48139I-283J283D01*
G01Y49273D01*
X209541Y52333D01*
G02X209768Y53012I283J283D01*
G03X210062Y55308I-167J1188D01*
G02X209933Y55960I154J369D01*
G01X210000Y56027D01*
Y62227D01*
X215500Y67727D01*
Y70980D01*
G02X216025Y71360I400J0D01*
G03Y73640I375J1140D01*
G02X215500Y74020I-125J380D01*
G01Y89327D01*
X216900Y90727D01*
Y94903D01*
G02X217325Y95302I400J0D01*
G03X218000Y95460I75J1198D01*
G02X218600Y95114I200J-346D01*
G01Y89949D01*
G02X218100Y89562I-400J0D01*
G03Y87238I-300J-1162D01*
G02X218600Y86851I100J-387D01*
G01Y85886D01*
G02X218000Y85540I-400J0D01*
G03Y83460I-600J-1040D01*
G02X218600Y83114I200J-346D01*
G01Y81886D01*
G02X218000Y81540I-400J0D01*
G03Y79460I-600J-1039D01*
G02X218600Y79114I200J-346D01*
G01Y77886D01*
G02X218000Y77540I-400J0D01*
G03Y75461I-600J-1039D01*
G02X218600Y75114I200J-346D01*
G01Y65549D01*
G02X218100Y65162I-400J0D01*
G37*
G36*
G01X200489Y64800D02*
G02X200206Y65483I0J400D01*
G01X202117Y67394D01*
G02X202800Y67108I283J-283D01*
G03X203288Y68066I1200J-8D01*
G02X202650Y68388I-237J322D01*
G01Y69612D01*
G02X203288Y69934I400J0D01*
G03Y71866I712J966D01*
G02X202650Y72188I-237J322D01*
G01Y73123D01*
X201200Y74573D01*
Y75069D01*
X201447D01*
X201489Y75048D01*
G03X201706Y77280I534J1075D01*
G02X201200Y77666I-106J386D01*
G01Y77802D01*
G02X201682Y78194I400J0D01*
G03Y80544I244J1175D01*
G02X201200Y80936I-81J392D01*
G01Y80952D01*
G02X201682Y81343I400J0D01*
G03Y83694I244J1175D01*
G02X201200Y84085I-81J392D01*
G01Y84101D01*
G02X201682Y84493I400J0D01*
G03Y86843I244J1175D01*
G02X201200Y87235I-81J392D01*
G01Y87251D01*
G02X201682Y87643I400J0D01*
G03Y89993I244J1175D01*
G02X201200Y90384I-81J392D01*
G01Y90401D01*
G02X201682Y90792I400J0D01*
G03Y93142I244J1175D01*
G02X201200Y93534I-81J392D01*
G01Y96700D01*
G02X201682Y97091I400J0D01*
G03Y99442I244J1175D01*
G02X201200Y99833I-81J392D01*
G01Y100258D01*
X201429D01*
X201457Y100250D01*
G03X201650Y102591I343J1150D01*
G02X201200Y102988I-50J397D01*
G01Y109312D01*
G02X201650Y109709I400J0D01*
G03Y112091I150J1191D01*
G02X201200Y112488I-50J397D01*
G01Y114823D01*
X200406Y115617D01*
G02X200689Y116300I283J283D01*
G01X200827D01*
X205600Y111527D01*
Y106188D01*
G02X205150Y105791I-400J0D01*
G03Y103409I-150J-1191D01*
G02X205600Y103012I50J-397D01*
G01Y93586D01*
G02X205166Y93188I-400J0D01*
G03Y90796I-100J-1196D01*
G02X205600Y90397I33J-399D01*
G01Y89980D01*
X205376D01*
X205354Y89985D01*
G03X205169Y87621I-278J-1168D01*
G02X205600Y87222I31J-399D01*
G01Y87127D01*
X208335Y84392D01*
G02X208095Y83712I-283J-283D01*
G03X208394Y81330I130J-1193D01*
G02X208850Y80934I56J-396D01*
G01Y72436D01*
G02X208337Y72052I-400J0D01*
G03Y69748I-337J-1152D01*
G02X208850Y69364I112J-384D01*
G01Y69223D01*
X204427Y64800D01*
X200489D01*
G37*
G36*
G01X210425Y89372D02*
G03X209075Y89579I-825J-872D01*
G02X208500Y89939I-175J360D01*
G01Y107161D01*
G02X209183Y107444I400J0D01*
G01X211100Y105527D01*
Y89662D01*
G02X210425Y89372I-400J0D01*
G37*
G36*
G01X226200Y900D02*
X223215Y3885D01*
X223250Y4001D01*
G03X219001Y8250I-3250J999D01*
G01X218885Y8215D01*
X218200Y8900D01*
X210639D01*
G02X210356Y9583I0J400D01*
G01X216400Y15627D01*
Y19327D01*
X222300Y25227D01*
Y26377D01*
G02X222925Y26708I400J0D01*
G03X224160Y28762I675J992D01*
G02X223985Y29287I187J354D01*
G03X222750Y30991I-1085J513D01*
G02X222300Y31388I-50J397D01*
G01Y40127D01*
X225400Y43227D01*
Y76312D01*
G02X225850Y76709I400J0D01*
G03X226745Y78841I150J1191D01*
G02X226710Y79437I248J314D01*
G01X228400Y81127D01*
Y88427D01*
X228865Y88892D01*
G02X229536Y88707I283J-283D01*
G03X230993Y90164I1164J293D01*
G02X230808Y90835I98J388D01*
G01X232000Y92027D01*
Y92667D01*
X232395D01*
X232400Y92471D01*
G03X232700Y93294I1200J29D01*
G02X232000Y93559I-300J265D01*
G01Y99739D01*
G02X232695Y100009I400J0D01*
G03Y101631I885J811D01*
G02X232000Y101901I-295J270D01*
G01Y107873D01*
X228900Y110973D01*
Y119627D01*
X231200Y121927D01*
Y129727D01*
X232800Y131327D01*
Y143777D01*
X232945Y143921D01*
X233041Y143910D01*
G03X233869Y146315I159J1290D01*
G02X233704Y146809I206J343D01*
G03X231201Y147349I-1204J491D01*
G01X231198Y147271D01*
X231083Y147156D01*
G02X230400Y147439I-283J283D01*
G01Y154773D01*
X228702Y156471D01*
X228699Y156549D01*
G03X227132Y157772I-1299J-49D01*
G02X226650Y158164I-82J391D01*
G01Y158477D01*
X227371Y159198D01*
X227449Y159201D01*
G03X226101Y160549I-49J1299D01*
G01X226098Y160471D01*
X224850Y159223D01*
Y153789D01*
G02X224167Y153506I-400J0D01*
G01X218300Y159373D01*
Y159559D01*
X218354Y159616D01*
G03X216559Y161492I-954J884D01*
G02X215900Y161797I-259J305D01*
G01Y162973D01*
X209173Y169700D01*
X209020D01*
G02X208640Y170225I0J400D01*
G03X207125Y171740I-1140J375D01*
G02X206600Y172120I-125J380D01*
G01Y175173D01*
X201662Y180111D01*
G02X201790Y180762I283J283D01*
G03X204596Y185184I-1790J4238D01*
G02X204996Y185600I400J16D01*
G01X206205D01*
G02X206604Y185179I0J-400D01*
G03X213395I3396J-179D01*
G02X213795Y185600I399J21D01*
G01X216205D01*
G02X216604Y185179I0J-400D01*
G03X223396I3396J-179D01*
G02X223795Y185600I399J21D01*
G01X226205D01*
G02X226604Y185179I0J-400D01*
G03X233396I3396J-179D01*
G02X233795Y185600I399J21D01*
G01X236205D01*
G02X236605Y185179I0J-400D01*
G03X242593Y182801I3395J-179D01*
G01X242599Y182807D01*
X242746Y182954D01*
X243000Y182700D01*
Y175497D01*
X242900Y175440D01*
G03X243226Y173232I600J-1039D01*
G01X243282Y173218D01*
X246469Y170031D01*
G02X246327Y169373I-283J-283D01*
G03X245906Y169104I423J-1123D01*
G02X245344I-281J284D01*
G03X243656I-844J-853D01*
G02X243094I-281J284D01*
G03X241406I-844J-853D01*
G02X240844I-281J284D01*
G03X239062Y168999I-844J-854D01*
G02X238438I-312J250D01*
G03X236562I-937J-749D01*
G02X235938I-312J250D01*
G03Y167501I-937J-749D01*
G02X236562I313J-250D01*
G03X238438I937J749D01*
G02X239062I313J-250D01*
G03X240844Y167396I938J749D01*
G02X241406I281J-284D01*
G03X243094I844J854D01*
G02X243656I281J-284D01*
G03X245344I844J854D01*
G02X245906I281J-284D01*
G03X247594I844J854D01*
G02X248156I281J-284D01*
G03X249281Y167083I844J854D01*
G01X249390Y167110D01*
X252550Y163950D01*
X262250D01*
X270800Y155400D01*
Y105500D01*
X267400Y102100D01*
Y95800D01*
X271800Y91400D01*
Y89774D01*
G02X271329Y89380I-400J0D01*
G03X270810Y86833I-229J-1280D01*
G01X270866Y86820D01*
X271288Y86397D01*
X271093Y86202D01*
X271018Y86198D01*
G03X269991Y84222I82J-1298D01*
G01X270073Y84087D01*
X268385Y82400D01*
X252000D01*
X248100Y86300D01*
X235600D01*
X231000Y81700D01*
Y76000D01*
X236600Y70400D01*
X260000D01*
Y57386D01*
X263800Y53586D01*
Y51939D01*
G02X263225Y51579I-400J0D01*
G03Y49421I-525J-1079D01*
G02X263800Y49061I175J-360D01*
G01Y36714D01*
X263286Y36200D01*
X234300D01*
X231869Y33769D01*
G02X231265Y33814I-283J283D01*
G03X230225Y31902I-965J-714D01*
G02X230600Y31503I-25J-399D01*
G01Y23600D01*
X236700Y17500D01*
X242100D01*
X243800Y15800D01*
Y8245D01*
G02X243111Y7969I-400J0D01*
G03X237348Y1615I-3111J-2969D01*
G02X237101Y900I-247J-315D01*
G01X232899D01*
G02X232652Y1615I0J400D01*
G03X227348I-2652J3385D01*
G02X227101Y900I-247J-315D01*
G01X226200D01*
G37*
G36*
G01X268083Y36783D02*
G02X267400Y37066I-283J283D01*
G01Y40023D01*
G02X267995Y40372I400J0D01*
G03X269278Y42397I584J1048D01*
G02X269263Y43036I233J325D01*
G03X267980Y45051I-742J943D01*
G02X267400Y45408I-180J357D01*
G01Y49338D01*
G02X268075Y49628I400J0D01*
G03Y51372I825J872D01*
G02X267400Y51662I-275J291D01*
G01Y53238D01*
G02X268075Y53528I400J0D01*
G03X267786Y54846I825J872D01*
G01X267736Y54721D01*
X267400D01*
Y54914D01*
X263300Y59014D01*
Y64341D01*
G02X264000Y64606I400J0D01*
G03Y66194I900J794D01*
G02X263300Y66459I-300J265D01*
G01Y70400D01*
X265600D01*
X270600Y65400D01*
Y39300D01*
X268083Y36783D01*
G37*
%LPC*%
G75*
G36*
G01X29000Y142437D02*
G03X29500I250J312D01*
G02Y140563I750J-937D01*
G03X29000I-250J-312D01*
G02Y142437I-750J937D01*
G37*
G36*
G01X11372Y142625D02*
G02X9628I-872J-825D01*
G03Y143175I-290J275D01*
G02X9562Y143251I872J825D01*
G03X8938I-313J-250D01*
G02Y144749I-937J749D01*
G03X9562I313J250D01*
G02X11372Y143175I938J-749D01*
G03Y142625I290J-275D01*
G37*
G36*
G01X10925Y66344D02*
G03X10650Y65845I108J-385D01*
G02X8376Y65922I-1150J-345D01*
G03X8202Y66410I-374J141D01*
G02X9546Y68390I599J1040D01*
G03X9803Y68397I124J157D01*
G02X10925Y66344I797J-897D01*
G37*
G36*
G01X-11036Y62361D02*
G03X-10491Y62281I315J247D01*
G02X-10744Y60559I691J-981D01*
G03X-11289Y60639I-315J-247D01*
G02X-11036Y62361I-691J981D01*
G37*
G36*
G01X8478Y49168D02*
G03X8463Y49439I-154J128D01*
G02X8418Y51114I837J861D01*
G03Y51386I-147J136D01*
G02X10182I882J814D01*
G03Y51114I147J-136D01*
G02X10222Y49532I-882J-814D01*
G03X10237Y49261I154J-128D01*
G02X8478Y49168I-837J-861D01*
G37*
G36*
G01X13110Y57838D02*
G02X11347Y57791I-860J-837D01*
G03X11340Y58063I-150J132D01*
G02X11318Y59714I860J837D01*
G03Y59986I-147J136D01*
G02X13082I882J814D01*
G03Y59714I147J-136D01*
G02X13154Y59629I-882J-814D01*
G03X13496Y59672I159J121D01*
G02X13797Y58308I1104J-472D01*
G03X13198Y58233I-267J-297D01*
G02X13103Y58109I-998J667D01*
G03X13110Y57838I150J-132D01*
G37*
G36*
G01X9850Y26263D02*
G03X9350I-250J-312D01*
G02Y28137I-750J937D01*
G03X9850I250J312D01*
G02Y26263I750J-937D01*
G37*
G36*
G01X76444Y17710D02*
G03X75994Y17272I-52J-397D01*
G02X73864Y17899I-1194J-124D01*
G03Y18149I-156J125D01*
G02X75571Y19819I936J751D01*
G03X75829I129J153D01*
G02X76444Y17710I771J-919D01*
G37*
G36*
G01X56500Y21313D02*
G03X56000I-250J-312D01*
G02Y23187I-750J937D01*
G03X56500I250J312D01*
G02X58000Y23187I750J-937D01*
G03X58563Y23249I250J312D01*
G02X58750Y21563I937J-749D01*
G03X58188Y21501I-250J-312D01*
G02X56500Y21313I-937J749D01*
G37*
G36*
G01X47937Y17250D02*
G03Y16750I312J-250D01*
G02X46063I-937J-750D01*
G03Y17250I-312J250D01*
G02Y18750I937J750D01*
G03Y19250I-312J250D01*
G02X47937I937J750D01*
G03Y18750I312J-250D01*
G02Y17250I-937J-750D01*
G37*
G36*
G01X77437Y45250D02*
G03Y44750I312J-250D01*
G02X75563I-937J-750D01*
G03Y45250I-312J250D01*
G02Y46750I937J750D01*
G03Y47250I-312J250D01*
G02X77437I937J750D01*
G03Y46750I312J-250D01*
G02Y45250I-937J-750D01*
G37*
G36*
G01X101854Y91906D02*
G03Y91344I284J-281D01*
G02X100146I-853J-844D01*
G03Y91906I-284J281D01*
G02X101854I853J844D01*
G37*
G36*
G01X118694Y123711D02*
G03X118132Y123686I-269J-296D01*
G02X118056Y125389I-882J814D01*
G03X118618Y125414I269J296D01*
G02X118694Y123711I882J-814D01*
G37*
G36*
G01X179750Y63563D02*
G03X179250I-250J-312D01*
G02Y65437I-750J937D01*
G03X179750I250J312D01*
G02X181250I750J-937D01*
G03X181750I250J312D01*
G02Y63563I750J-937D01*
G03X181250I-250J-312D01*
G02X179750I-750J937D01*
G37*
G36*
G01X222719Y159685D02*
G03X222131I-294J-272D01*
G02Y161315I-881J815D01*
G03X222719I294J272D01*
G02Y159685I881J-815D01*
G37*
G36*
G01X244882Y118886D02*
G03Y118614I147J-136D01*
G02X243118I-882J-814D01*
G03Y118886I-147J136D01*
G02X244882I882J814D01*
G37*
G36*
G01X249737Y118950D02*
G03Y118450I312J-250D01*
G02X247863I-937J-750D01*
G03Y118950I-312J250D01*
G02X249737I937J750D01*
G37*
G36*
G01X249494Y99100D02*
G03Y98500I265J-300D01*
G02X247906I-794J-900D01*
G03Y99100I-265J300D01*
G02X249494I794J900D01*
G37*
G36*
G01X254770Y92274D02*
G03X254795Y91699I290J-275D01*
G02X253130Y91626I-795J-899D01*
G03X253105Y92201I-290J275D01*
G02X254770Y92274I795J899D01*
G37*
G36*
G01X246814Y88792D02*
G03X246265Y88768I-262J-302D01*
G02X246186Y90508I-865J832D01*
G03X246735Y90532I262J302D01*
G02X246814Y88792I865J-832D01*
G37*
G36*
G01X267794Y91000D02*
G03Y90400I265J-300D01*
G02X266206I-794J-900D01*
G03Y91000I-265J300D01*
G02X267794I794J900D01*
G37*
G36*
G01X268359Y85497D02*
G03X268259Y84922I220J-334D01*
G02X266641Y85203I-959J-722D01*
G03X266741Y85778I-220J334D01*
G02X268359Y85497I959J722D01*
G37*
G36*
G01X245152Y110850D02*
G02X244898Y109525I848J-850D01*
G03X244248Y109650I-367J-158D01*
G02X242650Y109563I-848J850D01*
G03X242150I-250J-312D01*
G02X240650I-750J937D01*
G03X240150I-250J-312D01*
G02Y111437I-750J937D01*
G03X240650I250J312D01*
G02X242150I750J-937D01*
G03X242650I250J312D01*
G02X244502Y110975I750J-937D01*
G03X245152Y110850I367J158D01*
G37*
G36*
G01X240894Y92760D02*
G02X239306I-794J-900D01*
G03Y93360I-265J300D01*
G02X239878Y95440I794J900D01*
G03X240178Y95974I-74J393D01*
G02X240506Y97300I1122J426D01*
G03Y97900I-265J300D01*
G02X240246Y99374I794J900D01*
G03X239996Y99952I-351J191D01*
G02X239506Y102013I304J1161D01*
G03Y102613I-265J300D01*
G02X240459Y104702I794J900D01*
G03X240909Y105049I53J396D01*
G02X241306Y105800I1191J-149D01*
G03Y106400I-265J300D01*
G02X242894I794J900D01*
G03Y105800I265J-300D01*
G02X241941Y103710I-794J-900D01*
G03X241491Y103364I-53J-396D01*
G02X241094Y102613I-1191J149D01*
G03Y102013I265J-300D01*
G02X241354Y100539I-794J-900D01*
G03X241604Y99961I351J-191D01*
G02X242094Y97900I-304J-1161D01*
G03Y97300I265J-300D01*
G02X241522Y95221I-794J-900D01*
G03X241222Y94686I74J-393D01*
G02X240894Y93360I-1122J-426D01*
G03Y92760I265J-300D01*
G37*
G36*
G01X250956Y42425D02*
G02X249644I-656J-1005D01*
G03Y43095I-219J335D01*
G02X249523Y45014I656J1005D01*
G03Y45624I-259J305D01*
G02X251077I777J915D01*
G03Y45014I259J-305D01*
G02X250956Y43095I-777J-915D01*
G03Y42425I219J-335D01*
G37*
G36*
G01X226979Y31000D02*
G02X225821Y30025I21J-1200D01*
G03X225421Y30500I-393J75D01*
G02X226579Y31475I-21J1200D01*
G03X226979Y31000I393J-75D01*
G37*
G36*
G01X221926Y9978D02*
G02X221786Y11410I-1026J622D01*
G03X222424Y11472I295J270D01*
G02X222564Y10040I1026J-622D01*
G03X221926Y9978I-295J-270D01*
G37*
G54D23*
X-39800Y63100D03*
X-36511Y54000D03*
X-26900Y160900D03*
X-29700Y157600D03*
Y173700D03*
X-29900Y166300D03*
X-26650Y164050D03*
X-24450Y156800D03*
X-5750Y153000D03*
X-5600Y159200D03*
X-11100Y162000D03*
X8000Y153000D03*
X30250Y91500D03*
X27300D03*
X27100Y115000D03*
X27000Y118700D03*
X29159Y152200D03*
X24500Y156250D03*
X37400Y74693D03*
X35200Y125400D03*
X44500Y126000D03*
X41000D03*
Y135000D03*
X44500D03*
Y141400D03*
X41000D03*
X33884Y129759D03*
X37427D03*
X33750Y148750D03*
X41500Y151100D03*
X34000Y170600D03*
X55000Y126000D03*
X48000Y141400D03*
X55000Y135000D03*
X51600Y129759D03*
X55000Y141400D03*
X48057Y129759D03*
X58500Y126000D03*
Y135000D03*
Y141400D03*
Y151100D03*
Y155200D03*
X69250Y141500D03*
X74041Y152200D03*
Y148657D03*
X75500Y155750D03*
X81000Y163750D03*
X85000Y163500D03*
X93500Y174400D03*
X-16600Y28100D03*
X-8700Y18000D03*
X18500Y69000D03*
X14400D03*
X19250Y81500D03*
X17250Y15000D03*
X24850Y26197D03*
X28031Y26242D03*
X31131Y32492D03*
Y29342D03*
Y26193D03*
Y45034D03*
X27981D03*
X31131Y38791D03*
X27981D03*
X31131Y57633D03*
X27981D03*
X24832Y54183D03*
X31131D03*
X27981D03*
Y60782D03*
X25100Y60300D03*
X37300Y32500D03*
X43683Y32462D03*
X40531D03*
X37430Y29286D03*
Y26137D03*
X43674Y38791D03*
X37401Y45061D03*
X40570Y41894D03*
X34400Y45100D03*
X34281Y41941D03*
X37430D03*
X34281Y38791D03*
X37430D03*
X34281Y35641D03*
X43644Y41957D03*
X40531Y45070D03*
X43674Y45034D03*
X40570Y35614D03*
X43683D03*
X37430Y35641D03*
X43732Y51332D03*
X40500Y51400D03*
X43721Y48221D03*
X37430Y54483D03*
Y48184D03*
X40570Y48104D03*
X43722Y57717D03*
X40492Y57757D03*
X37430Y51334D03*
X35659Y64664D03*
X43850Y60640D03*
X40580Y60782D03*
X53178Y29349D03*
X53139Y32422D03*
X49987Y32462D03*
X56272Y32492D03*
X46796Y32422D03*
X46400Y26100D03*
X53100Y41839D03*
X53122Y35641D03*
X56272Y35585D03*
X53122Y38791D03*
X49987Y41878D03*
X49973Y38791D03*
X49908Y35692D03*
X46953Y38687D03*
X46870Y35613D03*
X56272Y54483D03*
Y51334D03*
X46953Y51256D03*
X46835Y48222D03*
X56272Y48184D03*
Y57633D03*
X46832Y60832D03*
X56272Y60782D03*
X59422Y32492D03*
X62571D03*
X59422Y45034D03*
X62571D03*
X59488Y38725D03*
X62637D03*
X62571Y57633D03*
X59478Y51334D03*
X62627D03*
X64200Y64000D03*
X59404Y60791D03*
X31750Y101250D03*
X72000Y68500D03*
X77000Y68300D03*
X73800Y79800D03*
X75000Y87500D03*
X80000Y88500D03*
X80500Y68300D03*
X86524Y88460D03*
X81250Y111750D03*
X101000Y22500D03*
Y19000D03*
Y15500D03*
X97500D03*
X98000Y20750D03*
X101000Y33000D03*
Y29500D03*
Y26000D03*
X98000D03*
Y31250D03*
X101000Y36500D03*
Y40000D03*
Y43500D03*
X98000Y36500D03*
Y41750D03*
X98500Y57000D03*
X96400Y47000D03*
X98500Y60000D03*
X100400Y100200D03*
X107250Y19000D03*
X110250Y20750D03*
X107250Y22500D03*
X110250Y24250D03*
X107250Y26000D03*
X110250Y27750D03*
X181600Y22140D03*
X187600Y14500D03*
X201500Y21800D03*
X209600Y27600D03*
X205800D03*
X201900D03*
X213400D03*
X126412Y139135D03*
X101400Y110400D03*
X101500Y121700D03*
X107400Y121800D03*
X104100Y120000D03*
X111250Y123750D03*
X106000Y129100D03*
X111300Y129800D03*
X123200Y123600D03*
X132672Y126576D03*
X135821D03*
X139097Y126446D03*
X135821Y129726D03*
X132672D03*
X142074Y126622D03*
X114850Y111060D03*
X114800Y113900D03*
X111100Y109900D03*
Y115000D03*
X126300Y117144D03*
X120300Y113946D03*
X123325Y114025D03*
X129650Y117150D03*
X138991Y117144D03*
X135841D03*
X138991Y113995D03*
X135841D03*
X132691D03*
X148439Y117144D03*
X145290Y113995D03*
Y117144D03*
X142140Y120294D03*
X145290D03*
X107500Y174400D03*
X142782Y36139D03*
X151600Y104560D03*
X148439Y101396D03*
X145400Y101320D03*
X145271Y104528D03*
X151492Y101300D03*
X148491Y98344D03*
X145290Y98247D03*
X151589Y110845D03*
X148439Y107696D03*
X154739Y101396D03*
Y104546D03*
X151640Y98344D03*
X154739Y110845D03*
Y113995D03*
Y107696D03*
X139000Y139201D03*
X138971Y142471D03*
X142120Y136025D03*
X151569Y132875D03*
X148420Y136025D03*
X151569D03*
Y142324D03*
X161038Y104546D03*
Y117144D03*
Y113995D03*
X161019Y107677D03*
X161038Y110845D03*
X161122Y129622D03*
X157888Y120294D03*
X157868Y126576D03*
X161001Y126556D03*
X161038Y120294D03*
X157868Y139174D03*
Y132875D03*
Y129726D03*
X154719Y136025D03*
Y139174D03*
X161018Y132875D03*
X154719D03*
Y129726D03*
X161018Y139174D03*
Y148623D03*
X154719Y142324D03*
X157868D03*
X161018D03*
Y151773D03*
X170430Y104566D03*
X173580D03*
X167124Y104639D03*
X170430Y117164D03*
X173580Y114015D03*
X167357Y110865D03*
X167318Y107677D03*
X170468Y110827D03*
Y107677D03*
Y113976D03*
X173618Y110827D03*
Y107677D03*
Y117126D03*
X167280Y117164D03*
Y114015D03*
X170430Y120314D03*
X170469Y126576D03*
X167320D03*
X173619D03*
X173580Y120314D03*
X167280D03*
X170469Y132875D03*
X173619Y136025D03*
X167320Y129726D03*
X170469Y136025D03*
X167320Y132875D03*
X173619Y129726D03*
Y132875D03*
X170469Y129726D03*
Y142324D03*
X167320D03*
Y148623D03*
Y151773D03*
X176767Y104528D03*
X179879Y104566D03*
X186200Y104500D03*
X179879Y117164D03*
X183028D03*
X186178Y114015D03*
X179879Y110865D03*
Y107715D03*
X183028D03*
Y110865D03*
X176767Y110827D03*
X176709Y107677D03*
X176767Y113976D03*
X183028Y114015D03*
X179879D03*
X186178Y110865D03*
X176729Y120314D03*
X176768Y126576D03*
X186178Y120314D03*
X186217Y126576D03*
X179918D03*
X183068D03*
X179879Y120314D03*
X183028D03*
X183068Y139174D03*
X176768Y136025D03*
X179918D03*
X186217Y129726D03*
X183068D03*
X186300Y136000D03*
X176768Y129726D03*
X179918Y132875D03*
X176768D03*
X179918Y129726D03*
Y139174D03*
X176768D03*
X183068Y136025D03*
Y132875D03*
X183044Y142300D03*
X176768Y142324D03*
X186217Y148623D03*
X183068Y145474D03*
X186254Y145511D03*
X192477Y113938D03*
X189328Y114015D03*
X198816Y139174D03*
X198776Y142285D03*
X189404Y148660D03*
X189379Y161219D03*
X192517Y161222D03*
X201965Y139174D03*
X205115D03*
X201965Y142324D03*
Y145474D03*
X205115D03*
Y142324D03*
X205128Y158072D03*
X201963Y158072D03*
X201926Y154960D03*
X145290Y91948D03*
X161017Y88800D03*
Y85648D03*
X167280Y98266D03*
X173580D03*
X170424Y95124D03*
X175953Y68000D03*
X179600D03*
X182989Y79408D03*
X186300Y88800D03*
X186169Y95031D03*
X183002Y98256D03*
X186178Y98266D03*
X154721Y164371D03*
X164250Y161220D03*
X199000Y38500D03*
X197016Y40750D03*
X201000D03*
X205076Y79369D03*
X205097Y82497D03*
X217400Y164500D03*
X211500Y170600D03*
X219500D03*
X215500D03*
X224600Y22100D03*
X234000Y96500D03*
X232500Y156250D03*
X232000Y170900D03*
X226500Y170600D03*
X227500Y174400D03*
X231500D03*
X223500Y170600D03*
X236800Y40800D03*
X243500Y41200D03*
X241900Y54600D03*
X242600Y51400D03*
X235700Y62500D03*
X237225Y100720D03*
X237000Y96810D03*
X234900Y109300D03*
X246750Y130500D03*
X242824Y143280D03*
X239500Y174400D03*
X252900Y49500D03*
X248150Y68550D03*
X256400Y95700D03*
X253900Y98150D03*
X258400Y108100D03*
X249900Y111200D03*
X253750Y108850D03*
X250750Y127500D03*
X247750D03*
X256604Y127646D03*
X250400Y137800D03*
X258646Y141354D03*
X252250Y131468D03*
X251153Y141600D03*
X259900Y52000D03*
X263000Y108100D03*
X268500Y145750D03*
X258750Y154250D03*
Y158750D03*
X265000Y60500D03*
G54D26*
X231250Y40000D03*
Y49840D03*
Y57720D03*
G54D24*
X0Y82500D03*
Y92500D03*
X10000Y87500D03*
X0Y102500D03*
X10000Y97500D03*
Y107500D03*
X0Y112500D03*
X10000Y117500D03*
X0Y122500D03*
X10000Y127500D03*
G54D27*
X231250Y67560D03*
G54D25*
X40970Y166373D03*
X55143D03*
X48057D03*
%LPD*%
G75*
G54D10*
X-38700Y157400D03*
X-38950Y166900D03*
X-39200Y171650D03*
Y176900D03*
X-36500Y58000D03*
X-30000Y54750D03*
X-27500Y66250D03*
X-30088D03*
X-31350Y152650D03*
X-28500Y177600D03*
X-19400Y4800D03*
X-15000Y6500D03*
X-18000D03*
Y8750D03*
X-15000Y13300D03*
X-23500Y13500D03*
X-21700Y13000D03*
X-23400Y18050D03*
Y15750D03*
X-19100Y11850D03*
Y14100D03*
X-15000Y30500D03*
X-17800Y33450D03*
Y31200D03*
X-23700Y36400D03*
X-22700Y34900D03*
X-20750Y45000D03*
Y49500D03*
Y51750D03*
Y47250D03*
X-24000Y50000D03*
X-25088Y66250D03*
X-16300Y65500D03*
X-20000Y64000D03*
X-24450Y151900D03*
X-25000Y166800D03*
X-24450Y177650D03*
X-11000Y16400D03*
X-5600Y14600D03*
Y12400D03*
X-4400Y31000D03*
X-4300Y24000D03*
X-12000Y32750D03*
Y30500D03*
X-10000Y50750D03*
Y48750D03*
X-10300Y63500D03*
X-11200Y166900D03*
X-10500Y178900D03*
X-2500Y22500D03*
X8200Y24500D03*
X8300Y22600D03*
X6300D03*
Y24700D03*
X-300Y29800D03*
X8000Y35300D03*
X6300D03*
X-2750Y49750D03*
Y57000D03*
Y59250D03*
X-200Y130800D03*
X2250Y144000D03*
Y153050D03*
X3150Y165000D03*
X8500Y161900D03*
X3800Y160400D03*
X-1200D03*
X1300D03*
X3150Y168000D03*
X8600Y171050D03*
X-1200Y172900D03*
X1300D03*
X3800D03*
X14000Y13000D03*
X12700Y14500D03*
X15000Y18000D03*
X10100Y24500D03*
Y22600D03*
X14600Y28100D03*
Y31900D03*
X9800Y35300D03*
X11600D03*
X14623Y43097D03*
X14500Y63400D03*
X19600Y103600D03*
X19400Y95600D03*
X19700Y111200D03*
X19100Y127500D03*
X19500Y119200D03*
X19400Y131800D03*
X20000Y152200D03*
X20250Y161900D03*
X16250D03*
X12300D03*
X20350Y171050D03*
X16350D03*
X12350D03*
X25250Y18750D03*
X23250D03*
Y16750D03*
X25250D03*
X23250Y20750D03*
X25250D03*
X27250Y16750D03*
Y18750D03*
Y20750D03*
X27942Y32452D03*
X31131Y35641D03*
X27981D03*
X24400Y35456D03*
X31131Y48184D03*
X27981Y51334D03*
X31131D03*
X27981Y48184D03*
X24889Y48261D03*
X23519Y88026D03*
X31750Y96538D03*
X29600Y97300D03*
X31713Y105987D03*
X27200Y121400D03*
X30500Y123500D03*
X22600Y136200D03*
X22900Y144500D03*
X29100Y162800D03*
X24100Y161900D03*
Y171050D03*
X29100Y169900D03*
X43644Y26237D03*
X43444Y29056D03*
X34281Y26137D03*
Y29286D03*
Y26193D03*
Y57633D03*
X37430D03*
X40082Y64860D03*
X40000Y76400D03*
X35200Y73100D03*
X38300Y93900D03*
X40800D03*
X43300D03*
Y98900D03*
X40800D03*
X38300D03*
Y96400D03*
X40800D03*
X43300D03*
X38300Y101400D03*
X40800D03*
X43300D03*
X38300Y103900D03*
X42500Y110700D03*
X40500Y123500D03*
X38000D03*
X33200Y123700D03*
X37400Y137100D03*
X33000Y135700D03*
X33900Y143400D03*
X41500Y155200D03*
X44500Y170600D03*
X56330Y29349D03*
X49973Y23043D03*
Y26193D03*
X53053Y23112D03*
X53034Y26282D03*
X49987Y45030D03*
X56370Y41918D03*
X56299Y45063D03*
X46914Y57717D03*
X54250Y70000D03*
X56262Y63922D03*
X53152Y63961D03*
X54250Y80000D03*
X48100Y93900D03*
X55400Y92800D03*
X45800Y98900D03*
X48100D03*
X45800Y96400D03*
X48100D03*
X45800Y101400D03*
X48100D03*
X55250Y96500D03*
X46100Y117500D03*
X54500Y155100D03*
X66750Y15500D03*
Y17500D03*
X62600Y29460D03*
X65830Y29390D03*
X66141Y32659D03*
X62571Y41941D03*
X65777Y54483D03*
X62571D03*
X59422D03*
X66600Y79600D03*
X56500Y80000D03*
X66500Y91500D03*
X66600Y87400D03*
X56600Y94700D03*
X66500Y95500D03*
X56600Y98300D03*
X62300Y129800D03*
X63600Y150600D03*
X67000Y144100D03*
X67200Y169600D03*
X62200Y174600D03*
X72000Y13500D03*
Y19500D03*
X69490Y32935D03*
X72000Y28500D03*
Y37000D03*
Y43000D03*
Y49000D03*
X79700Y55600D03*
X69500Y59235D03*
X70400Y79600D03*
X77000Y71500D03*
X70400Y83400D03*
X70250Y100250D03*
Y98000D03*
X70300Y95500D03*
X72400Y111700D03*
X78500Y117200D03*
X79700Y109900D03*
X69500Y155800D03*
X74000Y162800D03*
Y169900D03*
X75000Y182250D03*
X91250Y20750D03*
Y15500D03*
X81200Y19400D03*
X85500Y15000D03*
X91250Y31250D03*
Y26000D03*
X85950Y33500D03*
X91250Y36500D03*
X88550Y55750D03*
Y53750D03*
X88400Y72000D03*
X80500Y71500D03*
X82100Y104500D03*
X91000Y100500D03*
X81800Y154900D03*
X84800D03*
X85000Y173900D03*
Y167500D03*
X81000Y167400D03*
X81250Y179750D03*
X94500Y21750D03*
Y19750D03*
Y32250D03*
Y30250D03*
X92750Y55750D03*
Y53750D03*
X101000Y70000D03*
X96500Y63900D03*
X96400Y68000D03*
Y72000D03*
X101300Y77500D03*
X97500Y100200D03*
X101300Y107800D03*
X96900Y176700D03*
X103500Y170600D03*
X115000Y15600D03*
X105200Y13100D03*
X113254Y33187D03*
X107250Y38750D03*
Y64500D03*
X111800Y105000D03*
X111500Y141000D03*
Y136000D03*
X112485Y147504D03*
X104672Y147372D03*
X104900Y150300D03*
X112300Y150067D03*
X114750Y147500D03*
X104250Y157500D03*
X104900Y153700D03*
Y161500D03*
X106750Y157500D03*
X113400Y156300D03*
X113250Y161500D03*
X112500Y153416D03*
X115750Y161500D03*
X115500Y174400D03*
X111500Y170600D03*
X115500D03*
X122506Y21966D03*
X121128Y33187D03*
X117191D03*
X125065D03*
X123224Y79331D03*
X126374D03*
Y76181D03*
X120074Y98228D03*
X126392Y107696D03*
X119313Y140748D03*
X126372Y132875D03*
X117125Y156529D03*
X127500Y174400D03*
Y170600D03*
X128806Y21966D03*
X135105D03*
X136876Y33187D03*
X132939D03*
X129002D03*
X129523Y79331D03*
Y76181D03*
X138969Y91969D03*
X129542Y82499D03*
X135841Y85648D03*
X132673Y85630D03*
X135841Y88798D03*
X129542Y98247D03*
Y95097D03*
X132691Y101396D03*
X135841D03*
Y95060D03*
X129542Y101396D03*
X138991Y98247D03*
X138972Y95079D03*
X135841Y107696D03*
X138948Y107653D03*
X132675Y117150D03*
X132672Y136025D03*
X135861Y139135D03*
X129522Y132875D03*
X138971Y145474D03*
X132672D03*
X144554Y21966D03*
Y28265D03*
X144750Y33187D03*
X140813D03*
X144554Y44013D03*
X148439Y88798D03*
X142140Y98247D03*
Y95097D03*
X142101Y117147D03*
X151500Y114050D03*
X148439Y120294D03*
X145270Y129726D03*
X151569Y139174D03*
X148420D03*
X151569Y129726D03*
Y151773D03*
Y145474D03*
Y148623D03*
Y158072D03*
Y154922D03*
X151500Y174400D03*
X147500D03*
X150250Y165500D03*
X151500Y170600D03*
X147500D03*
X148000Y165500D03*
X143500D03*
X160302Y21966D03*
X154002Y21900D03*
X163451Y28265D03*
Y25116D03*
Y44013D03*
Y47163D03*
X161100Y74500D03*
X158000D03*
X161018Y136025D03*
X157871D03*
X154719Y151773D03*
Y145474D03*
Y148623D03*
X161018Y145474D03*
X157868Y151773D03*
X162593Y164961D03*
X157868Y154922D03*
X169750Y21966D03*
X166601Y28265D03*
X172900D03*
Y25116D03*
X169750Y44013D03*
X166601Y40864D03*
X169750D03*
X172900Y44013D03*
X169453Y74389D03*
X166460Y74500D03*
X164100Y79400D03*
X170430Y85668D03*
Y98266D03*
X164131D03*
X167320Y136025D03*
X173618Y148622D03*
X170469Y151773D03*
X173619Y161222D03*
X170469Y154922D03*
X171500Y174400D03*
X167500D03*
X180600Y14700D03*
X186750Y46750D03*
X179600Y71500D03*
X175900Y73700D03*
X181900Y75326D03*
X179879Y88818D03*
X183002Y95144D03*
X186178Y117164D03*
Y107715D03*
X186217Y132875D03*
Y139174D03*
X176767Y148622D03*
X176768Y151773D03*
X179918Y164371D03*
X176768Y154922D03*
Y158072D03*
X179500Y174400D03*
X175500D03*
X183500D03*
X193500Y33600D03*
X195500Y43900D03*
X197750Y45500D03*
X198900Y35600D03*
X189000Y40000D03*
X191600Y36100D03*
X189500Y57600D03*
X195750Y47500D03*
X187500Y54750D03*
X195500Y75000D03*
X192000Y70900D03*
X195610Y85570D03*
X195627Y98266D03*
X189328Y117164D03*
X195627Y114015D03*
X189328Y110865D03*
X198816Y136025D03*
X192516Y129726D03*
X189367D03*
Y151773D03*
X195666D03*
Y158072D03*
X189367Y154922D03*
X198750Y164500D03*
X192516Y154922D03*
X198816Y158070D03*
X187500Y174400D03*
X191500D03*
X194750Y183500D03*
X209300Y22400D03*
X205500Y33700D03*
X207000Y43500D03*
X203200Y35900D03*
X207500Y36200D03*
X204000Y51500D03*
X202000Y57600D03*
X200000Y47500D03*
X208225Y76219D03*
X209400Y91200D03*
X209200Y104700D03*
X201926Y95117D03*
X202000Y113900D03*
X201884Y126495D03*
X201926Y120314D03*
X205034Y129644D03*
X205115Y148623D03*
X201965Y164371D03*
X219931Y17831D03*
X215864Y12336D03*
X214000Y33700D03*
X211300Y35100D03*
X220300Y44200D03*
X217900D03*
X212400Y51000D03*
Y54000D03*
X212500Y63750D03*
X217800Y92400D03*
X217400Y108500D03*
Y120500D03*
Y124500D03*
X217500Y128500D03*
X217400Y132500D03*
Y136500D03*
Y148500D03*
X219750Y142500D03*
X217400Y152500D03*
Y160500D03*
Y156500D03*
X230400Y15300D03*
Y18400D03*
X224900Y14100D03*
X223000Y33400D03*
X223300Y38100D03*
Y39800D03*
X227100Y96500D03*
Y100500D03*
X231800Y109100D03*
X233900Y137100D03*
X227400Y132500D03*
X233200Y145200D03*
X232500Y147300D03*
X227400Y144500D03*
Y156500D03*
Y160500D03*
X245450Y93650D03*
X243140Y89170D03*
X245500Y99000D03*
X245696Y97300D03*
X246500Y119750D03*
X242800Y123600D03*
X235500Y174400D03*
X254700Y40700D03*
Y44800D03*
X257500Y40800D03*
Y44800D03*
X256100Y42700D03*
X250900Y56400D03*
X255000D03*
X250900Y69700D03*
Y60700D03*
X255000D03*
X252900Y58500D03*
X254200Y88600D03*
X254300Y84300D03*
X254800Y102500D03*
X253200Y103600D03*
X257000Y101200D03*
X247800Y115300D03*
X251000Y119750D03*
X254600Y131500D03*
X256600Y133400D03*
X250700Y135400D03*
X252700Y137400D03*
X248700Y141300D03*
X253400Y149900D03*
X256500Y163450D03*
X268800Y60600D03*
X268700Y65500D03*
X265200Y93400D03*
X265500Y87000D03*
X263400Y113900D03*
X267400Y118300D03*
X259100Y118100D03*
X263700Y150000D03*
X271100Y88100D03*
Y84900D03*
G54D20*
G01X79700Y55600D02*
X73135D01*
X69500Y59235D01*
G54D11*
X-33615Y10277D03*
Y39608D03*
G54D21*
G01X20000Y5000D02*
X23382Y8382D01*
G01X16618D02*
X20000Y5000D01*
G01D02*
X23382Y1618D01*
G01X226618D02*
X230000Y5000D01*
G01D02*
X233382Y8382D01*
G01X226618D02*
X230000Y5000D01*
G01D02*
X233382Y1618D01*
G01X227762Y64072D02*
X231250Y67560D01*
G01D02*
X234738Y71048D01*
G01X227762D02*
X231250Y67560D01*
G01X236618Y1618D02*
X240000Y5000D01*
G01X236618Y8382D02*
X240000Y5000D01*
G54D12*
X-33615Y18643D03*
Y15494D03*
Y34391D03*
Y31242D03*
X40970Y166373D03*
X55143D03*
X48057D03*
G54D22*
G01X-32500Y-12500D02*
X232500D01*
G03X282500Y37500I0J50000D01*
G01Y152500D01*
G03X232500Y202500I-50000J0D01*
G01X-32500D01*
G03X-57500Y177500I0J-25000D01*
G01Y12500D01*
G03X-32500Y-12500I25000J0D01*
G54D13*
X20000Y5000D03*
X40000D03*
X80000D03*
X90000D03*
X200000Y185000D03*
X230000Y5000D03*
X240000D03*
G54D14*
X231250Y67560D03*
G54D15*
G01X-28500Y177600D02*
Y177750D01*
X-27000Y179250D01*
X-14950D01*
X-13000Y177300D01*
X78800D01*
X81250Y179750D01*
G01X-2750Y57000D02*
X-16700D01*
X-18900Y59200D01*
X-22000D01*
X-23000Y58200D01*
Y53400D01*
X-24000Y52400D01*
Y50000D01*
G01X-4300Y24000D02*
X-1100D01*
X5500Y30600D01*
X13300D01*
X14600Y31900D01*
G01X-11200Y166900D02*
X-10600D01*
X-9500Y168000D01*
Y169250D01*
X-2350Y176400D01*
X81400D01*
X86000Y181000D01*
X193300D01*
X197064Y177236D01*
Y163936D01*
X198250Y162750D01*
X201000D01*
X202050Y161700D01*
X208100D01*
X208700Y161100D01*
Y157600D01*
X206800Y155700D01*
Y153950D01*
X210000Y150750D01*
Y144500D01*
X208600Y143100D01*
Y133400D01*
X211750Y130250D01*
Y126000D01*
X212750Y125000D01*
Y117450D01*
X215950Y114250D01*
Y109800D01*
X217250Y108500D01*
X217400D01*
G01X-10500Y178900D02*
X-9700D01*
X-9000Y178200D01*
X70950D01*
X75000Y182250D01*
G01X15000Y18000D02*
X5400D01*
X900Y22500D01*
X-2500D01*
G01X148000Y165500D02*
X146500Y167000D01*
X143750D01*
X142750Y168000D01*
X136900D01*
X136677Y168223D01*
X124177D01*
X123650Y168750D01*
X102750D01*
X101507Y169993D01*
X93493D01*
X91000Y167500D01*
Y157800D01*
X86200Y153000D01*
X85000D01*
X65250Y133250D01*
Y128750D01*
X48500Y112000D01*
X46500D01*
X40400Y105900D01*
X37900D01*
X36500Y104500D01*
Y85750D01*
X48250Y74000D01*
X64750D01*
X66500Y75750D01*
Y77000D01*
X68250Y78750D01*
Y85750D01*
X66600Y87400D01*
G01Y79600D02*
X64500Y77500D01*
X55405D01*
X55005Y77100D01*
Y75650D01*
X54605Y75250D01*
X53805D01*
X53405Y75650D01*
Y77100D01*
X53005Y77500D01*
X52205D01*
X51805Y77100D01*
Y75650D01*
X51405Y75250D01*
X50605D01*
X50205Y75650D01*
Y77045D01*
X49000Y78250D01*
X46000D01*
X38000Y86250D01*
Y90750D01*
X39375Y92125D01*
X48625D01*
X49800Y93300D01*
Y111880D01*
X66250Y128330D01*
Y130750D01*
X68900Y133400D01*
X70180D01*
X85980Y149200D01*
X89430D01*
X90650Y150420D01*
Y152500D01*
X90250Y152900D01*
Y155480D01*
X92000Y157230D01*
Y164500D01*
X93000Y165500D01*
X94625D01*
X98218Y169093D01*
X100657D01*
X101900Y167850D01*
X123150D01*
X123677Y167323D01*
X135677D01*
X136500Y166500D01*
X142500D01*
X143500Y165500D01*
G01X66500Y95500D02*
X68500Y93500D01*
Y91250D01*
X67250Y90000D01*
X66500D01*
X65000Y88500D01*
Y80250D01*
X63250Y78500D01*
X50750D01*
X50000Y79250D01*
X47000D01*
X44000Y82250D01*
Y87750D01*
X43500Y88250D01*
X41000D01*
X40500Y88750D01*
Y90000D01*
X41000Y90500D01*
X49250D01*
X50750Y92000D01*
Y108500D01*
X58250Y116000D01*
Y118000D01*
X67750Y127500D01*
Y130750D01*
X69500Y132500D01*
X70553D01*
X86303Y148250D01*
X90000D01*
X91700Y149950D01*
Y152470D01*
X93150Y153920D01*
Y161270D01*
X97880Y166000D01*
X111000D01*
X111950Y166950D01*
X122750D01*
X123277Y166423D01*
X135177D01*
X136600Y165000D01*
X141727D01*
X143727Y163000D01*
X149870D01*
X153294Y159576D01*
Y153197D01*
X154719Y151773D01*
G01X54250Y70000D02*
X51500Y67250D01*
Y46500D01*
X50030Y45030D01*
X49987D01*
G01X54250Y80000D02*
X55250Y81000D01*
Y88250D01*
X54750Y88750D01*
X54000D01*
X53500Y88250D01*
Y82500D01*
X53000Y82000D01*
X52373D01*
X51973Y81600D01*
Y80719D01*
X51504Y80250D01*
X50841D01*
X50373Y80719D01*
Y81600D01*
X49973Y82000D01*
X49173D01*
X48773Y81600D01*
Y80719D01*
X48304Y80250D01*
X47641D01*
X47173Y80719D01*
Y81600D01*
X46773Y82000D01*
X45750D01*
X45000Y82750D01*
Y84750D01*
X45500Y85250D01*
X46750D01*
X47250Y85750D01*
Y89000D01*
X47750Y89500D01*
X48250D01*
X48750Y89000D01*
Y85750D01*
X49250Y85250D01*
X51250D01*
X51750Y85750D01*
Y86500D01*
X51250Y87000D01*
X50250D01*
X49750Y87500D01*
Y88250D01*
X50250Y88750D01*
X51250D01*
X51750Y89250D01*
Y102750D01*
X59500Y110500D01*
Y117000D01*
X72500Y130000D01*
Y133174D01*
X86526Y147200D01*
X90700D01*
X92600Y149100D01*
Y152097D01*
X94050Y153547D01*
Y160897D01*
X98153Y165000D01*
X111500D01*
X112550Y166050D01*
X121280D01*
X124246Y163084D01*
X141916D01*
X143000Y162000D01*
X148700D01*
X151569Y159131D01*
Y158072D01*
G01X104900Y150300D02*
X104800D01*
X102600Y148100D01*
X100850D01*
X100000Y147250D01*
Y143500D01*
X99000Y142500D01*
X96000D01*
X65048Y111548D01*
Y105500D01*
X65548Y105000D01*
X67250D01*
X67750Y104500D01*
Y103500D01*
X67250Y103000D01*
X65548D01*
X65048Y102500D01*
Y100548D01*
X57250Y92750D01*
X55450D01*
X55400Y92800D01*
G01X151569Y151773D02*
Y152620D01*
X149926Y154263D01*
Y155406D01*
X148842Y156490D01*
X147778D01*
X146912Y157356D01*
Y158696D01*
X145533Y160075D01*
X141425D01*
X140216Y161284D01*
X123416D01*
X120500Y164200D01*
X113950D01*
X112750Y163000D01*
X111500D01*
X111000Y162500D01*
Y157689D01*
X110561Y157250D01*
X109939D01*
X109500Y157689D01*
Y162500D01*
X109000Y163000D01*
X108500D01*
X108000Y162500D01*
Y159500D01*
X107500Y159000D01*
X107000D01*
X106500Y159500D01*
Y162500D01*
X106000Y163000D01*
X99750D01*
X96000Y159250D01*
Y152952D01*
X94400Y151352D01*
Y146900D01*
X61448Y113948D01*
Y107500D01*
X60948Y107000D01*
X59000D01*
X58500Y106500D01*
Y105750D01*
X59000Y105250D01*
X60948D01*
X61448Y104750D01*
Y102750D01*
X60948Y102250D01*
X57250D01*
X56750Y101750D01*
Y100500D01*
X56250Y100000D01*
X55750D01*
X55250Y100500D01*
Y101750D01*
X54750Y102250D01*
X54250D01*
X53750Y101750D01*
Y92000D01*
X54500Y91250D01*
X59750D01*
X60250Y91750D01*
Y94311D01*
X60689Y94750D01*
X61311D01*
X61750Y94311D01*
Y91750D01*
X62250Y91250D01*
X62750D01*
X63250Y91750D01*
Y97311D01*
X66689Y100750D01*
X67311D01*
X67750Y100311D01*
Y97500D01*
X67250Y97000D01*
X65250D01*
X64750Y96500D01*
Y91750D01*
X65250Y91250D01*
X66250D01*
X66500Y91500D01*
G01X151569Y154922D02*
Y155535D01*
X149890Y157215D01*
Y158860D01*
X147700Y161050D01*
X142200D01*
X141066Y162184D01*
X123873D01*
X120907Y165150D01*
X113150D01*
X112000Y164000D01*
X99250D01*
X94950Y159700D01*
Y153174D01*
X93500Y151724D01*
Y147500D01*
X60500Y114500D01*
Y110000D01*
X52750Y102250D01*
Y90750D01*
X53250Y90250D01*
X63250D01*
X63750Y89750D01*
Y89000D01*
X63250Y88500D01*
X56750D01*
X56250Y88000D01*
Y87250D01*
X56750Y86750D01*
X63250D01*
X63750Y86250D01*
Y85500D01*
X63250Y85000D01*
X56750D01*
X56250Y84500D01*
Y83700D01*
X56650Y83300D01*
X63350D01*
X63750Y82900D01*
Y82000D01*
X63250Y81500D01*
X57000D01*
X56500Y81000D01*
Y80000D01*
G01X104250Y157500D02*
X102000Y155250D01*
X101000D01*
X100000Y154250D01*
Y152250D01*
X98750Y151000D01*
X96750D01*
X96200Y150450D01*
Y145700D01*
X63248Y112748D01*
Y101748D01*
X58000Y96500D01*
X55250D01*
G01X104672Y147372D02*
Y147672D01*
X106500Y149500D01*
Y151000D01*
X105500Y152000D01*
X102700D01*
X101700Y151000D01*
X100750D01*
X99100Y149350D01*
Y144850D01*
X97750Y143500D01*
X95500D01*
X64148Y112148D01*
Y101148D01*
X57700Y94700D01*
X56600D01*
G01X104900Y161500D02*
X104750D01*
X103250Y160000D01*
X99750D01*
X99000Y159250D01*
Y152750D01*
X98250Y152000D01*
X96477D01*
X95300Y150823D01*
Y146300D01*
X62348Y113348D01*
Y102348D01*
X58300Y98300D01*
X56600D01*
G01X70250Y100250D02*
X69250Y101250D01*
Y113750D01*
X96500Y141000D01*
X99000D01*
X103500Y145500D01*
X105250D01*
X107500Y147750D01*
Y152750D01*
X106550Y153700D01*
X104900D01*
G01X106750Y157500D02*
X108500Y155750D01*
Y147250D01*
X105750Y144500D01*
X104000D01*
X99500Y140000D01*
X96800D01*
X70750Y113950D01*
Y102000D01*
X71750Y101000D01*
Y99500D01*
X70250Y98000D01*
G01X233200Y145200D02*
X232950D01*
X231900Y144150D01*
Y131700D01*
X230300Y130100D01*
Y122300D01*
X228000Y120000D01*
Y110600D01*
X231100Y107500D01*
Y92400D01*
X227500Y88800D01*
Y81500D01*
X224500Y78500D01*
Y43600D01*
X221400Y40500D01*
Y25600D01*
X215500Y19700D01*
Y16000D01*
X207500Y8000D01*
X93000D01*
X90000Y5000D01*
G01X80000D02*
X84000Y9000D01*
X206200D01*
X211900Y14700D01*
Y17400D01*
X220500Y26000D01*
Y40900D01*
X223500Y43900D01*
Y79000D01*
X224500Y80000D01*
Y87400D01*
X230200Y93100D01*
Y106500D01*
X226700Y110000D01*
Y120200D01*
X229400Y122900D01*
Y131100D01*
X230700Y132400D01*
Y145500D01*
X232500Y147300D01*
G01X117125Y156529D02*
X115971D01*
X114500Y158000D01*
X112750D01*
X110000Y155250D01*
Y145000D01*
X103500Y138500D01*
X98000D01*
X92600Y133100D01*
Y81100D01*
X84000Y72500D01*
Y53300D01*
X87500Y49800D01*
Y17000D01*
X85500Y15000D01*
G01X101300Y77500D02*
Y72600D01*
X102800Y71100D01*
Y48600D01*
X104000Y47400D01*
Y16500D01*
X106000Y14500D01*
X111750D01*
X117500Y20250D01*
X142250D01*
X143750Y18750D01*
X172500D01*
X183500Y29750D01*
X199250D01*
X204700Y35200D01*
Y41200D01*
X207000Y43500D01*
G01X112485Y147504D02*
X115989Y144000D01*
X131000D01*
X134800Y140200D01*
Y140196D01*
X135861Y139135D01*
G01X151569Y139174D02*
X150594D01*
X149000Y140769D01*
X147660D01*
X146793Y141636D01*
Y142896D01*
X145769Y143921D01*
X144824D01*
X143799Y144945D01*
Y146147D01*
X142972Y146974D01*
X141770D01*
X140669Y148076D01*
Y149376D01*
X139744Y150300D01*
X114033D01*
X113800Y150067D01*
X112300D01*
G01X114750Y147500D02*
X125209D01*
X125636Y147073D01*
X139656D01*
X140600Y146129D01*
Y145010D01*
X141689Y143921D01*
X142779D01*
X143681Y143019D01*
Y141596D01*
X144556Y140722D01*
X145895D01*
X147442Y139174D01*
X148420D01*
G01X154719Y145474D02*
X153159Y147034D01*
X147857D01*
X146833Y148058D01*
Y149122D01*
X145690Y150265D01*
X144548D01*
X143523Y151289D01*
Y152392D01*
X139243Y156672D01*
X124990D01*
X123339Y155020D01*
X114680D01*
X113400Y156300D01*
G01X113250Y161500D02*
X114750Y163000D01*
X117000D01*
X118743Y161257D01*
X121127D01*
X122000Y160384D01*
X139366D01*
X143418Y156332D01*
X145966D01*
X146912Y155386D01*
Y154086D01*
X147542Y153456D01*
X148724D01*
X149866Y152313D01*
Y151092D01*
X150734Y150225D01*
X153176D01*
X154719Y148682D01*
Y148623D01*
G01X112500Y153416D02*
X139544D01*
X140371Y152589D01*
Y151052D01*
X141356Y150067D01*
X142735D01*
X143799Y149004D01*
Y147979D01*
X144587Y147191D01*
X145611D01*
X146675Y146128D01*
Y145024D01*
X147700Y144000D01*
X148961D01*
X150434Y145474D01*
X151569D01*
G01X103500Y170600D02*
X104000Y171100D01*
Y177500D01*
X105250Y178750D01*
X178750D01*
X181500Y176000D01*
Y172750D01*
X184500Y169750D01*
Y151200D01*
X183500Y150200D01*
X182500D01*
X181500Y149200D01*
Y148100D01*
X180400Y147000D01*
X175250D01*
X173628Y148622D01*
X173618D01*
G01X176767D02*
X178395Y150250D01*
X180650D01*
X181500Y151100D01*
Y168500D01*
X177500Y172500D01*
Y175500D01*
X176500Y176500D01*
X122000D01*
X118200Y172700D01*
X113600D01*
X111500Y170600D01*
G01X115750Y161500D02*
Y160650D01*
X118300Y158100D01*
X120600D01*
X121984Y159484D01*
X138440D01*
X141908Y156017D01*
X144548Y153377D01*
X145690D01*
X146793Y152274D01*
Y151131D01*
X147621Y150304D01*
X148803D01*
X150484Y148623D01*
X151569D01*
G01X115500Y170600D02*
X124000D01*
X125500Y172100D01*
X166800D01*
X172650Y166250D01*
X177050D01*
X178400Y164900D01*
Y153404D01*
X176768Y151773D01*
G01X166601Y40864D02*
Y40844D01*
X167169Y40276D01*
Y38861D01*
X168255Y37776D01*
X174814D01*
X175800Y38761D01*
Y50914D01*
X171939Y54776D01*
X168833D01*
X168419Y55190D01*
Y58940D01*
X167333Y60026D01*
X165755D01*
X164669Y58940D01*
Y55026D01*
X164169Y54526D01*
X163419D01*
X162919Y55026D01*
Y58940D01*
X161833Y60026D01*
X160255D01*
X159169Y58940D01*
Y55026D01*
X158669Y54526D01*
X157919D01*
X157419Y55026D01*
Y58940D01*
X156333Y60026D01*
X154755D01*
X153669Y58940D01*
Y58026D01*
X153169Y57526D01*
X150419D01*
X149919Y58026D01*
Y60026D01*
X150919Y61026D01*
Y63776D01*
X149669Y65026D01*
X145583D01*
X145169Y65440D01*
Y71940D01*
X144083Y73026D01*
X131673D01*
X131173Y73526D01*
Y76526D01*
X129523Y79331D01*
G01X169750Y40864D02*
X169919D01*
Y42126D01*
X169519Y42526D01*
X168619D01*
X168169Y42076D01*
Y39276D01*
X168669Y38776D01*
X174400D01*
X174800Y39176D01*
Y50500D01*
X171524Y53776D01*
X168419D01*
X167419Y54776D01*
Y58526D01*
X166919Y59026D01*
X166169D01*
X165669Y58526D01*
Y54611D01*
X164583Y53526D01*
X163005D01*
X161919Y54611D01*
Y58526D01*
X161419Y59026D01*
X160669D01*
X160169Y58526D01*
Y54611D01*
X159083Y53526D01*
X157505D01*
X156419Y54611D01*
Y58526D01*
X155919Y59026D01*
X155169D01*
X154669Y58526D01*
Y57611D01*
X153583Y56526D01*
X150005D01*
X148919Y57611D01*
Y60440D01*
X149919Y61440D01*
Y63361D01*
X149255Y64026D01*
X145169D01*
X144169Y65026D01*
Y71526D01*
X143669Y72026D01*
X129769D01*
X129269Y72526D01*
Y73376D01*
X130169Y74276D01*
Y75681D01*
X129669Y76181D01*
X129523D01*
G01X127500Y170600D02*
X136400D01*
X138000Y169000D01*
X141750D01*
X143350Y170600D01*
X145150D01*
X146750Y169000D01*
X149250D01*
X150250Y168000D01*
X163250D01*
X173328Y157922D01*
X175258Y155991D01*
X175700D01*
X176768Y154922D01*
G01Y158072D02*
X174451D01*
X164400Y168123D01*
X163523Y169000D01*
X150750D01*
X149250Y170500D01*
X147600D01*
X147500Y170600D01*
G01X151500D02*
X152050Y170050D01*
X166950D01*
X172219Y164781D01*
Y162622D01*
X172950Y161891D01*
X173619Y161222D01*
G01X189328Y110865D02*
X191000Y109192D01*
Y77400D01*
X188900Y75300D01*
Y66650D01*
X184000Y61750D01*
Y55500D01*
X186500Y53000D01*
Y47000D01*
X186750Y46750D01*
G01X198900Y35600D02*
X197000D01*
X195100Y33700D01*
Y31400D01*
X194700Y31000D01*
X188100D01*
X187100Y32000D01*
Y44850D01*
X188500Y46250D01*
Y47250D01*
X187600Y48150D01*
Y52100D01*
X191000Y55500D01*
Y59200D01*
X198297Y66497D01*
Y73472D01*
X197000Y74769D01*
Y82500D01*
X197250Y82750D01*
Y96643D01*
X195627Y98266D01*
G01X193500Y33600D02*
Y33500D01*
X192200Y32200D01*
X189000D01*
X188000Y33200D01*
Y38000D01*
X188500Y38500D01*
X189700D01*
X193000Y41800D01*
Y58100D01*
X198800Y63900D01*
X204800D01*
X209750Y68850D01*
Y84250D01*
X206500Y87500D01*
Y111900D01*
X201200Y117200D01*
X198200D01*
X196200Y119200D01*
Y122650D01*
X194200Y124650D01*
Y130900D01*
X193800Y131300D01*
Y131400D01*
X191800D01*
X190900Y132300D01*
Y146500D01*
X191400Y147000D01*
X196200D01*
X197300Y148100D01*
Y152700D01*
X196500Y153500D01*
X193939D01*
X192516Y154922D01*
G01X189000Y40000D02*
X192000Y43000D01*
Y58550D01*
X201750Y68300D01*
Y72750D01*
X200300Y74200D01*
Y114450D01*
X199250Y115500D01*
X198000D01*
X195000Y118500D01*
Y122000D01*
X191000Y126000D01*
Y128000D01*
X192516Y129516D01*
Y129726D01*
G01X198816Y158070D02*
X197300Y156554D01*
Y154300D01*
X198300Y153300D01*
X199400D01*
X200500Y152200D01*
Y148100D01*
X199600Y147200D01*
X198200D01*
X197300Y146300D01*
Y144800D01*
X196500Y144000D01*
X194400D01*
X194000Y143600D01*
Y135200D01*
X194900Y134300D01*
X196700D01*
X197300Y133700D01*
Y119800D01*
X198500Y118600D01*
X201500D01*
X207600Y112500D01*
Y88200D01*
X210650Y85150D01*
Y68477D01*
X204873Y62700D01*
X199200D01*
X193900Y57400D01*
Y40300D01*
X191500Y37900D01*
Y36200D01*
X191600Y36100D01*
G01X187500Y54750D02*
Y63000D01*
X190100Y65600D01*
Y74600D01*
X192600Y77100D01*
Y92800D01*
X194000Y94200D01*
Y108250D01*
X195000Y109250D01*
X196250D01*
X197250Y110250D01*
Y114750D01*
X194000Y118000D01*
Y121000D01*
X189367Y125633D01*
Y129726D01*
G01X194750Y183500D02*
Y182000D01*
X201250Y175500D01*
Y168750D01*
X202400Y167600D01*
X208400D01*
X212000Y164000D01*
Y153500D01*
X213000Y152500D01*
Y140000D01*
X212000Y139000D01*
Y135750D01*
X212750Y135000D01*
X214750D01*
X217250Y132500D01*
X217400D01*
G01X201884Y126495D02*
X203400Y128011D01*
Y130600D01*
X204000Y131200D01*
X205600D01*
X206750Y130050D01*
Y122500D01*
X207550Y121700D01*
X209550D01*
X210750Y120500D01*
Y109050D01*
X215000Y104800D01*
Y91400D01*
X213400Y89800D01*
Y68400D01*
X207600Y62600D01*
Y56400D01*
X207000Y55800D01*
Y52100D01*
X208500Y50600D01*
Y42800D01*
X209000Y42300D01*
Y39490D01*
X208110Y38600D01*
X206300D01*
X205700Y38000D01*
Y33900D01*
X205500Y33700D01*
G01X205034Y129644D02*
Y123334D01*
X203500Y121800D01*
Y119600D01*
X204400Y118700D01*
X205800D01*
X206500Y118000D01*
Y115000D01*
X208900Y112600D01*
Y109000D01*
X212000Y105900D01*
Y68350D01*
X204400Y60750D01*
Y55300D01*
X205550Y54150D01*
Y50750D01*
X203600Y48800D01*
Y36400D01*
X203200Y36000D01*
Y35900D01*
G01X201926Y120314D02*
X200300Y121940D01*
Y133800D01*
X201000Y134500D01*
X206000D01*
X210500Y130000D01*
Y125250D01*
X211750Y124000D01*
Y116750D01*
X215000Y113500D01*
Y107500D01*
X216000Y106500D01*
Y91100D01*
X214600Y89700D01*
Y68100D01*
X209100Y62600D01*
Y56400D01*
X208100Y55400D01*
Y52500D01*
X211700Y48900D01*
Y40600D01*
X207500Y36400D01*
Y36200D01*
G01X211300Y35100D02*
Y38900D01*
X212800Y40400D01*
Y46100D01*
X217400Y50700D01*
Y61000D01*
X219500Y63100D01*
Y113500D01*
X218000Y115000D01*
X216750D01*
X213900Y117850D01*
Y126820D01*
X215000Y127920D01*
Y129080D01*
X210000Y134080D01*
Y142250D01*
X210900Y143150D01*
Y151123D01*
X210000Y152023D01*
Y162000D01*
X209300Y162700D01*
X203637D01*
X201965Y164371D01*
G01X214000Y33700D02*
X213800D01*
X212800Y34700D01*
Y39000D01*
X214000Y40200D01*
Y45600D01*
X218550Y50150D01*
Y60450D01*
X220500Y62400D01*
Y104500D01*
X222750Y106750D01*
Y117750D01*
X222000Y118500D01*
X217210D01*
X215000Y120710D01*
Y126647D01*
X215900Y127547D01*
Y129453D01*
X215000Y130353D01*
Y133080D01*
X214180Y133900D01*
X211827D01*
X211000Y134727D01*
Y140750D01*
X211800Y141550D01*
Y151496D01*
X211000Y152296D01*
Y163200D01*
X207950Y166250D01*
X200500D01*
X198750Y164500D01*
G01X200000Y185000D02*
Y180500D01*
X205700Y174800D01*
Y169600D01*
X206500Y168800D01*
X208800D01*
X215000Y162600D01*
Y155700D01*
X214250Y154950D01*
Y139750D01*
X215250Y138750D01*
Y136000D01*
X216450Y134800D01*
X217600D01*
X219250Y133150D01*
Y130250D01*
X217500Y128500D01*
G01X217400Y120500D02*
X222750Y125850D01*
Y133500D01*
X216000Y140250D01*
Y147100D01*
X217400Y148500D01*
G01Y124500D02*
X217500D01*
X219250Y126250D01*
Y128750D01*
X220250Y129750D01*
Y133727D01*
X217477Y136500D01*
X217400D01*
G01X219750Y142500D02*
Y148750D01*
X218000Y150500D01*
X217250D01*
X215750Y152000D01*
Y155000D01*
X217250Y156500D01*
X217400D01*
G01Y152500D02*
X217500Y152400D01*
X221600D01*
X223400Y150600D01*
Y137000D01*
X224000Y136400D01*
Y108000D01*
X225000Y107000D01*
Y102600D01*
X227100Y100500D01*
G01X217400Y160500D02*
Y159000D01*
X224600Y151800D01*
Y140200D01*
X225250Y139550D01*
Y109350D01*
X228900Y105700D01*
X229000D01*
Y98400D01*
X227100Y96500D01*
G01X227400Y132500D02*
X229500Y134600D01*
Y154400D01*
X227400Y156500D01*
G01Y144500D02*
X225750Y146150D01*
Y158850D01*
X227400Y160500D01*
G54D16*
G01X271100Y88100D02*
Y88000D01*
X272800Y86300D01*
Y83400D01*
X262300Y72900D01*
Y58600D01*
X266400Y54500D01*
Y35700D01*
X246500Y15800D01*
Y2900D01*
X242100Y-1500D01*
X15700D01*
X6600Y7600D01*
X-5000D01*
X-13800Y-1200D01*
X-31800D01*
X-38500Y5500D01*
Y46250D01*
X-30000Y54750D01*
G01X-300Y29800D02*
X726Y28774D01*
X1574D01*
X4750Y31950D01*
X10850D01*
X13400Y34500D01*
X18252D01*
X20300Y32452D01*
X27942D01*
G01X40000Y5000D02*
X45100Y-100D01*
X241300D01*
X244825Y3425D01*
Y16325D01*
X264800Y36300D01*
Y54000D01*
X261000Y57800D01*
Y73600D01*
X271100Y83700D01*
Y84900D01*
G01X56330Y29349D02*
X57910Y27770D01*
X69730D01*
X71900Y25600D01*
X75800D01*
X81200Y20200D01*
Y19400D01*
G01X85950Y33500D02*
X83450Y36000D01*
X74250D01*
X73000Y34750D01*
X68250D01*
X66159Y32659D01*
X66141D01*
G54D17*
G01X-33615Y34391D02*
Y34376D01*
G01Y31242D02*
Y31226D01*
G54D18*
G01Y18643D02*
Y18628D01*
X-33387Y18400D01*
X-29585D01*
X-29050Y18935D01*
Y20200D01*
X-26525Y22725D01*
X-17240D01*
X-14650Y20135D01*
Y16365D01*
X-19100Y11915D01*
Y11850D01*
G01X-33615Y15494D02*
X-31759Y17350D01*
X-31050D01*
X-30600Y16900D01*
Y16000D01*
X-30200Y15600D01*
X-29600D01*
X-29200Y16000D01*
Y17300D01*
X-28000Y18500D01*
Y19765D01*
X-26090Y21675D01*
X-17675D01*
X-15700Y19700D01*
Y16800D01*
X-18400Y14100D01*
X-19100D01*
G01X-33615Y34376D02*
X-32565Y33326D01*
X-26076D01*
X-25000Y32250D01*
X-19650D01*
X-18550Y33350D01*
X-17900D01*
X-17800Y33450D01*
G01X-33615Y31226D02*
X-32565Y32276D01*
X-26511D01*
X-25435Y31200D01*
X-18665D01*
X-18636Y31229D01*
X-18508Y31100D01*
X-17900D01*
X-17800Y31200D01*
G01X-18000Y6500D02*
X-18600Y7100D01*
X-20985D01*
X-26150Y12265D01*
Y16585D01*
X-25085Y17650D01*
X-23815D01*
X-23807Y17643D01*
X-23400Y18050D01*
G01Y15750D02*
Y16025D01*
X-23975Y16600D01*
X-24650D01*
X-25100Y16150D01*
Y12700D01*
X-23081Y10681D01*
X-22245D01*
X-21560Y11366D01*
X-20923Y11366D01*
X-20287Y10730D01*
Y10094D01*
X-21033Y9347D01*
Y8711D01*
X-20472Y8150D01*
X-18600D01*
X-18000Y8750D01*
G01X-12000Y32750D02*
X-11250Y32000D01*
X-10750D01*
X-10250Y32500D01*
Y39015D01*
X-13985Y42750D01*
X-16135D01*
X-17550Y44165D01*
Y45800D01*
X-17950Y46200D01*
X-18550D01*
X-19000Y45750D01*
Y44000D01*
X-19500Y43500D01*
X-20250D01*
X-20750Y44000D01*
Y45000D01*
G01X-12000Y30500D02*
X-11842D01*
X-11392Y30950D01*
X-10315D01*
X-9200Y32065D01*
Y39450D01*
X-13550Y43800D01*
X-15700D01*
X-16500Y44600D01*
Y46235D01*
X-17515Y47250D01*
X-20750D01*
G01Y49500D02*
X-20150Y50100D01*
X-19350D01*
X-19000Y49750D01*
Y49000D01*
X-18568Y48568D01*
X-17932D01*
X-17500Y49000D01*
Y49600D01*
X-17000Y50100D01*
X-16350D01*
X-15750Y49500D01*
Y49000D01*
X-15250Y48500D01*
X-14750D01*
X-14250Y49000D01*
Y49750D01*
X-13900Y50100D01*
X-13100D01*
X-12650Y49650D01*
Y47665D01*
X-10000Y45015D01*
Y43015D01*
X-7100Y40115D01*
Y22715D01*
X-3000Y18615D01*
Y15735D01*
X-4435Y14300D01*
X-5285D01*
X-5292Y14293D01*
X-5600Y14600D01*
G01X-20750Y51750D02*
Y51650D01*
X-20250Y51150D01*
X-12665D01*
X-11600Y50085D01*
Y48100D01*
X-8950Y45450D01*
Y43450D01*
X-6050Y40550D01*
Y23150D01*
X-1950Y19050D01*
Y15300D01*
X-4000Y13250D01*
X-4850D01*
X-5600Y12500D01*
Y12400D01*
G01X220300Y44200D02*
X219500Y43400D01*
Y26600D01*
X203350Y10450D01*
X91450D01*
X88500Y13400D01*
Y50300D01*
X90150Y51950D01*
Y70250D01*
X94900Y75000D01*
Y102200D01*
X96450Y103750D01*
Y129235D01*
X101615Y134400D01*
X122800D01*
X124850Y132350D01*
X125998D01*
X126448Y132800D01*
X126372Y132875D01*
G01X217900Y44200D02*
X218450Y43650D01*
Y27035D01*
X202915Y11500D01*
X91885D01*
X89550Y13835D01*
Y49865D01*
X91200Y51515D01*
Y69815D01*
X95950Y74565D01*
Y101765D01*
X97500Y103315D01*
Y128800D01*
X102050Y133350D01*
X122365D01*
X124415Y131300D01*
X127947D01*
X129522Y132875D01*
G54D19*
G01X144750Y33187D02*
X143663Y32099D01*
X139963Y28400D01*
X113850D01*
X110400Y31850D01*
Y63442D01*
X108750Y65092D01*
Y69250D01*
X106700Y71300D01*
Y93300D01*
X118940Y105540D01*
Y108630D01*
X119610Y109300D01*
X134200D01*
X134717Y108783D01*
X134754D01*
X135841Y107696D01*
G01X126392D02*
X124896Y106200D01*
X122275D01*
X121800Y105725D01*
Y103325D01*
X121275Y102800D01*
X118200D01*
X108000Y92600D01*
Y72000D01*
X110250Y69750D01*
Y65414D01*
X111713Y63951D01*
Y62500D01*
X112213Y62000D01*
X113475D01*
X113975Y61500D01*
Y60750D01*
X113475Y60250D01*
X112213D01*
X111713Y59750D01*
Y59000D01*
X112213Y58500D01*
X113475D01*
X113975Y58000D01*
Y57250D01*
X113475Y56750D01*
X112213D01*
X111713Y56250D01*
Y55500D01*
X112213Y55000D01*
X113475D01*
X113975Y54500D01*
Y53750D01*
X113475Y53250D01*
X112213D01*
X111713Y52750D01*
Y52000D01*
X112213Y51500D01*
X113475D01*
X113975Y51000D01*
Y50250D01*
X113475Y49750D01*
X112213D01*
X111713Y49250D01*
Y48500D01*
X112213Y48000D01*
X113475D01*
X113975Y47500D01*
Y46750D01*
X113475Y46250D01*
X112213D01*
X111713Y45750D01*
Y32537D01*
X114500Y29750D01*
X120500D01*
X121128Y30378D01*
Y33187D01*
G01X129542Y101396D02*
X128500D01*
X128000Y101897D01*
Y104425D01*
X127525Y104900D01*
X125225D01*
X124750Y104425D01*
Y102000D01*
X124250Y101500D01*
X118750D01*
X115500Y98250D01*
Y93250D01*
X115000Y92750D01*
X110000D01*
X109500Y92250D01*
Y72500D01*
X111701Y70299D01*
Y65767D01*
X115250Y62218D01*
Y38913D01*
X113254Y36918D01*
Y33187D01*
G01X140813D02*
X140750D01*
Y31000D01*
X139500Y29750D01*
X136250D01*
X135750Y30250D01*
Y31750D01*
X135250Y32250D01*
X134500D01*
X134000Y31750D01*
Y30250D01*
X133500Y29750D01*
X123505D01*
X123005Y30250D01*
Y32229D01*
X123000Y32234D01*
Y33750D01*
X121000Y35750D01*
Y36750D01*
X123000Y38750D01*
Y40500D01*
X122500Y41000D01*
X120500D01*
X120000Y41500D01*
Y42250D01*
X120500Y42750D01*
X125475D01*
X125975Y43250D01*
Y44000D01*
X125475Y44500D01*
X121500D01*
X121000Y45000D01*
Y45750D01*
X121500Y46250D01*
X125475D01*
X125975Y46750D01*
Y47500D01*
X125475Y48000D01*
X121500D01*
X121000Y48500D01*
Y60250D01*
X114500Y66750D01*
Y71500D01*
X112500Y73500D01*
Y85500D01*
X118500Y91500D01*
Y97000D01*
X119728Y98228D01*
X120074D01*
G01X117191Y33187D02*
Y36691D01*
X119250Y38750D01*
Y40250D01*
X118750Y40750D01*
X117250D01*
X116750Y41250D01*
Y44000D01*
X117250Y44500D01*
X119000D01*
X119500Y45000D01*
Y45750D01*
X119000Y46250D01*
X117250D01*
X116750Y46750D01*
Y47500D01*
X117250Y48000D01*
X119000D01*
X119500Y48500D01*
Y49250D01*
X119000Y49750D01*
X117250D01*
X116750Y50250D01*
Y51000D01*
X117250Y51500D01*
X119000D01*
X119500Y52000D01*
Y52750D01*
X119000Y53250D01*
X117250D01*
X116750Y53750D01*
Y54500D01*
X117250Y55000D01*
X119000D01*
X119500Y55500D01*
Y56250D01*
X119000Y56750D01*
X117250D01*
X116750Y57250D01*
Y58000D01*
X117250Y58500D01*
X119000D01*
X119500Y59000D01*
Y59750D01*
X119000Y60250D01*
X117250D01*
X116750Y60750D01*
Y62592D01*
X112976Y66367D01*
Y71024D01*
X111000Y73000D01*
Y87850D01*
X111950Y88800D01*
X113800D01*
X117000Y92000D01*
Y97750D01*
X119180Y99930D01*
X127859D01*
X129542Y98247D01*
G01X135841Y101396D02*
X135354D01*
X134250Y102500D01*
Y105500D01*
X133750Y106000D01*
X131579D01*
X131079Y105500D01*
Y97610D01*
X130114Y96645D01*
X122395D01*
X121512Y95762D01*
Y91334D01*
X120670Y90492D01*
X119492D01*
X114000Y85000D01*
Y74000D01*
X116000Y72000D01*
Y67250D01*
X124250Y59000D01*
X126750D01*
X127250Y58500D01*
Y57750D01*
X126750Y57250D01*
X123000D01*
X122500Y56750D01*
Y56000D01*
X123000Y55500D01*
X126750D01*
X127250Y55000D01*
Y54250D01*
X126750Y53750D01*
X123000D01*
X122500Y53250D01*
Y52275D01*
X122975Y51800D01*
X126700D01*
X127250Y51250D01*
Y38750D01*
X125596Y37096D01*
Y35544D01*
X126438Y34702D01*
X127487D01*
X129002Y33187D01*
G01X129542Y95097D02*
X128425D01*
X126828Y93500D01*
X125500D01*
X124955Y92955D01*
Y91455D01*
X123992Y90492D01*
X122492D01*
X121512Y89512D01*
Y88012D01*
X120750Y87250D01*
X118750D01*
X118250Y86750D01*
Y85000D01*
X117750Y84500D01*
X116000D01*
X115500Y84000D01*
Y74500D01*
X117500Y72500D01*
Y67750D01*
X124500Y60750D01*
X131500D01*
X132000Y60250D01*
Y59500D01*
X131500Y59000D01*
X129500D01*
X129000Y58500D01*
Y57750D01*
X129500Y57250D01*
X131500D01*
X132000Y56750D01*
Y56000D01*
X131500Y55500D01*
X129250D01*
X128750Y55000D01*
Y54250D01*
X129250Y53750D01*
X131500D01*
X132000Y53250D01*
Y52500D01*
X131500Y52000D01*
X130775D01*
X130300Y51525D01*
Y49225D01*
X130775Y48750D01*
X131500D01*
X132000Y48250D01*
Y47500D01*
X131500Y47000D01*
X129250D01*
X128750Y46500D01*
Y45750D01*
X129250Y45250D01*
X131500D01*
X132000Y44750D01*
Y44000D01*
X131500Y43500D01*
X129250D01*
X128750Y43000D01*
Y42250D01*
X129250Y41750D01*
X131000D01*
X131500Y41250D01*
Y39557D01*
X129056Y37113D01*
Y35800D01*
X131402Y33454D01*
Y31750D01*
X130902Y31250D01*
X125000D01*
X124500Y31750D01*
Y32687D01*
X125000Y33187D01*
X125065D01*
G01X138948Y107653D02*
X137397Y106102D01*
Y103500D01*
X137897Y103000D01*
X140000D01*
X140600Y102400D01*
Y100540D01*
X140000Y99940D01*
X137897D01*
X137397Y99440D01*
Y97441D01*
X136610Y96654D01*
X135154D01*
X134248Y95748D01*
Y94479D01*
X133328Y93560D01*
X132310D01*
X131079Y92329D01*
Y91311D01*
X130179Y90410D01*
X128905D01*
X127930Y89435D01*
Y88161D01*
X127018Y87250D01*
X126000D01*
X125836Y87086D01*
X125796D01*
X124955Y86244D01*
Y85261D01*
X123693Y84000D01*
X122500D01*
X121512Y83012D01*
Y81885D01*
X120670Y81043D01*
X119293D01*
X118500Y80250D01*
Y75500D01*
X120500Y73500D01*
Y68750D01*
X125500Y63750D01*
X133500D01*
X135000Y62250D01*
Y57250D01*
X135500Y56750D01*
X137669D01*
X138169Y56250D01*
Y53750D01*
X138669Y53250D01*
X140000D01*
X140500Y52750D01*
Y51026D01*
X141000Y50526D01*
X142419D01*
X142919Y50026D01*
Y49276D01*
X142419Y48776D01*
X141000D01*
X140500Y48276D01*
Y47500D01*
X141000Y47000D01*
X142750D01*
X143250Y46500D01*
Y45750D01*
X142750Y45250D01*
X141000D01*
X140500Y44750D01*
Y44000D01*
X141000Y43500D01*
X142750D01*
X143250Y43000D01*
Y42250D01*
X142750Y41750D01*
X140500D01*
X138414Y39664D01*
Y38164D01*
X136876Y36626D01*
Y33187D01*
G01X132939D02*
Y36918D01*
X134477Y38455D01*
Y39773D01*
X133500Y40750D01*
Y41250D01*
X134000Y41750D01*
X138500D01*
X139000Y42250D01*
Y43000D01*
X138500Y43500D01*
X134000D01*
X133500Y44000D01*
Y44750D01*
X134000Y45250D01*
X138500D01*
X139000Y45750D01*
Y46500D01*
X138500Y47000D01*
X134000D01*
X133500Y47500D01*
Y48250D01*
X134000Y48750D01*
X136225D01*
X136700Y49225D01*
Y51300D01*
X136121Y51879D01*
X134000D01*
X133525Y52354D01*
Y53025D01*
X134000Y53500D01*
X136250D01*
X136750Y54000D01*
Y54750D01*
X136250Y55250D01*
X134000D01*
X133500Y55750D01*
Y61750D01*
X133000Y62250D01*
X125000D01*
X119000Y68250D01*
Y73000D01*
X117000Y75000D01*
Y81750D01*
X119276Y84026D01*
X120669D01*
X121512Y84868D01*
Y86012D01*
X122750Y87250D01*
X124000D01*
X124955Y88205D01*
Y89393D01*
X125796Y90235D01*
X125900D01*
X126000Y90335D01*
X126835D01*
X127930Y91430D01*
Y92630D01*
X128860Y93560D01*
X130310D01*
X131154Y94404D01*
Y95654D01*
X132250Y96750D01*
X133250D01*
X134248Y97748D01*
Y99840D01*
X132691Y101396D01*
G01X123224Y79331D02*
Y78971D01*
X124669Y77526D01*
Y69276D01*
X126669Y67276D01*
X138669D01*
X139169Y66776D01*
Y60776D01*
X148169Y51776D01*
X148669D01*
X149169Y51276D01*
Y40026D01*
X150919Y38276D01*
Y33526D01*
X149169Y31776D01*
Y27276D01*
X149669Y26776D01*
X155169D01*
X155669Y27276D01*
Y29026D01*
X156419Y29776D01*
X157669D01*
X158669Y30776D01*
Y32776D01*
X159169Y33276D01*
X161269D01*
X161769Y33776D01*
Y34526D01*
X161269Y35026D01*
X159169D01*
X158669Y35526D01*
Y36276D01*
X159169Y36776D01*
X161269D01*
X161769Y37276D01*
Y45076D01*
X162269Y45576D01*
X168169D01*
X169731Y44013D01*
X169750D01*
G01X126374Y79331D02*
X125414D01*
X123876Y80868D01*
X122587D01*
X121687Y79968D01*
Y75000D01*
X121937Y74750D01*
X121944D01*
X123169Y73526D01*
Y68776D01*
X126169Y65776D01*
X136919D01*
X137419Y65276D01*
Y60526D01*
X146169Y51776D01*
Y40026D01*
X147669Y38526D01*
Y33526D01*
X146169Y32026D01*
Y24026D01*
X146669Y23526D01*
X158169D01*
X158700Y24057D01*
Y28807D01*
X159669Y29776D01*
X161169D01*
X161919Y30526D01*
Y32026D01*
X163419Y33526D01*
Y37276D01*
X164919Y38776D01*
Y43513D01*
X164419Y44013D01*
X163451D01*
G01Y47163D02*
X164000Y47712D01*
Y48300D01*
X163500Y48800D01*
X156193D01*
X155500Y48107D01*
Y46194D01*
X156169Y45526D01*
X158225D01*
X158700Y45051D01*
Y43000D01*
X158225Y42526D01*
X156169D01*
X155669Y42026D01*
Y39026D01*
X156169Y38526D01*
X157169D01*
X157669Y38026D01*
Y37276D01*
X157169Y36776D01*
X156169D01*
X155669Y36276D01*
Y35526D01*
X156169Y35026D01*
X157169D01*
X157669Y34526D01*
Y33776D01*
X157169Y33276D01*
X156169D01*
X155669Y32776D01*
Y31026D01*
X154419Y29776D01*
X152969D01*
X152300Y30445D01*
Y32357D01*
X152969Y33026D01*
X153980D01*
X154419Y33465D01*
Y34086D01*
X153980Y34526D01*
X152919D01*
X152419Y35026D01*
Y37276D01*
X152919Y37776D01*
X153919D01*
X154419Y38276D01*
Y38776D01*
X153919Y39276D01*
X152969D01*
X152469Y39776D01*
Y52776D01*
X151969Y53276D01*
X148669D01*
X140669Y61276D01*
Y68276D01*
X140169Y68776D01*
X127169D01*
X126000Y69945D01*
Y74270D01*
X126374Y74644D01*
Y76181D01*
G01X135841Y88798D02*
X136723D01*
X137169Y88352D01*
Y87722D01*
X136723Y87276D01*
X134675D01*
X134200Y87750D01*
Y89400D01*
X133200Y90400D01*
X131993D01*
X131135Y89542D01*
Y87776D01*
X130635Y87276D01*
X128858D01*
X128419Y86836D01*
Y86215D01*
X128858Y85776D01*
X130635D01*
X131135Y85276D01*
Y84776D01*
X130535Y84176D01*
X125769D01*
X124869Y83276D01*
Y81776D01*
X125769Y80876D01*
X127069D01*
X127969Y79976D01*
Y79292D01*
X127986Y79276D01*
Y70776D01*
X128486Y70276D01*
X141669D01*
X142169Y69776D01*
Y64026D01*
X144169Y62026D01*
Y59776D01*
X149169Y54776D01*
X153419D01*
X153919Y54276D01*
Y52276D01*
X154394Y51800D01*
X164394D01*
X165100Y51094D01*
Y49250D01*
X165575Y48776D01*
X167669D01*
X168169Y49276D01*
Y51276D01*
X168793Y51900D01*
X170400D01*
X171363Y50938D01*
Y42776D01*
X171863Y42276D01*
X172400D01*
X172900Y42776D01*
Y44013D01*
G01X166601Y28265D02*
X165419D01*
X164919Y28765D01*
Y36776D01*
X165419Y37276D01*
X166669D01*
X167169Y36776D01*
Y33026D01*
X167669Y32526D01*
X168465D01*
X168965Y33026D01*
Y34026D01*
X169465Y34526D01*
X176919D01*
X177419Y35026D01*
Y52026D01*
X167669Y61776D01*
X153919D01*
X153419Y62276D01*
Y66518D01*
X152919Y67018D01*
X147419D01*
X146919Y67518D01*
Y74026D01*
X146419Y74526D01*
X144169D01*
X143669Y75026D01*
Y76776D01*
X142669Y77776D01*
X141169D01*
X140669Y78276D01*
Y79831D01*
X139450Y81050D01*
X130050D01*
X129542Y81558D01*
Y82499D01*
G01X163451Y25116D02*
X165026Y26691D01*
X167584D01*
X168269Y27376D01*
Y29076D01*
X168969Y29776D01*
X170569D01*
X171269Y29076D01*
Y27391D01*
X171969Y26691D01*
X173584D01*
X182169Y35276D01*
Y41776D01*
X180419Y43526D01*
Y44526D01*
X182169Y46276D01*
Y51276D01*
X168669Y64776D01*
X165169D01*
X163419Y66526D01*
X156919D01*
X156419Y67026D01*
Y69526D01*
X155919Y70026D01*
X150419D01*
X149919Y70526D01*
Y76776D01*
X148419Y78276D01*
Y80581D01*
X144974Y84026D01*
X141719D01*
X140669Y85076D01*
Y86081D01*
X139474Y87276D01*
X138569D01*
X136942Y85648D01*
X135841D01*
G01X132673Y85630D02*
Y84327D01*
X133000Y84000D01*
X139600D01*
X140669Y82931D01*
Y81676D01*
X141319Y81026D01*
X146169D01*
X146919Y80276D01*
Y77776D01*
X148419Y76276D01*
Y69081D01*
X148974Y68526D01*
X154419D01*
X154919Y68026D01*
Y63776D01*
X155419Y63276D01*
X156169D01*
X156669Y63776D01*
Y64526D01*
X157169Y65026D01*
X157919D01*
X158419Y64526D01*
Y63776D01*
X158919Y63276D01*
X159669D01*
X160169Y63776D01*
Y64526D01*
X160669Y65026D01*
X162919D01*
X163419Y64526D01*
Y63776D01*
X163919Y63276D01*
X168169D01*
X180583Y50861D01*
Y50190D01*
X180169Y49776D01*
X179419D01*
X178919Y49276D01*
Y48526D01*
X179419Y48026D01*
X180169D01*
X180669Y47526D01*
Y46776D01*
X180169Y46276D01*
X179419D01*
X178919Y45776D01*
Y42223D01*
X179394Y41748D01*
X180169D01*
X180669Y41248D01*
Y40349D01*
X180169Y39849D01*
X179394D01*
X178919Y39374D01*
Y38526D01*
X179419Y38026D01*
X180169D01*
X180669Y37526D01*
Y36776D01*
X180169Y36276D01*
X179419D01*
X178919Y35776D01*
Y34026D01*
X177919Y33026D01*
X171769D01*
X171269Y32526D01*
Y30976D01*
X172900Y29344D01*
Y28265D01*
G01X135841Y95060D02*
X135769Y94988D01*
Y94126D01*
X133880Y92236D01*
Y91565D01*
X135069Y90376D01*
X139624D01*
X140669Y89331D01*
Y88026D01*
X141419Y87276D01*
X142669D01*
X144169Y85776D01*
X145169D01*
X149919Y81026D01*
Y78776D01*
X150919Y77776D01*
X152669D01*
X153169Y77276D01*
Y75526D01*
X153669Y75026D01*
X154519D01*
X155019Y74526D01*
Y73776D01*
X154519Y73276D01*
X151919D01*
X151419Y72776D01*
Y72026D01*
X151919Y71526D01*
X158969D01*
X159469Y71026D01*
Y68526D01*
X159969Y68026D01*
X163919D01*
X165669Y66276D01*
X169324D01*
X183700Y51900D01*
Y34700D01*
X174116Y25116D01*
X172900D01*
G01X163451Y28265D02*
X161914Y26728D01*
Y24479D01*
X162867Y23526D01*
X174418D01*
X185169Y34275D01*
Y52276D01*
X169669Y67776D01*
X166169D01*
X161044Y72900D01*
X157400D01*
X156419Y73881D01*
Y76526D01*
X145669Y87276D01*
X144669D01*
X143663Y88282D01*
Y89532D01*
X142925Y90269D01*
X141675D01*
X139976Y91969D01*
X138969D01*
M02*
