G04 ================== begin FILE IDENTIFICATION RECORD ==================*
G04 Layout Name:  BeagleBone AI rev A1-20181221a.brd*
G04 Film Name:    LAY7_PWR*
G04 File Format:  Gerber RS274X*
G04 File Origin:  Cadence Allegro 16.6-2015-S100*
G04 Origin Date:  Fri Dec 21 17:06:42 2018*
G04 *
G04 Layer:  VIA CLASS/PWR_L7*
G04 Layer:  PIN/PWR_L7*
G04 Layer:  ETCH/PWR_L7*
G04 Layer:  BOARD GEOMETRY/OUTLINE*
G04 *
G04 Offset:    (0.000 0.000)*
G04 Mirror:    No*
G04 Mode:      Positive*
G04 Rotation:  0*
G04 FullContactRelief:  No*
G04 UndefLineWidth:     5.000*
G04 ================== end FILE IDENTIFICATION RECORD ====================*
%FSLAX55Y55*MOIN*%
%IR0*IPPOS*OFA0.00000B0.00000*MIA0B0*SFA1.00000B1.00000*%
%ADD11C,.016*%
%ADD13C,.062*%
%ADD12C,.023622*%
%ADD10C,.03937*%
%ADD14C,.025*%
%ADD15C,.005*%
%ADD16C,.024004*%
%ADD21C,.070004*%
%ADD17C,.066004*%
%ADD20C,.086004*%
%ADD19C,.068004*%
%ADD18C,.053626*%
G75*
%LPD*%
G75*
G36*
G01X53700Y101700D02*
X53000Y102400D01*
Y106817D01*
X53136Y106864D01*
G03Y109137I-386J1137D01*
G01X53000Y109183D01*
Y116100D01*
X48000Y121100D01*
X28797D01*
G02X28398Y121475I0J400D01*
G03X26002I-1198J-75D01*
G02X25603Y121100I-399J25D01*
G01X6500D01*
X-2500Y130100D01*
Y145000D01*
X-5900Y148400D01*
X-30600D01*
X-33400Y151200D01*
Y179800D01*
X-29600Y183600D01*
X-13600D01*
X-10706Y180706D01*
G02X-10867Y180043I-283J-283D01*
G03X-9357Y178533I367J-1143D01*
G02X-8694Y178694I381J-122D01*
G01X-8300Y178300D01*
X95841D01*
G02X96106Y177600I0J-400D01*
G03X97694I794J-900D01*
G02X97959Y178300I265J300D01*
G01X104387D01*
G02X104665Y177612I0J-400D01*
G03X106335I835J-862D01*
G02X106613Y178300I278J288D01*
G01X110387D01*
G02X110665Y177612I0J-400D01*
G03X112344Y175896I835J-862D01*
G02X112906I281J-284D01*
G03X114585Y177612I844J854D01*
G02X114863Y178300I278J288D01*
G01X222600D01*
X224700Y176200D01*
Y171986D01*
G02X224100Y171639I-400J0D01*
G03Y169561I-600J-1039D01*
G02X224700Y169214I200J-346D01*
G01Y163439D01*
X223111Y161850D01*
X193539D01*
G03X191494I-1023J-628D01*
G01X190400D01*
G03X188358I-1021J-631D01*
G01X187240D01*
G03X185195I-1023J-628D01*
G01X184090D01*
G03X182045I-1023J-628D01*
G01X180941D01*
G03X178896I-1023J-628D01*
G01X177791D01*
G03X175746I-1023J-628D01*
G01X174642D01*
G03X172596I-1023J-628D01*
G01X165272D01*
G03X163228I-1022J-630D01*
G01X120916D01*
G02X120539Y162386I0J400D01*
G03X118282I-1129J408D01*
G02X117906Y161850I-376J-136D01*
G01X116906D01*
X116854Y161971D01*
G03X114812Y162249I-1104J-471D01*
G02X114188I-313J250D01*
G03X112146Y161971I-937J-749D01*
G01X112094Y161850D01*
X106056D01*
X106004Y161971D01*
G03X103796I-1104J-471D01*
G01X103744Y161850D01*
X103150D01*
G02X102502Y161976I-281J285D01*
G03X100924Y160398I-1102J-476D01*
G02X101048Y159748I-159J-367D01*
G01X99286Y157986D01*
G02X98652Y158077I-283J283D01*
G03X97023Y156447I-1053J-577D01*
G02X97114Y155814I-192J-351D01*
G01X71154Y129854D01*
G02X70483Y130043I-283J283D01*
G03X69033Y128593I-1166J-283D01*
G02X69221Y127921I-94J-389D01*
G01X67200Y125900D01*
Y112261D01*
X67036Y112231D01*
G03Y109869I214J-1181D01*
G01X67200Y109839D01*
Y108711D01*
X67036Y108681D01*
G03Y106319I214J-1181D01*
G01X67200Y106289D01*
Y103500D01*
X65400Y101700D01*
X53700D01*
G37*
G36*
G01X45953Y-3546D02*
G02X45294Y-3694I-376J135D01*
G01X40800Y800D01*
X13700D01*
X4500Y10000D01*
X-23300D01*
X-25450Y12150D01*
Y24744D01*
G02X-24838Y25083I400J0D01*
G03X-24472Y24931I638J1017D01*
G02X-24172Y24456I-91J-390D01*
G03X-22728Y25369I1173J-256D01*
G02X-23028Y25844I91J390D01*
G03X-24838Y27117I-1173J256D01*
G02X-25450Y27456I-213J339D01*
G01Y38750D01*
X-20322Y43878D01*
X-20286Y43893D01*
G03X-19643Y44536I-464J1107D01*
G01X-19628Y44572D01*
X-17400Y46800D01*
X-16323D01*
G02X-15992Y46175I0J-400D01*
G03X-14156Y44646I992J-675D01*
G02X-13594I281J-284D01*
G03X-11758Y46175I844J854D01*
G02X-11427Y46800I331J225D01*
G01X-3725D01*
G03X-3603Y46656I975J700D01*
G02Y46094I-284J-281D01*
G03X-3677Y44487I854J-844D01*
G02X-3764Y43900I-309J-254D01*
G03X-2173Y43663I664J-1000D01*
G02X-2086Y44250I309J254D01*
G03X-1896Y46094I-664J1000D01*
G02Y46656I284J281D01*
G03X-1775Y46800I-854J844D01*
G01X3500D01*
X20000Y30300D01*
X20093D01*
X20128Y30143D01*
G03X20465Y29538I1172J257D01*
G02Y28963I-278J-288D01*
G03X20505Y27201I835J-863D01*
G02X20530Y26626I-265J-300D01*
G03X22195Y26699I870J-826D01*
G02X22170Y27274I265J300D01*
G03X22135Y28963I-870J826D01*
G02Y29538I278J287D01*
G03X22472Y30143I-835J862D01*
G01X22507Y30300D01*
X29631D01*
G02X30006Y29760I0J-400D01*
G03X32256I1125J-418D01*
G02X32631Y30300I375J140D01*
G01X35952D01*
G02X36322Y29747I0J-400D01*
G03X38539I1108J-460D01*
G02X38908Y30300I369J153D01*
G01X51676D01*
G02X52051Y29762I0J-400D01*
G03X54305I1127J-413D01*
G02X54681Y30300I376J138D01*
G01X54828D01*
G02X55203Y29762I0J-400D01*
G03X57457I1127J-413D01*
G02X57833Y30300I376J138D01*
G01X66300D01*
X69150Y27450D01*
Y14550D01*
X71000Y12700D01*
X71102D01*
X71160Y12643D01*
G03X72895Y12700I840J857D01*
G01X80650D01*
X83900Y9450D01*
X174300D01*
X175750Y10900D01*
X175800D01*
X177700Y12800D01*
Y21900D01*
X179500Y23700D01*
X182100D01*
X182625Y24225D01*
X182644Y24237D01*
G03X183013Y24606I-644J1013D01*
G01X183025Y24625D01*
X185095Y26695D01*
X185231Y26603D01*
G03X186897Y28269I669J997D01*
G01X186805Y28405D01*
X187600Y29200D01*
Y38751D01*
G02X188250Y39063I400J0D01*
G03X189749Y40938I750J937D01*
G02Y41562I250J313D01*
G03X189854Y43344I-749J938D01*
G02Y43906I284J281D01*
G03X187971Y45368I-853J844D01*
G01X187913Y45272D01*
X187600D01*
Y45903D01*
G03X187747Y47419I-850J847D01*
G01X187655Y47555D01*
X188072Y47972D01*
G02X188616Y47992I283J-283D01*
G03X190197Y49797I784J909D01*
G01X190192Y49801D01*
X190047Y49947D01*
X190350Y50250D01*
X205407D01*
G02X205805Y49812I0J-400D01*
G03X206128Y48875I1195J-113D01*
G02Y48325I-290J-275D01*
G03X207872I872J-825D01*
G02Y48875I290J275D01*
G03X208195Y49812I-872J825D01*
G02X208593Y50250I398J37D01*
G01X211463D01*
G03X213337I937J750D01*
G01X223150D01*
X226400Y53500D01*
Y61100D01*
X229712Y64412D01*
X229838Y64357D01*
G03X234744Y67775I1412J3203D01*
G02X235143Y68200I399J25D01*
G01X246994D01*
X247046Y68079D01*
G03X249254I1104J471D01*
G01X249306Y68200D01*
X267600D01*
X268494Y67306D01*
G02X268333Y66643I-283J-283D01*
G03X269898Y65431I367J-1143D01*
G01X269903Y65507D01*
X270098Y65702D01*
X270500Y65300D01*
Y55459D01*
G02X269800Y55194I-400J0D01*
G03Y53606I-900J-794D01*
G02X270500Y53341I300J-265D01*
G01Y51559D01*
G02X269800Y51294I-400J0D01*
G03Y49706I-900J-794D01*
G02X270500Y49441I300J-265D01*
G01Y39400D01*
X267400Y36300D01*
X233900D01*
X231628Y34029D01*
G02X231084Y34008I-283J283D01*
G03X230043Y31928I-784J-908D01*
G01X230200Y31893D01*
Y23500D01*
X236400Y17300D01*
Y3700D01*
X233500Y800D01*
X197023D01*
G02X196692Y1425I0J400D01*
G03X194708I-992J675D01*
G02X194377Y800I-331J-225D01*
G01X187020D01*
G02X186640Y1325I0J400D01*
G03X184360I-1140J375D01*
G02X183980Y800I-380J-125D01*
G01X58500D01*
X54498Y-3202D01*
G02X53856Y-3097I-283J283D01*
G03X45953Y-3546I-3856J-1903D01*
G37*
G36*
G01X25812Y116350D02*
G02X26134Y115712I0J-400D01*
G03X28066I966J-712D01*
G02X28388Y116350I322J237D01*
G01X45755D01*
X45781Y116343D01*
G03X46115Y116300I318J1157D01*
G01X46199Y116301D01*
X50600Y111900D01*
Y89600D01*
X46350Y85350D01*
X43749D01*
G02X43437Y86000I0J400D01*
G03X41656Y87604I-937J750D01*
G02X41094I-281J284D01*
G03X39313Y86000I-844J-854D01*
G02X39001Y85350I-312J-250D01*
G01X13260D01*
G02X12908Y85939I0J400D01*
G03X7092I-2908J1561D01*
G02X6740Y85350I-352J-189D01*
G01X1664D01*
G03X-1664I-1664J-2850D01*
G01X-2600D01*
X-3800Y86550D01*
Y95600D01*
X-7100Y98900D01*
X-19200D01*
X-22200Y101900D01*
Y112000D01*
X-17850Y116350D01*
X6907D01*
G03X13093I3093J1150D01*
G01X25812D01*
G37*
G36*
G01X21050Y32150D02*
X9983Y43217D01*
G02X10262Y43900I283J283D01*
G03X11000Y44163I-12J1200D01*
G02X11250I125J-156D01*
G03Y46037I750J937D01*
G02X11000I-125J156D01*
G03X9500I-750J-937D01*
G02X9250I-125J156D01*
G03X7716Y46008I-750J-937D01*
G02X7172Y46029I-261J303D01*
G01X-1350Y54550D01*
Y78950D01*
X-960Y79340D01*
X-848Y79311D01*
G03X3300Y82455I848J3189D01*
G02X3700Y82850I400J-5D01*
G01X17962D01*
G02X18284Y82212I0J-400D01*
G03X20216I966J-712D01*
G02X20538Y82850I322J237D01*
G01X47167D01*
G03X49096Y83897I733J950D01*
G01X49089Y83989D01*
X52800Y87700D01*
Y93500D01*
X54717Y95417D01*
X54837Y95373D01*
G03X55074Y95313I413J1127D01*
G02X55411Y94863I-59J-396D01*
G03X55427Y94444I1189J-163D01*
G02X55127Y93969I-391J-85D01*
G03X56572Y93056I272J-1169D01*
G02X56872Y93531I391J85D01*
G03X56776Y95887I-273J1169D01*
G02X56439Y96337I59J396D01*
G03Y96663I-1189J163D01*
G02X56776Y97113I396J54D01*
G03X57721Y97871I-176J1187D01*
G01X57770Y98000D01*
X69037D01*
X69062Y97829D01*
G03X69520Y97048I1188J171D01*
G02X69532Y96423I-243J-317D01*
G03X71030Y96452I768J-923D01*
G02X71018Y97077I243J317D01*
G03X71438Y97829I-768J923D01*
G01X71463Y98000D01*
X76100D01*
X81000Y102900D01*
Y103061D01*
G02X81575Y103421I400J0D01*
G03Y105579I525J1079D01*
G02X81000Y105939I-175J360D01*
G01Y110157D01*
G02X81362Y110555I400J0D01*
G03Y112945I-113J1195D01*
G02X81000Y113343I38J398D01*
G01Y122200D01*
X105024Y146224D01*
X105067Y146239D01*
G03X105806Y146978I-395J1133D01*
G01X105821Y147021D01*
X108600Y149800D01*
X111121D01*
X111169Y149667D01*
G03X111656Y149055I1131J401D01*
G02X111702Y148414I-215J-337D01*
G03X113333Y146655I783J-910D01*
G02X113899Y146654I283J-283D01*
G03X113902Y148349I851J846D01*
G02X113336Y148350I-283J283D01*
G03X113129Y148517I-851J-846D01*
G02X113083Y149158I215J337D01*
G03X113431Y149667I-783J910D01*
G01X113479Y149800D01*
X124973D01*
G02X125323Y149206I0J-400D01*
G03X127422I1049J-583D01*
G02X127771Y149800I350J194D01*
G01X128123D01*
G02X128473Y149206I0J-400D01*
G03X130571I1049J-583D01*
G02X130921Y149800I350J194D01*
G01X131335D01*
G02X131679Y149196I0J-400D01*
G03X133743I1032J-612D01*
G02X134087Y149800I344J204D01*
G01X134422D01*
G02X134772Y149206I0J-400D01*
G03X136871I1049J-583D01*
G02X137220Y149800I350J194D01*
G01X137542D01*
G02X137899Y149219I0J-400D01*
G03X140039I1070J-543D01*
G02X140396Y149800I357J181D01*
G01X140692D01*
G02X141045Y149212I0J-400D01*
G03X143256Y148308I1060J-564D01*
G02X143922Y148478I384J-113D01*
G01X144119Y148281D01*
X144134Y148237D01*
G03X144700Y147567I1136J386D01*
G01Y146530D01*
G03Y144417I570J-1056D01*
G01Y142400D01*
X146700Y140400D01*
X147049D01*
G02X147392Y139794I0J-400D01*
G03X149448I1028J-619D01*
G02X149790Y140400I343J206D01*
G01X150200D01*
X151040Y141240D01*
X151159Y141196D01*
G03X152067Y143416I410J1128D01*
G01X151950Y143470D01*
Y144328D01*
X152067Y144382D01*
G03Y146566I-498J1092D01*
G01X151950Y146619D01*
Y147478D01*
X152067Y147531D01*
G03X152713Y148260I-498J1092D01*
G01X152758Y148400D01*
X153531D01*
X153575Y148260D01*
G03X155863I1144J363D01*
G01X155907Y148400D01*
X159830D01*
X159874Y148260D01*
G03X162162I1144J363D01*
G01X162206Y148400D01*
X166131D01*
X166176Y148260D01*
G03X168464I1144J363D01*
G01X168508Y148400D01*
X172429D01*
X172473Y148260D01*
G03X174156Y147550I1144J362D01*
G01X174286Y147614D01*
X175760Y146140D01*
X175695Y146011D01*
G03X177306Y144401I1073J-538D01*
G01X177435Y144465D01*
X182059Y139841D01*
X181995Y139712D01*
G03X183605Y138101I1073J-538D01*
G01X183734Y138166D01*
X185269Y136631D01*
X185211Y136504D01*
G03X186804Y134911I1089J-504D01*
G01X186931Y134969D01*
X188358Y133542D01*
X188294Y133413D01*
G03X189904Y131802I1073J-538D01*
G01X190033Y131867D01*
X191508Y130392D01*
X191443Y130263D01*
G03X193054Y128653I1073J-537D01*
G01X193183Y128717D01*
X194658Y127242D01*
X194593Y127114D01*
G03X195766Y125380I1073J-538D01*
G02X196200Y124981I34J-399D01*
G01Y115605D01*
G02X195757Y115208I-400J0D01*
G03Y112822I-130J-1193D01*
G02X196200Y112424I43J-398D01*
G01Y112014D01*
X195973D01*
X195947Y112022D01*
G03X195757Y109672I-320J-1157D01*
G02X196200Y109274I43J-398D01*
G01Y108942D01*
X195971D01*
X195943Y108950D01*
G03X195750Y106609I-343J-1150D01*
G02X196200Y106212I50J-397D01*
G01Y106157D01*
G02X195757Y105759I-400J0D01*
G03X194519Y104104I-130J-1193D01*
G02X194150Y103550I-369J-154D01*
G01X187703D01*
G02X187327Y104088I0J400D01*
G03X185073I-1127J412D01*
G02X184697Y103550I-376J-138D01*
G01X181356D01*
G02X180986Y104104I0J400D01*
G03X178771I-1108J462D01*
G02X178402Y103550I-369J-154D01*
G01X178260D01*
G02X177887Y104094I0J400D01*
G03X175648I-1119J433D01*
G02X175275Y103550I-373J-144D01*
G01X175057D01*
G02X174687Y104104I0J400D01*
G03X172651Y103806I-1108J462D01*
G02X172637Y103537I-155J-127D01*
G01X171350Y102250D01*
X168144D01*
G03X166417I-863J-834D01*
G01X161882D01*
G03X160194I-844J-853D01*
G01X158732D01*
G03X157583Y102557I-844J-853D01*
G01X157472Y102528D01*
X156950Y103050D01*
Y106350D01*
X157262Y106662D01*
X157389Y106604D01*
G03X158957Y107150I500J1091D01*
G01X159941D01*
G03X162097I1078J527D01*
G01X166240D01*
G03X168397I1078J527D01*
G01X169390D01*
G03X171628Y107987I1078J527D01*
G01X171598Y108098D01*
X173197Y109697D01*
X173308Y109667D01*
G03X174777Y111136I309J1160D01*
G01X174748Y111248D01*
X176346Y112846D01*
X176458Y112817D01*
G03X176604Y115166I309J1160D01*
G02X176150Y115562I-54J396D01*
G01Y118724D01*
G02X176595Y119121I400J0D01*
G03X176039Y121296I134J1193D01*
G01X175901Y121199D01*
X174850Y122250D01*
X165150D01*
X163450Y120550D01*
Y114350D01*
X162250Y113150D01*
X160550D01*
X158286Y115414D01*
G02X158399Y116058I283J283D01*
G03X156802Y117655I-511J1086D01*
G02X156157Y117543I-362J170D01*
G01X155550Y118150D01*
X155396D01*
X155349Y118178D01*
G03X154128I-611J-1033D01*
G01X154081Y118150D01*
X152247D01*
X152200Y118178D01*
G03X150979I-610J-1033D01*
G01X150931Y118150D01*
X149097D01*
X149050Y118178D01*
G03X147829I-611J-1033D01*
G01X147782Y118150D01*
X145947D01*
X145900Y118178D01*
G03X144679I-611J-1033D01*
G01X144632Y118150D01*
X142762D01*
X142715Y118178D01*
G03X140933Y116868I-614J-1031D01*
G01X140959Y116759D01*
X140550Y116350D01*
X137750D01*
X137041Y117059D01*
X137041Y117142D01*
G03X134641Y117149I-1200J2D01*
G01X134640Y116950D01*
X134075D01*
G02X133875Y117150I0J200D01*
G03X131475I-1200J0D01*
G02X131275Y116950I-200J0D01*
G01X130850D01*
Y117150D01*
G03X128450I-1200J0D01*
G01Y116950D01*
X127501D01*
X127500Y117149D01*
G03X125100I-1200J-5D01*
G01X125099Y116950D01*
X113050D01*
X111958Y115858D01*
X111819Y115961D01*
G03X110714Y113864I-719J-961D01*
G01X110850Y113817D01*
Y111083D01*
X110714Y111036D01*
G03Y108763I386J-1137D01*
G01X110850Y108717D01*
Y105734D01*
G03Y104266I950J-734D01*
G01Y90050D01*
X92600Y71800D01*
X89800D01*
G02X89600Y72000I0J200D01*
G03X87200I-1200J0D01*
G02X87000Y71800I-200J0D01*
G01X81670D01*
X81621Y71929D01*
G03X79470Y70884I-1121J-429D01*
G01X79550Y70750D01*
X77907Y69107D01*
X77767Y69223D01*
G03X76077Y67533I-767J-923D01*
G01X76193Y67393D01*
X71600Y62800D01*
Y52500D01*
X68300Y49200D01*
Y41693D01*
X68157Y41650D01*
G03Y39350I343J-1150D01*
G01X68300Y39307D01*
Y36000D01*
X66161Y33861D01*
X66084Y33858D01*
G03X64942Y32716I57J-1199D01*
G01X64938Y32638D01*
X64450Y32150D01*
X64170D01*
G02X63771Y32535I0J400D01*
G03X61372I-1199J-44D01*
G02X60972Y32150I-400J15D01*
G01X60615D01*
Y32360D01*
X60616Y32370D01*
G03X58222Y32535I-1194J122D01*
G02X57823Y32150I-400J15D01*
G01X57465D01*
Y32360D01*
X57466Y32370D01*
G03X55073Y32535I-1194J122D01*
G02X54673Y32150I-400J15D01*
G01X54337D01*
Y32355D01*
X54338Y32360D01*
G03X51943Y32518I-1199J62D01*
G02X51544Y32150I-399J32D01*
G01X51183D01*
Y32358D01*
X51183Y32366D01*
G03X48789Y32528I-1196J96D01*
G02X48389Y32150I-399J22D01*
G01X47994D01*
Y32355D01*
X47994Y32360D01*
G03X45599Y32518I-1199J62D01*
G02X45201Y32150I-399J32D01*
G01X44879D01*
Y32358D01*
X44880Y32366D01*
G03X42485Y32528I-1196J96D01*
G02X42085Y32150I-399J22D01*
G01X41727D01*
Y32358D01*
X41728Y32366D01*
G03X39333Y32528I-1196J96D01*
G02X38933Y32150I-399J22D01*
G01X38899D01*
G02X38500Y32538I0J400D01*
G03X36100I-1200J-38D01*
G02X35701Y32150I-400J13D01*
G01X32730D01*
G02X32330Y32535I0J400D01*
G03X29932I-1199J-44D01*
G02X29532Y32150I-400J15D01*
G01X29139D01*
Y32357D01*
X29139Y32365D01*
G03X26744Y32526I-1197J88D01*
G02X26345Y32150I-399J24D01*
G01X21050D01*
G37*
G36*
G01X71500Y14900D02*
X70350Y16050D01*
Y32097D01*
G03Y33772I-860J837D01*
G01Y48150D01*
X70475Y48275D01*
G02X71068Y48244I283J-283D01*
G03X72756Y49932I932J756D01*
G02X72725Y50525I252J311D01*
G01X74150Y51950D01*
Y62650D01*
X74890Y63390D01*
G02X75504Y63330I283J-283D01*
G03X75563Y63250I996J670D01*
G02Y62750I-312J-250D01*
G03Y61250I937J-750D01*
G02Y60750I-312J-250D01*
G03X77437I937J-750D01*
G02Y61250I312J250D01*
G03Y62750I-937J750D01*
G02Y63250I312J250D01*
G03X77170Y64996I-937J750D01*
G02X77110Y65610I223J332D01*
G01X79020Y67520D01*
G02X79602Y67503I283J-283D01*
G03X81297Y69198I898J797D01*
G02X81280Y69780I266J299D01*
G01X81850Y70350D01*
X92750D01*
X94525Y72125D01*
G02X95206Y71882I283J-283D01*
G03X96518Y73194I1194J118D01*
G02X96275Y73875I40J398D01*
G01X99548Y77148D01*
G02X100198Y77024I283J-283D01*
G03X101776Y78602I1102J476D01*
G02X101652Y79252I159J367D01*
G01X111853Y89453D01*
X111990Y89360D01*
G03X113200Y91428I673J994D01*
G01Y93605D01*
X113331Y93652D01*
G03Y95908I-411J1127D01*
G01X113200Y95955D01*
Y105200D01*
X114750Y106750D01*
X119416D01*
G03X121414I999J665D01*
G01X122666D01*
G03X124134I734J950D01*
G01X125653D01*
G03X127131I739J946D01*
G01X128803D01*
G03X130281I739J946D01*
G01X131952D01*
G03X133430I739J946D01*
G01X135102D01*
G03X136580I739J946D01*
G01X138157D01*
G03X139738I791J903D01*
G01X141395D01*
G03X142942I774J918D01*
G01X144359D01*
G03X146041I841J856D01*
G01X147700D01*
G03X149618Y107469I739J946D01*
G01X149630Y107530D01*
X150150Y108050D01*
X154936D01*
X155650Y107336D01*
Y102913D01*
G02X155122Y102534I-400J0D01*
G03X153541Y101474I-384J-1137D01*
G02X153142Y101100I-399J26D01*
G01X152893D01*
G02X152693Y101300I0J200D01*
G03X150292I-1200J0D01*
G02X150092Y101100I-200J0D01*
G01X150036D01*
G02X149637Y101474I0J400D01*
G03X147242I-1198J-78D01*
G02X146843Y101100I-399J26D01*
G01X146600D01*
Y101303D01*
G03X144200I-1200J17D01*
G01Y101100D01*
X143737D01*
G02X143338Y101474I0J400D01*
G03X140942I-1198J-78D01*
G02X140543Y101100I-399J26D01*
G01X140194D01*
Y101307D01*
X140194Y101315D01*
G03X137799Y101476I-1197J88D01*
G02X137400Y101100I-399J24D01*
G01X137038D01*
Y101307D01*
X137038Y101314D01*
G03X134643Y101474I-1197J83D01*
G02X134244Y101100I-399J26D01*
G01X133888D01*
Y101307D01*
X133889Y101314D01*
G03X131858Y100533I-1197J83D01*
G02X131863Y99963I-278J-288D01*
G01X130976Y99076D01*
G02X130405Y99081I-283J283D01*
G03X128708Y97384I-863J-834D01*
G02X128713Y96813I-278J-288D01*
G01X127808Y95908D01*
G02X127237Y95912I-283J283D01*
G03X125540Y94215I-863J-834D01*
G02X125545Y93645I-278J-288D01*
G01X124658Y92758D01*
G02X124087Y92763I-283J283D01*
G03X122390Y91066I-863J-834D01*
G02X122395Y90495I-278J-288D01*
G01X121508Y89608D01*
G02X120938Y89613I-283J283D01*
G03X119241Y87916I-863J-834D01*
G02X119246Y87346I-278J-288D01*
G01X102569Y70669D01*
G02X101965Y70714I-283J283D01*
G03X100286Y69035I-965J-714D01*
G02X100331Y68431I-238J-322D01*
G01X98050Y66150D01*
X85750D01*
X83850Y64250D01*
Y42850D01*
X76689Y35689D01*
X76597Y35696D01*
G03X75563Y33750I-97J-1196D01*
G02Y33250I-312J-250D01*
G03Y31750I937J-750D01*
G02Y31250I-312J-250D01*
G03Y29750I937J-750D01*
G02Y29250I-312J-250D01*
G03X77578Y27973I937J-750D01*
G02X78220Y28080I359J-176D01*
G01X79350Y26950D01*
X81650D01*
X82300Y26300D01*
Y15400D01*
X81800Y14900D01*
X71500D01*
G37*
G36*
G01X84650Y10850D02*
X83500Y12000D01*
Y26900D01*
X82200Y28200D01*
X80000D01*
X78150Y30050D01*
Y34850D01*
X85650Y42350D01*
Y53907D01*
G02X86012Y54305I400J0D01*
G03X87071Y55236I-112J1195D01*
G02X87449Y55272I195J-44D01*
G03X87613Y55000I1101J478D01*
G02Y54500I-312J-250D01*
G03X89487I937J-750D01*
G02Y55000I312J250D01*
G03X87494Y56320I-937J750D01*
G02X86831Y56257I-352J190D01*
G03X86012Y56695I-931J-757D01*
G02X85650Y57093I38J398D01*
G01Y57807D01*
G02X86012Y58205I400J0D01*
G03Y60595I-113J1195D01*
G02X85650Y60993I38J398D01*
G01Y63850D01*
X86150Y64350D01*
X94901D01*
G02X95300Y63938I0J-400D01*
G03X97700I1200J-38D01*
G02X98099Y64350I400J12D01*
G01X98650D01*
X119146Y84846D01*
X119287Y84724D01*
G03X120980Y86417I788J906D01*
G01X120858Y86558D01*
X122296Y87996D01*
X122437Y87874D01*
G03X124130Y89567I787J906D01*
G01X124008Y89708D01*
X125464Y91164D01*
X125605Y91042D01*
G03X127298Y92735I787J906D01*
G01X127176Y92876D01*
X128614Y94314D01*
X128754Y94191D01*
G03X130448Y95884I787J906D01*
G01X130325Y96025D01*
X131745Y97445D01*
X131886Y97322D01*
G03X133579Y99016I787J906D01*
G02X133588Y99288I151J131D01*
G01X134400Y100100D01*
X155014D01*
X155400Y100100D01*
X156300Y101000D01*
X156748D01*
X156802Y100885D01*
G03X158974I1086J511D01*
G01X159028Y101000D01*
X159898D01*
X159952Y100885D01*
G03X162124I1086J511D01*
G01X162178Y101000D01*
X166148D01*
X166202Y100888D01*
G03X168358I1078J528D01*
G01X168413Y101000D01*
X171600D01*
X172950Y102350D01*
X181697D01*
G02X182073Y101812I0J-400D01*
G03X184327I1127J-412D01*
G02X184703Y102350I376J138D01*
G01X187797D01*
G02X188173Y101812I0J-400D01*
G03X190427I1127J-412D01*
G02X190803Y102350I376J138D01*
G01X190946D01*
G02X191328Y101831I0J-400D01*
G03X193620I1146J-357D01*
G02X194002Y102350I382J119D01*
G01X194118D01*
G02X194495Y101816I0J-400D01*
G03X196758I1131J-400D01*
G02X197135Y102350I377J133D01*
G01X197197D01*
G02X197573Y101812I0J-400D01*
G03X199827I1127J-412D01*
G02X200203Y102350I376J138D01*
G01X200297D01*
G02X200673Y101812I0J-400D01*
G03X202927I1127J-412D01*
G02X203303Y102350I376J138D01*
G01X217350D01*
X217805Y101895D01*
X217598Y101688D01*
X217505Y101696D01*
G03X218574Y100252I-105J-1196D01*
G02X219248Y100452I391J-83D01*
G01X222634Y97066D01*
X222585Y96944D01*
G03X224144Y95385I1115J-444D01*
G01X224266Y95434D01*
X224650Y95050D01*
Y93788D01*
G02X224012Y93466I-400J0D01*
G03Y91534I-712J-966D01*
G02X224650Y91212I237J-322D01*
G01Y89788D01*
G02X224012Y89466I-400J0D01*
G03Y87534I-712J-966D01*
G02X224650Y87212I237J-322D01*
G01Y54650D01*
X222300Y52300D01*
X204895D01*
G03X203105I-895J-800D01*
G01X189583D01*
X189541Y52322D01*
G03X188459I-541J-1072D01*
G01X188417Y52300D01*
X187700D01*
X185500Y50100D01*
Y29400D01*
X182464Y26364D01*
X182349Y26398D01*
G03X180838Y25550I-349J-1148D01*
G01X180799Y25400D01*
X178100D01*
X176000Y23300D01*
Y13150D01*
X173700Y10850D01*
X84650D01*
G37*
G36*
G01X71849Y99800D02*
G02X71450Y100212I0J400D01*
G03X70288Y101450I-1200J38D01*
G02X69900Y101849I13J400D01*
G01Y125900D01*
X96693Y152693D01*
X96833Y152577D01*
G03X98523Y154267I767J923D01*
G01X98407Y154407D01*
X100595Y156595D01*
X100731Y156503D01*
G03X102397Y158169I669J997D01*
G01X102305Y158305D01*
X104401Y160401D01*
X104519Y160362D01*
G03X105441Y160429I381J1138D01*
G01X105483Y160450D01*
X112667D01*
X112709Y160429D01*
G03X113791I541J1071D01*
G01X113833Y160450D01*
X115167D01*
X115209Y160429D01*
G03X116291I541J1071D01*
G01X116333Y160450D01*
X117866D01*
G02X118252Y159946I0J-400D01*
G03X120569I1159J-314D01*
G02X120955Y160450I386J105D01*
G01X163330D01*
G03X165170I920J770D01*
G01X172700D01*
G03X174538I919J772D01*
G01X175849D01*
G03X177688I919J772D01*
G01X178999D01*
G03X180837I919J772D01*
G01X182148D01*
G03X183987I919J772D01*
G01X185298D01*
G03X187136I919J772D01*
G01X188458D01*
G03X190300I921J769D01*
G01X191597D01*
G03X193436I919J772D01*
G01X216189D01*
X216219Y160286D01*
G03X218581I1181J214D01*
G01X218611Y160450D01*
X220039D01*
X220069Y160286D01*
G03X222131Y159685I1181J214D01*
G02X222719I294J-272D01*
G03X224561Y161219I881J815D01*
G01X224457Y161358D01*
X226900Y163800D01*
Y169461D01*
X227014Y169516D01*
G03Y171684I-514J1084D01*
G01X226900Y171739D01*
Y172812D01*
G02X227350Y173209I400J0D01*
G03X228170Y175396I150J1191D01*
G02X228111Y176010I223J332D01*
G01X229300Y177200D01*
X246300D01*
X248600Y174900D01*
Y169389D01*
X248486Y169334D01*
G03X248156Y169104I514J-1084D01*
G02X247594I-281J284D01*
G03X245906I-844J-853D01*
G02X245344I-281J284D01*
G03X243656I-844J-853D01*
G02X243094I-281J284D01*
G03X241406I-844J-853D01*
G02X240844I-281J284D01*
G03X239062Y168999I-844J-854D01*
G02X238438I-312J250D01*
G03X236562I-937J-749D01*
G02X235938I-312J250D01*
G03Y167501I-937J-749D01*
G02X236562I313J-250D01*
G03X238438I937J749D01*
G02X239062I313J-250D01*
G03X240844Y167396I938J749D01*
G02X241406I281J-284D01*
G03X243094I844J854D01*
G02X243656I281J-284D01*
G03X245344I844J854D01*
G02X245906I281J-284D01*
G03X247594I844J854D01*
G02X248156I281J-284D01*
G03X248486Y167166I844J854D01*
G01X248600Y167111D01*
Y162300D01*
X241300Y155000D01*
X233856D01*
G02X233517Y155612I0J400D01*
G03X231483I-1017J638D01*
G02X231144Y155000I-339J-213D01*
G01X228562D01*
G02X228272Y155675I0J400D01*
G03X226528I-872J825D01*
G02X226238Y155000I-290J-275D01*
G01X218562D01*
G02X218272Y155675I0J400D01*
G03X216528I-872J825D01*
G02X216238Y155000I-290J-275D01*
G01X214662D01*
G02X214372Y155675I0J400D01*
G03X212628I-872J825D01*
G02X212338Y155000I-290J-275D01*
G01X209463D01*
X209438Y155171D01*
G03X207062I-1188J-171D01*
G01X207037Y155000D01*
X203137D01*
X203108Y155166D01*
G03X200744I-1182J-206D01*
G01X200715Y155000D01*
X200024D01*
X199992Y155160D01*
G03X197640I-1176J-240D01*
G01X197607Y155000D01*
X196913D01*
X196888Y155171D01*
G03X194512I-1188J-171D01*
G01X194487Y155000D01*
X193725D01*
X193693Y155160D01*
G03X191340I-1176J-238D01*
G01X191308Y155000D01*
X190576D01*
X190543Y155160D01*
G03X188190I-1176J-238D01*
G01X188158Y155000D01*
X187425D01*
X187392Y155160D01*
G03X185040I-1176J-239D01*
G01X185007Y155000D01*
X184275D01*
X184243Y155160D01*
G03X181890I-1176J-239D01*
G01X181858Y155000D01*
X181127D01*
X181094Y155160D01*
G03X178742I-1176J-238D01*
G01X178709Y155000D01*
X177977D01*
X177945Y155160D01*
G03X175592I-1176J-238D01*
G01X175560Y155000D01*
X171678D01*
X171646Y155160D01*
G03X169293I-1176J-238D01*
G01X169260Y155000D01*
X159077D01*
X159045Y155160D01*
G03X156692I-1176J-238D01*
G01X156660Y155000D01*
X156400D01*
X156117Y154717D01*
X155922Y154912D01*
X155917Y154989D01*
G03X154354Y153779I-1198J-66D01*
G02X154515Y153115I-122J-381D01*
G01X154297Y152897D01*
X154260Y152882D01*
G03X153610Y152231I459J-1109D01*
G01X153594Y152194D01*
X153377Y151977D01*
G02X152713Y152138I-283J283D01*
G03X151204Y150629I-1143J-365D01*
G02X151366Y149966I-122J-381D01*
G01X151148Y149748D01*
X151111Y149732D01*
G03X150460Y149082I459J-1109D01*
G01X150445Y149045D01*
X150300Y148900D01*
Y141914D01*
X149886Y141500D01*
X147400D01*
X146500Y142400D01*
Y150200D01*
X144100Y152600D01*
X142990D01*
G03X141251I-870J-827D01*
G01X139840D01*
G03X138101I-870J-827D01*
G01X136597D01*
G03X134903I-847J-850D01*
G01X133541D01*
G03X131802I-870J-827D01*
G01X130294D01*
G03X128706I-794J-900D01*
G01X127242D01*
G03X125503I-870J-827D01*
G01X120306D01*
G03X118515I-895J-799D01*
G01X115264D01*
G03X114183Y152893I-818J-878D01*
G02X113696Y153316I-88J390D01*
G03X111341Y153104I-1196J100D01*
G02X110955Y152600I-386J-104D01*
G01X107700D01*
X106281Y151181D01*
G02X105724Y151173I-283J283D01*
G03X104027Y149476I-824J-873D01*
G02X104019Y148919I-291J-274D01*
G01X101752Y146652D01*
X101646Y146675D01*
G03X100225Y145254I-246J-1175D01*
G01X100248Y145148D01*
X77600Y122500D01*
Y117994D01*
G03Y116406I900J-794D01*
G01Y105294D01*
G03X77428Y105041I900J-794D01*
G02X77072I-179J90D01*
G03Y103959I-1072J-541D01*
G02X77428I178J-90D01*
G03X77600Y103706I1071J541D01*
G01Y102500D01*
X74900Y99800D01*
X71849D01*
G37*
G36*
G01X122187Y115550D02*
G02X122472Y114869I0J-400D01*
G03X124178I853J-844D01*
G02X124463Y115550I284J281D01*
G01X131584D01*
G02X131861Y114861I0J-400D01*
G03X133522I831J-866D01*
G02X133799Y115550I277J289D01*
G01X134734D01*
G02X135010Y114861I0J-400D01*
G03X136672I831J-866D01*
G02X136948Y115550I277J289D01*
G01X137136D01*
X137336Y115350D01*
X137707D01*
G02X138028Y114711I0J-400D01*
G03X139954I963J-716D01*
G02X140275Y115350I321J239D01*
G01X140964D01*
X141164Y115550D01*
X142450D01*
X143250Y116350D01*
X144390D01*
G03X146189I900J795D01*
G01X147540D01*
G03X149339I900J795D01*
G01X150689D01*
G03X152489I900J795D01*
G01X153839D01*
G03X155584Y116292I900J795D01*
G01X155642Y116350D01*
X155850D01*
X157057Y115143D01*
G02X157054Y114858I-141J-141D01*
G03X158751Y113161I834J-863D01*
G02X159037Y113163I144J-139D01*
G01X159850Y112350D01*
X159936D01*
X160136Y112150D01*
X162664D01*
X164450Y113936D01*
Y114050D01*
X165550Y115150D01*
Y120850D01*
X165950Y121250D01*
X168922D01*
G02X169299Y120716I0J-400D01*
G03X171561I1131J-402D01*
G02X171938Y121250I377J134D01*
G01X174250D01*
X175050Y120450D01*
Y118349D01*
G02X174392Y118043I-400J0D01*
G03Y116209I-774J-917D01*
G02X175050Y115903I258J-306D01*
G01Y115204D01*
G02X174382Y114907I-400J0D01*
G03X173485Y112818I-803J-892D01*
G02X173736Y112136I-31J-399D01*
G01X173629Y112029D01*
X173553Y112025D01*
G03X172419Y110892I65J-1198D01*
G01X172415Y110815D01*
X172339Y110739D01*
G02X171659Y110973I-283J283D01*
G03X170322Y109636I-1191J-146D01*
G02X170556Y108956I-49J-397D01*
G01X170480Y108880D01*
X170403Y108876D01*
G03X169416Y108254I65J-1198D01*
G01X169359Y108150D01*
X168428D01*
X168371Y108254D01*
G03X166266I-1053J-577D01*
G01X166209Y108150D01*
X162129D01*
X162072Y108254D01*
G03X159967I-1053J-577D01*
G01X159910Y108150D01*
X159006D01*
X158949Y108257D01*
G03X156827Y108256I-1061J-561D01*
G01X156771Y108150D01*
X156250D01*
X155350Y109050D01*
X149350D01*
X149042Y108742D01*
X148918Y108797D01*
G03X147378Y108256I-478J-1101D01*
G01X147322Y108150D01*
X146270D01*
G03X144130I-1070J-544D01*
G01X143273D01*
X143216Y108253D01*
G03X141120I-1048J-585D01*
G01X141063Y108150D01*
X140046D01*
X139988Y108250D01*
G03X137907I-1041J-598D01*
G01X137849Y108150D01*
X136958D01*
X136902Y108256D01*
G03X134780I-1061J-561D01*
G01X134724Y108150D01*
X133809D01*
X133752Y108256D01*
G03X131630I-1061J-561D01*
G01X131574Y108150D01*
X130659D01*
X130603Y108256D01*
G03X128481I-1061J-561D01*
G01X128424Y108150D01*
X127510D01*
X127453Y108256D01*
G03X125331I-1061J-561D01*
G01X125275Y108150D01*
X124519D01*
X124463Y108257D01*
G03X122337I-1063J-557D01*
G01X122281Y108150D01*
X121364D01*
G03X119466I-949J-735D01*
G01X115150D01*
X113650Y109650D01*
Y114750D01*
X114450Y115550D01*
X122187D01*
G37*
G36*
G01X224849Y99700D02*
G02X224462Y100200I0J400D01*
G03X222177Y100923I-1162J300D01*
G02X221519Y100781I-374J141D01*
G01X217200Y105100D01*
X210339D01*
X210284Y105214D01*
G03X208116I-1084J-514D01*
G01X208061Y105100D01*
X206097D01*
X206040Y105200D01*
G03X203960I-1040J-600D01*
G01X203903Y105100D01*
X199851D01*
G03X198726Y105765I-1075J-534D01*
G01X198639Y105761D01*
X198569Y105831D01*
G02X198833Y106513I283J283D01*
G03X198269Y108800I-57J1199D01*
G02X197700Y109162I-169J363D01*
G01Y109415D01*
G02X198269Y109777I400J0D01*
G03Y111953I507J1088D01*
G02X197700Y112315I-169J363D01*
G01Y118864D01*
G02X198269Y119226I400J0D01*
G03Y121402I507J1088D01*
G02X197700Y121764I-169J363D01*
G01Y125145D01*
G02X198279Y125502I400J0D01*
G03X197716Y127056I537J1073D01*
G02X197066Y126934I-367J160D01*
G01X192889Y131111D01*
G02X192998Y131755I283J283D01*
G03X191396Y133357I-521J1081D01*
G02X190753Y133247I-360J174D01*
G01X189724Y134276D01*
G02X189847Y134925I283J283D01*
G03X188267Y136505I-480J1100D01*
G02X187618Y136382I-367J160D01*
G01X183434Y140566D01*
G02X183549Y141211I283J283D01*
G03X181955Y142805I-505J1089D01*
G02X181309Y142691I-363J168D01*
G01X180276Y143724D01*
G02X180398Y144373I283J283D01*
G03X178818Y145954I-482J1099D01*
G02X178168Y145832I-366J160D01*
G01X177127Y146873D01*
G02X177249Y147523I283J283D01*
G03X175668Y149104I-482J1099D01*
G02X175019Y148981I-366J160D01*
G01X174200Y149800D01*
X173848D01*
X173831Y149803D01*
G03X173405I-213J-1181D01*
G01X173387Y149800D01*
X167556D01*
X167538Y149803D01*
G03X167101I-219J-1180D01*
G01X167083Y149800D01*
X161255D01*
X161237Y149803D01*
G03X160800I-218J-1180D01*
G01X160782Y149800D01*
X156600D01*
X155800Y150600D01*
Y151250D01*
X155817Y151288D01*
G03X155847Y152183I-1098J484D01*
G01X155803Y152303D01*
X157200Y153700D01*
X216014D01*
G02X216360Y153100I0J-400D01*
G03X218440I1039J-600D01*
G02X218786Y153700I346J200D01*
G01X226014D01*
G02X226360Y153100I0J-400D01*
G03X228440I1039J-600D01*
G02X228786Y153700I346J200D01*
G01X241839D01*
X241939Y153800D01*
X257631D01*
X257687Y153693D01*
G03X259813I1063J557D01*
G01X259869Y153800D01*
X268800D01*
X270500Y152100D01*
Y105400D01*
X264800Y99700D01*
X258162D01*
G02X257872Y100375I0J400D01*
G03X256543Y102310I-872J825D01*
G02X255993Y102635I-153J370D01*
G03X254604Y103684I-1193J-135D01*
G02X254376Y103841I-33J197D01*
G03X253396Y102416I-1176J-241D01*
G02X253624Y102259I33J-197D01*
G03X255257Y101390I1176J241D01*
G02X255807Y101065I153J-370D01*
G03X256128Y100375I1193J135D01*
G02X255838Y99700I-290J-275D01*
G01X250297D01*
G02X249898Y100075I0J400D01*
G03X247502I-1198J-75D01*
G02X247103Y99700I-399J25D01*
G01X246475D01*
G03X244525I-975J-700D01*
G01X242094D01*
G03X241604Y99961I-794J-900D01*
G02X241354Y100539I101J387D01*
G03X241094Y102013I-1054J573D01*
G02Y102613I265J300D01*
G03X241491Y103364I-794J900D01*
G02X241941Y103710I397J-50D01*
G03X242894Y105800I159J1190D01*
G02Y106400I265J300D01*
G03X241306I-794J900D01*
G02Y105800I-265J-300D01*
G03X240909Y105049I794J-900D01*
G02X240459Y104702I-397J50D01*
G03X239506Y102613I-159J-1190D01*
G02Y102013I-265J-300D01*
G03X239371Y100353I794J-900D01*
G02X239061Y99700I-310J-253D01*
G01X238700D01*
G02X238332Y100255I0J400D01*
G03X236118I-1106J465D01*
G02X235750Y99700I-369J-155D01*
G01X235009D01*
G02X234652Y100280I0J400D01*
G03X232508I-1072J540D01*
G02X232151Y99700I-357J-180D01*
G01X228649D01*
G02X228262Y100200I0J400D01*
G03X225938I-1162J300D01*
G02X225551Y99700I-387J-100D01*
G01X224849D01*
G37*
%LPC*%
G75*
G36*
G01X144906Y164646D02*
G03X144344I-281J-284D01*
G02Y166354I-844J854D01*
G03X144906I281J284D01*
G02X146594I844J-854D01*
G03X147156I281J284D01*
G02X148844I844J-854D01*
G03X149406I281J284D01*
G02Y164646I844J-854D01*
G03X148844I-281J-284D01*
G02X147156I-844J854D01*
G03X146594I-281J-284D01*
G02X144906I-844J854D01*
G37*
G36*
G01X-262Y172151D02*
G02Y173649I-938J749D01*
G03X362I312J250D01*
G02X2238I938J-749D01*
G03X2862I313J250D01*
G02Y172151I937J-749D01*
G03X2238I-312J-250D01*
G02X362I-937J749D01*
G03X-262I-312J-250D01*
G37*
G36*
G01Y159651D02*
G02Y161149I-938J749D01*
G03X362I312J250D01*
G02X2238I938J-749D01*
G03X2862I313J250D01*
G02Y159651I937J-749D01*
G03X2238I-312J-250D01*
G02X362I-937J749D01*
G03X-262I-312J-250D01*
G37*
G36*
G01X11372Y142625D02*
G02X9628I-872J-825D01*
G03Y143175I-290J275D01*
G02X9562Y143251I872J825D01*
G03X8938I-313J-250D01*
G02Y144749I-937J749D01*
G03X9562I313J250D01*
G02X11372Y143175I938J-749D01*
G03Y142625I290J-275D01*
G37*
G36*
G01X38938Y122751D02*
G02Y124249I-938J749D01*
G03X39562I312J250D01*
G02Y122751I938J-749D01*
G03X38938I-312J-250D01*
G37*
G36*
G01X31560Y122937D02*
G02X31465Y124213I-1060J563D01*
G03X32140Y124263I322J238D01*
G02X32235Y122987I1060J-563D01*
G03X31560Y122937I-322J-238D01*
G37*
G36*
G01X59064Y104551D02*
G02X58873Y103386I936J-751D01*
G03X58186Y103499I-375J-138D01*
G02X58377Y104664I-936J751D01*
G03X59064Y104551I375J138D01*
G37*
G36*
G01X219400Y43406D02*
G03X218800I-300J-265D01*
G02Y44994I-900J794D01*
G03X219400I300J265D01*
G02Y43406I900J-794D01*
G37*
G36*
G01X632Y40836D02*
G03X639Y40558I147J-136D01*
G02X-1082Y40514I-839J-858D01*
G03X-1089Y40792I-147J136D01*
G02X-1156Y42438I839J858D01*
G03Y42962I-302J262D01*
G02X656I906J787D01*
G03Y42438I302J-263D01*
G02X632Y40836I-906J-788D01*
G37*
G36*
G01X222453Y38950D02*
G02X224147I847J850D01*
G02X222453I-847J-850D01*
G37*
G36*
G01X190619Y37435D02*
G03X191144Y37210I373J145D01*
G02X190481Y35665I456J-1110D01*
G03X189957Y35890I-373J-145D01*
G02X190619Y37435I-456J1110D01*
G37*
G36*
G01X7150Y34453D02*
G02Y36147I-850J847D01*
G02X8771Y36219I850J-847D01*
G03X9029I129J153D01*
G02X10571I771J-919D01*
G03X10829I129J153D01*
G02Y34381I771J-919D01*
G03X10571I-129J-153D01*
G02X9029I-771J919D01*
G03X8771I-129J-153D01*
G02X7150Y34453I-771J919D01*
G37*
G36*
G01X-23893Y35033D02*
G03X-24036Y35248I-199J22D01*
G02X-22507Y36267I336J1152D01*
G03X-22364Y36052I199J-22D01*
G02X-23893Y35033I-336J-1152D01*
G37*
G36*
G01X199113Y34419D02*
G03X198788Y33969I71J-394D01*
G02X197387Y34981I-1188J-169D01*
G03X197712Y35431I-71J394D01*
G02X199113Y34419I1188J169D01*
G37*
G36*
G01X211216Y33903D02*
G03X210791Y33553I-28J-399D01*
G02X209684Y34897I-1191J147D01*
G03X210109Y35247I28J399D01*
G02X211216Y33903I1191J-147D01*
G37*
G36*
G01X-16946Y32606D02*
G03Y32044I284J-281D01*
G02X-18654I-853J-844D01*
G03Y32606I-284J281D01*
G02X-16946I854J844D01*
G37*
G36*
G01X-11146Y31906D02*
G03Y31344I284J-281D01*
G02X-12854I-853J-844D01*
G03Y31906I-284J281D01*
G02X-11146I854J844D01*
G37*
G36*
G01X-1190Y34496D02*
G03X-1202Y35009I-313J249D01*
G02X640Y35054I902J791D01*
G03X652Y34541I313J-249D01*
G02Y32959I-902J-791D01*
G03X640Y32446I301J-264D01*
G02X582Y30886I-940J-746D01*
G03Y30614I147J-136D01*
G02X-1182I-882J-814D01*
G03Y30886I-147J136D01*
G02X-1202Y32491I882J814D01*
G03X-1190Y33004I-301J264D01*
G02Y34496I940J746D01*
G37*
G36*
G01X223985Y29287D02*
G03X224160Y28762I362J-171D01*
G02X222515Y28213I-560J-1062D01*
G03X222340Y28738I-362J171D01*
G02X223985Y29287I560J1062D01*
G37*
G36*
G01X-3102Y24066D02*
G03X-2652Y23691I399J22D01*
G02X-3698Y22434I152J-1191D01*
G03X-4148Y22809I-399J-22D01*
G02X-3102Y24066I-152J1191D01*
G37*
G36*
G01X210738Y21565D02*
G03X210162I-287J-278D01*
G02Y23235I-862J835D01*
G03X210738I288J278D01*
G02Y21565I862J-835D01*
G37*
G36*
G01X56500Y21313D02*
G03X56000I-250J-312D01*
G02Y23187I-750J937D01*
G03X56500I250J312D01*
G02X58000Y23187I750J-937D01*
G03X58563Y23249I250J312D01*
G02X58750Y21563I937J-749D01*
G03X58188Y21501I-250J-312D01*
G02X56500Y21313I-937J749D01*
G37*
G36*
G01X47937Y17250D02*
G03Y16750I312J-250D01*
G02X46063I-937J-750D01*
G03Y17250I-312J250D01*
G02Y18750I937J750D01*
G03Y19250I-312J250D01*
G02X47937I937J750D01*
G03Y18750I312J-250D01*
G02Y17250I-937J-750D01*
G37*
G36*
G01X67687Y16750D02*
G03Y16250I312J-250D01*
G02X65813I-937J-750D01*
G03Y16750I-312J250D01*
G02Y18250I937J750D01*
G03Y18750I-312J250D01*
G02X67687I937J750D01*
G03Y18250I312J-250D01*
G02Y16750I-937J-750D01*
G37*
G36*
G01X59022Y15032D02*
G03X59037Y14761I154J-128D01*
G02X57278Y14668I-837J-861D01*
G03X57263Y14939I-154J128D01*
G02X57253Y16650I837J861D01*
G02X57181Y18271I847J850D01*
G03Y18529I-153J129D01*
G02X59019I919J771D01*
G03Y18271I153J-129D01*
G02X58947Y16650I-919J-771D01*
G02X59022Y15032I-847J-850D01*
G37*
G36*
G01X13897Y14412D02*
G03X14083Y14197I199J-15D01*
G02X12803Y13088I-83J-1197D01*
G03X12617Y13303I-199J15D01*
G02X13897Y14412I83J1197D01*
G37*
G36*
G01X687Y14250D02*
G03Y13750I312J-250D01*
G02X-1187I-937J-750D01*
G03Y14250I-312J250D01*
G02Y15750I937J750D01*
G03Y16250I-312J250D01*
G02Y17750I937J750D01*
G03Y18250I-312J250D01*
G02X687I937J750D01*
G03Y17750I312J-250D01*
G02Y16250I-937J-750D01*
G03Y15750I312J-250D01*
G02Y14250I-937J-750D01*
G37*
G36*
G01X-4728Y13775D02*
G03Y13225I290J-275D01*
G02X-6472I-872J-825D01*
G03Y13775I-290J275D01*
G02X-4728I872J825D01*
G37*
G36*
G01X-18246Y13256D02*
G03Y12694I284J-281D01*
G02X-19954I-853J-844D01*
G03Y13256I-284J281D01*
G02X-18246I853J844D01*
G37*
G36*
G01X8632Y9878D02*
G03X8367Y9871I-128J-154D01*
G02X8318Y11672I-817J879D01*
G03X8583Y11679I128J154D01*
G02X10171Y11719I817J-879D01*
G03X10429I129J153D01*
G02Y9881I771J-919D01*
G03X10171I-129J-153D01*
G02X8632Y9878I-771J919D01*
G37*
G36*
G01X196696Y44005D02*
G02X195992Y44995I-1196J-105D01*
G03X196554Y45395I164J365D01*
G02X197258Y44405I1196J105D01*
G03X196696Y44005I-164J-365D01*
G37*
G36*
G01X250956Y42425D02*
G02X249644I-656J-1005D01*
G03Y43095I-219J335D01*
G02X249523Y45014I656J1005D01*
G03Y45624I-259J305D01*
G02X251077I777J915D01*
G03Y45014I259J-305D01*
G02X250956Y43095I-777J-915D01*
G03Y42425I219J-335D01*
G37*
G36*
G01X255667Y41411D02*
G02X254589Y41895I-967J-711D01*
G03X254939Y42395I-37J398D01*
G02X254961Y43078I1161J305D01*
G03X254611Y43603I-380J126D01*
G02X255750Y45381I89J1197D01*
G03X256450I350J194D01*
G02X257589Y43603I1050J-581D01*
G03X257239Y43078I30J-399D01*
G02X257278Y42468I-1139J-378D01*
G03X257628Y41993I392J-77D01*
G02X256322Y41032I-128J-1193D01*
G03X255667Y41411I-392J77D01*
G37*
G36*
G01X195913Y37066D02*
G02X194337Y36934I-713J-966D01*
G03X194287Y37534I-288J278D01*
G02X195863Y37666I713J966D01*
G03X195913Y37066I288J-278D01*
G37*
G36*
G01X216963Y32682D02*
G02X215904Y32764I-613J-1032D01*
G03X215882Y33143I-74J186D01*
G02X215596Y33262I318J1157D01*
G03X215047Y33113I-201J-346D01*
G02X214604Y34738I-1047J587D01*
G03X215153Y34887I201J346D01*
G02X215365Y35162I1047J-587D01*
G03Y35738I-278J287D01*
G02X215124Y37132I835J863D01*
G03X215053Y37389I-179J89D01*
G02X214740Y39120I647J1011D01*
G03X214726Y39378I-160J120D01*
G02X216560Y39480I874J822D01*
G03X216574Y39222I160J-120D01*
G02X216776Y37868I-874J-822D01*
G03X216847Y37611I179J-89D01*
G02X217035Y35738I-647J-1011D01*
G03Y35162I278J-288D01*
G02X216926Y33344I-835J-863D01*
G03X216963Y32682I242J-319D01*
G37*
G36*
G01X226979Y31000D02*
G02X225821Y30025I21J-1200D01*
G03X225421Y30500I-393J75D01*
G02X226579Y31475I-21J1200D01*
G03X226979Y31000I393J-75D01*
G37*
G36*
G01X-3560Y29482D02*
G02X-5052Y29393I-690J-982D01*
G03X-5090Y30018I-267J298D01*
G02X-3598Y30107I690J982D01*
G03X-3560Y29482I267J-298D01*
G37*
G36*
G01X-20696Y27861D02*
G02X-21904Y27489I-304J-1161D01*
G03X-22104Y28139I-301J263D01*
G02X-22768Y28590I304J1161D01*
G03X-23010Y28654I-161J-118D01*
G02X-22532Y30460I-490J1096D01*
G03X-22290Y30396I161J118D01*
G02X-20896Y28511I490J-1096D01*
G03X-20696Y27861I301J-263D01*
G37*
G36*
G01X7050Y21663D02*
G02X5394Y23388I-750J937D01*
G03Y23912I-302J263D01*
G02X7206Y25487I906J788D01*
G03X7478Y25458I151J131D01*
G02X7730Y25604I723J-958D01*
G03X7830Y26279I-157J368D01*
G02X9350Y28137I770J921D01*
G03X9850I250J312D01*
G02X11019Y26075I750J-937D01*
G03X10894Y25400I140J-375D01*
G02X10982Y23686I-794J-900D01*
G03Y23414I147J-136D01*
G02X9329Y21681I-882J-814D01*
G03X9071I-129J-153D01*
G02X7550Y21663I-771J919D01*
G03X7050I-250J-312D01*
G37*
G36*
G01X-13815Y13492D02*
G02X-14685Y14458I-1185J-192D01*
G03X-14185Y14908I105J386D01*
G02X-12686Y16258I1185J192D01*
G03X-12186Y16583I105J386D01*
G02X-11314Y15242I1186J-183D01*
G03X-11814Y14917I-105J-386D01*
G02X-13315Y13942I-1186J183D01*
G03X-13815Y13492I-105J-386D01*
G37*
G36*
G01X-22232Y14076D02*
G02X-22711Y12353I532J-1076D01*
G03X-22968Y12424I-168J-108D01*
G02X-24314Y14382I-532J1076D01*
G03X-24289Y14944I-271J294D01*
G02X-24235Y16612I889J806D01*
G03Y17188I-278J288D01*
G02X-24290Y18855I835J862D01*
G03X-24303Y19405I-297J268D01*
G02X-22548Y21042I852J845D01*
G03X-22270Y21021I150J132D01*
G02X-20390Y20557I770J-921D01*
G03X-19790Y20382I370J152D01*
G02X-20210Y18943I690J-982D01*
G03X-20810Y19118I-370J-152D01*
G02X-22260Y19171I-690J982D01*
G03X-22532Y18878I-127J-155D01*
G02X-22309Y18550I-868J-828D01*
G03X-21759Y18362I364J167D01*
G02X-21651Y16188I559J-1062D01*
G03X-22201Y15800I-150J-371D01*
G02X-22586Y14868I-1199J-50D01*
G03X-22611Y14306I271J-294D01*
G02X-22489Y14147I-889J-806D01*
G03X-22232Y14076I168J108D01*
G37*
G36*
G01X221926Y9978D02*
G02X221786Y11410I-1026J622D01*
G03X222424Y11472I295J270D01*
G02X222564Y10040I1026J-622D01*
G03X221926Y9978I-295J-270D01*
G37*
G36*
G01X39238Y93151D02*
G02X37551Y94838I-938J749D01*
G03Y95462I-250J313D01*
G02Y97338I749J937D01*
G03Y97962I-250J313D01*
G02Y99838I749J938D01*
G03Y100463I-250J313D01*
G02Y102337I749J937D01*
G03Y102962I-250J313D01*
G02X39049I749J937D01*
G03Y102337I250J-313D01*
G02X39238Y102149I-749J-937D01*
G03X39862I312J250D01*
G02X41738I938J-749D01*
G03X42362I312J250D01*
G02X44238I937J-749D01*
G03X44862I312J250D01*
G02X46662Y102235I938J-749D01*
G03X47238I288J278D01*
G02X48849Y100463I862J-835D01*
G03Y99838I250J-313D01*
G02Y97962I-749J-938D01*
G03Y97338I250J-312D01*
G02Y95462I-749J-938D01*
G03Y94838I250J-313D01*
G02X47351I-749J-937D01*
G03Y95462I-250J313D01*
G02X47238Y95565I749J938D01*
G03X46662I-287J-278D01*
G02X44862Y95651I-862J835D01*
G03X44238I-312J-250D01*
G02X44049Y95462I-938J749D01*
G03Y94838I250J-313D01*
G02X42362Y93151I-749J-937D01*
G03X41738I-313J-250D01*
G02X39862I-937J749D01*
G03X39238I-312J-250D01*
G37*
G36*
G01X28157Y110532D02*
G02X27843Y112043I-1057J568D01*
G03X28443Y112168I247J314D01*
G02X28757Y110657I1057J-568D01*
G03X28157Y110532I-247J-314D01*
G37*
G36*
G01X34320Y88302D02*
G03X33945Y87864I23J-399D01*
G02X32680Y88948I-1195J-114D01*
G03X33055Y89386I-23J399D01*
G02X34320Y88302I1195J114D01*
G37*
G36*
G01X30688Y97808D02*
G03X31225Y97617I362J169D01*
G02X30662Y96030I525J-1079D01*
G03X30125Y96221I-362J-169D01*
G02X30688Y97808I-525J1079D01*
G37*
G36*
G01X118530Y144779D02*
G03X117968Y144730I-257J-307D01*
G02X117819Y146424I-918J773D01*
G03X118382Y146473I257J307D01*
G02X118530Y144779I918J-773D01*
G37*
G36*
G01X118694Y123711D02*
G03X118132Y123686I-269J-296D01*
G02X118056Y125389I-882J814D01*
G03X118618Y125414I269J296D01*
G02X118694Y123711I882J-814D01*
G37*
G36*
G01X105955Y98127D02*
G03X105655Y97627I85J-391D01*
G02X104245Y98473I-1155J-327D01*
G03X104545Y98973I-85J391D01*
G02X105955Y98127I1155J327D01*
G37*
G36*
G01X101854Y91906D02*
G03Y91344I284J-281D01*
G02X100146I-853J-844D01*
G03Y91906I-284J281D01*
G02X101854I853J844D01*
G37*
G36*
G01X45314Y69292D02*
G03X44765Y69268I-262J-302D01*
G02X43035I-865J833D01*
G03X42486Y69292I-288J-277D01*
G02X42565Y71033I-785J908D01*
G03X43114Y71008I288J277D01*
G02X44686I786J-907D01*
G03X45235Y71033I262J302D01*
G02X46925Y71072I865J-832D01*
G03X47475I275J290D01*
G02Y69328I825J-872D01*
G03X46925I-275J-290D01*
G02X45314Y69292I-825J872D01*
G37*
G36*
G01X8376Y65922D02*
G03X8202Y66410I-374J141D01*
G02X9546Y68390I599J1040D01*
G03X9803Y68397I124J157D01*
G02X10925Y66344I797J-897D01*
G03X10650Y65845I108J-385D01*
G02X8376Y65922I-1150J-345D01*
G37*
G36*
G01X8478Y49168D02*
G03X8463Y49439I-154J128D01*
G02X8418Y51114I837J861D01*
G03Y51386I-147J136D01*
G02X10182I882J814D01*
G03Y51114I147J-136D01*
G02X10222Y49532I-882J-814D01*
G03X10237Y49261I154J-128D01*
G02X8478Y49168I-837J-861D01*
G37*
G36*
G01X22032Y36135D02*
G03X22008Y35586I277J-288D01*
G02X20268Y35665I-908J-785D01*
G03X20293Y36214I-277J288D01*
G02X22032Y36135I908J785D01*
G37*
G36*
G01X102036Y108748D02*
G02X100639Y108802I-736J-948D01*
G03X100664Y109452I-220J334D01*
G02X102061Y109398I736J948D01*
G03X102036Y108748I220J-334D01*
G37*
G36*
G01X55094Y79147D02*
G02Y80854I-844J853D01*
G03X55656I281J284D01*
G02X57438Y80749I844J-854D01*
G03X58063I313J250D01*
G02Y79251I937J-749D01*
G03X57438I-313J-250D01*
G02X55656Y79147I-938J749D01*
G03X55094I-281J-284D01*
G37*
G36*
G01X36397Y73183D02*
G02X35653Y74212I-1197J-83D01*
G03X36203Y74610I151J370D01*
G02X36947Y73581I1197J83D01*
G03X36397Y73183I-151J-370D01*
G37*
G36*
G01X24104Y66561D02*
G02X22896Y66189I-304J-1161D01*
G03X22696Y66839I-301J263D01*
G02X23904Y67211I304J1161D01*
G03X24104Y66561I301J-263D01*
G37*
G36*
G01X13110Y57838D02*
G02X11347Y57791I-860J-837D01*
G03X11340Y58063I-150J132D01*
G02X11318Y59714I860J837D01*
G03Y59986I-147J136D01*
G02X13082I882J814D01*
G03Y59714I147J-136D01*
G02X13154Y59629I-882J-814D01*
G03X13496Y59672I159J121D01*
G02X13797Y58308I1104J-472D01*
G03X13198Y58233I-267J-297D01*
G02X13103Y58109I-998J667D01*
G03X13110Y57838I150J-132D01*
G37*
G36*
G01X22809Y41682D02*
G02X22316Y40506I691J-982D01*
G03X21691Y40768I-395J-65D01*
G02X22184Y41944I-691J982D01*
G03X22809Y41682I395J65D01*
G37*
G36*
G01X80850Y51063D02*
G03X80350I-250J-312D01*
G02X78726Y52822I-750J937D01*
G03X78740Y53080I-146J137D01*
G02X78781Y54571I960J720D01*
G03Y54829I-153J129D01*
G02X80450Y56537I919J771D01*
G03X80950I250J312D01*
G02X82619Y54829I750J-937D01*
G03Y54571I153J-129D01*
G02X82574Y52978I-919J-771D01*
G03X82560Y52720I146J-137D01*
G02X80850Y51063I-960J-721D01*
G37*
G36*
G01X77437Y45250D02*
G03Y44750I312J-250D01*
G02X75563I-937J-750D01*
G03Y45250I-312J250D01*
G02Y46750I937J750D01*
G03Y47250I-312J250D01*
G02X77437I937J750D01*
G03Y46750I312J-250D01*
G02Y45250I-937J-750D01*
G37*
G36*
G01X76444Y17710D02*
G03X75994Y17272I-52J-397D01*
G02X73864Y17899I-1194J-124D01*
G03Y18149I-156J125D01*
G02X75571Y19819I936J751D01*
G03X75829I129J153D01*
G02X76444Y17710I771J-919D01*
G37*
G36*
G01X179750Y63563D02*
G03X179250I-250J-312D01*
G02Y65437I-750J937D01*
G03X179750I250J312D01*
G02X181250I750J-937D01*
G03X181750I250J312D01*
G02Y63563I750J-937D01*
G03X181250I-250J-312D01*
G02X179750I-750J937D01*
G37*
G36*
G01X93687Y55000D02*
G03Y54500I312J-250D01*
G02X91813I-937J-750D01*
G03Y55000I-312J250D01*
G02X93687I937J750D01*
G37*
G36*
G01X108820Y44052D02*
G03X108445Y43614I23J-399D01*
G02X107180Y44698I-1195J-114D01*
G03X107555Y45136I-23J399D01*
G02Y45364I1195J114D01*
G03X107180Y45802I-398J38D01*
G02Y48198I70J1198D01*
G03X107555Y48636I-23J399D01*
G02Y48864I1195J114D01*
G03X107180Y49302I-398J38D01*
G02Y51698I70J1198D01*
G03X107555Y52136I-23J399D01*
G02Y52364I1195J114D01*
G03X107180Y52802I-398J38D01*
G02Y55198I70J1198D01*
G03X107555Y55636I-23J399D01*
G02Y55864I1195J114D01*
G03X107180Y56302I-398J38D01*
G02Y58698I70J1198D01*
G03X107555Y59136I-23J399D01*
G02Y59364I1195J114D01*
G03X107180Y59802I-398J38D01*
G02Y62198I70J1198D01*
G03X107555Y62636I-23J399D01*
G02Y62864I1195J114D01*
G03X107180Y63302I-398J38D01*
G02X108445Y64386I70J1198D01*
G03X108820Y63948I398J-38D01*
G02Y61552I-70J-1198D01*
G03X108445Y61114I23J-399D01*
G02Y60886I-1195J-114D01*
G03X108820Y60448I398J-38D01*
G02Y58052I-70J-1198D01*
G03X108445Y57614I23J-399D01*
G02Y57386I-1195J-114D01*
G03X108820Y56948I398J-38D01*
G02Y54552I-70J-1198D01*
G03X108445Y54114I23J-399D01*
G02Y53886I-1195J-114D01*
G03X108820Y53448I398J-38D01*
G02Y51052I-70J-1198D01*
G03X108445Y50614I23J-399D01*
G02Y50386I-1195J-114D01*
G03X108820Y49948I398J-38D01*
G02Y47552I-70J-1198D01*
G03X108445Y47114I23J-399D01*
G02Y46886I-1195J-114D01*
G03X108820Y46448I398J-38D01*
G02Y44052I-70J-1198D01*
G37*
G36*
G01X95437Y31500D02*
G03Y31000I312J-250D01*
G02X93563I-937J-750D01*
G03Y31500I-312J250D01*
G02X95437I937J750D01*
G37*
G36*
G01X108820Y30052D02*
G03X108445Y29614I23J-399D01*
G02X107180Y30698I-1195J-114D01*
G03X107555Y31136I-23J399D01*
G02Y31364I1195J114D01*
G03X107180Y31802I-398J38D01*
G02Y34198I70J1198D01*
G03X107555Y34636I-23J399D01*
G02Y34864I1195J114D01*
G03X107180Y35302I-398J38D01*
G02X106396Y37344I70J1198D01*
G03Y37906I-284J281D01*
G02X108104I853J844D01*
G03Y37344I284J-281D01*
G02X108445Y36386I-854J-844D01*
G03X108820Y35948I398J-38D01*
G02Y33552I-70J-1198D01*
G03X108445Y33114I23J-399D01*
G02Y32886I-1195J-114D01*
G03X108820Y32448I398J-38D01*
G02Y30052I-70J-1198D01*
G37*
G36*
G01X95437Y21000D02*
G03Y20500I312J-250D01*
G02X93563I-937J-750D01*
G03Y21000I-312J250D01*
G02X95437I937J750D01*
G37*
G36*
G01X210163Y89560D02*
G02X208887Y89465I-563J-1060D01*
G03X208837Y90140I-238J322D01*
G02X210113Y90235I563J1060D01*
G03X210163Y89560I238J-322D01*
G37*
G36*
G01X202964Y56043D02*
G02X201684Y54124I-364J-1144D01*
G03X201097Y54149I-305J-259D01*
G02X199406Y54147I-847J851D01*
G03X198844I-281J-284D01*
G02X197025Y54300I-844J854D01*
G03X196375I-325J-233D01*
G02Y55700I-975J700D01*
G03X197025I325J233D01*
G02X198844Y55854I975J-700D01*
G03X199406I281J284D01*
G02X201166Y55776I844J-854D01*
G03X201753Y55751I305J259D01*
G02X201786Y55782I848J-849D01*
G03X201636Y56457I-271J294D01*
G02X202814Y56718I365J1144D01*
G03X202964Y56043I271J-294D01*
G37*
G36*
G01X109190Y15845D02*
G02X108497Y17092I-1190J155D01*
G03X109060Y17405I166J364D01*
G02X109753Y16158I1190J-155D01*
G03X109190Y15845I-166J-364D01*
G37*
G36*
G01X105188Y156751D02*
G02Y158249I-938J749D01*
G03X105812I312J250D01*
G02Y156751I938J-749D01*
G03X105188I-313J-250D01*
G37*
G36*
G01X233585Y146787D02*
G03X233760Y146262I362J-171D01*
G02X232115Y145713I-560J-1062D01*
G03X231940Y146238I-362J171D01*
G02X233585Y146787I560J1062D01*
G37*
G36*
G01X249712Y140656D02*
G02X249527Y142170I-1012J644D01*
G03X250140Y142244I276J290D01*
G02X250326Y140730I1012J-644D01*
G03X249712Y140656I-276J-290D01*
G37*
G36*
G01X221287Y141700D02*
G02X220088Y140800I-37J-1200D01*
G03X219713Y141300I-387J100D01*
G02X220912Y142200I37J1200D01*
G03X221287Y141700I387J-100D01*
G37*
G36*
G01X253142Y130666D02*
G02X253120Y132295I-892J803D01*
G03X253708Y132303I290J275D01*
G02X254931Y132654I892J-803D01*
G03X255431Y133129I110J384D01*
G02X256269Y132246I1169J271D01*
G03X255769Y131771I-110J-384D01*
G02X253730Y130674I-1169J-271D01*
G03X253142Y130666I-290J-275D01*
G37*
G36*
G01X248821Y115931D02*
G02X247529Y116469I-1021J-631D01*
G03X247779Y117069I-90J390D01*
G02X247863Y118450I1021J631D01*
G03Y118950I-312J250D01*
G02X247799Y119037I937J750D01*
G03X247471Y119044I-167J-110D01*
G02X245577Y118982I-971J706D01*
G03X244952Y118970I-307J-256D01*
G02X244882Y118886I-953J730D01*
G03Y118614I147J-136D01*
G02X243118I-882J-814D01*
G03Y118886I-147J136D01*
G02X244923Y120468I882J814D01*
G03X245547Y120480I307J256D01*
G02X247381Y120565I953J-730D01*
G03X247956Y120553I293J272D01*
G02X249605Y120590I844J-853D01*
G03X250155Y120603I268J297D01*
G02X250195Y118860I845J-853D01*
G03X249645Y118848I-268J-297D01*
G02X249640Y118843I-851J846D01*
G03Y118557I140J-143D01*
G02X249071Y116531I-840J-857D01*
G03X248821Y115931I90J-390D01*
G37*
G36*
G01X245152Y110850D02*
G02X244898Y109525I848J-850D01*
G03X244248Y109650I-367J-158D01*
G02X242650Y109563I-848J850D01*
G03X242150I-250J-312D01*
G02X240650I-750J937D01*
G03X240150I-250J-312D01*
G02Y111437I-750J937D01*
G03X240650I250J312D01*
G02X242150I750J-937D01*
G03X242650I250J312D01*
G02X244502Y110975I750J-937D01*
G03X245152Y110850I367J158D01*
G37*
G54D16*
X-31350Y152650D03*
X-26900Y160900D03*
X-28500Y177600D03*
X-24450Y151900D03*
X-26650Y164050D03*
X-24450Y156800D03*
X-25000Y166800D03*
X-24450Y177650D03*
X-5750Y153000D03*
X-5600Y159200D03*
X-11100Y162000D03*
X-11200Y166900D03*
X-10000Y174900D03*
X-200Y130800D03*
X2250Y144000D03*
Y153050D03*
X8000Y153000D03*
X3150Y165000D03*
X8500Y161900D03*
X3150Y168000D03*
X8600Y171050D03*
X19100Y127500D03*
X19400Y131800D03*
X20000Y152200D03*
X20250Y161900D03*
X16250D03*
X12300D03*
X20350Y171050D03*
X16350D03*
X12350D03*
X22600Y136200D03*
X22900Y144500D03*
X29159Y152200D03*
X29100Y162800D03*
X24100Y161900D03*
X24500Y156250D03*
X24100Y171050D03*
X29100Y169900D03*
X37400Y137100D03*
X33000Y135700D03*
X41000Y135000D03*
X44500D03*
Y141400D03*
X41000D03*
X33884Y129759D03*
X37427D03*
X33900Y143400D03*
X41500Y155200D03*
X44500Y170600D03*
Y174750D03*
X40970Y174641D03*
X37427D03*
X34000Y174500D03*
X56400Y116500D03*
X55000Y135000D03*
X51600Y129759D03*
X55000Y141400D03*
X48057Y129759D03*
X54500Y155100D03*
X62300Y129800D03*
X58500Y135000D03*
Y141400D03*
X63600Y150600D03*
X67000Y144100D03*
X58500Y151100D03*
Y155200D03*
X67200Y169600D03*
X62200Y174600D03*
X69500Y134800D03*
X69250Y141500D03*
X75500D03*
X74041Y152200D03*
Y148657D03*
Y145113D03*
X69500Y155800D03*
X74000Y162800D03*
X75500Y155750D03*
X74000Y169900D03*
X77250Y174750D03*
X69316Y174641D03*
X81800Y154900D03*
X84800D03*
X81000Y163750D03*
X85000Y163500D03*
X91750Y155000D03*
X85000Y173900D03*
Y167500D03*
X81000Y167400D03*
X93500D03*
X102059Y176691D03*
X103500Y170600D03*
X93500Y174400D03*
X115500D03*
X111500Y170600D03*
X115500D03*
X127500Y174400D03*
Y170600D03*
X134248Y165000D03*
X128000D03*
X131098D03*
X135500Y174400D03*
X139500Y170600D03*
X151500Y174400D03*
X147500D03*
X151500Y170600D03*
X147500D03*
X162593Y164961D03*
X154721Y164371D03*
X159500Y174400D03*
X173619Y164371D03*
X170430Y164332D03*
X171500Y174400D03*
X167500D03*
X179918Y164371D03*
X183068D03*
X176768D03*
X186217D03*
X179500Y174400D03*
X175500D03*
X183500D03*
X198750Y164500D03*
X195664Y164371D03*
X187500Y174400D03*
X191500D03*
X201965Y164371D03*
X205115D03*
X199600Y174400D03*
X203500Y170600D03*
X207500D03*
X199500D03*
X217400Y164500D03*
X211500Y170600D03*
X219500D03*
X215500D03*
X-17600Y17000D03*
X-15000Y30500D03*
X-4500Y18000D03*
X-8700D03*
X-8750Y28500D03*
X17250Y15000D03*
X15000Y18000D03*
X14600Y31900D03*
Y28100D03*
X24850Y26197D03*
X28031Y26242D03*
X31131Y26193D03*
X37430Y26137D03*
X56333Y26052D03*
X46400Y26100D03*
X62547Y26217D03*
X66574Y24582D03*
X180600Y14700D03*
X187600Y14500D03*
X193500Y33600D03*
X189900Y33700D03*
X197700Y27600D03*
X193700D03*
X189800D03*
X199000Y38500D03*
X197016Y40750D03*
X195750Y47500D03*
X201500Y21800D03*
X209700Y14500D03*
X205500Y33700D03*
X209600Y27600D03*
X205800D03*
X201900D03*
X210200Y44700D03*
X207200Y40300D03*
X207500Y36200D03*
X203200Y35900D03*
X201000Y40750D03*
X207000Y43500D03*
X200000Y47500D03*
X215864Y12336D03*
X219931Y17831D03*
X213800Y16600D03*
X213400Y27600D03*
X230400Y15300D03*
Y18400D03*
X224600Y22100D03*
X224900Y14100D03*
X223000Y33400D03*
X236800Y40800D03*
X243500Y41200D03*
X241900Y54600D03*
X242600Y51400D03*
X235700Y62500D03*
X250900Y56400D03*
X255000D03*
X252900Y49500D03*
X250900Y60700D03*
X255000D03*
X252900Y58500D03*
X262700Y50500D03*
X259900Y52000D03*
X268800Y60600D03*
X265000Y60500D03*
X47237Y110170D03*
X42500Y110700D03*
X31713Y105987D03*
X27200Y107100D03*
X27300Y95400D03*
Y99500D03*
X31750Y101250D03*
X27200Y103300D03*
X27300Y91500D03*
X23519Y88026D03*
X30250Y91500D03*
X19700Y111200D03*
X19400Y95600D03*
X19600Y103600D03*
X-12900Y109700D03*
X-16800D03*
Y113700D03*
X36500Y112400D03*
X14623Y43097D03*
X20600Y54900D03*
X18500Y69000D03*
X14400D03*
X20800Y59000D03*
X14500Y63400D03*
X31131Y45034D03*
X27981D03*
X31131Y38791D03*
X27981D03*
X31131Y35641D03*
X27981D03*
X24400Y35456D03*
X31131Y57633D03*
X27981D03*
X24832Y54183D03*
X31131D03*
X27981D03*
X31131Y48184D03*
X27981Y51334D03*
X31131D03*
X27981Y48184D03*
X24889Y48261D03*
X27981Y60782D03*
X30900Y67600D03*
X43674Y38791D03*
X37401Y45061D03*
X40570Y41894D03*
X34400Y45100D03*
X34281Y41941D03*
X37430D03*
X34281Y38791D03*
X37430D03*
X34281Y35641D03*
X43644Y41957D03*
X40531Y45070D03*
X43674Y45034D03*
X40570Y35614D03*
X43683D03*
X37430Y35641D03*
X43732Y51332D03*
X40500Y51400D03*
X43721Y48221D03*
X37430Y54483D03*
Y48184D03*
X40570Y48104D03*
X43722Y57717D03*
X34281Y57633D03*
X37430D03*
X40492Y57757D03*
X37430Y51334D03*
X35659Y64664D03*
X43850Y60640D03*
X40580Y60782D03*
X40082Y64860D03*
X40000Y76400D03*
X53189Y45024D03*
X53100Y41839D03*
X53122Y35641D03*
X56272Y35585D03*
X49987Y45030D03*
X53122Y38791D03*
X49987Y41878D03*
X49973Y38791D03*
X49908Y35692D03*
X46953Y38687D03*
X56370Y41918D03*
X56299Y45063D03*
X46870Y35613D03*
X56272Y54483D03*
Y51334D03*
X49973D03*
X53122Y48184D03*
X46953Y51256D03*
X46835Y48222D03*
X56272Y48184D03*
Y57633D03*
X50026Y57717D03*
X53122Y54483D03*
X46914Y57717D03*
X49973Y54483D03*
X53208Y60800D03*
X46832Y60832D03*
X46800Y67378D03*
X56272Y60782D03*
X54250Y70000D03*
X50026Y60751D03*
X56262Y63922D03*
X53152Y63961D03*
X48000Y76400D03*
X52300Y72600D03*
X52000Y83900D03*
X59422Y45034D03*
X62571D03*
X59488Y38725D03*
X62637D03*
X62571Y41941D03*
Y57633D03*
X59478Y51334D03*
X62627D03*
X65777Y54483D03*
X62571D03*
X59422D03*
X64200Y64000D03*
X59404Y60791D03*
X60500Y76000D03*
X64400D03*
X68300Y76400D03*
X66600Y79600D03*
X56600Y76000D03*
X66500Y91500D03*
X66600Y87400D03*
X66500Y95500D03*
X72000Y68500D03*
X69500Y59235D03*
X73800Y79800D03*
X70400Y79600D03*
X77000Y71500D03*
X70400Y91500D03*
Y87400D03*
X75000Y87500D03*
X80000Y88500D03*
X70400Y83400D03*
X86500Y79000D03*
X86524Y88460D03*
X91000Y100500D03*
X88400Y104500D03*
X97500Y100200D03*
X100400D03*
X100000Y104000D03*
X101500Y121700D03*
X102200Y130600D03*
X105700Y103900D03*
X107382Y114000D03*
X107400Y111000D03*
X107900Y106100D03*
X111100Y120000D03*
X107400Y121800D03*
X104100Y120000D03*
X111250Y123750D03*
X106000Y129100D03*
X111500Y141000D03*
Y136000D03*
X111300Y129800D03*
X115500Y136000D03*
X104100Y141700D03*
X127350Y123950D03*
X126200Y120250D03*
X123200Y123600D03*
X116100Y120100D03*
X126372Y132875D03*
X119313Y140748D03*
X126384Y129726D03*
X126412Y139135D03*
X122900Y145800D03*
X132672Y126576D03*
X135841Y123407D03*
X135821Y126576D03*
X139097Y126446D03*
X129522Y132875D03*
X135821Y136025D03*
X138971Y132875D03*
X132672Y136025D03*
X138971D03*
X135821Y129726D03*
X132672D03*
Y132875D03*
X129522Y129726D03*
X135861Y139135D03*
X135821Y132875D03*
X139000Y139201D03*
X132711Y139135D03*
X135821Y145474D03*
X138971D03*
X132672D03*
X138971Y142471D03*
X148420Y126630D03*
X142140Y120294D03*
X142132Y123435D03*
X145400Y123550D03*
X145290Y120294D03*
X142074Y126622D03*
X151473Y126673D03*
X148439Y120294D03*
X148420Y132875D03*
X142120D03*
Y136025D03*
X151569Y132875D03*
X148420Y136025D03*
X151569D03*
X145270Y129726D03*
Y132875D03*
X151569Y139174D03*
Y129726D03*
X148420D03*
X142120Y145474D03*
Y142324D03*
X161038Y117144D03*
X161122Y129622D03*
X157888Y120294D03*
X154700Y120500D03*
X161038Y120294D03*
X157868Y139174D03*
Y132875D03*
Y129726D03*
X154719Y136025D03*
Y132875D03*
Y129726D03*
X161018Y136025D03*
X157871D03*
X161018Y139174D03*
X154719Y145474D03*
X157868Y142324D03*
X161018D03*
Y145474D03*
X170430Y104566D03*
X167124Y104639D03*
X173618Y107677D03*
X173619Y126576D03*
X170469Y132875D03*
X173619Y136025D03*
Y129726D03*
Y132875D03*
X167320Y136025D03*
X170469Y129726D03*
X173619Y145474D03*
X170469Y142324D03*
X167320D03*
X179879Y117164D03*
X183028D03*
X186178Y114015D03*
X179879Y110865D03*
Y107715D03*
X183028D03*
X176767Y110827D03*
X176709Y107677D03*
X183028Y114015D03*
X179879D03*
X186178Y110865D03*
Y117164D03*
Y107715D03*
X176768Y126576D03*
X179918D03*
X183068D03*
X179879Y120314D03*
X183028D03*
X176768Y136025D03*
X179918D03*
X186217Y129726D03*
X183068D03*
X176768D03*
X179918Y132875D03*
X176768D03*
X179918Y129726D03*
Y139174D03*
X176768D03*
X183068Y136025D03*
Y132875D03*
X186217D03*
X189328Y110865D03*
X192477Y113938D03*
Y107639D03*
Y110789D03*
X189328Y117164D03*
Y114015D03*
Y120314D03*
X192477D03*
X189367Y129726D03*
X72000Y19500D03*
Y28500D03*
Y37000D03*
Y43000D03*
X96400Y68000D03*
X120074Y91929D03*
X120301Y104301D03*
X120074Y98228D03*
X126392Y101396D03*
X123224Y95079D03*
X126392Y98247D03*
X120074Y95079D03*
X123224Y98228D03*
X123242Y104509D03*
X132691Y104546D03*
X129542D03*
X135841D03*
X138991D03*
X129542Y101396D03*
X151600Y104560D03*
X142140Y104546D03*
X145271Y104528D03*
X91250Y20750D03*
Y15500D03*
X85500Y15000D03*
X91250Y31250D03*
Y26000D03*
Y36500D03*
X101000Y22500D03*
Y19000D03*
Y15500D03*
X97500D03*
X98000Y20750D03*
X101000Y33000D03*
Y29500D03*
Y26000D03*
X98000D03*
Y31250D03*
X101000Y36500D03*
Y40000D03*
Y43500D03*
X98000Y36500D03*
Y41750D03*
X98500Y57000D03*
X96400Y47000D03*
X105200Y13100D03*
X115000Y15600D03*
X107250Y19000D03*
X110250Y20750D03*
X107250Y22500D03*
X110250Y24250D03*
X107250Y26000D03*
X110250Y27750D03*
X113254Y33187D03*
Y39092D03*
X115223Y36139D03*
X122506Y21966D03*
X121128Y33187D03*
X117191D03*
X125065D03*
X121128Y39092D03*
X119160Y36139D03*
X127034D03*
X125065Y39092D03*
X123097Y36139D03*
X117191Y39092D03*
X122506Y50313D03*
X120147Y76253D03*
X123224Y79331D03*
X126374D03*
Y76181D03*
X120074Y82480D03*
X123224D03*
Y85630D03*
X126392Y88798D03*
Y85648D03*
Y82499D03*
X128806Y21966D03*
X135105D03*
X138254D03*
X136876Y33187D03*
X132939D03*
X129002D03*
X132939Y39092D03*
X136876D03*
X129002D03*
X130971Y36139D03*
X138828D03*
X134908D03*
X135105Y50313D03*
X128806D03*
X135822Y76181D03*
X138972Y79331D03*
X129523D03*
X135822D03*
X129523Y76181D03*
X132673D03*
X138972D03*
X132673Y79331D03*
X132691Y88798D03*
X139000Y82500D03*
X138969Y91969D03*
X129542Y91948D03*
Y82499D03*
X135841D03*
X129542Y88798D03*
X135841Y85648D03*
X132673Y85630D03*
X135804Y91948D03*
X135841Y88798D03*
X135822Y98228D03*
X132691Y95097D03*
X135841Y95060D03*
X144554Y21966D03*
X147703D03*
X144554Y28265D03*
X144750Y33187D03*
X140813D03*
X150853Y31415D03*
Y28265D03*
X147703D03*
X150853Y25116D03*
X144554Y44013D03*
X144750Y39092D03*
X140813D03*
X150853Y44013D03*
Y40864D03*
X147703Y44013D03*
X149278Y36139D03*
X146128D03*
X142782D03*
X144554Y50313D03*
X150853D03*
Y47163D03*
X147703Y50313D03*
X151598Y76160D03*
X142122Y79331D03*
X145271Y76181D03*
Y79331D03*
X142122Y76181D03*
X148439Y88798D03*
X142140Y82499D03*
Y85648D03*
Y88798D03*
X145290D03*
X142140Y91948D03*
X145290D03*
Y95097D03*
X148491Y98344D03*
X145290Y98247D03*
X160302Y21966D03*
X154002Y21900D03*
X157152Y25116D03*
Y31415D03*
X163451Y28265D03*
X160302Y31415D03*
X163451D03*
Y25116D03*
X154002D03*
X157152Y28265D03*
X154002Y31415D03*
X160302Y28265D03*
X154002D03*
Y44013D03*
X157152Y40864D03*
X163451D03*
Y44013D03*
X160302Y40864D03*
X157152Y44013D03*
X154002Y40864D03*
X163451Y50313D03*
X157152D03*
X160302Y47163D03*
X157152D03*
X154002D03*
X163451D03*
X158000Y69500D03*
X160953D03*
X161100Y74500D03*
X158000D03*
X154739Y98247D03*
X151640Y98344D03*
X169750Y21966D03*
X166601Y28265D03*
X172900D03*
X166601Y31415D03*
X169750D03*
Y25116D03*
X172900Y31415D03*
X166601Y25116D03*
X172900D03*
X169750Y36139D03*
Y44013D03*
X166601Y40864D03*
X172900D03*
X166601Y44013D03*
X169750Y40864D03*
X172900Y44013D03*
X169750Y50313D03*
X172900Y47163D03*
X166601D03*
X166500Y69500D03*
X169453Y69389D03*
X166460Y74500D03*
X169453Y74389D03*
X164100Y79400D03*
X170430Y85668D03*
Y98266D03*
X164131D03*
X167280D03*
X170424Y95124D03*
X185900Y61500D03*
X175953Y68000D03*
X179600D03*
X175900Y73700D03*
X181900Y75326D03*
X179600Y71500D03*
X179879Y88818D03*
X186300Y88800D03*
X183002Y95144D03*
Y98256D03*
X187500Y54750D03*
X189500Y57600D03*
X196000Y67100D03*
X187500Y67250D03*
X195500Y75000D03*
X192000Y70900D03*
X198750Y76250D03*
X198841Y79304D03*
X196000Y70900D03*
X195610Y85570D03*
X198776Y88818D03*
X195627Y91967D03*
X198776D03*
X189400Y88800D03*
X189328Y91967D03*
X198776Y82518D03*
X198802Y85766D03*
X192600Y95000D03*
X189394Y95106D03*
X195627Y98266D03*
X189328D03*
X198776D03*
Y95117D03*
X195627D03*
X209600Y54200D03*
X204000Y67100D03*
X208225Y76219D03*
X205076Y79369D03*
X202023Y76123D03*
X201926Y79369D03*
X204000Y70900D03*
X200000D03*
X208000D03*
X205076Y88818D03*
X201926Y91967D03*
Y85668D03*
Y82518D03*
X205066Y91992D03*
X201926Y88818D03*
X208225Y82518D03*
X205097Y82497D03*
X201926Y95117D03*
Y98266D03*
X212400Y54000D03*
X217800Y64000D03*
X212500Y63750D03*
X222000Y74600D03*
X222100Y80700D03*
X216400Y72500D03*
X217400Y76500D03*
Y80500D03*
X222550Y85550D03*
X217800Y92400D03*
Y88400D03*
X213600Y92500D03*
X217400Y84500D03*
X213600Y100500D03*
Y96500D03*
X217400D03*
X72400Y111700D03*
X97600Y149500D03*
Y145500D03*
X101400Y149500D03*
X104900Y153700D03*
X113400Y156300D03*
X117125Y156529D03*
X123223Y158072D03*
X126372D03*
X135821Y154922D03*
Y158072D03*
X132672Y154922D03*
Y158072D03*
X129522D03*
X129576Y154913D03*
X148420Y145474D03*
Y148623D03*
Y151773D03*
Y158072D03*
X151569D03*
Y154922D03*
X145270D03*
X145217Y158125D03*
X148420Y154922D03*
X157868Y158072D03*
X170469D03*
X186217D03*
X176768D03*
X183068D03*
X198816Y158070D03*
X195666Y158072D03*
X205128Y158072D03*
X201963Y158072D03*
X227400Y160500D03*
X232000Y170900D03*
X231500Y174400D03*
X235500D03*
X138991Y110845D03*
X142080Y110880D03*
X120301Y110800D03*
X120300Y113946D03*
X123400Y110800D03*
X126392Y110845D03*
X129542D03*
X132691D03*
X135841D03*
X154739D03*
X157888D03*
X154739Y113995D03*
X170430Y117164D03*
X167357Y110865D03*
X170468Y113976D03*
X148484Y113876D03*
X145290Y113995D03*
X151589Y110845D03*
X148439D03*
X151500Y114050D03*
X161018Y151773D03*
X167320D03*
X179918D03*
X186217Y148623D03*
X183066Y148622D03*
X186216Y151772D03*
X183066D03*
X179919Y148622D03*
X176768Y151773D03*
X183068Y145474D03*
X186254Y145511D03*
X195669Y139169D03*
X195594Y136094D03*
X189367Y139174D03*
X192516Y136025D03*
Y139174D03*
X198816D03*
Y132875D03*
X195627Y132836D03*
X189272Y142229D03*
X192500Y148800D03*
X189367Y145474D03*
X192516D03*
X195666Y148623D03*
X192516Y142324D03*
X195666Y145474D03*
X198816Y151773D03*
Y148623D03*
X198776Y142285D03*
Y145434D03*
X189404Y148660D03*
X201800Y110900D03*
X202000Y113900D03*
X208225Y117164D03*
X205076D03*
X201884Y126495D03*
X201926Y120314D03*
X202000Y123433D03*
X208265Y120274D03*
X209000Y127000D03*
X209250Y123500D03*
X205076Y120314D03*
X205034Y129644D03*
X201965Y136025D03*
X208343Y129804D03*
X201965Y139174D03*
X205115D03*
X201965Y132875D03*
X205115Y136025D03*
X208265Y148623D03*
Y145474D03*
X201965Y151773D03*
Y148623D03*
Y142324D03*
Y145474D03*
X205115D03*
Y142324D03*
X217400Y116500D03*
Y108500D03*
X213600Y112500D03*
X217400D03*
X221250D03*
Y108500D03*
Y116500D03*
X217400Y120500D03*
Y124500D03*
X217500Y128500D03*
X213600D03*
X221250D03*
Y120500D03*
X217400Y132500D03*
Y136500D03*
X213600D03*
Y132500D03*
X221250Y137000D03*
Y146750D03*
Y150016D03*
X217400Y148500D03*
Y144500D03*
X223300Y104500D03*
X231800Y109100D03*
X227400Y124500D03*
Y128500D03*
X233900Y137100D03*
X227400Y136500D03*
Y132500D03*
Y140500D03*
Y148500D03*
Y144500D03*
X234900Y109300D03*
X242800Y123600D03*
X246750Y130500D03*
X242824Y143280D03*
X249900Y111200D03*
X253750Y108850D03*
X250750Y127500D03*
X247750D03*
X250700Y135400D03*
X252700Y137400D03*
X253400Y149900D03*
X263400Y113900D03*
X267400Y118300D03*
X259100Y118100D03*
X263700Y150000D03*
X268500Y145750D03*
G54D21*
X231250Y40000D03*
Y49840D03*
Y57720D03*
G54D17*
X10000Y127500D03*
X0Y112500D03*
X10000Y107500D03*
Y97500D03*
X0Y102500D03*
Y92500D03*
G54D20*
X50000Y5000D03*
G54D19*
X20000D03*
X30000D03*
X40000D03*
X70000D03*
X60000D03*
X80000D03*
X90000D03*
X100000D03*
X110000D03*
X130000D03*
X120000D03*
X140000D03*
X150000D03*
X160000D03*
X170000D03*
X180000D03*
X200000D03*
X190000D03*
X210000D03*
X220000D03*
X230000D03*
G54D18*
X40970Y166373D03*
X55143D03*
X48057D03*
%LPD*%
G75*
G54D10*
X-33615Y10277D03*
Y39608D03*
G54D11*
X-29700Y157600D03*
Y173700D03*
X-29900Y166300D03*
X-16600Y28100D03*
X-18000Y38000D03*
Y40000D03*
X-20000D03*
Y38000D03*
X-22000Y40000D03*
Y38000D03*
X-16000Y40000D03*
Y38000D03*
X-16800Y105700D03*
X-21000D03*
Y109700D03*
X-15600Y181500D03*
X-14000Y38000D03*
Y40000D03*
X-250Y56000D03*
Y57800D03*
Y59600D03*
Y61500D03*
X25250Y18750D03*
X21250D03*
X23250D03*
X21250Y16750D03*
X23250D03*
X25250D03*
X21250Y20750D03*
X23250D03*
X25250D03*
X27250Y16750D03*
Y18750D03*
Y20750D03*
X25100Y60300D03*
X30250Y141500D03*
X28250D03*
X43644Y26237D03*
X43444Y29056D03*
X34281Y26137D03*
Y29286D03*
Y26193D03*
X35600Y115000D03*
X35200Y125400D03*
X44500Y126000D03*
X41000D03*
X33750Y148750D03*
X41500Y151100D03*
X34000Y170600D03*
X49973Y23043D03*
Y26193D03*
X53053Y23112D03*
X53034Y26282D03*
X45750Y86750D03*
X55000Y108000D03*
Y126000D03*
X48000Y141400D03*
X62600Y29460D03*
X65830Y29390D03*
X58500Y126000D03*
X74600Y100600D03*
X81200Y15700D03*
Y17600D03*
Y19400D03*
X85950Y20750D03*
Y18750D03*
Y33500D03*
Y31500D03*
Y29500D03*
Y22750D03*
X86000Y63500D03*
X87250Y151000D03*
X89250D03*
X85250D03*
X91100Y170600D03*
X89000Y167400D03*
X98500Y60000D03*
X101400Y153500D03*
X93500Y163600D03*
X99537Y167693D03*
X107250Y41250D03*
X105500Y70000D03*
X114850Y111060D03*
X114800Y113900D03*
X107500Y174400D03*
X125656Y21966D03*
Y50313D03*
X120074Y79331D03*
X123203Y76160D03*
X123500Y174400D03*
X131955Y21966D03*
Y50313D03*
X132691Y82499D03*
X138991Y88798D03*
Y85648D03*
Y98247D03*
X138972Y95079D03*
X138991Y117144D03*
X141404Y18816D03*
X150853Y21966D03*
X147703Y25116D03*
X144554D03*
X147703Y47163D03*
X144554D03*
X142654Y61349D03*
X151600Y79266D03*
X142140Y98247D03*
Y95097D03*
X148420Y142324D03*
X143500Y174400D03*
X157152Y21966D03*
X163451D03*
X160302Y25116D03*
X154002Y36139D03*
X160302Y44013D03*
X154002Y50313D03*
X160302D03*
X161017Y88800D03*
Y85648D03*
X161038Y104546D03*
X157888D03*
X154739D03*
X161038Y113995D03*
X154739Y107696D03*
X161038Y110845D03*
X157868Y126576D03*
X161001Y126556D03*
X154719Y139174D03*
X161018Y132875D03*
X154719Y142324D03*
X157868Y151773D03*
X163500Y174400D03*
X155500D03*
X172900Y21966D03*
X166601D03*
X169750Y28265D03*
X172900Y50313D03*
X169750Y47163D03*
X166601Y50313D03*
X173580Y98266D03*
Y101416D03*
X167280Y117164D03*
Y114015D03*
X170469Y126576D03*
X167320D03*
X173580Y120314D03*
X167280D03*
X167320Y129726D03*
X170469Y136025D03*
X167320Y132875D03*
X170469Y151773D03*
X181600Y22140D03*
X185900Y57500D03*
X182989Y79408D03*
X186169Y95031D03*
X186178Y98266D03*
X186247Y101347D03*
X183028Y110865D03*
X186178Y120314D03*
X186217Y126576D03*
Y139174D03*
X176768Y142324D03*
X198000Y57600D03*
X195627Y88818D03*
X198700Y113900D03*
X198816Y136025D03*
X189367Y151773D03*
X195666D03*
X195500Y174400D03*
X206000Y57600D03*
X205115Y148623D03*
X220900Y57500D03*
X227100Y104500D03*
X243500Y174400D03*
X239500D03*
X258400Y108100D03*
X256604Y127646D03*
X258646Y141354D03*
X250400Y137800D03*
X247500Y174400D03*
X268520Y43980D03*
X268580Y41420D03*
X264900Y65400D03*
X263000Y108100D03*
G54D12*
X40970Y166373D03*
X55143D03*
X48057D03*
G54D13*
X50000Y-5000D03*
Y5000D03*
G54D14*
G01Y-5000D02*
X53382Y-1618D01*
G01X46618D02*
X50000Y-5000D01*
G01X46618Y1618D02*
X50000Y5000D01*
G01D02*
X53382Y8382D01*
G01X46618D02*
X50000Y5000D01*
G01D02*
X53382Y1618D01*
G54D15*
G01X-32500Y-12500D02*
X232500D01*
G03X282500Y37500I0J50000D01*
G01Y152500D01*
G03X232500Y202500I-50000J0D01*
G01X-32500D01*
G03X-57500Y177500I0J-25000D01*
G01Y12500D01*
G03X-32500Y-12500I25000J0D01*
M02*
