G04 ================== begin FILE IDENTIFICATION RECORD ==================*
G04 Layout Name:  C:/Users/a0321898/Documents/GitHub/beaglebone-ai/HW/BeagleBone-AI.brd*
G04 Film Name:    LAY2_GND*
G04 File Format:  Gerber RS274X*
G04 File Origin:  Cadence Allegro 17.2-S049*
G04 Origin Date:  Wed Feb 19 11:28:08 2020*
G04 *
G04 Layer:  VIA CLASS/GND_L2*
G04 Layer:  PIN/GND_L2*
G04 Layer:  ETCH/GND_L2*
G04 Layer:  BOARD GEOMETRY/OUTLINE*
G04 *
G04 Offset:    (0.000 0.000)*
G04 Mirror:    No*
G04 Mode:      Positive*
G04 Rotation:  0*
G04 FullContactRelief:  No*
G04 UndefLineWidth:     5.000*
G04 ================== end FILE IDENTIFICATION RECORD ====================*
%FSLAX25Y25*MOIN*%
%IR0*IPPOS*OFA0.00000B0.00000*MIA0B0*SFA1.00000B1.00000*%
%ADD18O,.135X.08*%
%ADD16C,.175*%
%ADD11C,.016*%
%ADD17C,.062*%
%ADD19C,.065*%
%ADD15C,.095*%
%ADD14C,.023622*%
%ADD20O,.09252X.051181*%
%ADD12C,.03937*%
%ADD10O,.070866X.03937*%
%ADD13O,.062992X.03937*%
%ADD21C,.02*%
%ADD22C,.03*%
%ADD23C,.015*%
%ADD24C,.005*%
%ADD25C,.024004*%
%ADD29C,.070004*%
%ADD26C,.066004*%
%ADD27C,.068004*%
%ADD30C,.089004*%
%ADD28C,.053626*%
G75*
%LPD*%
G75*
G36*
G01X275500Y82200D02*
Y161300D01*
X243131Y193669D01*
X243178Y193790D01*
G03X238790Y198178I-3178J1210D01*
G01X238669Y198131D01*
X238400Y198400D01*
X230036D01*
G03X229964I-36J-3400D01*
G01X220036D01*
G03X219964I-36J-3400D01*
G01X210036D01*
G03X209964I-36J-3400D01*
G01X200036D01*
G03X199964I-36J-3400D01*
G01X190036D01*
G03X189964I-36J-3400D01*
G01X180036D01*
G03X179964I-36J-3400D01*
G01X170036D01*
G03X169964I-36J-3400D01*
G01X160036D01*
G03X159964I-36J-3400D01*
G01X150036D01*
G03X149964I-36J-3400D01*
G01X140036D01*
G03X139964I-36J-3400D01*
G01X130036D01*
G03X129964I-36J-3400D01*
G01X120036D01*
G03X119964I-36J-3400D01*
G01X110036D01*
G03X109964I-36J-3400D01*
G01X100036D01*
G03X99964I-36J-3400D01*
G01X90036D01*
G03X89964I-36J-3400D01*
G01X80036D01*
G03X79964I-36J-3400D01*
G01X70036D01*
G03X69964I-36J-3400D01*
G01X60036D01*
G03X59964I-36J-3400D01*
G01X50036D01*
G03X49964I-36J-3400D01*
G01X40036D01*
G03X39964I-36J-3400D01*
G01X30036D01*
G03X29964I-36J-3400D01*
G01X20036D01*
G03X19964I-36J-3400D01*
G01X-28400D01*
Y200000D01*
X238600D01*
G02X280000Y152500I-6293J-47276D01*
G01Y37500D01*
G02X239100Y-10400I-48499J0D01*
G01X-32400D01*
G02X-55000Y12500I302J22900D01*
G01Y52586D01*
G02X-54412Y52940I400J0D01*
G03X-53079Y53081I562J1060D01*
G02X-52821I129J-153D01*
G03X-51236Y53118I771J919D01*
G02X-50964I136J-147D01*
G03X-49213Y54750I814J882D01*
G02Y55250I312J250D01*
G03Y56750I-937J750D01*
G02Y57250I312J250D01*
G03X-50964Y58882I-937J750D01*
G02X-51236I-136J147D01*
G03X-52794Y58942I-814J-882D01*
G02X-53059Y58956I-124J157D01*
G03X-54425Y59179I-841J-856D01*
G02X-55000Y59539I-175J360D01*
G01Y177500D01*
G02X-32500Y200000I22500J0D01*
G01X-28500D01*
Y198400D01*
X-36700D01*
X-48200Y186900D01*
Y141900D01*
X-44200Y137900D01*
X-9600D01*
X-9200Y137500D01*
Y135100D01*
X-10200Y134100D01*
X-14100D01*
X-14900Y134900D01*
X-22534D01*
G03X-27466I-2466J-7400D01*
G01X-46100D01*
X-48500Y132500D01*
Y107713D01*
X-48671Y107688D01*
G03Y105312I171J-1188D01*
G01X-48500Y105287D01*
Y76400D01*
X-46000Y73900D01*
X-17500D01*
X-15500Y75900D01*
X-12600D01*
X-11300Y74600D01*
Y72400D01*
X-12100Y71600D01*
X-45100D01*
X-47200Y69500D01*
Y46500D01*
X-46200Y45500D01*
X-29400D01*
X-27100Y43200D01*
Y42300D01*
X-27500Y41900D01*
X-29800D01*
X-30400Y42500D01*
X-32320D01*
G03X-34910I-1295J-2892D01*
G01X-46500D01*
X-51900Y37100D01*
Y10587D01*
X-51893Y10594D01*
X-47900Y6600D01*
X-31700D01*
X-30200Y8100D01*
X-28200D01*
X-27400Y7300D01*
Y6700D01*
X-32700Y1400D01*
Y-5900D01*
X-30200Y-8400D01*
X19964D01*
G03X20036I36J3400D01*
G01X29964D01*
G03X30036I36J3400D01*
G01X39964D01*
G03X40036I36J3400D01*
G01X49964D01*
G03X50036I36J3400D01*
G01X59964D01*
G03X60036I36J3400D01*
G01X69964D01*
G03X70036I36J3400D01*
G01X79964D01*
G03X80036I36J3400D01*
G01X89964D01*
G03X90036I36J3400D01*
G01X99964D01*
G03X100036I36J3400D01*
G01X109964D01*
G03X110036I36J3400D01*
G01X119964D01*
G03X120036I36J3400D01*
G01X129964D01*
G03X130036I36J3400D01*
G01X139964D01*
G03X140036I36J3400D01*
G01X149964D01*
G03X150036I36J3400D01*
G01X159964D01*
G03X160036I36J3400D01*
G01X169964D01*
G03X170036I36J3400D01*
G01X179964D01*
G03X180036I36J3400D01*
G01X189964D01*
G03X190036I36J3400D01*
G01X199964D01*
G03X200036I36J3400D01*
G01X209964D01*
G03X210036I36J3400D01*
G01X219964D01*
G03X220036I36J3400D01*
G01X229964D01*
G03X230036I36J3400D01*
G01X239964D01*
G03X240036I36J3400D01*
G01X241300D01*
X241842Y-7858D01*
X241859Y-7847D01*
G03X242847Y-6859I-1859J2847D01*
G01X242858Y-6842D01*
X254500Y4800D01*
Y16800D01*
X246800Y24500D01*
X237500D01*
X236700Y25300D01*
Y29800D01*
X237600Y30700D01*
X271800D01*
X274800Y33700D01*
Y72800D01*
X271400Y76200D01*
X238400D01*
X236900Y77700D01*
Y79100D01*
X238300Y80500D01*
X245400D01*
X246800Y79100D01*
X272400D01*
X275500Y82200D01*
G37*
G36*
G01X22298Y500D02*
G02X22103Y1249I0J400D01*
G03X15712Y5323I-2103J3751D01*
G02X15030Y5070I-399J30D01*
G01X11164Y8936D01*
G02X11385Y9614I283J283D01*
G03X10429Y11719I-185J1186D01*
G02X10171I-129J153D01*
G03X8633Y11723I-771J-919D01*
G02X8364Y11736I-128J154D01*
G01X8000Y12100D01*
X1270D01*
G02X890Y12625I0J400D01*
G03X687Y13750I-1140J375D01*
G02Y14250I312J250D01*
G03Y15750I-937J750D01*
G02Y16250I312J250D01*
G03Y17750I-937J750D01*
G02Y18250I312J250D01*
G03X-1187I-937J750D01*
G02Y17750I-312J-250D01*
G03Y16250I937J-750D01*
G02Y15750I-312J-250D01*
G03Y14250I937J-750D01*
G02Y13750I-312J-250D01*
G03X-1390Y12625I937J-750D01*
G02X-1770Y12100I-380J-125D01*
G01X-4003D01*
G02X-4402Y12475I0J400D01*
G03X-4728Y13225I-1198J-75D01*
G02Y13775I290J275D01*
G03X-6472I-872J825D01*
G02Y13225I-290J-275D01*
G03X-6775Y12154I872J-825D01*
G01X-6752Y12048D01*
X-10130Y8670D01*
G02X-10810Y8902I-283J283D01*
G03X-12854Y7906I-1191J-152D01*
G02Y7344I-284J-281D01*
G03X-13061Y5939I853J-844D01*
G01X-12992Y5808D01*
X-16100Y2700D01*
X-21000D01*
X-22700Y4400D01*
Y9200D01*
X-25600Y12100D01*
Y24851D01*
G02X-24950Y25163I400J0D01*
G03X-24472Y24931I750J937D01*
G02X-24172Y24456I-91J-390D01*
G03X-22728Y25369I1173J-256D01*
G02X-23028Y25844I91J390D01*
G03X-24950Y27037I-1173J256D01*
G02X-25600Y27349I-250J312D01*
G01Y39303D01*
X-25459Y39347D01*
G03X-25536Y45994I-1030J3312D01*
G02X-25770Y46584I110J385D01*
G03X-27878Y47727I-1030J616D01*
G02X-28520Y47620I-359J176D01*
G01X-29572Y48672D01*
G02X-29592Y49216I283J283D01*
G03X-31539Y50600I-909J784D01*
G01X-31597Y50500D01*
X-40700D01*
X-42800Y52600D01*
Y55074D01*
G02X-42431Y55472I400J0D01*
G03X-41589Y57419I-94J1196D01*
G02Y57919I312J250D01*
G03X-42431Y59865I-937J750D01*
G02X-42800Y60264I31J399D01*
G01Y63700D01*
X-39900Y66600D01*
X-17739D01*
G02X-17379Y66025I0J-400D01*
G03X-15221I1079J-525D01*
G02X-14861Y66600I360J175D01*
G01X-6800D01*
X-3900Y69500D01*
Y95300D01*
X-7400Y98800D01*
X-19200D01*
X-22700Y102300D01*
Y111700D01*
X-17900Y116500D01*
X-5200D01*
X-4300Y117400D01*
Y141900D01*
X-4952Y142552D01*
G02X-4752Y143226I283J283D01*
G03X-6174Y144648I-248J1174D01*
G02X-6848Y144448I-391J83D01*
G01X-8200Y145800D01*
X-22907D01*
G02X-23305Y146238I0J400D01*
G03X-25695I-1195J113D01*
G02X-26093Y145800I-398J-38D01*
G01X-39900D01*
X-40500Y146400D01*
Y178400D01*
X-34500Y184400D01*
X-13600D01*
X-7600Y178400D01*
X11100D01*
X15642Y182942D01*
G02X16271Y182858I283J-283D01*
G03X24296Y185183I3729J2142D01*
G02X24696Y185600I400J17D01*
G01X26205D01*
G02X26605Y185179I0J-400D01*
G03X33396I3395J-179D01*
G02X33795Y185600I399J21D01*
G01X36205D01*
G02X36604Y185179I0J-400D01*
G03X43396I3396J-179D01*
G02X43795Y185600I399J21D01*
G01X46205D01*
G02X46605Y185179I0J-400D01*
G03X53396I3395J-179D01*
G02X53795Y185600I399J21D01*
G01X56205D01*
G02X56604Y185179I0J-400D01*
G03X63396I3395J-179D01*
G02X63795Y185600I399J21D01*
G01X66205D01*
G02X66604Y185179I0J-400D01*
G03X73396I3396J-179D01*
G02X73795Y185600I399J21D01*
G01X76205D01*
G02X76604Y185179I0J-400D01*
G03X83396I3396J-179D01*
G02X83795Y185600I399J21D01*
G01X86205D01*
G02X86604Y185179I0J-400D01*
G03X93396I3396J-179D01*
G02X93795Y185600I399J21D01*
G01X96205D01*
G02X96604Y185179I0J-400D01*
G03X103396I3396J-179D01*
G02X103795Y185600I399J21D01*
G01X106205D01*
G02X106605Y185179I0J-400D01*
G03X113396I3395J-179D01*
G02X113795Y185600I399J21D01*
G01X116205D01*
G02X116604Y185179I0J-400D01*
G03X123395I3395J-179D01*
G02X123795Y185600I399J21D01*
G01X126205D01*
G02X126605Y185179I0J-400D01*
G03X133396I3395J-179D01*
G02X133795Y185600I399J21D01*
G01X136205D01*
G02X136605Y185179I0J-400D01*
G03X143396I3395J-179D01*
G02X143795Y185600I399J21D01*
G01X146205D01*
G02X146604Y185179I0J-400D01*
G03X153396I3395J-179D01*
G02X153795Y185600I399J21D01*
G01X156205D01*
G02X156604Y185179I0J-400D01*
G03X163396I3395J-179D01*
G02X163795Y185600I399J21D01*
G01X166205D01*
G02X166604Y185179I0J-400D01*
G03X173396I3395J-179D01*
G02X173795Y185600I399J21D01*
G01X176205D01*
G02X176604Y185179I0J-400D01*
G03X183396I3395J-179D01*
G02X183795Y185600I399J21D01*
G01X186205D01*
G02X186605Y185179I0J-400D01*
G03X192890Y183209I3395J-179D01*
G02X193610Y183124I340J-211D01*
G03X194033Y184462I1140J376D01*
G02X193395Y184806I-239J321D01*
G03X193396Y185179I-3395J194D01*
G02X193795Y185600I399J21D01*
G01X196205D01*
G02X196604Y185179I0J-400D01*
G03X203396I3395J-179D01*
G02X203795Y185600I399J21D01*
G01X206205D01*
G02X206604Y185179I0J-400D01*
G03X213395I3396J-179D01*
G02X213795Y185600I399J21D01*
G01X216205D01*
G02X216604Y185179I0J-400D01*
G03X223396I3396J-179D01*
G02X223795Y185600I399J21D01*
G01X226205D01*
G02X226604Y185179I0J-400D01*
G03X233396I3396J-179D01*
G02X233795Y185600I399J21D01*
G01X236205D01*
G02X236605Y185179I0J-400D01*
G03X241534Y181966I3395J-179D01*
G01X242950Y180550D01*
Y175467D01*
G03X243226Y173232I550J-1067D01*
G01X243282Y173218D01*
X246469Y170031D01*
G02X246327Y169373I-283J-283D01*
G03X245906Y169104I423J-1123D01*
G02X245344I-281J284D01*
G03X243656I-844J-853D01*
G02X243094I-281J284D01*
G03X241406I-844J-853D01*
G02X240844I-281J284D01*
G03X239062Y168999I-844J-854D01*
G02X238438I-312J250D01*
G03X236562I-937J-749D01*
G02X235938I-312J250D01*
G03Y167501I-937J-749D01*
G02X236562I313J-250D01*
G03X238438I937J749D01*
G02X239062I313J-250D01*
G03X240844Y167396I938J749D01*
G02X241406I281J-284D01*
G03X243094I844J854D01*
G02X243656I281J-284D01*
G03X245344I844J854D01*
G02X245906I281J-284D01*
G03X247594I844J854D01*
G02X248156I281J-284D01*
G03X249281Y167083I844J854D01*
G01X249390Y167110D01*
X252550Y163950D01*
X262250D01*
X270800Y155400D01*
Y105500D01*
X267400Y102100D01*
Y95800D01*
X271800Y91400D01*
Y89672D01*
G02X271325Y89279I-400J0D01*
G03Y86921I-225J-1179D01*
G02X271800Y86528I75J-393D01*
G01Y86472D01*
G02X271325Y86079I-400J0D01*
G03X270386Y83935I-225J-1179D01*
G02X270431Y83331I-238J-322D01*
G01X269500Y82400D01*
X252000D01*
X248100Y86300D01*
X235600D01*
X231000Y81700D01*
Y76000D01*
X236500Y70500D01*
X265500D01*
X270600Y65400D01*
Y39300D01*
X267500Y36200D01*
X234300D01*
X231869Y33769D01*
G02X231265Y33814I-283J283D01*
G03X230225Y31902I-965J-714D01*
G02X230600Y31503I-25J-399D01*
G01Y23600D01*
X236700Y17500D01*
X242100D01*
X243800Y15800D01*
Y8245D01*
G02X243111Y7969I-400J0D01*
G03X237687Y1375I-3111J-2969D01*
G02X237755Y755I-215J-337D01*
G01X237500Y500D01*
X232298D01*
G02X232103Y1249I0J400D01*
G03X227897I-2103J3751D01*
G02X227702Y500I-196J-349D01*
G01X196759D01*
G02X196494Y1200I0J400D01*
G03X194906I-794J900D01*
G02X194641Y500I-265J-300D01*
G01X186886D01*
G02X186539Y1100I0J400D01*
G03X184461I-1039J600D01*
G02X184114Y500I-346J-200D01*
G01X182298D01*
G02X182103Y1249I0J400D01*
G03X177897I-2103J3751D01*
G02X177702Y500I-196J-349D01*
G01X22298D01*
G37*
%LPC*%
G75*
G36*
G01X32800Y164100D02*
X32300Y163600D01*
X23500D01*
X22500Y162600D01*
X4500D01*
X4000Y163100D01*
Y170200D01*
X4100Y170300D01*
X30900D01*
X32800Y168400D01*
Y164100D01*
G37*
G36*
G01X112906Y175896D02*
G03X112344I-281J-284D01*
G02Y177604I-844J854D01*
G03X112906I281J284D01*
G02Y175896I844J-853D01*
G37*
G36*
G01X144906Y164646D02*
G03X144344I-281J-284D01*
G02Y166354I-844J854D01*
G03X144906I281J284D01*
G02X146594I844J-854D01*
G03X147156I281J284D01*
G02Y164646I844J-854D01*
G03X146594I-281J-284D01*
G02X144906I-844J854D01*
G37*
G36*
G01X222719Y159685D02*
G03X222131I-294J-272D01*
G02Y161315I-881J815D01*
G03X222719I294J272D01*
G02Y159685I881J-815D01*
G37*
G36*
G01X86000Y151937D02*
G03X86500I250J312D01*
G02X88000I750J-937D01*
G03X88500I250J312D01*
G02Y150063I750J-937D01*
G03X88000I-250J-312D01*
G02X86500I-750J937D01*
G03X86000I-250J-312D01*
G02Y151937I-750J937D01*
G37*
G36*
G01X232115Y145713D02*
G03X231940Y146238I-362J171D01*
G02X233585Y146787I560J1062D01*
G03X233760Y146262I362J-171D01*
G02X232115Y145713I-560J-1062D01*
G37*
G36*
G01X29000Y142437D02*
G03X29500I250J312D01*
G02Y140563I750J-937D01*
G03X29000I-250J-312D01*
G02Y142437I-750J937D01*
G37*
G36*
G01X244882Y118886D02*
G03Y118614I147J-136D01*
G02X243118I-882J-814D01*
G03Y118886I-147J136D01*
G02X244882I882J814D01*
G37*
G36*
G01X249737Y118950D02*
G03Y118450I312J-250D01*
G02X247863I-937J-750D01*
G03Y118950I-312J250D01*
G02X249737I937J750D01*
G37*
G36*
G01X54156Y107146D02*
G03X53594I-281J-284D01*
G02Y108854I-844J854D01*
G03X54156I281J284D01*
G02Y107146I844J-853D01*
G37*
G36*
G01X249494Y99100D02*
G03Y98500I265J-300D01*
G02X247906I-794J-900D01*
G03Y99100I-265J300D01*
G02X249494I794J900D01*
G37*
G36*
G01X105955Y98127D02*
G03X105655Y97627I85J-391D01*
G02X104245Y98473I-1155J-327D01*
G03X104545Y98973I-85J391D01*
G02X105955Y98127I1155J327D01*
G37*
G36*
G01X30688Y97808D02*
G03X31225Y97617I362J169D01*
G02X30662Y96030I525J-1079D01*
G03X30125Y96221I-362J-169D01*
G02X30688Y97808I-525J1079D01*
G37*
G36*
G01X56872Y93531D02*
G03X56572Y93056I91J-390D01*
G02X55127Y93969I-1173J-256D01*
G03X55427Y94444I-91J390D01*
G02X55411Y94863I1173J256D01*
G03X55074Y95313I-396J54D01*
G02Y97687I177J1187D01*
G03X55411Y98137I-59J396D01*
G02X56776Y97113I1189J163D01*
G03X56439Y96663I59J-396D01*
G02Y96337I-1189J-163D01*
G03X56776Y95887I396J-54D01*
G02X56872Y93531I-177J-1187D01*
G37*
G36*
G01X254770Y92274D02*
G03X254795Y91699I290J-275D01*
G02X253130Y91626I-795J-899D01*
G03X253105Y92201I-290J275D01*
G02X254770Y92274I795J899D01*
G37*
G36*
G01X101854Y91906D02*
G03Y91344I284J-281D01*
G02X100146I-853J-844D01*
G03Y91906I-284J281D01*
G02X101854I853J844D01*
G37*
G36*
G01X246814Y88792D02*
G03X246265Y88768I-262J-302D01*
G02X246186Y90508I-865J832D01*
G03X246735Y90532I262J302D01*
G02X246814Y88792I865J-832D01*
G37*
G36*
G01X267794Y91000D02*
G03Y90400I265J-300D01*
G02X266206I-794J-900D01*
G03Y91000I-265J300D01*
G02X267794I794J900D01*
G37*
G36*
G01X34320Y88302D02*
G03X33945Y87864I23J-399D01*
G02X32680Y88948I-1195J-114D01*
G03X33055Y89386I-23J399D01*
G02X34320Y88302I1195J114D01*
G37*
G36*
G01X41656Y85897D02*
G03X41094I-281J-284D01*
G02Y87604I-844J853D01*
G03X41656I281J284D01*
G02Y85897I844J-853D01*
G37*
G36*
G01X268359Y85497D02*
G03X268259Y84922I220J-334D01*
G02X266641Y85203I-959J-722D01*
G03X266741Y85778I-220J334D01*
G02X268359Y85497I959J722D01*
G37*
G36*
G01X55656Y79147D02*
G03X55094I-281J-284D01*
G02Y80854I-844J853D01*
G03X55656I281J284D01*
G02Y79147I844J-853D01*
G37*
G36*
G01X45314Y69292D02*
G03X44765Y69268I-262J-302D01*
G02X43035I-865J833D01*
G03X42486Y69292I-288J-277D01*
G02X42565Y71033I-785J908D01*
G03X43114Y71008I288J277D01*
G02X44686I786J-907D01*
G03X45235Y71033I262J302D01*
G02X46925Y71072I865J-832D01*
G03X47475I275J290D01*
G02Y69328I825J-872D01*
G03X46925I-275J-290D01*
G02X45314Y69292I-825J872D01*
G37*
G36*
G01X179750Y63563D02*
G03X179250I-250J-312D01*
G02Y65437I-750J937D01*
G03X179750I250J312D01*
G02X181250I750J-937D01*
G03X181750I250J312D01*
G02Y63563I750J-937D01*
G03X181250I-250J-312D01*
G02X179750I-750J937D01*
G37*
G36*
G01X77437Y61250D02*
G03Y60750I312J-250D01*
G02X75563I-937J-750D01*
G03Y61250I-312J250D01*
G02Y62750I937J750D01*
G03Y63250I-312J250D01*
G02X77437I937J750D01*
G03Y62750I312J-250D01*
G02Y61250I-937J-750D01*
G37*
G36*
G01X80850Y51063D02*
G03X80350I-250J-312D01*
G02X78726Y52822I-750J937D01*
G03X78740Y53080I-146J137D01*
G02X78781Y54571I960J720D01*
G03Y54829I-153J129D01*
G02X80450Y56537I919J771D01*
G03X80950I250J312D01*
G02X82619Y54829I750J-937D01*
G03Y54571I153J-129D01*
G02X82574Y52978I-919J-771D01*
G03X82560Y52720I146J-137D01*
G02X80850Y51063I-960J-721D01*
G37*
G36*
G01X189940Y50503D02*
G03X190040Y49916I313J-249D01*
G02X188460Y49647I-639J-1016D01*
G03X188360Y50234I-313J249D01*
G02X189940Y50503I639J1016D01*
G37*
G36*
G01X207872Y48875D02*
G03Y48325I290J-275D01*
G02X206128I-872J-825D01*
G03Y48875I-290J275D01*
G02X207872I872J825D01*
G37*
G36*
G01X9250Y46037D02*
G03X9500I125J156D01*
G02X11000I750J-937D01*
G03X11250I125J156D01*
G02Y44163I750J-937D01*
G03X11000I-125J-156D01*
G02X9500I-750J937D01*
G03X9250I-125J-156D01*
G02Y46037I-750J937D01*
G37*
G36*
G01X-19896Y46406D02*
G03Y45844I284J-281D01*
G02X-21604I-854J-844D01*
G03Y46406I-284J281D01*
G02Y48094I853J844D01*
G03Y48656I-284J281D01*
G02Y50344I853J844D01*
G03Y50906I-284J281D01*
G02Y52594I853J844D01*
G03Y53156I-284J281D01*
G02Y54844I853J844D01*
G03Y55406I-284J281D01*
G02X-19896I853J844D01*
G03Y54844I284J-281D01*
G02Y53156I-854J-844D01*
G03Y52594I284J-281D01*
G02Y50906I-854J-844D01*
G03Y50344I284J-281D01*
G02Y48656I-854J-844D01*
G03Y48094I284J-281D01*
G02Y46406I-854J-844D01*
G37*
G36*
G01X219400Y43406D02*
G03X218800I-300J-265D01*
G02Y44994I-900J794D01*
G03X219400I300J265D01*
G02Y43406I900J-794D01*
G37*
G36*
G01X77437Y45250D02*
G03Y44750I312J-250D01*
G02X75563I-937J-750D01*
G03Y45250I-312J250D01*
G02Y46750I937J750D01*
G03Y47250I-312J250D01*
G02X77437I937J750D01*
G03Y46750I312J-250D01*
G02Y45250I-937J-750D01*
G37*
G36*
G01X108104Y42656D02*
G03Y42094I284J-281D01*
G02X106396I-854J-844D01*
G03Y42656I-284J281D01*
G02X107180Y44698I854J844D01*
G03X107555Y45136I-23J399D01*
G02Y45364I1195J114D01*
G03X107180Y45802I-398J38D01*
G02Y48198I70J1198D01*
G03X107555Y48636I-23J399D01*
G02Y48864I1195J114D01*
G03X107180Y49302I-398J38D01*
G02Y51698I70J1198D01*
G03X107555Y52136I-23J399D01*
G02Y52364I1195J114D01*
G03X107180Y52802I-398J38D01*
G02Y55198I70J1198D01*
G03X107555Y55636I-23J399D01*
G02Y55864I1195J114D01*
G03X107180Y56302I-398J38D01*
G02Y58698I70J1198D01*
G03X107555Y59136I-23J399D01*
G02Y59364I1195J114D01*
G03X107180Y59802I-398J38D01*
G02Y62198I70J1198D01*
G03X107555Y62636I-23J399D01*
G02X108820Y61552I1195J114D01*
G03X108445Y61114I23J-399D01*
G02Y60886I-1195J-114D01*
G03X108820Y60448I398J-38D01*
G02Y58052I-70J-1198D01*
G03X108445Y57614I23J-399D01*
G02Y57386I-1195J-114D01*
G03X108820Y56948I398J-38D01*
G02Y54552I-70J-1198D01*
G03X108445Y54114I23J-399D01*
G02Y53886I-1195J-114D01*
G03X108820Y53448I398J-38D01*
G02Y51052I-70J-1198D01*
G03X108445Y50614I23J-399D01*
G02Y50386I-1195J-114D01*
G03X108820Y49948I398J-38D01*
G02Y47552I-70J-1198D01*
G03X108445Y47114I23J-399D01*
G02Y46886I-1195J-114D01*
G03X108820Y46448I398J-38D01*
G02Y44052I-70J-1198D01*
G03X108445Y43614I23J-399D01*
G02X108104Y42656I-1195J-114D01*
G37*
G36*
G01X632Y40836D02*
G03X639Y40558I147J-136D01*
G02X-1082Y40514I-839J-858D01*
G03X-1089Y40792I-147J136D01*
G02X-1156Y42438I839J858D01*
G03Y42962I-302J262D01*
G02X656I906J787D01*
G03Y42438I302J-263D01*
G02X632Y40836I-906J-788D01*
G37*
G36*
G01X-20750Y37063D02*
G03X-21250I-250J-312D01*
G02X-22937Y38750I-750J937D01*
G03Y39250I-312J250D01*
G02X-21250Y40937I937J750D01*
G03X-20750I250J312D01*
G02X-19250I750J-937D01*
G03X-18750I250J312D01*
G02X-17250I750J-937D01*
G03X-16750I250J312D01*
G02X-15250I750J-937D01*
G03X-14750I250J312D01*
G02X-13063Y39250I750J-937D01*
G03Y38750I312J-250D01*
G02X-14750Y37063I-937J-750D01*
G03X-15250I-250J-312D01*
G02X-16750I-750J937D01*
G03X-17250I-250J-312D01*
G02X-18750I-750J937D01*
G03X-19250I-250J-312D01*
G02X-20750I-750J937D01*
G37*
G36*
G01X190619Y37435D02*
G03X191144Y37210I373J145D01*
G02X190481Y35665I456J-1110D01*
G03X189957Y35890I-373J-145D01*
G02X190619Y37435I-456J1110D01*
G37*
G36*
G01X22032Y36135D02*
G03X22008Y35586I277J-288D01*
G02X20268Y35665I-908J-785D01*
G03X20293Y36214I-277J288D01*
G02X22032Y36135I908J785D01*
G37*
G36*
G01X199113Y34419D02*
G03X198788Y33969I71J-394D01*
G02X197387Y34981I-1188J-169D01*
G03X197712Y35431I-71J394D01*
G02X199113Y34419I1188J169D01*
G37*
G36*
G01X211216Y33903D02*
G03X210791Y33553I-28J-399D01*
G02X209684Y34897I-1191J147D01*
G03X210109Y35247I28J399D01*
G02X211216Y33903I1191J-147D01*
G37*
G36*
G01X-16946Y32606D02*
G03Y32044I284J-281D01*
G02X-18654I-853J-844D01*
G03Y32606I-284J281D01*
G02X-16946I854J844D01*
G37*
G36*
G01X-11146Y31906D02*
G03Y31344I284J-281D01*
G02X-12854I-853J-844D01*
G03Y31906I-284J281D01*
G02X-11146I854J844D01*
G37*
G36*
G01X-1190Y34496D02*
G03X-1202Y35009I-313J249D01*
G02X640Y35054I902J791D01*
G03X652Y34541I313J-249D01*
G02Y32959I-902J-791D01*
G03X640Y32446I301J-264D01*
G02X582Y30886I-940J-746D01*
G03Y30614I147J-136D01*
G02X-1182I-882J-814D01*
G03Y30886I-147J136D01*
G02X-1202Y32491I882J814D01*
G03X-1190Y33004I-301J264D01*
G02Y34496I940J746D01*
G37*
G36*
G01X108820Y30052D02*
G03X108445Y29614I23J-399D01*
G02X107180Y30698I-1195J-114D01*
G03X107555Y31136I-23J399D01*
G02Y31364I1195J114D01*
G03X107180Y31802I-398J38D01*
G02Y34198I70J1198D01*
G03X107555Y34636I-23J399D01*
G02Y34864I1195J114D01*
G03X107180Y35302I-398J38D01*
G02X108445Y36386I70J1198D01*
G03X108820Y35948I398J-38D01*
G02Y33552I-70J-1198D01*
G03X108445Y33114I23J-399D01*
G02Y32886I-1195J-114D01*
G03X108820Y32448I398J-38D01*
G02Y30052I-70J-1198D01*
G37*
G36*
G01X86887Y30750D02*
G03Y30250I312J-250D01*
G02X85013I-937J-750D01*
G03Y30750I-312J250D01*
G02Y32250I937J750D01*
G03Y32750I-312J250D01*
G02X86887I937J750D01*
G03Y32250I312J-250D01*
G02Y30750I-937J-750D01*
G37*
G36*
G01X77437Y29750D02*
G03Y29250I312J-250D01*
G02X75563I-937J-750D01*
G03Y29750I-312J250D01*
G02Y31250I937J750D01*
G03Y31750I-312J250D01*
G02Y33250I937J750D01*
G03Y33750I-312J250D01*
G02X77437I937J750D01*
G03Y33250I312J-250D01*
G02Y31750I-937J-750D01*
G03Y31250I312J-250D01*
G02Y29750I-937J-750D01*
G37*
G36*
G01X223985Y29287D02*
G03X224160Y28762I362J-171D01*
G02X222515Y28213I-560J-1062D01*
G03X222340Y28738I-362J171D01*
G02X223985Y29287I560J1062D01*
G37*
G36*
G01X9850Y26263D02*
G03X9350I-250J-312D01*
G02Y28137I-750J937D01*
G03X9850I250J312D01*
G02Y26263I750J-937D01*
G37*
G36*
G01X33081Y26165D02*
G02X35481I1200J28D01*
G02X33081I-1200J-28D01*
G37*
G36*
G01X22170Y27274D02*
G03X22195Y26699I290J-275D01*
G02X20530Y26626I-795J-899D01*
G03X20505Y27201I-290J275D01*
G02X20465Y28963I795J899D01*
G03Y29538I-278J287D01*
G02X22135I835J862D01*
G03Y28963I278J-288D01*
G02X22170Y27274I-835J-862D01*
G37*
G36*
G01X-3102Y24066D02*
G03X-2652Y23691I399J22D01*
G02X-3698Y22434I152J-1191D01*
G03X-4148Y22809I-399J-22D01*
G02X-3102Y24066I-152J1191D01*
G37*
G36*
G01X56500Y21313D02*
G03X56000I-250J-312D01*
G02X54130Y21819I-750J937D01*
G03X53581Y22034I-373J-144D01*
G02X54173Y23544I-528J1078D01*
G03X54722Y23328I373J144D01*
G02X56000Y23187I528J-1078D01*
G03X56500I250J312D01*
G02X58000Y23187I750J-937D01*
G03X58563Y23249I250J312D01*
G02X58750Y21563I937J-749D01*
G03X58188Y21501I-250J-312D01*
G02X56500Y21313I-937J749D01*
G37*
G36*
G01X86887Y20000D02*
G03Y19500I312J-250D01*
G02X85013I-937J-750D01*
G03Y20000I-312J250D01*
G02Y21500I937J750D01*
G03Y22000I-312J250D01*
G02X86887I937J750D01*
G03Y21500I312J-250D01*
G02Y20000I-937J-750D01*
G37*
G36*
G01X76444Y17710D02*
G03X75994Y17272I-52J-397D01*
G02X73864Y17899I-1194J-124D01*
G03Y18149I-156J125D01*
G02X75571Y19819I936J751D01*
G03X75829I129J153D01*
G02X76444Y17710I771J-919D01*
G37*
G36*
G01X22500Y15813D02*
G03X22000I-250J-312D01*
G02X20313Y17500I-750J937D01*
G03Y18000I-312J250D01*
G02Y19500I937J750D01*
G03Y20000I-312J250D01*
G02X22000Y21687I937J750D01*
G03X22500I250J312D01*
G02X24000I750J-937D01*
G03X24500I250J312D01*
G02X26000I750J-937D01*
G03X26500I250J312D01*
G02X28187Y20000I750J-937D01*
G03Y19500I312J-250D01*
G02Y18000I-937J-750D01*
G03Y17500I312J-250D01*
G02X26500Y15813I-937J-750D01*
G03X26000I-250J-312D01*
G02X24500I-750J937D01*
G03X24000I-250J-312D01*
G02X22500I-750J937D01*
G37*
G36*
G01X47937Y17250D02*
G03Y16750I312J-250D01*
G02X46063I-937J-750D01*
G03Y17250I-312J250D01*
G02Y18750I937J750D01*
G03Y19250I-312J250D01*
G02X47937I937J750D01*
G03Y18750I312J-250D01*
G02Y17250I-937J-750D01*
G37*
G36*
G01X82082Y16786D02*
G03Y16514I147J-136D01*
G02X80318I-882J-814D01*
G03Y16786I-147J136D01*
G02X80281Y18371I882J814D01*
G03Y18629I-153J129D01*
G02X82119I919J771D01*
G03Y18371I153J-129D01*
G02X82082Y16786I-919J-771D01*
G37*
G36*
G01X59022Y15032D02*
G03X59037Y14761I154J-128D01*
G02X57278Y14668I-837J-861D01*
G03X57263Y14939I-154J128D01*
G02X57253Y16650I837J861D01*
G02X57181Y18271I847J850D01*
G03Y18529I-153J129D01*
G02X59019I919J771D01*
G03Y18271I153J-129D01*
G02X58947Y16650I-919J-771D01*
G02X59022Y15032I-847J-850D01*
G37*
G36*
G01X-18246Y13256D02*
G03Y12694I284J-281D01*
G02X-19954I-853J-844D01*
G03Y13256I-284J281D01*
G02X-18246I853J844D01*
G37*
G36*
G01X-17146Y7906D02*
G03Y7344I284J-281D01*
G02X-18854I-853J-844D01*
G03Y7906I-284J281D01*
G02X-17146I854J844D01*
G37*
G36*
G01X114188Y160751D02*
G02Y162249I-937J749D01*
G03X114812I313J250D01*
G02Y160751I937J-749D01*
G03X114188I-313J-250D01*
G37*
G36*
G01X105188Y156751D02*
G02Y158249I-938J749D01*
G03X105812I312J250D01*
G02Y156751I938J-749D01*
G03X105188I-313J-250D01*
G37*
G36*
G01X113902Y148349D02*
G02X113899Y146654I848J-849D01*
G03X113333Y146655I-284J-282D01*
G02X111702Y148414I-848J849D01*
G03X111656Y149055I-261J303D01*
G02X112715Y151194I644J1013D01*
G03X113251Y151607I138J375D01*
G02X113250Y151822I1195J115D01*
G03X112764Y152246I-399J33D01*
G02X113696Y153316I-264J1171D01*
G03X114183Y152893I399J-33D01*
G02X114031Y150596I264J-1171D01*
G03X113495Y150182I-138J-375D01*
G02X113083Y149158I-1195J-115D01*
G03X113129Y148517I261J-303D01*
G02X113336Y148350I-644J-1013D01*
G03X113902Y148349I284J282D01*
G37*
G36*
G01X11372Y142625D02*
G02X9628I-872J-825D01*
G03Y143175I-290J275D01*
G02X9562Y143251I872J825D01*
G03X8938I-313J-250D01*
G02Y144749I-937J749D01*
G03X9562I313J250D01*
G02X11372Y143175I938J-749D01*
G03Y142625I290J-275D01*
G37*
G36*
G01X221287Y141700D02*
G02X220088Y140800I-37J-1200D01*
G03X219713Y141300I-387J100D01*
G02X220912Y142200I37J1200D01*
G03X221287Y141700I387J-100D01*
G37*
G36*
G01X245152Y110850D02*
G02X244898Y109525I848J-850D01*
G03X244248Y109650I-367J-158D01*
G02X242650Y109563I-848J850D01*
G03X242150I-250J-312D01*
G02X240650I-750J937D01*
G03X240150I-250J-312D01*
G02Y111437I-750J937D01*
G03X240650I250J312D01*
G02X242150I750J-937D01*
G03X242650I250J312D01*
G02X244502Y110975I750J-937D01*
G03X245152Y110850I367J158D01*
G37*
G36*
G01X102036Y108748D02*
G02X100639Y108802I-736J-948D01*
G03X100664Y109452I-220J334D01*
G02X102061Y109398I736J948D01*
G03X102036Y108748I220J-334D01*
G37*
G36*
G01X76938Y103751D02*
G02Y105249I-938J749D01*
G03X77562I312J250D01*
G02Y103751I938J-749D01*
G03X76938I-313J-250D01*
G37*
G36*
G01X59064Y104551D02*
G02X58873Y103386I936J-751D01*
G03X58186Y103499I-375J-138D01*
G02X58377Y104664I-936J751D01*
G03X59064Y104551I375J138D01*
G37*
G36*
G01X71030Y96452D02*
G02X69532Y96423I-730J-952D01*
G03X69520Y97048I-256J307D01*
G02X69396Y98844I730J953D01*
G03Y99406I-284J281D01*
G02X71104I853J844D01*
G03Y98844I284J-281D01*
G02X71018Y97077I-853J-844D01*
G03X71030Y96452I256J-307D01*
G37*
G36*
G01X240894Y92760D02*
G02X239306I-794J-900D01*
G03Y93360I-265J300D01*
G02X239878Y95440I794J900D01*
G03X240178Y95974I-74J393D01*
G02X240506Y97300I1122J426D01*
G03Y97900I-265J300D01*
G02X240246Y99374I794J900D01*
G03X239996Y99952I-351J191D01*
G02X239506Y102013I304J1161D01*
G03Y102613I-265J300D01*
G02X240459Y104702I794J900D01*
G03X240909Y105049I53J396D01*
G02X241306Y105800I1191J-149D01*
G03Y106400I-265J300D01*
G02X242894I794J900D01*
G03Y105800I265J-300D01*
G02X241941Y103710I-794J-900D01*
G03X241491Y103364I-53J-396D01*
G02X241094Y102613I-1191J149D01*
G03Y102013I265J-300D01*
G02X241354Y100539I-794J-900D01*
G03X241604Y99961I351J-191D01*
G02X242094Y97900I-304J-1161D01*
G03Y97300I265J-300D01*
G02X241522Y95221I-794J-900D01*
G03X241222Y94686I74J-393D01*
G02X240894Y93360I-1122J-426D01*
G03Y92760I265J-300D01*
G37*
G36*
G01X13110Y57838D02*
G02X11347Y57791I-860J-837D01*
G03X11340Y58063I-150J132D01*
G02X11318Y59714I860J837D01*
G03Y59986I-147J136D01*
G02X13082I882J814D01*
G03Y59714I147J-136D01*
G02X13154Y59629I-882J-814D01*
G03X13496Y59672I159J121D01*
G02X13797Y58308I1104J-472D01*
G03X13198Y58233I-267J-297D01*
G02X13103Y58109I-998J667D01*
G03X13110Y57838I150J-132D01*
G37*
G36*
G01X201753Y55751D02*
G02X201684Y54124I847J-851D01*
G03X201097Y54149I-305J-259D01*
G02X199406Y54147I-847J851D01*
G03X198844I-281J-284D01*
G02X197025Y54300I-844J854D01*
G03X196375I-325J-233D01*
G02Y55700I-975J700D01*
G03X197025I325J233D01*
G02X197300Y55975I975J-700D01*
G03Y56625I-233J325D01*
G02X198700I700J975D01*
G03Y55975I233J-325D01*
G02X198844Y55854I-700J-975D01*
G03X199406I281J284D01*
G02X201166Y55776I844J-854D01*
G03X201753Y55751I305J259D01*
G37*
G36*
G01X-29063Y54001D02*
G02X-30937Y55500I-938J749D01*
G03Y56000I-312J250D01*
G02X-29063Y57499I937J750D01*
G03X-28438I312J250D01*
G02X-26562I937J-749D01*
G03X-25938I312J250D01*
G02X-24063Y56000I938J-749D01*
G03Y55500I312J-250D01*
G02X-25938Y54001I-937J-750D01*
G03X-26562I-312J-250D01*
G02X-28438I-938J749D01*
G03X-29063I-313J-250D01*
G37*
G36*
G01X-2173Y43663D02*
G02X-3764Y43900I-927J-763D01*
G03X-3677Y44487I-221J333D01*
G02X-3603Y46094I927J763D01*
G03Y46656I-284J281D01*
G02Y48344I853J844D01*
G03Y48906I-284J281D01*
G02Y50594I853J844D01*
G03Y51156I-284J281D01*
G02Y52844I853J844D01*
G03Y53406I-284J281D01*
G02X-3364Y55281I854J844D01*
G03Y55969I-205J344D01*
G02X-3603Y57844I614J1031D01*
G03Y58406I-284J281D01*
G02Y60094I853J844D01*
G03Y60656I-284J281D01*
G02X-1812Y62249I853J844D01*
G03X-1188I312J250D01*
G02X632Y60686I938J-749D01*
G03Y60414I147J-136D01*
G02X669Y58829I-882J-814D01*
G03Y58571I153J-129D01*
G02Y57029I-919J-771D01*
G03Y56771I153J-129D01*
G02X-1428Y55773I-919J-771D01*
G03X-2053Y56023I-393J-76D01*
G02X-2136Y55969I-696J978D01*
G03Y55281I205J-344D01*
G02X-1896Y53406I-614J-1031D01*
G03Y52844I284J-281D01*
G02Y51156I-854J-844D01*
G03Y50594I284J-281D01*
G02Y48906I-854J-844D01*
G03Y48344I284J-281D01*
G02Y46656I-854J-844D01*
G03Y46094I284J-281D01*
G02X-2086Y44250I-854J-844D01*
G03X-2173Y43663I221J-333D01*
G37*
G36*
G01X269278Y42397D02*
G02X267837Y42364I-698J-976D01*
G03X267822Y43003I-247J314D01*
G02X269263Y43036I698J976D01*
G03X269278Y42397I247J-314D01*
G37*
G36*
G01X250956Y42425D02*
G02X249644I-656J-1005D01*
G03Y43095I-219J335D01*
G02X249523Y45014I656J1005D01*
G03Y45624I-259J305D01*
G02X251077I777J915D01*
G03Y45014I259J-305D01*
G02X250956Y43095I-777J-915D01*
G03Y42425I219J-335D01*
G37*
G36*
G01X189749Y40938D02*
G02X188251I-749J-937D01*
G03Y41562I-250J313D01*
G02X188146Y43344I749J938D01*
G03Y43906I-284J281D01*
G02X189854I854J844D01*
G03Y43344I284J-281D01*
G02X189749Y41562I-854J-844D01*
G03Y40938I250J-312D01*
G37*
G36*
G01X195913Y37066D02*
G02X194337Y36934I-713J-966D01*
G03X194287Y37534I-288J278D01*
G02X195863Y37666I713J966D01*
G03X195913Y37066I288J-278D01*
G37*
G36*
G01X216963Y32682D02*
G02X215904Y32764I-613J-1032D01*
G03X215882Y33143I-74J186D01*
G02X215596Y33262I318J1157D01*
G03X215047Y33113I-201J-346D01*
G02X214604Y34738I-1047J587D01*
G03X215153Y34887I201J346D01*
G02X215365Y35162I1047J-587D01*
G03Y35738I-278J287D01*
G02X215124Y37132I835J863D01*
G03X215053Y37389I-179J89D01*
G02X214740Y39120I647J1011D01*
G03X214726Y39378I-160J120D01*
G02X216560Y39480I874J822D01*
G03X216574Y39222I160J-120D01*
G02X216776Y37868I-874J-822D01*
G03X216847Y37611I179J-89D01*
G02X217035Y35738I-647J-1011D01*
G03Y35162I278J-288D01*
G02X216926Y33344I-835J-863D01*
G03X216963Y32682I242J-319D01*
G37*
G36*
G01X226979Y31000D02*
G02X225821Y30025I21J-1200D01*
G03X225421Y30500I-393J75D01*
G02X226579Y31475I-21J1200D01*
G03X226979Y31000I393J-75D01*
G37*
G36*
G01X-20696Y27861D02*
G02X-21904Y27489I-304J-1161D01*
G03X-22104Y28139I-301J263D01*
G02X-22768Y28590I304J1161D01*
G03X-23010Y28654I-161J-118D01*
G02X-22532Y30460I-490J1096D01*
G03X-22290Y30396I161J118D01*
G02X-20896Y28511I490J-1096D01*
G03X-20696Y27861I301J-263D01*
G37*
G36*
G01X45396Y26758D02*
G02X45336Y25544I1004J-658D01*
G03X44647Y25578I-355J-185D01*
G02X44707Y26792I-1004J658D01*
G03X45396Y26758I355J185D01*
G37*
G36*
G01X109190Y15845D02*
G02X108497Y17092I-1190J155D01*
G03X109060Y17405I166J364D01*
G02X109753Y16158I1190J-155D01*
G03X109190Y15845I-166J-364D01*
G37*
G36*
G01X-22201Y15800D02*
G02X-24235Y16612I-1199J-50D01*
G03Y17188I-278J288D01*
G02X-24290Y18855I835J862D01*
G03X-24303Y19405I-297J268D01*
G02X-22548Y21042I852J845D01*
G03X-22270Y21021I150J132D01*
G02X-20390Y20557I770J-921D01*
G03X-19790Y20382I370J152D01*
G02X-20210Y18943I690J-982D01*
G03X-20810Y19118I-370J-152D01*
G02X-22260Y19171I-690J982D01*
G03X-22532Y18878I-127J-155D01*
G02X-22309Y18550I-868J-828D01*
G03X-21759Y18362I364J167D01*
G02X-21651Y16188I559J-1062D01*
G03X-22201Y15800I-150J-371D01*
G37*
G36*
G01X221926Y9978D02*
G02X221786Y11410I-1026J622D01*
G03X222424Y11472I295J270D01*
G02X222564Y10040I1026J-622D01*
G03X221926Y9978I-295J-270D01*
G37*
G54D25*
X-39800Y63100D03*
X-36511Y54000D03*
X-26900Y160900D03*
X-29700Y157600D03*
Y173700D03*
X-29900Y166300D03*
X-28500Y177600D03*
X-17600Y17000D03*
X-16600Y28100D03*
X-24000Y50000D03*
X-20000Y64000D03*
X-21000Y105700D03*
X-16800D03*
X-21000Y109700D03*
X-26650Y164050D03*
X-24450Y156800D03*
X-15600Y181500D03*
X-13000Y15100D03*
X-4500Y18000D03*
X-8700D03*
X-4250Y28500D03*
X-8750D03*
X-12750Y45500D03*
X-10300Y63500D03*
X-12900Y109700D03*
X-5750Y153000D03*
X-5600Y159200D03*
X-11100Y162000D03*
X-11200Y166900D03*
X-10000Y174900D03*
X-10500Y178900D03*
X8000Y153000D03*
X17250Y15000D03*
X15000Y18000D03*
X14600Y31900D03*
X20600Y54900D03*
X18500Y69000D03*
X14400D03*
X20800Y59000D03*
X14500Y63400D03*
X19250Y81500D03*
X27942Y32452D03*
X31131Y29342D03*
Y26193D03*
X21000Y41750D03*
X31131Y45034D03*
X27981D03*
X31131Y38791D03*
X27981D03*
X31131Y35641D03*
X27981D03*
X24400Y35456D03*
X24832Y54183D03*
X31131D03*
X27981D03*
X31131Y48184D03*
X27981Y51334D03*
X31131D03*
X27981Y48184D03*
X24889Y48261D03*
X25100Y60300D03*
X30900Y67600D03*
X30250Y91500D03*
X23519Y88026D03*
X27300Y91500D03*
X27200Y103300D03*
X31750Y101250D03*
X27300Y99500D03*
Y95400D03*
X27200Y107100D03*
X27100Y115000D03*
Y111100D03*
X31713Y105987D03*
X27000Y118700D03*
X29159Y152200D03*
X24500Y156250D03*
X37430Y29286D03*
Y26137D03*
X43444Y29056D03*
X34281Y29286D03*
X43674Y45034D03*
X40570Y35614D03*
X43683D03*
X37430Y35641D03*
X40570Y48104D03*
X43722Y57717D03*
X34281Y57633D03*
X37430D03*
X40492Y57757D03*
X37430Y51334D03*
X43850Y60640D03*
X40580Y60782D03*
X40082Y64860D03*
X37400Y74693D03*
X35600Y115000D03*
X42500Y110700D03*
X35200Y125400D03*
X44500Y126000D03*
X41000D03*
Y135000D03*
X44500D03*
Y141400D03*
X41000D03*
X33884Y129759D03*
X37427D03*
X33750Y148750D03*
X41500Y151100D03*
X34000Y170600D03*
X44500Y174750D03*
X40970Y174641D03*
X37427D03*
X34000Y174500D03*
X56272Y32492D03*
X46796Y32422D03*
X56330Y29349D03*
X49973Y23043D03*
Y26193D03*
X53034Y26282D03*
X49987Y45030D03*
X53122Y38791D03*
X49987Y41878D03*
X49973Y38791D03*
X49908Y35692D03*
X46953Y38687D03*
X56370Y41918D03*
X56299Y45063D03*
X46870Y35613D03*
X56272Y57633D03*
X50026Y57717D03*
X53122Y54483D03*
X46914Y57717D03*
X49973Y54483D03*
X54250Y70000D03*
X50026Y60751D03*
X56262Y63922D03*
X53152Y63961D03*
X52300Y72600D03*
X47900Y83800D03*
X45750Y86750D03*
X47237Y110170D03*
X56400Y116500D03*
X55000Y126000D03*
X48000Y141400D03*
X55000Y135000D03*
X51600Y129759D03*
X55000Y141400D03*
X48057Y129759D03*
X65830Y29390D03*
X62600Y29460D03*
X59422Y32492D03*
X62571D03*
X66141Y32659D03*
X59422Y45034D03*
X62571D03*
X59488Y38725D03*
X62637D03*
X62571Y41941D03*
X59478Y51334D03*
X62627D03*
X65777Y54483D03*
X62571D03*
X59422D03*
X59404Y60791D03*
X66600Y79600D03*
X56600Y76000D03*
X66500Y91500D03*
X66600Y87400D03*
X66500Y95500D03*
X67250Y107500D03*
X58500Y126000D03*
Y135000D03*
Y141400D03*
Y151100D03*
Y155200D03*
X69500Y59235D03*
X77000Y68300D03*
X73800Y79800D03*
X70400Y79600D03*
X77000Y71500D03*
X75000Y87500D03*
X80000Y88500D03*
X70400Y83400D03*
X74600Y100600D03*
X69250Y141500D03*
X74000Y132000D03*
X69316Y129759D03*
X75500Y141500D03*
X74041Y152200D03*
Y148657D03*
Y145113D03*
X75500Y155750D03*
X77250Y174750D03*
X69316Y174641D03*
X75000Y182250D03*
X85500Y15000D03*
X85900Y55500D03*
X86000Y63500D03*
X80500Y68300D03*
X85900Y59400D03*
X86500Y79000D03*
X80500Y71500D03*
X86524Y88460D03*
X91000Y100500D03*
X88400Y104500D03*
X81250Y111750D03*
X81000Y163750D03*
X85000Y163500D03*
X91750Y155000D03*
X91100Y170600D03*
X89000Y167400D03*
X81250Y179750D03*
X101000Y22500D03*
Y19000D03*
Y15500D03*
X97500D03*
X98000Y20750D03*
X101000Y33000D03*
Y29500D03*
Y26000D03*
X98000D03*
Y31250D03*
X101000Y36500D03*
Y40000D03*
Y43500D03*
X98000Y36500D03*
Y41750D03*
X98500Y57000D03*
X96400Y47000D03*
X98500Y60000D03*
X101300Y77500D03*
X100400Y100200D03*
X100000Y104000D03*
X101500Y121700D03*
X102200Y130600D03*
X97600Y149500D03*
Y145500D03*
X101400Y149500D03*
Y145500D03*
Y157500D03*
X97600Y153500D03*
X101400D03*
X93500Y163600D03*
X97600Y157500D03*
X102059Y176691D03*
X103500Y170600D03*
X99537Y167693D03*
X93500Y174400D03*
X107250Y19000D03*
X110250Y20750D03*
X107250Y22500D03*
X110250Y24250D03*
X107250Y26000D03*
X110250Y27750D03*
X113254Y33187D03*
Y39092D03*
X115223Y36139D03*
X105500Y70000D03*
X111800Y105000D03*
X105700Y103900D03*
X114850Y111060D03*
X114800Y113900D03*
X107382Y114000D03*
X107400Y111000D03*
X107900Y106100D03*
X107400Y121800D03*
X104100Y120000D03*
X106000Y129100D03*
X111300Y129800D03*
X115500Y136000D03*
X104100Y141700D03*
X104672Y147372D03*
X104900Y150300D03*
Y153700D03*
Y161500D03*
X113400Y156300D03*
X111500Y170600D03*
X115500D03*
X107500Y174400D03*
X105500Y176750D03*
X125656Y21966D03*
X121128Y33187D03*
X117191D03*
X125065D03*
X121128Y39092D03*
X119160Y36139D03*
X127034D03*
X125065Y39092D03*
X123097Y36139D03*
X117191Y39092D03*
X125656Y50313D03*
X123224Y79331D03*
X126374D03*
Y76181D03*
X120074Y79331D03*
X123203Y76160D03*
X123224Y91929D03*
X120074Y85630D03*
X126392Y91948D03*
X120074Y82480D03*
X123224D03*
Y85630D03*
X126392Y88798D03*
Y85648D03*
Y82499D03*
X123224Y88780D03*
X120074D03*
Y91929D03*
Y98228D03*
X126392Y101396D03*
X123224Y95079D03*
X126392Y98247D03*
X120074Y95079D03*
X126374D03*
X123224Y98228D03*
X123242Y104509D03*
X126300Y117144D03*
X120415Y107415D03*
X120301Y110800D03*
X120300Y113946D03*
X123400Y110800D03*
X123325Y114025D03*
X123400Y107700D03*
X126392Y107696D03*
Y110845D03*
X127350Y123950D03*
X126200Y120250D03*
X123200Y123600D03*
X116100Y120100D03*
X117250Y124500D03*
X126372Y132875D03*
X126384Y129726D03*
X126412Y139135D03*
X122900Y145800D03*
X126372Y151773D03*
X117050Y145503D03*
X119411Y151801D03*
X126372Y148623D03*
X117125Y156529D03*
X123223Y158072D03*
X126372D03*
X127500Y170600D03*
X123500Y174400D03*
X131955Y21966D03*
X138254D03*
X136876Y33187D03*
X132939D03*
X129002D03*
X132939Y39092D03*
X136876D03*
X129002D03*
X130971Y36139D03*
X138828D03*
X134908D03*
X131955Y50313D03*
X135822Y76181D03*
X138972Y79331D03*
X129523D03*
X135822D03*
X129523Y76181D03*
X132673D03*
X138972D03*
X132673Y79331D03*
X138969Y91969D03*
X129542Y91948D03*
Y82499D03*
X135841D03*
X129542Y88798D03*
X135841Y85648D03*
X132673Y85630D03*
X135804Y91948D03*
X135841Y88798D03*
X132691Y82499D03*
X138991Y88798D03*
Y85648D03*
X135822Y98228D03*
X132673D03*
X129542Y98247D03*
Y95097D03*
X132691Y101396D03*
X135841D03*
X132691Y95097D03*
X135841Y104546D03*
X138991D03*
X135841Y95060D03*
X129542Y101396D03*
X138991Y98247D03*
X138972Y95079D03*
X132675Y117150D03*
X129650Y117150D03*
X138991Y117144D03*
X135841Y107696D03*
X129542Y110845D03*
X132691Y107696D03*
X138948Y107653D03*
X129542Y107696D03*
X135841Y117144D03*
X138991Y113995D03*
X132691Y110845D03*
X135841D03*
Y113995D03*
X138991Y110845D03*
X132691Y113995D03*
X135841Y123407D03*
X135821Y126576D03*
X139097Y126446D03*
X129522Y132875D03*
X135821Y136025D03*
X138971D03*
X135821Y129726D03*
X132672D03*
Y132875D03*
X129522Y129726D03*
X135861Y139135D03*
X135821Y132875D03*
X139000Y139201D03*
X132711Y139135D03*
X135821Y145474D03*
Y148623D03*
X135750Y151750D03*
X132672Y151773D03*
X138971Y145474D03*
X132672D03*
X138971Y151773D03*
X132711Y148584D03*
X138971Y142471D03*
X129522Y148623D03*
X135821Y154922D03*
Y158072D03*
X132672Y154922D03*
Y158072D03*
X128000Y165000D03*
X129522Y158072D03*
X129576Y154913D03*
X131098Y165000D03*
X135500Y174400D03*
X139500Y170600D03*
X141404Y18816D03*
X150853Y21966D03*
X147703D03*
X144750Y33187D03*
X140813D03*
X150853Y31415D03*
Y28265D03*
X147703D03*
X150853Y25116D03*
X147703D03*
X144554D03*
X144750Y39092D03*
X140813D03*
X150853Y44013D03*
Y40864D03*
X147703Y44013D03*
X149278Y36139D03*
X146128D03*
X142782D03*
X150853Y47163D03*
X147703D03*
X144554D03*
X147703Y50313D03*
X142654Y61349D03*
X142122Y79331D03*
X145271Y76181D03*
Y79331D03*
X142122Y76181D03*
X151600Y79266D03*
X142140Y82499D03*
Y85648D03*
Y88798D03*
X145290D03*
X142140Y91948D03*
X145290D03*
X148439Y101396D03*
X145290Y95097D03*
X145400Y101320D03*
X145271Y104528D03*
X151492Y101300D03*
X148491Y98344D03*
X145290Y98247D03*
X142140D03*
Y95097D03*
X145290Y113995D03*
Y117144D03*
X148439Y110845D03*
X142168Y107668D03*
X142101Y117147D03*
X151500Y114050D03*
X145200Y107606D03*
X145400Y123550D03*
X145290Y120294D03*
X142074Y126622D03*
X151473Y126673D03*
X148439Y120294D03*
X151569Y132875D03*
X148420Y136025D03*
X151569D03*
X145270Y129726D03*
Y132875D03*
X151569Y139174D03*
X148420D03*
X151569Y129726D03*
X148420D03*
X145270Y148623D03*
X151569Y151773D03*
X142105Y148649D03*
X142120Y151773D03*
X148420Y145474D03*
X151569D03*
Y148623D03*
X148420D03*
Y142324D03*
X145270Y145474D03*
X148420Y151773D03*
X151569Y158072D03*
Y154922D03*
X145270D03*
X145217Y158125D03*
X148420Y154922D03*
X151500Y170600D03*
X147500D03*
X143500Y174400D03*
X157152Y21966D03*
X163451D03*
X157152Y31415D03*
X163451Y28265D03*
X160302Y31415D03*
X163451D03*
Y25116D03*
X154002D03*
X157152Y28265D03*
X154002Y31415D03*
X160302Y28265D03*
X154002D03*
X160302Y25116D03*
X154002Y44013D03*
X157152Y40864D03*
X163451D03*
Y44013D03*
X160302Y40864D03*
X157152Y44013D03*
X154002Y40864D03*
Y36139D03*
X160302Y44013D03*
X157152Y47163D03*
X154002D03*
X163451D03*
X154002Y50313D03*
X160302D03*
X158000Y69500D03*
X160953D03*
X161017Y88800D03*
Y85648D03*
X161038Y104546D03*
X157888D03*
X154739D03*
X161038Y101396D03*
X157888D03*
X151640Y98344D03*
X161038Y113995D03*
X157888D03*
X154739D03*
X161019Y107677D03*
X154739Y107696D03*
X161038Y110845D03*
X157868Y126576D03*
X161001Y126556D03*
X154700Y120500D03*
X161038Y120294D03*
X157868Y139174D03*
X154719D03*
X161018Y132875D03*
X154719D03*
Y129726D03*
X161018Y136025D03*
X157871D03*
X161018Y139174D03*
Y148623D03*
X154719Y142324D03*
Y151773D03*
Y145474D03*
Y148623D03*
X157868Y142324D03*
X161018D03*
Y145474D03*
X157868Y151773D03*
X161018D03*
X154719Y154922D03*
X157868D03*
X154721Y164371D03*
X163500Y174400D03*
X155500D03*
X172900Y21966D03*
X166601D03*
Y28265D03*
X172900D03*
X166601Y31415D03*
X169750D03*
Y25116D03*
X172900Y31415D03*
X166601Y25116D03*
X172900D03*
X169750Y28265D03*
Y44013D03*
X166601Y40864D03*
X172900D03*
X166601Y44013D03*
X169750Y40864D03*
X172900Y44013D03*
Y47163D03*
X166601D03*
X172900Y50313D03*
X169750Y47163D03*
X166601Y50313D03*
X166500Y69500D03*
X169453Y69389D03*
X167124Y104639D03*
X167280Y101416D03*
Y98266D03*
X173580D03*
Y101416D03*
X170424Y95124D03*
X167357Y110865D03*
X167318Y107677D03*
X170468Y110827D03*
Y107677D03*
Y113976D03*
X173618Y110827D03*
Y107677D03*
Y117126D03*
X167280Y117164D03*
Y114015D03*
X170469Y126576D03*
X167320D03*
X173619D03*
X173580Y120314D03*
X167280D03*
X167320Y129726D03*
X170469Y136025D03*
X167320Y132875D03*
X173619Y129726D03*
Y132875D03*
X167320Y136025D03*
X170469Y129726D03*
X173619Y145474D03*
X173618Y148622D03*
X170469Y142324D03*
X167320D03*
X170469Y151773D03*
X167320Y148623D03*
Y151773D03*
X164250Y161220D03*
X173619Y161222D03*
Y164371D03*
X170469Y154922D03*
X170430Y164332D03*
X181600Y22140D03*
X182000Y25250D03*
X185900Y27600D03*
X186750Y46750D03*
X185900Y57500D03*
X175953Y68000D03*
X179600D03*
X182989Y79408D03*
X186300Y88800D03*
X186169Y95031D03*
X176767Y104528D03*
X179879Y104566D03*
X186200Y104500D03*
X183002Y98256D03*
X186178Y98266D03*
X186247Y101347D03*
X183028Y110865D03*
X176767Y110827D03*
X176709Y107677D03*
X176767Y113976D03*
X183028Y114015D03*
X179879D03*
X186178Y110865D03*
Y117164D03*
Y107715D03*
Y120314D03*
X186217Y126576D03*
X179918D03*
X183068D03*
X179879Y120314D03*
X183028D03*
X183068Y139174D03*
X176768Y129726D03*
X179918Y132875D03*
X176768D03*
X179918Y129726D03*
Y139174D03*
X176768D03*
X183068Y136025D03*
Y132875D03*
X186217D03*
Y139174D03*
X183044Y142300D03*
X176768Y142324D03*
X186217Y148623D03*
X183066Y148622D03*
X186216Y151772D03*
X179917Y145472D03*
X183066Y151772D03*
X179919Y148622D03*
X176767D03*
X176768Y151773D03*
X183068Y145474D03*
X186254Y145511D03*
X183066Y154921D03*
X186216D03*
X183068Y164371D03*
X186217Y161222D03*
X183068D03*
X176768Y164371D03*
Y154922D03*
X186217Y158072D03*
X176768D03*
X183068D03*
X186217Y164371D03*
X176768Y161222D03*
X179918D03*
X187600Y14500D03*
X193500Y33600D03*
X189900Y33700D03*
X197700Y27600D03*
X193700D03*
X189800D03*
X199000Y38500D03*
X197016Y40750D03*
X187500Y54750D03*
X196000Y67100D03*
X187500Y67250D03*
X198750Y76250D03*
X198841Y79304D03*
X196000Y70900D03*
X198776Y88818D03*
X195627Y91967D03*
X198776D03*
X189400Y88800D03*
X189328Y91967D03*
X195627Y88818D03*
X198776Y82518D03*
X198802Y85766D03*
X192600Y95000D03*
X189394Y95106D03*
X195627Y98266D03*
X192474Y101474D03*
X189328Y98266D03*
X198700Y101400D03*
X195627Y101416D03*
X198776Y98266D03*
Y95117D03*
X195627D03*
X189328Y110865D03*
X192477Y113938D03*
Y107639D03*
Y110789D03*
X195600Y107800D03*
X198776Y107712D03*
X189328Y117164D03*
X195627Y114015D03*
X198700Y113900D03*
X195627Y110865D03*
X189328Y114015D03*
X198776Y110865D03*
Y120314D03*
X189328D03*
X192477D03*
X195669Y139169D03*
X195594Y136094D03*
X192516Y129726D03*
X189367D03*
X198816Y136025D03*
X189367Y132875D03*
X192516Y136025D03*
Y139174D03*
X198816D03*
Y132875D03*
X192477Y132836D03*
X189367Y136025D03*
X195627Y132836D03*
X192500Y148800D03*
X195666Y148623D03*
X189367Y151773D03*
X195666D03*
X192516Y142324D03*
X195666Y145474D03*
X198816Y151773D03*
Y148623D03*
X198776Y142285D03*
Y145434D03*
X189404Y148660D03*
X192516Y154922D03*
X198816Y158070D03*
X198750Y164500D03*
X198816Y154920D03*
X195666Y158072D03*
X189367Y154922D03*
X195664Y164371D03*
X192517Y161222D03*
X195500Y174400D03*
X201500Y21800D03*
X209700Y14500D03*
X205500Y33700D03*
X209600Y27600D03*
X205800D03*
X201900D03*
X210200Y44700D03*
X207200Y40300D03*
X207500Y36200D03*
X203200Y35900D03*
X201000Y40750D03*
X207000Y43500D03*
X209600Y54200D03*
X206000Y57600D03*
X204000Y67100D03*
X205076Y79369D03*
X202023Y76123D03*
X201926Y79369D03*
X204000Y70900D03*
X200000D03*
X208000D03*
X205076Y88818D03*
X201926Y91967D03*
Y85668D03*
Y82518D03*
X205066Y91992D03*
X201926Y88818D03*
X209600Y88500D03*
X208225Y82518D03*
X205097Y82497D03*
X205000Y104600D03*
X201800Y101400D03*
X201926Y98266D03*
X201800Y110900D03*
X208225Y117164D03*
X205076D03*
X201884Y126495D03*
X201926Y120314D03*
X202000Y123433D03*
X209000Y127000D03*
X209250Y123500D03*
X205076Y120314D03*
X205034Y129644D03*
X208343Y129804D03*
X201965Y139174D03*
X205115D03*
X201965Y132875D03*
X205115Y136025D03*
Y148623D03*
X208265Y145474D03*
X201965Y151773D03*
Y148623D03*
Y142324D03*
Y145474D03*
X205115D03*
Y142324D03*
X201965Y164371D03*
X201963Y158072D03*
X201926Y154960D03*
X208250Y155000D03*
X199600Y174400D03*
X203500Y170600D03*
X207500D03*
X199500D03*
X211600Y22400D03*
X213400Y27600D03*
X220900Y57500D03*
X217800Y64000D03*
X222000Y74600D03*
X222100Y80700D03*
X216400Y72500D03*
X217400Y76500D03*
Y80500D03*
X222550Y85550D03*
X217800Y88400D03*
X213600Y92500D03*
X217400Y84500D03*
X213600Y100500D03*
Y96500D03*
X217400Y100500D03*
Y96500D03*
Y116500D03*
Y108500D03*
X213600Y112500D03*
X217400D03*
X221250D03*
Y108500D03*
Y116500D03*
X217400Y120500D03*
Y124500D03*
X217500Y128500D03*
X213600D03*
X221250D03*
Y120500D03*
X217400Y132500D03*
Y136500D03*
X213600D03*
Y132500D03*
X221250Y137000D03*
Y150016D03*
X217400Y148500D03*
Y144500D03*
Y152500D03*
Y160500D03*
Y164500D03*
Y156500D03*
X213500D03*
X211500Y170600D03*
X219500D03*
X215500D03*
X224600Y22100D03*
X226000Y77900D03*
X230700Y89000D03*
X223300Y88500D03*
X227100Y92500D03*
X223300D03*
X226100Y85900D03*
X233600Y92500D03*
X233580Y100820D03*
X223300Y100500D03*
X227100D03*
Y96500D03*
X223700D03*
X223300Y104500D03*
X227100D03*
X234000Y96500D03*
X227400Y124500D03*
Y128500D03*
Y136500D03*
Y132500D03*
Y140500D03*
Y148500D03*
Y152500D03*
Y144500D03*
X232500Y156250D03*
X227400Y156500D03*
Y160500D03*
X232000Y170900D03*
X226500Y170600D03*
X227500Y174400D03*
X231500D03*
X223500Y170600D03*
X236800Y40800D03*
X243500Y41200D03*
X241900Y54600D03*
X242600Y51400D03*
X235700Y62500D03*
X237225Y100720D03*
X237000Y96810D03*
X234900Y109300D03*
X246750Y130500D03*
X242824Y143280D03*
X239500Y174400D03*
X252900Y49500D03*
X248150Y68550D03*
X256400Y95700D03*
X253900Y98150D03*
X258400Y108100D03*
X249900Y111200D03*
X253750Y108850D03*
X250750Y127500D03*
X247750D03*
X256604Y127646D03*
X250400Y137800D03*
X258646Y141354D03*
X252250Y131468D03*
X251153Y141600D03*
X268900Y50500D03*
Y54400D03*
X262700Y50500D03*
X259900Y52000D03*
X264900Y65400D03*
X265000Y60500D03*
X263000Y108100D03*
X268500Y145750D03*
X258750Y154250D03*
Y158750D03*
G54D29*
X231250Y40000D03*
Y49840D03*
Y57720D03*
G54D26*
X0Y82500D03*
Y92500D03*
X10000Y87500D03*
X0Y102500D03*
X10000Y97500D03*
Y107500D03*
X0Y112500D03*
X10000Y117500D03*
X0Y122500D03*
X10000Y127500D03*
G54D27*
X30000Y5000D03*
X40000D03*
X50000D03*
X70000D03*
X60000D03*
X80000D03*
X90000D03*
X100000D03*
X110000D03*
X130000D03*
X120000D03*
X140000D03*
X150000D03*
X160000D03*
X170000D03*
X200000D03*
X190000D03*
X210000D03*
X220000D03*
G54D30*
X231250Y67560D03*
G54D28*
X40970Y166373D03*
X55143D03*
X48057D03*
%LPD*%
G75*
G54D10*
X-49757Y7226D03*
Y42659D03*
G54D20*
X275768Y74295D03*
Y98705D03*
G54D11*
X-54400Y66200D03*
X-54350Y68050D03*
X-54300Y70200D03*
X-44400Y49100D03*
Y51100D03*
X-38700Y157400D03*
X-38950Y166900D03*
X-39200Y171650D03*
Y176900D03*
X-39900Y186500D03*
X-36500Y58000D03*
X-27500Y66250D03*
X-30088D03*
X-31350Y152650D03*
X-19400Y4800D03*
X-15000Y6500D03*
Y13300D03*
X-23500Y13500D03*
X-21700Y13000D03*
X-15000Y30500D03*
Y45500D03*
X-23700Y36400D03*
X-22700Y34900D03*
X-25088Y66250D03*
X-16800Y109700D03*
Y113700D03*
X-24450Y151900D03*
X-25000Y166800D03*
X-24450Y177650D03*
X-11000Y16400D03*
X-4400Y31000D03*
X-10000Y50750D03*
Y48750D03*
X-11980Y61620D03*
X-9800Y61300D03*
X8200Y24500D03*
X8300Y22600D03*
X6300D03*
Y24700D03*
X8000Y35300D03*
X6300D03*
X8800Y67450D03*
X-200Y130800D03*
X2250Y144000D03*
Y153050D03*
X3150Y165000D03*
X8500Y161900D03*
X3800Y160400D03*
X-1200D03*
X1300D03*
X3150Y168000D03*
X8600Y171050D03*
X-1200Y172900D03*
X1300D03*
X3800D03*
X14000Y13000D03*
X12700Y14500D03*
X10100Y24500D03*
Y22600D03*
X14600Y28100D03*
X9800Y35300D03*
X11600D03*
X14623Y43097D03*
X9400Y48400D03*
X9300Y50300D03*
Y52200D03*
X10600Y67500D03*
X9500Y65500D03*
X19600Y103600D03*
X19400Y95600D03*
X19700Y111200D03*
X19100Y127500D03*
X19500Y119200D03*
X19400Y131800D03*
X20000Y152200D03*
X20250Y161900D03*
X16250D03*
X12300D03*
X20350Y171050D03*
X16350D03*
X12350D03*
X24850Y26197D03*
X28031Y26242D03*
X31131Y32492D03*
X23500Y40700D03*
X31131Y57633D03*
X27981D03*
X23000Y68000D03*
X23800Y65400D03*
X27981Y60782D03*
X29500Y111600D03*
X27200Y121400D03*
X30500Y123500D03*
X22600Y136200D03*
X22900Y144500D03*
X29100Y162800D03*
X24100Y161900D03*
Y171050D03*
X37300Y32500D03*
X43683Y32462D03*
X40531D03*
X37401Y45061D03*
X40570Y41894D03*
X43674Y38791D03*
X34400Y45100D03*
X34281Y41941D03*
X37430D03*
X34281Y38791D03*
X37430D03*
X34281Y35641D03*
X43644Y41957D03*
X40531Y45070D03*
X40500Y51400D03*
X43721Y48221D03*
X43732Y51332D03*
X37430Y54483D03*
Y48184D03*
X35659Y64664D03*
X40000Y76400D03*
X35200Y73100D03*
X38300Y93900D03*
X40800D03*
X43300D03*
Y98900D03*
X40800D03*
X38300D03*
Y96400D03*
X40800D03*
X43300D03*
X38300Y101400D03*
X40800D03*
X43300D03*
X38300Y103900D03*
X36500Y112400D03*
X40500Y123500D03*
X38000D03*
X33200Y123700D03*
X37400Y137100D03*
X33000Y135700D03*
X33900Y143400D03*
X41500Y155200D03*
X44500Y170600D03*
X53178Y29349D03*
X53139Y32422D03*
X49987Y32462D03*
X56333Y26052D03*
X53189Y45024D03*
X53100Y41839D03*
X53122Y35641D03*
X56272Y35585D03*
Y54483D03*
Y51334D03*
X49973D03*
X53122Y48184D03*
X46953Y51256D03*
X46835Y48222D03*
X56272Y48184D03*
X46800Y67378D03*
X53208Y60800D03*
X56272Y60782D03*
X46832Y60832D03*
X48000Y76400D03*
X52000Y83900D03*
X48100Y93900D03*
X45800Y98900D03*
X48100D03*
X45800Y96400D03*
X48100D03*
X45800Y101400D03*
X48100D03*
X46100Y117500D03*
X54500Y155100D03*
X66750Y15500D03*
Y19500D03*
Y17500D03*
X66574Y24582D03*
X62547Y26217D03*
X62571Y57633D03*
X64200Y64000D03*
X59000Y80000D03*
X60500Y76000D03*
X64400D03*
X68300Y76400D03*
X67250Y111050D03*
X62300Y129800D03*
X63600Y150600D03*
X67000Y144100D03*
X67200Y169600D03*
X62200Y174600D03*
X72000Y13500D03*
Y19500D03*
X69490Y32935D03*
X72000Y28500D03*
X68500Y40500D03*
X72000Y37000D03*
Y43000D03*
Y49000D03*
Y68500D03*
X70400Y87400D03*
Y91500D03*
X72400Y111700D03*
X78500Y117200D03*
X79700Y109900D03*
X69500Y134800D03*
Y155800D03*
X74000Y162800D03*
Y169900D03*
X91250Y20750D03*
Y15500D03*
Y31250D03*
Y26000D03*
Y36500D03*
X88550Y55750D03*
Y53750D03*
X88400Y72000D03*
X82100Y104500D03*
X81800Y154900D03*
X84800D03*
X85000Y173900D03*
Y167500D03*
X81000Y167400D03*
X94500Y21750D03*
Y19750D03*
Y32250D03*
Y30250D03*
X92750Y55750D03*
Y53750D03*
X101000Y70000D03*
X96500Y63900D03*
X96400Y68000D03*
Y72000D03*
X97500Y100200D03*
X101400Y161500D03*
X93500Y167400D03*
X96900Y176700D03*
X115000Y15600D03*
X105200Y13100D03*
X107250Y38750D03*
Y64500D03*
X112663Y90354D03*
X112920Y94780D03*
X111100Y109900D03*
Y115000D03*
X111250Y123750D03*
X111100Y120000D03*
X111500Y141000D03*
Y136000D03*
X115500Y174400D03*
X122506Y21966D03*
Y50313D03*
X120147Y76253D03*
X120301Y104301D03*
X119500Y124600D03*
X119313Y140748D03*
X119300Y145700D03*
X119411Y159632D03*
Y162794D03*
X127500Y174400D03*
X128806Y21966D03*
X135105D03*
Y50313D03*
X128806D03*
X132691Y88798D03*
X139000Y82500D03*
X138997Y101403D03*
X132691Y104546D03*
X129542D03*
X132672Y126576D03*
X138971Y132875D03*
X132672Y136025D03*
X138969Y148676D03*
X129500Y151700D03*
X134248Y165000D03*
X144554Y21966D03*
Y28265D03*
Y44013D03*
Y50313D03*
X150853D03*
X151598Y76160D03*
X148439Y88798D03*
X151600Y104560D03*
X142140Y104546D03*
Y101396D03*
X151589Y110845D03*
Y117144D03*
X148439D03*
Y107696D03*
X148484Y113876D03*
X142080Y110880D03*
X148420Y126630D03*
X142140Y120294D03*
X142132Y123435D03*
X148420Y132875D03*
X142120D03*
Y136025D03*
Y145474D03*
Y142324D03*
X151569D03*
X148420Y158072D03*
X151500Y174400D03*
X147500D03*
X150250Y165500D03*
X160302Y21966D03*
X154002Y21900D03*
X157152Y25116D03*
X163451Y50313D03*
X157152D03*
X160302Y47163D03*
X161100Y74500D03*
X158000D03*
X154739Y98247D03*
Y101396D03*
X157888Y107696D03*
X154739Y110845D03*
X157888D03*
Y117144D03*
X154739D03*
X161038D03*
X157888Y120294D03*
X161122Y129622D03*
X157868Y132875D03*
Y129726D03*
X154719Y136025D03*
X162593Y164961D03*
X157868Y158072D03*
X159500Y174400D03*
X169750Y21966D03*
Y36139D03*
Y50313D03*
X169453Y74389D03*
X166460Y74500D03*
X164100Y79400D03*
X170430Y85668D03*
Y104566D03*
X173580D03*
X170430Y98266D03*
X164131D03*
X170430Y117164D03*
X173580Y114015D03*
X170430Y120314D03*
X170469Y132875D03*
X173619Y136025D03*
X170469Y158072D03*
X171500Y174400D03*
X167500D03*
X180600Y14700D03*
X185900Y61500D03*
X179600Y71500D03*
X175900Y73700D03*
X181900Y75326D03*
X179879Y88818D03*
X183200Y101400D03*
X183002Y95144D03*
X179879Y117164D03*
X183028D03*
X186178Y114015D03*
X179879Y110865D03*
Y107715D03*
X183028D03*
X176729Y120314D03*
X176768Y126576D03*
Y136025D03*
X179918D03*
X186217Y129726D03*
X183068D03*
X186300Y136000D03*
X179918Y151773D03*
X176768Y145474D03*
X179918Y164371D03*
Y154922D03*
X179500Y174400D03*
X175500D03*
X183500D03*
X195500Y43900D03*
X197750Y45500D03*
X189500Y57600D03*
X195750Y47500D03*
X195500Y75000D03*
X192000Y70900D03*
X195610Y85570D03*
X195627Y104566D03*
X198776D03*
X189300Y101400D03*
X195666Y126576D03*
X198816D03*
X189367Y139174D03*
X189272Y142229D03*
X189367Y145474D03*
X192516D03*
X189379Y161219D03*
X195700Y155000D03*
X187500Y174400D03*
X191500D03*
X209300Y22400D03*
X204000Y51500D03*
X202000Y57600D03*
X200000Y47500D03*
X208225Y76219D03*
X209400Y91200D03*
X209200Y104700D03*
X201926Y95117D03*
X202000Y113900D03*
X208265Y120274D03*
X201965Y136025D03*
X208265Y148623D03*
X205115Y164371D03*
X205128Y158072D03*
X213800Y16600D03*
X219931Y17831D03*
X215864Y12336D03*
X212400Y51000D03*
Y54000D03*
X212500Y63750D03*
X217800Y92400D03*
X221250Y146750D03*
X230400Y15300D03*
Y18400D03*
X224900Y14100D03*
X223000Y33400D03*
X223300Y38100D03*
Y39800D03*
X231800Y109100D03*
X233900Y137100D03*
X245450Y93650D03*
X243140Y89170D03*
X245500Y99000D03*
X245696Y97300D03*
X246500Y119750D03*
X242800Y123600D03*
X235500Y174400D03*
X254700Y40700D03*
Y44800D03*
X257500Y40800D03*
Y44800D03*
X256100Y42700D03*
X250900Y56400D03*
X255000D03*
X250900Y69700D03*
Y60700D03*
X255000D03*
X252900Y58500D03*
X254200Y88600D03*
X254300Y84300D03*
X254800Y102500D03*
X253200Y103600D03*
X257000Y101200D03*
X247800Y115300D03*
X251000Y119750D03*
X254600Y131500D03*
X256600Y133400D03*
X250700Y135400D03*
X252700Y137400D03*
X248700Y141300D03*
X253400Y149900D03*
X256500Y163450D03*
X268800Y60600D03*
X268700Y65500D03*
X265200Y93400D03*
X265500Y87000D03*
X263400Y113900D03*
X267400Y118300D03*
X259100Y118100D03*
X263700Y150000D03*
X277874Y114300D03*
Y156900D03*
G54D21*
G01X-40300Y51400D02*
X-42600Y49100D01*
X-44400D01*
G01X-41400Y54053D02*
X-44353Y51100D01*
X-44400D01*
G54D12*
X-33615Y10277D03*
Y39608D03*
G54D22*
G01X-8900Y-8500D02*
X-400Y0D01*
X0D01*
G01X-8400Y198600D02*
X0Y190200D01*
Y190000D01*
G01X7600Y-8700D02*
X0Y-1100D01*
Y0D01*
G01X9000Y198700D02*
X300Y190000D01*
X0D01*
G54D13*
X-27670Y7226D03*
Y42659D03*
G54D23*
G01X-41400Y54100D02*
Y54053D01*
G01X-37000Y179900D02*
X-39900Y182800D01*
Y186500D01*
G01X-30859Y12935D02*
X-25065D01*
G01X-30859Y36950D02*
X-25150D01*
G01X20000Y5000D02*
X23382Y8382D01*
G01X16618D02*
X20000Y5000D01*
G01D02*
X23382Y1618D01*
G01X16618Y181618D02*
X20000Y185000D01*
G01D02*
X23382Y181618D01*
G01X176618Y1618D02*
X180000Y5000D01*
G01D02*
X183382Y8382D01*
G01X176618D02*
X180000Y5000D01*
G01D02*
X183382Y1618D01*
G01X226618D02*
X230000Y5000D01*
G01D02*
X233382Y8382D01*
G01X226618D02*
X230000Y5000D01*
G01D02*
X233382Y1618D01*
G01X227762Y64072D02*
X231250Y67560D01*
G01D02*
X234738Y71048D01*
G01X227762D02*
X231250Y67560D01*
G01X236618Y1618D02*
X240000Y5000D01*
G01D02*
X243382Y8382D01*
G01X236618D02*
X240000Y5000D01*
G54D14*
X-30859Y12935D03*
Y36950D03*
X40970Y166373D03*
X55143D03*
X48057D03*
G54D24*
G01X-32500Y-12500D02*
X232500D01*
G03X282500Y37500I0J50000D01*
G01Y152500D01*
G03X232500Y202500I-50000J0D01*
G01X-32500D01*
G03X-57500Y177500I0J-25000D01*
G01Y12500D01*
G03X-32500Y-12500I25000J0D01*
G54D15*
X-12992Y73996D03*
Y136004D03*
G54D16*
X0Y0D03*
Y190000D03*
X260000Y12500D03*
Y177500D03*
G54D17*
X20000Y5000D03*
Y185000D03*
X180000Y5000D03*
X230000D03*
X240000D03*
G54D18*
X241920Y27910D03*
Y79650D03*
G54D19*
X231250Y67560D03*
M02*
