G04 ================== begin FILE IDENTIFICATION RECORD ==================*
G04 Layout Name:  C:/Users/a0321898/Documents/GitHub/beaglebone-ai/HW/BeagleBone-AI.brd*
G04 Film Name:    LAY5*
G04 File Format:  Gerber RS274X*
G04 File Origin:  Cadence Allegro 17.2-S049*
G04 Origin Date:  Wed Feb 19 11:28:09 2020*
G04 *
G04 Layer:  VIA CLASS/SIG_L5*
G04 Layer:  PIN/SIG_L5*
G04 Layer:  ETCH/SIG_L5*
G04 Layer:  BOARD GEOMETRY/OUTLINE*
G04 *
G04 Offset:    (0.000 0.000)*
G04 Mirror:    No*
G04 Mode:      Positive*
G04 Rotation:  0*
G04 FullContactRelief:  No*
G04 UndefLineWidth:     5.000*
G04 ================== end FILE IDENTIFICATION RECORD ====================*
%FSLAX25Y25*MOIN*%
%IR0*IPPOS*OFA0.00000B0.00000*MIA0B0*SFA1.00000B1.00000*%
%ADD10C,.016*%
%ADD13C,.062*%
%ADD12C,.023622*%
%ADD11C,.03937*%
%ADD14C,.004*%
%ADD15C,.005*%
%ADD16C,.0043*%
%ADD17C,.0037*%
%ADD18C,.004748*%
%ADD19C,.01*%
%ADD20C,.04*%
%ADD21C,.015*%
%ADD22C,.025*%
%ADD25C,.155004*%
%ADD23C,.024004*%
%ADD26C,.066004*%
%ADD24C,.068004*%
G75*
%LPD*%
G75*
G36*
G01X-41589Y57919D02*
G03X-42431Y59865I-937J750D01*
G02X-42800Y60264I31J399D01*
G01Y63700D01*
X-39900Y66600D01*
X-33304D01*
G02X-33000Y65940I0J-400D01*
G01Y50500D01*
X-40700D01*
X-42800Y52600D01*
Y55074D01*
G02X-42431Y55472I400J0D01*
G03X-41589Y57419I-94J1196D01*
G02Y57919I312J250D01*
G37*
G36*
G01X-12650Y144816D02*
G02X-13333Y144533I-400J0D01*
G01X-14600Y145800D01*
X-22907D01*
G02X-23305Y146238I0J400D01*
G03X-25695I-1195J113D01*
G02X-26093Y145800I-398J-38D01*
G01X-39900D01*
X-40500Y146400D01*
Y178400D01*
X-34500Y184400D01*
X-13600D01*
X-7600Y178400D01*
X11100D01*
X15642Y182942D01*
G02X16271Y182858I283J-283D01*
G03X24296Y185183I3729J2142D01*
G02X24696Y185600I400J17D01*
G01X26205D01*
G02X26605Y185179I0J-400D01*
G03X33396I3395J-179D01*
G02X33795Y185600I399J21D01*
G01X36205D01*
G02X36604Y185179I0J-400D01*
G03X43396I3396J-179D01*
G02X43795Y185600I399J21D01*
G01X46205D01*
G02X46605Y185179I0J-400D01*
G03X53396I3395J-179D01*
G02X53795Y185600I399J21D01*
G01X56205D01*
G02X56604Y185179I0J-400D01*
G03X63396I3395J-179D01*
G02X63795Y185600I399J21D01*
G01X66205D01*
G02X66604Y185179I0J-400D01*
G03X73396I3396J-179D01*
G02X73795Y185600I399J21D01*
G01X76205D01*
G02X76604Y185179I0J-400D01*
G03X83396I3396J-179D01*
G02X83795Y185600I399J21D01*
G01X86205D01*
G02X86604Y185179I0J-400D01*
G03X93396I3396J-179D01*
G02X93795Y185600I399J21D01*
G01X96205D01*
G02X96604Y185179I0J-400D01*
G03X103396I3396J-179D01*
G02X103795Y185600I399J21D01*
G01X106205D01*
G02X106605Y185179I0J-400D01*
G03X113396I3395J-179D01*
G02X113795Y185600I399J21D01*
G01X116205D01*
G02X116604Y185179I0J-400D01*
G03X123395I3395J-179D01*
G02X123795Y185600I399J21D01*
G01X126205D01*
G02X126605Y185179I0J-400D01*
G03X133396I3395J-179D01*
G02X133795Y185600I399J21D01*
G01X134499D01*
Y175230D01*
G03X134374Y173750I1001J-830D01*
G02X134027Y173150I-346J-200D01*
G01X124856D01*
G02X124517Y173763I0J400D01*
G03X122483I-1017J637D01*
G02X122144Y173150I-339J-212D01*
G01X108856D01*
G02X108517Y173763I0J400D01*
G03X106483I-1017J637D01*
G02X106144Y173150I-339J-212D01*
G01X94856D01*
G02X94517Y173763I0J400D01*
G03X92483I-1017J637D01*
G02X92144Y173150I-339J-212D01*
G01X83873D01*
X83123Y173900D01*
X78786D01*
G02X78402Y174413I0J400D01*
G03X76098I-1152J337D01*
G02X75714Y173900I-384J-112D01*
G01X70880D01*
G02X70489Y174385I0J400D01*
G03X68144I-1173J256D01*
G02X67753Y173900I-391J-85D01*
G01X46036D01*
G02X45652Y174413I0J400D01*
G03Y175087I-1152J337D01*
G02X46036Y175600I384J112D01*
G01X65473D01*
X67173Y177300D01*
X100177D01*
X100757Y176720D01*
X100760Y176642D01*
G03X102108Y177990I1299J49D01*
G01X102030Y177993D01*
X100923Y179100D01*
X82831D01*
G02X82436Y179563I0J400D01*
G03X80064I-1186J187D01*
G02X79669Y179100I-395J-62D01*
G01X66427D01*
X64727Y177400D01*
X-3373D01*
X-7900Y172873D01*
Y163173D01*
X-9222Y161850D01*
G02X-9904Y162100I-283J283D01*
G03X-11200Y160804I-1196J-100D01*
G02X-10950Y160122I-33J-399D01*
G01X-12650Y158423D01*
Y144816D01*
G37*
G36*
G01X-28852Y45143D02*
G03X-29038Y45136I0J-2484D01*
G01X-29130Y45130D01*
X-31700Y47700D01*
Y65400D01*
X-31596Y65504D01*
G02X-31007Y65478I283J-283D01*
G03X-29117Y65544I919J772D01*
G02X-28470I323J-235D01*
G03X-26595Y65461I970J706D01*
G02X-25992I301J-263D01*
G03X-23889Y66200I905J789D01*
G01X-6800D01*
X-4000Y69000D01*
X7687D01*
G02X7965Y68312I0J-400D01*
G03X8202Y66410I835J-862D01*
G02X8376Y65922I-199J-347D01*
G03X10650Y65845I1124J-422D01*
G02X10925Y66344I383J115D01*
G03X11472Y68325I-325J1155D01*
G02X11762Y69000I290J275D01*
G01X13187D01*
X13212Y68829D01*
G03X15425Y68376I1188J171D01*
G02X16050Y68450I342J-208D01*
G01X17600Y66900D01*
Y64400D01*
X16200Y63000D01*
X11261D01*
X10961Y62700D01*
X10800D01*
X9650Y61550D01*
Y55350D01*
X4300Y50000D01*
Y9900D01*
X7000Y7200D01*
X16653D01*
G02X17005Y6611I0J-400D01*
G03X22995I2995J-1611D01*
G02X23347Y7200I352J190D01*
G01X25658D01*
G02X26028Y6647I0J-400D01*
G03X34288Y5317I3972J-1647D01*
G02X34970Y5630I399J30D01*
G01X35200Y5400D01*
Y-8400D01*
X34400Y-9200D01*
X32766D01*
G02X32531Y-8477I0J400D01*
G03X27469I-2531J3477D01*
G02X27234Y-9200I-235J-323D01*
G01X-11800D01*
X-12000Y-9000D01*
Y-1100D01*
X-15900Y2800D01*
X-21000D01*
X-22600Y4400D01*
Y9200D01*
X-25500Y12100D01*
Y24606D01*
X-25017Y25089D01*
G03X-24566Y24852I817J1011D01*
G02X-24284Y24405I-113J-384D01*
G03X-21702Y24132I1284J-205D01*
G01X-21698Y24208D01*
X-21585Y24321D01*
Y25111D01*
G02X-21139Y25508I400J0D01*
G03X-20696Y27861I139J1192D01*
G02X-20896Y28511I101J387D01*
G03X-22268Y30405I-904J789D01*
G01X-22353Y30369D01*
X-22531Y30459D01*
X-22558Y30494D01*
G03X-24582Y29231I-942J-744D01*
G02X-24943Y28659I-361J-173D01*
G01X-25500D01*
Y40380D01*
G03X-26489Y45143I-989J2279D01*
G01X-28852D01*
G37*
G36*
G01X15677Y73850D02*
X29177D01*
X32827Y70200D01*
X39673D01*
X39823Y70350D01*
G02X40504Y70100I283J-283D01*
G03X42427Y69245I1196J100D01*
G02X42959Y69203I242J-318D01*
G03X43015Y69147I941J897D01*
G01X43018Y69145D01*
X43162Y69001D01*
X40217Y66056D01*
X40129Y66059D01*
G03X39626Y63750I-48J-1199D01*
G01X39750Y63699D01*
Y61649D01*
G03Y59916I830J-867D01*
G01Y58700D01*
G03Y56813I742J-943D01*
G01Y55411D01*
X41811Y53350D01*
X43700D01*
Y46247D01*
X43525Y46225D01*
G03Y43843I149J-1191D01*
G01X43700Y43822D01*
Y36827D01*
X43526Y36804D01*
G03X44668Y34928I157J-1190D01*
G02X45279Y34982I328J-229D01*
G01X45761Y34500D01*
X46420D01*
X46453Y34487D01*
G03X47286I417J1126D01*
G01X47320Y34500D01*
X49774D01*
X49784Y34499D01*
G03X50032I124J1194D01*
G01X50043Y34500D01*
X54839D01*
X55017Y34679D01*
G02X55700Y34396I283J-283D01*
G01Y33547D01*
G03Y31436I572J-1055D01*
G01Y30371D01*
G03Y28328I630J-1021D01*
G01Y26961D01*
X56020Y26642D01*
G02X55878Y26300I-141J-141D01*
G01X55761D01*
X54224Y24762D01*
G02X53541Y25045I-283J283D01*
G01Y25188D01*
X53640Y25246D01*
G03X52668Y27425I-606J1036D01*
G01X52551Y27387D01*
X51639Y28300D01*
X45004D01*
G02X44614Y28789I0J400D01*
G03X42402Y29652I-1170J267D01*
G02X41772Y29567I-347J198D01*
G01X39539Y31800D01*
X35961D01*
X35483Y31322D01*
G02X34800Y31605I-283J283D01*
G01Y39389D01*
X34389Y39800D01*
X35300Y40711D01*
Y49439D01*
X33947Y50792D01*
X34960Y51805D01*
Y56643D01*
G03Y58622I-679J989D01*
G01Y61079D01*
X33039Y63000D01*
X19005D01*
G02X18722Y63683I0J400D01*
G01X18900Y63861D01*
Y67439D01*
X18665Y67674D01*
X18840Y67848D01*
X18884Y67863D01*
G03X17458Y69595I-384J1137D01*
G02X16828Y69511I-347J198D01*
G01X16039Y70300D01*
X-4300D01*
Y135500D01*
X-6217Y137417D01*
G02X-5934Y138100I283J283D01*
G01X727D01*
X4300Y134527D01*
Y85227D01*
X15677Y73850D01*
G37*
G36*
G01X-3523Y147150D02*
X-4971Y145702D01*
X-5049Y145699D01*
G03X-5918Y145321I49J-1299D01*
G02X-6600Y145605I-282J283D01*
G01Y151464D01*
G02X-6087Y151848I400J0D01*
G03X-5162Y154046I337J1152D01*
G02X-5249Y154678I196J349D01*
G01X-3027Y156900D01*
X22818D01*
G02X23214Y156441I0J-400D01*
G03X23209Y156097I1286J-191D01*
G02X22812Y155650I-397J-47D01*
G01X16127D01*
X7627Y147150D01*
X-3523D01*
G37*
G36*
G01X-4481Y159650D02*
X-4537Y159757D01*
G03X-5571Y160400I-1063J-557D01*
G02X-5844Y161083I10J400D01*
G01X-4600Y162327D01*
Y171127D01*
X-1027Y174700D01*
X30027D01*
X32627Y172100D01*
X32838D01*
G02X33128Y171425I0J-400D01*
G03X34872I872J-825D01*
G02X35162Y172100I291J275D01*
G01X82377D01*
X83127Y171350D01*
X89538D01*
G02X89929Y170862I0J-400D01*
G03X89902Y170525I1171J-262D01*
G02X89503Y170100I-399J-25D01*
G01X79827D01*
X78127Y168400D01*
X63627D01*
X59627Y164400D01*
X57793D01*
G02X57449Y165004I0J400D01*
G03X52838I-2306J1369D01*
G02X52494Y164400I-344J-204D01*
G01X50706D01*
G02X50362Y165004I0J400D01*
G03X45751I-2306J1369D01*
G02X45407Y164400I-344J-204D01*
G01X43620D01*
G02X43276Y165004I0J400D01*
G03X38664I-2306J1369D01*
G02X38321Y164400I-344J-204D01*
G01X34427D01*
X29677Y159650D01*
X-4481D01*
G37*
G36*
G01X6500Y10700D02*
Y21407D01*
X6643Y21450D01*
G03X7050Y21663I-343J1150D01*
G02X7550I250J-312D01*
G03X9071Y21681I750J937D01*
G02X9329I129J-153D01*
G03X10982Y23414I771J920D01*
G02Y23686I147J136D01*
G03X11288Y24328I-882J814D01*
G01X11313Y24500D01*
X33014D01*
X34600Y24500D01*
X35500Y25400D01*
Y29500D01*
X36500Y30500D01*
X39000D01*
X41000Y28500D01*
Y10241D01*
X39800Y9041D01*
X31471D01*
G03X28528I-1471J-4041D01*
G01X8159D01*
X6500Y10700D01*
G37*
G36*
G01X7000Y36784D02*
Y38700D01*
X8050Y39750D01*
X22766D01*
G03X24234I734J950D01*
G01X32600D01*
X33148Y39202D01*
X33119Y39092D01*
G03X33500Y37879I1162J-301D01*
G01Y36553D01*
G03Y34730I781J-912D01*
G01Y30198D01*
G03Y28375I781J-912D01*
G01Y27104D01*
G03X33081Y26165I781J-912D01*
G03X33082Y26075I1200J-27D01*
G01X33087Y25987D01*
X32600Y25500D01*
X32242D01*
Y25736D01*
X32255Y25770D01*
G03X29951Y25973I-1124J422D01*
G02X29558Y25500I-393J-73D01*
G01X29122D01*
Y25740D01*
X29138Y25777D01*
G03X26859Y25986I-1107J465D01*
G02X26468Y25500I-391J-86D01*
G01X26422D01*
G02X26029Y25974I0J400D01*
G03X23671I-1179J223D01*
G02X23278Y25500I-393J-74D01*
G01X22997D01*
G02X22598Y25875I0J400D01*
G03X22195Y26699I-1198J-75D01*
G02X22170Y27274I265J300D01*
G03X22135Y28963I-870J826D01*
G02Y29538I278J287D01*
G03X20465I-835J862D01*
G02Y28963I-278J-288D01*
G03X20505Y27201I835J-863D01*
G02X20530Y26626I-265J-300D01*
G03X20202Y25875I870J-826D01*
G02X19803Y25500I-399J25D01*
G01X10764D01*
G03X9482Y25529I-664J-1000D01*
G01X9434Y25500D01*
X8866D01*
X8818Y25529D01*
G03X8103Y25696I-618J-1029D01*
G01X8011Y25689D01*
X7000Y26700D01*
Y33817D01*
G02X7550Y34187I400J0D01*
G03X8771Y34381I450J1113D01*
G02X9029I129J-153D01*
G03X10571I771J919D01*
G02X10829I129J-153D01*
G03Y36219I771J919D01*
G02X10571I-129J153D01*
G03X9029I-771J-919D01*
G02X8771I-129J153D01*
G03X7550Y36413I-771J-919D01*
G02X7000Y36784I-150J371D01*
G37*
G36*
G01X7950Y40750D02*
X7000Y41700D01*
Y48800D01*
X7775Y49575D01*
G02X8368Y49544I283J-283D01*
G03X8463Y49439I932J756D01*
G02X8478Y49168I-139J-143D01*
G03X10237Y49261I922J-768D01*
G02X10222Y49532I139J143D01*
G03X10421Y49871I-922J768D01*
G01X10470Y50000D01*
X32900D01*
X34000Y48900D01*
Y46239D01*
X33886Y46184D01*
G03Y44016I514J-1084D01*
G01X34000Y43961D01*
Y43116D01*
X33869Y43068D01*
G03X33237Y41348I412J-1127D01*
G02X32889Y40750I-348J-198D01*
G01X24711D01*
X24681Y40914D01*
G03X22809Y41682I-1181J-214D01*
G02X22184Y41944I-230J327D01*
G03X19887Y41300I-1184J-194D01*
G02X19516Y40750I-371J-150D01*
G01X7950D01*
G37*
G36*
G01X14767Y132806D02*
X4273Y143300D01*
X-3451D01*
G02X-3815Y143865I0J400D01*
G03X-3701Y144351I-1185J535D01*
G01X-3698Y144429D01*
X-2777Y145350D01*
X6590D01*
G02X6922Y144726I0J-400D01*
G03X8956Y143119I1078J-726D01*
G02X9544I294J-271D01*
G03X9616Y143047I956J881D01*
G02Y142753I-136J-147D01*
G03X11799Y141751I884J-953D01*
G01X11802Y141829D01*
X14767Y144794D01*
G02X15450Y144511I283J-283D01*
G01Y133089D01*
G02X14767Y132806I-400J0D01*
G37*
G36*
G01X12200Y52000D02*
X11451Y52749D01*
Y61351D01*
X11800Y61700D01*
X23851D01*
G02X24163Y61050I0J-400D01*
G03X26037I937J-750D01*
G02X26349Y61700I312J250D01*
G01X26467D01*
G02X26846Y61171I0J-400D01*
G03X29117I1136J-388D01*
G02X29496Y61700I378J129D01*
G01X32500D01*
X33660Y60540D01*
Y58660D01*
G03Y56606I621J-1027D01*
G01Y52344D01*
X33317Y52000D01*
X32129D01*
G03X30133I-998J-666D01*
G01X28980D01*
G03X26983I-998J-666D01*
G01X12200D01*
G37*
G36*
G01X33573Y72000D02*
X30389Y75184D01*
X30376Y75206D01*
G03X29600Y75650I-776J-456D01*
G01X16423D01*
X9906Y82167D01*
G02X10189Y82850I283J283D01*
G01X17962D01*
G02X18284Y82212I0J-400D01*
G03X20216I966J-712D01*
G02X20538Y82850I322J237D01*
G01X35223D01*
X38590Y86217D01*
G02X39217Y86138I283J-283D01*
G03X41094Y85897I1033J612D01*
G02X41656I281J-284D01*
G03X43691Y86900I844J854D01*
G02X44088Y87350I397J50D01*
G01X44162D01*
G02X44559Y86900I0J-400D01*
G03X45203Y85682I1191J-150D01*
G02X45304Y85043I-182J-356D01*
G01X43800Y83539D01*
Y72439D01*
G02X43117Y72156I-400J0D01*
G01X42273Y73000D01*
X39927D01*
X38927Y72000D01*
X33573D01*
G37*
G36*
G01X21450Y87450D02*
X16750Y92150D01*
Y145750D01*
X18150Y147150D01*
X31150D01*
X35650Y151650D01*
X56907D01*
G02X57305Y151212I0J-400D01*
G03X59695I1195J-112D01*
G02X60093Y151650I398J37D01*
G01X62138D01*
G02X62503Y151088I0J-400D01*
G03X64697I1097J-487D01*
G02X65062Y151650I366J162D01*
G01X71450D01*
X72100Y151000D01*
Y148450D01*
X68503Y144853D01*
G02X67915Y144877I-283J283D01*
G03X66657Y142950I-915J-777D01*
G01X66800Y142907D01*
Y140027D01*
X68677Y138150D01*
X70750D01*
X74650Y134250D01*
Y119150D01*
X72750Y117250D01*
X70773D01*
X70623Y117400D01*
X57338D01*
G03Y115600I-938J-900D01*
G01X62350D01*
Y114450D01*
X55050Y107150D01*
X54950D01*
X51300Y103500D01*
Y94200D01*
X48500Y91400D01*
X37900D01*
X36089Y89589D01*
G02X35417Y89779I-283J283D01*
G03X33055Y89386I-1167J-279D01*
G02X32680Y88948I-398J-38D01*
G03X31850Y88544I70J-1198D01*
G02X31150Y88809I-300J265D01*
G01Y90562D01*
G03X29350I-900J938D01*
G01Y87923D01*
X28877Y87450D01*
X21450D01*
G37*
G36*
G01X44300Y11500D02*
X43000Y12800D01*
Y24655D01*
G02X43461Y25050I400J0D01*
G03X44812Y26509I183J1186D01*
G02X45202Y27000I390J91D01*
G01X48425D01*
G02X48812Y26498I0J-400D01*
G03X51149Y26432I1161J-306D01*
G01X51127Y26538D01*
X51345Y26755D01*
X51831Y26269D01*
X51836Y26195D01*
G03X52241Y25380I1197J87D01*
G01Y23996D01*
G03Y22229I813J-883D01*
G01Y12241D01*
X51500Y11500D01*
X44300D01*
G37*
G36*
G01X42350Y54650D02*
X41050Y55950D01*
Y56694D01*
G03Y58819I-558J1062D01*
G01Y59672D01*
X41154Y59728D01*
G03Y61836I-574J1054D01*
G01X41050Y61893D01*
Y64151D01*
G03X41253Y65122I-969J709D01*
G01X41229Y65229D01*
X45295Y69295D01*
X45431Y69203D01*
G03X46925Y69328I669J997D01*
G02X47475I275J-290D01*
G03Y71072I825J872D01*
G02X46925I-275J290D01*
G03X45650Y71313I-825J-872D01*
G02X45100Y71684I-150J371D01*
G01Y83000D01*
X46025Y83925D01*
G02X46706Y83682I283J-283D01*
G03X48018Y84994I1194J118D01*
G02X47775Y85675I40J398D01*
G01X54019Y91919D01*
G02X54576Y91927I283J-283D01*
G03X56572Y93056I824J873D01*
G02X56872Y93531I391J85D01*
G03X57630Y95316I-272J1169D01*
G01X57550Y95450D01*
X65000Y102900D01*
X75000D01*
X77350Y100550D01*
Y78850D01*
X72500Y74000D01*
X53600D01*
X53176Y73576D01*
X53038Y73670D01*
G03X52262Y71300I-738J-1070D01*
G02X52650Y70900I-12J-400D01*
G01Y65057D01*
X52550Y65000D01*
G03Y62922I601J-1039D01*
G01X52650Y62865D01*
Y62650D01*
X51517Y61517D01*
G02X50932Y61538I-283J283D01*
G03X49239Y59845I-906J-787D01*
G02X49260Y59260I-262J-302D01*
G01X48441Y58441D01*
G02X47847Y58472I-283J283D01*
G03X46143Y56797I-933J-755D01*
G02X46169Y56208I-257J-307D01*
G01X44611Y54650D01*
X42350D01*
G37*
G36*
G01X36356Y154183D02*
X38573Y156400D01*
X57114D01*
G02X57460Y155800I0J-400D01*
G03X59540I1039J-600D01*
G02X59886Y156400I346J200D01*
G01X73919D01*
G02X74314Y155937I0J-400D01*
G03X74440Y155188I1185J-187D01*
G02X74086Y154600I-353J-187D01*
G01X72027D01*
X70927Y153500D01*
X36639D01*
G02X36356Y154183I0J400D01*
G37*
G36*
G01X56050Y11500D02*
X54400Y13150D01*
Y23100D01*
X56161Y24861D01*
X56252Y24855D01*
G03X56869Y24979I81J1197D01*
G01X56912Y25000D01*
X64974D01*
G02X65374Y24596I0J-400D01*
G03X67774I1200J-14D01*
G02X68174Y25000I400J4D01*
G01X76800D01*
X77900Y23900D01*
Y13300D01*
X76100Y11500D01*
X56050D01*
G37*
G36*
G01X48065Y35800D02*
X48023Y35945D01*
G03X46092Y36527I-1153J-332D01*
G02X45550Y36550I-259J305D01*
G01X45000Y37100D01*
Y53200D01*
X48300Y56500D01*
X54400D01*
X55357Y55543D01*
G02X55366Y55271I-141J-141D01*
G03X55500Y53564I906J-788D01*
G01Y52252D01*
G03Y50414I772J-919D01*
G01Y49103D01*
G03Y47265I772J-919D01*
G01Y45959D01*
G03Y44168I799J-896D01*
G01Y42745D01*
G03Y41091I870J-827D01*
G01Y37000D01*
X54740Y36240D01*
G02X54124Y36303I-283J283D01*
G03X51962Y35949I-1001J-662D01*
G01X51923Y35800D01*
X51114D01*
X51079Y35956D01*
G03X48737I-1171J-264D01*
G01X48702Y35800D01*
X48065D01*
G37*
G36*
G01X51235Y57800D02*
X51202Y57960D01*
G03X50910Y58530I-1175J-242D01*
G02X50922Y59083I294J271D01*
G01X53950Y62111D01*
Y63065D01*
G03Y64857I-799J896D01*
G01Y68403D01*
G02X54325Y68802I400J0D01*
G03X54165Y71197I-75J1198D01*
G02X53950Y71397I-14J200D01*
G01Y71700D01*
X72027D01*
X74727Y69000D01*
X75428D01*
G02X75821Y68525I0J-400D01*
G03X75812Y68472I1179J-226D01*
G01X75787Y68300D01*
X58001D01*
X55920Y66219D01*
Y65080D01*
X55797Y65028D01*
G03Y62815I465J-1107D01*
G01X55920Y62764D01*
Y58788D01*
X55799Y58736D01*
G03X55114Y57948I473J-1103D01*
G01X55074Y57800D01*
X51235D01*
G37*
G36*
G01X57000Y34632D02*
G03Y36539I-728J954D01*
G01Y38900D01*
X57400Y39300D01*
X68483D01*
G03X68517I17J1200D01*
G01X76400D01*
X77400Y38300D01*
Y28100D01*
X75900Y26600D01*
X63692D01*
X63638Y26717D01*
G03X61456I-1091J-500D01*
G01X61402Y26600D01*
X57900D01*
X57000Y27500D01*
Y28354D01*
G03Y30345I-670J996D01*
G01Y31538D01*
G03Y33446I-728J954D01*
G01Y34632D01*
G37*
G36*
G01X57700Y40400D02*
X57265Y40835D01*
G02X57258Y41111I141J141D01*
G03X56921Y42984I-889J807D01*
G01Y44037D01*
G03Y46090I-622J1026D01*
G01Y47174D01*
G03X57459Y48004I-649J1009D01*
G01X57468Y48068D01*
X58200Y48800D01*
X70807D01*
X70850Y48657D01*
G03X73150I1150J343D01*
G01X73193Y48800D01*
X76760D01*
X77300Y48260D01*
Y41700D01*
X76000Y40400D01*
X69710D01*
X69697Y40586D01*
G03X67303I-1197J-86D01*
G01X67290Y40400D01*
X63694D01*
G02X63413Y41085I0J400D01*
G03X61729I-842J855D01*
G02X61449Y40400I-281J-285D01*
G01X57700D01*
G37*
G36*
G01X57434Y51033D02*
G03X57220Y52070I-1162J301D01*
G01Y53747D01*
G03Y55219I-948J736D01*
G01Y56897D01*
G03Y58369I-948J736D01*
G01Y60046D01*
G03Y61518I-948J736D01*
G01Y63199D01*
G03Y64644I-958J723D01*
G01Y65680D01*
X58540Y67000D01*
X76400D01*
X77300Y66100D01*
Y51532D01*
X76300Y50532D01*
X57821D01*
G02X57434Y51033I0J400D01*
G37*
G36*
G01X78650Y101089D02*
X76818Y102921D01*
G02X76842Y103509I283J283D01*
G03X76956Y103619I-842J991D01*
G02X77544I294J-271D01*
G03X78549Y105799I956J881D01*
G01X78471Y105802D01*
X76873Y107400D01*
X73627D01*
X72777Y106550D01*
X68753D01*
G02X68377Y107088I0J400D01*
G03X66123I-1127J412D01*
G02X65747Y106550I-376J-137D01*
G01X57255D01*
G02X56972Y107233I0J400D01*
G01X63650Y113911D01*
Y115600D01*
X69877D01*
X78277Y107200D01*
X84427D01*
X87098Y104529D01*
X87101Y104451D01*
G03X88449Y105799I1299J49D01*
G01X88371Y105802D01*
X85173Y109000D01*
X79023D01*
X72756Y115267D01*
G02X73039Y115950I283J283D01*
G01X73289D01*
X75950Y118611D01*
Y133911D01*
G02X76633Y134194I400J0D01*
G01X97627Y113200D01*
X102000D01*
Y111988D01*
G02X101550Y111591I-400J0D01*
G03X100664Y109452I-150J-1191D01*
G02X100639Y108802I-245J-316D01*
G03X100138Y107500I661J-1002D01*
G02X99751Y107000I-387J-100D01*
G01X96173D01*
X90523Y112650D01*
X82188D01*
G03Y110850I-938J-900D01*
G01X89777D01*
X95427Y105200D01*
X98614D01*
G02X98960Y104600I0J-400D01*
G03X99094Y103213I1040J-600D01*
G02X98792Y102550I-302J-262D01*
G01X80111D01*
X78650Y101089D01*
G37*
G36*
G01X63339Y162100D02*
G02X63056Y162783I0J400D01*
G01X65273Y165000D01*
X79644D01*
G02X79983Y164387I0J-400D01*
G03X82017I1017J-637D01*
G02X82356Y165000I339J212D01*
G01X83838D01*
G02X84128Y164325I0J-400D01*
G03X84063Y162750I872J-825D01*
G02X83751Y162100I-312J-250D01*
G01X63339D01*
G37*
G36*
G01X76950Y70850D02*
X75750Y72050D01*
Y75411D01*
X78650Y78311D01*
Y78450D01*
X79250Y79050D01*
Y86938D01*
G02X79738Y87329I400J0D01*
G03Y89671I262J1171D01*
G02X79250Y90062I-87J390D01*
G01Y99850D01*
X80650Y101250D01*
X96038D01*
G02X96403Y100688I0J-400D01*
G03X98597I1097J-487D01*
G02X98962Y101250I366J162D01*
G01X102450D01*
X103450Y100250D01*
Y98650D01*
X94650Y89850D01*
Y86323D01*
X92500Y84173D01*
Y73000D01*
X90350Y70850D01*
X89814D01*
G02X89460Y71438I0J400D01*
G03X87340I-1060J562D01*
G02X86986Y70850I-353J-187D01*
G01X76950D01*
G37*
G36*
G01X85573Y144400D02*
X75936Y154037D01*
G02X76039Y154678I283J283D01*
G03X76686Y155937I-539J1072D01*
G02X77081Y156400I395J62D01*
G01X86827D01*
X92377Y150850D01*
X96312D01*
G02X96634Y150212I0J-400D01*
G03X98566I966J-712D01*
G02X98888Y150850I322J237D01*
G01X100112D01*
G02X100434Y150212I0J-400D01*
G03X100606Y148600I966J-712D01*
G02X100341Y147900I-265J-300D01*
G01X98727D01*
X97629Y146802D01*
X97551Y146799D01*
G03X96415Y144965I49J-1299D01*
G02X96050Y144400I-365J-165D01*
G01X85573D01*
G37*
G36*
G01X80700Y11500D02*
Y14103D01*
G02X81125Y14502I400J0D01*
G03X82082Y16514I75J1198D01*
G02Y16786I147J136D01*
G03X82119Y18371I-882J814D01*
G02Y18629I153J129D01*
G03X81125Y20598I-919J771D01*
G02X80700Y20997I-25J399D01*
G01Y45927D01*
X84973Y50200D01*
X89073D01*
X91600Y52727D01*
Y56527D01*
X94300Y59227D01*
Y72961D01*
X95950Y74611D01*
Y85077D01*
X96432Y85559D01*
G02X97115Y85276I283J-283D01*
G01Y67033D01*
X98933Y65215D01*
X125833D01*
X138015Y53033D01*
Y52119D01*
G02X137332Y51836I-400J0D01*
G01X125481Y63688D01*
X109651D01*
G03X107451Y62703I-901J-938D01*
G02X107098Y62291I-400J-14D01*
G03Y59709I152J-1291D01*
G02X107451Y59297I-47J-397D01*
G03Y59203I1299J-47D01*
G02X107098Y58791I-400J-14D01*
G03Y56209I152J-1291D01*
G02X107451Y55797I-47J-397D01*
G03Y55703I1299J-47D01*
G02X107098Y55291I-400J-14D01*
G03Y52709I152J-1291D01*
G02X107451Y52297I-47J-397D01*
G03Y52203I1299J-47D01*
G02X107098Y51791I-400J-14D01*
G03Y49209I152J-1291D01*
G02X107451Y48797I-47J-397D01*
G03Y48703I1299J-47D01*
G02X107098Y48291I-400J-14D01*
G03Y45709I152J-1291D01*
G02X107451Y45297I-47J-397D01*
G03Y45203I1299J-47D01*
G02X107098Y44791I-400J-14D01*
G03X106328Y42584I152J-1291D01*
G02X106345Y42039I-284J-282D01*
G03X108034Y42159I905J-789D01*
G02X108042Y42469I131J151D01*
G03X108098Y42514I-793J1031D01*
G01X108154Y42562D01*
X108458D01*
X111952Y39068D01*
X111958Y38994D01*
G03X112863Y37852I1297J98D01*
G01X112910Y37838D01*
X113086Y37662D01*
X112862Y37438D01*
X108151D01*
G03X107098Y35209I-901J-938D01*
G02X107451Y34797I-47J-397D01*
G03Y34703I1299J-47D01*
G02X107098Y34291I-400J-14D01*
G03Y31709I152J-1291D01*
G02X107451Y31297I-47J-397D01*
G03Y31203I1299J-47D01*
G02X107098Y30791I-400J-14D01*
G03X108151Y28562I152J-1291D01*
G01X108601D01*
G02X108989Y28065I0J-400D01*
G03Y27435I1261J-315D01*
G02X108601Y26938I-388J-97D01*
G01X108151D01*
G03Y25062I-901J-938D01*
G01X108601D01*
G02X108989Y24565I0J-400D01*
G03Y23935I1261J-315D01*
G02X108601Y23438I-388J-97D01*
G01X108151D01*
G03Y21562I-901J-938D01*
G01X108601D01*
G02X108989Y21065I0J-400D01*
G03Y20435I1261J-315D01*
G02X108601Y19938I-388J-97D01*
G01X108151D01*
G03Y18062I-901J-938D01*
G01X108601D01*
G02X108989Y17565I0J-400D01*
G03X108977Y17515I1261J-316D01*
G02X108448Y17221I-392J81D01*
G03X107986Y14700I-448J-1221D01*
G03X108475Y14562I489J800D01*
G01X112888D01*
X115528Y17202D01*
X117315D01*
X119454Y15062D01*
X131889D01*
X137713Y20887D01*
X137834Y20842D01*
G03X138017Y23143I421J1124D01*
G02X137538Y23535I-79J392D01*
G01Y23712D01*
X145688Y31862D01*
Y32286D01*
G03X144268Y34394I-938J901D01*
G02X143720Y34765I-148J371D01*
G01Y35239D01*
G03X141844I-938J901D01*
G01Y34765D01*
G02X141296Y34394I-400J0D01*
G03X139517Y33284I-482J-1207D01*
G01X139511Y33211D01*
X129516Y23215D01*
Y21778D01*
X127675Y19938D01*
X127496D01*
G02X127355Y20279I0J200D01*
G01X128141Y21065D01*
Y22751D01*
X137375Y31985D01*
X137409Y32000D01*
G03X136394Y34394I-532J1186D01*
G02X135846Y34765I-148J371D01*
G01Y35239D01*
G03X133970I-938J901D01*
G01Y34765D01*
G02X133422Y34394I-400J0D01*
G03X131643Y33284I-482J-1207D01*
G01X131637Y33211D01*
X130281Y31855D01*
G02X129940Y31996I-141J141D01*
G01Y32283D01*
X129988Y32339D01*
G03X128520Y34394I-986J848D01*
G02X127972Y34765I-148J371D01*
G01Y35239D01*
G03X126096I-938J901D01*
G01Y34765D01*
G02X125548Y34394I-400J0D01*
G03X123769Y33284I-482J-1207D01*
G01X123763Y33211D01*
X121490Y30938D01*
X121171D01*
G02X120888Y31620I0J400D01*
G01X121152Y31885D01*
X121226Y31890D01*
G03X119832Y33284I-98J1297D01*
G01X119826Y33211D01*
X119053Y32438D01*
X118855D01*
G02X118464Y32920I0J400D01*
G03X118173Y34039I-1273J267D01*
G02X118475Y34702I302J262D01*
G01X119048D01*
X119184Y34837D01*
X119258Y34843D01*
G03X118236Y37054I-98J1297D01*
G02X117669Y37053I-284J281D01*
G01X117504Y37217D01*
G02X117647Y37874I283J283D01*
G03X117289Y40389I-456J1218D01*
G01X117215Y40394D01*
X112230Y45380D01*
G02X112513Y46062I283J283D01*
G01X112832D01*
X119826Y39068D01*
X119832Y38994D01*
G03X121611Y37885I1297J98D01*
G02X122159Y37513I148J-371D01*
G01Y37040D01*
G03X124034I938J-901D01*
G01Y37513D01*
G02X124583Y37885I400J0D01*
G03X126051Y39940I482J1207D01*
G01X126003Y39996D01*
Y40283D01*
G02X126344Y40424I200J0D01*
G01X127700Y39068D01*
X127706Y38994D01*
G03X129485Y37885I1297J98D01*
G02X130033Y37513I148J-371D01*
G01Y37040D01*
G03X131908I938J-901D01*
G01Y37513D01*
G02X132457Y37885I400J0D01*
G03X133925Y39940I482J1207D01*
G01X133877Y39996D01*
Y40157D01*
G02X134218Y40298I200J0D01*
G01X135584Y38932D01*
X135595Y38870D01*
G03X137346Y37880I1281J222D01*
G02X137891Y37507I145J-373D01*
G01Y37040D01*
G03X139766I938J-901D01*
G01Y37520D01*
G02X140318Y37890I400J0D01*
G03X141949Y38458I495J1202D01*
G02X142581Y38546I349J-195D01*
G01X142587Y38540D01*
X143573D01*
G03X145988Y39492I1177J552D01*
G02X146368Y40015I381J123D01*
G01X146536D01*
X148750Y37802D01*
G02X148670Y37174I-283J-283D01*
G03X149831Y35074I609J-1034D01*
G02X150415Y34719I184J-355D01*
G01Y34633D01*
X152911Y32137D01*
X152845Y32007D01*
G03X154038Y30115I1157J-592D01*
G01X154124Y30118D01*
X154326Y29915D01*
X153979Y29568D01*
X153905Y29562D01*
G03X152711Y28113I98J-1297D01*
G02X152314Y27666I-397J-47D01*
G01X152099D01*
Y27893D01*
X152106Y27919D01*
G03X149952Y29203I-1253J347D01*
G01X149281D01*
X149154Y29076D01*
G02X148579Y29086I-283J283D01*
G03X148022Y27108I-876J-820D01*
G02X148267Y26970I53J-193D01*
G03X148506Y26565I902J258D01*
G01X149006Y26065D01*
G03X149334Y25852I663J663D01*
G02X149583Y25393I-143J-374D01*
G03X150755Y23819I1270J-277D01*
G01X150829Y23814D01*
X151284Y23358D01*
X151075Y23149D01*
X150980Y23160D01*
G03X149694Y21654I-127J-1193D01*
G02X149308Y21150I-386J-104D01*
G01X149248D01*
G02X148862Y21654I0J400D01*
G03X146738Y21252I-1159J312D01*
G01X146841Y21114D01*
X143927Y18200D01*
X142989D01*
G02X142593Y18654I0J400D01*
G03X140215I-1189J162D01*
G02X139818Y18200I-396J-54D01*
G01X135927D01*
X131627Y13900D01*
X108377D01*
X105977Y11500D01*
X80700D01*
G37*
G36*
G01X85000Y52000D02*
Y53980D01*
G02X85525Y54360I400J0D01*
G03X85089Y56384I375J1140D01*
G01X79900Y61573D01*
Y66712D01*
G02X80350Y67109I400J0D01*
G03X81517Y68937I150J1191D01*
G02X81856Y69550I339J212D01*
G01X90889D01*
X91817Y70478D01*
G02X92500Y70195I283J-283D01*
G01Y59973D01*
X89800Y57273D01*
Y53473D01*
X88327Y52000D01*
X85000D01*
G37*
G36*
G01X101073Y119200D02*
X79500Y140773D01*
Y146961D01*
G02X80183Y147244I400J0D01*
G01X84827Y142600D01*
X102475D01*
G02X102857Y142082I0J-400D01*
G03X103200Y140762I1243J-382D01*
G01Y134277D01*
X106398Y131079D01*
G02X106088Y130397I-283J-283D01*
G03X104921Y129826I-88J-1297D01*
G02X104307Y129766I-332J223D01*
G01X103502Y130571D01*
X103499Y130649D01*
G03X102151Y129301I-1299J-49D01*
G01X102229Y129298D01*
X107177Y124350D01*
X113377D01*
X114174Y123553D01*
G02X113891Y122870I-283J-283D01*
G01X109657D01*
X109082Y122295D01*
G02X108449Y122383I-283J283D01*
G03X106335Y122354I-1049J-583D01*
G02X105698Y122256I-355J185D01*
G01X105353Y122600D01*
X102438D01*
G03X102384Y120746I-938J-900D01*
G01X102441Y120800D01*
X102551D01*
G02X102938Y120300I0J-400D01*
G03Y119700I1162J-300D01*
G02X102551Y119200I-387J-100D01*
G01X101073D01*
G37*
G36*
G01X100164Y68185D02*
X100085Y68264D01*
Y76123D01*
G02X100689Y76467I400J0D01*
G03Y78533I611J1033D01*
G02X100085Y78877I-204J344D01*
G01Y85536D01*
X100690Y86140D01*
X111522D01*
X111536Y85956D01*
G03X111793Y85400I882J70D01*
G01X111888Y85305D01*
G02X111747Y84963I-141J-141D01*
G01X111169D01*
G03X110506Y84689I0J-938D01*
G01X110006Y84189D01*
G03X109950Y84128I663J-663D01*
G01X109945Y84121D01*
X109797Y83974D01*
X109082Y84689D01*
G03X108419Y84963I-663J-663D01*
G01X107669D01*
G03X107006Y84689I0J-938D01*
G01X106506Y84189D01*
G03X106450Y84128I663J-663D01*
G01X106445Y84121D01*
X106297Y83974D01*
X105307Y84963D01*
X104169D01*
G03X103506Y84689I0J-938D01*
G01X102731Y83914D01*
Y78637D01*
X103718Y77651D01*
X102731Y76664D01*
Y75526D01*
G03X103006Y74863I938J0D01*
G01X103718Y74151D01*
X102731Y73164D01*
Y72026D01*
G03X103006Y71363I938J0D01*
G01X103781Y70588D01*
X103911D01*
G02X104308Y70141I0J-400D01*
G03X106653Y70333I1192J-141D01*
G01X106645Y70360D01*
Y70588D01*
X107231D01*
Y69887D01*
X108280Y68838D01*
X126936D01*
X127247Y68527D01*
G02X127106Y68185I-141J-141D01*
G01X100164D01*
G37*
G36*
G01X102383Y89111D02*
G02X102058Y89744I0J400D01*
G03X101860Y91475I-1057J756D01*
G02Y91775I132J150D01*
G03X101884Y91796I-860J975D01*
G01X101941Y91850D01*
X102127D01*
X102577Y91400D01*
X115173D01*
X117800Y94027D01*
Y98827D01*
X117973Y99000D01*
X118518D01*
G02X118907Y98507I0J-400D01*
G03X121242I1167J-279D01*
G02X121631Y99000I389J93D01*
G01X121668D01*
G02X122057Y98507I0J-400D01*
G03X124391I1167J-279D01*
G02X124780Y99000I389J93D01*
G01X124831D01*
G02X125221Y98512I0J-400D01*
G03X127563I1171J-265D01*
G02X127953Y99000I390J88D01*
G01X127981D01*
G02X128371Y98512I0J-400D01*
G03X130712I1171J-265D01*
G02X131102Y99000I390J88D01*
G01X131116D01*
G02X131505Y98507I0J-400D01*
G03X133840I1167J-279D01*
G02X134229Y99000I389J93D01*
G01X134266D01*
G02X134655Y98507I0J-400D01*
G03X134698Y97808I1167J-279D01*
G01X134743Y97688D01*
X133232Y96176D01*
X133112Y96221D01*
G03X131567Y94677I-420J-1124D01*
G01X131612Y94557D01*
X130157Y93101D01*
X130033Y93151D01*
G03X129640Y93244I-492J-1204D01*
G01X129566Y93250D01*
X129110Y93705D01*
X129319Y93914D01*
X129414Y93904D01*
G03X128357Y94905I127J1193D01*
G02X127962Y94442I-395J-64D01*
G01X127956D01*
G02X127561Y94901I0J400D01*
G03X125187I-1187J178D01*
G02X124791Y94442I-396J-59D01*
G01X124354D01*
Y94674D01*
X124364Y94704D01*
G03X122100Y94658I-1140J375D01*
G01X122145Y94538D01*
X120849Y93242D01*
Y93006D01*
X120606D01*
X120567Y93024D01*
G03X120355Y90762I-492J-1095D01*
G02X120849Y90373I94J-389D01*
G01Y90335D01*
G02X120355Y89946I-400J0D01*
G03X118964Y89235I-281J-1167D01*
G01X118913Y89111D01*
X102383D01*
G37*
G36*
G01X103323Y93200D02*
X102873Y93650D01*
X101938D01*
G03X101428Y93978I-938J-900D01*
G02X101277Y94638I132J378D01*
G01X103088Y96449D01*
G02X103653Y96450I283J-283D01*
G03X105655Y97627I847J850D01*
G02X105955Y98127I385J109D01*
G03X106840Y99675I-255J1173D01*
G02X107220Y100200I380J125D01*
G01X115661D01*
G02X116000Y99587I0J-400D01*
G01Y94773D01*
X114427Y93200D01*
X103323D01*
G37*
G36*
G01X131876Y159112D02*
X130088Y160900D01*
X121873D01*
X120773Y162000D01*
X117477D01*
X117446Y161969D01*
G02X116810Y162064I-283J283D01*
G03X114812Y162249I-1060J-564D01*
G02X114188I-313J250D01*
G03X112059Y161350I-938J-749D01*
G02X111662Y160900I-397J-50D01*
G01X106488D01*
G02X106091Y161350I0J400D01*
G03X103709I-1191J150D01*
G02X103312Y160900I-397J-50D01*
G01X100139D01*
G02X99856Y161583I0J400D01*
G01X101373Y163100D01*
X103073D01*
X104323Y164350D01*
X125877D01*
X126127Y164100D01*
X127062D01*
G03X129185Y165535I938J900D01*
G02X129549Y166100I365J165D01*
G01X129659D01*
G02X130019Y165525I0J-400D01*
G03X132177I1079J-525D01*
G02X132537Y166100I360J175D01*
G01X141912D01*
G02X142309Y165650I0J-400D01*
G03X144289Y164595I1191J-150D01*
G02X144834Y164578I263J-301D01*
G03X146666I916J922D01*
G02X147211Y164595I282J-284D01*
G03Y166405I789J905D01*
G02X146666Y166422I-263J301D01*
G03X145799Y166799I-916J-922D01*
G01X145721Y166802D01*
X144623Y167900D01*
X139039D01*
G02X138756Y168583I0J400D01*
G01X139471Y169298D01*
X139549Y169301D01*
G03X140772Y170868I-49J1299D01*
G02X141164Y171350I391J82D01*
G01X145938D01*
G02X146329Y170862I0J-400D01*
G03X148671I1171J-262D01*
G02X149062Y171350I390J87D01*
G01X149938D01*
G02X150329Y170862I0J-400D01*
G03X152683Y170400I1171J-262D01*
G02X153361Y170616I394J-67D01*
G01X153821Y170156D01*
Y165310D01*
G03X153486Y163965I900J-938D01*
G02X153106Y163440I-380J-125D01*
G01X136696D01*
X132630Y159374D01*
X132557Y159367D01*
G03X132010Y159191I115J-1295D01*
G01X131876Y159112D01*
G37*
G36*
G01X131533Y117750D02*
Y117521D01*
X131525Y117493D01*
G03X132416Y115978I1150J-343D01*
G01X132473Y115966D01*
X134343Y114095D01*
Y113290D01*
X124890D01*
G02X124499Y113774I0J400D01*
G03X122151I-1174J251D01*
G02X121760Y113290I-391J-84D01*
G01X121424D01*
Y113524D01*
X121435Y113555D01*
G03X119115Y113754I-1135J391D01*
G02X118720Y113290I-395J-64D01*
G01X118617D01*
X116640Y111314D01*
G02X115981Y111462I-283J283D01*
G03X113863Y110378I-1131J-402D01*
G02X113534Y109750I-329J-227D01*
G01X112306D01*
X112299Y109943D01*
G03X109901I-1199J-43D01*
G01X109894Y109750D01*
X107173D01*
X106300Y110623D01*
Y115873D01*
X105456Y116717D01*
G02X105739Y117400I283J283D01*
G01X116773D01*
X117123Y117750D01*
X124713D01*
G02X125110Y117299I0J-400D01*
G03X127490I1190J-154D01*
G02X127887Y117750I397J51D01*
G01X128062D01*
G02X128459Y117300I0J-400D01*
G03X130841I1191J-150D01*
G02X131238Y117750I397J50D01*
G01X131533D01*
G37*
G36*
G01X125127Y141600D02*
X125913Y140814D01*
G02X125825Y140182I-283J-283D01*
G03X125295Y138696I586J-1047D01*
G02X124922Y138150I-372J-146D01*
G01X114611D01*
X113350Y136889D01*
Y131311D01*
X114828Y129833D01*
G02X114545Y129150I-283J-283D01*
G01X112881D01*
G02X112486Y129613I0J400D01*
G03X110282Y130435I-1185J187D01*
G02X109659Y130364I-339J212D01*
G01X105000Y135023D01*
Y140762D01*
G03X105398Y141634I-900J938D01*
G02X106081Y141896I399J-20D01*
G01X106377Y141600D01*
X125127D01*
G37*
G36*
G01X131129Y136850D02*
G02X131515Y136344I0J-400D01*
G03X133698Y135402I1157J-319D01*
G02X134322Y135478I342J-207D01*
G01X134450Y135350D01*
X134710D01*
G03X136760Y135125I1111J675D01*
G01X137148D01*
X137373Y135350D01*
X137978D01*
G03X139963I992J675D01*
G01X141128D01*
G03X143113I992J675D01*
G01X144150D01*
X144887Y134613D01*
G02X144771Y133966I-283J-283D01*
G03X146361Y132376I500J-1091D01*
G02X147008Y132492I364J-166D01*
G01X152200Y127300D01*
Y121900D01*
X150900Y120600D01*
X149608D01*
X149559Y120728D01*
G03X147320I-1119J-434D01*
G01X147271Y120600D01*
X146458D01*
X146409Y120728D01*
G03X144171I-1119J-434D01*
G01X144121Y120600D01*
X143309D01*
X143259Y120728D01*
G03X141021I-1119J-434D01*
G01X140972Y120600D01*
X139700D01*
X137775Y122525D01*
Y125138D01*
G02X138406Y125465I400J0D01*
G03X138170Y127209I691J981D01*
G02X137573Y127185I-309J254D01*
G01X136981Y127800D01*
X136294D01*
X136230Y127810D01*
G03X135412I-409J-1234D01*
G01X135382Y127800D01*
X130700D01*
X130276Y128224D01*
G02X130300Y128812I283J283D01*
G03X128322Y129744I-778J914D01*
G02X127922Y129350I-400J6D01*
G01X127573D01*
Y129563D01*
X127575Y129575D01*
G03X125184Y129744I-1191J150D01*
G02X124784Y129350I-400J6D01*
G01X117150D01*
X114650Y131850D01*
Y136350D01*
X115150Y136850D01*
X131129D01*
G37*
G36*
G01X125286Y108400D02*
Y108163D01*
X125272Y108128D01*
G03X125736Y106691I1120J-432D01*
G02X125800Y106073I-219J-335D01*
G01X124850Y105123D01*
G02X124236Y105182I-283J283D01*
G03X122311Y103752I-994J-673D01*
G02X122000Y103100I-310J-252D01*
G01X115639D01*
G02X115356Y103783I0J400D01*
G01X118655Y107082D01*
G02X119307Y106953I283J-283D01*
G03X121532Y107854I1108J462D01*
G02X121905Y108400I372J146D01*
G01X122292D01*
Y108163D01*
X122279Y108128D01*
G03X124579Y107925I1121J-428D01*
G02X124972Y108400I393J75D01*
G01X125286D01*
G37*
G36*
G01X120623Y122750D02*
X119473Y123900D01*
X118838D01*
G02X118441Y124350I0J400D01*
G03X118347Y124987I-1191J150D01*
G02X118712Y125550I366J162D01*
G01X126753D01*
X127070Y125232D01*
X126902Y125064D01*
X126868Y125049D01*
G03X126311Y123350I482J-1099D01*
G02X125964Y122750I-346J-200D01*
G01X124736D01*
G02X124352Y123263I0J400D01*
G03X122048I-1152J337D01*
G02X121664Y122750I-384J-112D01*
G01X120623D01*
G37*
G36*
G01X118228Y145276D02*
G03X117709Y146506I-1179J227D01*
G02X117646Y147123I220J334D01*
G01X118373Y147850D01*
X125327D01*
G03X126240Y147330I1045J773D01*
G02X126600Y146932I-41J-398D01*
G01Y144800D01*
X124384D01*
G02X124013Y145350I0J400D01*
G03X121787I-1113J450D01*
G02X121416Y144800I-371J-150D01*
G01X118621D01*
G02X118228Y145276I0J400D01*
G37*
G36*
G01X128700Y144800D02*
X127900Y145600D01*
Y149100D01*
X127000Y150000D01*
X125300D01*
X124900Y150400D01*
Y151800D01*
X125600Y152500D01*
X127951D01*
G02X128338Y152000I0J-400D01*
G03X130662I1162J-300D01*
G02X131049Y152500I387J100D01*
G01X134188D01*
G02X134579Y152012I0J-400D01*
G03X136921I1171J-262D01*
G02X137312Y152500I390J87D01*
G01X137405D01*
G02X137796Y152018I0J-400D01*
G03X139068Y150577I1175J-245D01*
G02X139500Y150178I32J-399D01*
G01Y149836D01*
X139276D01*
X139253Y149842D01*
G03X139067Y147479I-284J-1166D01*
G02X139500Y147081I33J-399D01*
G01Y145100D01*
X139200Y144800D01*
X137398D01*
G02X137004Y145268I0J400D01*
G03X134639I-1183J205D01*
G02X134245Y144800I-394J-68D01*
G01X128700D01*
G37*
G36*
G01X176600Y59427D02*
Y24873D01*
X174422Y22695D01*
G02X173830Y22725I-283J283D01*
G03X171741Y21654I-930J-759D01*
G02X171355Y21150I-386J-104D01*
G01X168146D01*
G02X167760Y21654I0J400D01*
G03X165442I-1159J312D01*
G02X165056Y21150I-386J-104D01*
G01X164996D01*
G02X164610Y21654I0J400D01*
G03X162292I-1159J312D01*
G02X161906Y21150I-386J-104D01*
G01X158697D01*
G02X158311Y21654I0J400D01*
G03X158331Y22188I-1159J312D01*
G02X158724Y22662I393J74D01*
G01X161263D01*
X162739Y24138D01*
X162871Y24065D01*
G03X164502Y25696I581J1050D01*
G01X164429Y25828D01*
X165888Y27288D01*
X166020Y27215D01*
G03X167651Y28846I581J1050D01*
G01X167578Y28978D01*
X169038Y30437D01*
X169170Y30364D01*
G03X170367Y32445I580J1050D01*
G02X170290Y33071I206J343D01*
G01X175412Y38193D01*
Y58914D01*
X166650Y67676D01*
G02X166824Y68345I283J283D01*
G03X165344Y69824I-324J1155D01*
G02X164676Y69650I-385J108D01*
G01X160438Y73888D01*
Y75583D01*
X148057Y87963D01*
X146830D01*
G02X146445Y88472I0J400D01*
G03X144847Y89913I-1155J326D01*
G01X144724Y89865D01*
X143207Y91382D01*
X143256Y91504D01*
G03X141697Y93063I-1115J443D01*
G01X141575Y93014D01*
X140051Y94538D01*
X140096Y94658D01*
G03X138552Y96203I-1124J420D01*
G01X138431Y96158D01*
X136902Y97688D01*
X136947Y97808D01*
G03X136990Y98507I-1124J420D01*
G02X137379Y99000I389J93D01*
G01X137430D01*
G02X137820Y98512I0J-400D01*
G03X140161I1171J-265D01*
G02X140551Y99000I390J88D01*
G01X140579D01*
G02X140970Y98512I0J-400D01*
G03X143311I1171J-265D01*
G02X143701Y99000I390J88D01*
G01X143729D01*
G02X144119Y98512I0J-400D01*
G03X146460I1171J-265D01*
G02X146851Y99000I390J88D01*
G01X146911D01*
G02X147306Y98536I0J-400D01*
G03X149675I1185J-192D01*
G02X150070Y99000I395J64D01*
G01X150516D01*
Y98766D01*
X150505Y98735D01*
G03X152825Y98536I1135J-391D01*
G02X153220Y99000I395J64D01*
G01X165715D01*
G02X166106Y98516I0J-400D01*
G03X168454I1174J-250D01*
G02X168845Y99000I391J83D01*
G01X172014D01*
G02X172406Y98516I0J-400D01*
G03X174753I1174J-250D01*
G02X175145Y99000I391J83D01*
G01X181439D01*
G02X181830Y98514I0J-400D01*
G03X183338Y97104I1172J-258D01*
G02X183850Y96720I112J-384D01*
G01Y93377D01*
X186160Y91067D01*
X188389D01*
G03X189689Y90718I938J900D01*
G02X190200Y90334I111J-384D01*
G01Y89865D01*
X189955D01*
X189914Y89884D01*
G03X189168Y87622I-514J-1084D01*
G02X189374Y86947I-77J-392D01*
G01X188827Y86400D01*
X182127D01*
X172600Y76873D01*
Y63427D01*
X176600Y59427D01*
G37*
G36*
G01X151439Y119300D02*
X152350Y120211D01*
X153862Y118700D01*
X157613D01*
X157812Y118899D01*
G02X158495Y118616I283J-283D01*
G01Y116500D01*
X146871D01*
G02X146476Y116961I0J400D01*
G03X144104I-1186J183D01*
G02X143708Y116500I-395J-61D01*
G01X143682D01*
G02X143287Y116962I0J400D01*
G03X140915I-1186J185D01*
G02X140520Y116500I-395J-62D01*
G01X140118D01*
Y116733D01*
X140129Y116764D01*
G03X137805Y116961I-1138J381D01*
G02X137409Y116500I-395J-61D01*
G01X137074D01*
Y116730D01*
X137083Y116759D01*
G03X136741Y118083I-1242J385D01*
G01Y119017D01*
X134235Y121524D01*
G02X134518Y122207I283J283D01*
G01X135340D01*
X135374Y122193D01*
G03X136172Y122149I467J1214D01*
G01X136283Y122179D01*
X139161Y119300D01*
X144618D01*
G03X145962I672J994D01*
G01X147767D01*
G03X149112I672J994D01*
G01X151439D01*
G37*
G36*
G01X156000Y171489D02*
G02X155317Y171206I-400J0D01*
G01X153373Y173150D01*
X144856D01*
G02X144517Y173763I0J400D01*
G03X142483I-1017J637D01*
G02X142144Y173150I-339J-212D01*
G01X136973D01*
G02X136626Y173750I0J400D01*
G03X136300Y175425I-1126J650D01*
G01Y183116D01*
G02X137047Y183315I400J0D01*
G03X143396Y185179I2953J1685D01*
G02X143795Y185600I399J21D01*
G01X146205D01*
G02X146604Y185179I0J-400D01*
G03X153396I3395J-179D01*
G02X153795Y185600I399J21D01*
G01X156205D01*
G02X156604Y185179I0J-400D01*
G03X158720Y181850I3395J-179D01*
G02X158853Y181196I-151J-371D01*
G01X156000Y178344D01*
Y175997D01*
G02X155575Y175598I-400J0D01*
G03Y173202I-75J-1198D01*
G02X156000Y172803I25J-399D01*
G01Y171489D01*
G37*
G36*
G01X144564Y42985D02*
X140985Y46562D01*
Y53823D01*
G02X141668Y54106I400J0D01*
G01X145228Y50546D01*
Y49287D01*
X146691Y47824D01*
X146628Y47696D01*
G03X147830Y45970I1076J-532D01*
G01X147926Y45980D01*
X148134Y45771D01*
X147679Y45316D01*
X147605Y45310D01*
G03X146495Y43533I98J-1297D01*
G02X146123Y42985I-372J-148D01*
G01X144564D01*
G37*
G36*
G01X156736Y136417D02*
G03X159011Y135650I1134J-392D01*
G02X159674Y135808I380J-125D01*
G01X159756Y135726D01*
X159904Y135578D01*
X159919Y135544D01*
G03X160537Y134925I1099J481D01*
G01X160572Y134910D01*
X160803Y134679D01*
G02X160645Y134016I-283J-283D01*
G03X160947Y131677I373J-1141D01*
G02X161135Y131478I-12J-200D01*
G01Y130835D01*
X160962Y130811D01*
G03Y128432I160J-1189D01*
G01X161135Y128409D01*
Y127955D01*
G02X160944Y127755I-200J0D01*
G03Y125357I56J-1199D01*
G02X161135Y125158I-9J-200D01*
G01Y124060D01*
X158442Y121367D01*
X158320Y121414D01*
G03X156691Y120374I-432J-1120D01*
G02X156292Y120000I-399J26D01*
G01X154400D01*
X153300Y121099D01*
Y127800D01*
X152461Y128639D01*
G02X152455Y128916I141J141D01*
G03X150759Y130611I-886J810D01*
G01X150618Y130482D01*
X149176Y131924D01*
X149305Y132065D01*
G03X147610Y133761I-886J810D01*
G01X147468Y133632D01*
X147250Y133850D01*
Y136700D01*
X153142D01*
G02X153537Y136231I0J-400D01*
G03X155853Y136417I1182J-206D01*
G02X156231Y136947I378J131D01*
G01X156358D01*
G02X156736Y136417I0J-400D01*
G37*
G36*
G01X163381Y130781D02*
G02X164064Y131063I400J0D01*
G01X164627Y130500D01*
X165764D01*
G02X166153Y130006I0J-400D01*
G03X168487I1167J-281D01*
G02X168876Y130500I389J93D01*
G01X170827D01*
X171300Y130027D01*
Y128117D01*
G02X170792Y127732I-400J0D01*
G03X171020Y125510I-323J-1156D01*
G01X171150Y125577D01*
X172727Y124000D01*
X173310D01*
Y122211D01*
X172128Y121030D01*
X172033Y120935D01*
G02X171420Y120992I-283J283D01*
G03X169235Y120205I-990J-678D01*
G02X168836Y119769I-398J-36D01*
G01X166100D01*
X163341Y117011D01*
Y116932D01*
X163223Y116814D01*
X162636D01*
G02X162237Y117196I0J400D01*
G03X160406Y118165I-1199J-52D01*
G02X159795Y118505I-211J340D01*
G01Y120596D01*
X163381Y124182D01*
Y130781D01*
G37*
G36*
G01X155539Y157400D02*
G02X155256Y158083I0J400D01*
G01X155373Y158200D01*
X157073D01*
X159973Y161100D01*
X162373D01*
X162410Y161136D01*
G02X163082Y160945I283J-283D01*
G03X164000Y160047I1168J275D01*
G02X164200Y159373I-83J-391D01*
G01X162227Y157400D01*
X155539D01*
G37*
G36*
G01X161439Y162900D02*
G02X161156Y163583I0J400D01*
G01X161900Y164327D01*
Y173341D01*
G02X162600Y173606I400J0D01*
G03X163650Y173209I900J794D01*
G02X164100Y172812I50J-397D01*
G01Y165373D01*
X161627Y162900D01*
X161439D01*
G37*
G36*
G01X158900Y164839D02*
Y176627D01*
X162373Y180100D01*
X162861D01*
G02X163144Y179417I0J-400D01*
G01X160100Y176373D01*
Y165073D01*
X159583Y164556D01*
G02X158900Y164839I-283J283D01*
G37*
G36*
G01X168859Y116500D02*
G02X168464Y116966I0J400D01*
G03X168270Y117843I-1184J198D01*
G02X168600Y118469I330J226D01*
G01X171405D01*
X172290Y119353D01*
G02X172824Y119381I283J-283D01*
G03X174512Y121069I755J933D01*
G02X174541Y121603I311J252D01*
G01X174610Y121673D01*
Y124000D01*
X200408D01*
G02X200806Y123558I0J-400D01*
G03X200804Y123333I1194J-125D01*
G02X200405Y122900I-399J-33D01*
G01X197827D01*
X191427Y116500D01*
X190906D01*
G02X190511Y116966I0J400D01*
G03X188144I-1184J198D01*
G02X187749Y116500I-394J-66D01*
G01X187299D01*
Y116734D01*
X187310Y116766D01*
G03X184994Y116966I-1132J398D01*
G02X184600Y116500I-394J-66D01*
G01X175202D01*
G02X174806Y116957I0J400D01*
G03X172430I-1188J169D01*
G02X172034Y116500I-396J-56D01*
G01X168859D01*
G37*
G36*
G01X164656Y154983D02*
X169900Y160227D01*
Y162737D01*
G02X170333Y163136I400J0D01*
G03Y165528I97J1196D01*
G02X169900Y165927I-32J399D01*
G01Y174377D01*
X171623Y176100D01*
X221395D01*
G02X221678Y175417I0J-400D01*
G01X221500Y175239D01*
Y173800D01*
X217777D01*
X216100Y172123D01*
Y171846D01*
X215873D01*
X215846Y171853D01*
G03X215549Y171899I-347J-1253D01*
G01X215471Y171902D01*
X213573Y173800D01*
X201188D01*
G02X200791Y174250I0J400D01*
G03X198409I-1191J150D01*
G02X198012Y173800I-397J-50D01*
G01X197527D01*
X196327Y172600D01*
X181527D01*
X174298Y165371D01*
X174168Y165438D01*
G03X173956Y163219I-550J-1067D01*
G02X174468Y162836I112J-384D01*
G01Y162758D01*
G02X173956Y162374I-400J0D01*
G03Y160070I-337J-1152D01*
G02X174468Y159686I112J-384D01*
G01Y150157D01*
G02X173956Y149774I-400J0D01*
G03X173455Y149811I-338J-1152D01*
G02X173000Y150207I-54J396D01*
G01Y153173D01*
X171873Y154300D01*
X171604D01*
Y154531D01*
X171614Y154560D01*
G03X169281Y154756I-1144J362D01*
G02X168885Y154300I-396J-56D01*
G01X164939D01*
G02X164656Y154983I0J400D01*
G37*
G36*
G01X166900Y160739D02*
Y175377D01*
X168623Y177100D01*
X169111D01*
G02X169394Y176417I0J-400D01*
G01X168100Y175123D01*
Y160973D01*
X167583Y160456D01*
G02X166900Y160739I-283J283D01*
G37*
G36*
G01X178186Y14083D02*
X180683Y16580D01*
X186853D01*
X188417Y18144D01*
G02X189100Y17861I283J-283D01*
G01Y15273D01*
X188787Y14960D01*
X188629Y15118D01*
X188617Y15137D01*
G03X186521Y13975I-1017J-637D01*
G02X186161Y13400I-360J-175D01*
G01X178469D01*
G02X178186Y14083I0J400D01*
G37*
G36*
G01X188853Y34471D02*
G02X188248Y34425I-322J237D01*
G01X181400Y41273D01*
Y58327D01*
X185373Y62300D01*
X193961D01*
G02X194244Y61617I0J-400D01*
G01X190000Y57373D01*
Y52734D01*
G02X189450Y52363I-400J0D01*
G03X188360Y50234I-450J-1113D01*
G02X188460Y49647I-213J-338D01*
G03X189550Y47709I939J-747D01*
G02X190000Y47312I50J-397D01*
G01Y46234D01*
G02X189450Y45863I-400J0D01*
G03X188146Y43906I-450J-1113D01*
G02Y43344I-284J-281D01*
G03X188251Y41562I854J-844D01*
G02Y40938I-250J-312D01*
G03X189346Y38851I749J-938D01*
G01X189460Y38885D01*
X189686Y38659D01*
X189315Y38288D01*
X189255Y38277D01*
G03X189995Y35798I245J-1277D01*
G02X190511Y35596I152J-370D01*
G03X191073Y35021I1089J504D01*
G01X191104Y35007D01*
X191269Y34842D01*
X191027Y34600D01*
X190841D01*
X190784Y34654D01*
G03X188853Y34471I-884J-954D01*
G37*
G36*
G01X179400Y60756D02*
Y60873D01*
X175300Y64973D01*
Y66420D01*
G02X175763Y66815I400J0D01*
G03Y69185I190J1185D01*
G02X175300Y69580I-63J395D01*
G01Y75527D01*
X183073Y83300D01*
X189573D01*
X192900Y86627D01*
Y91627D01*
X195000Y93727D01*
Y93983D01*
X195231D01*
X195261Y93974D01*
G03X196207Y94066I366J1143D01*
G02X196800Y93716I193J-350D01*
G01Y93561D01*
X197752Y92609D01*
X197692Y92482D01*
G03X199096Y90811I1084J-514D01*
G01X199123Y90818D01*
X199350D01*
Y90408D01*
G02X198906Y90011I-400J0D01*
G03X197736Y88219I-130J-1193D01*
G01X197813Y88086D01*
X196350Y86623D01*
Y85373D01*
X195877Y84900D01*
X194627D01*
X193100Y83373D01*
Y69627D01*
X194536Y68190D01*
G02X194815Y67635I-86J-391D01*
G03X194701Y67149I1185J-535D01*
G01X194698Y67071D01*
X192627Y65000D01*
X184123D01*
G02X183533Y65112I-246J315D01*
G03X181750Y65437I-1033J-612D01*
G02X181250I-250J312D01*
G03X179750I-750J-937D01*
G02X179250I-250J312D01*
G03Y63563I-750J-937D01*
G02X179750I250J-312D01*
G03X181250I750J937D01*
G02X181750I250J-312D01*
G03X181888Y63467I750J937D01*
G02X181967Y62840I-204J-344D01*
G01X179742Y60615D01*
G02X179400Y60756I-141J141D01*
G37*
G36*
G01X177902Y129100D02*
Y129331D01*
X177912Y129361D01*
G03X176376Y130860I-1143J365D01*
G01X176258Y130819D01*
X174712Y132365D01*
X174753Y132483D01*
G03X174807Y133044I-1134J392D01*
G02X175203Y133500I396J56D01*
G01X175634D01*
Y133269D01*
X175625Y133239D01*
G03X177957Y133044I1144J-364D01*
G02X178353Y133500I396J56D01*
G01X178784D01*
Y133269D01*
X178774Y133239D01*
G03X181106Y133044I1144J-364D01*
G02X181502Y133500I396J56D01*
G01X181829D01*
Y133271D01*
X181821Y133243D01*
G03X183968Y133813I1247J-368D01*
G01Y134105D01*
X183667Y134407D01*
G02X183729Y135023I283J283D01*
G03X184234Y136306I-661J1002D01*
G02X184623Y136800I389J94D01*
G01X187811D01*
G02X188200Y136306I0J-400D01*
G03X190534I1167J-281D01*
G02X190922Y136800I389J94D01*
G01X190961D01*
G02X191350Y136306I0J-400D01*
G03X192654Y134832I1167J-281D01*
G02X193100Y134435I46J-397D01*
G01Y134420D01*
G02X192644Y134024I-400J0D01*
G03X192867Y131701I-167J-1189D01*
G01X192986Y131741D01*
X194944Y129783D01*
G02X194661Y129100I-283J-283D01*
G01X194101D01*
G02X193705Y129557I0J400D01*
G03X191328I-1188J169D01*
G02X190932Y129100I-396J-56D01*
G01X190501D01*
Y129331D01*
X190510Y129361D01*
G03X188179Y129557I-1143J365D01*
G02X187783Y129100I-396J-56D01*
G01X181502D01*
G02X181106Y129557I0J400D01*
G03X178730I-1188J169D01*
G02X178334Y129100I-396J-56D01*
G01X177902D01*
G37*
G36*
G01X195088Y33000D02*
G02X194691Y33450I0J400D01*
G03X194026Y34679I-1191J150D01*
G01X193996Y34693D01*
X193831Y34858D01*
X194210Y35237D01*
X194351Y35116D01*
G03X195978Y37142I849J984D01*
G02X195913Y37721I239J320D01*
G03X194400Y39540I-913J779D01*
G02X193800Y39886I-200J346D01*
G01Y53941D01*
G02X194500Y54206I400J0D01*
G03X196375Y54300I900J794D01*
G02X197025I325J-233D01*
G03X198844Y54147I975J700D01*
G02X199406I281J-284D01*
G03X201097Y54149I844J854D01*
G02X201684Y54124I282J-284D01*
G03X201753Y55751I916J776D01*
G02X201166Y55776I-282J284D01*
G03X199406Y55854I-916J-776D01*
G02X198844I-281J284D01*
G03X198700Y55975I-844J-854D01*
G02Y56625I233J325D01*
G03X197300I-700J975D01*
G02Y55975I-233J-325D01*
G03X197025Y55700I700J-975D01*
G02X196375I-325J233D01*
G03X194200Y55029I-975J-700D01*
G01X194196Y54833D01*
X193800D01*
Y55827D01*
X198873Y60900D01*
X215461D01*
G02X215744Y60217I0J-400D01*
G01X214300Y58773D01*
Y42427D01*
X214947Y41781D01*
G02X214898Y41173I-283J-283D01*
G03X214726Y39378I702J-973D01*
G02X214740Y39120I-146J-137D01*
G03X215053Y37389I960J-721D01*
G02X215124Y37132I-108J-168D01*
G03X215365Y35738I1076J-532D01*
G02Y35162I-278J-288D01*
G03X215153Y34887I835J-862D01*
G02X214604Y34738I-349J196D01*
G03X214000Y34900I-603J-1038D01*
G02X213800Y35100I0J200D01*
G01Y36373D01*
X212373Y37800D01*
X210227D01*
X209160Y36733D01*
G02X208533Y36812I-283J283D01*
G03X206312Y36372I-1033J-612D01*
G01X206287Y36200D01*
X204370D01*
X204321Y36329D01*
G03X202160Y35300I-1121J-429D01*
G02X201814Y34700I-346J-200D01*
G01X200420D01*
G02X200040Y35225I0J400D01*
G03X197704Y35506I-1140J375D01*
G02X197374Y35080I-399J-31D01*
G03X196336Y33494I226J-1280D01*
G02X195948Y33000I-389J-94D01*
G01X195088D01*
G37*
G36*
G01X189457Y99460D02*
G03X189120Y99448I-129J-1193D01*
G02X188650Y99842I-69J394D01*
G01Y102197D01*
X187119Y103728D01*
G03X187379Y104725I-919J772D01*
G02X187772Y105200I393J75D01*
G01X199973D01*
X200558Y105785D01*
G02X200900Y105644I141J-141D01*
G01Y105173D01*
X199627Y103900D01*
X191127D01*
X189900Y102673D01*
Y99857D01*
G02X189457Y99460I-400J0D01*
G37*
G36*
G01X212700Y83700D02*
X210500Y85900D01*
X204900D01*
X204166Y86634D01*
X205046Y87516D01*
X205125Y87518D01*
G03X204100Y89677I-49J1299D01*
G02X203400Y89942I-300J264D01*
G01Y92500D01*
X202650Y93250D01*
X202139D01*
X202124Y93252D01*
G03X201728I-198J-1285D01*
G01X201713Y93250D01*
X198950D01*
X198100Y94100D01*
Y96690D01*
G02X198569Y97084I400J0D01*
G03Y99449I207J1182D01*
G02X198100Y99843I-69J394D01*
G01Y100258D01*
X198329D01*
X198357Y100250D01*
G03X199900Y101400I343J1150D01*
G02X200300Y101800I400J0D01*
G01X200614D01*
Y101586D01*
X200612Y101571D01*
G03X202861Y101961I1188J-171D01*
G01X202792Y102092D01*
X204308Y103608D01*
X204439Y103539D01*
G03X206200Y104600I561J1061D01*
G02X206600Y105000I400J0D01*
G01X207603D01*
G02X208002Y104625I0J-400D01*
G03X210398I1198J75D01*
G02X210797Y105000I399J-25D01*
G01X217527D01*
X220100Y102427D01*
Y88227D01*
X220100Y85800D01*
X218000Y83700D01*
X212700D01*
G37*
G36*
G01X187384Y126294D02*
G03X187393Y126819I-1167J282D01*
G02X187784Y127300I392J81D01*
G01X200336D01*
G02X200723Y126799I0J-400D01*
G03X200705Y126274I1161J-304D01*
G02X200312Y125800I-393J-74D01*
G01X187773D01*
G02X187384Y126294I0J400D01*
G37*
G36*
G01X191500Y148000D02*
X191100Y148400D01*
Y153027D01*
X191700Y153627D01*
Y153865D01*
X191947D01*
X191988Y153845D01*
G03X192204Y156081I528J1078D01*
G02X191700Y156468I-104J386D01*
G01Y156627D01*
X196673Y161600D01*
X207300D01*
X211700Y166000D01*
X216238D01*
G02X216528Y165325I0J-400D01*
G03X218272I872J-825D01*
G02X218494Y165994I290J275D01*
G01X222101Y169601D01*
G02X222646Y169620I283J-283D01*
G03X224799Y170552I854J981D01*
G01X224802Y170631D01*
X224999Y170828D01*
X225198Y170629D01*
X225201Y170551D01*
G03X226549Y171899I1299J49D01*
G01X226471Y171902D01*
X224573Y173800D01*
X222800D01*
Y174700D01*
X224200Y176100D01*
X231300D01*
X232300Y175100D01*
Y172900D01*
X231501Y172101D01*
X231468Y172086D01*
G03X231000Y170069I532J-1186D01*
G01Y159300D01*
X228925Y157225D01*
G02X228332Y157256I-283J283D01*
G03X226228Y156757I-932J-756D01*
G01X226193Y156600D01*
X218607D01*
X218572Y156757D01*
G03X216228I-1172J-257D01*
G01X216193Y156600D01*
X216000D01*
X214200Y154800D01*
X209650D01*
G02X209450Y155000I0J200D01*
G03X207050I-1200J0D01*
G02X206850Y154800I-200J0D01*
G01X205873D01*
X203073Y157600D01*
X203109Y157715D01*
G03X200857Y157606I-1146J357D01*
G01X200909Y157482D01*
X199403Y155976D01*
X199279Y156027D01*
G03X198288Y153842I-463J-1107D01*
G01X198400Y153787D01*
Y152906D01*
X198288Y152851D01*
G03X197633Y151568I528J-1078D01*
G02X197239Y151100I-394J-68D01*
G01X196784D01*
Y151335D01*
X196796Y151368D01*
G03X194536Y151370I-1130J405D01*
G01X194578Y151251D01*
X193200Y149873D01*
Y148373D01*
X192827Y148000D01*
X191500D01*
G37*
G36*
G01X208336Y27906D02*
G03X209870Y26328I1264J-306D01*
G01X209976Y26351D01*
X212500Y23827D01*
Y23413D01*
X212246D01*
X212200Y23440D01*
G03X211975Y21260I-600J-1040D01*
G02X212500Y20880I125J-380D01*
G01Y20473D01*
X210900Y18873D01*
Y15886D01*
G02X210300Y15540I-400J0D01*
G03Y13460I-600J-1040D01*
G02X210900Y13114I200J-346D01*
G01Y11500D01*
X199978D01*
G02X199695Y12183I0J400D01*
G01X205840Y18327D01*
Y26166D01*
X205985Y26312D01*
X206045Y26323D01*
G03X207064Y27906I-245J1277D01*
G02X207452Y28400I389J94D01*
G01X207948D01*
G02X208336Y27906I0J-400D01*
G37*
G36*
G01X200139Y62700D02*
G02X199856Y63383I0J400D01*
G01X202500Y66027D01*
Y66551D01*
X202816D01*
X202873Y66451D01*
G03X204938Y66200I1127J649D01*
G01X217727D01*
X217949Y65978D01*
G02X217698Y65296I-283J-283D01*
G03X216500Y63962I102J-1296D01*
G01X216503Y63876D01*
X215327Y62700D01*
X200139D01*
G37*
G36*
G01X209520Y70000D02*
G02X209140Y70525I0J400D01*
G03X207400Y71940I-1140J375D01*
G02X206800Y72286I-200J346D01*
G01Y78917D01*
X206378Y79340D01*
X206375Y79418D01*
G03X204865Y80652I-1299J-49D01*
G02X204400Y81047I-65J395D01*
G01Y81388D01*
X204637D01*
X204671Y81375D01*
G03X206259Y82799I426J1122D01*
G02X206646Y83300I387J101D01*
G01X206671D01*
G02X207060Y82804I0J-400D01*
G03X209424Y82458I1166J-286D01*
G02X210106Y82721I399J-20D01*
G01X211527Y81300D01*
X215851D01*
G02X216238Y80800I0J-400D01*
G03X218484Y81014I1162J-300D01*
G01X218465Y81055D01*
Y81300D01*
X219100D01*
Y70000D01*
X209520D01*
G37*
G36*
G01X209073Y107300D02*
X203073Y113300D01*
X200227D01*
X199983Y113056D01*
X199745Y113294D01*
X199800Y113419D01*
G03X199862Y114200I-1100J481D01*
G02X200249Y114700I387J100D01*
G01X207034D01*
X208196Y115862D01*
X208274Y115865D01*
G03X209415Y116641I-49J1299D01*
G02X210064Y116763I366J-161D01*
G01X211227Y115600D01*
X216462D01*
G03X218165Y115448I938J900D01*
G02X218800Y115125I235J-324D01*
G01Y113749D01*
G02X218150Y113437I-400J0D01*
G03Y111563I-750J-937D01*
G02X218800Y111251I250J-312D01*
G01Y109749D01*
G02X218150Y109437I-400J0D01*
G03X216360Y107900I-750J-937D01*
G02X216014Y107300I-346J-200D01*
G01X209073D01*
G37*
G36*
G01X220104Y149402D02*
G03X221311Y148717I1146J614D01*
G01X221399Y148721D01*
X222100Y148020D01*
Y142140D01*
G02X221594Y141754I-400J0D01*
G03X221382Y141794I-344J-1254D01*
G02X221029Y142264I40J398D01*
G03X218866Y143454I-1279J236D01*
G01X218809Y143400D01*
X218473D01*
G02X218320Y143729I0J200D01*
G03X216252Y144852I-920J771D01*
G02X215587Y144686I-382J117D01*
G01X212373Y147900D01*
X206682D01*
G02X206291Y148381I0J400D01*
G03X206297Y148831I-1176J242D01*
G02X206691Y149300I394J69D01*
G01X215851D01*
G02X216238Y148800I0J-400D01*
G03X218562I1162J-300D01*
G02X218949Y149300I387J100D01*
G01X219273D01*
X219469Y149496D01*
G02X220104Y149402I283J-283D01*
G37*
G36*
G01X222200Y500D02*
X221949Y750D01*
X222112Y913D01*
X222139Y928D01*
G03X221930Y9176I-2139J4072D01*
G02X221798Y9804I168J363D01*
G03X221926Y9978I-898J796D01*
G02X222564Y10040I342J-207D01*
G03X222424Y11472I886J810D01*
G02X221786Y11410I-342J207D01*
G03X220000Y11394I-886J-809D01*
G02X219300Y11659I-300J265D01*
G01Y22973D01*
X218956Y23317D01*
G02X219239Y24000I283J283D01*
G01X223650D01*
Y22988D01*
G03X225597Y22935I950J-887D01*
G01X225550Y22990D01*
Y23406D01*
X229917Y27773D01*
G02X230600Y27490I283J-283D01*
G01Y23600D01*
X236700Y17500D01*
X242100D01*
X243800Y15800D01*
Y8245D01*
G02X243111Y7969I-400J0D01*
G03X237687Y1375I-3111J-2969D01*
G02X237755Y755I-215J-337D01*
G01X237500Y500D01*
X232298D01*
G02X232103Y1249I0J400D01*
G03X227897I-2103J3751D01*
G02X227702Y500I-196J-349D01*
G01X222200D01*
G37*
G36*
G01X216049Y7356D02*
G02X215422Y7278I-344J205D01*
G01X214900Y7800D01*
Y9273D01*
X212700Y11473D01*
Y18127D01*
X214300Y19727D01*
Y24573D01*
X212720Y26153D01*
X212943Y26377D01*
X213055Y26346D01*
G03X213351Y26301I345J1254D01*
G01X213429Y26298D01*
X217500Y22227D01*
Y8862D01*
G03X216049Y7356I2500J-3861D01*
G37*
G36*
G01X234600Y102295D02*
G02X234045Y101927I-400J0D01*
G03X233445Y102013I-465J-1106D01*
G02X233000Y102410I-45J397D01*
G01Y106873D01*
X230000Y109873D01*
Y125873D01*
X228573Y127300D01*
X228380D01*
G02X228240Y127643I0J200D01*
G03X226204Y128600I-840J857D01*
G02X225522Y128351I-399J33D01*
G01X220150Y133723D01*
Y135561D01*
G02X220725Y135921I400J0D01*
G03X222170Y137771I525J1079D01*
G02X222323Y138100I153J129D01*
G01X222373D01*
X223900Y139627D01*
Y148766D01*
X222548Y150118D01*
X222539Y150186D01*
G03X222469Y150468I-1289J-170D01*
G01X222424Y150588D01*
X222656Y150820D01*
X224377Y149100D01*
X225812D01*
G02X226209Y148650I0J-400D01*
G03X228550Y148843I1191J-150D01*
G01X228542Y148871D01*
Y149100D01*
X228959D01*
X231333Y146725D01*
X231348Y146698D01*
G03X231831Y146185I1153J602D01*
G02X231996Y145691I-206J-343D01*
G03X234118Y144279I1204J-491D01*
G02X234800Y143995I282J-283D01*
G01Y110607D01*
X234640Y110574D01*
G03X234621Y108030I260J-1274D01*
G01X234678Y108017D01*
X234861Y107835D01*
X234600Y107573D01*
Y102295D01*
G37*
G36*
G01X239309Y36200D02*
G02X239027Y36883I0J400D01*
G01X239450Y37306D01*
Y69994D01*
X239285Y70159D01*
G02X239427Y70500I141J141D01*
G01X265500D01*
X270600Y65400D01*
Y39300D01*
X267500Y36200D01*
X239309D01*
G37*
G36*
G01X268849Y83100D02*
G02X268485Y83665I0J400D01*
G03X268384Y84918I-1185J535D01*
G02X268478Y85459I334J221D01*
G03X266558Y87121I-778J1041D01*
G01X266544Y87096D01*
X265833Y86385D01*
X259167D01*
X257567Y87985D01*
X249964D01*
X248789Y89160D01*
X248830Y89278D01*
G03X246714Y90651I-1230J422D01*
G02X246196Y90628I-273J293D01*
G03X245370Y88300I-796J-1028D01*
G01X245450Y88298D01*
X246765Y86983D01*
G02X246482Y86300I-283J-283D01*
G01X238527D01*
G02X238385Y86641I0J200D01*
G01X238540Y86796D01*
Y90758D01*
G02X239230Y91033I400J0D01*
G03X240894Y92760I870J827D01*
G02Y93360I265J300D01*
G03X241222Y94686I-794J900D01*
G02X241522Y95221I374J142D01*
G03X242094Y97300I-222J1179D01*
G02Y97900I265J300D01*
G03X241604Y99961I-794J900D01*
G02X241354Y100539I101J387D01*
G03X241094Y102013I-1054J573D01*
G02Y102613I265J300D01*
G03X241491Y103364I-794J900D01*
G02X241941Y103710I397J-50D01*
G03X242894Y105800I159J1190D01*
G02Y106400I265J300D01*
G03X241306I-794J900D01*
G02Y105800I-265J-300D01*
G03X240909Y105049I794J-900D01*
G02X240459Y104702I-397J50D01*
G03X240188Y104708I-159J-1190D01*
G02X239750Y105106I-37J398D01*
G01Y107994D01*
X238850Y108894D01*
Y109344D01*
X239076D01*
X239100Y109338D01*
G03X240150Y109563I300J1162D01*
G02X240650I250J-312D01*
G03X242150I750J937D01*
G02X242650I250J-312D01*
G03X244248Y109650I750J937D01*
G02X244898Y109525I283J-283D01*
G03X245152Y110850I1102J475D01*
G02X244502Y110975I-283J283D01*
G03X242650Y111437I-1102J-475D01*
G02X242150I-250J312D01*
G03X240650I-750J-937D01*
G02X240150I-250J312D01*
G03X239288Y111695I-750J-937D01*
G02X238850Y112093I-37J398D01*
G01Y161306D01*
X241294Y163750D01*
X248894D01*
X250822Y165678D01*
X252100Y164400D01*
Y153377D01*
X260627Y144850D01*
X267562D01*
G03Y146650I938J900D01*
G01X261373D01*
X253900Y154123D01*
Y163950D01*
X262250D01*
X270800Y155400D01*
Y105500D01*
X267400Y102100D01*
Y95800D01*
X271800Y91400D01*
Y89672D01*
G02X271325Y89279I-400J0D01*
G03Y86921I-225J-1179D01*
G02X271800Y86528I75J-393D01*
G01Y86472D01*
G02X271325Y86079I-400J0D01*
G03X270386Y83935I-225J-1179D01*
G02X270431Y83331I-238J-322D01*
G01X270200Y83100D01*
X268849D01*
G37*
%LPC*%
G75*
G36*
G01X112906Y175896D02*
G03X112344I-281J-284D01*
G02Y177604I-844J854D01*
G03X112906I281J284D01*
G02Y175896I844J-853D01*
G37*
G36*
G01X-22232Y14076D02*
G02X-22711Y12353I532J-1076D01*
G03X-22968Y12424I-168J-108D01*
G02X-24314Y14382I-532J1076D01*
G03X-24289Y14944I-271J294D01*
G02X-24235Y16612I889J806D01*
G03Y17188I-278J288D01*
G02X-24290Y18855I835J862D01*
G03X-24303Y19405I-297J268D01*
G02X-22548Y21042I852J845D01*
G03X-22270Y21021I150J132D01*
G02X-20390Y20557I770J-921D01*
G03X-19790Y20382I370J152D01*
G02X-20210Y18943I690J-982D01*
G03X-20810Y19118I-370J-152D01*
G02X-22260Y19171I-690J982D01*
G03X-22532Y18878I-127J-155D01*
G02X-22309Y18550I-868J-828D01*
G03X-21759Y18362I364J167D01*
G02X-21651Y16188I559J-1062D01*
G03X-22201Y15800I-150J-371D01*
G02X-22586Y14868I-1199J-50D01*
G03X-22611Y14306I271J-294D01*
G02X-22489Y14147I-889J-806D01*
G03X-22232Y14076I168J108D01*
G37*
G36*
G01X-13815Y13492D02*
G02X-14685Y14458I-1185J-192D01*
G03X-14185Y14908I105J386D01*
G02X-12686Y16258I1185J192D01*
G03X-12186Y16583I105J386D01*
G02X-11314Y15242I1186J-183D01*
G03X-11814Y14917I-105J-386D01*
G02X-13315Y13942I-1186J183D01*
G03X-13815Y13492I-105J-386D01*
G37*
G36*
G01X-29063Y54001D02*
G02X-30937Y55500I-938J749D01*
G03Y56000I-312J250D01*
G02X-29063Y57499I937J750D01*
G03X-28438I312J250D01*
G02X-26562I937J-749D01*
G03X-25938I312J250D01*
G02X-24063Y56000I938J-749D01*
G03Y55500I312J-250D01*
G02X-25938Y54001I-937J-750D01*
G03X-26562I-312J-250D01*
G02X-28438I-938J749D01*
G03X-29063I-313J-250D01*
G37*
G36*
G01X-17853Y5309D02*
G03X-18203Y4884I49J-397D01*
G02X-19547Y5991I-1197J-84D01*
G03X-19197Y6416I-49J397D01*
G02X-18854Y7344I1197J84D01*
G03Y7906I-284J281D01*
G02X-17146I854J844D01*
G03Y7344I284J-281D01*
G02X-17853Y5309I-854J-844D01*
G37*
G36*
G01X-11146Y7906D02*
G03Y7344I284J-281D01*
G02X-12854I-853J-844D01*
G03Y7906I-284J281D01*
G02X-11146I854J844D01*
G37*
G36*
G01X-18246Y13256D02*
G03Y12694I284J-281D01*
G02X-19954I-853J-844D01*
G03Y13256I-284J281D01*
G02X-18246I853J844D01*
G37*
G36*
G01X-4728Y13775D02*
G03Y13225I290J-275D01*
G02X-6472I-872J-825D01*
G03Y13775I-290J275D01*
G02X-4728I872J825D01*
G37*
G36*
G01X687Y14250D02*
G03Y13750I312J-250D01*
G02X-1187I-937J-750D01*
G03Y14250I-312J250D01*
G02Y15750I937J750D01*
G03Y16250I-312J250D01*
G02Y17750I937J750D01*
G03Y18250I-312J250D01*
G02X687I937J750D01*
G03Y17750I312J-250D01*
G02Y16250I-937J-750D01*
G03Y15750I312J-250D01*
G02Y14250I-937J-750D01*
G37*
G36*
G01X-3102Y24066D02*
G03X-2652Y23691I399J22D01*
G02X-3698Y22434I152J-1191D01*
G03X-4148Y22809I-399J-22D01*
G02X-3102Y24066I-152J1191D01*
G37*
G36*
G01X-10927Y43700D02*
X-7850Y40623D01*
Y29438D01*
G02X-9650I-900J-938D01*
G01Y39877D01*
X-11673Y41900D01*
X-21273D01*
X-25673Y46300D01*
X-25859D01*
X-25916Y46246D01*
G02X-25862Y48100I-884J954D01*
G01X-24927D01*
X-22391Y45564D01*
G03X-21768Y45635I283J283D01*
G02X-21604Y45844I1018J-635D01*
G03Y46406I-284J281D01*
G02Y48094I853J844D01*
G03Y48656I-284J281D01*
G02Y50344I853J844D01*
G03Y50906I-284J281D01*
G02Y52594I853J844D01*
G03Y53156I-284J281D01*
G02Y54844I853J844D01*
G03Y55406I-284J281D01*
G02X-19896I853J844D01*
G03Y54844I284J-281D01*
G02Y53156I-854J-844D01*
G03Y52594I284J-281D01*
G02Y50906I-854J-844D01*
G03Y50344I284J-281D01*
G02Y48656I-854J-844D01*
G03Y48094I284J-281D01*
G02Y46406I-854J-844D01*
G03Y45844I284J-281D01*
G02X-19758Y44325I-853J-844D01*
G03X-19427Y43700I331J-225D01*
G01X-10927D01*
G37*
G36*
G01X-11146Y31906D02*
G03Y31344I284J-281D01*
G02X-12854I-853J-844D01*
G03Y31906I-284J281D01*
G02X-11146I854J844D01*
G37*
G36*
G01X-16946Y32606D02*
G03Y32044I284J-281D01*
G02X-18654I-853J-844D01*
G03Y32606I-284J281D01*
G02X-16946I854J844D01*
G37*
G36*
G01X-23893Y35033D02*
G03X-24036Y35248I-199J22D01*
G02X-23625Y37598I336J1152D01*
G03X-23200Y37998I25J399D01*
G02X-22937Y38750I1200J2D01*
G03Y39250I-312J250D01*
G02X-21250Y40937I937J750D01*
G03X-20750I250J312D01*
G02X-19250I750J-937D01*
G03X-18750I250J312D01*
G02X-17250I750J-937D01*
G03X-16750I250J312D01*
G02X-15250I750J-937D01*
G03X-14750I250J312D01*
G02X-13063Y39250I750J-937D01*
G03Y38750I312J-250D01*
G02X-14750Y37063I-937J-750D01*
G03X-15250I-250J-312D01*
G02X-16750I-750J937D01*
G03X-17250I-250J-312D01*
G02X-18750I-750J937D01*
G03X-19250I-250J-312D01*
G02X-20750I-750J937D01*
G03X-21250I-250J-312D01*
G02X-22075Y36802I-750J937D01*
G03X-22500Y36402I-25J-399D01*
G02X-22507Y36267I-1200J-3D01*
G03X-22364Y36052I199J-22D01*
G02X-23893Y35033I-336J-1152D01*
G37*
G36*
G01X-9063Y50000D02*
G03Y49500I312J-250D01*
G02X-10937I-937J-750D01*
G03Y50000I-312J250D01*
G02X-9063I937J750D01*
G37*
G36*
G01X-11036Y62361D02*
G03X-10491Y62281I315J247D01*
G02X-10744Y60559I691J-981D01*
G03X-11289Y60639I-315J-247D01*
G02X-11036Y62361I-691J981D01*
G37*
G36*
G01X-1190Y33004D02*
G02Y34496I940J746D01*
G03X-1202Y35009I-313J249D01*
G02X640Y35054I902J791D01*
G03X652Y34541I313J-249D01*
G02Y32959I-902J-791D01*
G03X640Y32446I301J-264D01*
G02X582Y30886I-940J-746D01*
G03Y30614I147J-136D01*
G02X-1182I-882J-814D01*
G03Y30886I-147J136D01*
G02X-1202Y32491I882J814D01*
G03X-1190Y33004I-301J264D01*
G37*
G36*
G01X-2095Y43725D02*
G02X-2740Y41650I-1005J-825D01*
G02X-4390Y43059I-360J1249D01*
G01X-4379Y43156D01*
X-5200Y43977D01*
Y60323D01*
X-4052Y61471D01*
X-4049Y61549D01*
G02X-1744Y62323I1299J-49D01*
G03X-1138Y62307I310J253D01*
G02X632Y60686I888J-807D01*
G03Y60414I147J-136D01*
G02X669Y58829I-882J-814D01*
G03Y58571I153J-129D01*
G02Y57029I-919J-771D01*
G03Y56771I153J-129D01*
G02X-1428Y55773I-919J-771D01*
G03X-2053Y56023I-393J-76D01*
G02X-2136Y55969I-696J978D01*
G03Y55281I205J-344D01*
G02X-1896Y53406I-614J-1031D01*
G03Y52844I284J-281D01*
G02X-2937Y50814I-854J-844D01*
G03X-3400Y50419I-62J-395D01*
G01Y49081D01*
G03X-2937Y48686I400J0D01*
G02X-1896Y46656I187J-1185D01*
G03Y46094I284J-281D01*
G02X-2025Y44294I-853J-844D01*
G03X-2095Y43725I242J-319D01*
G37*
G36*
G01X632Y40836D02*
G03X639Y40558I147J-136D01*
G02X-1082Y40514I-839J-858D01*
G03X-1089Y40792I-147J136D01*
G02X-1156Y42438I839J858D01*
G03Y42962I-302J262D01*
G02X656I906J787D01*
G03Y42438I302J-263D01*
G02X632Y40836I-906J-788D01*
G37*
G36*
G01X22500Y15813D02*
G03X22000I-250J-312D01*
G02X20313Y17500I-750J937D01*
G03Y18000I-312J250D01*
G02Y19500I937J750D01*
G03Y20000I-312J250D01*
G02X22000Y21687I937J750D01*
G03X22500I250J312D01*
G02X24000I750J-937D01*
G03X24500I250J312D01*
G02X26000I750J-937D01*
G03X26500I250J312D01*
G02X28187Y20000I750J-937D01*
G03Y19500I312J-250D01*
G02Y18000I-937J-750D01*
G03Y17500I312J-250D01*
G02X26500Y15813I-937J-750D01*
G03X26000I-250J-312D01*
G02X24500I-750J937D01*
G03X24000I-250J-312D01*
G02X22500I-750J937D01*
G37*
G36*
G01X13897Y14412D02*
G03X14083Y14197I199J-15D01*
G02X12803Y13088I-83J-1197D01*
G03X12617Y13303I-199J15D01*
G02X13897Y14412I83J1197D01*
G37*
G36*
G01X22032Y36135D02*
G03X22008Y35586I277J-288D01*
G02X20268Y35665I-908J-785D01*
G03X20293Y36214I-277J288D01*
G02X22032Y36135I908J785D01*
G37*
G36*
G01X39238Y93151D02*
G02X37551Y94838I-938J749D01*
G03Y95462I-250J313D01*
G02Y97338I749J937D01*
G03Y97962I-250J313D01*
G02Y99838I749J938D01*
G03Y100463I-250J313D01*
G02Y102337I749J937D01*
G03Y102962I-250J313D01*
G02X39049I749J937D01*
G03Y102337I250J-313D01*
G02X39238Y102149I-749J-937D01*
G03X39862I312J250D01*
G02X41738I938J-749D01*
G03X42362I312J250D01*
G02X44238I937J-749D01*
G03X44862I312J250D01*
G02X46662Y102235I938J-749D01*
G03X47238I288J278D01*
G02X48849Y100463I862J-835D01*
G03Y99838I250J-313D01*
G02Y97962I-749J-938D01*
G03Y97338I250J-312D01*
G02Y95462I-749J-938D01*
G03Y94838I250J-313D01*
G02X47351I-749J-937D01*
G03Y95462I-250J313D01*
G02X47238Y95565I749J938D01*
G03X46662I-287J-278D01*
G02X44862Y95651I-862J835D01*
G03X44238I-312J-250D01*
G02X44049Y95462I-938J749D01*
G03Y94838I250J-313D01*
G02X42362Y93151I-749J-937D01*
G03X41738I-313J-250D01*
G02X39862I-937J749D01*
G03X39238I-312J-250D01*
G37*
G36*
G01X28157Y110532D02*
G02X27843Y112043I-1057J568D01*
G03X28443Y112168I247J314D01*
G02X28757Y110657I1057J-568D01*
G03X28157Y110532I-247J-314D01*
G37*
G36*
G01X27713Y119665D02*
G02X26437Y119760I-713J-965D01*
G03X26487Y120435I-188J353D01*
G02X27763Y120340I713J965D01*
G03X27713Y119665I188J-353D01*
G37*
G36*
G01X31560Y122937D02*
G02X31465Y124213I-1060J563D01*
G03X32140Y124263I322J238D01*
G02X32235Y122987I1060J-563D01*
G03X31560Y122937I-322J-238D01*
G37*
G36*
G01X38938Y122751D02*
G02Y124249I-938J749D01*
G03X39562I312J250D01*
G02Y122751I938J-749D01*
G03X38938I-312J-250D01*
G37*
G36*
G01X30688Y97808D02*
G03X31225Y97617I362J169D01*
G02X30662Y96030I525J-1079D01*
G03X30125Y96221I-362J-169D01*
G02X30688Y97808I-525J1079D01*
G37*
G36*
G01X36742Y113576D02*
G02X35583Y113174I-242J-1176D01*
G03X35358Y113824I-306J258D01*
G02X36517Y114226I242J1176D01*
G03X36742Y113576I306J-258D01*
G37*
G36*
G01X71030Y96452D02*
G02X69532Y96423I-730J-952D01*
G03X69520Y97048I-256J307D01*
G02X69396Y98844I730J953D01*
G03Y99406I-284J281D01*
G02X71104I853J844D01*
G03Y98844I284J-281D01*
G02X71018Y97077I-853J-844D01*
G03X71030Y96452I256J-307D01*
G37*
G36*
G01X55094Y79147D02*
G02Y80854I-844J853D01*
G03X55656I281J284D01*
G02X57438Y80749I844J-854D01*
G03X58063I313J250D01*
G02Y79251I937J-749D01*
G03X57438I-313J-250D01*
G02X55656Y79147I-938J749D01*
G03X55094I-281J-284D01*
G37*
G36*
G01X67687Y16750D02*
G03Y16250I312J-250D01*
G02X65813I-937J-750D01*
G03Y16750I-312J250D01*
G02Y18250I937J750D01*
G03Y18750I-312J250D01*
G02X67687I937J750D01*
G03Y18250I312J-250D01*
G02Y16750I-937J-750D01*
G37*
G36*
G01X59022Y15032D02*
G03X59037Y14761I154J-128D01*
G02X57278Y14668I-837J-861D01*
G03X57263Y14939I-154J128D01*
G02X57253Y16650I837J861D01*
G02X57181Y18271I847J850D01*
G03Y18529I-153J129D01*
G02X59019I919J771D01*
G03Y18271I153J-129D01*
G02X58947Y16650I-919J-771D01*
G02X59022Y15032I-847J-850D01*
G37*
G36*
G01X86000Y151937D02*
G03X86500I250J312D01*
G02X88000I750J-937D01*
G03X88500I250J312D01*
G02Y150063I750J-937D01*
G03X88000I-250J-312D01*
G02X86500I-750J937D01*
G03X86000I-250J-312D01*
G02Y151937I-750J937D01*
G37*
G36*
G01X86887Y30750D02*
G03Y30250I312J-250D01*
G02X85013I-937J-750D01*
G03Y30750I-312J250D01*
G02Y32250I937J750D01*
G03Y32750I-312J250D01*
G02X86887I937J750D01*
G03Y32250I312J-250D01*
G02Y30750I-937J-750D01*
G37*
G36*
G01Y20000D02*
G03Y19500I312J-250D01*
G02X85013I-937J-750D01*
G03Y20000I-312J250D01*
G02Y21500I937J750D01*
G03Y22000I-312J250D01*
G02X86887I937J750D01*
G03Y21500I312J-250D01*
G02Y20000I-937J-750D01*
G37*
G36*
G01X148636Y25871D02*
G02X148458Y26049I-933J-755D01*
G01X148556Y25969D01*
X148636Y25871D01*
G37*
G36*
G01X207872Y48875D02*
G03Y48325I290J-275D01*
G02X206128I-872J-825D01*
G03Y48875I-290J275D01*
G02X207872I872J825D01*
G37*
G36*
G01X210163Y89560D02*
G02X208887Y89465I-563J-1060D01*
G03X208837Y90140I-238J322D01*
G02X210113Y90235I563J1060D01*
G03X210163Y89560I238J-322D01*
G37*
G36*
G01X222719Y159685D02*
G03X222131I-294J-272D01*
G02Y161315I-881J815D01*
G03X222719I294J272D01*
G02Y159685I881J-815D01*
G37*
G36*
G01X269278Y42397D02*
G02X267837Y42364I-698J-976D01*
G03X267822Y43003I-247J314D01*
G02X269263Y43036I698J976D01*
G03X269278Y42397I247J-314D01*
G37*
G36*
G01X250956Y42425D02*
G02X249644I-656J-1005D01*
G03Y43095I-219J335D01*
G02X249523Y45014I656J1005D01*
G03Y45624I-259J305D01*
G02X251077I777J915D01*
G03Y45014I259J-305D01*
G02X250956Y43095I-777J-915D01*
G03Y42425I219J-335D01*
G37*
G36*
G01X244882Y118886D02*
G03Y118614I147J-136D01*
G02X243118I-882J-814D01*
G03Y118886I-147J136D01*
G02X244882I882J814D01*
G37*
G36*
G01X249737Y118950D02*
G03Y118450I312J-250D01*
G02X247863I-937J-750D01*
G03Y118950I-312J250D01*
G02X249737I937J750D01*
G37*
G36*
G01X254770Y92274D02*
G03X254795Y91699I290J-275D01*
G02X253130Y91626I-795J-899D01*
G03X253105Y92201I-290J275D01*
G02X254770Y92274I795J899D01*
G37*
G36*
G01X262236Y88815D02*
X257515Y93536D01*
Y94268D01*
G03X256936Y94626I-400J0D01*
G02X255708Y96681I-536J1074D01*
G03X255760Y97290I-231J327D01*
G01X255511Y97540D01*
G03X254896Y97481I-283J-283D01*
G02X252726Y97902I-996J670D01*
G03X252052Y98102I-391J-83D01*
G01X251364Y97415D01*
X249996D01*
X249957Y97266D01*
G02X247779Y98518I-1257J334D01*
G03Y99082I-283J282D01*
G02X249785Y100716I921J918D01*
G03X250402Y100654I334J220D01*
G01X251433Y101685D01*
X255567D01*
X260485Y96767D01*
Y94767D01*
X263467Y91785D01*
X265691D01*
X265702Y91974D01*
G02X267921Y90982I1298J-74D01*
G03Y90418I283J-282D01*
G02X265895Y88815I-921J-918D01*
G01X262236D01*
G37*
G54D25*
X0Y0D03*
G54D23*
X-39800Y63100D03*
X-36511Y54000D03*
X-26900Y160900D03*
X-29700Y157600D03*
Y173700D03*
X-29900Y166300D03*
X-28500Y177600D03*
X-26650Y164050D03*
X-24450Y156800D03*
X-15600Y181500D03*
X-11200Y166900D03*
X-10000Y174900D03*
X-10500Y178900D03*
X75000Y182250D03*
X105500Y176750D03*
X-4400Y31000D03*
X-8700Y18000D03*
X-24000Y50000D03*
X-15000Y45500D03*
X-16600Y28100D03*
X-15000Y30500D03*
X-17600Y17000D03*
X-15000Y6500D03*
X30900Y67600D03*
X40570Y35614D03*
X37430Y35641D03*
X40570Y48104D03*
X37430Y57633D03*
Y51334D03*
X46796Y32422D03*
X8000Y153000D03*
X17250Y15000D03*
X15000Y18000D03*
X14600Y31900D03*
Y28100D03*
X31131Y32492D03*
X27942Y32452D03*
X31131Y29342D03*
Y35641D03*
X27981D03*
X24400Y35456D03*
X14623Y43097D03*
X31131Y48184D03*
X27981D03*
X24889Y48261D03*
X20600Y54900D03*
X20800Y59000D03*
X14600Y59200D03*
X31131Y57633D03*
X27981D03*
X37400Y74693D03*
X69316Y129759D03*
X69500Y134800D03*
X58500Y141400D03*
Y135000D03*
X62300Y129800D03*
X48057Y129759D03*
X55000Y141400D03*
X51600Y129759D03*
X55000Y135000D03*
X52750Y108000D03*
X46100Y117500D03*
X33900Y143400D03*
X37427Y129759D03*
X33884D03*
X41000Y141400D03*
X44500D03*
Y135000D03*
X41000D03*
X33000Y135700D03*
X37400Y137100D03*
X42500Y110700D03*
X22900Y144500D03*
X22600Y136200D03*
X31713Y105987D03*
X27100Y115000D03*
X27200Y107100D03*
X27300Y95400D03*
Y99500D03*
X31750Y101250D03*
X27200Y103300D03*
X27300Y91500D03*
X19400Y131800D03*
X19500Y119200D03*
X19100Y127500D03*
X19700Y111200D03*
X19400Y95600D03*
X19600Y103600D03*
X49973Y23043D03*
X43850Y60640D03*
X46832Y60832D03*
X46800Y67378D03*
X48000Y76400D03*
X52000Y83900D03*
X60500Y76000D03*
X64400D03*
X68300Y76400D03*
X66600Y79600D03*
X56600Y76000D03*
X66500Y91500D03*
X66600Y87400D03*
X66500Y95500D03*
X73800Y79800D03*
X70400Y79600D03*
Y91500D03*
Y87400D03*
Y83400D03*
X59500Y22500D03*
X72000Y13500D03*
Y19500D03*
X53189Y45024D03*
X53100Y41839D03*
X49987Y45030D03*
X53122Y38791D03*
X49987Y41878D03*
X49973Y38791D03*
Y51334D03*
X53122Y48184D03*
X46953Y51256D03*
X46835Y48222D03*
X49973Y54483D03*
X59422Y32492D03*
X72000Y28500D03*
Y37000D03*
X65830Y29390D03*
X62600Y29460D03*
X62571Y32492D03*
X66141Y32659D03*
X69490Y32935D03*
X72000Y43000D03*
X62571Y57633D03*
X65777Y54483D03*
X62571D03*
X59422D03*
X64200Y64000D03*
X59404Y60791D03*
X69500Y59235D03*
X86500Y79000D03*
X86524Y88460D03*
X85500Y15000D03*
X101000Y22500D03*
Y19000D03*
Y15500D03*
X97500D03*
X98000Y20750D03*
X101000Y33000D03*
Y29500D03*
Y26000D03*
X98000D03*
Y31250D03*
X101000Y36500D03*
Y40000D03*
Y43500D03*
X98000Y36500D03*
Y41750D03*
X98500Y57000D03*
X96400Y47000D03*
X98500Y60000D03*
X150853Y31415D03*
X144554Y25116D03*
X146128Y36139D03*
X86000Y63500D03*
X85900Y59400D03*
X120074Y95079D03*
X114800Y113900D03*
X111100Y115000D03*
X145270Y129726D03*
X142120Y132875D03*
X145400Y123550D03*
X142132Y123435D03*
X148420Y126630D03*
X135821Y132875D03*
X132672D03*
Y129726D03*
X135821D03*
X138971Y132875D03*
X129522D03*
X126372D03*
X135821Y148623D03*
X132711Y148584D03*
X129522Y148623D03*
X145290Y91948D03*
Y95097D03*
X142140D03*
X161017Y88800D03*
Y85648D03*
X172900Y28265D03*
X169750Y25116D03*
X172900Y31415D03*
X166601Y25116D03*
X172900D03*
X169750Y28265D03*
X169453Y69389D03*
X170424Y95124D03*
X186300Y88800D03*
X144554Y47163D03*
X157868Y126576D03*
Y132875D03*
Y129726D03*
X167320Y126576D03*
X186178Y120314D03*
X179879D03*
X183028D03*
X189328D03*
X192477D03*
X195500Y174400D03*
X186750Y46750D03*
X185900Y57500D03*
X187500Y54750D03*
X179600Y68000D03*
X182989Y79408D03*
X187500Y67250D03*
X195627Y91967D03*
Y88818D03*
X186217Y132875D03*
X189367D03*
X199000Y38500D03*
X197016Y40750D03*
X210200Y44700D03*
X207200Y40300D03*
X201000Y40750D03*
X207000Y43500D03*
X209600Y54200D03*
X206000Y57600D03*
X201926Y95117D03*
Y98266D03*
X217800Y92400D03*
X213600Y92500D03*
Y100500D03*
Y96500D03*
X195700Y155000D03*
X198816Y158070D03*
X195666Y158072D03*
X205128Y158072D03*
X217400Y160500D03*
X213500Y156500D03*
X227400Y160500D03*
X216400Y72500D03*
X217400Y76500D03*
X213600Y112500D03*
X227400Y136500D03*
Y132500D03*
Y140500D03*
Y144500D03*
X243500Y41200D03*
X241900Y54600D03*
X242600Y51400D03*
X252900Y49500D03*
X248150Y68550D03*
X268900Y50500D03*
Y54400D03*
X262700Y50500D03*
X259900Y52000D03*
X264900Y65400D03*
X265000Y60500D03*
X246750Y130500D03*
X242824Y143280D03*
X258400Y108100D03*
X249900Y111200D03*
X253750Y108850D03*
X250750Y127500D03*
X247750D03*
X256604Y127646D03*
X250400Y137800D03*
X258646Y141354D03*
X252250Y131468D03*
X251153Y141600D03*
X263000Y108100D03*
X258750Y154250D03*
Y158750D03*
G54D26*
X0Y82500D03*
Y92500D03*
Y102500D03*
Y112500D03*
Y122500D03*
G54D24*
X20000Y-5000D03*
%LPD*%
G75*
G54D10*
X-38700Y157400D03*
X-38950Y166900D03*
X-39200Y171650D03*
Y176900D03*
X-36500Y58000D03*
X-30500Y50000D03*
X-26800Y47200D03*
X-31350Y152650D03*
X-23000Y24200D03*
X-24200Y26100D03*
X-16300Y65500D03*
X-20000Y64000D03*
X-24450Y151900D03*
X-25000Y166800D03*
X-24450Y177650D03*
X-4500Y18000D03*
X-4250Y28500D03*
X-8750D03*
X-12750Y45500D03*
X-3100Y42900D03*
X-10300Y63500D03*
X-5000Y144400D03*
X7550Y10750D03*
X8600Y27200D03*
X8500Y45100D03*
X-2750Y49750D03*
Y61500D03*
X-200Y130800D03*
X2250Y144000D03*
Y153050D03*
X8000Y144000D03*
X3150Y165000D03*
X8500Y161900D03*
X3800Y160400D03*
X-1200D03*
X1300D03*
X3150Y168000D03*
X8600Y171050D03*
X-1200Y172900D03*
X1300D03*
X3800D03*
X11200Y10800D03*
X9400D03*
X10600Y27200D03*
X12000Y45100D03*
X10250D03*
X12250Y57000D03*
X12200Y60800D03*
Y58900D03*
X14500Y63400D03*
X10500Y141800D03*
Y144000D03*
X20250Y161900D03*
X16250D03*
X12300D03*
X20350Y171050D03*
X16350D03*
X12350D03*
X31131Y45034D03*
X27981D03*
X31131Y38791D03*
X27981D03*
X24832Y54183D03*
X31131D03*
X27981D03*
X23000Y68000D03*
X23800Y65400D03*
X30250Y91500D03*
X23519Y88026D03*
X30250Y141500D03*
X28250D03*
X29159Y152200D03*
X29100Y162800D03*
X24100Y161900D03*
X24500Y156250D03*
X24100Y171050D03*
X29100Y169900D03*
X37300Y32500D03*
X43683Y32462D03*
X40531D03*
X37430Y29286D03*
Y26137D03*
X37401Y45061D03*
X40570Y41894D03*
X43674Y38791D03*
X37430Y41941D03*
Y38791D03*
X43644Y41957D03*
X40531Y45070D03*
X40500Y51400D03*
X37430Y54483D03*
Y48184D03*
X43722Y57717D03*
X35659Y64664D03*
X43900Y70100D03*
X40000Y76400D03*
X35200Y73100D03*
Y125400D03*
X44500Y126000D03*
X41000D03*
X33750Y148750D03*
X41500Y151100D03*
Y155200D03*
X44500Y170600D03*
X55250Y22250D03*
X47000Y16000D03*
Y18000D03*
Y20000D03*
X53178Y29349D03*
X53139Y32422D03*
X49987Y32462D03*
X46400Y26100D03*
X46953Y38687D03*
X53122Y54483D03*
X53208Y60800D03*
X52300Y72600D03*
X55000Y108000D03*
X47237Y110170D03*
X56400Y116500D03*
X55000Y126000D03*
X48000Y141400D03*
X54500Y155100D03*
X57250Y22250D03*
X59422Y45034D03*
X62571D03*
X59488Y38725D03*
X62637D03*
X59478Y51334D03*
X62627D03*
X67250Y111050D03*
X58500Y126000D03*
X67200Y169600D03*
X62200Y174600D03*
X74800Y17148D03*
X76600Y18900D03*
X74800D03*
X76500Y32500D03*
Y30500D03*
Y28500D03*
Y44000D03*
Y46000D03*
Y34500D03*
Y48000D03*
X72000Y68500D03*
X76500Y64000D03*
Y60000D03*
Y62000D03*
X77000Y71500D03*
X75000Y87500D03*
X78500Y104500D03*
X74600Y100600D03*
X76000Y104500D03*
X72400Y111700D03*
X78500Y117200D03*
X79700Y109900D03*
X69250Y141500D03*
X74000Y132000D03*
X74041Y152200D03*
Y148657D03*
Y145113D03*
X69500Y155800D03*
X74000Y162800D03*
Y169900D03*
X91250Y20750D03*
Y15500D03*
Y31250D03*
Y26000D03*
Y36500D03*
X88550Y55750D03*
Y53750D03*
X80500Y71500D03*
X82100Y104500D03*
X91000Y100500D03*
X88400Y104500D03*
X81250Y111750D03*
X81800Y154900D03*
X84800D03*
X85000Y173900D03*
X94500Y21750D03*
Y19750D03*
Y32250D03*
Y30250D03*
X92750Y55750D03*
Y53750D03*
X101000Y70000D03*
X96500Y63900D03*
X96400Y68000D03*
Y72000D03*
X101000Y92750D03*
Y90500D03*
X100400Y100200D03*
X101500Y121700D03*
X102200Y130600D03*
X97600Y145500D03*
X101400Y161500D03*
X96900Y176700D03*
X102059Y176691D03*
X115000Y15600D03*
X105200Y13100D03*
X108000Y16000D03*
X107250Y19000D03*
X110250Y20750D03*
X107250Y22500D03*
X110250Y17250D03*
X108750Y31250D03*
X107250Y29500D03*
X110250Y24250D03*
X107250Y26000D03*
X110250Y27750D03*
X113254Y33187D03*
X107250Y33000D03*
Y38750D03*
X108750Y34750D03*
X107250Y36500D03*
X113254Y39092D03*
X107250Y43500D03*
X108750Y45250D03*
Y55750D03*
X107250Y47000D03*
Y57500D03*
Y50500D03*
X108750Y48750D03*
Y52250D03*
X107250Y54000D03*
Y64500D03*
X108750Y62750D03*
X107250Y61000D03*
X108750Y59250D03*
X112663Y90354D03*
X112920Y94780D03*
X107400Y111000D03*
X107382Y114000D03*
X111250Y123750D03*
X106000Y129100D03*
X111500Y141000D03*
Y136000D03*
X115500D03*
X104100Y141700D03*
X115500Y174400D03*
X121128Y33187D03*
X117191D03*
X125065D03*
X121128Y39092D03*
X119160Y36139D03*
X127034D03*
X125065Y39092D03*
X123097Y36139D03*
X117191Y39092D03*
X120074Y85630D03*
X126392Y91948D03*
X120074Y82480D03*
X123224D03*
Y85630D03*
X126392Y88798D03*
Y85648D03*
Y82499D03*
X120301Y104301D03*
X119500Y124600D03*
X126200Y120250D03*
X119313Y140748D03*
X119300Y145700D03*
X126372Y151773D03*
X119411Y151801D03*
X126372Y148623D03*
X119411Y162794D03*
X123223Y158072D03*
X127500Y174400D03*
X128806Y21966D03*
X136876Y33187D03*
X132939D03*
X129002D03*
X132939Y39092D03*
X136876D03*
X129002D03*
X130971Y36139D03*
X138828D03*
X134908D03*
X129542Y91948D03*
Y88798D03*
X135804Y91948D03*
X135841Y117144D03*
X132691Y113995D03*
X135841Y123407D03*
X135821Y126576D03*
Y136025D03*
X132672Y151773D03*
X138971Y145474D03*
X132672D03*
X134248Y165000D03*
X132672Y158072D03*
X128000Y165000D03*
X129522Y158072D03*
X135500Y174400D03*
X139500Y170600D03*
X144554Y21966D03*
Y28265D03*
X144750Y33187D03*
X140813D03*
X150853Y28265D03*
Y25116D03*
X144554Y44013D03*
X144750Y39092D03*
X140813D03*
X147703Y44013D03*
X142782Y36139D03*
X144554Y50313D03*
X150853Y47163D03*
X148439Y88798D03*
X151589Y117144D03*
X148439D03*
X142074Y126622D03*
X151473Y126673D03*
X151569Y132875D03*
X148420Y136025D03*
X151569D03*
X148420Y129726D03*
X145270Y148623D03*
X142105Y148649D03*
X142120Y151773D03*
X148420Y145474D03*
X145270Y154922D03*
X145217Y158125D03*
X151500Y174400D03*
X147500D03*
X150250Y165500D03*
X145750D03*
X160302Y21966D03*
X157152Y31415D03*
X154002D03*
X160302Y28265D03*
X154002D03*
Y44013D03*
X157152Y40864D03*
X160302D03*
X161100Y74500D03*
X154739Y98247D03*
X157888Y117144D03*
X154739D03*
X154700Y120500D03*
X161038Y120294D03*
X154719Y132875D03*
Y129726D03*
X157868Y139174D03*
X161018Y148623D03*
X162593Y164961D03*
X157868Y158072D03*
X154721Y164371D03*
X159500Y174400D03*
X169750Y21966D03*
X169453Y74389D03*
X166460Y74500D03*
X164100Y79400D03*
X170430Y85668D03*
Y98266D03*
X164131D03*
X170430Y117164D03*
X167280Y120314D03*
X170469Y129726D03*
X173619Y145474D03*
X170469Y158072D03*
X171500Y174400D03*
X167500D03*
X180600Y14700D03*
X185900Y27600D03*
X182000Y25250D03*
X185900Y61500D03*
X179600Y71500D03*
X175900Y73700D03*
X181900Y75326D03*
X179879Y88818D03*
X183002Y95144D03*
X179879Y117164D03*
X183028D03*
X176729Y120314D03*
X186217Y129726D03*
X183068D03*
X186300Y136000D03*
X183068Y132875D03*
X183066Y148622D03*
X186216Y151772D03*
X179917Y145472D03*
X183066Y151772D03*
X179919Y148622D03*
X183066Y154921D03*
X186216D03*
X179500Y174400D03*
X175500D03*
X183500D03*
X195700Y2100D03*
X197700Y27600D03*
X189800D03*
X193700D03*
X197600Y33800D03*
X189900Y33700D03*
X195500Y43900D03*
X197750Y45500D03*
X195200Y36100D03*
X189500Y37000D03*
Y57600D03*
X195750Y47500D03*
X196000Y67100D03*
X192000Y70900D03*
X195610Y85570D03*
X189328Y91967D03*
X195627Y104566D03*
X198776D03*
X189300Y101400D03*
X192474Y101474D03*
X189394Y95106D03*
X198776Y95117D03*
X195666Y126576D03*
X198816D03*
X195669Y139169D03*
X198816Y139174D03*
Y148623D03*
X198776Y142285D03*
X192500Y148800D03*
X187500Y174400D03*
X191500D03*
X209300Y22400D03*
X201500Y21800D03*
X209600Y27600D03*
X205800D03*
X201900D03*
X209600Y33700D03*
X204000Y51500D03*
X202000Y57600D03*
X200000Y47500D03*
X204000Y67100D03*
X208225Y76219D03*
X205076Y79369D03*
X201926Y82518D03*
X205066Y91992D03*
X201926Y91967D03*
X205076Y88818D03*
X202000Y113900D03*
X208225Y117164D03*
X201800Y110900D03*
X209000Y127000D03*
X208343Y129804D03*
X208265Y148623D03*
X201965Y151773D03*
X205115Y145474D03*
Y142324D03*
X201926Y154960D03*
X203500Y170600D03*
X207500D03*
X213800Y16600D03*
X219931Y17831D03*
X215864Y12336D03*
X222900Y29800D03*
X213400Y27600D03*
X216350Y31650D03*
X212400Y51000D03*
Y54000D03*
X212500Y63750D03*
X217800Y64000D03*
X222000Y74600D03*
X217400Y84500D03*
X217800Y88400D03*
X217400Y96500D03*
Y100500D03*
Y116500D03*
X213600Y128500D03*
X221250D03*
X213600Y132500D03*
X221250Y140500D03*
Y146750D03*
Y150016D03*
X219750Y142500D03*
X211500Y170600D03*
X219500D03*
X215500D03*
X230400Y15300D03*
Y18400D03*
X224900Y14100D03*
X224600Y22100D03*
X223600Y27700D03*
X227000Y29800D03*
X225400Y31700D03*
X230300Y33100D03*
X226000Y77900D03*
X227100Y92500D03*
X226100Y85900D03*
X234000Y96500D03*
X231800Y109100D03*
X233900Y137100D03*
X233200Y145200D03*
X232500Y147300D03*
Y156250D03*
X223500Y170600D03*
X232000Y170900D03*
X226500Y170600D03*
X227500Y174400D03*
X231500D03*
X236800Y40800D03*
X235700Y62500D03*
X245450Y93650D03*
X243140Y89170D03*
X245400Y89600D03*
X245500Y99000D03*
X245696Y97300D03*
X234900Y109300D03*
X246500Y119750D03*
X242800Y123600D03*
X242250Y168250D03*
X246750D03*
X240000D03*
X244500D03*
X254700Y40700D03*
Y44800D03*
X257500Y40800D03*
Y44800D03*
X256100Y42700D03*
X250900Y56400D03*
X255000D03*
X250900Y69700D03*
Y60700D03*
X255000D03*
X252900Y58500D03*
X254200Y88600D03*
X247600Y89700D03*
X254800Y102500D03*
X253200Y103600D03*
X257000Y101200D03*
X248700Y100000D03*
Y97600D03*
X247800Y115300D03*
X251000Y119750D03*
X254600Y131500D03*
X256600Y133400D03*
X250700Y135400D03*
X252700Y137400D03*
X248700Y141300D03*
X253400Y149900D03*
X256500Y163450D03*
X249000Y168250D03*
X268800Y60600D03*
X268700Y65500D03*
X265200Y93400D03*
X265500Y87000D03*
X267000Y91900D03*
X267300Y84200D03*
X267000Y89500D03*
X267700Y86500D03*
X263400Y113900D03*
X267400Y118300D03*
X259100Y118100D03*
X263700Y150000D03*
X268500Y145750D03*
G54D20*
G01X50000Y-5000D02*
Y5000D01*
G54D11*
X-33615Y10277D03*
Y39608D03*
G54D21*
G01X16618Y181618D02*
X20000Y185000D01*
G01D02*
X23382Y181618D01*
G01X226618Y1618D02*
X230000Y5000D01*
G01D02*
X233382Y8382D01*
G01X226618D02*
X230000Y5000D01*
G01D02*
X233382Y1618D01*
G01X236618D02*
X240000Y5000D01*
G01D02*
X243382Y8382D01*
G01X236618D02*
X240000Y5000D01*
G54D12*
X-30859Y26517D03*
Y23368D03*
X40970Y166373D03*
X55143D03*
X48057D03*
G54D22*
G01X26618Y-8382D02*
X30000Y-5000D01*
G01D02*
X33382Y-1618D01*
G01X26618D02*
X30000Y-5000D01*
G01D02*
X33382Y-8382D01*
G01X26618Y1618D02*
X30000Y5000D01*
G01D02*
X33382Y1618D01*
G54D13*
X20000Y185000D03*
X30000Y-5000D03*
Y5000D03*
X50000Y-5000D03*
Y5000D03*
X60000Y-5000D03*
Y5000D03*
X80000Y-5000D03*
X100000D03*
Y5000D03*
X110000Y-5000D03*
Y5000D03*
X120000Y-5000D03*
X130000Y5000D03*
X120000D03*
X140000D03*
X150000D03*
X160000Y-5000D03*
Y5000D03*
X170000Y-5000D03*
Y5000D03*
X210000Y-5000D03*
X220000D03*
Y5000D03*
X230000D03*
X240000D03*
G54D14*
G01X-26800Y47200D02*
X-25300D01*
X-20900Y42800D01*
X-11300D01*
X-8750Y40250D01*
Y28500D01*
G01X-3100Y42900D02*
Y43150D01*
X-4300Y44350D01*
Y59950D01*
X-2750Y61500D01*
G01X102059Y176691D02*
X100550Y178200D01*
X66800D01*
X65100Y176500D01*
X-3000D01*
X-7000Y172500D01*
Y162800D01*
X-11750Y158050D01*
Y143850D01*
X-6900Y139000D01*
X1100D01*
X5200Y134900D01*
Y85600D01*
X16050Y74750D01*
X29600D01*
Y74700D01*
X33200Y71100D01*
X39300D01*
X40300Y72100D01*
X41900D01*
X43900Y70100D01*
G01X154721Y164371D02*
Y170529D01*
X153000Y172250D01*
X83500D01*
X82750Y173000D01*
X33000D01*
X30400Y175600D01*
X-1400D01*
X-5500Y171500D01*
Y162700D01*
X-10500Y157700D01*
Y144200D01*
X-6400Y140100D01*
X2200D01*
X6500Y135800D01*
Y86300D01*
X9050Y83750D01*
X34850D01*
X39350Y88250D01*
X48850D01*
X53600Y93000D01*
Y99700D01*
X55650Y101750D01*
X60450D01*
X63200Y104500D01*
X76000D01*
G01X30250Y91500D02*
Y87550D01*
X28900Y86200D01*
X19550D01*
X14500Y91250D01*
Y131800D01*
X3900Y142400D01*
X-5500D01*
X-7500Y144400D01*
Y153700D01*
X-3400Y157800D01*
X30700D01*
X35400Y162500D01*
X61500D01*
X64900Y165900D01*
X102100D01*
X103200Y167000D01*
X144250D01*
X145750Y165500D01*
G01X78500Y104500D02*
X76500Y106500D01*
X74000D01*
X73150Y105650D01*
X56450D01*
X52400Y101600D01*
Y93700D01*
X48700Y90000D01*
X38500D01*
X33700Y85200D01*
X18600D01*
X13400Y90400D01*
Y131100D01*
X3300Y141200D01*
X-5800D01*
X-9000Y144400D01*
Y153600D01*
X-3850Y158750D01*
X30050D01*
X34800Y163500D01*
X60000D01*
X64000Y167500D01*
X78500D01*
X80200Y169200D01*
X138100D01*
X139500Y170600D01*
G01X-5000Y144400D02*
X-3150Y146250D01*
X8000D01*
X16500Y154750D01*
X30750D01*
X36000Y160000D01*
X116750D01*
X117850Y161100D01*
X120400D01*
X121500Y160000D01*
X129715D01*
X131022Y158693D01*
Y157451D01*
X131000Y157429D01*
Y154250D01*
X130250Y153500D01*
X121110D01*
X119411Y151801D01*
G01X123223Y158072D02*
X123151Y158000D01*
X110500D01*
X109400Y159100D01*
X36700D01*
X31350Y153750D01*
X17750D01*
X8000Y144000D01*
G01X10500Y141800D02*
X17800Y149100D01*
X31400D01*
X34900Y152600D01*
X71300D01*
X72400Y153700D01*
X75000D01*
X85200Y143500D01*
X105750D01*
X106750Y142500D01*
X125500D01*
X127250Y140750D01*
X155350D01*
X156300Y141700D01*
Y143100D01*
X157100Y143900D01*
X163200D01*
X169500Y137600D01*
X171200D01*
X172000Y136800D01*
Y135400D01*
X173000Y134400D01*
X182400D01*
X183068Y133732D01*
Y132875D01*
G01X10500Y144000D02*
X17100Y150600D01*
X31500D01*
X38200Y157300D01*
X87200D01*
X92750Y151750D01*
X105650D01*
X111300Y146100D01*
X115350D01*
X118000Y148750D01*
X126246D01*
X126372Y148623D01*
G01X129522Y158072D02*
X126350Y154900D01*
X107500D01*
X106400Y156000D01*
X93000D01*
X90800Y158200D01*
X37400D01*
X31400Y152200D01*
X29159D01*
G01X128000Y165000D02*
X126500D01*
X126250Y165250D01*
X103950D01*
X102700Y164000D01*
X101000D01*
X98200Y161200D01*
X35600D01*
X30650Y156250D01*
X24500D01*
G01X52300Y72600D02*
X72400D01*
X75100Y69900D01*
X78000D01*
X79000Y68900D01*
Y61200D01*
X84100Y56100D01*
Y52100D01*
X78800Y46800D01*
Y11800D01*
X77000Y10000D01*
X57100D01*
X54900Y7800D01*
Y0D01*
X59900Y-5000D01*
X60000D01*
G01Y5000D02*
X63800Y8800D01*
X77400D01*
X79800Y11200D01*
Y46300D01*
X84600Y51100D01*
X88700D01*
X90700Y53100D01*
Y56900D01*
X93400Y59600D01*
Y83800D01*
X100100Y90500D01*
X101000D01*
G01X88400Y104500D02*
X84800Y108100D01*
X78650D01*
X70250Y116500D01*
X56400D01*
G01X74041Y152200D02*
X78600Y147641D01*
Y140400D01*
X100700Y118300D01*
X116400D01*
X116770Y118670D01*
X133135D01*
X134075Y117730D01*
Y116425D01*
X134900Y115600D01*
X191800D01*
X198200Y122000D01*
X208700D01*
X212700Y118000D01*
X218600D01*
X219700Y116900D01*
Y105700D01*
X221900Y103500D01*
Y95600D01*
X223500Y94000D01*
X225400D01*
X226900Y92500D01*
X227100D01*
G01X74041Y148657D02*
X77000Y145698D01*
Y140150D01*
X100025Y117125D01*
X103775D01*
X105400Y115500D01*
Y110250D01*
X107150Y108500D01*
X115100D01*
X118990Y112390D01*
X168110D01*
X168255Y112245D01*
X178995D01*
X179250Y112500D01*
X193500D01*
X194100Y113100D01*
Y115600D01*
X197200Y118700D01*
X209400D01*
X211600Y116500D01*
X217400D01*
G01X69250Y141500D02*
X72700D01*
X99000Y115200D01*
X102800D01*
X104000Y114000D01*
Y107800D01*
X108200Y103600D01*
X113900D01*
X119600Y109300D01*
X196900D01*
X197300Y109700D01*
Y114500D01*
X198400Y115600D01*
X206661D01*
X208225Y117164D01*
G01X226100Y85900D02*
X226000Y85800D01*
X225200D01*
X223900Y87100D01*
X222500D01*
X221000Y88600D01*
Y102800D01*
X217400Y106400D01*
X208700D01*
X202700Y112400D01*
X200600D01*
X200200Y112000D01*
Y106700D01*
X199600Y106100D01*
X127100D01*
X123200Y102200D01*
X105200D01*
X102900Y104500D01*
Y113700D01*
X102500Y114100D01*
X98000D01*
X73050Y139050D01*
X69050D01*
X67700Y140400D01*
Y142300D01*
X70300Y144900D01*
X73828D01*
X74041Y145113D01*
G01X201800Y110900D02*
Y104800D01*
X200000Y103000D01*
X191500D01*
X190800Y102300D01*
Y100000D01*
X191100Y99700D01*
Y87400D01*
X189200Y85500D01*
X182500D01*
X173500Y76500D01*
Y63800D01*
X177500Y59800D01*
Y24500D01*
X173250Y20250D01*
X147250D01*
X144300Y17300D01*
X136300D01*
X132000Y13000D01*
X108750D01*
X105750Y10000D01*
X97250D01*
X94500Y7250D01*
Y2000D01*
X91750Y-750D01*
X84000D01*
X80000Y-4750D01*
Y-5000D01*
G01X189394Y95106D02*
X187750Y96750D01*
Y101824D01*
X186574Y103000D01*
X125490D01*
X123590Y101100D01*
X104900D01*
X99900Y106100D01*
X95800D01*
X90150Y111750D01*
X81250D01*
G01X100000Y-5000D02*
X104750Y-250D01*
Y5750D01*
X110000Y11000D01*
X132963D01*
X137463Y15500D01*
X145900D01*
X148314Y17914D01*
X174100D01*
X179786Y23600D01*
X183100D01*
X186000Y26500D01*
Y27500D01*
X185900Y27600D01*
G01X182000Y25250D02*
X179650D01*
X173495Y19095D01*
X147695D01*
X145000Y16400D01*
X136900D01*
X132500Y12000D01*
X109250D01*
X102250Y5000D01*
X100000D01*
G01X189328Y91967D02*
X186533D01*
X184750Y93750D01*
Y98750D01*
X183600Y99900D01*
X117600D01*
X116900Y99200D01*
Y94400D01*
X114800Y92300D01*
X102950D01*
X102500Y92750D01*
X101000D01*
G01X126200Y120250D02*
X118550D01*
X116830Y121970D01*
X110030D01*
X108400Y120340D01*
X106340D01*
X104980Y121700D01*
X101500D01*
G01X102200Y130600D02*
X107550Y125250D01*
X113750D01*
X116000Y123000D01*
X119100D01*
X120250Y121850D01*
X132635D01*
X135841Y118644D01*
Y117144D01*
G01X219750Y142500D02*
X216500D01*
X212000Y147000D01*
X195000D01*
X194100Y146100D01*
Y144850D01*
X193170Y143920D01*
X172980D01*
X172100Y144800D01*
Y152800D01*
X171500Y153400D01*
X160200D01*
X159400Y152600D01*
Y151100D01*
X155300Y147000D01*
X147750D01*
X146750Y146000D01*
Y144500D01*
X146150Y143900D01*
X107200D01*
X106100Y145000D01*
X104500D01*
X102500Y147000D01*
X99100D01*
X97600Y145500D01*
G01X110000Y-5000D02*
X115500Y500D01*
Y7000D01*
X117500Y9000D01*
X123500D01*
X125000Y7500D01*
Y2200D01*
X126400Y800D01*
X132450D01*
X134000Y2350D01*
Y7727D01*
X138873Y12600D01*
X148000D01*
X149800Y14400D01*
X175430D01*
X179640Y18610D01*
X185010D01*
X193700Y27300D01*
Y27600D01*
G01X110000Y5000D02*
X115000Y10000D01*
X133499D01*
X138101Y14600D01*
X146800D01*
X148933Y16733D01*
X174550D01*
X178468Y20650D01*
X183050D01*
X189800Y27400D01*
Y27600D01*
G01X135821Y126576D02*
X134345Y125100D01*
X131600D01*
X128450Y128250D01*
X110500D01*
X104100Y134650D01*
Y141700D01*
G01X204000Y67100D02*
X218100D01*
X219300Y65900D01*
Y62500D01*
X215200Y58400D01*
Y42800D01*
X217900Y40100D01*
Y30700D01*
X217300Y30100D01*
X215700D01*
X214700Y31100D01*
X198350D01*
X196100Y28850D01*
Y25600D01*
X190000Y19500D01*
Y14900D01*
X187600Y12500D01*
X151300D01*
X149400Y10600D01*
X139418D01*
X136000Y7182D01*
Y1350D01*
X133500Y-1150D01*
X124100D01*
X120250Y-5000D01*
X120000D01*
G01Y5000D02*
X125150Y-150D01*
X133000D01*
X135000Y1850D01*
Y7454D01*
X139146Y11600D01*
X148600D01*
X150500Y13500D01*
X176330D01*
X180310Y17480D01*
X186480D01*
X195200Y26200D01*
Y28500D01*
X193100Y30600D01*
X189300D01*
X179400Y40500D01*
Y59000D01*
X184500Y64100D01*
X193000D01*
X196000Y67100D01*
G01X130000Y5000D02*
X138600Y13600D01*
X147500D01*
X149452Y15552D01*
X174962D01*
X179035Y19625D01*
X184225D01*
X191750Y27150D01*
Y28500D01*
X190950Y29300D01*
X189300D01*
X178500Y40100D01*
Y60500D01*
X174400Y64600D01*
Y75900D01*
X182700Y84200D01*
X189200D01*
X192000Y87000D01*
Y92000D01*
X194100Y94100D01*
Y97000D01*
X192474Y98626D01*
Y101474D01*
G01X135821Y136025D02*
X136775Y136025D01*
X138350Y137600D01*
X155200D01*
X156200Y138600D01*
Y139700D01*
X157200Y140700D01*
X162400D01*
X164400Y138700D01*
Y136100D01*
X166100Y134400D01*
X171500D01*
X172100Y133800D01*
Y132000D01*
X172796Y131304D01*
X174500D01*
X175200Y130604D01*
Y128800D01*
X175800Y128200D01*
X201500D01*
X204604Y131304D01*
X209696D01*
X210750Y130250D01*
Y128850D01*
X213700Y125900D01*
X221750D01*
X226900Y120750D01*
Y109000D01*
X230150Y105750D01*
Y98550D01*
X231600Y97100D01*
Y91500D01*
X233100Y90000D01*
Y86700D01*
X228400Y82000D01*
Y76500D01*
X226800Y74900D01*
Y35600D01*
X229300Y33100D01*
X230300D01*
G01X268500Y145750D02*
X261000D01*
X253000Y153750D01*
Y173300D01*
X243950Y182350D01*
Y185850D01*
X241050Y188750D01*
X137750D01*
X135399Y186399D01*
Y174501D01*
X135500Y174400D01*
G01X197700Y27600D02*
Y24450D01*
X191500Y18250D01*
Y14650D01*
X188400Y11550D01*
X152150D01*
X150200Y9600D01*
X144600D01*
X140000Y5000D01*
G01X208343Y129804D02*
X215148Y123000D01*
X222900D01*
X225700Y120200D01*
Y108800D01*
X229200Y105300D01*
Y98200D01*
X230700Y96700D01*
Y91100D01*
X232200Y89600D01*
Y87200D01*
X227500Y82500D01*
Y77000D01*
X225700Y75200D01*
Y35400D01*
X228700Y32400D01*
Y29300D01*
X224300Y24900D01*
X218300D01*
X213900Y29300D01*
X201050D01*
X200400Y28650D01*
Y23150D01*
X194000Y16750D01*
Y13400D01*
X190100Y9500D01*
X167250D01*
X165000Y7250D01*
Y3000D01*
X162750Y750D01*
X154250D01*
X150000Y5000D01*
G01X249000Y168250D02*
X244900Y172350D01*
Y176100D01*
X240000Y181000D01*
X162000D01*
X158000Y177000D01*
Y163500D01*
X155750Y161250D01*
X142500D01*
X140500Y159250D01*
Y148000D01*
X141500Y147000D01*
X143647D01*
X145270Y148623D01*
G01X242250Y168250D02*
X240750Y166750D01*
X234520D01*
X233600Y167670D01*
Y175150D01*
X231750Y177000D01*
X171250D01*
X169000Y174750D01*
Y160600D01*
X163800Y155400D01*
X160800D01*
X158800Y153400D01*
X154000D01*
X153200Y152600D01*
Y151323D01*
X152000Y150123D01*
X143623D01*
X142149Y148649D01*
X142105D01*
G01X142120Y151773D02*
X143598Y153250D01*
X152100D01*
X153100Y154250D01*
Y155700D01*
X153900Y156500D01*
X162600D01*
X166000Y159900D01*
Y175750D01*
X168250Y178000D01*
X234500D01*
X237000Y175500D01*
Y171250D01*
X240000Y168250D01*
G01X221250Y150016D02*
X221378D01*
X223000Y148393D01*
Y140000D01*
X222000Y139000D01*
X218700D01*
X217100Y140600D01*
X214400D01*
X212150Y142850D01*
X207150D01*
X206176Y143824D01*
X196124D01*
X193100Y140800D01*
X174500D01*
X170500Y144800D01*
Y148800D01*
X169100Y150200D01*
X160000D01*
X158900Y149100D01*
Y147500D01*
X155300Y143900D01*
X149850D01*
X149480Y144270D01*
Y144413D01*
X148420Y145474D01*
G01X246750Y168250D02*
X240900Y174100D01*
Y175600D01*
X236500Y180000D01*
X165000D01*
X161000Y176000D01*
Y164700D01*
X156300Y160000D01*
X144750D01*
X143500Y158750D01*
Y156250D01*
X144828Y154922D01*
X145270D01*
G01X145217Y158125D02*
X146278Y157064D01*
X146942Y156400D01*
X152300D01*
X155000Y159100D01*
X156700D01*
X159600Y162000D01*
X162000D01*
X165000Y165000D01*
Y176500D01*
X167500Y179000D01*
X235250D01*
X238100Y176150D01*
Y173150D01*
X239450Y171800D01*
X240950D01*
X244500Y168250D01*
G01X160000Y-5000D02*
X165300Y300D01*
X190300D01*
X194400Y4400D01*
Y10000D01*
X203500Y19100D01*
Y26000D01*
X201900Y27600D01*
G01X160000Y5000D02*
Y8800D01*
X161700Y10500D01*
X189186D01*
X192750Y14064D01*
Y17500D01*
X199500Y24250D01*
Y29164D01*
X200536Y30200D01*
X214300D01*
X218600Y25900D01*
X224000D01*
X225200Y27100D01*
Y29700D01*
X223600Y31300D01*
X221800D01*
X220600Y32500D01*
Y41100D01*
X222700Y43200D01*
Y47700D01*
X218800Y51600D01*
Y57600D01*
X222200Y61000D01*
Y67600D01*
X220000Y69800D01*
Y81000D01*
X221900Y82900D01*
X226600D01*
X228800Y85100D01*
Y89700D01*
X229800Y90700D01*
Y96300D01*
X227500Y98600D01*
X226700D01*
X225700Y99600D01*
Y106500D01*
X224500Y107700D01*
Y119600D01*
X222200Y121900D01*
X214200D01*
X211700Y124400D01*
Y124886D01*
X211287Y125299D01*
X209585Y127000D01*
X209000D01*
G01X157868Y139174D02*
X159343Y137700D01*
X161800D01*
X162500Y137000D01*
Y133900D01*
X165000Y131400D01*
X171200D01*
X172200Y130400D01*
Y125800D01*
X173100Y124900D01*
X210400D01*
X210800Y124500D01*
Y123200D01*
X215100Y118900D01*
X222000D01*
X223200Y117700D01*
Y107600D01*
X224800Y106000D01*
Y98600D01*
X225400Y98000D01*
Y95900D01*
X226900Y94400D01*
X228000D01*
X228900Y93500D01*
Y91300D01*
X227800Y90200D01*
Y85400D01*
X226400Y84000D01*
X220800D01*
X219000Y82200D01*
X211900D01*
X209900Y84200D01*
X201400D01*
X200300Y83100D01*
Y73900D01*
X201600Y72600D01*
Y66400D01*
X192000Y56800D01*
Y38000D01*
X193100Y36900D01*
Y35400D01*
X191400Y33700D01*
X189900D01*
G01X235700Y62500D02*
Y69700D01*
X229300Y76100D01*
Y81600D01*
X235000Y87300D01*
Y93500D01*
X234200Y94300D01*
X233600D01*
X232500Y95400D01*
Y97500D01*
X231100Y98900D01*
Y106100D01*
X228000Y109200D01*
Y121300D01*
X222500Y126800D01*
X216400D01*
X215400Y127800D01*
Y129600D01*
X214400Y130600D01*
X213200D01*
X209400Y134400D01*
X198000D01*
X197200Y135200D01*
Y140300D01*
X196400Y141100D01*
X194800D01*
X194000Y140300D01*
Y138000D01*
X193700Y137700D01*
X174800D01*
X172700Y139800D01*
X170000D01*
X168900Y140900D01*
Y143000D01*
X163277Y148623D01*
X161018D01*
G01X170000Y-5000D02*
X174300Y-700D01*
X190700D01*
X195400Y4000D01*
Y9161D01*
X204939Y18700D01*
Y26539D01*
X205800Y27400D01*
Y27600D01*
G01X173619Y145474D02*
X175367Y147222D01*
Y149202D01*
X175368Y149204D01*
Y165168D01*
X181900Y171700D01*
X196700D01*
X197900Y172900D01*
X213200D01*
X215500Y170600D01*
G01X209600Y33700D02*
Y33000D01*
X208700Y32100D01*
X189300D01*
X180500Y40900D01*
Y58700D01*
X185000Y63200D01*
X194800D01*
X198200Y66600D01*
Y67900D01*
X197000Y69100D01*
X194900D01*
X194000Y70000D01*
Y83000D01*
X195000Y84000D01*
X196250D01*
X197250Y85000D01*
Y86250D01*
X198250Y87250D01*
X199500D01*
X200250Y88000D01*
Y90291D01*
X201926Y91967D01*
G01X219500Y170600D02*
Y168900D01*
X217600Y167000D01*
X210700D01*
X206300Y162600D01*
X196400D01*
X190800Y157000D01*
Y154000D01*
X190000Y153200D01*
X188500D01*
X187800Y152500D01*
Y150800D01*
X187197Y150197D01*
X185697D01*
X184123Y148623D01*
X183068D01*
X183066Y148622D01*
G01X203500Y170600D02*
X201900Y169000D01*
X185250D01*
X181492Y165242D01*
Y151097D01*
X182408Y150182D01*
X184232D01*
X185824Y151773D01*
X186216D01*
Y151772D01*
G01X207500Y170600D02*
X206000Y172100D01*
X198400D01*
X196850Y170550D01*
X183050D01*
X178342Y165842D01*
Y147047D01*
X179130Y146260D01*
X179132D01*
X179917Y145475D01*
Y145472D01*
G01X223500Y170600D02*
X222000Y172100D01*
X218600D01*
X218000Y171500D01*
Y168800D01*
X217200Y168000D01*
X210400D01*
X208400Y166000D01*
X194500D01*
X190800Y162300D01*
Y158800D01*
X187800Y155800D01*
Y154000D01*
X187146Y153346D01*
X184641D01*
X183066Y151772D01*
G01X232000Y170900D02*
Y158100D01*
X228800Y154900D01*
X215800D01*
X214300Y153400D01*
X206000D01*
X202900Y156500D01*
X201200D01*
X200400Y155700D01*
Y151200D01*
X199400Y150200D01*
X194800D01*
X194100Y149500D01*
Y148000D01*
X193100Y147000D01*
X181539D01*
X179919Y148620D01*
Y148622D01*
G01X211500Y170600D02*
X210300D01*
X207400Y167700D01*
X187450D01*
X184672Y164922D01*
Y157472D01*
X183066Y155866D01*
Y154921D01*
G01X186216D02*
Y156016D01*
X187750Y157550D01*
Y162750D01*
X191800Y166800D01*
X207950D01*
X209950Y168800D01*
X216550D01*
X217000Y169250D01*
Y171750D01*
X218150Y172900D01*
X224200D01*
X226500Y170600D01*
G01X195700Y2100D02*
X197600Y200D01*
X204900D01*
X210000Y-4900D01*
Y-5000D01*
G01X216350Y31650D02*
X216250D01*
X215800Y32100D01*
X212700D01*
X212000Y32800D01*
Y33700D01*
X212900Y34600D01*
Y36000D01*
X212000Y36900D01*
X210600D01*
X208400Y34700D01*
X206700D01*
X206100Y35300D01*
X204800D01*
X203300Y33800D01*
X197600D01*
G01X217800Y64000D02*
Y63900D01*
X215700Y61800D01*
X198500D01*
X192900Y56200D01*
Y38400D01*
X195200Y36100D01*
G01X205076Y88818D02*
X203558Y87300D01*
X201300D01*
X200400Y86400D01*
Y84900D01*
X199700Y84200D01*
X198000D01*
X196400Y82600D01*
Y76300D01*
X197900Y74800D01*
Y70900D01*
X200300Y68500D01*
Y66400D01*
X190900Y57000D01*
Y38600D01*
X189500Y37200D01*
Y37000D01*
G01X213600Y128500D02*
Y128900D01*
X210200Y132300D01*
X204100D01*
X201600Y129800D01*
X196200D01*
X194000Y132000D01*
Y136700D01*
X195500Y138200D01*
Y139000D01*
X195669Y139169D01*
G01X209600Y27600D02*
X210000D01*
X213400Y24200D01*
Y20100D01*
X211800Y18500D01*
Y11100D01*
X214000Y8900D01*
Y1000D01*
X220000Y-5000D01*
G01X201926Y82518D02*
X203500Y80945D01*
Y74100D01*
X202500Y73100D01*
Y70200D01*
X203600Y69100D01*
X205450D01*
X206400Y68150D01*
X218350D01*
X220200Y66300D01*
Y61900D01*
X216200Y57900D01*
Y43200D01*
X218800Y40600D01*
Y31000D01*
X222100Y27700D01*
X223600D01*
G01X205076Y79369D02*
X205900Y78544D01*
Y70500D01*
X207300Y69100D01*
X218800D01*
X221100Y66800D01*
Y61300D01*
X217500Y57700D01*
Y51400D01*
X221800Y47100D01*
Y43600D01*
X219700Y41500D01*
Y31500D01*
X221400Y29800D01*
X222900D01*
G01X213600Y132500D02*
X213700Y132600D01*
Y134100D01*
X210200Y137600D01*
X200390D01*
X198816Y139174D01*
G01X198776Y142285D02*
X199815D01*
X201350Y140750D01*
X211050D01*
X213100Y138700D01*
X214700D01*
X215700Y137700D01*
Y131300D01*
X216500Y130500D01*
X219250D01*
X221250Y128500D01*
G01X233200Y145200D02*
X233500D01*
X234100Y145800D01*
Y148200D01*
X231300Y151000D01*
X226750D01*
X224650Y153100D01*
X220400D01*
X218400Y151100D01*
X202638D01*
X201965Y151773D01*
G01X232500Y147300D02*
X232032D01*
X229332Y150000D01*
X224750D01*
X222750Y152000D01*
X220700D01*
X218900Y150200D01*
X201200D01*
X199623Y148623D01*
X198816D01*
G01X221250Y140500D02*
X219200D01*
X218200Y141500D01*
X215500D01*
X213020Y143980D01*
X207779D01*
X206285Y145474D01*
X205115D01*
G01X234900Y109300D02*
X235700Y110100D01*
Y148000D01*
X229700Y154000D01*
X216300D01*
X214700Y152400D01*
X204486D01*
X201926Y154960D01*
G01X205115Y142324D02*
X206276D01*
X206600Y142000D01*
X211400D01*
X213800Y139600D01*
X216900D01*
X219250Y137250D01*
Y133350D01*
X226200Y126400D01*
X228200D01*
X229100Y125500D01*
Y109500D01*
X232100Y106500D01*
Y99300D01*
X234000Y97400D01*
Y96500D01*
G01X213400Y27600D02*
X218400Y22600D01*
Y6600D01*
X220000Y5000D01*
G01X225400Y31700D02*
X225600Y31900D01*
Y32900D01*
X222900Y35600D01*
X222400D01*
X221500Y36500D01*
Y40500D01*
X223700Y42700D01*
Y72900D01*
X222000Y74600D01*
G01X227000Y29800D02*
X227100Y29900D01*
Y32700D01*
X224700Y35100D01*
Y75900D01*
X226000Y77200D01*
Y77900D01*
G01X232500Y156250D02*
X236700Y152050D01*
Y108400D01*
X235500Y107200D01*
Y94600D01*
X235900Y94200D01*
Y86900D01*
X230200Y81200D01*
Y76500D01*
X237200Y69500D01*
Y41200D01*
X236800Y40800D01*
G54D15*
G01X132672Y158072D02*
X137090Y162490D01*
X155490D01*
X156950Y163950D01*
Y177950D01*
X161000Y182000D01*
X242300D01*
X251000Y173300D01*
Y167200D01*
X248500Y164700D01*
X240900D01*
X237900Y161700D01*
Y108500D01*
X238800Y107600D01*
Y95760D01*
X237590Y94550D01*
Y87190D01*
X231200Y80800D01*
Y76900D01*
X238500Y69600D01*
Y37700D01*
X224600Y23800D01*
Y22100D01*
G01X201500Y21800D02*
X195800Y16100D01*
Y13600D01*
X190700Y8500D01*
X173300D01*
X170000Y5200D01*
Y5000D01*
G01X-32500Y-12500D02*
X232500D01*
G03X282500Y37500I0J50000D01*
G01Y152500D01*
G03X232500Y202500I-50000J0D01*
G01X-32500D01*
G03X-57500Y177500I0J-25000D01*
G01Y12500D01*
G03X-32500Y-12500I25000J0D01*
G54D16*
G01X-23000Y24200D02*
X-22500Y24700D01*
Y26622D01*
X-23621Y27743D01*
X-25325D01*
X-27389Y25680D01*
X-30022D01*
X-30859Y26517D01*
G01X-24200Y26100D02*
X-24300Y26200D01*
X-25200D01*
X-26800Y24600D01*
Y22900D01*
X-27100Y22600D01*
X-28200D01*
X-28600Y23000D01*
Y24100D01*
X-29000Y24500D01*
X-29727D01*
X-30859Y23368D01*
G54D17*
G01X157152Y31415D02*
X156030D01*
X155419Y32026D01*
Y32578D01*
X152500Y35497D01*
Y37000D01*
X147400Y42100D01*
X144197D01*
X140100Y46195D01*
Y53897D01*
X126697Y67300D01*
X99797D01*
X99200Y67897D01*
Y85903D01*
X100323Y87026D01*
X111919D01*
X112419Y86526D01*
Y86026D01*
X112919Y85526D01*
X113419D01*
X113919Y86026D01*
Y86526D01*
X114419Y87026D01*
X114919D01*
X115419Y86526D01*
Y86026D01*
X115919Y85526D01*
X116419D01*
X116919Y86026D01*
Y86526D01*
X117419Y87026D01*
X117919D01*
X118419Y86526D01*
Y85776D01*
X118919Y85276D01*
X119824D01*
X120074Y85526D01*
Y85630D01*
G01X154002Y31415D02*
Y32298D01*
X151300Y35000D01*
Y36503D01*
X146903Y40900D01*
X143700D01*
X138900Y45698D01*
Y53400D01*
X126200Y66100D01*
X99300D01*
X98000Y67400D01*
Y86400D01*
X99826Y88226D01*
X118467D01*
X119419Y87276D01*
X120529D01*
X122117Y85688D01*
X123224D01*
Y85630D01*
G01X267300Y84200D02*
X267200Y84300D01*
X258303D01*
X256703Y85900D01*
X249100D01*
X245400Y89600D01*
G01X247600Y89700D02*
X247700Y89600D01*
Y88997D01*
X249597Y87100D01*
X257200D01*
X258800Y85500D01*
X266200D01*
X267000Y86300D01*
X267500D01*
X267700Y86500D01*
G01X267000Y91900D02*
Y91700D01*
X266200Y90900D01*
X263100D01*
X259600Y94400D01*
Y96400D01*
X255200Y100800D01*
X251800D01*
X250500Y99500D01*
X249200D01*
X248700Y100000D01*
G01X267000Y89500D02*
X266700D01*
X266500Y89700D01*
X262603D01*
X258400Y93903D01*
Y95903D01*
X254703Y99600D01*
X252297D01*
X250997Y98300D01*
X249400D01*
X248700Y97600D01*
G54D18*
G01X144750Y33187D02*
Y32250D01*
X136600Y24100D01*
Y21100D01*
X131500Y16000D01*
X119843D01*
X117703Y18139D01*
X115139D01*
X112500Y15500D01*
X108475D01*
X108000Y15975D01*
Y16000D01*
G01X107250Y19000D02*
X112000D01*
X114139Y21139D01*
X118703D01*
X120843Y19000D01*
X128064D01*
X130453Y21389D01*
Y22826D01*
X140813Y33187D01*
G01X136876D02*
Y32813D01*
X127203Y23139D01*
Y21453D01*
X126250Y20500D01*
X121342D01*
X119203Y22639D01*
X113639D01*
X111750Y20750D01*
X110250D01*
G01Y17250D02*
X112250D01*
X114639Y19639D01*
X118203D01*
X120342Y17500D01*
X130064D01*
X133500Y20936D01*
Y23500D01*
X142782Y32782D01*
Y36139D01*
G01X108750Y31250D02*
X109250Y31500D01*
X119442D01*
X121128Y33187D01*
G01X107250Y29500D02*
X110500D01*
X111000Y30000D01*
X121879D01*
X125065Y33187D01*
G01X110250Y24250D02*
X111250D01*
X112639Y25639D01*
X125392D01*
X132939Y33187D01*
G01X107250Y26000D02*
X111000D01*
X112139Y27139D01*
X124139D01*
X129002Y32002D01*
Y33187D01*
G01X110250Y27750D02*
X110750D01*
X111639Y28639D01*
X122703D01*
X127034Y32970D01*
Y36139D01*
G01X107250Y22500D02*
X111500D01*
X113139Y24139D01*
X126203D01*
X134908Y32844D01*
Y36139D01*
G01X107250Y33000D02*
X113068D01*
X113254Y33187D01*
G01X107250Y47000D02*
X113220D01*
X121128Y39092D01*
G01X108750Y34750D02*
X114092D01*
X115656Y33187D01*
X117191D01*
G01X107250Y36500D02*
X113250D01*
X114389Y37639D01*
X115756D01*
X117703Y35692D01*
Y35639D01*
X118660D01*
X119160Y36139D01*
G01X107250Y43500D02*
X108846D01*
X113254Y39092D01*
G01X108750Y45250D02*
X111034D01*
X117191Y39092D01*
G01X132939D02*
Y39961D01*
X124069Y48831D01*
Y51031D01*
X119350Y55750D01*
X108750D01*
G01X107250Y57500D02*
X120843D01*
X127203Y51139D01*
Y48639D01*
X136750Y39092D01*
X136876D01*
G01X107250Y50500D02*
X114500D01*
X125065Y39935D01*
Y39092D01*
G01X108750Y48750D02*
X114092D01*
X123097Y39746D01*
Y36139D01*
G01X108750Y52250D02*
X115844D01*
X129002Y39092D01*
G01X107250Y54000D02*
X116269D01*
X130971Y39298D01*
Y36139D01*
G01X108750Y62750D02*
X125092D01*
X136703Y51139D01*
Y45750D01*
X142976Y39478D01*
X144365D01*
X144750Y39092D01*
G01X107250Y61000D02*
X123842D01*
X133560Y51283D01*
Y46585D01*
X140813Y39331D01*
Y39092D01*
G01X108750Y59250D02*
X122092D01*
X130390Y50952D01*
Y47854D01*
X138828Y39416D01*
Y36139D01*
G01X150853Y47163D02*
X149782D01*
X148169Y48775D01*
X147066D01*
X146166Y49676D01*
Y50934D01*
X127324Y69776D01*
X108669D01*
X108169Y70276D01*
Y71026D01*
X107669Y71526D01*
X104169D01*
X103669Y72026D01*
Y72776D01*
X104169Y73276D01*
X107669D01*
X108169Y73776D01*
Y74526D01*
X107669Y75026D01*
X104169D01*
X103669Y75526D01*
Y76276D01*
X104169Y76776D01*
X107669D01*
X108169Y77276D01*
Y78026D01*
X107669Y78526D01*
X104169D01*
X103669Y79026D01*
Y83526D01*
X104169Y84026D01*
X104919D01*
X105419Y83526D01*
Y80776D01*
X105919Y80276D01*
X106669D01*
X107169Y80776D01*
Y83526D01*
X107669Y84026D01*
X108419D01*
X108919Y83526D01*
Y81526D01*
X109419Y81026D01*
X110169D01*
X110669Y81526D01*
Y83526D01*
X111169Y84026D01*
X111919D01*
X112419Y83526D01*
Y81526D01*
X112919Y81026D01*
X113669D01*
X114169Y81526D01*
Y83526D01*
X114669Y84026D01*
X115419D01*
X115919Y83526D01*
Y81526D01*
X116419Y81026D01*
X117169D01*
X117669Y81526D01*
Y83526D01*
X118169Y84026D01*
X119574D01*
X120074Y83526D01*
Y82480D01*
G01X147703Y44013D02*
X149278Y45588D01*
X151640D01*
X152428Y46376D01*
Y47863D01*
X151491Y48800D01*
X150300D01*
X149278Y49822D01*
Y50313D01*
X149274Y50317D01*
Y53421D01*
X148669Y54026D01*
X144919D01*
X131169Y67776D01*
Y70776D01*
X130669Y71276D01*
X120419D01*
X119919Y71776D01*
Y74026D01*
X120419Y74526D01*
X121169D01*
X121669Y75026D01*
Y77276D01*
X121144Y77800D01*
X118943D01*
X118419Y77276D01*
Y71776D01*
X117919Y71276D01*
X117169D01*
X116669Y71776D01*
Y77276D01*
X116169Y77776D01*
X115419D01*
X114919Y77276D01*
Y71776D01*
X114419Y71276D01*
X113669D01*
X113169Y71776D01*
Y77276D01*
X112669Y77776D01*
X111919D01*
X111419Y77276D01*
Y71776D01*
X110919Y71276D01*
X110169D01*
X109669Y71776D01*
Y79026D01*
X110169Y79526D01*
X117669D01*
X118919Y80776D01*
X121669D01*
X123224Y82331D01*
Y82480D01*
G01X154002Y44013D02*
Y45102D01*
X155440Y46540D01*
Y48026D01*
X154690Y48776D01*
X153419D01*
X152419Y49776D01*
Y51776D01*
X151669Y52526D01*
Y55026D01*
X151169Y55526D01*
X145419D01*
X141169Y59776D01*
Y62276D01*
X140669Y62776D01*
X138169D01*
X137669Y63276D01*
Y64026D01*
X138169Y64526D01*
X141919D01*
X142419Y65026D01*
Y65776D01*
X141919Y66276D01*
X134669D01*
X134169Y66776D01*
Y67526D01*
X134669Y68026D01*
X141919D01*
X142419Y68526D01*
Y69276D01*
X141919Y69776D01*
X133169D01*
X132669Y70276D01*
Y72276D01*
X132169Y72776D01*
X123669D01*
X123169Y73276D01*
Y74026D01*
X123669Y74526D01*
X130669D01*
X131169Y75026D01*
Y77276D01*
X130669Y77776D01*
X125419D01*
X124799Y78396D01*
Y86319D01*
X123776Y87342D01*
X122628D01*
X121787Y88184D01*
Y92854D01*
X122437Y93504D01*
X127985D01*
X129542Y91948D01*
G01X126392D02*
X124799Y90354D01*
Y88189D01*
X125783Y87205D01*
X136490D01*
X137397Y86297D01*
Y81890D01*
X138382Y80906D01*
X146419D01*
X146919Y80406D01*
Y73526D01*
X147419Y73026D01*
X152919D01*
X153419Y72526D01*
Y71776D01*
X152919Y71276D01*
X147419D01*
X146919Y70776D01*
Y70026D01*
X147419Y69526D01*
X152919D01*
X153419Y69026D01*
Y68276D01*
X152919Y67776D01*
X147419D01*
X146919Y67276D01*
Y66526D01*
X147419Y66026D01*
X152919D01*
X153419Y65526D01*
Y60526D01*
X153919Y60026D01*
X160669D01*
X161169Y59526D01*
Y57026D01*
X161669Y56526D01*
X166169D01*
X166669Y56026D01*
Y55276D01*
X166169Y54776D01*
X163669D01*
X163169Y54276D01*
Y53526D01*
X163669Y53026D01*
X164419D01*
X165000Y52445D01*
Y46169D01*
X164419Y45588D01*
X162907D01*
X162014Y44695D01*
Y43120D01*
X161332Y42439D01*
X159702D01*
X158290Y41026D01*
X157315D01*
X157152Y40864D01*
G01X126392Y88798D02*
X128004Y90410D01*
X130268D01*
X131098Y91240D01*
Y92716D01*
X131885Y93504D01*
X133263D01*
X134248Y94488D01*
Y95866D01*
X135035Y96654D01*
X136610D01*
X137397Y95866D01*
Y94488D01*
X138382Y93504D01*
X139759D01*
X140547Y92716D01*
Y91339D01*
X141531Y90354D01*
X142909D01*
X143696Y89567D01*
Y88189D01*
X144860Y87026D01*
X147669D01*
X159500Y75195D01*
Y73500D01*
X174475Y58525D01*
Y38582D01*
X168302Y32408D01*
Y31027D01*
X167219Y29944D01*
X166235D01*
X165153Y28862D01*
Y27878D01*
X164070Y26796D01*
X163087D01*
X162004Y25713D01*
Y24729D01*
X160875Y23600D01*
X152368D01*
X150853Y25116D01*
G01X160302Y28265D02*
Y29158D01*
X161919Y30776D01*
Y33026D01*
X161419Y33526D01*
X160608D01*
X160169Y33965D01*
Y34586D01*
X160608Y35026D01*
X164169D01*
X164669Y35526D01*
Y36276D01*
X164169Y36776D01*
X159419D01*
X158919Y37276D01*
Y38776D01*
X158419Y39276D01*
X156115D01*
X155615Y39776D01*
Y41544D01*
X156590Y42520D01*
X157913D01*
X158657Y43264D01*
Y44534D01*
X159711Y45588D01*
X160988D01*
X161800Y46400D01*
Y54715D01*
X161239Y55276D01*
X160169D01*
X159669Y55776D01*
Y58026D01*
X159169Y58526D01*
X152419D01*
X151919Y59026D01*
Y64026D01*
X151419Y64526D01*
X145919D01*
X145419Y65026D01*
Y72276D01*
X144919Y72776D01*
X136169D01*
X135669Y73276D01*
Y74026D01*
X136169Y74526D01*
X143169D01*
X143669Y75026D01*
Y77276D01*
X143169Y77776D01*
X137897D01*
X137397Y78276D01*
Y79921D01*
X136413Y80906D01*
X135289D01*
X134169Y82026D01*
Y83526D01*
X133669Y84026D01*
X131669D01*
X131169Y84526D01*
Y85276D01*
X130669Y85776D01*
X128919D01*
X128419Y85276D01*
Y84526D01*
X127919Y84026D01*
X126919D01*
X126392Y84552D01*
Y85648D01*
G01X154002Y28265D02*
X155615Y29878D01*
X158194D01*
X158854Y30537D01*
Y34866D01*
X157419Y36300D01*
Y37276D01*
X156919Y37776D01*
X154419D01*
X152428Y39767D01*
Y41651D01*
X153215Y42439D01*
X154639D01*
X155577Y43377D01*
Y44801D01*
X156365Y45588D01*
X157732D01*
X158669Y46526D01*
Y47876D01*
X157869Y48676D01*
X156624D01*
X155569Y49731D01*
Y51276D01*
X156193Y51900D01*
X158173D01*
X158648Y52375D01*
Y53046D01*
X158169Y53526D01*
X153669D01*
X153169Y54026D01*
Y54776D01*
X153669Y55276D01*
X157669D01*
X158169Y55776D01*
Y56526D01*
X157669Y57026D01*
X150919D01*
X150419Y57526D01*
Y62526D01*
X149919Y63026D01*
X149169D01*
X148669Y62526D01*
Y57526D01*
X148169Y57026D01*
X147419D01*
X146919Y57526D01*
Y59026D01*
X146419Y59526D01*
X144669D01*
X144169Y60026D01*
Y60776D01*
X144669Y61276D01*
X146419D01*
X146919Y61776D01*
Y62526D01*
X146419Y63026D01*
X144419D01*
X143919Y63526D01*
Y70776D01*
X143419Y71276D01*
X134669D01*
X134169Y71776D01*
Y80026D01*
X133289Y80906D01*
X127985D01*
X126392Y82499D01*
G01X129542Y88798D02*
X130498D01*
X132010Y90310D01*
X133416D01*
X134248Y91142D01*
Y92618D01*
X135134Y93504D01*
X136511D01*
X137397Y92618D01*
Y91339D01*
X138382Y90354D01*
X139563D01*
X140547Y89370D01*
Y87992D01*
X141334Y87205D01*
X142712D01*
X144391Y85526D01*
X146919D01*
X149919Y82526D01*
Y78776D01*
X150919Y77776D01*
X154919D01*
X156419Y76276D01*
Y73276D01*
X156919Y72776D01*
X158169D01*
X158669Y72276D01*
Y71526D01*
X158169Y71026D01*
X156919D01*
X156419Y70526D01*
Y68526D01*
X156919Y68026D01*
X163169D01*
X171325Y59869D01*
Y39932D01*
X165026Y33633D01*
Y30628D01*
X164239Y29840D01*
X162984D01*
X161876Y28733D01*
Y27478D01*
X161126Y26728D01*
X149669D01*
X149169Y27228D01*
Y27765D01*
X149669Y28265D01*
X150853D01*
G01X160302Y40864D02*
X160419D01*
Y38776D01*
X160919Y38276D01*
X167669D01*
X168169Y38776D01*
Y52276D01*
X168669Y52776D01*
X169419D01*
X169919Y53276D01*
Y54026D01*
X169419Y54526D01*
X168669D01*
X168169Y55026D01*
Y55776D01*
X168669Y56276D01*
X169419D01*
X169919Y56776D01*
Y57526D01*
X169419Y58026D01*
X163169D01*
X162669Y58526D01*
Y59276D01*
X163169Y59776D01*
X167669D01*
X168169Y60276D01*
Y61026D01*
X167669Y61526D01*
X163119D01*
X162644Y62000D01*
Y66026D01*
X162144Y66526D01*
X161245D01*
X160745Y66026D01*
Y62000D01*
X160270Y61526D01*
X159320D01*
X158846Y62000D01*
Y66026D01*
X158346Y66526D01*
X157446D01*
X156946Y66026D01*
Y62000D01*
X156472Y61526D01*
X155419D01*
X154919Y62026D01*
Y74026D01*
X154419Y74526D01*
X148919D01*
X148419Y75026D01*
Y82026D01*
X146424Y84020D01*
X141413D01*
X140658Y84776D01*
Y86037D01*
X139430Y87265D01*
X138408D01*
X137397Y88276D01*
Y89370D01*
X135804Y90963D01*
Y91948D01*
G54D19*
G01X135841Y123407D02*
X130593D01*
X127250Y126750D01*
X108350D01*
X106000Y129100D01*
M02*
