G04 ================== begin FILE IDENTIFICATION RECORD ==================*
G04 Layout Name:  C:/Users/a0321898/Documents/GitHub/beaglebone-ai/HW/BeagleBone-AI.brd*
G04 Film Name:    LAY6_PWR*
G04 File Format:  Gerber RS274X*
G04 File Origin:  Cadence Allegro 17.2-S049*
G04 Origin Date:  Wed Feb 19 11:28:09 2020*
G04 *
G04 Layer:  VIA CLASS/PWR_L6*
G04 Layer:  PIN/PWR_L6*
G04 Layer:  ETCH/PWR_L6*
G04 Layer:  BOARD GEOMETRY/OUTLINE*
G04 *
G04 Offset:    (0.000 0.000)*
G04 Mirror:    No*
G04 Mode:      Positive*
G04 Rotation:  0*
G04 FullContactRelief:  No*
G04 UndefLineWidth:     5.000*
G04 ================== end FILE IDENTIFICATION RECORD ====================*
%FSLAX25Y25*MOIN*%
%IR0*IPPOS*OFA0.00000B0.00000*MIA0B0*SFA1.00000B1.00000*%
%ADD11C,.016*%
%ADD12C,.062*%
%ADD14C,.065*%
%ADD13C,.023622*%
%ADD10C,.03937*%
%ADD15C,.004*%
%ADD16C,.04*%
%ADD17C,.015*%
%ADD18C,.005*%
%ADD19C,.024004*%
%ADD21C,.070004*%
%ADD22C,.066004*%
%ADD20C,.068004*%
%ADD23C,.053626*%
G75*
%LPD*%
G75*
G36*
G01X24700Y600D02*
X23500Y1800D01*
Y9600D01*
X24800Y10900D01*
X33000D01*
X44200Y22100D01*
X49230D01*
G03X50715I743J943D01*
G01X52406D01*
X52452Y22073D01*
G03X53654I601J1039D01*
G01X53700Y22100D01*
X54049D01*
X54088Y21950D01*
G03X56000Y21313I1162J300D01*
G02X56500I250J-312D01*
G03X58188Y21501I750J937D01*
G02X58750Y21563I312J-250D01*
G03X60584Y21986I750J937D01*
G01X60639Y22100D01*
X79100D01*
X80369Y20831D01*
G02X80364Y20261I-283J-283D01*
G03X80281Y18629I836J-861D01*
G02Y18371I-153J-129D01*
G03X80318Y16786I919J-771D01*
G02Y16514I-147J-136D01*
G03X82082I882J-814D01*
G02Y16786I147J136D01*
G03X82119Y18371I-882J814D01*
G02Y18629I153J129D01*
G03X82174Y18698I-919J772D01*
G01X82183Y18711D01*
X82336Y18864D01*
X84721Y16480D01*
G02X84703Y15898I-283J-283D01*
G03X86398Y14203I797J-898D01*
G02X86980Y14221I299J-266D01*
G01X89100Y12100D01*
X89461D01*
X104537Y12100D01*
G03X105863I663J1000D01*
G01X165239D01*
X165900Y12100D01*
X189602Y35802D01*
X189668Y35812D01*
G03X189957Y35890I-168J1188D01*
G02X190481Y35665I152J-370D01*
G03X191909Y37260I1119J435D01*
G02X191729Y37929I103J387D01*
G01X198178Y44378D01*
X198214Y44393D01*
G03X198857Y45036I-464J1107D01*
G01X198872Y45072D01*
X200102Y46302D01*
X200168Y46312D01*
G03X201188Y47332I-168J1188D01*
G01X201198Y47398D01*
X204102Y50302D01*
X204168Y50312D01*
G03X205188Y51332I-168J1188D01*
G01X205198Y51398D01*
X207794Y53994D01*
G02X208457Y53833I283J-283D01*
G03X209967Y55343I1143J367D01*
G02X209806Y56006I122J381D01*
G01X210400Y56600D01*
Y87605D01*
G03Y89395I-800J895D01*
G01Y90536D01*
G03Y91864I-1000J664D01*
G01Y104680D01*
G03Y104720I-1200J20D01*
G01Y123156D01*
X210407Y123182D01*
G03Y123818I-1157J318D01*
G01X210400Y123844D01*
Y159900D01*
X206270Y164030D01*
X206292Y164135D01*
G03X204878Y165548I-1177J237D01*
G01X204773Y165527D01*
X200450Y169850D01*
X200530Y169984D01*
G03X198884Y171630I-1030J616D01*
G01X198750Y171550D01*
X193000Y177300D01*
X192539D01*
X114817Y177300D01*
G03X112906Y177604I-1067J-550D01*
G02X112344I-281J284D01*
G03X110433Y177300I-844J-853D01*
G01X106567D01*
G03X104433I-1067J-550D01*
G01X103093D01*
G03X101025I-1034J-609D01*
G01X97939D01*
G03X95861I-1039J-600D01*
G01X33361D01*
X31400Y177300D01*
X25730Y171630D01*
G02X25111Y171697I-283J283D01*
G03X23453Y170039I-1011J-647D01*
G02X23520Y169420I-216J-337D01*
G01X16971Y162871D01*
X16839Y162946D01*
G03X15204Y161311I-589J-1046D01*
G01X15279Y161179D01*
X8273Y154173D01*
X8174Y154188D01*
G03X6812Y152826I-174J-1188D01*
G01X6827Y152727D01*
X0Y145900D01*
X-22901D01*
G02X-23300Y146313I0J400D01*
G03X-25700I-1200J38D01*
G02X-26099Y145900I-400J-13D01*
G01X-33900D01*
X-35800Y147800D01*
Y169000D01*
X-28398Y176402D01*
X-28332Y176412D01*
G03X-27312Y177432I-168J1188D01*
G01X-27302Y177498D01*
X-26800Y178000D01*
X-26049D01*
G02X-25650Y177612I0J-400D01*
G03X-23250I1200J38D01*
G02X-22851Y178000I400J-13D01*
G01X-11294D01*
G03X-9706I794J900D01*
G01X11100D01*
X14200Y181100D01*
X74656D01*
X74682Y181093D01*
G03X75318I318J1157D01*
G01X75344Y181100D01*
X79962D01*
G02X80284Y180463I0J-400D01*
G03X82216I966J-713D01*
G02X82538Y181100I322J237D01*
G01X222900D01*
X225300Y178700D01*
Y175539D01*
X225300Y167561D01*
X225300Y166800D01*
X233800Y158300D01*
Y157573D01*
G02X233175Y157242I-400J0D01*
G03Y155258I-675J-992D01*
G02X233800Y154927I225J-331D01*
G01Y148623D01*
G02X233175Y148292I-400J0D01*
G03X231940Y146238I-675J-992D01*
G02X232115Y145713I-187J-354D01*
G03X233350Y144009I1085J-513D01*
G02X233800Y143612I50J-397D01*
G01Y138307D01*
X233643Y138272D01*
G03Y135928I257J-1172D01*
G01X233800Y135893D01*
Y109781D01*
X233786Y109745D01*
G03X235146Y108125I1114J-445D01*
G01X235252Y108148D01*
X236400Y107000D01*
X240930D01*
X240979Y106871D01*
G03X241306Y106400I1121J429D01*
G02Y105800I-265J-300D01*
G03X240909Y105049I794J-900D01*
G02X240459Y104702I-397J50D01*
G03X239506Y102613I-159J-1190D01*
G02Y102013I-265J-300D01*
G03X239996Y99952I794J-900D01*
G02X240246Y99374I-101J-387D01*
G03X240506Y97900I1054J-573D01*
G02Y97300I-265J-300D01*
G03X240178Y95974I794J-900D01*
G02X239878Y95440I-374J-142D01*
G03X239306Y93360I222J-1179D01*
G02Y92760I-265J-300D01*
G03X240894I794J-900D01*
G02Y93360I265J300D01*
G03X241222Y94686I-794J900D01*
G02X241522Y95221I374J142D01*
G03X242094Y97300I-222J1179D01*
G02Y97900I265J300D01*
G03X241604Y99961I-794J900D01*
G02X241354Y100539I101J387D01*
G03X241094Y102013I-1054J573D01*
G02Y102613I265J300D01*
G03X241491Y103364I-794J900D01*
G02X241941Y103710I397J-50D01*
G03X242894Y105800I159J1190D01*
G02Y106400I265J300D01*
G03X243221Y106871I-794J900D01*
G01X243270Y107000D01*
X253300D01*
X253968Y107668D01*
X254024Y107682D01*
G03X254918Y108576I-274J1168D01*
G01X254932Y108632D01*
X255900Y109600D01*
Y131828D01*
G02X256375Y132221I400J0D01*
G03Y134579I225J1179D01*
G02X255900Y134972I-75J393D01*
G01Y160900D01*
X258700Y163700D01*
X261600D01*
X270600Y154700D01*
Y105800D01*
X267200Y102400D01*
Y95700D01*
X270600Y92300D01*
Y89197D01*
X270500Y89140D01*
G03Y87061I600J-1040D01*
G01X270600Y87003D01*
Y85997D01*
X270500Y85940D01*
G03X270177Y84133I600J-1039D01*
G01X270293Y83993D01*
X269100Y82800D01*
X268549D01*
G02X268237Y83450I0J400D01*
G03X268259Y84922I-937J750D01*
G02X268359Y85497I320J241D01*
G03X267064Y87518I-659J1003D01*
G02X266514Y87643I-212J339D01*
G03X266136Y85982I-1014J-643D01*
G02X266686Y85857I212J-339D01*
G03X266741Y85778I1013J643D01*
G02X266641Y85203I-320J-241D01*
G03X266363Y83450I659J-1003D01*
G02X266051Y82800I-312J-250D01*
G01X255462D01*
G02X255172Y83475I0J400D01*
G03X253428I-872J825D01*
G02X253138Y82800I-290J-275D01*
G01X251900D01*
X248300Y86400D01*
X235600D01*
X230900Y81700D01*
Y76000D01*
X236700Y70200D01*
X249303D01*
G02X249702Y69775I0J-400D01*
G03X252098I1198J-75D01*
G02X252497Y70200I399J25D01*
G01X265700D01*
X268571Y67329D01*
G02X268391Y66660I-283J-283D01*
G03X269900Y65515I309J-1160D01*
G01X269899Y65599D01*
X270100Y65800D01*
X270500Y65400D01*
Y50200D01*
X269700Y49400D01*
X264139D01*
G02X263779Y49975I0J400D01*
G03X261621I-1079J525D01*
G02X261261Y49400I-360J-175D01*
G01X254110D01*
X254097Y49586D01*
G03X251703Y49586I-1197J-86D01*
G01X251690Y49400D01*
X243961D01*
X243800Y49400D01*
X242000Y47600D01*
X234689D01*
G02X234336Y48189I0J400D01*
G03X228164I-3086J1651D01*
G02X227811Y47600I-353J-189D01*
G01X219000D01*
X213800Y42400D01*
Y42239D01*
X213700Y42139D01*
Y35561D01*
X213800Y35461D01*
Y35300D01*
X214024Y35076D01*
X213839Y34891D01*
X213778Y34880D01*
G03X215047Y33113I222J-1179D01*
G02X215596Y33262I349J-196D01*
G03X215882Y33143I603J1038D01*
G02X215904Y32764I-53J-193D01*
G03X217477Y32062I446J-1114D01*
G02X217853Y32600I376J138D01*
G01X222105D01*
G03X223840Y32543I895J800D01*
G01X223898Y32600D01*
X224387D01*
Y32346D01*
X224360Y32300D01*
G03X225421Y30500I1039J-600D01*
G02X225821Y30025I7J-400D01*
G03X226979Y31000I1179J-225D01*
G02X226579Y31475I-7J400D01*
G03X226540Y32075I-1179J225D01*
G02X226920Y32600I380J125D01*
G01X228600D01*
X230300Y30900D01*
Y23800D01*
X237000Y17100D01*
X242000D01*
X243500Y15600D01*
Y11600D01*
X240289Y8389D01*
X240199Y8394D01*
G03X236606Y4801I-199J-3394D01*
G01X236611Y4711D01*
X232500Y600D01*
X196862D01*
G02X196572Y1275I0J400D01*
G03X194828I-872J825D01*
G02X194538Y600I-290J-275D01*
G01X187049D01*
G02X186685Y1165I0J400D01*
G03X184315I-1185J535D01*
G02X183951Y600I-365J-165D01*
G01X32468D01*
G02X32258Y1340I0J400D01*
G03X27742I-2258J3660D01*
G02X27532Y600I-210J-340D01*
G01X24700D01*
G37*
G36*
G01X-23536Y27100D02*
G03X-23656Y27170I-664J-1000D01*
G01X-23684Y27184D01*
X-25700Y29200D01*
Y40299D01*
X-25574Y40349D01*
G03Y44969I-915J2310D01*
G01X-25700Y45019D01*
Y46718D01*
X-25686Y46754D01*
G03Y47646I-1114J446D01*
G01X-25700Y47682D01*
Y53178D01*
G02X-25225Y53571I400J0D01*
G03X-24063Y55500I225J1179D01*
G02Y56000I312J250D01*
G03X-25225Y57929I-937J750D01*
G02X-25700Y58322I-75J393D01*
G01Y64664D01*
G02X-25247Y65060I400J0D01*
G03X-23894Y66121I159J1190D01*
G01X-23875Y66300D01*
X-17849D01*
G02X-17462Y65800I0J-400D01*
G03X-15138I1162J-300D01*
G02X-14751Y66300I387J100D01*
G01X-6700D01*
X-3800Y69200D01*
Y138300D01*
X949Y143049D01*
G02X1486Y143074I283J-283D01*
G03X3176Y144764I764J926D01*
G02X3201Y145301I308J255D01*
G01X18895Y160995D01*
G02X19446Y161009I283J-283D01*
G03X21141Y162704I804J891D01*
G02X21155Y163255I297J268D01*
G01X27380Y169480D01*
G02X28022Y169373I283J-283D01*
G03X29627Y170978I1078J527D01*
G02X29520Y171620I176J359D01*
G01X32194Y174294D01*
G02X32857Y174133I283J-283D01*
G03X34872Y175325I1143J367D01*
G02X35162Y176000I290J275D01*
G01X36146D01*
G02X36466Y175360I0J-400D01*
G03X38388I961J-719D01*
G02X38708Y176000I320J240D01*
G01X39689D01*
G02X40009Y175360I0J-400D01*
G03X41931I961J-719D01*
G02X42251Y176000I320J240D01*
G01X43144D01*
G02X43483Y175388I0J-400D01*
G03X45517I1017J-638D01*
G02X45856Y176000I339J213D01*
G01X60951D01*
G02X61263Y175350I0J-400D01*
G03X63137I937J-750D01*
G02X63449Y176000I312J250D01*
G01X68036D01*
G02X68356Y175360I0J-400D01*
G03X70277I961J-719D01*
G02X70597Y176000I320J240D01*
G01X75894D01*
G02X76233Y175388I0J-400D01*
G03X78267I1017J-638D01*
G02X78606Y176000I339J213D01*
G01X92441D01*
G02X92706Y175300I0J-400D01*
G03X94294I794J-900D01*
G02X94559Y176000I265J300D01*
G01X95925D01*
G03X97875I975J700D01*
G01X101078D01*
G03X103040I981J691D01*
G01X104563D01*
G03X106437I937J750D01*
G01X107677D01*
Y175603D01*
X107480Y175600D01*
G03X108294Y175300I20J-1200D01*
G02X108559Y176000I265J300D01*
G01X110563D01*
G03X112437I937J750D01*
G01X112813D01*
G03X114687I937J750D01*
G01X115676D01*
Y175603D01*
X115480Y175600D01*
G03X116294Y175300I20J-1200D01*
G02X116559Y176000I265J300D01*
G01X122441D01*
G02X122706Y175300I0J-400D01*
G03X124294I794J-900D01*
G02X124559Y176000I265J300D01*
G01X126441D01*
G02X126706Y175300I0J-400D01*
G03X128294I794J-900D01*
G02X128559Y176000I265J300D01*
G01X134441D01*
G02X134706Y175300I0J-400D01*
G03X136294I794J-900D01*
G02X136559Y176000I265J300D01*
G01X142441D01*
G02X142706Y175300I0J-400D01*
G03X144294I794J-900D01*
G02X144559Y176000I265J300D01*
G01X146441D01*
G02X146706Y175300I0J-400D01*
G03X148294I794J-900D01*
G02X148559Y176000I265J300D01*
G01X150441D01*
G02X150706Y175300I0J-400D01*
G03X152294I794J-900D01*
G02X152559Y176000I265J300D01*
G01X154441D01*
G02X154706Y175300I0J-400D01*
G03X156294I794J-900D01*
G02X156559Y176000I265J300D01*
G01X158441D01*
G02X158706Y175300I0J-400D01*
G03X160294I794J-900D01*
G02X160559Y176000I265J300D01*
G01X162441D01*
G02X162706Y175300I0J-400D01*
G03X164294I794J-900D01*
G02X164559Y176000I265J300D01*
G01X166441D01*
G02X166706Y175300I0J-400D01*
G03X168294I794J-900D01*
G02X168559Y176000I265J300D01*
G01X170441D01*
G02X170706Y175300I0J-400D01*
G03X172294I794J-900D01*
G02X172559Y176000I265J300D01*
G01X174441D01*
G02X174706Y175300I0J-400D01*
G03X176294I794J-900D01*
G02X176559Y176000I265J300D01*
G01X178441D01*
G02X178706Y175300I0J-400D01*
G03X180294I794J-900D01*
G02X180559Y176000I265J300D01*
G01X182441D01*
G02X182706Y175300I0J-400D01*
G03X184294I794J-900D01*
G02X184559Y176000I265J300D01*
G01X186441D01*
G02X186706Y175300I0J-400D01*
G03X188294I794J-900D01*
G02X188559Y176000I265J300D01*
G01X190441D01*
G02X190706Y175300I0J-400D01*
G03X192699Y174352I794J-900D01*
G02X193382Y174618I400J-16D01*
G01X201808Y166192D01*
G02X201635Y165525I-283J-283D01*
G03X203119Y164041I331J-1154D01*
G02X203787Y164213I385J-110D01*
G01X203961Y164039D01*
X203976Y163994D01*
G03X204738Y163232I1140J377D01*
G01X204783Y163217D01*
X207600Y160400D01*
Y156009D01*
G03Y153991I650J-1009D01*
G01Y149623D01*
G03Y147624I665J-999D01*
G01Y146473D01*
G03Y144474I665J-999D01*
G01Y130747D01*
G03Y128862I743J-942D01*
G01Y122900D01*
X205893Y121193D01*
G03X204029Y120902I-817J-879D01*
G01X203972Y120800D01*
X203030D01*
X202972Y120902D01*
G03X200880I-1046J-588D01*
G01X200822Y120800D01*
X199880D01*
X199823Y120902D01*
G03X197730I-1046J-588D01*
G01X197673Y120800D01*
X193581D01*
X193523Y120902D01*
G03X191431I-1046J-588D01*
G01X191374Y120800D01*
X190431D01*
X190374Y120902D01*
G03X188281I-1046J-588D01*
G01X188224Y120800D01*
X187282D01*
X187224Y120902D01*
G03X185132I-1046J-588D01*
G01X185074Y120800D01*
X184132D01*
X184074Y120902D01*
G03X181982I-1046J-588D01*
G01X181925Y120800D01*
X180982D01*
X180925Y120902D01*
G03X178833I-1046J-588D01*
G01X178775Y120800D01*
X177833D01*
X177775Y120902D01*
G03X175683I-1046J-588D01*
G01X175626Y120800D01*
X174683D01*
X174626Y120902D01*
G03X172533I-1046J-588D01*
G01X172476Y120800D01*
X171533D01*
X171476Y120902D01*
G03X169384I-1046J-588D01*
G01X169326Y120800D01*
X168384D01*
X168327Y120902D01*
G03X166234I-1046J-588D01*
G01X166177Y120800D01*
X162500D01*
X160800Y122500D01*
Y125156D01*
G02X161000Y125356I200J0D01*
G03Y127756I1J1200D01*
G02X160800Y127956I0J200D01*
G01Y128024D01*
G02X161181Y128423I400J0D01*
G03Y130821I-59J1199D01*
G02X160800Y131220I19J400D01*
G01Y131475D01*
G02X161003Y131675I200J0D01*
G03Y134075I15J1200D01*
G02X160800Y134275I-3J200D01*
G01Y134625D01*
G02X161003Y134825I200J0D01*
G03Y137225I15J1200D01*
G02X160800Y137425I-3J200D01*
G01Y137774D01*
G02X161003Y137974I200J0D01*
G03Y140374I15J1200D01*
G02X160800Y140574I-3J200D01*
G01Y140924D01*
G02X161003Y141124I200J0D01*
G03X159930Y142830I16J1200D01*
G02X159284Y142716I-363J169D01*
G01X157000Y145000D01*
X156317D01*
G02X155918Y145418I0J400D01*
G03X153520I-1199J55D01*
G02X153120Y145000I-400J-18D01*
G01X152742D01*
Y145220D01*
X152746Y145239D01*
G03X150370Y145418I-1177J234D01*
G02X149971Y145000I-400J-18D01*
G01X149593D01*
Y145220D01*
X149597Y145239D01*
G03X147221Y145418I-1177J234D01*
G02X146821Y145000I-400J-18D01*
G01X146443D01*
Y145220D01*
X146447Y145239D01*
G03X144071Y145418I-1177J234D01*
G02X143672Y145000I-400J-18D01*
G01X143294D01*
Y145220D01*
X143298Y145239D01*
G03X140922Y145418I-1177J234D01*
G02X140522Y145000I-400J-18D01*
G01X140144D01*
Y145220D01*
X140148Y145239D01*
G03X137772Y145418I-1177J234D01*
G02X137372Y145000I-400J-18D01*
G01X136994D01*
Y145220D01*
X136998Y145239D01*
G03X134622Y145418I-1177J234D01*
G02X134223Y145000I-400J-18D01*
G01X133845D01*
Y145220D01*
X133849Y145239D01*
G03X131473Y145418I-1177J234D01*
G02X131073Y145000I-400J-18D01*
G01X124449D01*
G02X124062Y145500I0J400D01*
G03X121738I-1162J300D01*
G02X121351Y145000I-387J-100D01*
G01X120872D01*
G02X120479Y145475I0J400D01*
G03X118382Y146473I-1179J225D01*
G02X117819Y146424I-306J258D01*
G03X115852Y145426I-769J-921D01*
G02X115453Y145000I-399J-26D01*
G01X102997D01*
G02X102598Y145425I0J400D01*
G03X100202I-1198J75D01*
G02X99803Y145000I-399J-25D01*
G01X99197D01*
G02X98798Y145425I0J400D01*
G03X96402I-1198J75D01*
G02X96003Y145000I-399J-25D01*
G01X75250D01*
X75239Y145188D01*
G03X72843I-1198J-74D01*
G01X72831Y145000D01*
X67794D01*
G03X66206I-794J-900D01*
G01X61100D01*
X58689Y142589D01*
X58597Y142596D01*
G03X57304Y141303I-97J-1196D01*
G01X57311Y141211D01*
X42650Y126549D01*
G02X42025Y126624I-283J283D01*
G03X40101Y125205I-1025J-624D01*
G02X39976Y124580I-300J-265D01*
G03X39562Y124249I524J-1080D01*
G02X38938I-312J250D01*
G03X37633Y122357I-938J-749D01*
G02X37794Y121694I-122J-381D01*
G01X28500Y112400D01*
Y112266D01*
X28471Y112218D01*
G03X28443Y112168I1028J-619D01*
G02X27843Y112043I-352J189D01*
G03X27850Y110163I-743J-943D01*
G02X28500Y109851I250J-312D01*
G01Y108423D01*
G02X27875Y108092I-400J0D01*
G03Y106108I-675J-992D01*
G02X28500Y105777I225J-331D01*
G01Y104623D01*
G02X27875Y104292I-400J0D01*
G03Y102308I-675J-992D01*
G02X28500Y101977I225J-331D01*
G01Y100886D01*
G02X27900Y100539I-400J0D01*
G03Y98461I-600J-1039D01*
G02X28500Y98114I200J-346D01*
G01Y97782D01*
X28486Y97746D01*
G03Y96854I1114J-446D01*
G01X28500Y96818D01*
Y96380D01*
G02X28157Y96240I-200J0D01*
G03X27900Y94361I-857J-840D01*
G02X28500Y94014I200J-346D01*
G01Y92886D01*
G02X27900Y92539I-400J0D01*
G03Y90461I-600J-1039D01*
G02X28500Y90114I200J-346D01*
G01Y62378D01*
G02X28070Y61979I-400J0D01*
G03Y59585I-89J-1197D01*
G02X28500Y59186I30J-399D01*
G01Y58796D01*
X28277D01*
X28255Y58801D01*
G03X28070Y56436I-273J-1169D01*
G02X28500Y56037I30J-399D01*
G01Y55779D01*
G02X28070Y55380I-400J0D01*
G03X28255Y53014I-89J-1197D01*
G01X28277Y53020D01*
X28500D01*
Y52497D01*
X28277D01*
X28255Y52502D01*
G03X28070Y50137I-273J-1169D01*
G02X28500Y49738I30J-399D01*
G01Y49347D01*
X28277D01*
X28255Y49353D01*
G03X26921Y47621I-273J-1169D01*
G01X26991Y47491D01*
X21976Y42476D01*
X21834Y42613D01*
G03X20137Y40916I-835J-863D01*
G01X20274Y40774D01*
X6600Y27100D01*
X-3001D01*
G02X-3313Y27750I0J400D01*
G03X-3560Y29482I-937J750D01*
G02X-3598Y30107I230J327D01*
G03X-5090Y30018I-802J893D01*
G02X-5052Y29393I-230J-327D01*
G03X-5187Y27750I802J-893D01*
G02X-5499Y27100I-312J-250D01*
G01X-7501D01*
G02X-7813Y27750I0J400D01*
G03X-9687I-937J750D01*
G02X-9999Y27100I-312J-250D01*
G01X-15116D01*
G02X-15487Y27650I0J400D01*
G03X-17713I-1113J450D01*
G02X-18084Y27100I-371J-150D01*
G01X-19861D01*
X-19916Y27214D01*
G03X-20696Y27861I-1084J-514D01*
G02X-20896Y28511I101J387D01*
G03X-22290Y30396I-904J789D01*
G02X-22532Y30460I-82J183D01*
G03X-23010Y28654I-968J-710D01*
G02X-22768Y28590I82J-183D01*
G03X-22104Y28139I968J710D01*
G02X-21904Y27489I-101J-387D01*
G03X-22084Y27214I904J-789D01*
G01X-22139Y27100D01*
X-23536D01*
G37*
G36*
G01X70314Y88597D02*
G03Y86203I86J-1197D01*
G02X70500Y86003I-14J-199D01*
G01Y84797D01*
G02X70314Y84597I-200J0D01*
G03Y82203I86J-1197D01*
G02X70500Y82003I-14J-199D01*
G01Y80997D01*
G02X70314Y80797I-200J0D01*
G03Y78403I86J-1197D01*
G02X70500Y78203I-14J-199D01*
G01Y60719D01*
G02X69950Y60348I-400J0D01*
G03Y58123I-450J-1113D01*
G02X70500Y57752I150J-371D01*
G01Y34414D01*
G02X69948Y34044I-400J0D01*
G03Y31825I-457J-1110D01*
G02X70500Y31455I152J-370D01*
G01Y24700D01*
X69600Y23800D01*
X68128D01*
G02X67740Y24296I0J400D01*
G03X65409I-1165J286D01*
G02X65020Y23800I-388J-95D01*
G01X54037D01*
G03X52070I-984J-688D01*
G01X50904D01*
G03X49042I-931J-757D01*
G01X42700D01*
X41800Y22900D01*
Y22800D01*
X31300Y12300D01*
X24100D01*
X20196Y8396D01*
X20109Y8398D01*
G03X16602Y4894I-109J-3398D01*
G01X16604Y4804D01*
X14400Y2600D01*
X7301D01*
G03X-5440Y5520I-7301J-2600D01*
G01X-5581Y5381D01*
X-8900Y8700D01*
Y16600D01*
G02X-8700Y16800I200J0D01*
G03Y19200I0J1200D01*
G02X-8900Y19400I0J200D01*
G01Y24300D01*
X-7400Y25800D01*
X4861D01*
G02X5221Y25225I0J-400D01*
G03X5394Y23912I1079J-525D01*
G02Y23388I-302J-262D01*
G03X7050Y21663I906J-787D01*
G02X7550I250J-312D01*
G03X9071Y21681I750J937D01*
G02X9329I129J-153D01*
G03X11004Y23389I771J919D01*
G01X10981Y23416D01*
X10929Y23550D01*
X10981Y23684D01*
X11004Y23711D01*
G03X10894Y25400I-904J789D01*
G02X11019Y26075I265J300D01*
G03X11397Y28098I-419J1125D01*
G02X11380Y28680I266J299D01*
G01X13743Y31042D01*
X13881Y30939D01*
G03X15561Y32619I719J961D01*
G01X15457Y32758D01*
X19419Y36719D01*
G02X20077Y36577I283J-283D01*
G03X20293Y36214I1123J422D01*
G02X20268Y35665I-302J-262D01*
G03X22008Y35586I832J-865D01*
G02X22032Y36135I302J262D01*
G03X21623Y38123I-832J865D01*
G02X21481Y38781I141J374D01*
G01X22545Y39845D01*
X22732Y39777D01*
X22758Y39757D01*
G03X24443Y41443I743J943D01*
G01X24423Y41468D01*
X24355Y41655D01*
X26950Y44250D01*
X27147Y44171D01*
X27173Y44147D01*
G03X28869Y45842I808J887D01*
G01X28845Y45869D01*
X28765Y46065D01*
X30100Y47400D01*
X30297Y47321D01*
X30323Y47296D01*
G03X31276Y49375I808J887D01*
G01X31100Y49397D01*
Y50121D01*
X31276Y50142D01*
G03Y52525I-145J1191D01*
G01X31100Y52546D01*
Y52970D01*
X31276Y52992D01*
G03Y55375I-145J1191D01*
G01X31100Y55396D01*
Y56420D01*
X31276Y56441D01*
G03Y58824I-145J1191D01*
G01X31100Y58846D01*
Y66407D01*
X31243Y66450D01*
G03Y68750I-343J1150D01*
G01X31100Y68793D01*
Y90653D01*
G03Y92347I-850J847D01*
G01Y94957D01*
G02X31562Y95352I400J0D01*
G03Y97723I188J1186D01*
G02X31100Y98118I-63J395D01*
G01Y99670D01*
G02X31562Y100064I400J0D01*
G03Y102436I188J1185D01*
G02X31100Y102830I-63J395D01*
G01Y104401D01*
G02X31553Y104797I400J0D01*
G03Y107176I160J1189D01*
G02X31100Y107572I-53J396D01*
G01Y111000D01*
X34219Y114119D01*
G02X34776Y114127I283J-283D01*
G03X35358Y113824I824J873D01*
G02X35583Y113174I-81J-392D01*
G03X36742Y113576I917J-774D01*
G02X36517Y114226I81J392D01*
G03X36473Y115824I-917J774D01*
G02X36481Y116381I291J274D01*
G01X45017Y124917D01*
G03X45583Y125483I-517J1083D01*
G01X49763Y129663D01*
G02X50434Y129475I283J-283D01*
G03X51884Y130925I1166J284D01*
G02X51696Y131596I95J389D01*
G01X54203Y134103D01*
G03X55897Y135797I797J897D01*
G01X62700Y142600D01*
X67811D01*
G02X68171Y142025I0J-400D01*
G03X70329I1079J-525D01*
G02X70689Y142600I360J175D01*
G01X74061D01*
G02X74421Y142025I0J-400D01*
G03X76579I1079J-525D01*
G02X76939Y142600I360J175D01*
G01X102580D01*
G02X102960Y142075I0J-400D01*
G03X105240I1140J-375D01*
G02X105620Y142600I380J125D01*
G01X110441D01*
G02X110706Y141900I0J-400D01*
G03X112294I794J-900D01*
G02X112559Y142600I265J300D01*
G01X137572D01*
X137770Y142412D01*
X137778Y142340D01*
G03X140164I1193J131D01*
G01X140172Y142412D01*
X140369Y142600D01*
X140525D01*
G02X140924Y142231I0J-400D01*
G03X143317I1197J93D01*
G02X143716Y142600I399J-31D01*
G01X146824D01*
G02X147223Y142231I0J-400D01*
G03X149616I1197J93D01*
G02X150015Y142600I399J-31D01*
G01X150171D01*
G02X150371Y142396I0J-200D01*
G01X150371Y142388D01*
X150371Y142385D01*
G03X152766Y142231I1199J-61D01*
G02X153165Y142600I399J-31D01*
G01X153321D01*
G02X153521Y142396I0J-200D01*
G01X153520Y142388D01*
X153520Y142385D01*
G03X155786Y141775I1199J-61D01*
G02X156425Y141875I356J-183D01*
G01X157420Y140880D01*
G02X157320Y140242I-283J-283D01*
G03X158417Y138107I549J-1067D01*
G02X159000Y137751I183J-356D01*
G01Y137449D01*
G02X158418Y137093I-400J0D01*
G03Y134956I-547J-1068D01*
G02X159000Y134600I182J-356D01*
G01Y134298D01*
G02X158417Y133943I-400J0D01*
G03Y131808I-549J-1067D01*
G02X159000Y131452I183J-356D01*
G01Y131149D01*
G02X158417Y130793I-400J0D01*
G03Y128658I-549J-1067D01*
G02X159000Y128302I183J-356D01*
G01Y127999D01*
G02X158417Y127644I-400J0D01*
G03Y125508I-549J-1067D01*
G02X159000Y125153I183J-356D01*
G01Y121727D01*
G02X158422Y121369I-400J0D01*
G03Y119219I-534J-1075D01*
G02X159000Y118861I178J-358D01*
G01Y118578D01*
G02X158422Y118219I-400J0D01*
G03Y116070I-534J-1075D01*
G02X159000Y115711I178J-358D01*
G01Y115428D01*
G02X158422Y115070I-400J0D01*
G03Y112920I-534J-1075D01*
G02X159000Y112562I178J-358D01*
G01Y112200D01*
X158614Y111814D01*
X158481Y111889D01*
G03X156786Y111321I-593J-1044D01*
G01X156734Y111200D01*
X155893D01*
X155841Y111321D01*
G03X153637I-1102J-476D01*
G01X153584Y111200D01*
X152743D01*
X152691Y111321D01*
G03X150487I-1102J-476D01*
G01X150435Y111200D01*
X149594D01*
X149541Y111321D01*
G03X147337I-1102J-476D01*
G01X147285Y111200D01*
X143245D01*
X143194Y111326D01*
G03X140966I-1114J-446D01*
G01X140915Y111200D01*
X140145D01*
X140093Y111321D01*
G03X137889I-1102J-476D01*
G01X137836Y111200D01*
X136995D01*
X136943Y111321D01*
G03X134739I-1102J-476D01*
G01X134687Y111200D01*
X133845D01*
X133793Y111321D01*
G03X131589I-1102J-476D01*
G01X131537Y111200D01*
X130696D01*
X130644Y111321D01*
G03X128440I-1102J-476D01*
G01X128388Y111200D01*
X127546D01*
X127494Y111321D01*
G03X125290I-1102J-476D01*
G01X125238Y111200D01*
X124539D01*
X124484Y111314D01*
G03X122316I-1084J-514D01*
G01X122261Y111200D01*
X121440D01*
X121386Y111314D01*
G03X119217I-1084J-514D01*
G01X119163Y111200D01*
X116052D01*
X116014Y111351D01*
G03X113686I-1164J-291D01*
G01X113648Y111200D01*
X108593D01*
X108550Y111343D01*
G03X106250I-1150J-343D01*
G01X106207Y111200D01*
X102295D01*
G03X100505I-895J-800D01*
G01X82843D01*
G02X82445Y111638I0J400D01*
G03X80055I-1195J112D01*
G02X79657Y111200I-398J-37D01*
G01X75600D01*
X70500Y106100D01*
Y101843D01*
G02X70138Y101445I-400J0D01*
G03X69396Y99406I113J-1195D01*
G02Y98844I-284J-281D01*
G03X69520Y97048I854J-844D01*
G02X69532Y96423I-243J-317D01*
G03X70300Y94300I768J-923D01*
G02X70500Y94100I0J-200D01*
G01Y92897D01*
G02X70314Y92697I-200J0D01*
G03Y90303I86J-1197D01*
G02X70500Y90103I-14J-199D01*
G01Y88797D01*
G02X70314Y88597I-200J0D01*
G37*
G36*
G01X90000Y13400D02*
X86370Y17030D01*
G02X86477Y17672I283J283D01*
G03X86887Y19500I-527J1078D01*
G02Y20000I312J250D01*
G03Y21500I-937J750D01*
G02Y22000I312J250D01*
G03X85013I-937J750D01*
G02Y21500I-312J-250D01*
G03Y20000I937J-750D01*
G02Y19500I-312J-250D01*
G03X84872Y19277I937J-750D01*
G02X84230Y19170I-359J176D01*
G01X79800Y23600D01*
X79799Y23600D01*
X73400D01*
X72500Y24500D01*
Y27403D01*
X72600Y27461D01*
G03Y29539I-600J1039D01*
G01X72500Y29597D01*
Y35903D01*
X72600Y35960D01*
G03Y38040I-600J1039D01*
G01X72500Y38097D01*
Y41903D01*
X72600Y41960D01*
G03Y44040I-600J1039D01*
G01X72500Y44097D01*
Y47903D01*
X72600Y47960D01*
G03Y50040I-600J1039D01*
G01X72500Y50097D01*
Y67403D01*
X72600Y67460D01*
G03Y69540I-600J1040D01*
G01X72500Y69597D01*
Y74500D01*
X73700Y75700D01*
X90400D01*
X93900Y79200D01*
X118871D01*
X118908Y79047D01*
G03X121241I1166J284D01*
G01X121278Y79200D01*
X122021D01*
X122058Y79047D01*
G03X124390I1166J284D01*
G01X124427Y79200D01*
X125170D01*
X125207Y79047D01*
G03X127540I1166J284D01*
G01X127577Y79200D01*
X128320D01*
X128357Y79047D01*
G03X130689I1166J284D01*
G01X130727Y79200D01*
X131469D01*
X131507Y79047D01*
G03X133839I1166J284D01*
G01X133876Y79200D01*
X134619D01*
X134656Y79047D01*
G03X136989I1166J284D01*
G01X137026Y79200D01*
X137769D01*
X137806Y79047D01*
G03X140138I1166J284D01*
G01X140175Y79200D01*
X140918D01*
X140956Y79047D01*
G03X143288I1166J284D01*
G01X143325Y79200D01*
X144068D01*
X144105Y79047D01*
G03X146438I1166J284D01*
G01X146475Y79200D01*
X150391D01*
X150422Y79038D01*
G03X152779I1178J228D01*
G01X152810Y79200D01*
X162907D01*
X162950Y79057D01*
G03X165288Y79574I1150J343D01*
G01X165273Y79673D01*
X170107Y84507D01*
X170211Y84488D01*
G03X171004Y86722I219J1180D01*
G01X170900Y86779D01*
Y94016D01*
X171003Y94073D01*
G03Y96174I-580J1051D01*
G01X170900Y96232D01*
Y97156D01*
X171004Y97213D01*
G03Y99320I-574J1054D01*
G01X170900Y99377D01*
Y101500D01*
X168550Y103850D01*
X168194D01*
Y104094D01*
X168213Y104134D01*
G03X165926Y104568I-1089J505D01*
G01X165931Y104479D01*
X165726Y104274D01*
X165504Y104496D01*
Y106796D01*
X162300Y110000D01*
Y118200D01*
X163100Y119000D01*
X207400D01*
X207621Y118779D01*
G02X207560Y118163I-283J-283D01*
G03X208506Y115997I665J-999D01*
G02X209000Y115608I94J-389D01*
G01Y105893D01*
X208857Y105850D01*
G03Y103550I343J-1150D01*
G01X209000Y103507D01*
Y92339D01*
X208886Y92284D01*
G03Y90116I514J-1084D01*
G01X209000Y90061D01*
Y89540D01*
G03Y87461I600J-1040D01*
G01Y84074D01*
G02X208506Y83685I-400J0D01*
G03Y81352I-281J-1167D01*
G02X209000Y80963I94J-389D01*
G01Y77775D01*
G02X208506Y77386I-400J0D01*
G03Y75052I-281J-1167D01*
G02X209000Y74664I94J-389D01*
G01Y72384D01*
G02X208450Y72013I-400J0D01*
G03Y69787I-450J-1113D01*
G02X209000Y69416I150J-371D01*
G01Y57700D01*
X204003Y52703D01*
X203927Y52698D01*
G03X202802Y51573I73J-1198D01*
G01X202797Y51497D01*
X200003Y48703D01*
X199927Y48698D01*
G03X198802Y47573I73J-1198D01*
G01X198797Y47497D01*
X197982Y46682D01*
X197886Y46692D01*
G03X196558Y45364I-136J-1193D01*
G01X196568Y45268D01*
X196192Y44892D01*
X196061Y44961D01*
G03X194439Y43339I-561J-1061D01*
G01X194508Y43208D01*
X189503Y38203D01*
X189427Y38198D01*
G03X188302Y37073I73J-1198D01*
G01X188297Y36997D01*
X174210Y22910D01*
G02X173670Y22886I-283J283D01*
G03X171980Y21196I-770J-920D01*
G02X171956Y20656I-307J-257D01*
G01X164700Y13400D01*
X106370D01*
X106321Y13529D01*
G03X104079I-1121J-429D01*
G01X104030Y13400D01*
X90000D01*
G37*
G36*
G01X143580Y81400D02*
G02X143220Y81975I0J400D01*
G03X141060I-1080J524D01*
G02X140701Y81400I-360J-175D01*
G01X140439D01*
G02X140079Y81975I0J400D01*
G03X137921I-1079J525D01*
G02X137561Y81400I-360J-175D01*
G01X137280D01*
G02X136921Y81975I0J400D01*
G03X134761I-1080J524D01*
G02X134401Y81400I-360J-175D01*
G01X134131D01*
G02X133771Y81975I0J400D01*
G03X131612I-1080J524D01*
G02X131252Y81400I-360J-175D01*
G01X130981D01*
G02X130621Y81975I0J400D01*
G03X128462I-1080J524D01*
G02X128102Y81400I-360J-175D01*
G01X127832D01*
G02X127472Y81975I0J400D01*
G03X125312I-1080J524D01*
G02X124953Y81400I-360J-175D01*
G01X124672D01*
G02X124310Y81970I0J400D01*
G03X122138I-1086J510D01*
G02X121776Y81400I-362J-170D01*
G01X121523D01*
G02X121161Y81970I0J400D01*
G03X118988I-1086J510D01*
G02X118626Y81400I-362J-170D01*
G01X90950D01*
X87400Y77850D01*
X73250D01*
X72700Y78400D01*
Y104300D01*
X77800Y109400D01*
X78603D01*
X78660Y109300D01*
G03X80740I1040J600D01*
G01X80797Y109400D01*
X100736D01*
G03X100866Y109325I664J1000D01*
G01X100915Y109301D01*
X101033Y109120D01*
X100901Y108933D01*
X100847Y108911D01*
G03X101834Y108875I453J-1111D01*
G01X101785Y108899D01*
X101667Y109080D01*
X101799Y109267D01*
X101853Y109289D01*
G03X102064Y109400I-453J1111D01*
G01X110003D01*
X110060Y109300D01*
G03X112139I1039J600D01*
G01X112197Y109400D01*
X161486D01*
X161987Y108898D01*
X161738Y108650D01*
X161606Y108724D01*
G03X162219Y107695I-587J-1047D01*
G02X162902Y107983I400J6D01*
G01X164150Y106736D01*
Y104250D01*
X165850Y102550D01*
X167650D01*
X169150Y101050D01*
Y87350D01*
X163200Y81400D01*
X143580D01*
G37*
G36*
G01X217393Y34500D02*
X217350Y34643D01*
G03X215819Y35438I-1150J-343D01*
G01X215701Y35399D01*
X215000Y36100D01*
Y41600D01*
X216901Y43501D01*
X217043Y43359D01*
X217044Y43359D01*
G03X218800Y43406I856J841D01*
G02X219400I300J-265D01*
G03Y44994I900J794D01*
G02X218800I-300J265D01*
G03X218741Y45056I-900J-794D01*
G01X218741Y45057D01*
X218599Y45199D01*
X219500Y46100D01*
X242500D01*
X244500Y48100D01*
X252900D01*
X253900Y47100D01*
Y45695D01*
G03Y43905I800J-895D01*
G01Y41595D01*
G03Y39805I800J-895D01*
G01Y37700D01*
X252500Y36300D01*
X234804D01*
G02X234511Y36972I0J400D01*
G03X235664Y39432I-3261J3028D01*
G02X236245Y39736I397J-51D01*
G03X235967Y41664I555J1064D01*
G02X235324Y41792I-278J288D01*
G03X232588Y35756I-4074J-1792D01*
G02X232992Y35092I120J-381D01*
G01X232400Y34500D01*
X223482D01*
X223446Y34514D01*
G03X222554I-446J-1114D01*
G01X222518Y34500D01*
X217393D01*
G37*
G36*
G01X236500Y108800D02*
X236099Y109201D01*
X236100Y109285D01*
G03X235243Y110450I-1200J15D01*
G01X235100Y110493D01*
Y137080D01*
G03Y137120I-1200J20D01*
G01Y159600D01*
X226600Y168100D01*
Y169393D01*
X226757Y169428D01*
G03Y171772I-257J1172D01*
G01X226600Y171807D01*
Y175000D01*
X228100Y176500D01*
X239400D01*
X239625Y176275D01*
G02X239382Y175594I-283J-283D01*
G03X240694Y174282I118J-1194D01*
G02X241375Y174525I398J-40D01*
G01X246081Y169819D01*
G02X246036Y169215I-283J-283D01*
G03X245906Y169104I714J-965D01*
G02X245344I-281J284D01*
G03X243656I-844J-853D01*
G02X243094I-281J284D01*
G03X241406I-844J-853D01*
G02X240844I-281J284D01*
G03X239062Y168999I-844J-854D01*
G02X238438I-312J250D01*
G03X236562I-937J-749D01*
G02X235938I-312J250D01*
G03Y167501I-937J-749D01*
G02X236562I313J-250D01*
G03X238438I937J749D01*
G02X239062I313J-250D01*
G03X240844Y167396I938J749D01*
G02X241406I281J-284D01*
G03X243094I844J854D01*
G02X243656I281J-284D01*
G03X245344I844J854D01*
G02X245906I281J-284D01*
G03X247594I844J854D01*
G02X248156I281J-284D01*
G03X248780Y167070I844J854D01*
G01X248841Y167059D01*
X254400Y161500D01*
Y151384D01*
G02X253850Y151013I-400J0D01*
G03Y148787I-450J-1113D01*
G02X254400Y148416I150J-371D01*
G01Y132693D01*
X254257Y132650D01*
G03X253708Y132303I343J-1150D01*
G02X253120Y132295I-297J268D01*
G03X253142Y130666I-870J-826D01*
G02X253730Y130674I297J-268D01*
G03X254257Y130350I870J826D01*
G01X254400Y130307D01*
Y110700D01*
X253753Y110053D01*
X253677Y110048D01*
G03X252557Y108979I73J-1198D01*
G01X252538Y108800D01*
X247386D01*
G02X247039Y109400I0J400D01*
G03X244961I-1039J600D01*
G02X244614Y108800I-346J-200D01*
G01X236500D01*
G37*
%LPC*%
G75*
G36*
G01X222719Y159685D02*
G03X222131I-294J-272D01*
G02Y161315I-881J815D01*
G03X222719I294J272D01*
G02Y159685I881J-815D01*
G37*
G36*
G01X249494Y99100D02*
G03Y98500I265J-300D01*
G02X247906I-794J-900D01*
G03Y99100I-265J300D01*
G02X249494I794J900D01*
G37*
G36*
G01X244762Y98054D02*
G02X246434Y98246I738J946D01*
G02X244762Y98054I-738J-946D01*
G37*
G36*
G01X267794Y91000D02*
G03Y90400I265J-300D01*
G02X266206I-794J-900D01*
G03Y91000I-265J300D01*
G02X265802Y91835I794J900D01*
G03X265352Y92209I-399J-22D01*
G02X266398Y93466I-152J1191D01*
G03X266848Y93091I399J22D01*
G02X267794Y91000I152J-1191D01*
G37*
G36*
G01X244708Y88619D02*
G03X244143Y88512I-230J-327D01*
G02X243832Y90151I-1003J658D01*
G03X244397Y90258I230J327D01*
G02X246186Y90508I1004J-658D01*
G03X246735Y90532I262J302D01*
G02X246814Y88792I865J-832D01*
G03X246265Y88768I-262J-302D01*
G02X244708Y88619I-865J832D01*
G37*
G36*
G01X254940Y90054D02*
G03X254990Y89504I313J-249D01*
G02X253260Y89346I-790J-904D01*
G03X253210Y89896I-313J249D01*
G02X253130Y91626I790J904D01*
G03X253105Y92201I-290J275D01*
G02X254770Y92274I795J899D01*
G03X254795Y91699I290J-275D01*
G02X254940Y90054I-795J-899D01*
G37*
G36*
G01X207872Y48875D02*
G03Y48325I290J-275D01*
G02X206128I-872J-825D01*
G03Y48875I-290J275D01*
G02X207872I872J825D01*
G37*
G36*
G01X199113Y34419D02*
G03X198788Y33969I71J-394D01*
G02X197387Y34981I-1188J-169D01*
G03X197712Y35431I-71J394D01*
G02X199113Y34419I1188J169D01*
G37*
G36*
G01X211216Y33903D02*
G03X210791Y33553I-28J-399D01*
G02X209684Y34897I-1191J147D01*
G03X210109Y35247I28J399D01*
G02X211216Y33903I1191J-147D01*
G37*
G36*
G01X223985Y29287D02*
G03X224160Y28762I362J-171D01*
G02X222515Y28213I-560J-1062D01*
G03X222340Y28738I-362J171D01*
G02X223985Y29287I560J1062D01*
G37*
G36*
G01X76444Y17710D02*
G03X75994Y17272I-52J-397D01*
G02X73864Y17899I-1194J-124D01*
G03Y18149I-156J125D01*
G02X75571Y19819I936J751D01*
G03X75829I129J153D01*
G02X76444Y17710I771J-919D01*
G37*
G36*
G01X47937Y17250D02*
G03Y16750I312J-250D01*
G02X46063I-937J-750D01*
G03Y17250I-312J250D01*
G02Y18750I937J750D01*
G03Y19250I-312J250D01*
G02X47937I937J750D01*
G03Y18750I312J-250D01*
G02Y17250I-937J-750D01*
G37*
G36*
G01X67687Y16750D02*
G03Y16250I312J-250D01*
G02X65813I-937J-750D01*
G03Y16750I-312J250D01*
G02Y18250I937J750D01*
G03Y18750I-312J250D01*
G02X67687I937J750D01*
G03Y18250I312J-250D01*
G02Y16750I-937J-750D01*
G37*
G36*
G01X-262Y172151D02*
G02Y173649I-938J749D01*
G03X362I312J250D01*
G02X2238I938J-749D01*
G03X2862I313J250D01*
G02Y172151I937J-749D01*
G03X2238I-312J-250D01*
G02X362I-937J749D01*
G03X-262I-312J-250D01*
G37*
G36*
G01Y159651D02*
G02Y161149I-938J749D01*
G03X362I312J250D01*
G02X2238I938J-749D01*
G03X2862I313J250D01*
G02Y159651I937J-749D01*
G03X2238I-312J-250D01*
G02X362I-937J749D01*
G03X-262I-312J-250D01*
G37*
G36*
G01X221287Y141700D02*
G02X220088Y140800I-37J-1200D01*
G03X219713Y141300I-387J100D01*
G02X220912Y142200I37J1200D01*
G03X221287Y141700I387J-100D01*
G37*
G36*
G01X256543Y102310D02*
G02X255807Y101065I457J-1110D01*
G03X255257Y101390I-397J-45D01*
G02X253624Y102259I-457J1110D01*
G03X253396Y102416I-196J-40D01*
G02X254376Y103841I-196J1184D01*
G03X254604Y103684I196J40D01*
G02X255993Y102635I196J-1184D01*
G03X256543Y102310I397J45D01*
G37*
G36*
G01X195913Y37066D02*
G02X194337Y36934I-713J-966D01*
G03X194287Y37534I-288J278D01*
G02X195863Y37666I713J966D01*
G03X195913Y37066I288J-278D01*
G37*
G36*
G01X221926Y9978D02*
G02X221786Y11410I-1026J622D01*
G03X222424Y11472I295J270D01*
G02X222564Y10040I1026J-622D01*
G03X221926Y9978I-295J-270D01*
G37*
G36*
G01X144906Y164646D02*
G03X144344I-281J-284D01*
G02Y166354I-844J854D01*
G03X144906I281J284D01*
G02X146594I844J-854D01*
G03X147156I281J284D01*
G02X148844I844J-854D01*
G03X149406I281J284D01*
G02Y164646I844J-854D01*
G03X148844I-281J-284D01*
G02X147156I-844J854D01*
G03X146594I-281J-284D01*
G02X144906I-844J854D01*
G37*
G36*
G01X86000Y151937D02*
G03X86500I250J312D01*
G02X88000I750J-937D01*
G03X88500I250J312D01*
G02Y150063I750J-937D01*
G03X88000I-250J-312D01*
G02X86500I-750J937D01*
G03X86000I-250J-312D01*
G02Y151937I-750J937D01*
G37*
G36*
G01X29000Y142437D02*
G03X29500I250J312D01*
G02Y140563I750J-937D01*
G03X29000I-250J-312D01*
G02Y142437I-750J937D01*
G37*
G36*
G01X8376Y65922D02*
G03X8202Y66410I-374J141D01*
G02X9546Y68390I599J1040D01*
G03X9803Y68397I124J157D01*
G02X10925Y66344I797J-897D01*
G03X10650Y65845I108J-385D01*
G02X8376Y65922I-1150J-345D01*
G37*
G36*
G01X-9282Y62864D02*
G03X-9157Y62314I339J-212D01*
G02X-10744Y60559I-643J-1014D01*
G03X-11289Y60639I-315J-247D01*
G02X-11901Y62817I-691J981D01*
G03X-11481Y63287I26J399D01*
G02X-9282Y62864I1181J213D01*
G37*
G36*
G01X-9063Y50000D02*
G03Y49500I312J-250D01*
G02X-10937I-937J-750D01*
G03Y50000I-312J250D01*
G02X-9063I937J750D01*
G37*
G36*
G01X10222Y49532D02*
G03X10237Y49261I154J-128D01*
G02X8478Y49168I-837J-861D01*
G03X8463Y49439I-154J128D01*
G02X8418Y51114I837J861D01*
G03Y51386I-147J136D01*
G02X10182I882J814D01*
G03Y51114I147J-136D01*
G02X10222Y49532I-882J-814D01*
G37*
G36*
G01X-13594Y44646D02*
G03X-14156I-281J-284D01*
G02Y46354I-844J854D01*
G03X-13594I281J284D01*
G02Y44646I844J-854D01*
G37*
G36*
G01X9250Y46037D02*
G03X9500I125J156D01*
G02X11000I750J-937D01*
G03X11250I125J156D01*
G02Y44163I750J-937D01*
G03X11000I-125J-156D01*
G02X9500I-750J937D01*
G03X9250I-125J-156D01*
G02Y46037I-750J937D01*
G37*
G36*
G01X-19896Y46406D02*
G03Y45844I284J-281D01*
G02X-21604I-854J-844D01*
G03Y46406I-284J281D01*
G02Y48094I853J844D01*
G03Y48656I-284J281D01*
G02Y50344I853J844D01*
G03Y50906I-284J281D01*
G02Y52594I853J844D01*
G03Y53156I-284J281D01*
G02Y54844I853J844D01*
G03Y55406I-284J281D01*
G02X-19896I853J844D01*
G03Y54844I284J-281D01*
G02Y53156I-854J-844D01*
G03Y52594I284J-281D01*
G02Y50906I-854J-844D01*
G03Y50344I284J-281D01*
G02Y48656I-854J-844D01*
G03Y48094I284J-281D01*
G02Y46406I-854J-844D01*
G37*
G36*
G01X7150Y34453D02*
G02Y36147I-850J847D01*
G02X8771Y36219I850J-847D01*
G03X9029I129J153D01*
G02X10571I771J-919D01*
G03X10829I129J153D01*
G02Y34381I771J-919D01*
G03X10571I-129J-153D01*
G02X9029I-771J919D01*
G03X8771I-129J-153D01*
G02X7150Y34453I-771J919D01*
G37*
G36*
G01X-23893Y35033D02*
G03X-24036Y35248I-199J22D01*
G02X-23625Y37598I336J1152D01*
G03X-23200Y37998I25J399D01*
G02X-22937Y38750I1200J2D01*
G03Y39250I-312J250D01*
G02X-21250Y40937I937J750D01*
G03X-20750I250J312D01*
G02X-19250I750J-937D01*
G03X-18750I250J312D01*
G02X-17250I750J-937D01*
G03X-16750I250J312D01*
G02X-15250I750J-937D01*
G03X-14750I250J312D01*
G02X-13063Y39250I750J-937D01*
G03Y38750I312J-250D01*
G02X-14750Y37063I-937J-750D01*
G03X-15250I-250J-312D01*
G02X-16750I-750J937D01*
G03X-17250I-250J-312D01*
G02X-18750I-750J937D01*
G03X-19250I-250J-312D01*
G02X-20750I-750J937D01*
G03X-21250I-250J-312D01*
G02X-22075Y36802I-750J937D01*
G03X-22500Y36402I-25J-399D01*
G02X-22507Y36267I-1200J-3D01*
G03X-22364Y36052I199J-22D01*
G02X-23893Y35033I-336J-1152D01*
G37*
G36*
G01X-16946Y32606D02*
G03Y32044I284J-281D01*
G02X-18654I-853J-844D01*
G03Y32606I-284J281D01*
G02X-16946I854J844D01*
G37*
G36*
G01X-11146Y31906D02*
G03Y31344I284J-281D01*
G02X-12854I-853J-844D01*
G03Y31906I-284J281D01*
G02X-11146I854J844D01*
G37*
G36*
G01X114188Y160751D02*
G02Y162249I-937J749D01*
G03X114812I313J250D01*
G02Y160751I937J-749D01*
G03X114188I-313J-250D01*
G37*
G36*
G01X105188Y156751D02*
G02Y158249I-938J749D01*
G03X105812I312J250D01*
G02Y156751I938J-749D01*
G03X105188I-313J-250D01*
G37*
G36*
G01X113902Y148349D02*
G02X113899Y146654I848J-849D01*
G03X113333Y146655I-284J-282D01*
G02X111702Y148414I-848J849D01*
G03X111656Y149055I-261J303D01*
G02X112715Y151194I644J1013D01*
G03X113251Y151607I138J375D01*
G02X113250Y151822I1195J115D01*
G03X112764Y152246I-399J33D01*
G02X113696Y153316I-264J1171D01*
G03X114183Y152893I399J-33D01*
G02X114031Y150596I264J-1171D01*
G03X113495Y150182I-138J-375D01*
G02X113083Y149158I-1195J-115D01*
G03X113129Y148517I261J-303D01*
G02X113336Y148350I-644J-1013D01*
G03X113902Y148349I284J282D01*
G37*
G36*
G01X11372Y142625D02*
G02X9628I-872J-825D01*
G03Y143175I-290J275D01*
G02X9562Y143251I872J825D01*
G03X8938I-313J-250D01*
G02Y144749I-937J749D01*
G03X9562I313J250D01*
G02X11372Y143175I938J-749D01*
G03Y142625I290J-275D01*
G37*
G36*
G01X31560Y122937D02*
G02X31465Y124213I-1060J563D01*
G03X32140Y124263I322J238D01*
G02X33505Y124861I1060J-563D01*
G03X34005Y125286I102J387D01*
G02X34895Y124239I1195J114D01*
G03X34395Y123814I-102J-387D01*
G02X32235Y122987I-1195J-114D01*
G03X31560Y122937I-322J-238D01*
G37*
G36*
G01X27713Y119665D02*
G02X26437Y119760I-713J-965D01*
G03X26487Y120435I-188J353D01*
G02X27763Y120340I713J965D01*
G03X27713Y119665I188J-353D01*
G37*
G36*
G01X24104Y66561D02*
G02X22896Y66189I-304J-1161D01*
G03X22696Y66839I-301J263D01*
G02X23904Y67211I304J1161D01*
G03X24104Y66561I301J-263D01*
G37*
G36*
G01X13110Y57838D02*
G02X11347Y57791I-860J-837D01*
G03X11340Y58063I-150J132D01*
G02X11318Y59714I860J837D01*
G03Y59986I-147J136D01*
G02X13082I882J814D01*
G03Y59714I147J-136D01*
G02X13154Y59629I-882J-814D01*
G03X13496Y59672I159J121D01*
G02X13797Y58308I1104J-472D01*
G03X13198Y58233I-267J-297D01*
G02X13103Y58109I-998J667D01*
G03X13110Y57838I150J-132D01*
G37*
G36*
G01X-2173Y43663D02*
G02X-3764Y43900I-927J-763D01*
G03X-3677Y44487I-221J333D01*
G02X-3603Y46094I927J763D01*
G03Y46656I-284J281D01*
G02Y48344I853J844D01*
G03Y48906I-284J281D01*
G02Y50594I853J844D01*
G03Y51156I-284J281D01*
G02Y52844I853J844D01*
G03Y53406I-284J281D01*
G02X-3364Y55281I854J844D01*
G03Y55969I-205J344D01*
G02X-3603Y57844I614J1031D01*
G03Y58406I-284J281D01*
G02Y60094I853J844D01*
G03Y60656I-284J281D01*
G02X-1812Y62249I853J844D01*
G03X-1188I312J250D01*
G02X632Y60686I938J-749D01*
G03Y60414I147J-136D01*
G02X669Y58829I-882J-814D01*
G03Y58571I153J-129D01*
G02Y57029I-919J-771D01*
G03Y56771I153J-129D01*
G02X-1428Y55773I-919J-771D01*
G03X-2053Y56023I-393J-76D01*
G02X-2136Y55969I-696J978D01*
G03Y55281I205J-344D01*
G02X-1896Y53406I-614J-1031D01*
G03Y52844I284J-281D01*
G02Y51156I-854J-844D01*
G03Y50594I284J-281D01*
G02Y48906I-854J-844D01*
G03Y48344I284J-281D01*
G02Y46656I-854J-844D01*
G03Y46094I284J-281D01*
G02X-2086Y44250I-854J-844D01*
G03X-2173Y43663I221J-333D01*
G37*
G36*
G01X45396Y26758D02*
G02X45336Y25544I1004J-658D01*
G03X44647Y25578I-355J-185D01*
G02X44707Y26792I-1004J658D01*
G03X45396Y26758I355J185D01*
G37*
G36*
G01X36397Y73183D02*
G02X35653Y74212I-1197J-83D01*
G03X36203Y74610I151J370D01*
G02X36947Y73581I1197J83D01*
G03X36397Y73183I-151J-370D01*
G37*
G36*
G01X55094Y79147D02*
G02Y80854I-844J853D01*
G03X55656I281J284D01*
G02X57438Y80749I844J-854D01*
G03X58063I313J250D01*
G02Y79251I937J-749D01*
G03X57438I-313J-250D01*
G02X55656Y79147I-938J749D01*
G03X55094I-281J-284D01*
G37*
G36*
G01X39238Y93151D02*
G02X37551Y94838I-938J749D01*
G03Y95462I-250J313D01*
G02Y97338I749J937D01*
G03Y97962I-250J313D01*
G02Y99838I749J938D01*
G03Y100463I-250J313D01*
G02Y102337I749J937D01*
G03Y102962I-250J313D01*
G02X39049I749J937D01*
G03Y102337I250J-313D01*
G02X39238Y102149I-749J-937D01*
G03X39862I312J250D01*
G02X41738I938J-749D01*
G03X42362I312J250D01*
G02X44238I937J-749D01*
G03X44862I312J250D01*
G02X46662Y102235I938J-749D01*
G03X47238I288J278D01*
G02X48849Y100463I862J-835D01*
G03Y99838I250J-313D01*
G02Y97962I-749J-938D01*
G03Y97338I250J-312D01*
G02Y95462I-749J-938D01*
G03Y94838I250J-313D01*
G02X47351I-749J-937D01*
G03Y95462I-250J313D01*
G02X47238Y95565I749J938D01*
G03X46662I-287J-278D01*
G02X44862Y95651I-862J835D01*
G03X44238I-312J-250D01*
G02X44049Y95462I-938J749D01*
G03Y94838I250J-313D01*
G02X42362Y93151I-749J-937D01*
G03X41738I-313J-250D01*
G02X39862I-937J749D01*
G03X39238I-312J-250D01*
G37*
G36*
G01X59064Y104551D02*
G02X58873Y103386I936J-751D01*
G03X58186Y103499I-375J-138D01*
G02X58377Y104664I-936J751D01*
G03X59064Y104551I375J138D01*
G37*
G36*
G01X8632Y9878D02*
G03X8367Y9871I-128J-154D01*
G02X8318Y11672I-817J879D01*
G03X8583Y11679I128J154D01*
G02X10171Y11719I817J-879D01*
G03X10429I129J153D01*
G02Y9881I771J-919D01*
G03X10171I-129J-153D01*
G02X8632Y9878I-771J919D01*
G37*
G36*
G01X-4728Y13775D02*
G03Y13225I290J-275D01*
G02X-6472I-872J-825D01*
G03Y13775I-290J275D01*
G02X-4728I872J825D01*
G37*
G36*
G01X13897Y14412D02*
G03X14083Y14197I199J-15D01*
G02X12803Y13088I-83J-1197D01*
G03X12617Y13303I-199J15D01*
G02X13897Y14412I83J1197D01*
G37*
G36*
G01X22500Y15813D02*
G03X22000I-250J-312D01*
G02X20313Y17500I-750J937D01*
G03Y18000I-312J250D01*
G02Y19500I937J750D01*
G03Y20000I-312J250D01*
G02X22000Y21687I937J750D01*
G03X22500I250J312D01*
G02X24000I750J-937D01*
G03X24500I250J312D01*
G02X26000I750J-937D01*
G03X26500I250J312D01*
G02X28187Y20000I750J-937D01*
G03Y19500I312J-250D01*
G02Y18000I-937J-750D01*
G03Y17500I312J-250D01*
G02X26500Y15813I-937J-750D01*
G03X26000I-250J-312D01*
G02X24500I-750J937D01*
G03X24000I-250J-312D01*
G02X22500I-750J937D01*
G37*
G36*
G01X-3102Y24066D02*
G03X-2652Y23691I399J22D01*
G02X-3698Y22434I152J-1191D01*
G03X-4148Y22809I-399J-22D01*
G02X-3102Y24066I-152J1191D01*
G37*
G36*
G01X22170Y27274D02*
G03X22195Y26699I290J-275D01*
G02X20530Y26626I-795J-899D01*
G03X20505Y27201I-290J275D01*
G02X20465Y28963I795J899D01*
G03Y29538I-278J287D01*
G02X22135I835J862D01*
G03Y28963I278J-288D01*
G02X22170Y27274I-835J-862D01*
G37*
G36*
G01X33081Y26165D02*
G02X35481I1200J28D01*
G02X33081I-1200J-28D01*
G37*
G36*
G01X45314Y69292D02*
G03X44765Y69268I-262J-302D01*
G02X43035I-865J833D01*
G03X42486Y69292I-288J-277D01*
G02X42565Y71033I-785J908D01*
G03X43114Y71008I288J277D01*
G02X44686I786J-907D01*
G03X45235Y71033I262J302D01*
G02X46925Y71072I865J-832D01*
G03X47475I275J290D01*
G02Y69328I825J-872D01*
G03X46925I-275J-290D01*
G02X45314Y69292I-825J872D01*
G37*
G36*
G01X41656Y85897D02*
G03X41094I-281J-284D01*
G02Y87604I-844J853D01*
G03X41656I281J284D01*
G02Y85897I844J-853D01*
G37*
G36*
G01X34320Y88302D02*
G03X33945Y87864I23J-399D01*
G02X32680Y88948I-1195J-114D01*
G03X33055Y89386I-23J399D01*
G02X34320Y88302I1195J114D01*
G37*
G36*
G01X56872Y93531D02*
G03X56572Y93056I91J-390D01*
G02X55127Y93969I-1173J-256D01*
G03X55427Y94444I-91J390D01*
G02X55411Y94863I1173J256D01*
G03X55074Y95313I-396J54D01*
G02Y97687I177J1187D01*
G03X55411Y98137I-59J396D01*
G02X56776Y97113I1189J163D01*
G03X56439Y96663I59J-396D01*
G02Y96337I-1189J-163D01*
G03X56776Y95887I396J-54D01*
G02X56872Y93531I-177J-1187D01*
G37*
G36*
G01X54156Y107146D02*
G03X53594I-281J-284D01*
G02Y108854I-844J854D01*
G03X54156I281J284D01*
G02Y107146I844J-853D01*
G37*
G36*
G01X118694Y123711D02*
G03X118132Y123686I-269J-296D01*
G02X118056Y125389I-882J814D01*
G03X118618Y125414I269J296D01*
G02X118694Y123711I882J-814D01*
G37*
G36*
G01X179750Y63563D02*
G03X179250I-250J-312D01*
G02Y65437I-750J937D01*
G03X179750I250J312D01*
G02X181250I750J-937D01*
G03X181750I250J312D01*
G02Y63563I750J-937D01*
G03X181250I-250J-312D01*
G02X179750I-750J937D01*
G37*
G36*
G01X77437Y61250D02*
G03Y60750I312J-250D01*
G02X75563I-937J-750D01*
G03Y61250I-312J250D01*
G02Y62750I937J750D01*
G03Y63250I-312J250D01*
G02X77437I937J750D01*
G03Y62750I312J-250D01*
G02Y61250I-937J-750D01*
G37*
G36*
G01X93687Y55000D02*
G03Y54500I312J-250D01*
G02X91813I-937J-750D01*
G03Y55000I-312J250D01*
G02X93687I937J750D01*
G37*
G36*
G01X189940Y50503D02*
G03X190040Y49916I313J-249D01*
G02X188460Y49647I-639J-1016D01*
G03X188360Y50234I-313J249D01*
G02X189940Y50503I639J1016D01*
G37*
G36*
G01X77437Y45250D02*
G03Y44750I312J-250D01*
G02X75563I-937J-750D01*
G03Y45250I-312J250D01*
G02Y46750I937J750D01*
G03Y47250I-312J250D01*
G02X77437I937J750D01*
G03Y46750I312J-250D01*
G02Y45250I-937J-750D01*
G37*
G36*
G01X95437Y31500D02*
G03Y31000I312J-250D01*
G02X93563I-937J-750D01*
G03Y31500I-312J250D01*
G02X95437I937J750D01*
G37*
G36*
G01X86887Y30750D02*
G03Y30250I312J-250D01*
G02X85013I-937J-750D01*
G03Y30750I-312J250D01*
G02Y32250I937J750D01*
G03Y32750I-312J250D01*
G02X86887I937J750D01*
G03Y32250I312J-250D01*
G02Y30750I-937J-750D01*
G37*
G36*
G01X77437Y29750D02*
G03Y29250I312J-250D01*
G02X75563I-937J-750D01*
G03Y29750I-312J250D01*
G02Y31250I937J750D01*
G03Y31750I-312J250D01*
G02Y33250I937J750D01*
G03Y33750I-312J250D01*
G02X77437I937J750D01*
G03Y33250I312J-250D01*
G02Y31750I-937J-750D01*
G03Y31250I312J-250D01*
G02Y29750I-937J-750D01*
G37*
G36*
G01X95437Y21000D02*
G03Y20500I312J-250D01*
G02X93563I-937J-750D01*
G03Y21000I-312J250D01*
G02X95437I937J750D01*
G37*
G36*
G01X202964Y56043D02*
G02X201684Y54124I-364J-1144D01*
G03X201097Y54149I-305J-259D01*
G02X199406Y54147I-847J851D01*
G03X198844I-281J-284D01*
G02X197025Y54300I-844J854D01*
G03X196375I-325J-233D01*
G02Y55700I-975J700D01*
G03X197025I325J233D01*
G02X197300Y55975I975J-700D01*
G03Y56625I-233J325D01*
G02X198700I700J975D01*
G03Y55975I233J-325D01*
G02X198844Y55854I-700J-975D01*
G03X199406I281J284D01*
G02X201166Y55776I844J-854D01*
G03X201753Y55751I305J259D01*
G02X201786Y55782I848J-849D01*
G03X201636Y56457I-271J294D01*
G02X202814Y56718I365J1144D01*
G03X202964Y56043I271J-294D01*
G37*
G36*
G01X89487Y54500D02*
G02X87613I-937J-750D01*
G03Y55000I-312J250D01*
G02X87449Y55272I937J750D01*
G03X87071Y55236I-183J-80D01*
G02X86831Y56257I-1171J264D01*
G03X87494Y56320I310J252D01*
G02X89487Y55000I1056J-570D01*
G03Y54500I312J-250D01*
G37*
G36*
G01X189749Y40938D02*
G02X188251I-749J-937D01*
G03Y41562I-250J313D01*
G02X188146Y43344I749J938D01*
G03Y43906I-284J281D01*
G02X189854I854J844D01*
G03Y43344I284J-281D01*
G02X189749Y41562I-854J-844D01*
G03Y40938I250J-312D01*
G37*
G36*
G01X108445Y29614D02*
G02X107180Y30698I-1195J-114D01*
G03X107555Y31136I-23J399D01*
G02Y31364I1195J114D01*
G03X107180Y31802I-398J38D01*
G02Y34198I70J1198D01*
G03X107555Y34636I-23J399D01*
G02Y34864I1195J114D01*
G03X107180Y35302I-398J38D01*
G02X106396Y37344I70J1198D01*
G03Y37906I-284J281D01*
G02X106501Y39688I854J844D01*
G03Y40312I-250J312D01*
G02X106396Y42094I749J938D01*
G03Y42656I-284J281D01*
G02X107180Y44698I854J844D01*
G03X107555Y45136I-23J399D01*
G02Y45364I1195J114D01*
G03X107180Y45802I-398J38D01*
G02Y48198I70J1198D01*
G03X107555Y48636I-23J399D01*
G02Y48864I1195J114D01*
G03X107180Y49302I-398J38D01*
G02Y51698I70J1198D01*
G03X107555Y52136I-23J399D01*
G02Y52364I1195J114D01*
G03X107180Y52802I-398J38D01*
G02Y55198I70J1198D01*
G03X107555Y55636I-23J399D01*
G02Y55864I1195J114D01*
G03X107180Y56302I-398J38D01*
G02Y58698I70J1198D01*
G03X107555Y59136I-23J399D01*
G02Y59364I1195J114D01*
G03X107180Y59802I-398J38D01*
G02Y62198I70J1198D01*
G03X107555Y62636I-23J399D01*
G02Y62864I1195J114D01*
G03X107180Y63302I-398J38D01*
G02X108445Y64386I70J1198D01*
G03X108820Y63948I398J-38D01*
G02Y61552I-70J-1198D01*
G03X108445Y61114I23J-399D01*
G02Y60886I-1195J-114D01*
G03X108820Y60448I398J-38D01*
G02Y58052I-70J-1198D01*
G03X108445Y57614I23J-399D01*
G02Y57386I-1195J-114D01*
G03X108820Y56948I398J-38D01*
G02Y54552I-70J-1198D01*
G03X108445Y54114I23J-399D01*
G02Y53886I-1195J-114D01*
G03X108820Y53448I398J-38D01*
G02Y51052I-70J-1198D01*
G03X108445Y50614I23J-399D01*
G02Y50386I-1195J-114D01*
G03X108820Y49948I398J-38D01*
G02Y47552I-70J-1198D01*
G03X108445Y47114I23J-399D01*
G02Y46886I-1195J-114D01*
G03X108820Y46448I398J-38D01*
G02Y44052I-70J-1198D01*
G03X108445Y43614I23J-399D01*
G02X108104Y42656I-1195J-114D01*
G03Y42094I284J-281D01*
G02X107999Y40312I-854J-844D01*
G03Y39688I250J-312D01*
G02X108104Y37906I-749J-938D01*
G03Y37344I284J-281D01*
G02X108445Y36386I-854J-844D01*
G03X108820Y35948I398J-38D01*
G02Y33552I-70J-1198D01*
G03X108445Y33114I23J-399D01*
G02Y32886I-1195J-114D01*
G03X108820Y32448I398J-38D01*
G02Y30052I-70J-1198D01*
G03X108445Y29614I23J-399D01*
G37*
G36*
G01X109190Y15845D02*
G02X108497Y17092I-1190J155D01*
G03X109060Y17405I166J364D01*
G02X109753Y16158I1190J-155D01*
G03X109190Y15845I-166J-364D01*
G37*
G36*
G01X76938Y103751D02*
G02Y105249I-938J749D01*
G03X77562I312J250D01*
G02Y103751I938J-749D01*
G03X76938I-313J-250D01*
G37*
G36*
G01X101854Y91906D02*
G03Y91344I284J-281D01*
G02X100146I-853J-844D01*
G03Y91906I-284J281D01*
G02X101854I853J844D01*
G37*
G36*
G01X105955Y98127D02*
G03X105655Y97627I85J-391D01*
G02X104245Y98473I-1155J-327D01*
G03X104545Y98973I-85J391D01*
G02X105955Y98127I1155J327D01*
G37*
G36*
G01X222453Y38950D02*
G02X224147I847J850D01*
G02X222453I-847J-850D01*
G37*
G36*
G01X250966Y136570D02*
G02X249808Y136203I-265J-1170D01*
G03X249733Y136802I-297J267D01*
G02X251403Y138459I667J998D01*
G03X251978Y138359I334J220D01*
G02X251697Y136741I722J-959D01*
G03X250966Y136570I-334J-220D01*
G37*
G54D19*
X-31350Y152650D03*
X-26900Y160900D03*
X-24450Y151900D03*
X-26650Y164050D03*
X-24450Y156800D03*
X-25000Y166800D03*
X-5750Y153000D03*
X-5600Y159200D03*
X-11100Y162000D03*
X-11200Y166900D03*
X-10000Y174900D03*
X2250Y153050D03*
X3150Y165000D03*
X8500Y161900D03*
X3150Y168000D03*
X8600Y171050D03*
X12300Y161900D03*
X20350Y171050D03*
X16350D03*
X12350D03*
X72000Y13500D03*
Y19500D03*
X180600Y14700D03*
X181600Y22140D03*
X182000Y25250D03*
X185900Y27600D03*
X193500Y33600D03*
X189900Y33700D03*
X197700Y27600D03*
X193700D03*
X189800D03*
X199000Y38500D03*
X197016Y40750D03*
X209300Y22400D03*
X201500Y21800D03*
X209700Y14500D03*
X205500Y33700D03*
X209600Y27600D03*
X205800D03*
X201900D03*
X210200Y44700D03*
X207200Y40300D03*
X207500Y36200D03*
X203200Y35900D03*
X201000Y40750D03*
X207000Y43500D03*
X199600Y174400D03*
X203500Y170600D03*
X207500D03*
X215864Y12336D03*
X219931Y17831D03*
X213800Y16600D03*
X213400Y27600D03*
X220900Y57500D03*
X212400Y51000D03*
Y54000D03*
X217800Y64000D03*
X212500Y63750D03*
X222000Y74600D03*
X222100Y80700D03*
X216400Y72500D03*
X217400Y80500D03*
X222550Y85550D03*
X217800Y92400D03*
X213600Y92500D03*
Y100500D03*
Y96500D03*
X217400Y116500D03*
Y108500D03*
X213600Y112500D03*
X217400D03*
X221250D03*
Y108500D03*
Y116500D03*
X217400Y120500D03*
Y124500D03*
X217500Y128500D03*
X213600D03*
X221250D03*
Y120500D03*
X217400Y132500D03*
Y136500D03*
X213600D03*
Y132500D03*
X221250Y137000D03*
Y146750D03*
Y150016D03*
X217400Y148500D03*
Y144500D03*
Y152500D03*
Y160500D03*
Y164500D03*
Y156500D03*
X213500D03*
X211500Y170600D03*
X219500D03*
X215500D03*
X230400Y15300D03*
Y18400D03*
X224600Y22100D03*
X224900Y14100D03*
X226000Y77900D03*
X230700Y89000D03*
X223300Y88500D03*
X227100Y92500D03*
X223300D03*
X226100Y85900D03*
X233600Y92500D03*
X233580Y100820D03*
X223300Y100500D03*
X227100D03*
Y96500D03*
X223700D03*
X223300Y104500D03*
X234000Y96500D03*
X231800Y109100D03*
X227400Y124500D03*
Y128500D03*
Y136500D03*
Y132500D03*
Y140500D03*
Y148500D03*
Y152500D03*
Y144500D03*
Y156500D03*
Y160500D03*
X223500Y170600D03*
X242600Y51400D03*
X235700Y62500D03*
X245450Y93650D03*
X237225Y100720D03*
X237000Y96810D03*
X250900Y56400D03*
X255000D03*
X250900Y60700D03*
X255000D03*
X252900Y58500D03*
X248150Y68550D03*
X256400Y95700D03*
X253900Y98150D03*
X259900Y52000D03*
X268800Y60600D03*
X264900Y65400D03*
X263400Y113900D03*
X267400Y118300D03*
X259100Y118100D03*
X263700Y150000D03*
X268500Y145750D03*
X258750Y154250D03*
Y158750D03*
X-15000Y30500D03*
X-24000Y50000D03*
X-20000Y64000D03*
X-200Y130800D03*
X14623Y43097D03*
X20600Y54900D03*
X18500Y69000D03*
X14400D03*
X20800Y59000D03*
X14500Y63400D03*
X19250Y81500D03*
X19600Y103600D03*
X19400Y95600D03*
X19700Y111200D03*
X19100Y127500D03*
X19500Y119200D03*
X19400Y131800D03*
X20000Y152200D03*
X24832Y54183D03*
X24889Y48261D03*
X25100Y60300D03*
X23519Y88026D03*
X27100Y115000D03*
X22600Y136200D03*
X22900Y144500D03*
X29159Y152200D03*
X29100Y162800D03*
X24100Y161900D03*
X24500Y156250D03*
X37400Y137100D03*
X33000Y135700D03*
X41000Y135000D03*
X44500D03*
Y141400D03*
X41000D03*
X33884Y129759D03*
X37427D03*
X33900Y143400D03*
X33750Y148750D03*
X41500Y151100D03*
Y155200D03*
X44500Y170600D03*
X34000D03*
X48000Y141400D03*
X55000D03*
X54500Y155100D03*
X63600Y150600D03*
X58500Y151100D03*
Y155200D03*
X67200Y169600D03*
X74041Y152200D03*
Y148657D03*
X69500Y155800D03*
X74000Y162800D03*
X75500Y155750D03*
X74000Y169900D03*
X81800Y154900D03*
X84800D03*
X81000Y163750D03*
X85000Y163500D03*
X91750Y155000D03*
X85000Y173900D03*
Y167500D03*
X81000Y167400D03*
X91100Y170600D03*
X89000Y167400D03*
X97600Y149500D03*
X101400D03*
Y161500D03*
Y157500D03*
X97600Y153500D03*
X101400D03*
X93500Y163600D03*
X97600Y157500D03*
X93500Y167400D03*
X103500Y170600D03*
X99537Y167693D03*
X104672Y147372D03*
X104900Y150300D03*
Y153700D03*
Y161500D03*
X113400Y156300D03*
X111500Y170600D03*
X115500D03*
X126372Y151773D03*
X119411Y151801D03*
X126372Y148623D03*
X119411Y159632D03*
Y162794D03*
X117125Y156529D03*
X123223Y158072D03*
X126372D03*
X127500Y170600D03*
X129500Y151700D03*
X138969Y148676D03*
X135821Y148623D03*
X135750Y151750D03*
X132672Y151773D03*
X138971D03*
X132711Y148584D03*
X129522Y148623D03*
X134248Y165000D03*
X135821Y154922D03*
Y158072D03*
X132672Y154922D03*
Y158072D03*
X128000Y165000D03*
X129522Y158072D03*
X129576Y154913D03*
X131098Y165000D03*
X139500Y170600D03*
X145270Y148623D03*
X151569Y151773D03*
X142105Y148649D03*
X142120Y151773D03*
X151569Y148623D03*
X148420D03*
Y151773D03*
Y158072D03*
X151569D03*
Y154922D03*
X145270D03*
X145217Y158125D03*
X148420Y154922D03*
X151500Y170600D03*
X147500D03*
X161018Y148623D03*
X154719Y151773D03*
Y148623D03*
X161018Y145474D03*
X157868Y151773D03*
X161018D03*
X162593Y164961D03*
X157868Y158072D03*
X154719Y154922D03*
X157868D03*
X154721Y164371D03*
X170469Y126576D03*
X167320D03*
X170469Y132875D03*
X173619Y136025D03*
X167320Y129726D03*
X170469Y136025D03*
X167320Y132875D03*
Y136025D03*
X170469Y129726D03*
X173619Y145474D03*
X173618Y148622D03*
X170469Y142324D03*
X167320D03*
X170469Y151773D03*
X167320Y148623D03*
Y151773D03*
X164250Y161220D03*
X170469Y158072D03*
X173619Y161222D03*
Y164371D03*
X170469Y154922D03*
X170430Y164332D03*
X176768Y126576D03*
X186217D03*
X183068Y139174D03*
X176768Y136025D03*
X179918D03*
X186217Y129726D03*
X183068D03*
X186300Y136000D03*
X179918Y139174D03*
X176768D03*
X183068Y136025D03*
Y132875D03*
X186217D03*
Y139174D03*
X183044Y142300D03*
X179918Y151773D03*
X176768Y145474D03*
Y142324D03*
X186217Y148623D03*
X183066Y148622D03*
X186216Y151772D03*
X179917Y145472D03*
X183066Y151772D03*
X179919Y148622D03*
X176767D03*
X176768Y151773D03*
X183068Y145474D03*
X186254Y145511D03*
X179918Y164371D03*
Y154922D03*
X183066Y154921D03*
X186216D03*
X183068Y164371D03*
X186217Y161222D03*
X183068D03*
X176768Y164371D03*
Y154922D03*
X186217Y158072D03*
X176768D03*
X183068D03*
X186217Y164371D03*
X176768Y161222D03*
X179918D03*
X195666Y126576D03*
X198816D03*
X195669Y139169D03*
X195594Y136094D03*
X192516Y129726D03*
X189367D03*
Y139174D03*
X198816Y136025D03*
X189367Y132875D03*
X192516Y136025D03*
Y139174D03*
X198816D03*
Y132875D03*
X192477Y132836D03*
X189367Y136025D03*
X195627Y132836D03*
X189272Y142229D03*
X192500Y148800D03*
X189367Y145474D03*
X192516D03*
X195666Y148623D03*
X189367Y151773D03*
X195666D03*
X192516Y142324D03*
X195666Y145474D03*
X198816Y151773D03*
Y148623D03*
X198776Y142285D03*
Y145434D03*
X189404Y148660D03*
X195700Y155000D03*
X192516Y154922D03*
X198816Y158070D03*
X198750Y164500D03*
X189379Y161219D03*
X198816Y154920D03*
X195666Y158072D03*
X189367Y154922D03*
X195664Y164371D03*
X192517Y161222D03*
X201884Y126495D03*
X202000Y123433D03*
X205034Y129644D03*
X201965Y136025D03*
Y139174D03*
X205115D03*
X201965Y132875D03*
X205115Y136025D03*
Y148623D03*
X201965Y151773D03*
Y148623D03*
Y142324D03*
Y145474D03*
X205115D03*
Y142324D03*
X205128Y158072D03*
X201963Y158072D03*
X201926Y154960D03*
X59422Y32492D03*
X154719Y139174D03*
Y136025D03*
X154739Y113995D03*
Y117144D03*
X148420Y129726D03*
X151569D03*
X148420Y139174D03*
X151569D03*
X145270Y132875D03*
Y129726D03*
X142120Y136025D03*
Y132875D03*
X148420D03*
X148439Y120294D03*
X151473Y126673D03*
X142074Y126622D03*
X145290Y120294D03*
X145400Y123550D03*
X142132Y123435D03*
X142140Y120294D03*
X148420Y126630D03*
X151500Y114050D03*
X142101Y117147D03*
X145290Y117144D03*
Y113995D03*
X148439Y117144D03*
X151589D03*
X148484Y113876D03*
X132711Y139135D03*
X139000Y139201D03*
X135821Y132875D03*
X135861Y139135D03*
X129522Y129726D03*
X132672Y132875D03*
Y129726D03*
X135821D03*
X138971Y136025D03*
X132672D03*
X138971Y132875D03*
X135821Y136025D03*
X129522Y132875D03*
X139097Y126446D03*
X135821Y126576D03*
X135841Y123407D03*
X132672Y126576D03*
X132691Y113995D03*
X135841D03*
X138991D03*
X135841Y117144D03*
X138991D03*
X129650Y117150D03*
X132675Y117150D03*
X126412Y139135D03*
X126384Y129726D03*
X119313Y140748D03*
X126372Y132875D03*
X116100Y120100D03*
X123200Y123600D03*
X126200Y120250D03*
X127350Y123950D03*
X123325Y114025D03*
X120300Y113946D03*
X126300Y117144D03*
X115500Y136000D03*
X111300Y129800D03*
X111500Y136000D03*
X106000Y129100D03*
X111250Y123750D03*
X104100Y120000D03*
X107400Y121800D03*
X111100Y120000D03*
Y115000D03*
X107382Y114000D03*
X114800Y113900D03*
X102200Y130600D03*
X101500Y121700D03*
X69316Y129759D03*
X74000Y132000D03*
X69500Y134800D03*
X78500Y117200D03*
X72400Y111700D03*
X68500Y40500D03*
X58500Y135000D03*
X62300Y129800D03*
X58500Y126000D03*
X67250Y107500D03*
Y111050D03*
X66500Y95500D03*
X66600Y87400D03*
X66500Y91500D03*
X56600Y76000D03*
X66600Y79600D03*
X68300Y76400D03*
X64400Y76000D03*
X60500D03*
X59404Y60791D03*
X64200Y64000D03*
X59422Y54483D03*
X62571D03*
X65777D03*
X62627Y51334D03*
X59478D03*
X62571Y57633D03*
Y41941D03*
X62637Y38725D03*
X59488D03*
X62571Y45034D03*
X59422D03*
X55000Y126000D03*
X56400Y116500D03*
X47237Y110170D03*
X46100Y117500D03*
X45750Y86750D03*
X47900Y83800D03*
X52000Y83900D03*
X52300Y72600D03*
X48000Y76400D03*
X53152Y63961D03*
X56262Y63922D03*
X50026Y60751D03*
X54250Y70000D03*
X56272Y60782D03*
X46800Y67378D03*
X46832Y60832D03*
X53208Y60800D03*
X49973Y54483D03*
X46914Y57717D03*
X53122Y54483D03*
X50026Y57717D03*
X56272Y57633D03*
Y48184D03*
X46835Y48222D03*
X46953Y51256D03*
X53122Y48184D03*
X49973Y51334D03*
X56272D03*
Y54483D03*
X46870Y35613D03*
X56299Y45063D03*
X56370Y41918D03*
X46953Y38687D03*
X49908Y35692D03*
X49973Y38791D03*
X49987Y41878D03*
X53122Y38791D03*
X49987Y45030D03*
X56272Y35585D03*
X53122Y35641D03*
X53100Y41839D03*
X53189Y45024D03*
X53034Y26282D03*
X49973Y26193D03*
X56330Y29349D03*
X46796Y32422D03*
X56272Y32492D03*
X56333Y26052D03*
X49987Y32462D03*
X53139Y32422D03*
X53178Y29349D03*
X42500Y110700D03*
X40000Y76400D03*
X40082Y64860D03*
X40580Y60782D03*
X43850Y60640D03*
X35659Y64664D03*
X37430Y51334D03*
X40492Y57757D03*
X37430Y57633D03*
X34281D03*
X43722Y57717D03*
X40570Y48104D03*
X37430Y48184D03*
Y54483D03*
X43721Y48221D03*
X40500Y51400D03*
X43732Y51332D03*
X37430Y35641D03*
X43683Y35614D03*
X43674Y45034D03*
X40531Y45070D03*
X43644Y41957D03*
X34281Y35641D03*
X37430Y38791D03*
X34281D03*
X37430Y41941D03*
X34281D03*
X34400Y45100D03*
X40570Y41894D03*
X37401Y45061D03*
X43674Y38791D03*
X34281Y29286D03*
X43444Y29056D03*
X37430Y26137D03*
Y29286D03*
X40531Y32462D03*
X43683D03*
X37300Y32500D03*
X24400Y35456D03*
X27981Y35641D03*
X31131D03*
X27981Y38791D03*
X31131D03*
Y45034D03*
Y26193D03*
Y29342D03*
X27942Y32452D03*
X31131Y32492D03*
X28031Y26242D03*
X24850Y26197D03*
X14600Y28100D03*
X15000Y18000D03*
X17250Y15000D03*
X-4500Y18000D03*
X65830Y29390D03*
X62600Y29460D03*
X62547Y26217D03*
X62571Y32492D03*
X66141Y32659D03*
X77000Y68300D03*
Y71500D03*
X91250Y20750D03*
Y15500D03*
Y31250D03*
Y26000D03*
Y36500D03*
X86000Y63500D03*
X80500Y68300D03*
X85900Y59400D03*
X88400Y72000D03*
X80500Y71500D03*
X101000Y22500D03*
Y19000D03*
Y15500D03*
X97500D03*
X98000Y20750D03*
X101000Y33000D03*
Y29500D03*
Y26000D03*
X98000D03*
Y31250D03*
X101000Y36500D03*
Y40000D03*
Y43500D03*
X98000Y36500D03*
Y41750D03*
X98500Y57000D03*
X96400Y47000D03*
X101000Y70000D03*
X96500Y63900D03*
X96400Y68000D03*
X98500Y60000D03*
X101300Y77500D03*
X96400Y72000D03*
X115000Y15600D03*
X107250Y19000D03*
X110250Y20750D03*
X107250Y22500D03*
X110250Y24250D03*
X107250Y26000D03*
X110250Y27750D03*
X113254Y33187D03*
Y39092D03*
X115223Y36139D03*
X105500Y70000D03*
X122506Y21966D03*
X125656D03*
X121128Y33187D03*
X117191D03*
X125065D03*
X121128Y39092D03*
X119160Y36139D03*
X127034D03*
X125065Y39092D03*
X123097Y36139D03*
X117191Y39092D03*
X122506Y50313D03*
X125656D03*
X120147Y76253D03*
X126374Y76181D03*
X123203Y76160D03*
X128806Y21966D03*
X135105D03*
X131955D03*
X138254D03*
X136876Y33187D03*
X132939D03*
X129002D03*
X132939Y39092D03*
X136876D03*
X129002D03*
X130971Y36139D03*
X138828D03*
X134908D03*
X135105Y50313D03*
X128806D03*
X131955D03*
X135822Y76181D03*
X129523D03*
X132673D03*
X138972D03*
X144554Y21966D03*
X141404Y18816D03*
X150853Y21966D03*
X147703D03*
X144554Y28265D03*
X144750Y33187D03*
X140813D03*
X150853Y31415D03*
Y28265D03*
X147703D03*
X150853Y25116D03*
X147703D03*
X144554D03*
Y44013D03*
X144750Y39092D03*
X140813D03*
X150853Y44013D03*
Y40864D03*
X147703Y44013D03*
X149278Y36139D03*
X146128D03*
X142782D03*
X144554Y50313D03*
X150853D03*
Y47163D03*
X147703D03*
X144554D03*
X147703Y50313D03*
X142654Y61349D03*
X151598Y76160D03*
X145271Y76181D03*
X142122D03*
X160302Y21966D03*
X154002Y21900D03*
X157152Y21966D03*
X163451D03*
X157152Y25116D03*
Y31415D03*
X163451Y28265D03*
X160302Y31415D03*
X163451D03*
Y25116D03*
X154002D03*
X157152Y28265D03*
X154002Y31415D03*
X160302Y28265D03*
X154002D03*
X160302Y25116D03*
X154002Y44013D03*
X157152Y40864D03*
X163451D03*
Y44013D03*
X160302Y40864D03*
X157152Y44013D03*
X154002Y40864D03*
Y36139D03*
X160302Y44013D03*
X163451Y50313D03*
X157152D03*
X160302Y47163D03*
X157152D03*
X154002D03*
X163451D03*
X154002Y50313D03*
X160302D03*
X161100Y74500D03*
X158000D03*
X169750Y21966D03*
X166601D03*
Y28265D03*
X172900D03*
X166601Y31415D03*
X169750D03*
Y25116D03*
X172900Y31415D03*
X166601Y25116D03*
X172900D03*
X169750Y28265D03*
Y36139D03*
Y44013D03*
X166601Y40864D03*
X172900D03*
X166601Y44013D03*
X169750Y40864D03*
X172900Y44013D03*
X169750Y50313D03*
X172900Y47163D03*
X166601D03*
X172900Y50313D03*
X169750Y47163D03*
X166601Y50313D03*
X166460Y74500D03*
X169453Y74389D03*
X170430Y104566D03*
X173580D03*
Y98266D03*
Y101416D03*
X170430Y117164D03*
X173580Y114015D03*
X167280Y117164D03*
Y114015D03*
X186750Y46750D03*
X185900Y57500D03*
Y61500D03*
X175900Y73700D03*
X181900Y75326D03*
X179600Y71500D03*
X182989Y79408D03*
X179879Y88818D03*
X186300Y88800D03*
X186169Y95031D03*
X183200Y101400D03*
X183002Y95144D03*
X179879Y104566D03*
X186200Y104500D03*
X183002Y98256D03*
X186178Y98266D03*
X186247Y101347D03*
X179879Y117164D03*
X183028D03*
X186178Y114015D03*
X179879Y110865D03*
Y107715D03*
X183028D03*
Y110865D03*
Y114015D03*
X179879D03*
X186178Y110865D03*
Y117164D03*
Y107715D03*
X187500Y54750D03*
X189500Y57600D03*
X195750Y47500D03*
X196000Y67100D03*
X187500Y67250D03*
X195500Y75000D03*
X192000Y70900D03*
X198750Y76250D03*
X198841Y79304D03*
X196000Y70900D03*
X195610Y85570D03*
X198776Y88818D03*
X195627Y91967D03*
X198776D03*
X189400Y88800D03*
X189328Y91967D03*
X195627Y88818D03*
X198776Y82518D03*
X198802Y85766D03*
X192600Y95000D03*
X189394Y95106D03*
X195627Y98266D03*
Y104566D03*
X198776D03*
X189300Y101400D03*
X192474Y101474D03*
X189328Y98266D03*
X198700Y101400D03*
X195627Y101416D03*
X198776Y98266D03*
Y95117D03*
X195627D03*
X189328Y110865D03*
X192477Y113938D03*
Y107639D03*
Y110789D03*
X195600Y107800D03*
X198776Y107712D03*
X189328Y117164D03*
X195627Y114015D03*
X198700Y113900D03*
X195627Y110865D03*
X189328Y114015D03*
X198776Y110865D03*
X206000Y57600D03*
X204000Y67100D03*
X205076Y79369D03*
X202023Y76123D03*
X201926Y79369D03*
X204000Y70900D03*
X200000D03*
X205076Y88818D03*
X201926Y91967D03*
Y85668D03*
Y82518D03*
X205066Y91992D03*
X201926Y88818D03*
X205097Y82497D03*
X205000Y104600D03*
X201926Y95117D03*
X201800Y101400D03*
X201926Y98266D03*
X201800Y110900D03*
X202000Y113900D03*
X205076Y117164D03*
X164131Y98266D03*
X154739Y107696D03*
X157888D03*
Y101396D03*
X161038D03*
X154739Y104546D03*
X157888D03*
X161038D03*
X154739Y101396D03*
Y98247D03*
X161017Y85648D03*
Y88800D03*
X145200Y107606D03*
X148439Y107696D03*
X142140Y95097D03*
Y98247D03*
X151492Y101300D03*
X145271Y104528D03*
X145400Y101320D03*
X145290Y95097D03*
X148439Y101396D03*
X142140D03*
Y104546D03*
X151600Y104560D03*
X145290Y91948D03*
X142140D03*
X145290Y88798D03*
X142140D03*
Y85648D03*
X148439Y88798D03*
X129542Y107696D03*
X138948Y107653D03*
X132691Y107696D03*
X135841D03*
X138972Y95079D03*
X138991Y98247D03*
X129542Y101396D03*
X135841Y95060D03*
X138991Y104546D03*
X135841D03*
X132691Y95097D03*
X135841Y101396D03*
X132691D03*
X129542Y95097D03*
Y98247D03*
X132673Y98228D03*
X135822D03*
X129542Y104546D03*
X132691D03*
X138997Y101403D03*
X138991Y85648D03*
Y88798D03*
X135841D03*
X135804Y91948D03*
X132673Y85630D03*
X135841Y85648D03*
X129542Y88798D03*
Y91948D03*
X138969Y91969D03*
X132691Y88798D03*
X126392Y107696D03*
X123400Y107700D03*
X120415Y107415D03*
X123242Y104509D03*
X123224Y98228D03*
X126374Y95079D03*
X120074D03*
X126392Y98247D03*
X123224Y95079D03*
X126392Y101396D03*
X120074Y98228D03*
X120301Y104301D03*
X120074Y91929D03*
Y88780D03*
X123224D03*
X126392Y85648D03*
Y88798D03*
X123224Y85630D03*
X126392Y91948D03*
X120074Y85630D03*
X123224Y91929D03*
X107900Y106100D03*
X105700Y103900D03*
X111800Y105000D03*
X112663Y90354D03*
X100000Y104000D03*
X100400Y100200D03*
X97500D03*
X88400Y104500D03*
X91000Y100500D03*
X82100Y104500D03*
X74600Y100600D03*
X75000Y87500D03*
X112920Y94780D03*
X243500Y41200D03*
X232000Y170900D03*
X246500Y119750D03*
X242800Y123600D03*
X246750Y130500D03*
X242824Y143280D03*
X235500Y174400D03*
X249900Y111200D03*
X247800Y115300D03*
X251000Y119750D03*
X250750Y127500D03*
X247750D03*
X248700Y141300D03*
G54D21*
X231250Y57720D03*
Y67560D03*
G54D22*
X0Y82500D03*
Y92500D03*
X10000Y87500D03*
X0Y102500D03*
X10000Y97500D03*
Y107500D03*
X0Y112500D03*
X10000Y117500D03*
X0Y122500D03*
X10000Y127500D03*
G54D20*
X40000Y5000D03*
X50000D03*
X70000D03*
X60000D03*
X80000D03*
X90000D03*
X100000D03*
X110000D03*
X130000D03*
X120000D03*
X140000D03*
X150000D03*
X160000D03*
X170000D03*
X180000D03*
X200000D03*
X190000D03*
X210000D03*
X220000D03*
X230000D03*
G54D23*
X40970Y166373D03*
X55143D03*
X48057D03*
%LPD*%
G75*
G54D10*
X-33615Y10277D03*
Y39608D03*
G54D11*
X-29800Y140700D03*
X-29700Y157600D03*
Y173700D03*
X-29900Y166300D03*
X-250Y13000D03*
Y19000D03*
Y17000D03*
Y15000D03*
X-300Y29800D03*
Y31700D03*
X-250Y33750D03*
X-300Y35800D03*
X-250Y41650D03*
X-200Y39700D03*
X-250Y43750D03*
X40570Y35614D03*
X58200Y13900D03*
X58100Y19300D03*
Y17500D03*
Y15800D03*
X79600Y52000D03*
X79700Y53800D03*
Y55600D03*
X73800Y79800D03*
X80000Y88500D03*
X81700Y55600D03*
Y53800D03*
X81600Y52000D03*
X86500Y79000D03*
X86524Y88460D03*
X148491Y98344D03*
X145290Y98247D03*
X142168Y107668D03*
X151569Y132875D03*
X148420Y136025D03*
X151569D03*
X158000Y69500D03*
X160953D03*
X151640Y98344D03*
X154700Y120500D03*
X154719Y132875D03*
Y129726D03*
X166500Y69500D03*
X169453Y69389D03*
X167280Y101416D03*
Y98266D03*
X167357Y110865D03*
X167318Y107677D03*
X170468Y110827D03*
Y107677D03*
Y113976D03*
X173618Y110827D03*
Y107677D03*
Y117126D03*
X173619Y126576D03*
Y129726D03*
Y132875D03*
X185500Y1700D03*
X175953Y68000D03*
X179600D03*
X176767Y104528D03*
Y110827D03*
X176709Y107677D03*
X176767Y113976D03*
X179918Y126576D03*
X183068D03*
X176768Y129726D03*
X179918Y132875D03*
X176768D03*
X179918Y129726D03*
X187600Y14500D03*
X211600Y22400D03*
X215600Y40200D03*
X215700Y38400D03*
X216200Y36600D03*
X217400Y76500D03*
Y84500D03*
X217800Y88400D03*
X217400Y96500D03*
Y100500D03*
X227100Y104500D03*
X227500Y174400D03*
X231500D03*
X241900Y54600D03*
X243400Y110500D03*
X241400D03*
X239400D03*
X244000Y117800D03*
Y119700D03*
X250300Y44100D03*
Y41420D03*
Y46539D03*
X258400Y108100D03*
X248800Y117700D03*
X256604Y127646D03*
X248800Y119700D03*
X258646Y141354D03*
X251153Y141600D03*
X268900Y54400D03*
Y50500D03*
X265000Y60500D03*
X263000Y108100D03*
X266000Y164000D03*
G54D12*
X30000Y-5000D03*
Y5000D03*
X190000Y-5000D03*
G54D13*
X40970Y166373D03*
X55143D03*
X48057D03*
G54D14*
X231250Y40000D03*
G54D15*
G01X185500Y1700D02*
Y-500D01*
X190000Y-5000D01*
G54D16*
G01X30000Y5000D02*
Y-5000D01*
G54D17*
G01X-29800Y140700D02*
Y146200D01*
G01X26618Y1618D02*
X30000Y5000D01*
G01D02*
X33382Y8382D01*
G01X26618D02*
X30000Y5000D01*
G01D02*
X33382Y1618D01*
G01X227762Y36512D02*
X231250Y40000D01*
G01D02*
X234738Y43488D01*
G01X227762D02*
X231250Y40000D01*
G01D02*
X234738Y36512D01*
G01X262600Y160500D02*
X266000Y163900D01*
Y164000D01*
G54D18*
G01X-32500Y-12500D02*
X232500D01*
G03X282500Y37500I0J50000D01*
G01Y152500D01*
G03X232500Y202500I-50000J0D01*
G01X-32500D01*
G03X-57500Y177500I0J-25000D01*
G01Y12500D01*
G03X-32500Y-12500I25000J0D01*
M02*
