G04 ================== begin FILE IDENTIFICATION RECORD ==================*
G04 Layout Name:  C:/Users/a0321898/Documents/GitHub/beaglebone-ai/HW/BeagleBone-AI.brd*
G04 Film Name:    MASK_BOT*
G04 File Format:  Gerber RS274X*
G04 File Origin:  Cadence Allegro 17.2-S049*
G04 Origin Date:  Wed Feb 19 11:28:09 2020*
G04 *
G04 Layer:  VIA CLASS/SOLDERMASK_BOTTOM*
G04 Layer:  PIN/SOLDERMASK_BOTTOM*
G04 Layer:  PACKAGE GEOMETRY/SOLDERMASK_BOTTOM*
G04 Layer:  BOARD GEOMETRY/OUTLINE*
G04 Layer:  BOARD GEOMETRY/SOLDERMASK_BOTTOM*
G04 *
G04 Offset:    (0.000 0.000)*
G04 Mirror:    No*
G04 Mode:      Positive*
G04 Rotation:  0*
G04 FullContactRelief:  No*
G04 UndefLineWidth:     5.000*
G04 ================== end FILE IDENTIFICATION RECORD ====================*
%FSLAX25Y25*MOIN*%
%IR0*IPPOS*OFA0.00000B0.00000*MIA0B0*SFA1.00000B1.00000*%
%ADD59R,.058268X.098425*%
%ADD24R,.104X.044*%
%ADD19R,.116X.034*%
%ADD48O,.145X.09*%
%ADD16C,.12*%
%ADD26C,.13*%
%ADD31C,.185*%
%ADD25R,.02X.024*%
%ADD17R,.024X.022*%
%ADD50O,.052X.016*%
%ADD11R,.022X.024*%
%ADD38O,.014X.036*%
%ADD53R,.06X.073*%
%ADD45R,.063X.044*%
%ADD14R,.044X.063*%
%ADD32R,.039X.034*%
%ADD15R,.044X.029*%
%ADD36R,.034X.039*%
%ADD20C,.042*%
%ADD35C,.035*%
%ADD44C,.019*%
%ADD52C,.011811*%
%ADD33C,.066*%
%ADD18C,.075*%
%ADD27R,.052X.052*%
%ADD49C,.069*%
%ADD28R,.044X.044*%
%ADD30C,.098*%
%ADD29R,.073X.073*%
%ADD21C,.043307*%
%ADD34R,.066X.066*%
%ADD41O,.035433X.01378*%
%ADD58R,.022441X.025591*%
%ADD56R,.025591X.022441*%
%AMMACRO40*
4,1,20,-.034449,-.049213,
-.017323,-.049213,
-.017323,-.076772,
-.002362,-.076772,
-.002362,-.049213,
.002362,-.049213,
.002362,-.076772,
.017323,-.076772,
.017323,-.049213,
.034449,-.049213,
.034449,.049213,
.017323,.049213,
.017323,.076772,
.002362,.076772,
.002362,.049213,
-.002362,.049213,
-.002362,.076772,
-.017323,.076772,
-.017323,.049213,
-.034449,.049213,
-.034449,-.049213,
0.0*
%
%ADD40MACRO40*%
%ADD10O,.074803X.043307*%
%ADD47R,.043307X.033465*%
%ADD57R,.037402X.012992*%
%ADD60R,.043307X.012992*%
%ADD13R,.051181X.059055*%
%ADD23C,.027559*%
%ADD12R,.043307X.059055*%
%ADD55O,.015748X.03937*%
%ADD46R,.059055X.055118*%
%ADD51O,.03937X.015748*%
%ADD39R,.047244X.031496*%
%ADD61R,.062992X.035433*%
%ADD22O,.066929X.043307*%
%ADD37R,.037402X.082677*%
%ADD62O,.096457X.055118*%
%ADD54R,.084646X.084646*%
%ADD43R,.027559X.055118*%
%ADD63R,.07874X.059055*%
%ADD42R,.027559X.07874*%
%ADD64C,.005*%
G75*
%LPD*%
G75*
G54D10*
X-49757Y7226D03*
Y42659D03*
G54D20*
X-28106Y-5072D03*
X-22200D03*
G54D11*
X-53400Y17000D03*
X-51100Y70300D03*
Y62300D03*
Y66300D03*
X-49600Y17000D03*
X-45900D03*
X-42100D03*
X-47300Y70300D03*
Y62300D03*
Y66300D03*
X-17100Y16500D03*
X-20900D03*
X-21000Y105700D03*
X-24800D03*
X-16800D03*
X-21000Y109700D03*
X-24800D03*
X-16800Y113700D03*
Y109700D03*
X-3200Y19900D03*
X-7000D03*
X-8300Y12300D03*
X-12100D03*
X-13000Y105700D03*
Y113700D03*
Y109700D03*
X-3400Y144000D03*
Y153000D03*
X6300Y24700D03*
X2500D03*
X4100Y144000D03*
X7900D03*
X400D03*
X4100Y153000D03*
X7900D03*
X400D03*
X18500Y20300D03*
X14700D03*
X18500Y24200D03*
X14700D03*
X18400Y28100D03*
X14600D03*
X18400Y31900D03*
X14600D03*
X18400Y43500D03*
X14600D03*
X18400Y35700D03*
X14600D03*
Y39600D03*
X18400D03*
Y47300D03*
X14600D03*
Y51300D03*
X18400D03*
Y63100D03*
X14600D03*
X18400Y59200D03*
X14600D03*
X18400Y66900D03*
X14600D03*
X32600Y101250D03*
Y106000D03*
Y96500D03*
Y110000D03*
X27850Y148750D03*
X31650D03*
X42944Y60268D03*
X36400Y101250D03*
Y106000D03*
Y96500D03*
Y110000D03*
X53750Y58032D03*
X49950D03*
X46744Y60268D03*
X52700Y112600D03*
X56500D03*
X56400Y116500D03*
X52600D03*
X54600Y160500D03*
X67596Y35161D03*
X63796D03*
X57543Y57678D03*
X61343D03*
X59900Y99800D03*
X63700D03*
X60000Y103800D03*
X63800D03*
X58400Y160500D03*
X77100Y100600D03*
X71600Y141500D03*
X75400D03*
X71600Y155750D03*
X75400D03*
X88400Y47000D03*
X84600D03*
Y68000D03*
X88400D03*
Y72000D03*
X84600D03*
X80900Y100600D03*
X88600Y100700D03*
X84800D03*
X84600Y104500D03*
X88400D03*
X101100Y19000D03*
Y22500D03*
Y15500D03*
X93600D03*
X97400D03*
X101100Y26000D03*
Y33000D03*
Y29500D03*
Y43500D03*
Y36500D03*
Y40000D03*
Y47000D03*
Y50500D03*
Y57500D03*
Y54000D03*
X92600Y47000D03*
X96400D03*
X101100Y61000D03*
X96400Y68000D03*
X92600D03*
X101100Y64500D03*
X96400Y72000D03*
X92600D03*
X97600Y153500D03*
X101400D03*
X97600Y149500D03*
X101400D03*
X97600Y145500D03*
X101400D03*
X104900Y19000D03*
Y22500D03*
Y15500D03*
Y26000D03*
Y33000D03*
Y29500D03*
Y43500D03*
Y36500D03*
Y40000D03*
Y47000D03*
Y50500D03*
Y57500D03*
Y54000D03*
Y61000D03*
Y64500D03*
X112700Y90400D03*
X112663Y95079D03*
X111300Y127800D03*
X115100D03*
X111200Y120000D03*
X115000D03*
X111300Y123800D03*
X115100D03*
X111300Y131900D03*
X115100D03*
X106600Y145500D03*
X110400D03*
X106600Y149500D03*
X110400D03*
X106600Y153500D03*
X110400D03*
X106600Y165500D03*
X110400D03*
X106600Y161500D03*
X110400D03*
X106600Y157500D03*
X110400D03*
X126906Y15667D03*
X119032D03*
X122832D03*
X119032Y56612D03*
X122832D03*
X126906D03*
X119032Y61336D03*
X122832D03*
X116500Y90400D03*
X116463Y95079D03*
X119000Y116700D03*
X122800D03*
X122900Y120700D03*
X119100D03*
X123800Y131300D03*
X120000D03*
X126700Y141800D03*
X126100Y151600D03*
X126377Y145798D03*
X130706Y15667D03*
X134780D03*
X138580D03*
X134780Y56612D03*
X138580D03*
X130706D03*
X138826Y136356D03*
X130500Y141800D03*
X129900Y151600D03*
X130177Y145798D03*
X150528Y15667D03*
X146454D03*
X142654D03*
X150528Y56612D03*
X142654D03*
X146454D03*
Y61336D03*
X142654D03*
X150554Y96884D03*
X151313Y103815D03*
X148670Y106951D03*
X144870D03*
X149203Y117370D03*
X145403D03*
X149173Y113876D03*
X145373D03*
X151518Y110343D03*
X147718D03*
X141610Y124217D03*
X145410D03*
X141610Y120816D03*
X145410D03*
X142626Y136356D03*
X151670Y136578D03*
X142198Y145980D03*
X145998D03*
X151670Y141862D03*
X144569Y141876D03*
X148369D03*
X154328Y15667D03*
X162202D03*
X158402D03*
X154328Y56612D03*
X162202D03*
X158402D03*
X154395Y85630D03*
X158195D03*
X154018Y100324D03*
X157818D03*
X162804Y99058D03*
X154354Y96884D03*
X155113Y103815D03*
X158282Y110852D03*
X162082D03*
X159300Y123000D03*
X155500D03*
X157716Y129434D03*
X153916D03*
X155470Y136578D03*
X157716Y132957D03*
X153916D03*
X155470Y141862D03*
X170076Y56612D03*
X166276D03*
X166604Y99058D03*
X172665Y121909D03*
X183900Y102500D03*
X180100D03*
X180185Y107066D03*
X176385D03*
X180185Y110583D03*
X176385D03*
X176465Y121909D03*
X179765Y124146D03*
X183565D03*
X183455Y129000D03*
X179655D03*
X187100Y124200D03*
X187000Y136200D03*
X183200D03*
X185900Y141800D03*
X195400Y51500D03*
X191600D03*
X195400Y47500D03*
X191600D03*
Y55500D03*
X195400D03*
X198478Y94656D03*
X198300Y113800D03*
X190900Y124200D03*
X198556Y136041D03*
X189700Y141800D03*
X203900Y43500D03*
X200100D03*
X203900Y47500D03*
X200100D03*
X203900Y51500D03*
X200100D03*
X202278Y94656D03*
X202100Y113800D03*
X202356Y136041D03*
X213600Y76500D03*
X217400D03*
X213600Y72500D03*
X217400D03*
X213600Y80500D03*
X217400D03*
Y92500D03*
X213600D03*
Y88500D03*
X217400D03*
X213600Y84500D03*
X217400D03*
Y104500D03*
X213600D03*
X217400Y96500D03*
X213600D03*
X217400Y100500D03*
X213600D03*
X217400Y108500D03*
X213600D03*
X217400Y112500D03*
X213600D03*
X217400Y116500D03*
X213600D03*
X217400Y120500D03*
X213600D03*
X217400Y124500D03*
X213600D03*
X217400Y128500D03*
X213600D03*
X217400Y140500D03*
X213600D03*
Y136500D03*
X217400D03*
Y132500D03*
X213600D03*
X217400Y152500D03*
X213600D03*
X217400Y144500D03*
X213600D03*
X217400Y148500D03*
X213600D03*
X217400Y164500D03*
X213600D03*
X217400Y160500D03*
X213600D03*
X217400Y156500D03*
X213600D03*
X227100Y80500D03*
X223300D03*
X227100Y92500D03*
X223300D03*
X227100Y84500D03*
X223300D03*
Y88500D03*
X227100D03*
X233600Y92500D03*
X223300Y104500D03*
X227100D03*
Y96500D03*
X223300D03*
Y100500D03*
X227100D03*
X233600Y104500D03*
Y100500D03*
Y96500D03*
X237400Y92500D03*
Y104500D03*
Y100500D03*
Y96500D03*
X265100Y50500D03*
X268900D03*
X265100Y54400D03*
X268900D03*
X268800Y58300D03*
X265000D03*
X268700Y63300D03*
X264900D03*
G54D12*
X-50280Y22669D03*
X-42720D03*
Y31331D03*
G54D21*
X-33615Y10277D03*
Y39608D03*
G54D30*
X-12992Y73996D03*
Y136004D03*
G54D22*
X-27670Y7226D03*
Y42659D03*
G54D13*
X-49492Y31331D03*
G54D40*
X90500Y57500D03*
G54D31*
X0Y0D03*
Y190000D03*
X260000Y12500D03*
Y177500D03*
G54D23*
X-33615Y21793D03*
Y18643D03*
Y15494D03*
X-30859Y20218D03*
Y12935D03*
X-33615Y34391D03*
Y31242D03*
Y28092D03*
X-30859Y29667D03*
Y26517D03*
Y23368D03*
Y36950D03*
G54D41*
X84693Y53563D03*
Y55532D03*
Y57500D03*
Y59468D03*
Y61437D03*
X96307Y53563D03*
Y55532D03*
Y57500D03*
Y59468D03*
Y61437D03*
G54D32*
X-12100Y21100D03*
Y26700D03*
X24513Y28598D03*
Y34198D03*
X24613Y39906D03*
Y45506D03*
Y56983D03*
Y51383D03*
X32500Y114700D03*
Y120300D03*
X29250Y135700D03*
Y141300D03*
X40570Y32661D03*
Y27061D03*
X34227Y32972D03*
Y27372D03*
X34379Y48585D03*
Y54185D03*
X42000Y114700D03*
Y120300D03*
X52193Y29785D03*
Y24185D03*
X53082Y47791D03*
Y53391D03*
X48000Y114700D03*
Y120300D03*
X66000Y23700D03*
Y29300D03*
Y40700D03*
Y46300D03*
Y58300D03*
Y52700D03*
X69500Y129200D03*
Y134800D03*
X114563Y74956D03*
Y80556D03*
X130700Y125600D03*
Y120000D03*
X148421Y74956D03*
Y80556D03*
X148476Y152670D03*
Y158270D03*
X164169Y149921D03*
Y144321D03*
X174900Y68000D03*
Y73600D03*
X170523Y153660D03*
Y159260D03*
G54D14*
X-50500Y56000D03*
X-43500D03*
X2750Y16000D03*
X9750D03*
X2500Y31750D03*
X9500D03*
X2500Y40000D03*
X9500D03*
X1500Y59950D03*
X8500D03*
X2500Y50200D03*
X9500D03*
X60500Y17500D03*
X67500D03*
X80500Y24000D03*
X73500D03*
X80000Y53500D03*
X73000D03*
X80000Y62000D03*
X73000D03*
X114500Y68500D03*
X121500D03*
G54D50*
X247476Y43980D03*
Y41420D03*
Y38861D03*
Y46539D03*
X264724Y38861D03*
Y41420D03*
Y43980D03*
Y46539D03*
G54D42*
X110700Y112300D03*
X111419Y138526D03*
G54D51*
X246207Y55547D03*
Y61453D03*
X259593Y55547D03*
Y61453D03*
G54D60*
X261831Y80201D03*
Y81776D03*
Y83350D03*
Y84925D03*
Y86500D03*
Y92799D03*
Y91224D03*
Y89650D03*
Y88075D03*
G54D33*
X0Y82500D03*
Y92500D03*
X10000Y87500D03*
X0Y102500D03*
X10000Y97500D03*
Y107500D03*
X0Y112500D03*
X10000Y117500D03*
X0Y122500D03*
X20000Y5000D03*
Y195000D03*
X30000Y-5000D03*
Y5000D03*
Y185000D03*
Y195000D03*
X40000Y-5000D03*
Y5000D03*
Y185000D03*
Y195000D03*
X50000Y-5000D03*
Y5000D03*
Y185000D03*
Y195000D03*
X70000Y-5000D03*
X60000D03*
X70000Y5000D03*
X60000D03*
X70000Y185000D03*
X60000D03*
X70000Y195000D03*
X60000D03*
X80000Y-5000D03*
Y5000D03*
Y185000D03*
Y195000D03*
X90000Y-5000D03*
Y5000D03*
Y185000D03*
Y195000D03*
X100000Y-5000D03*
Y5000D03*
Y185000D03*
Y195000D03*
X110000Y-5000D03*
Y5000D03*
Y185000D03*
Y195000D03*
X130000Y-5000D03*
X120000D03*
X130000Y5000D03*
X120000D03*
X130000Y185000D03*
X120000D03*
X130000Y195000D03*
X120000D03*
X140000Y-5000D03*
Y5000D03*
Y185000D03*
Y195000D03*
X150000Y-5000D03*
Y5000D03*
Y185000D03*
Y195000D03*
X160000Y-5000D03*
Y5000D03*
Y185000D03*
Y195000D03*
X170000Y-5000D03*
Y5000D03*
Y185000D03*
Y195000D03*
X180000Y-5000D03*
Y5000D03*
Y185000D03*
Y195000D03*
X200000Y-5000D03*
X190000D03*
X200000Y5000D03*
X190000D03*
X200000Y185000D03*
X190000D03*
X200000Y195000D03*
X190000D03*
X210000Y-5000D03*
Y5000D03*
Y185000D03*
Y195000D03*
X220000Y-5000D03*
Y5000D03*
Y185000D03*
Y195000D03*
X230000Y-5000D03*
Y5000D03*
Y185000D03*
Y195000D03*
X240000Y-5000D03*
Y5000D03*
Y185000D03*
Y195000D03*
G54D15*
X-52831Y105500D03*
X-44169Y101760D03*
Y109240D03*
X75169Y80000D03*
X83831Y76260D03*
Y83740D03*
X211269Y19100D03*
X219931Y22840D03*
Y15360D03*
G54D24*
X-27500Y55750D03*
Y66750D03*
X217000Y38300D03*
Y49300D03*
G54D43*
X114637Y112300D03*
X106763D03*
X115356Y138526D03*
X107482D03*
G54D61*
X262952Y128362D03*
X263740Y141354D03*
X262952Y137024D03*
X261378Y132693D03*
X263740Y150016D03*
X262952Y145685D03*
Y158677D03*
Y154346D03*
G54D34*
X10000Y127500D03*
X20000Y-5000D03*
Y185000D03*
G54D52*
X243825Y91338D03*
Y92913D03*
X245400Y92125D03*
X243825Y100638D03*
Y102213D03*
X245400Y101425D03*
X243825Y103787D03*
X245400Y104575D03*
X243825Y105362D03*
Y94487D03*
X245400Y95275D03*
X243825Y96062D03*
X246975Y91338D03*
Y92913D03*
Y100638D03*
Y102213D03*
Y103787D03*
Y105362D03*
Y94487D03*
Y96062D03*
G54D25*
X-36500Y67598D03*
Y62402D03*
G54D16*
X-43400Y-1500D03*
X252500Y0D03*
Y190000D03*
G54D62*
X275768Y74295D03*
Y98705D03*
G54D44*
X127231Y23541D03*
Y26691D03*
Y29840D03*
X124081Y23541D03*
Y26691D03*
Y29840D03*
X127231Y42439D03*
Y45588D03*
X124081Y42439D03*
Y45588D03*
X127231Y48738D03*
X124081D03*
X136680Y23541D03*
Y26691D03*
Y29840D03*
X133530Y23541D03*
Y26691D03*
Y29840D03*
X130380Y23541D03*
Y26691D03*
Y29840D03*
X136680Y42439D03*
Y45588D03*
X133530Y42439D03*
Y45588D03*
X130380Y42439D03*
Y45588D03*
X136680Y48738D03*
X133530D03*
X130380D03*
X149278Y23541D03*
Y26691D03*
Y29840D03*
X146128Y23541D03*
Y26691D03*
Y29840D03*
X142979Y23541D03*
Y26691D03*
Y29840D03*
X139829Y23541D03*
Y26691D03*
Y29840D03*
X149278Y42439D03*
Y45588D03*
X146128Y42439D03*
Y45588D03*
X142979Y42439D03*
Y45588D03*
X139829Y42439D03*
Y45588D03*
X149278Y48738D03*
X146128D03*
X142979D03*
X139829D03*
X161876Y23541D03*
Y26691D03*
Y29840D03*
X158727Y23541D03*
Y26691D03*
Y29840D03*
X155577Y23541D03*
Y26691D03*
Y29840D03*
X152428Y23541D03*
Y26691D03*
Y29840D03*
X161876Y42439D03*
Y45588D03*
X158727Y42439D03*
Y45588D03*
X155577Y42439D03*
Y45588D03*
X152428Y42439D03*
Y45588D03*
X161876Y48738D03*
X158727D03*
X155577D03*
X152428D03*
X171325Y23541D03*
Y26691D03*
Y29840D03*
X168176Y23541D03*
Y26691D03*
Y29840D03*
X165026Y23541D03*
Y26691D03*
Y29840D03*
X171325Y42439D03*
Y45588D03*
X168176Y42439D03*
Y45588D03*
X165026Y42439D03*
Y45588D03*
X171325Y48738D03*
X168176D03*
X165026D03*
G54D35*
X30839Y41760D03*
X46800Y30100D03*
X46870Y35613D03*
X67300Y63000D03*
X145310Y132661D03*
X179884Y120880D03*
G54D53*
X256100Y42700D03*
G54D17*
X-43000Y67300D03*
Y63500D03*
X-39500Y103600D03*
Y107400D03*
X-36500Y57900D03*
Y54100D03*
X-16600Y22500D03*
X-20100D03*
X-20800Y31600D03*
X-16600Y26300D03*
X-20100D03*
X-20800Y35400D03*
X-5300Y37000D03*
Y40800D03*
X-5400Y52900D03*
Y49100D03*
X28700Y27200D03*
Y31000D03*
X28800Y67500D03*
Y63700D03*
X23800Y65400D03*
Y61600D03*
X39900Y41000D03*
Y37200D03*
X43625Y50585D03*
Y54385D03*
X40161Y50577D03*
Y54377D03*
X44561Y67694D03*
Y63894D03*
X44000Y76400D03*
Y72600D03*
Y80100D03*
X33000D03*
X40000D03*
X44000Y83900D03*
X33000D03*
X40000D03*
X42500Y104600D03*
Y108400D03*
X41000Y128600D03*
X44500D03*
X41000Y137600D03*
Y141400D03*
X44500Y137600D03*
Y141400D03*
X41000Y132400D03*
X44500D03*
X41500Y151100D03*
Y154900D03*
X44500Y174400D03*
Y170600D03*
X34000Y174400D03*
Y170600D03*
X56502Y32345D03*
X52501Y34255D03*
X56500Y25100D03*
Y28900D03*
X56502Y36145D03*
X52501Y38055D03*
X47300Y44200D03*
Y40400D03*
X47200Y50600D03*
Y54400D03*
X49780Y67378D03*
Y63578D03*
X48000Y72600D03*
Y76400D03*
Y80100D03*
X52000Y76400D03*
Y72600D03*
X48000Y83900D03*
X45700Y93100D03*
Y89300D03*
X47250Y104600D03*
Y108400D03*
X55000Y128600D03*
Y137600D03*
Y141400D03*
X48000Y137600D03*
Y141400D03*
X55000Y132400D03*
X54500Y151100D03*
Y154900D03*
X60000Y25100D03*
Y28900D03*
Y32350D03*
Y36150D03*
X67250Y110900D03*
Y107100D03*
X58500Y128600D03*
Y137600D03*
Y141400D03*
Y132400D03*
Y151100D03*
Y154900D03*
X77000Y68100D03*
Y71900D03*
X75200Y90400D03*
Y94200D03*
X74000Y128850D03*
Y132650D03*
X80500Y68100D03*
X89500Y79100D03*
X80500Y71900D03*
X89500Y82900D03*
X89000Y151100D03*
X85000D03*
X89000Y163600D03*
Y154900D03*
X85000Y163600D03*
X81000D03*
X85000Y154900D03*
X89000Y167400D03*
X85000D03*
X81000D03*
X93500Y100600D03*
Y104400D03*
Y174400D03*
Y170600D03*
X99500Y174400D03*
Y170600D03*
X103500D03*
Y174400D03*
X115000Y15600D03*
Y19400D03*
X107500Y170600D03*
Y174400D03*
X115500D03*
Y170600D03*
X111500Y174400D03*
Y170600D03*
X120074Y75856D03*
Y79656D03*
X123500Y170600D03*
Y174400D03*
X127500D03*
Y170600D03*
X119500D03*
Y174400D03*
X138972Y82155D03*
Y85955D03*
X139366Y101703D03*
Y97903D03*
X138478Y116895D03*
X135000Y123800D03*
Y120000D03*
X138478Y120695D03*
X138469Y129040D03*
Y132840D03*
X138700Y148900D03*
Y145100D03*
X139500Y174400D03*
Y170600D03*
X135500Y174400D03*
Y170600D03*
X131500Y174400D03*
Y170600D03*
X141456Y104738D03*
X141913Y112725D03*
Y116525D03*
X141456Y108538D03*
X142026Y129098D03*
X148677Y129391D03*
X148728Y124743D03*
Y120943D03*
X142026Y132898D03*
X148677Y133191D03*
X143500Y174400D03*
Y170600D03*
X151500Y174400D03*
Y170600D03*
X147500Y174400D03*
Y170600D03*
X153933Y75856D03*
Y79656D03*
X154720Y89242D03*
Y93042D03*
X158600Y103735D03*
X163500Y103500D03*
X158600Y107535D03*
X161386Y114165D03*
X157974D03*
X154543Y114205D03*
X163500Y107300D03*
X154864Y110961D03*
Y107161D03*
X152200Y121000D03*
Y124800D03*
X161132Y126469D03*
X161386Y117965D03*
X157974D03*
X154543Y118005D03*
X161132Y130269D03*
X159500Y162100D03*
X158196Y157983D03*
Y154183D03*
X155500Y170600D03*
Y174400D03*
X163500Y170600D03*
Y174400D03*
X159500D03*
Y170600D03*
Y165900D03*
X170388Y85530D03*
Y89330D03*
X170978Y98095D03*
Y94295D03*
X173074Y105179D03*
Y101379D03*
X169672Y104726D03*
X164799Y114173D03*
X169672Y108526D03*
X169682Y114087D03*
X173090Y114204D03*
X164614Y125262D03*
Y121462D03*
X169729Y129558D03*
X164799Y117973D03*
X168936Y122546D03*
Y126346D03*
X169682Y117887D03*
X173090Y118004D03*
X164688Y129205D03*
X173082Y139300D03*
X169729Y133358D03*
X164260Y136302D03*
Y140102D03*
X164688Y133005D03*
X173120Y136100D03*
Y132300D03*
X173082Y143100D03*
X167500Y174400D03*
Y170600D03*
X171500Y174400D03*
Y170600D03*
X175500Y174400D03*
Y170600D03*
X185900Y27100D03*
Y30900D03*
X182000Y27100D03*
Y30900D03*
X187500Y67100D03*
X179600Y67400D03*
X187500Y70900D03*
X183751Y75790D03*
Y79590D03*
X179600Y71200D03*
X176800Y92100D03*
X182450Y94780D03*
Y98580D03*
X176800Y95900D03*
X176900Y99300D03*
Y103100D03*
X183464Y114200D03*
X179915Y117700D03*
Y113900D03*
X183493Y107189D03*
Y110989D03*
X176507Y114692D03*
X186900Y114300D03*
Y110500D03*
X183464Y118000D03*
X176220Y125299D03*
Y129099D03*
X176507Y118492D03*
X186600Y129000D03*
X180641Y139300D03*
X176523Y136100D03*
Y132300D03*
X179926Y136100D03*
Y132300D03*
X186600Y132800D03*
X180641Y143100D03*
X176801Y145439D03*
Y141639D03*
X179500Y174400D03*
Y170600D03*
X183500Y174400D03*
Y170600D03*
X187500Y174400D03*
Y170600D03*
X193700Y27100D03*
Y30900D03*
X189800Y27100D03*
Y30900D03*
X197700Y27100D03*
Y30900D03*
X192000Y67100D03*
X196000D03*
X192000Y70900D03*
Y81100D03*
X187669D03*
X196000Y70900D03*
X195500Y77800D03*
Y81600D03*
X192000Y92400D03*
Y88600D03*
Y84900D03*
X187669D03*
X195394Y85455D03*
Y89255D03*
X189250Y101350D03*
Y105150D03*
X192500Y145100D03*
Y148900D03*
X189391Y158394D03*
Y154594D03*
X195216Y154787D03*
Y158587D03*
X195500Y170600D03*
Y174400D03*
X191500D03*
Y170600D03*
X209600Y27100D03*
Y30900D03*
X201900Y27100D03*
Y30900D03*
X205800Y27100D03*
Y30900D03*
X208000Y67100D03*
X204000D03*
X200000D03*
X208000Y70900D03*
X204000D03*
X200000D03*
X205700Y92300D03*
X209400D03*
X205700Y96100D03*
X209400D03*
X205355Y151280D03*
Y155080D03*
X203500Y170600D03*
Y174400D03*
X207500Y170600D03*
Y174400D03*
X199500D03*
Y170600D03*
X213400Y27100D03*
Y30900D03*
X211500Y170600D03*
Y174400D03*
X219500Y170600D03*
Y174400D03*
X215500Y170600D03*
Y174400D03*
X224600Y21900D03*
Y18100D03*
X227500Y170600D03*
Y174400D03*
X223500Y170600D03*
Y174400D03*
X231500Y170600D03*
Y174400D03*
X242300Y43100D03*
X241900Y56600D03*
X242300Y46900D03*
X241900Y60400D03*
X235500Y174400D03*
Y170600D03*
X239500D03*
Y174400D03*
X243500Y170600D03*
Y174400D03*
X247500Y170600D03*
Y174400D03*
G54D26*
X-25000Y82500D03*
Y127500D03*
G54D63*
X277874Y110016D03*
X273976Y161984D03*
G54D54*
X252900Y58500D03*
G54D27*
X-30600Y98693D03*
Y110307D03*
G54D18*
X-40984Y78898D03*
Y88898D03*
Y121102D03*
Y131102D03*
G54D36*
X30836Y59766D03*
X34276Y66897D03*
X39876D03*
X36436Y59766D03*
X53570Y41918D03*
X54136Y64104D03*
X59170Y41918D03*
X59736Y64104D03*
X67200Y72500D03*
X73700Y46000D03*
X79300D03*
X73700Y40000D03*
X79300D03*
X72800Y72500D03*
X91700Y20750D03*
Y31250D03*
Y26000D03*
Y41750D03*
Y36500D03*
X97300Y20750D03*
Y31250D03*
Y26000D03*
Y41750D03*
Y36500D03*
X108619Y104776D03*
X114219D03*
X123574Y104528D03*
X126400Y136000D03*
X120800D03*
X129174Y104528D03*
X172550Y15667D03*
X166950D03*
G54D45*
X160100Y68500D03*
Y75500D03*
X168500Y68500D03*
Y75500D03*
G54D64*
G01X-32500Y-12500D02*
X232500D01*
G03X282500Y37500I0J50000D01*
G01Y152500D01*
G03X232500Y202500I-50000J0D01*
G01X-32500D01*
G03X-57500Y177500I0J-25000D01*
G01Y12500D01*
G03X-32500Y-12500I25000J0D01*
G54D37*
X55248Y17000D03*
X48752D03*
G54D46*
X222165Y133047D03*
Y155488D03*
G54D55*
X248963Y51807D03*
X250932D03*
X252900D03*
X254868D03*
X256837D03*
Y65193D03*
X254868D03*
X252900D03*
X250932D03*
X248963D03*
G54D28*
X-16294Y-5072D03*
G54D19*
X-38950Y151800D03*
Y146800D03*
Y161800D03*
Y156800D03*
Y176800D03*
Y171800D03*
Y166800D03*
Y186800D03*
Y181800D03*
Y191800D03*
X-17650Y151800D03*
Y146800D03*
Y161800D03*
Y156800D03*
Y176800D03*
Y171800D03*
Y166800D03*
Y186800D03*
Y181800D03*
Y191800D03*
G54D47*
X221378Y150016D03*
G54D56*
X257050Y70000D03*
X250750D03*
G54D29*
X-14000Y39339D03*
Y56661D03*
X24339Y18750D03*
X41661D03*
G54D38*
X45441Y148985D03*
X50559D03*
Y156515D03*
X48000D03*
X45441D03*
X102559Y104265D03*
X97441D03*
Y96735D03*
X100000D03*
X102559D03*
G54D39*
X79976Y88560D03*
Y96040D03*
X89424Y92300D03*
G54D57*
X257008Y79413D03*
Y80988D03*
Y82563D03*
Y84138D03*
Y85713D03*
Y93587D03*
Y92012D03*
Y90437D03*
Y88862D03*
Y87287D03*
G54D48*
X241920Y27910D03*
Y79650D03*
G54D58*
X253200Y98150D03*
Y104450D03*
G54D49*
X231250Y40000D03*
Y49840D03*
Y57720D03*
Y67560D03*
G54D59*
X262540Y72917D03*
Y100083D03*
M02*
