G04 ================== begin FILE IDENTIFICATION RECORD ==================*
G04 Layout Name:  C:/Users/a0321898/Documents/GitHub/beaglebone-ai/HW/BeagleBone-AI.brd*
G04 Film Name:    SILK_TOP*
G04 File Format:  Gerber RS274X*
G04 File Origin:  Cadence Allegro 17.2-S049*
G04 Origin Date:  Wed Feb 19 11:28:09 2020*
G04 *
G04 Layer:  PACKAGE GEOMETRY/SILKSCREEN_TOP*
G04 Layer:  MANUFACTURING/PEN3*
G04 Layer:  BOARD GEOMETRY/OUTLINE*
G04 Layer:  BOARD GEOMETRY/SILKSCREEN_TOP*
G04 *
G04 Offset:    (0.000 0.000)*
G04 Mirror:    No*
G04 Mode:      Positive*
G04 Rotation:  0*
G04 FullContactRelief:  No*
G04 UndefLineWidth:     5.000*
G04 ================== end FILE IDENTIFICATION RECORD ====================*
%FSLAX25Y25*MOIN*%
%IR0*IPPOS*OFA0.00000B0.00000*MIA0B0*SFA1.00000B1.00000*%
%ADD10C,.003*%
%ADD11C,.004*%
%ADD12C,.005*%
%ADD13C,.006*%
%ADD14C,.008*%
%ADD15C,.005906*%
%ADD16C,.003937*%
%ADD17C,.007874*%
G75*
%LPD*%
G75*
G36*
G01X174200Y53900D02*
Y50200D01*
X170600Y53900D01*
X174200D01*
G37*
G36*
G01X209493Y165670D02*
X205730D01*
X209493Y161908D01*
Y165670D01*
G37*
G36*
G01X230730Y160342D02*
Y154630D01*
X236443Y160342D01*
X230730D01*
G37*
G54D10*
G01X-41800Y48200D02*
X-42800Y50100D01*
X-41800Y51900D01*
Y48200D01*
G01X-43200Y48000D02*
Y52000D01*
G01X-44300Y149450D02*
X-45300Y151350D01*
X-44300Y153150D01*
Y149450D01*
G01X-45700Y149250D02*
Y153250D01*
G01X-44500Y141950D02*
X-45500Y143850D01*
X-44500Y145650D01*
Y141950D01*
G01X-45900Y141750D02*
Y145750D01*
G01X-44300Y164450D02*
X-45300Y166350D01*
X-44300Y168150D01*
Y164450D01*
G01X-45700Y164250D02*
Y168250D01*
G01X-44300Y156950D02*
X-45300Y158850D01*
X-44300Y160650D01*
Y156950D01*
G01X-45700Y156750D02*
Y160750D01*
G01X-44300Y171950D02*
X-45300Y173850D01*
X-44300Y175650D01*
Y171950D01*
G01X-45700Y171750D02*
Y175750D01*
G54D11*
G01X-51050Y2900D02*
Y100D01*
G01X-51817Y2900D02*
X-50283D01*
G01X-48350Y100D02*
Y1360D01*
X-49017Y2900D01*
G01X-47683D02*
X-48350Y1360D01*
G01X-46317Y100D02*
Y2900D01*
X-45517D01*
X-45250Y2760D01*
X-45050Y2433D01*
X-44983Y2060D01*
X-45050Y1687D01*
X-45217Y1407D01*
X-45517Y1267D01*
X-46317D01*
G01X-42283Y100D02*
X-43617D01*
Y2900D01*
X-42283D01*
G01X-42817Y1547D02*
X-43617D01*
G01X-36817Y2667D02*
X-37017Y2807D01*
X-37250Y2900D01*
X-37517D01*
X-37817Y2760D01*
X-38050Y2527D01*
X-38217Y2247D01*
X-38350Y1780D01*
X-38383Y1360D01*
X-38317Y940D01*
X-38217Y660D01*
X-38017Y380D01*
X-37783Y193D01*
X-37550Y100D01*
X-37317D01*
X-37083Y193D01*
X-36883Y333D01*
X-36717Y520D01*
G01X-53483Y59500D02*
Y62300D01*
X-52817D01*
X-52550Y62160D01*
X-52350Y61973D01*
X-52183Y61693D01*
X-52050Y61367D01*
X-52017Y60900D01*
X-52050Y60433D01*
X-52183Y60107D01*
X-52350Y59827D01*
X-52550Y59640D01*
X-52817Y59500D01*
X-53483D01*
G01X-50050D02*
Y62300D01*
X-50450Y61740D01*
G01Y59500D02*
X-49650D01*
G01X-55583Y150200D02*
Y153000D01*
X-54917D01*
X-54650Y152860D01*
X-54450Y152673D01*
X-54283Y152393D01*
X-54150Y152067D01*
X-54117Y151600D01*
X-54150Y151133D01*
X-54283Y150807D01*
X-54450Y150527D01*
X-54650Y150340D01*
X-54917Y150200D01*
X-55583D01*
G01X-52883Y150620D02*
X-52683Y150387D01*
X-52450Y150247D01*
X-52150Y150200D01*
X-51850Y150293D01*
X-51617Y150480D01*
X-51450Y150807D01*
X-51417Y151180D01*
X-51483Y151553D01*
X-51650Y151787D01*
X-51883Y151973D01*
X-52117Y152020D01*
X-52350Y151973D01*
X-52650Y151787D01*
X-52550Y153000D01*
X-51650D01*
G01X-55583Y142800D02*
Y145600D01*
X-54917D01*
X-54650Y145460D01*
X-54450Y145273D01*
X-54283Y144993D01*
X-54150Y144667D01*
X-54117Y144200D01*
X-54150Y143733D01*
X-54283Y143407D01*
X-54450Y143127D01*
X-54650Y142940D01*
X-54917Y142800D01*
X-55583D01*
G01X-52150D02*
X-51917Y142847D01*
X-51650Y142987D01*
X-51483Y143220D01*
X-51417Y143547D01*
X-51483Y143873D01*
X-51683Y144153D01*
X-51983Y144293D01*
X-52317D01*
X-52517Y144387D01*
X-52683Y144620D01*
X-52750Y144947D01*
X-52650Y145273D01*
X-52417Y145507D01*
X-52150Y145600D01*
X-51883Y145507D01*
X-51650Y145273D01*
X-51550Y144947D01*
X-51617Y144620D01*
X-51783Y144387D01*
X-51983Y144293D01*
X-52317D01*
X-52617Y144153D01*
X-52817Y143873D01*
X-52883Y143547D01*
X-52817Y143220D01*
X-52650Y142987D01*
X-52383Y142847D01*
X-52150Y142800D01*
G01X-55383Y165100D02*
Y167900D01*
X-54717D01*
X-54450Y167760D01*
X-54250Y167573D01*
X-54083Y167293D01*
X-53950Y166967D01*
X-53917Y166500D01*
X-53950Y166033D01*
X-54083Y165707D01*
X-54250Y165427D01*
X-54450Y165240D01*
X-54717Y165100D01*
X-55383D01*
G01X-52683Y165660D02*
X-52483Y165333D01*
X-52217Y165147D01*
X-51917Y165100D01*
X-51650Y165147D01*
X-51383Y165380D01*
X-51217Y165660D01*
X-51183Y165940D01*
X-51250Y166267D01*
X-51483Y166500D01*
X-51717Y166593D01*
X-52017D01*
G01X-51717D02*
X-51517Y166733D01*
X-51350Y166967D01*
X-51283Y167247D01*
X-51350Y167527D01*
X-51517Y167760D01*
X-51817Y167900D01*
X-52117Y167853D01*
X-52417Y167667D01*
G01X-55583Y157500D02*
Y160300D01*
X-54917D01*
X-54650Y160160D01*
X-54450Y159973D01*
X-54283Y159693D01*
X-54150Y159367D01*
X-54117Y158900D01*
X-54150Y158433D01*
X-54283Y158107D01*
X-54450Y157827D01*
X-54650Y157640D01*
X-54917Y157500D01*
X-55583D01*
G01X-51750D02*
Y160300D01*
X-52983Y158293D01*
X-51317D01*
G01X-55483Y172100D02*
Y174900D01*
X-54817D01*
X-54550Y174760D01*
X-54350Y174573D01*
X-54183Y174293D01*
X-54050Y173967D01*
X-54017Y173500D01*
X-54050Y173033D01*
X-54183Y172707D01*
X-54350Y172427D01*
X-54550Y172240D01*
X-54817Y172100D01*
X-55483D01*
G01X-52683Y174433D02*
X-52483Y174713D01*
X-52250Y174853D01*
X-51983Y174900D01*
X-51650Y174807D01*
X-51417Y174573D01*
X-51350Y174293D01*
X-51383Y174013D01*
X-51517Y173780D01*
X-52183Y173313D01*
X-52483Y172987D01*
X-52683Y172520D01*
X-52750Y172100D01*
X-51350D01*
G01X-54833Y180600D02*
Y178593D01*
X-54700Y178173D01*
X-54433Y177893D01*
X-54100Y177800D01*
X-53767Y177893D01*
X-53500Y178173D01*
X-53367Y178593D01*
Y180600D01*
G01X-52100Y178173D02*
X-51833Y177940D01*
X-51533Y177800D01*
X-51267D01*
X-51000Y177940D01*
X-50800Y178173D01*
X-50700Y178500D01*
X-50767Y178827D01*
X-50933Y179107D01*
X-51233Y179293D01*
X-51633Y179387D01*
X-51867Y179573D01*
X-51967Y179900D01*
X-51900Y180227D01*
X-51733Y180460D01*
X-51500Y180600D01*
X-51267D01*
X-51033Y180507D01*
X-50833Y180273D01*
G01X-48033Y177800D02*
X-49367D01*
Y180600D01*
X-48033D01*
G01X-48567Y179247D02*
X-49367D01*
G01X-46667Y177800D02*
Y180600D01*
X-45833D01*
X-45567Y180460D01*
X-45400Y180273D01*
X-45333Y179900D01*
X-45400Y179527D01*
X-45600Y179293D01*
X-45833Y179153D01*
X-46667D01*
G01X-45833D02*
X-45333Y177800D01*
G01X-41267Y180600D02*
Y177800D01*
X-39933D01*
G01X-37233D02*
X-38567D01*
Y180600D01*
X-37233D01*
G01X-37767Y179247D02*
X-38567D01*
G01X-35933Y177800D02*
Y180600D01*
X-35267D01*
X-35000Y180460D01*
X-34800Y180273D01*
X-34633Y179993D01*
X-34500Y179667D01*
X-34467Y179200D01*
X-34500Y178733D01*
X-34633Y178407D01*
X-34800Y178127D01*
X-35000Y177940D01*
X-35267Y177800D01*
X-35933D01*
G01X-33200Y178173D02*
X-32933Y177940D01*
X-32633Y177800D01*
X-32367D01*
X-32100Y177940D01*
X-31900Y178173D01*
X-31800Y178500D01*
X-31867Y178827D01*
X-32033Y179107D01*
X-32333Y179293D01*
X-32733Y179387D01*
X-32967Y179573D01*
X-33067Y179900D01*
X-33000Y180227D01*
X-32833Y180460D01*
X-32600Y180600D01*
X-32367D01*
X-32133Y180507D01*
X-31933Y180273D01*
G01X-40800Y53100D02*
X-39100D01*
X-39900Y54000D01*
X-40800Y53100D01*
G01X-27667Y45700D02*
Y48500D01*
X-26867D01*
X-26600Y48360D01*
X-26400Y48033D01*
X-26333Y47660D01*
X-26400Y47287D01*
X-26567Y47007D01*
X-26867Y46867D01*
X-27667D01*
G01X-25300Y48500D02*
X-24833Y45700D01*
X-24300Y48500D01*
X-23767Y45700D01*
X-23300Y48500D01*
G01X-22267Y45700D02*
Y48500D01*
X-21433D01*
X-21167Y48360D01*
X-21000Y48173D01*
X-20933Y47800D01*
X-21000Y47427D01*
X-21200Y47193D01*
X-21433Y47053D01*
X-22267D01*
G01X-21433D02*
X-20933Y45700D01*
G01X-29067Y140000D02*
Y142800D01*
X-28267D01*
X-28000Y142660D01*
X-27800Y142333D01*
X-27733Y141960D01*
X-27800Y141587D01*
X-27967Y141307D01*
X-28267Y141167D01*
X-29067D01*
G01X-25700Y140000D02*
X-25967Y140047D01*
X-26200Y140233D01*
X-26400Y140513D01*
X-26533Y140840D01*
X-26600Y141213D01*
Y141587D01*
X-26533Y141960D01*
X-26400Y142287D01*
X-26200Y142567D01*
X-25967Y142753D01*
X-25700Y142800D01*
X-25433Y142753D01*
X-25200Y142567D01*
X-25000Y142287D01*
X-24867Y141960D01*
X-24800Y141587D01*
Y141213D01*
X-24867Y140840D01*
X-25000Y140513D01*
X-25200Y140233D01*
X-25433Y140047D01*
X-25700Y140000D01*
G01X-24000Y142800D02*
X-23533Y140000D01*
X-23000Y142800D01*
X-22467Y140000D01*
X-22000Y142800D01*
G01X-19633Y140000D02*
X-20967D01*
Y142800D01*
X-19633D01*
G01X-20167Y141447D02*
X-20967D01*
G01X-18267Y140000D02*
Y142800D01*
X-17433D01*
X-17167Y142660D01*
X-17000Y142473D01*
X-16933Y142100D01*
X-17000Y141727D01*
X-17200Y141493D01*
X-17433Y141353D01*
X-18267D01*
G01X-17433D02*
X-16933Y140000D01*
G01X-32567Y197200D02*
Y200000D01*
X-31733D01*
X-31467Y199860D01*
X-31300Y199673D01*
X-31233Y199300D01*
X-31300Y198927D01*
X-31500Y198693D01*
X-31733Y198553D01*
X-32567D01*
G01X-31733D02*
X-31233Y197200D01*
G01X-28533D02*
X-29867D01*
Y200000D01*
X-28533D01*
G01X-29067Y198647D02*
X-29867D01*
G01X-27200Y197573D02*
X-26933Y197340D01*
X-26633Y197200D01*
X-26367D01*
X-26100Y197340D01*
X-25900Y197573D01*
X-25800Y197900D01*
X-25867Y198227D01*
X-26033Y198507D01*
X-26333Y198693D01*
X-26733Y198787D01*
X-26967Y198973D01*
X-27067Y199300D01*
X-27000Y199627D01*
X-26833Y199860D01*
X-26600Y200000D01*
X-26367D01*
X-26133Y199907D01*
X-25933Y199673D01*
G01X-23133Y197200D02*
X-24467D01*
Y200000D01*
X-23133D01*
G01X-23667Y198647D02*
X-24467D01*
G01X-21100Y200000D02*
Y197200D01*
G01X-21867Y200000D02*
X-20333D01*
G01X-20118Y13543D02*
Y11181D01*
X-18937Y12362D01*
X-20118Y13543D01*
G01X-20100Y23700D02*
Y22000D01*
X-19200Y22800D01*
X-20100Y23700D01*
G01X-20118Y37543D02*
Y35181D01*
X-18937Y36362D01*
X-20118Y37543D01*
G01X-1782Y45357D02*
Y47719D01*
X-2963Y46538D01*
X-1782Y45357D01*
G01X29700Y108367D02*
X31707D01*
X32127Y108500D01*
X32407Y108767D01*
X32500Y109100D01*
X32407Y109433D01*
X32127Y109700D01*
X31707Y109833D01*
X29700D01*
G01X32500Y112200D02*
X29700D01*
X31707Y110967D01*
Y112633D01*
G01X32080Y113767D02*
X32313Y113967D01*
X32453Y114200D01*
X32500Y114500D01*
X32407Y114800D01*
X32220Y115033D01*
X31893Y115200D01*
X31520Y115233D01*
X31147Y115167D01*
X30913Y115000D01*
X30727Y114767D01*
X30680Y114533D01*
X30727Y114300D01*
X30913Y114000D01*
X29700Y114100D01*
Y115000D01*
G01X255417Y25900D02*
Y23893D01*
X255550Y23473D01*
X255817Y23193D01*
X256150Y23100D01*
X256483Y23193D01*
X256750Y23473D01*
X256883Y23893D01*
Y25900D01*
G01X258150Y23473D02*
X258417Y23240D01*
X258717Y23100D01*
X258983D01*
X259250Y23240D01*
X259450Y23473D01*
X259550Y23800D01*
X259483Y24127D01*
X259317Y24407D01*
X259017Y24593D01*
X258617Y24687D01*
X258383Y24873D01*
X258283Y25200D01*
X258350Y25527D01*
X258517Y25760D01*
X258750Y25900D01*
X258983D01*
X259217Y25807D01*
X259417Y25573D01*
G01X261817Y24593D02*
X261950Y24733D01*
X262050Y24967D01*
X262117Y25293D01*
X262050Y25573D01*
X261917Y25760D01*
X261683Y25900D01*
X260783D01*
Y23100D01*
X261883D01*
X262117Y23287D01*
X262250Y23567D01*
X262317Y23893D01*
X262250Y24220D01*
X262050Y24500D01*
X261817Y24593D01*
X260783D01*
G01X266250Y23100D02*
Y25900D01*
G01X267650D02*
Y23100D01*
G01Y24500D02*
X266250D01*
G01X269650Y23100D02*
X269450Y23147D01*
X269250Y23333D01*
X269117Y23660D01*
X269050Y24033D01*
X269117Y24407D01*
X269250Y24733D01*
X269450Y24920D01*
X269650Y24967D01*
X269850Y24920D01*
X270050Y24733D01*
X270183Y24407D01*
X270217Y24033D01*
X270183Y23660D01*
X270050Y23333D01*
X269850Y23147D01*
X269650Y23100D01*
G01X271850Y23427D02*
X272017Y23240D01*
X272250Y23100D01*
X272450D01*
X272650Y23193D01*
X272783Y23333D01*
X272850Y23520D01*
X272817Y23800D01*
X272683Y23940D01*
X272083Y24220D01*
X271950Y24547D01*
X272017Y24780D01*
X272150Y24920D01*
X272350Y24967D01*
X272550Y24920D01*
X272750Y24780D01*
G01X275050Y25900D02*
Y23100D01*
G01X274583Y24967D02*
X275517D01*
G54D12*
G01X-18504Y73701D02*
X-67382D01*
Y136299D01*
X-18504D01*
G01X-49000Y56613D02*
Y47387D01*
G02X-49787Y46600I-787J0D01*
G01X-53213D01*
G02X-54000Y47387I0J787D01*
G01Y56613D01*
G02X-53213Y57400I787J0D01*
G01X-49787D01*
G02X-49000Y56613I0J-787D01*
G01X-42791Y64760D02*
X-54799D01*
Y72240D01*
X-42201D01*
Y64760D01*
X-42791D01*
G01X-51733Y138000D02*
X-51600Y137750D01*
X-51440Y137583D01*
X-51253Y137500D01*
X-51040Y137583D01*
X-50880Y137750D01*
X-50720Y138000D01*
X-50667Y138333D01*
Y140000D01*
G01X-49587Y138000D02*
X-49427Y137708D01*
X-49213Y137542D01*
X-48973Y137500D01*
X-48760Y137542D01*
X-48547Y137750D01*
X-48413Y138000D01*
X-48387Y138250D01*
X-48440Y138542D01*
X-48627Y138750D01*
X-48813Y138833D01*
X-49053D01*
G01X-48813D02*
X-48653Y138958D01*
X-48520Y139167D01*
X-48467Y139417D01*
X-48520Y139667D01*
X-48653Y139875D01*
X-48893Y140000D01*
X-49133Y139958D01*
X-49373Y139792D01*
G01X-46853Y137500D02*
X-46800Y138042D01*
X-46720Y138500D01*
X-46613Y138917D01*
X-46480Y139375D01*
X-46267Y140000D01*
X-47333D01*
G01X-45100Y-8200D02*
X-44825Y-8600D01*
X-44495Y-8867D01*
X-44110Y-9000D01*
X-43670Y-8867D01*
X-43340Y-8600D01*
X-43010Y-8200D01*
X-42900Y-7667D01*
Y-5000D01*
G01X-39340Y-9000D02*
Y-5000D01*
X-41375Y-7867D01*
X-38625D01*
G01X-37045Y-5667D02*
X-36715Y-5267D01*
X-36330Y-5067D01*
X-35890Y-5000D01*
X-35340Y-5133D01*
X-34955Y-5467D01*
X-34845Y-5867D01*
X-34900Y-6267D01*
X-35120Y-6600D01*
X-36220Y-7267D01*
X-36715Y-7733D01*
X-37045Y-8400D01*
X-37155Y-9000D01*
X-34845D01*
G01X-37185Y52362D02*
X-47815D01*
Y47638D01*
X-37185D01*
Y52362D01*
G01X-47831Y55457D02*
Y54669D01*
X-39169D01*
G01Y62543D02*
Y63331D01*
X-47831D01*
Y62543D01*
G01X-39685Y153612D02*
X-50315D01*
Y148888D01*
X-39685D01*
Y153612D01*
G01X-39885Y146112D02*
X-50515D01*
Y141388D01*
X-39885D01*
Y146112D01*
G01X-39685Y168612D02*
X-50315D01*
Y163888D01*
X-39685D01*
Y168612D01*
G01Y161112D02*
X-50315D01*
Y156388D01*
X-39685D01*
Y161112D01*
G01Y176112D02*
X-50315D01*
Y171388D01*
X-39685D01*
Y176112D01*
G01X-10389Y-10190D02*
X-34011D01*
Y3590D01*
X-10389D01*
Y-10190D01*
G01X-36050Y51750D02*
X-28950D01*
Y48250D01*
X-36050D01*
Y51700D01*
G01X-38250Y53040D02*
Y55200D01*
Y56800D01*
Y58959D01*
G02X-37660Y59550I591J0D01*
G01X-35341D01*
G02X-34750Y58959I0J-591D01*
G01Y53040D01*
G02X-35341Y52450I-591J0D01*
G01X-37660D01*
G02X-38250Y53040I0J591D01*
G01X-33500Y63250D02*
Y68675D01*
G02X-31925Y70250I1575J0D01*
G01X-23075D01*
G02X-21500Y68675I0J-1575D01*
G01Y53825D01*
G02X-23075Y52250I-1575J0D01*
G01X-31925D01*
G02X-33500Y53825I0J1575D01*
G01Y63750D01*
G01X-39169Y54669D02*
Y55457D01*
G01X-30000Y60250D02*
X-24500D01*
G01X-30000Y62250D02*
X-24500D01*
G01X-37150Y142450D02*
X-30050D01*
Y138950D01*
X-37150D01*
Y142400D01*
G01X-32012Y155012D02*
Y143988D01*
X-20988D01*
Y155012D01*
X-32012D01*
G01X-30437Y152650D02*
Y146350D01*
X-22563D01*
Y152650D01*
X-30437D01*
G01X-37350Y159350D02*
X-30250D01*
Y155850D01*
X-37350D01*
Y159300D01*
G01Y163250D02*
X-30250D01*
Y159750D01*
X-37350D01*
Y163200D01*
G01Y168050D02*
X-30250D01*
Y164550D01*
X-37350D01*
Y168000D01*
G01X-26750Y183050D02*
Y175950D01*
X-30250D01*
Y183050D01*
X-26800D01*
G01X-37350Y175450D02*
X-30250D01*
Y171950D01*
X-37350D01*
Y175400D01*
G01X-32012Y195012D02*
Y183988D01*
X-20988D01*
Y195012D01*
X-32012D01*
G01X-30437Y192650D02*
Y186350D01*
X-22563D01*
Y192650D01*
X-30437D01*
G01X-27500Y62250D02*
Y63750D01*
G01Y60250D02*
Y58750D01*
G01X-15750Y160450D02*
Y167550D01*
X-12250D01*
Y160450D01*
X-15700D01*
G01X-22750Y182459D02*
Y180300D01*
Y178700D01*
Y176541D01*
G02X-23341Y175950I-591J0D01*
G01X-25659D01*
G02X-26250Y176541I0J591D01*
G01Y182459D01*
G02X-25659Y183050I591J0D01*
G01X-23341D01*
G02X-22750Y182459I0J-591D01*
G01X-14541Y179750D02*
X-16700D01*
X-18300D01*
X-20459D01*
G02X-21050Y180341I0J591D01*
G01Y182659D01*
G02X-20459Y183250I591J0D01*
G01X-14541D01*
G02X-13950Y182659I0J-591D01*
G01Y180341D01*
G02X-14541Y179750I-591J0D01*
G01X-7458Y-6929D02*
Y-10866D01*
X-9426Y-8898D01*
X-7458Y-6929D01*
G01X-9459Y13250D02*
X-7300D01*
X-5700D01*
X-3541D01*
G02X-2950Y12659I0J-591D01*
G01Y10341D01*
G02X-3541Y9750I-591J0D01*
G01X-9459D01*
G02X-10050Y10341I0J591D01*
G01Y12659D01*
G02X-9459Y13250I591J0D01*
G01X-10050Y22250D02*
X-2950D01*
Y18750D01*
X-10050D01*
Y22200D01*
G01X-9459Y17250D02*
X-7300D01*
X-5700D01*
X-3541D01*
G02X-2950Y16659I0J-591D01*
G01Y14341D01*
G02X-3541Y13750I-591J0D01*
G01X-9459D01*
G02X-10050Y14341I0J591D01*
G01Y16659D01*
G02X-9459Y17250I591J0D01*
G01X-2950Y26750D02*
X-10050D01*
Y30250D01*
X-2950D01*
Y26800D01*
G01X-10050Y26250D02*
X-2950D01*
Y22750D01*
X-10050D01*
Y26200D01*
G01X-9459Y35250D02*
X-7300D01*
X-5700D01*
X-3541D01*
G02X-2950Y34659I0J-591D01*
G01Y32341D01*
G02X-3541Y31750I-591J0D01*
G01X-9459D01*
G02X-10050Y32341I0J591D01*
G01Y34659D01*
G02X-9459Y35250I591J0D01*
G01Y39250D02*
X-7300D01*
X-5700D01*
X-3541D01*
G02X-2950Y38659I0J-591D01*
G01Y36341D01*
G02X-3541Y35750I-591J0D01*
G01X-9459D01*
G02X-10050Y36341I0J591D01*
G01Y38659D01*
G02X-9459Y39250I591J0D01*
G01X1291Y24750D02*
X3450D01*
X5050D01*
X7209D01*
G02X7800Y24159I0J-591D01*
G01Y21841D01*
G02X7209Y21250I-591J0D01*
G01X1291D01*
G02X700Y21841I0J591D01*
G01Y24159D01*
G02X1291Y24750I591J0D01*
G01X541Y53990D02*
X12549D01*
Y46510D01*
X-49D01*
Y53990D01*
X541D01*
G01X1450Y68850D02*
X8550D01*
Y65350D01*
X1450D01*
Y68800D01*
G01X5634Y140260D02*
Y140063D01*
X-2634D01*
Y140260D01*
G01X5634Y149260D02*
Y149063D01*
X-2634D01*
Y149260D01*
G01X9965Y152409D02*
Y148472D01*
X7996Y150441D01*
X9965Y152409D01*
G01X5634Y147740D02*
Y147937D01*
X-2634D01*
Y147740D01*
G01X9965Y143409D02*
Y139472D01*
X7996Y141441D01*
X9965Y143409D01*
G01X6718Y161282D02*
X6915D01*
Y163644D01*
G01X-3518Y161282D02*
X-3715D01*
Y171518D01*
X-3518D01*
G01X5634Y156740D02*
Y156937D01*
X-2634D01*
Y156740D01*
G01X6800Y176700D02*
Y180700D01*
X8120D01*
X8560Y180500D01*
X8890Y180033D01*
X9000Y179500D01*
X8890Y178967D01*
X8615Y178567D01*
X8120Y178367D01*
X6800D01*
G01X11900Y176700D02*
X12285Y176767D01*
X12725Y176967D01*
X13000Y177300D01*
X13110Y177767D01*
X13000Y178233D01*
X12670Y178633D01*
X12175Y178833D01*
X11625D01*
X11295Y178967D01*
X11020Y179300D01*
X10910Y179767D01*
X11075Y180233D01*
X11460Y180567D01*
X11900Y180700D01*
X12340Y180567D01*
X12725Y180233D01*
X12890Y179767D01*
X12780Y179300D01*
X12505Y178967D01*
X12175Y178833D01*
X11625D01*
X11130Y178633D01*
X10800Y178233D01*
X10690Y177767D01*
X10800Y177300D01*
X11075Y176967D01*
X11515Y176767D01*
X11900Y176700D01*
G01X6718Y171518D02*
X6915D01*
Y169156D01*
G01X11972Y171620D02*
X8035D01*
X10003Y169652D01*
X11972Y171620D01*
G01X14252Y9842D02*
X245748D01*
Y-9842D01*
X14252D01*
Y9842D01*
G01X11405Y-3289D02*
Y-7226D01*
X13373Y-5258D01*
X11405Y-3289D01*
G01X15000Y10800D02*
Y14800D01*
X16320D01*
X16760Y14600D01*
X17090Y14133D01*
X17200Y13600D01*
X17090Y13067D01*
X16815Y12667D01*
X16320Y12467D01*
X15000D01*
G01X19165Y11267D02*
X19550Y10933D01*
X19990Y10800D01*
X20430Y10933D01*
X20815Y11333D01*
X21090Y11933D01*
X21200Y12533D01*
Y13267D01*
X21090Y13867D01*
X20815Y14400D01*
X20485Y14667D01*
X20100Y14800D01*
X19660Y14667D01*
X19330Y14400D01*
X19110Y14000D01*
X19000Y13467D01*
X19110Y13000D01*
X19385Y12533D01*
X19715Y12267D01*
X20100Y12200D01*
X20540Y12333D01*
X20870Y12667D01*
X21200Y13267D01*
G01X10090Y71600D02*
Y68733D01*
X10310Y68133D01*
X10750Y67733D01*
X11300Y67600D01*
X11850Y67733D01*
X12290Y68133D01*
X12510Y68733D01*
Y71600D01*
G01X14090Y68400D02*
X14420Y67933D01*
X14860Y67667D01*
X15355Y67600D01*
X15795Y67667D01*
X16235Y68000D01*
X16510Y68400D01*
X16565Y68800D01*
X16455Y69267D01*
X16070Y69600D01*
X15685Y69733D01*
X15190D01*
G01X15685D02*
X16015Y69933D01*
X16290Y70267D01*
X16400Y70667D01*
X16290Y71067D01*
X16015Y71400D01*
X15520Y71600D01*
X15025Y71533D01*
X14530Y71267D01*
G01X17650Y90741D02*
Y92900D01*
Y94500D01*
Y96659D01*
G02X18241Y97250I591J0D01*
G01X20559D01*
G02X21150Y96659I0J-591D01*
G01Y90741D01*
G02X20559Y90150I-591J0D01*
G01X18241D01*
G02X17650Y90741I0J591D01*
G01X17850Y98741D02*
Y100900D01*
Y102500D01*
Y104659D01*
G02X18441Y105250I591J0D01*
G01X20759D01*
G02X21350Y104659I0J-591D01*
G01Y98741D01*
G02X20759Y98150I-591J0D01*
G01X18441D01*
G02X17850Y98741I0J591D01*
G01X17750Y114341D02*
Y116500D01*
Y118100D01*
Y120259D01*
G02X18341Y120850I591J0D01*
G01X20659D01*
G02X21250Y120259I0J-591D01*
G01Y114341D01*
G02X20659Y113750I-591J0D01*
G01X18341D01*
G02X17750Y114341I0J591D01*
G01X17950Y106341D02*
Y108500D01*
Y110100D01*
Y112259D01*
G02X18541Y112850I591J0D01*
G01X20859D01*
G02X21450Y112259I0J-591D01*
G01Y106341D01*
G02X20859Y105750I-591J0D01*
G01X18541D01*
G02X17950Y106341I0J591D01*
G01X23959Y125750D02*
X21800D01*
X20200D01*
X18041D01*
G02X17450Y126341I0J591D01*
G01Y128659D01*
G02X18041Y129250I591J0D01*
G01X23959D01*
G02X24550Y128659I0J-591D01*
G01Y126341D01*
G02X23959Y125750I-591J0D01*
G01X17450Y142250D02*
X24550D01*
Y138750D01*
X17450D01*
Y142200D01*
G01X24346Y129866D02*
Y138134D01*
X17654D01*
Y129866D01*
X24346D01*
G01X18041Y146250D02*
X20200D01*
X21800D01*
X23959D01*
G02X24550Y145659I0J-591D01*
G01Y143341D01*
G02X23959Y142750I-591J0D01*
G01X18041D01*
G02X17450Y143341I0J591D01*
G01Y145659D01*
G02X18041Y146250I591J0D01*
G01X14050Y167559D02*
Y165400D01*
Y163800D01*
Y161641D01*
G02X13459Y161050I-591J0D01*
G01X11141D01*
G02X10550Y161641I0J591D01*
G01Y167559D01*
G02X11141Y168150I591J0D01*
G01X13459D01*
G02X14050Y167559I0J-591D01*
G01X13290Y174900D02*
Y172033D01*
X13510Y171433D01*
X13950Y171033D01*
X14500Y170900D01*
X15050Y171033D01*
X15490Y171433D01*
X15710Y172033D01*
Y174900D01*
G01X17290Y171700D02*
X17620Y171233D01*
X18060Y170967D01*
X18555Y170900D01*
X18995Y170967D01*
X19435Y171300D01*
X19710Y171700D01*
X19765Y172100D01*
X19655Y172567D01*
X19270Y172900D01*
X18885Y173033D01*
X18390D01*
G01X18885D02*
X19215Y173233D01*
X19490Y173567D01*
X19600Y173967D01*
X19490Y174367D01*
X19215Y174700D01*
X18720Y174900D01*
X18225Y174833D01*
X17730Y174567D01*
G01X22390Y170900D02*
X22500Y171767D01*
X22665Y172500D01*
X22885Y173167D01*
X23160Y173900D01*
X23600Y174900D01*
X21400D01*
G01X14650Y168150D02*
X21750D01*
Y164650D01*
X14650D01*
Y168100D01*
G01X14252Y199842D02*
X245748D01*
Y180158D01*
X14252D01*
Y199842D01*
G01X18189Y177205D02*
X22126D01*
X20158Y179173D01*
X18189Y177205D01*
G01X35459Y70750D02*
X29541D01*
G02X28950Y71341I0J591D01*
G01Y73659D01*
G02X29541Y74250I591J0D01*
G01X35459D01*
G02X36050Y73659I0J-591D01*
G01Y71341D01*
G02X35459Y70750I-591J0D01*
G01X21541Y74250D02*
X27459D01*
G02X28050Y73659I0J-591D01*
G01Y71341D01*
G02X27459Y70750I-591J0D01*
G01X21541D01*
G02X20950Y71341I0J591D01*
G01Y73659D01*
G02X21541Y74250I591J0D01*
G01X28969Y86276D02*
X21869D01*
Y89776D01*
X28969D01*
Y86326D01*
G01X28950Y89750D02*
X21850D01*
Y93250D01*
X28950D01*
Y89800D01*
G01X28850Y101550D02*
X21750D01*
Y105050D01*
X28850D01*
Y101600D01*
G01X28950Y97750D02*
X21850D01*
Y101250D01*
X28950D01*
Y97800D01*
G01Y93650D02*
X21850D01*
Y97150D01*
X28950D01*
Y93700D01*
G01X28650Y116950D02*
X21550D01*
Y120450D01*
X28650D01*
Y117000D01*
G01X28750Y113250D02*
X21650D01*
Y116750D01*
X28750D01*
Y113300D01*
G01Y109350D02*
X21650D01*
Y112850D01*
X28750D01*
Y109400D01*
G01X28850Y105350D02*
X21750D01*
Y108850D01*
X28850D01*
Y105400D01*
G01X28750Y117041D02*
Y119200D01*
Y120800D01*
Y122959D01*
G02X29341Y123550I591J0D01*
G01X31659D01*
G02X32250Y122959I0J-591D01*
G01Y117041D01*
G02X31659Y116450I-591J0D01*
G01X29341D01*
G02X28750Y117041I0J591D01*
G01X27200Y131300D02*
X24700D01*
X25200Y130980D01*
G01X27200D02*
Y131620D01*
G01X25850Y167459D02*
Y165300D01*
Y163700D01*
Y161541D01*
G02X25259Y160950I-591J0D01*
G01X22941D01*
G02X22350Y161541I0J591D01*
G01Y167459D01*
G02X22941Y168050I591J0D01*
G01X25259D01*
G02X25850Y167459I0J-591D01*
G01X45750Y78050D02*
Y70950D01*
X42250D01*
Y78050D01*
X45700D01*
G01X42250Y78450D02*
Y85550D01*
X45750D01*
Y78450D01*
X42300D01*
G01X41750Y85550D02*
Y78450D01*
X38250D01*
Y85550D01*
X41700D01*
G01X38250Y71541D02*
Y77459D01*
G02X38840Y78050I591J0D01*
G01X41159D01*
G02X41750Y77459I0J-591D01*
G01Y71541D01*
G02X41159Y70950I-591J0D01*
G01X38840D01*
G02X38250Y71541I0J591D01*
G01X33458Y90239D02*
Y89058D01*
X34835D01*
G01X42050Y110750D02*
X34950D01*
Y114250D01*
X42050D01*
Y110800D01*
G01X32250Y117041D02*
Y119200D01*
Y120800D01*
Y122959D01*
G02X32841Y123550I591J0D01*
G01X35159D01*
G02X35750Y122959I0J-591D01*
G01Y117041D01*
G02X35159Y116450I-591J0D01*
G01X32841D01*
G02X32250Y117041I0J591D01*
G01X34835Y108743D02*
X33458D01*
Y107365D01*
G01X47887Y16000D02*
X57113D01*
G02X57900Y15213I0J-787D01*
G01Y11787D01*
G02X57113Y11000I-787J0D01*
G01X47887D01*
G02X47100Y11787I0J787D01*
G01Y15213D01*
G02X47887Y16000I787J0D01*
G01X58350Y78050D02*
Y70950D01*
X54850D01*
Y78050D01*
X58300D01*
G01X46250Y78450D02*
Y85550D01*
X49750D01*
Y78450D01*
X46300D01*
G01X53750Y85550D02*
Y78450D01*
X50250D01*
Y85550D01*
X53700D01*
G01X50250Y70950D02*
Y78050D01*
X53750D01*
Y70950D01*
X50300D01*
G01X46250Y71541D02*
Y77459D01*
G02X46841Y78050I591J0D01*
G01X49159D01*
G02X49750Y77459I0J-591D01*
G01Y71541D01*
G02X49159Y70950I-591J0D01*
G01X46841D01*
G02X46250Y71541I0J591D01*
G01X53142Y90435D02*
Y89058D01*
X51765D01*
G01X44100Y114250D02*
X51200D01*
Y110750D01*
X44100D01*
Y114200D01*
G01X53250Y122959D02*
Y120800D01*
Y119200D01*
Y117041D01*
G02X52659Y116450I-591J0D01*
G01X50341D01*
G02X49750Y117041I0J591D01*
G01Y122959D01*
G02X50341Y123550I591J0D01*
G01X52659D01*
G02X53250Y122959I0J-591D01*
G01X51765Y108743D02*
X53142D01*
Y107365D01*
G01X70050Y78050D02*
Y70950D01*
X66550D01*
Y78050D01*
X70000D01*
G01X62250D02*
Y70950D01*
X58750D01*
Y78050D01*
X62200D01*
G01X66150D02*
Y70950D01*
X62650D01*
Y78050D01*
X66100D01*
G01X64950Y81350D02*
X72050D01*
Y77850D01*
X64950D01*
Y81300D01*
G01X57350Y81150D02*
X64450D01*
Y77650D01*
X57350D01*
Y81100D01*
G01X64350Y85650D02*
X57250D01*
Y89150D01*
X64350D01*
Y85700D01*
G01X64450Y81650D02*
X57350D01*
Y85150D01*
X64450D01*
Y81700D01*
G01X64350Y89750D02*
X57250D01*
Y93250D01*
X64350D01*
Y89800D01*
G01X64950Y85150D02*
X72050D01*
Y81650D01*
X64950D01*
Y85100D01*
G01X64850Y93250D02*
X71950D01*
Y89750D01*
X64850D01*
Y93200D01*
G01X72050Y85650D02*
X64950D01*
Y89150D01*
X72050D01*
Y85700D01*
G01X64350Y93750D02*
X57250D01*
Y97250D01*
X64350D01*
Y93800D01*
G01X64850Y97250D02*
X71950D01*
Y93750D01*
X64850D01*
Y97200D01*
G01X64378Y101094D02*
X57094D01*
Y108378D01*
G01X68906Y105622D02*
Y112906D01*
X61622D01*
G01X64579Y115276D02*
X74421D01*
G01X64579Y124724D02*
X74421D01*
G01X81559Y11850D02*
X79400D01*
X77800D01*
X75641D01*
G02X75050Y12441I0J591D01*
G01Y14759D01*
G02X75641Y15350I591J0D01*
G01X81559D01*
G02X82150Y14759I0J-591D01*
G01Y12441D01*
G02X81559Y11850I-591J0D01*
G01X75826Y39591D02*
Y37426D01*
X91574D01*
Y39591D01*
G01X75826Y56391D02*
Y54226D01*
X91574D01*
Y56391D01*
G01X75826Y51009D02*
Y53174D01*
X91574D01*
Y51009D01*
G01X75826Y67809D02*
Y69974D01*
X91574D01*
Y67809D01*
G01X70250Y70950D02*
Y78050D01*
X73750D01*
Y70950D01*
X70300D01*
G01X79163Y78297D02*
Y74754D01*
G01X84675Y74557D02*
Y70817D01*
X79163D01*
G01X84675Y78494D02*
Y82234D01*
X79163D01*
G01X82650Y98950D02*
X75550D01*
Y102450D01*
X82650D01*
Y99000D01*
G01X70000Y104387D02*
Y113613D01*
G02X70787Y114400I787J0D01*
G01X74213D01*
G02X75000Y113613I0J-787D01*
G01Y104387D01*
G02X74213Y103600I-787J0D01*
G01X70787D01*
G02X70000Y104387I0J787D01*
G01X81000Y124613D02*
Y115387D01*
G02X80213Y114600I-787J0D01*
G01X76787D01*
G02X76000Y115387I0J787D01*
G01Y124613D01*
G02X76787Y125400I787J0D01*
G01X80213D01*
G02X81000Y124613I0J-787D01*
G01X90789Y157802D02*
X79211D01*
Y148198D01*
X90789D01*
Y157802D01*
G01X79488Y174512D02*
X79291D01*
Y163488D01*
X79488D01*
G01X85291Y24490D02*
X97299D01*
Y17010D01*
X84701D01*
Y24490D01*
X85291D01*
G01Y35240D02*
X97299D01*
Y27760D01*
X84701D01*
Y35240D01*
X85291D01*
G01X93050Y95550D02*
Y88450D01*
X89550D01*
Y95550D01*
X93000D01*
G01X82950Y106250D02*
X90050D01*
Y102750D01*
X82950D01*
Y106200D01*
G01X90150Y98950D02*
X83050D01*
Y102450D01*
X90150D01*
Y99000D01*
G01X83250Y143550D02*
Y136450D01*
X79750D01*
Y143550D01*
X83200D01*
G01X90512Y174512D02*
X90709D01*
Y163488D01*
X90512D01*
G01X106550Y17250D02*
X99450D01*
Y20750D01*
X106550D01*
Y17300D01*
G01Y20750D02*
X99450D01*
Y24250D01*
X106550D01*
Y20800D01*
G01X100041Y17250D02*
X102200D01*
X103800D01*
X105959D01*
G02X106550Y16659I0J-591D01*
G01Y14341D01*
G02X105959Y13750I-591J0D01*
G01X100041D01*
G02X99450Y14341I0J591D01*
G01Y16659D01*
G02X100041Y17250I591J0D01*
G01X98459Y13750D02*
X96300D01*
X94700D01*
X92541D01*
G02X91950Y14341I0J591D01*
G01Y16659D01*
G02X92541Y17250I591J0D01*
G01X98459D01*
G02X99050Y16659I0J-591D01*
G01Y14341D01*
G02X98459Y13750I-591J0D01*
G01X106550Y31250D02*
X99450D01*
Y34750D01*
X106550D01*
Y31300D01*
G01Y27750D02*
X99450D01*
Y31250D01*
X106550D01*
Y27800D01*
G01Y24250D02*
X99450D01*
Y27750D01*
X106550D01*
Y24300D01*
G01Y41750D02*
X99450D01*
Y45250D01*
X106550D01*
Y41800D01*
G01Y45250D02*
X99450D01*
Y48750D01*
X106550D01*
Y45300D01*
G01X94750Y41450D02*
Y48550D01*
X98250D01*
Y41450D01*
X94800D01*
G01X106550Y34750D02*
X99450D01*
Y38250D01*
X106550D01*
Y34800D01*
G01X100041Y41750D02*
X102200D01*
X103800D01*
X105959D01*
G02X106550Y41159I0J-591D01*
G01Y38841D01*
G02X105959Y38250I-591J0D01*
G01X100041D01*
G02X99450Y38841I0J591D01*
G01Y41159D01*
G02X100041Y41750I591J0D01*
G01X106550Y52250D02*
X99450D01*
Y55750D01*
X106550D01*
Y52300D01*
G01Y48750D02*
X99450D01*
Y52250D01*
X106550D01*
Y48800D01*
G01Y55750D02*
X99450D01*
Y59250D01*
X106550D01*
Y55800D01*
G01X98250Y57959D02*
Y55800D01*
Y54200D01*
Y52041D01*
G02X97659Y51450I-591J0D01*
G01X95341D01*
G02X94750Y52041I0J591D01*
G01Y57959D01*
G02X95341Y58550I591J0D01*
G01X97659D01*
G02X98250Y57959I0J-591D01*
G01X106550Y59250D02*
X99450D01*
Y62750D01*
X106550D01*
Y59300D01*
G01X108113Y67500D02*
X98887D01*
G02X98100Y68287I0J787D01*
G01Y71713D01*
G02X98887Y72500I787J0D01*
G01X108113D01*
G02X108900Y71713I0J-787D01*
G01Y68287D01*
G02X108113Y67500I-787J0D01*
G01X100041Y66250D02*
X102200D01*
X103800D01*
X105959D01*
G02X106550Y65659I0J-591D01*
G01Y63341D01*
G02X105959Y62750I-591J0D01*
G01X100041D01*
G02X99450Y63341I0J591D01*
G01Y65659D01*
G02X100041Y66250I591J0D01*
G01X94750Y59041D02*
Y61200D01*
Y62800D01*
Y64959D01*
G02X95341Y65550I591J0D01*
G01X97659D01*
G02X98250Y64959I0J-591D01*
G01Y59041D01*
G02X97659Y58450I-591J0D01*
G01X95341D01*
G02X94750Y59041I0J591D01*
G01X101759Y98550D02*
X99600D01*
X98000D01*
X95841D01*
G02X95250Y99141I0J591D01*
G01Y101459D01*
G02X95841Y102050I591J0D01*
G01X101759D01*
G02X102350Y101459I0J-591D01*
G01Y99141D01*
G02X101759Y98550I-591J0D01*
G01X95850Y108850D02*
Y115950D01*
X99350D01*
Y108850D01*
X95900D01*
G01X103250Y123350D02*
Y116250D01*
X99750D01*
Y123350D01*
X103200D01*
G01X99650Y109341D02*
Y111500D01*
Y113100D01*
Y115259D01*
G02X100241Y115850I591J0D01*
G01X102559D01*
G02X103150Y115259I0J-591D01*
G01Y109341D01*
G02X102559Y108750I-591J0D01*
G01X100241D01*
G02X99650Y109341I0J591D01*
G01X95850Y116941D02*
Y119100D01*
Y120700D01*
Y122859D01*
G02X96441Y123450I591J0D01*
G01X98759D01*
G02X99350Y122859I0J-591D01*
G01Y116941D01*
G02X98759Y116350I-591J0D01*
G01X96441D01*
G02X95850Y116941I0J591D01*
G01X96611Y128882D02*
Y135982D01*
X100111D01*
Y128882D01*
X96661D01*
G01X103950Y143350D02*
Y136250D01*
X100450D01*
Y143350D01*
X103900D01*
G01X96611Y136971D02*
Y139130D01*
Y140730D01*
Y142890D01*
G02X97201Y143480I591J0D01*
G01X99520D01*
G02X100111Y142890I0J-591D01*
G01Y136971D01*
G02X99520Y136380I-590J0D01*
G01X97201D01*
G02X96611Y136971I0J591D01*
G01X100450Y129541D02*
Y131700D01*
Y133300D01*
Y135459D01*
G02X101041Y136050I591J0D01*
G01X103359D01*
G02X103950Y135459I0J-591D01*
G01Y129541D01*
G02X103359Y128950I-591J0D01*
G01X101041D01*
G02X100450Y129541I0J591D01*
G01X95950Y159250D02*
X103050D01*
Y155750D01*
X95950D01*
Y159200D01*
G01X91750Y162541D02*
Y164700D01*
Y166300D01*
Y168459D01*
G02X92341Y169050I591J0D01*
G01X94659D01*
G02X95250Y168459I0J-591D01*
G01Y162541D01*
G02X94659Y161950I-591J0D01*
G01X92341D01*
G02X91750Y162541I0J591D01*
G01X96541Y163250D02*
X98700D01*
X100300D01*
X102459D01*
G02X103050Y162659I0J-591D01*
G01Y160341D01*
G02X102459Y159750I-591J0D01*
G01X96541D01*
G02X95950Y160341I0J591D01*
G01Y162659D01*
G02X96541Y163250I591J0D01*
G01X100878Y165866D02*
X98122D01*
G01X95760D02*
X95563D01*
Y174134D01*
X95760D01*
G01X103240Y165866D02*
X103437D01*
Y174134D01*
X103240D01*
G01X100091Y178465D02*
X104028D01*
X102059Y176496D01*
X100091Y178465D01*
G01X95250Y176050D02*
Y168950D01*
X91750D01*
Y176050D01*
X95200D01*
G01X111490Y52700D02*
Y49833D01*
X111710Y49233D01*
X112150Y48833D01*
X112700Y48700D01*
X113250Y48833D01*
X113690Y49233D01*
X113910Y49833D01*
Y52700D01*
G01X115655Y52033D02*
X115985Y52433D01*
X116370Y52633D01*
X116810Y52700D01*
X117360Y52567D01*
X117745Y52233D01*
X117855Y51833D01*
X117800Y51433D01*
X117580Y51100D01*
X116480Y50433D01*
X115985Y49967D01*
X115655Y49300D01*
X115545Y48700D01*
X117855D01*
G01X123891Y13917D02*
X121732D01*
X120132D01*
X117972D01*
G02X117382Y14507I0J591D01*
G01Y16826D01*
G02X117972Y17417I591J0D01*
G01X123891D01*
G02X124482Y16826I0J-590D01*
G01Y14507D01*
G02X123891Y13917I-591J0D01*
G01X131765D02*
X129606D01*
X128006D01*
X125846D01*
G02X125256Y14507I0J591D01*
G01Y16826D01*
G02X125846Y17417I591J0D01*
G01X131765D01*
G02X132356Y16826I0J-591D01*
G01Y14507D01*
G02X131765Y13917I-591J0D01*
G01X121128Y53856D02*
Y18423D01*
X174278D01*
Y53856D01*
X121128D01*
G01X123891Y54862D02*
X121732D01*
X120132D01*
X117972D01*
G02X117382Y55452I0J591D01*
G01Y57771D01*
G02X117972Y58362I591J0D01*
G01X123891D01*
G02X124482Y57771I0J-591D01*
G01Y55452D01*
G02X123891Y54862I-590J0D01*
G01X131765D02*
X129606D01*
X128006D01*
X125846D01*
G02X125256Y55452I0J591D01*
G01Y57771D01*
G02X125846Y58362I591J0D01*
G01X131765D01*
G02X132356Y57771I0J-591D01*
G01Y55452D01*
G02X131765Y54862I-591J0D01*
G01X123891Y59586D02*
X121732D01*
X120132D01*
X117972D01*
G02X117382Y60177I0J591D01*
G01Y62496D01*
G02X117972Y63086I590J0D01*
G01X123891D01*
G02X124482Y62496I0J-591D01*
G01Y60177D01*
G02X123891Y59586I-591J0D01*
G01X131765D02*
X129606D01*
X128006D01*
X125846D01*
G02X125256Y60177I0J591D01*
G01Y62496D01*
G02X125846Y63086I591J0D01*
G01X131765D01*
G02X132356Y62496I0J-591D01*
G01Y60177D01*
G02X131765Y59586I-591J0D01*
G01X140230Y13917D02*
X133130D01*
Y17417D01*
X140230D01*
Y13967D01*
G01X139639Y54862D02*
X137480D01*
X135880D01*
X133720D01*
G02X133130Y55452I0J591D01*
G01Y57771D01*
G02X133720Y58362I591J0D01*
G01X139639D01*
G02X140230Y57771I0J-591D01*
G01Y55452D01*
G02X139639Y54862I-591J0D01*
G01Y59586D02*
X137480D01*
X135880D01*
X133720D01*
G02X133130Y60177I0J591D01*
G01Y62496D01*
G02X133720Y63086I591J0D01*
G01X139639D01*
G02X140230Y62496I0J-591D01*
G01Y60177D01*
G02X139639Y59586I-591J0D01*
G01X149468Y17417D02*
X151628D01*
X153228D01*
X155387D01*
G02X155978Y16826I0J-591D01*
G01Y14507D01*
G02X155387Y13917I-591J0D01*
G01X149468D01*
G02X148878Y14507I0J591D01*
G01Y16826D01*
G02X149468Y17417I591J0D01*
G01X147513Y13917D02*
X145354D01*
X143754D01*
X141594D01*
G02X141004Y14507I0J591D01*
G01Y16826D01*
G02X141594Y17417I591J0D01*
G01X147513D01*
G02X148104Y16826I0J-590D01*
G01Y14507D01*
G02X147513Y13917I-591J0D01*
G01X149468Y58362D02*
X151628D01*
X153228D01*
X155387D01*
G02X155978Y57771I0J-591D01*
G01Y55452D01*
G02X155387Y54862I-591J0D01*
G01X149468D01*
G02X148878Y55452I0J591D01*
G01Y57771D01*
G02X149468Y58362I591J0D01*
G01X147513Y54862D02*
X145354D01*
X143754D01*
X141594D01*
G02X141004Y55452I0J591D01*
G01Y57771D01*
G02X141594Y58362I591J0D01*
G01X147513D01*
G02X148104Y57771I0J-591D01*
G01Y55452D01*
G02X147513Y54862I-591J0D01*
G01X149468Y63086D02*
X151628D01*
X153228D01*
X155387D01*
G02X155978Y62496I0J-591D01*
G01Y60177D01*
G02X155387Y59586I-591J0D01*
G01X149468D01*
G02X148878Y60177I0J590D01*
G01Y62496D01*
G02X149468Y63086I591J0D01*
G01X157342Y17417D02*
X159502D01*
X161102D01*
X163261D01*
G02X163852Y16826I0J-591D01*
G01Y14507D01*
G02X163261Y13917I-591J0D01*
G01X157342D01*
G02X156752Y14507I0J591D01*
G01Y16826D01*
G02X157342Y17417I591J0D01*
G01Y58362D02*
X159502D01*
X161102D01*
X163261D01*
G02X163852Y57771I0J-591D01*
G01Y55452D01*
G02X163261Y54862I-591J0D01*
G01X157342D01*
G02X156752Y55452I0J591D01*
G01Y57771D01*
G02X157342Y58362I591J0D01*
G01Y63086D02*
X159502D01*
X161102D01*
X163261D01*
G02X163852Y62496I0J-591D01*
G01Y60177D01*
G02X163261Y59586I-591J0D01*
G01X157342D01*
G02X156752Y60177I0J591D01*
G01Y62496D01*
G02X157342Y63086I591J0D01*
G01X165138Y18167D02*
X174363D01*
G02X175150Y17379I0J-787D01*
G01Y13954D01*
G02X174363Y13167I-787J0D01*
G01X165138D01*
G02X164350Y13954I0J787D01*
G01Y17379D01*
G02X165138Y18167I787J0D01*
G01Y59112D02*
X174363D01*
G02X175150Y58324I0J-787D01*
G01Y54899D01*
G02X174363Y54112I-787J0D01*
G01X165138D01*
G02X164350Y54899I0J787D01*
G01Y58324D01*
G02X165138Y59112I787J0D01*
G01X165216Y63086D02*
X167376D01*
X168976D01*
X171135D01*
G02X171726Y62496I0J-591D01*
G01Y60177D01*
G02X171135Y59586I-591J0D01*
G01X165216D01*
G02X164626Y60177I0J591D01*
G01Y62496D01*
G02X165216Y63086I591J0D01*
G01X164090Y171300D02*
Y168433D01*
X164310Y167833D01*
X164750Y167433D01*
X165300Y167300D01*
X165850Y167433D01*
X166290Y167833D01*
X166510Y168433D01*
Y171300D01*
G01X169960Y167300D02*
Y171300D01*
X167925Y168433D01*
X170675D01*
G01X181350Y23059D02*
Y20900D01*
Y19300D01*
Y17141D01*
G02X180759Y16550I-591J0D01*
G01X178441D01*
G02X177850Y17141I0J591D01*
G01Y23059D01*
G02X178441Y23650I591J0D01*
G01X180759D01*
G02X181350Y23059I0J-591D01*
G01X183788Y12888D02*
Y12691D01*
X194812D01*
Y12888D01*
G01X187650Y32550D02*
Y25450D01*
X184150D01*
Y32550D01*
X187600D01*
G01X180250Y25450D02*
Y32550D01*
X183750D01*
Y25450D01*
X180300D01*
G01X183788Y23912D02*
Y24109D01*
X194812D01*
Y23912D01*
G01X180450Y37750D02*
X187550D01*
Y34250D01*
X180450D01*
Y37700D01*
G01Y41750D02*
X187550D01*
Y38250D01*
X180450D01*
Y41700D01*
G01X186959Y42250D02*
X184800D01*
X183200D01*
X181041D01*
G02X180450Y42841I0J591D01*
G01Y45159D01*
G02X181041Y45750I591J0D01*
G01X186959D01*
G02X187550Y45159I0J-591D01*
G01Y42841D01*
G02X186959Y42250I-591J0D01*
G01X180090Y54200D02*
Y51333D01*
X180310Y50733D01*
X180750Y50333D01*
X181300Y50200D01*
X181850Y50333D01*
X182290Y50733D01*
X182510Y51333D01*
Y54200D01*
G01X185190Y50200D02*
X185300Y51067D01*
X185465Y51800D01*
X185685Y52467D01*
X185960Y53200D01*
X186400Y54200D01*
X184200D01*
G01X189300Y50200D02*
X189685Y50267D01*
X190125Y50467D01*
X190400Y50800D01*
X190510Y51267D01*
X190400Y51733D01*
X190070Y52133D01*
X189575Y52333D01*
X189025D01*
X188695Y52467D01*
X188420Y52800D01*
X188310Y53267D01*
X188475Y53733D01*
X188860Y54067D01*
X189300Y54200D01*
X189740Y54067D01*
X190125Y53733D01*
X190290Y53267D01*
X190180Y52800D01*
X189905Y52467D01*
X189575Y52333D01*
X189025D01*
X188530Y52133D01*
X188200Y51733D01*
X188090Y51267D01*
X188200Y50800D01*
X188475Y50467D01*
X188915Y50267D01*
X189300Y50200D01*
G01X177418Y46809D02*
Y50746D01*
X175449Y48778D01*
X177418Y46809D01*
G01X187550Y55750D02*
X180450D01*
Y59250D01*
X187550D01*
Y55800D01*
G01X180450Y63250D02*
X187550D01*
Y59750D01*
X180450D01*
Y63200D01*
G01X181325Y167200D02*
X182700Y171200D01*
X184075Y167200D01*
G01X183580Y168600D02*
X181820D01*
G01X185270Y167200D02*
Y171200D01*
X186700Y167867D01*
X188130Y171200D01*
Y167200D01*
G01X189490Y167800D02*
X189820Y167467D01*
X190205Y167267D01*
X190700Y167200D01*
X191195Y167333D01*
X191580Y167600D01*
X191855Y168067D01*
X191910Y168600D01*
X191800Y169133D01*
X191525Y169467D01*
X191140Y169733D01*
X190755Y169800D01*
X190370Y169733D01*
X189875Y169467D01*
X190040Y171200D01*
X191525D01*
G01X194590Y167200D02*
X194700Y168067D01*
X194865Y168800D01*
X195085Y169467D01*
X195360Y170200D01*
X195800Y171200D01*
X193600D01*
G01X197545Y167200D02*
X199855Y171200D01*
G01X197545D02*
X199855Y167200D01*
G01X197450Y15150D02*
Y22250D01*
X200950D01*
Y15150D01*
X197500D01*
G01X194812Y20368D02*
Y16432D01*
G01X195450Y32550D02*
Y25450D01*
X191950D01*
Y32550D01*
X195400D01*
G01X191550D02*
Y25450D01*
X188050D01*
Y32550D01*
X191500D01*
G01X199450D02*
Y25450D01*
X195950D01*
Y32550D01*
X199400D01*
G01X196250Y55950D02*
Y63050D01*
X199750D01*
Y55950D01*
X196300D01*
G01X192250D02*
Y63050D01*
X195750D01*
Y55950D01*
X192300D01*
G01X191750Y63050D02*
Y55950D01*
X188250D01*
Y63050D01*
X191700D01*
G01X201750Y15950D02*
X208850D01*
Y12450D01*
X201750D01*
Y15900D01*
G01Y19750D02*
X208850D01*
Y16250D01*
X201750D01*
Y19700D01*
G01X202341Y23550D02*
X204500D01*
X206100D01*
X208259D01*
G02X208850Y22959I0J-591D01*
G01Y20641D01*
G02X208259Y20050I-591J0D01*
G01X202341D01*
G02X201750Y20641I0J591D01*
G01Y22959D01*
G02X202341Y23550I591J0D01*
G01X207850Y25450D02*
Y32550D01*
X211350D01*
Y25450D01*
X207900D01*
G01X203650Y32550D02*
Y25450D01*
X200150D01*
Y32550D01*
X203600D01*
G01X207550D02*
Y25450D01*
X204050D01*
Y32550D01*
X207500D01*
G01X207850Y44950D02*
Y52050D01*
X211350D01*
Y44950D01*
X207900D01*
G01X204250Y55950D02*
Y63050D01*
X207750D01*
Y55950D01*
X204300D01*
G01X211750Y63050D02*
Y55950D01*
X208250D01*
Y63050D01*
X211700D01*
G01X203750D02*
Y55950D01*
X200250D01*
Y63050D01*
X203700D01*
G01X211650Y52350D02*
X204550D01*
Y55850D01*
X211650D01*
Y52400D01*
G01X208741Y168268D02*
X204804D01*
X206772Y166299D01*
X208741Y168268D01*
G01X212050Y17541D02*
Y19700D01*
Y21300D01*
Y23459D01*
G02X212641Y24050I591J0D01*
G01X214959D01*
G02X215550Y23459I0J-591D01*
G01Y17541D01*
G02X214959Y16950I-591J0D01*
G01X212641D01*
G02X212050Y17541I0J591D01*
G01X216566Y14198D02*
X216369D01*
Y26402D01*
X216566D01*
G01X215150Y32550D02*
Y25450D01*
X211650D01*
Y32550D01*
X215100D01*
G01X223959Y31650D02*
X221800D01*
X220200D01*
X218041D01*
G02X217450Y32241I0J591D01*
G01Y34559D01*
G02X218041Y35150I591J0D01*
G01X223959D01*
G02X224550Y34559I0J-591D01*
G01Y32241D01*
G02X223959Y31650I-591J0D01*
G01X216250Y55950D02*
Y63050D01*
X219750D01*
Y55950D01*
X216300D01*
G01X215750Y63050D02*
Y55950D01*
X212250D01*
Y63050D01*
X215700D01*
G01X215667Y76340D02*
X215467Y76560D01*
X215133Y76725D01*
X214667Y76835D01*
X214267Y76725D01*
X214000Y76505D01*
X213800Y76120D01*
Y74635D01*
X217800D01*
Y76450D01*
X217533Y76835D01*
X217133Y77055D01*
X216667Y77165D01*
X216200Y77055D01*
X215800Y76725D01*
X215667Y76340D01*
Y74635D01*
G01X216000Y79075D02*
Y80835D01*
X215533Y80670D01*
X215267Y80395D01*
X215133Y80010D01*
X215200Y79625D01*
X215400Y79295D01*
X215867Y79075D01*
X216267Y78965D01*
X216667D01*
X217067Y79075D01*
X217467Y79350D01*
X217733Y79680D01*
X217800Y80065D01*
X217667Y80450D01*
X217267Y80835D01*
G01X217800Y84890D02*
X215133D01*
G01X215600D02*
X215333Y84670D01*
X215200Y84340D01*
X215133Y83955D01*
X215267Y83570D01*
X215533Y83240D01*
X215933Y83020D01*
X216467Y82910D01*
X217000Y83020D01*
X217400Y83240D01*
X217667Y83570D01*
X217800Y83955D01*
X217733Y84340D01*
X217533Y84670D01*
X217267Y84890D01*
G01X218800Y87130D02*
X219067Y87515D01*
X219133Y87955D01*
X219067Y88340D01*
X218733Y88670D01*
X218267Y88890D01*
X215133D01*
G01X215667D02*
X215400Y88670D01*
X215200Y88340D01*
X215133Y87955D01*
X215267Y87515D01*
X215533Y87240D01*
X216000Y87020D01*
X216467Y86910D01*
X216867Y86965D01*
X217333Y87185D01*
X217667Y87515D01*
X217800Y87955D01*
X217733Y88285D01*
X217467Y88670D01*
X217200Y88890D01*
G01X217800Y91900D02*
X213800D01*
G01X216000Y95075D02*
Y96835D01*
X215533Y96670D01*
X215267Y96395D01*
X215133Y96010D01*
X215200Y95625D01*
X215400Y95295D01*
X215867Y95075D01*
X216267Y94965D01*
X216667D01*
X217067Y95075D01*
X217467Y95350D01*
X217733Y95680D01*
X217800Y96065D01*
X217667Y96450D01*
X217267Y96835D01*
G01X215667Y100340D02*
X215467Y100560D01*
X215133Y100725D01*
X214667Y100835D01*
X214267Y100725D01*
X214000Y100505D01*
X213800Y100120D01*
Y98635D01*
X217800D01*
Y100450D01*
X217533Y100835D01*
X217133Y101055D01*
X216667Y101165D01*
X216200Y101055D01*
X215800Y100725D01*
X215667Y100340D01*
Y98635D01*
G01X217800Y103900D02*
X217733Y103570D01*
X217467Y103240D01*
X217000Y103020D01*
X216467Y102910D01*
X215933Y103020D01*
X215467Y103240D01*
X215200Y103570D01*
X215133Y103900D01*
X215200Y104230D01*
X215467Y104560D01*
X215933Y104780D01*
X216467Y104835D01*
X217000Y104780D01*
X217467Y104560D01*
X217733Y104230D01*
X217800Y103900D01*
G01Y106965D02*
X215133D01*
G01X215800D02*
X215467Y107185D01*
X215200Y107515D01*
X215133Y107955D01*
X215200Y108340D01*
X215467Y108670D01*
X215933Y108835D01*
X217800D01*
G01X216000Y111075D02*
Y112835D01*
X215533Y112670D01*
X215267Y112395D01*
X215133Y112010D01*
X215200Y111625D01*
X215400Y111295D01*
X215867Y111075D01*
X216267Y110965D01*
X216667D01*
X217067Y111075D01*
X217467Y111350D01*
X217733Y111680D01*
X217800Y112065D01*
X217667Y112450D01*
X217267Y112835D01*
G01X217800Y118525D02*
X213800Y119900D01*
X217800Y121275D01*
G01X216400Y120780D02*
Y119020D01*
G01X213800Y123240D02*
Y124560D01*
G01Y123900D02*
X217800D01*
G01Y123240D02*
Y124560D01*
G01Y130800D02*
X213800D01*
Y132175D01*
X214000Y132615D01*
X214267Y132890D01*
X214800Y133000D01*
X215333Y132890D01*
X215667Y132560D01*
X215867Y132175D01*
Y130800D01*
G01Y132175D02*
X217800Y133000D01*
G01Y137000D02*
Y134800D01*
X213800D01*
Y137000D01*
G01X215733Y136120D02*
Y134800D01*
G01X213800Y138525D02*
X217800Y139900D01*
X213800Y141275D01*
G01X217800Y146525D02*
X213800Y147900D01*
X217800Y149275D01*
G01X216400Y148780D02*
Y147020D01*
G01X217800Y151900D02*
X213800D01*
X214600Y151240D01*
G01X217800D02*
Y152560D01*
G01X221950Y114250D02*
X229050D01*
Y110750D01*
X221950D01*
Y114200D01*
G01Y110250D02*
X229050D01*
Y106750D01*
X221950D01*
Y110200D01*
G01Y118250D02*
X229050D01*
Y114750D01*
X221950D01*
Y118200D01*
G01Y126250D02*
X229050D01*
Y122750D01*
X221950D01*
Y126200D01*
G01Y130250D02*
X229050D01*
Y126750D01*
X221950D01*
Y130200D01*
G01Y122250D02*
X229050D01*
Y118750D01*
X221950D01*
Y122200D01*
G01Y142250D02*
X229050D01*
Y138750D01*
X221950D01*
Y142200D01*
G01Y138250D02*
X229050D01*
Y134750D01*
X221950D01*
Y138200D01*
G01Y134250D02*
X229050D01*
Y130750D01*
X221950D01*
Y134200D01*
G01Y146250D02*
X229050D01*
Y142750D01*
X221950D01*
Y146200D01*
G01X228459Y146750D02*
X226300D01*
X224700D01*
X222541D01*
G02X221950Y147340I0J591D01*
G01Y149659D01*
G02X222541Y150250I591J0D01*
G01X228459D01*
G02X229050Y149659I0J-591D01*
G01Y147340D01*
G02X228459Y146750I-590J0D01*
G01X222541Y154250D02*
X224700D01*
X226300D01*
X228459D01*
G02X229050Y153659I0J-591D01*
G01Y151340D01*
G02X228459Y150750I-591J0D01*
G01X222541D01*
G02X221950Y151340I0J591D01*
G01Y153659D01*
G02X222541Y154250I591J0D01*
G01X221950Y162250D02*
X229050D01*
Y158750D01*
X221950D01*
Y162200D01*
G01Y158250D02*
X229050D01*
Y154750D01*
X221950D01*
Y158200D01*
G01X224834Y14198D02*
X225031D01*
Y26402D01*
X224834D01*
G01X242909Y12560D02*
X230901D01*
Y20040D01*
X243499D01*
Y12560D01*
X242909D01*
G01X222800Y82700D02*
X223075Y82300D01*
X223405Y82033D01*
X223790Y81900D01*
X224230Y82033D01*
X224560Y82300D01*
X224890Y82700D01*
X225000Y83233D01*
Y85900D01*
G01X228560Y81900D02*
Y85900D01*
X226525Y83033D01*
X229275D01*
G01X231900Y81900D02*
Y85900D01*
X231240Y85100D01*
G01Y81900D02*
X232560D01*
G01X229150Y87450D02*
Y94550D01*
X232650D01*
Y87450D01*
X229200D01*
G01X232650Y102050D02*
Y94950D01*
X229150D01*
Y102050D01*
X232600D01*
G01X239213Y102600D02*
X229987D01*
G02X229200Y103387I0J787D01*
G01Y106813D01*
G02X229987Y107600I787J0D01*
G01X239213D01*
G02X240000Y106813I0J-787D01*
G01Y103387D01*
G02X239213Y102600I-787J0D01*
G01X230590Y166200D02*
Y163333D01*
X230810Y162733D01*
X231250Y162333D01*
X231800Y162200D01*
X232350Y162333D01*
X232790Y162733D01*
X233010Y163333D01*
Y166200D01*
G01X235690Y162200D02*
X235800Y163067D01*
X235965Y163800D01*
X236185Y164467D01*
X236460Y165200D01*
X236900Y166200D01*
X234700D01*
G01X233750Y169541D02*
Y171700D01*
Y173300D01*
Y175459D01*
G02X234341Y176050I591J0D01*
G01X236659D01*
G02X237250Y175459I0J-591D01*
G01Y169541D01*
G02X236659Y168950I-591J0D01*
G01X234341D01*
G02X233750Y169541I0J591D01*
G01X239250Y93559D02*
Y91400D01*
Y89800D01*
Y87640D01*
G02X238659Y87050I-591J0D01*
G01X236341D01*
G02X235750Y87640I0J591D01*
G01Y93559D01*
G02X236341Y94150I591J0D01*
G01X238659D01*
G02X239250Y93559I0J-591D01*
G01X246450Y107750D02*
Y100650D01*
X242950D01*
Y107750D01*
X246400D01*
G01X242341Y163868D02*
X238404D01*
X240372Y161899D01*
X242341Y163868D01*
G01X241250Y176050D02*
Y168950D01*
X237750D01*
Y176050D01*
X241200D01*
G01X245250D02*
Y168950D01*
X241750D01*
Y176050D01*
X245200D01*
G01X249250D02*
Y168950D01*
X245750D01*
Y176050D01*
X249200D01*
G01X251650Y107750D02*
Y100650D01*
X248150D01*
Y107750D01*
X251600D01*
G01X255450D02*
Y100650D01*
X251950D01*
Y107750D01*
X255400D01*
G01X260900Y107213D02*
Y97987D01*
G02X260113Y97200I-787J0D01*
G01X256687D01*
G02X255900Y97987I0J787D01*
G01Y107213D01*
G02X256687Y108000I787J0D01*
G01X260113D01*
G02X260900Y107213I0J-787D01*
G01X263644Y84632D02*
Y80891D01*
X269156D01*
G01Y84828D02*
Y88372D01*
G01X263644Y88568D02*
Y92309D01*
X269156D01*
G01X264750Y107159D02*
Y105000D01*
Y103400D01*
Y101240D01*
G02X264159Y100650I-591J0D01*
G01X261841D01*
G02X261250Y101240I0J591D01*
G01Y107159D01*
G02X261841Y107750I591J0D01*
G01X264159D01*
G02X264750Y107159I0J-591D01*
G01X266887Y166750D02*
X276113D01*
G02X276900Y165963I0J-787D01*
G01Y162537D01*
G02X276113Y161750I-787J0D01*
G01X266887D01*
G02X266100Y162537I0J787D01*
G01Y165963D01*
G02X266887Y166750I787J0D01*
G01X258841Y165200D02*
X261000D01*
X262600D01*
X264760D01*
G02X265350Y164610I0J-591D01*
G01Y162291D01*
G02X264760Y161700I-591J0D01*
G01X258841D01*
G02X258250Y162291I0J591D01*
G01Y164610D01*
G02X258841Y165200I591J0D01*
G01X-32500Y-12500D02*
X232500D01*
G03X282500Y37500I0J50000D01*
G01Y152500D01*
G03X232500Y202500I-50000J0D01*
G01X-32500D01*
G03X-57500Y177500I0J-25000D01*
G01Y12500D01*
G03X-32500Y-12500I25000J0D01*
G01X121660Y169500D02*
Y168680D01*
G54D13*
G01X227270Y27910D02*
Y79490D01*
X282390D01*
Y27910D01*
X227270D01*
G54D14*
G01X121100Y176240D02*
X124320D01*
G01X121660Y168680D02*
X125300D01*
G01X121100Y169240D02*
X124180D01*
G01X121800Y168540D02*
X125300D01*
G01X121520Y168820D02*
X125300D01*
G01X121380Y168960D02*
X125300D01*
G01X121240Y169100D02*
X125300D01*
G01X120960Y169380D02*
X123620D01*
G01X120820Y169520D02*
X123340D01*
G01X120680Y169660D02*
X123060D01*
G01X120680Y169800D02*
X122780D01*
G01X120540Y169940D02*
X122640D01*
G01X120540Y170080D02*
X122500D01*
G01X120400Y170220D02*
X122360D01*
G01X120260Y170360D02*
X122220D01*
G01X120260Y170500D02*
X122080D01*
G01X120120Y170640D02*
X121940D01*
G01X120120Y170780D02*
X121800D01*
G01X120120Y170920D02*
X121800D01*
G01X119980Y171060D02*
X121660D01*
G01X119980Y171200D02*
X121660D01*
G01X119840Y171340D02*
X121520D01*
G01X119840Y171480D02*
X121520D01*
G01X119840Y171620D02*
X121520D01*
G01X119840Y171760D02*
X121380D01*
G01X119840Y171900D02*
X121380D01*
G01X119840Y172040D02*
X121380D01*
G01X119700Y172180D02*
X121380D01*
G01X119700Y172320D02*
X121380D01*
G01X119700Y172460D02*
X121240D01*
G01X119700Y172600D02*
X121240D01*
G01X119700Y172740D02*
X121240D01*
G01X119700Y172880D02*
X121240D01*
G01X119700Y173020D02*
X121240D01*
G01X119700Y173160D02*
X121380D01*
G01X119700Y173300D02*
X121380D01*
G01X119840Y173440D02*
X121380D01*
G01X119840Y173580D02*
X121380D01*
G01X119840Y173720D02*
X121380D01*
G01X119840Y173860D02*
X121520D01*
G01X119840Y174000D02*
X121520D01*
G01X119840Y174140D02*
X121520D01*
G01X119980Y174280D02*
X121660D01*
G01X119980Y174420D02*
X121660D01*
G01X120120Y174560D02*
X121800D01*
G01X120120Y174700D02*
X121800D01*
G01X120120Y174840D02*
X121940D01*
G01X120260Y174980D02*
X122080D01*
G01X120260Y175120D02*
X122220D01*
G01X120400Y175260D02*
X122360D01*
G01X120540Y175400D02*
X122500D01*
G01X120540Y175540D02*
X122640D01*
G01X120680Y175680D02*
X122780D01*
G01X120680Y175820D02*
X123060D01*
G01X120820Y175960D02*
X123340D01*
G01X120960Y176100D02*
X123760D01*
G01X122920Y167980D02*
X125300D01*
G01X122640Y168120D02*
X125300D01*
G01X122360Y168260D02*
X125300D01*
G01X122080Y168400D02*
X125300D01*
G01X121240Y176380D02*
X125300D01*
G01X123900Y167700D02*
X125160D01*
G01X123340Y167840D02*
X125300D01*
G01X121380Y176520D02*
X125300D01*
G01X122080Y177080D02*
X125300D01*
G01X122360Y177220D02*
X125300D01*
G01X122640Y177360D02*
X125300D01*
G01X123060Y177500D02*
X125300D01*
G01X121520Y176660D02*
X125300D01*
G01X121660Y176800D02*
X125300D01*
G01X121940Y176940D02*
X125300D01*
G01X123480Y177640D02*
X125300D01*
G01X124040Y177780D02*
X125160D01*
G01X133560Y176240D02*
X133840D01*
G01X132300Y167700D02*
X133700D01*
G01X131880Y167840D02*
X133700D01*
G01X131460Y167980D02*
X133700D01*
G01X131040Y168120D02*
X133700D01*
G01X129640Y176240D02*
X132860D01*
G01X129920Y168820D02*
X133700D01*
G01X129780Y168960D02*
X133700D01*
G01X129640Y169100D02*
X133700D01*
G01X129640Y169240D02*
X132580D01*
G01X129500Y169380D02*
X132160D01*
G01X129360Y169520D02*
X131740D01*
G01X129220Y169660D02*
X131600D01*
G01X129080Y169800D02*
X131320D01*
G01X129080Y169940D02*
X131040D01*
G01X128940Y170080D02*
X130900D01*
G01X128940Y170220D02*
X130760D01*
G01X128800Y170360D02*
X130760D01*
G01X128800Y170500D02*
X130620D01*
G01X128660Y170640D02*
X130480D01*
G01X128660Y170780D02*
X130340D01*
G01X128520Y170920D02*
X130340D01*
G01X128520Y171060D02*
X130200D01*
G01X128520Y171200D02*
X130060D01*
G01X128380Y171340D02*
X130060D01*
G01X128380Y171480D02*
X130060D01*
G01X128380Y171620D02*
X129920D01*
G01X128240Y171760D02*
X129920D01*
G01X128240Y171900D02*
X129920D01*
G01X128240Y172040D02*
X132720D01*
G01X128240Y172180D02*
X132720D01*
G01X128240Y172320D02*
X132720D01*
G01X128240Y172460D02*
X132720D01*
G01X128240Y172600D02*
X132720D01*
G01X128240Y172740D02*
X132720D01*
G01X128240Y172880D02*
X132720D01*
G01X128240Y173020D02*
X132720D01*
G01X128240Y173160D02*
X132720D01*
G01X128240Y173300D02*
X132720D01*
G01X128240Y173440D02*
X132720D01*
G01X128240Y173580D02*
X129920D01*
G01X128240Y173720D02*
X129920D01*
G01X128380Y173860D02*
X129920D01*
G01X128380Y174000D02*
X130060D01*
G01X128380Y174140D02*
X130060D01*
G01X128520Y174280D02*
X130200D01*
G01X128520Y174420D02*
X130200D01*
G01X128520Y174560D02*
X130340D01*
G01X128660Y174700D02*
X130480D01*
G01X128660Y174840D02*
X130480D01*
G01X128800Y174980D02*
X130620D01*
G01X128800Y175120D02*
X130760D01*
G01X128940Y175260D02*
X130900D01*
G01X128940Y175400D02*
X131040D01*
G01X129080Y175540D02*
X131180D01*
G01X129080Y175680D02*
X131320D01*
G01X129220Y175820D02*
X131600D01*
G01X129360Y175960D02*
X131880D01*
G01X129500Y176100D02*
X132300D01*
G01X130760Y168260D02*
X133700D01*
G01X130480Y168400D02*
X133700D01*
G01X130340Y168540D02*
X133700D01*
G01X130200Y168680D02*
X133700D01*
G01X129780Y176380D02*
X133840D01*
G01X129920Y176520D02*
X133840D01*
G01X130900Y177220D02*
X133840D01*
G01X131180Y177360D02*
X133840D01*
G01X131600Y177500D02*
X133840D01*
G01X132020Y177640D02*
X133840D01*
G01X132580Y177780D02*
X133700D01*
G01X130620Y177080D02*
X133840D01*
G01X130060Y176660D02*
X133840D01*
G01X130340Y176800D02*
X133840D01*
G01X130480Y176940D02*
X133840D01*
G01X145780Y176220D02*
X147600D01*
G01X145640Y176080D02*
X147460D01*
G01X145640Y175940D02*
X147320D01*
G01X145500Y175800D02*
X147180D01*
G01X145360Y175660D02*
X147040D01*
G01X145220Y175520D02*
X146900D01*
G01X145220Y175380D02*
X146760D01*
G01X145080Y175240D02*
X146620D01*
G01X145080Y175100D02*
X146480D01*
G01X144940Y174960D02*
X146480D01*
G01X144940Y174820D02*
X146340D01*
G01X144800Y174680D02*
X146340D01*
G01X144800Y174540D02*
X146200D01*
G01X144800Y174400D02*
X146200D01*
G01X144660Y174260D02*
X146060D01*
G01X144660Y174120D02*
X145920D01*
G01X144660Y173980D02*
X145920D01*
G01X144660Y173840D02*
X145920D01*
G01X144520Y173700D02*
X145920D01*
G01X144520Y173560D02*
X145780D01*
G01X144520Y173420D02*
X145780D01*
G01X144520Y173280D02*
X145780D01*
G01X144520Y173140D02*
X145780D01*
G01X146900Y173000D02*
X148300D01*
G01X146900Y172860D02*
X148160D01*
G01X146900Y172720D02*
X148160D01*
G01X146900Y172580D02*
X148160D01*
G01X146900Y172440D02*
X148160D01*
G01X146900Y172300D02*
X148160D01*
G01X146900Y172160D02*
X148160D01*
G01X146900Y172020D02*
X148300D01*
G01X144520Y171740D02*
X145780D01*
G01X144520Y171600D02*
X145780D01*
G01X144520Y171460D02*
X145780D01*
G01X144520Y171320D02*
X145920D01*
G01X144660Y171180D02*
X145920D01*
G01X144660Y171040D02*
X145920D01*
G01X144660Y170900D02*
X145920D01*
G01X144660Y170760D02*
X146060D01*
G01X144800Y170620D02*
X146200D01*
G01X144800Y170480D02*
X146200D01*
G01X144800Y170340D02*
X146200D01*
G01X144940Y170200D02*
X146340D01*
G01X144940Y170060D02*
X146480D01*
G01X145080Y169920D02*
X146480D01*
G01X145080Y169780D02*
X146620D01*
G01X145220Y169640D02*
X146760D01*
G01X145220Y169500D02*
X146900D01*
G01X145360Y169360D02*
X147040D01*
G01X145500Y169220D02*
X147180D01*
G01X145640Y169080D02*
X147320D01*
G01X145640Y168940D02*
X147460D01*
G01X145780Y168800D02*
X147600D01*
G01X145920Y168660D02*
X147880D01*
G01X146060Y168520D02*
X148020D01*
G01X146200Y168380D02*
X148300D01*
G01X146340Y168240D02*
X148720D01*
G01X146480Y168100D02*
X149000D01*
G01X146620Y167960D02*
X149840D01*
G01X146900Y167820D02*
X153760D01*
G01X145920Y176360D02*
X147880D01*
G01X148300Y175240D02*
X152220D01*
G01X148160Y175100D02*
X152360D01*
G01X148020Y174960D02*
X152500D01*
G01X147880Y174820D02*
X152640D01*
G01X147740Y174680D02*
X152780D01*
G01X147600Y174540D02*
X149840D01*
G01X147460Y174400D02*
X149280D01*
G01X147460Y174260D02*
X149140D01*
G01X147320Y174120D02*
X149000D01*
G01X147320Y173980D02*
X148860D01*
G01X147180Y173840D02*
X148720D01*
G01X147180Y173700D02*
X148580D01*
G01X147040Y173560D02*
X148440D01*
G01X147040Y173420D02*
X148440D01*
G01X147040Y173280D02*
X148300D01*
G01X147040Y173140D02*
X148300D01*
G01X147040Y171880D02*
X148300D01*
G01X147040Y171740D02*
X148300D01*
G01X147040Y171600D02*
X148300D01*
G01X147040Y171460D02*
X148440D01*
G01X147180Y171320D02*
X148580D01*
G01X147180Y171180D02*
X148580D01*
G01X147180Y171040D02*
X148720D01*
G01X147320Y170900D02*
X149000D01*
G01X147320Y170760D02*
X149140D01*
G01X147460Y170620D02*
X149420D01*
G01X147600Y170480D02*
X149700D01*
G01X147600Y170340D02*
X152780D01*
G01X147880Y170200D02*
X152640D01*
G01X148020Y170060D02*
X152640D01*
G01X148160Y169920D02*
X152360D01*
G01X148300Y169780D02*
X152220D01*
G01X147040Y167680D02*
X153480D01*
G01X147320Y167540D02*
X153200D01*
G01X149840Y175800D02*
X150680D01*
G01X149140Y175660D02*
X151380D01*
G01X148860Y175520D02*
X151660D01*
G01X148580Y175380D02*
X151940D01*
G01X148580Y169640D02*
X152080D01*
G01X148720Y169500D02*
X151660D01*
G01X149000Y169360D02*
X151380D01*
G01X149700Y169220D02*
X150820D01*
G01X147460Y167400D02*
X153060D01*
G01X147740Y167260D02*
X152780D01*
G01X148020Y167120D02*
X152500D01*
G01X148440Y166980D02*
X152080D01*
G01X149000Y166840D02*
X151520D01*
G01X149560Y166700D02*
X150960D01*
G01X141160Y176220D02*
X142280D01*
G01X141160Y176080D02*
X142280D01*
G01X141160Y175940D02*
X142280D01*
G01X141160Y175800D02*
X142280D01*
G01X141160Y175660D02*
X142280D01*
G01X141160Y175520D02*
X142280D01*
G01X141160Y175380D02*
X142280D01*
G01X141160Y175240D02*
X142280D01*
G01X141160Y175100D02*
X142280D01*
G01X141160Y174960D02*
X142280D01*
G01X141160Y174820D02*
X142280D01*
G01X141160Y174680D02*
X142280D01*
G01X141160Y174540D02*
X142280D01*
G01X141160Y174400D02*
X142280D01*
G01X141160Y174260D02*
X142280D01*
G01X141160Y174120D02*
X142280D01*
G01X141160Y173980D02*
X142280D01*
G01X141160Y173840D02*
X142280D01*
G01X141160Y173700D02*
X142280D01*
G01X141160Y173560D02*
X142280D01*
G01X141160Y173420D02*
X142280D01*
G01X141160Y173280D02*
X142280D01*
G01X141160Y173140D02*
X142280D01*
G01X141160Y173000D02*
X145780D01*
G01X141160Y172860D02*
X145780D01*
G01X141160Y172720D02*
X145640D01*
G01X141160Y172580D02*
X145640D01*
G01X141160Y172440D02*
X145640D01*
G01X141160Y172300D02*
X145640D01*
G01X141160Y172160D02*
X145780D01*
G01X141160Y172020D02*
X145780D01*
G01X141160Y171880D02*
X145780D01*
G01X141160Y171740D02*
X142280D01*
G01X141160Y171600D02*
X142280D01*
G01X141160Y171460D02*
X142280D01*
G01X141160Y171320D02*
X142280D01*
G01X141160Y171180D02*
X142280D01*
G01X141160Y171040D02*
X142280D01*
G01X141160Y170900D02*
X142280D01*
G01X141160Y170760D02*
X142280D01*
G01X141160Y170620D02*
X142280D01*
G01X141160Y170480D02*
X142280D01*
G01X141160Y170340D02*
X142280D01*
G01X141160Y170200D02*
X142280D01*
G01X141160Y170060D02*
X142280D01*
G01X141160Y169920D02*
X142280D01*
G01X141160Y169780D02*
X142280D01*
G01X141160Y169640D02*
X142280D01*
G01X141160Y169500D02*
X142280D01*
G01X141160Y169360D02*
X142280D01*
G01X141160Y169220D02*
X142280D01*
G01X141160Y169080D02*
X142280D01*
G01X141160Y168940D02*
X142280D01*
G01X141160Y168800D02*
X142280D01*
G01X141160Y168660D02*
X142280D01*
G01X141160Y168520D02*
X142280D01*
G01X141160Y168380D02*
X142280D01*
G01X141160Y168240D02*
X142280D01*
G01X141160Y168100D02*
X142280D01*
G01X141160Y167960D02*
X142280D01*
G01X141160Y167820D02*
X142280D01*
G01X141160Y167680D02*
X142280D01*
G01X141160Y167540D02*
X142000D01*
G01X141160Y176360D02*
X142280D01*
G01X141160Y167400D02*
X141860D01*
G01X141160Y167260D02*
X141720D01*
G01X141160Y167120D02*
X141440D01*
G01X141160Y166980D02*
X141300D01*
G01X146060Y176500D02*
X148160D01*
G01X141160D02*
X142280D01*
G01X150680Y174540D02*
X152920D01*
G01X150820Y170480D02*
X152920D01*
G01X150680Y167960D02*
X153900D01*
G01X146200Y176640D02*
X148440D01*
G01X146900Y177200D02*
X153620D01*
G01X146620Y177060D02*
X153900D01*
G01X146480Y176920D02*
X149140D01*
G01X146340Y176780D02*
X148720D01*
G01X148160Y177900D02*
X152360D01*
G01X147740Y177760D02*
X152780D01*
G01X147460Y177620D02*
X153060D01*
G01X147180Y177480D02*
X153200D01*
G01X147040Y177340D02*
X153340D01*
G01X149140Y178320D02*
X151380D01*
G01X149140Y178180D02*
X151380D01*
G01X148580Y178040D02*
X151940D01*
G01X141160Y176640D02*
X142280D01*
G01X141160Y178040D02*
X145920D01*
G01X141160Y177900D02*
X145780D01*
G01X141160Y177760D02*
X145640D01*
G01X141160Y177620D02*
X145640D01*
G01X141160Y177480D02*
X145500D01*
G01X141160Y177340D02*
X145360D01*
G01X141160Y177200D02*
X145220D01*
G01X141160Y177060D02*
X145080D01*
G01X141160Y176920D02*
X144940D01*
G01X141160Y176780D02*
X142280D01*
G01X152920Y176220D02*
X154740D01*
G01X153060Y176080D02*
X154880D01*
G01X153200Y175940D02*
X154880D01*
G01X153340Y175800D02*
X154880D01*
G01X153480Y175660D02*
X154740D01*
G01X153620Y175520D02*
X154460D01*
G01X153760Y175380D02*
X154320D01*
G01X153900Y175240D02*
X154040D01*
G01X151100Y174400D02*
X152920D01*
G01X151380Y174260D02*
X152780D01*
G01X151520Y174120D02*
X152640D01*
G01X151660Y173980D02*
X152360D01*
G01X151800Y173840D02*
X152220D01*
G01X151940Y171180D02*
X152080D01*
G01X151660Y171040D02*
X152360D01*
G01X151520Y170900D02*
X152500D01*
G01X151380Y170760D02*
X152780D01*
G01X151100Y170620D02*
X152920D01*
G01X153900Y169780D02*
X154040D01*
G01X153760Y169640D02*
X154320D01*
G01X153620Y169500D02*
X154460D01*
G01X153620Y169360D02*
X154600D01*
G01X153340Y169220D02*
X154880D01*
G01X153200Y169080D02*
X155020D01*
G01X153060Y168940D02*
X154740D01*
G01X152920Y168800D02*
X154740D01*
G01X152640Y168660D02*
X154600D01*
G01X152360Y168520D02*
X154460D01*
G01X152080Y168380D02*
X154320D01*
G01X151800Y168240D02*
X154180D01*
G01X151380Y168100D02*
X154040D01*
G01X152640Y176360D02*
X154600D01*
G01X152360Y176500D02*
X154460D01*
G01X152080Y176640D02*
X154320D01*
G01X151380Y176920D02*
X154040D01*
G01X151800Y176780D02*
X154180D01*
G54D15*
G01X-64127Y4470D02*
Y45415D01*
X-23812D01*
Y4470D01*
X-64127D01*
G01X-42135Y140818D02*
Y136882D01*
G01X-40167Y138850D02*
X-44104D01*
G01X-35500Y46000D02*
Y47700D01*
G01X-34100Y46800D02*
X-36900D01*
G01X-18346Y5866D02*
Y14134D01*
X-11654D01*
Y5866D01*
X-18346D01*
G01Y29866D02*
Y38134D01*
X-11654D01*
Y29866D01*
X-18346D01*
G01X-17406Y44854D02*
Y42689D01*
X-16421D01*
G01X-17406Y64146D02*
Y66311D01*
X-16421D01*
G01X-19827Y156309D02*
X-15890D01*
X-17858Y158277D01*
X-19827Y156309D01*
G01X-20530Y169909D02*
Y158491D01*
X-24270D01*
Y169909D01*
X-20530D01*
G01X-5594Y44854D02*
Y43476D01*
X-6382Y42689D01*
X-6579D01*
G01X-5594Y64146D02*
Y66311D01*
X-6579D01*
G01X-7284Y136299D02*
X16535D01*
Y73701D01*
X-7087D01*
G01X11512Y11276D02*
Y20724D01*
X488D01*
Y11276D01*
X11512D01*
G01X11762Y25276D02*
Y34724D01*
X738D01*
Y25276D01*
X11762D01*
G01Y36026D02*
Y45474D01*
X738D01*
Y36026D01*
X11762D01*
G01Y55026D02*
Y64474D01*
X738D01*
Y55026D01*
X11762D01*
G01X17717Y71046D02*
X72835D01*
Y15928D01*
X17717D01*
Y71046D01*
G01X15355Y63763D02*
Y61401D01*
X16536Y62582D01*
X15355Y63763D01*
G01X18942Y78912D02*
Y74975D01*
X20910Y76943D01*
X18942Y78912D01*
G01X21807Y85512D02*
X35193D01*
Y74488D01*
X21807D01*
Y85512D01*
G01X27978Y132121D02*
Y128578D01*
X31521D01*
G01X23900Y172000D02*
Y168800D01*
X25500Y170400D01*
X23900Y172000D01*
G01X27978Y172279D02*
Y172987D01*
X30813Y175822D01*
X31521D01*
G01X49393Y114288D02*
X36007D01*
Y125312D01*
X49393D01*
Y114288D01*
G01X54264Y108845D02*
Y112782D01*
X52295Y110813D01*
X54264Y108845D01*
G01X52100Y124300D02*
Y127100D01*
X50190Y125657D01*
X52000Y124300D01*
G01X73488Y25724D02*
Y16276D01*
X84512D01*
Y25724D01*
X73488D01*
G01Y36224D02*
Y26776D01*
X84512D01*
Y36224D01*
X73488D01*
G01X75222Y132121D02*
Y128578D01*
X71679D01*
G01X75222Y172279D02*
Y175822D01*
X71679D01*
G01X85152Y84200D02*
X89089D01*
X87120Y86168D01*
X85152Y84200D01*
G01X83670Y97909D02*
Y86491D01*
X79930D01*
Y97909D01*
X83670D01*
G01X95612Y122193D02*
Y108807D01*
X84588D01*
Y122193D01*
X95612D01*
G01X81842Y120912D02*
Y116975D01*
X83810Y118943D01*
X81842Y120912D01*
G01X96512Y142493D02*
Y129107D01*
X85488D01*
Y142493D01*
X96512D01*
G01X87212Y145358D02*
X83275D01*
X85243Y143390D01*
X87212Y145358D01*
G01X90798Y178605D02*
X86861D01*
X88830Y176637D01*
X90798Y178605D01*
G01X93858Y153388D02*
Y157325D01*
X91890Y155357D01*
X93858Y153388D01*
G01X118893Y165551D02*
Y75000D01*
X209445D01*
Y165551D01*
X118893D01*
G01X181700Y25200D02*
Y22600D01*
X183100Y23900D01*
X181700Y25200D01*
G01X192094Y41366D02*
Y39594D01*
X193866D01*
G01X192094Y49634D02*
Y51405D01*
X193866D01*
G01X208500Y41400D02*
Y43500D01*
X206961Y42547D01*
X208500Y41400D01*
G01X203906Y40972D02*
Y40382D01*
X203118Y39594D01*
X202528D01*
G01X203906Y49634D02*
Y51405D01*
X202134D01*
G01X214000Y14500D02*
Y12400D01*
X215539Y13353D01*
X214000Y14500D01*
G01X214376Y36301D02*
Y36104D01*
X223824D01*
Y36301D01*
G01X214376Y41616D02*
Y43387D01*
G01Y48899D02*
Y49293D01*
X223824D01*
Y49096D01*
G01X226639Y33279D02*
Y36822D01*
X224868Y35050D01*
X226639Y33279D01*
G01X223824Y42600D02*
Y43781D01*
G01X246038Y90825D02*
X250762D01*
G01X242101Y93581D02*
Y91219D01*
G01X240920Y92400D02*
X243282D01*
G01X246038Y93975D02*
X250762D01*
G01X246038Y94825D02*
X250762D01*
G01X246038Y97975D02*
X250762D01*
G01X243301Y95681D02*
Y93319D01*
G01X242120Y94500D02*
X244482D01*
G01X256400Y80620D02*
Y82982D01*
G01X254825Y85738D02*
Y90462D01*
G01X255219Y81801D02*
X257581D01*
G01X257975Y85738D02*
Y90462D01*
G54D16*
G01X-18346Y18850D02*
X-18543D01*
Y20228D01*
G01X-18346Y25150D02*
X-18543D01*
Y23772D01*
G01X-11654Y18850D02*
X-11457D01*
Y20228D01*
G01X-11654Y25150D02*
X-11457D01*
Y23772D01*
G54D17*
G01X21654Y19865D02*
Y67109D01*
X68898D01*
Y19865D01*
X21654D01*
G01X25591Y67109D02*
X21654Y63172D01*
G01X24804Y67109D02*
X21654Y63960D01*
G01X24016Y67109D02*
X21654Y64747D01*
G01X23229Y67109D02*
X21654Y65535D01*
G01X22442Y67109D02*
X21654Y66322D01*
G01X230620Y114342D02*
X276683D01*
G01X230620Y108437D02*
X276683D01*
Y160406D01*
X230620D01*
Y108437D01*
G01X276683Y154500D02*
X230620D01*
M02*
