G04 ================== begin FILE IDENTIFICATION RECORD ==================*
G04 Layout Name:  C:/Users/a0321898/Documents/GitHub/beaglebone-ai/HW/BeagleBone-AI.brd*
G04 Film Name:    TOP*
G04 File Format:  Gerber RS274X*
G04 File Origin:  Cadence Allegro 17.2-S049*
G04 Origin Date:  Wed Feb 19 11:28:08 2020*
G04 *
G04 Layer:  VIA CLASS/TOP*
G04 Layer:  PIN/TOP*
G04 Layer:  ETCH/TOP*
G04 Layer:  BOARD GEOMETRY/OUTLINE*
G04 *
G04 Offset:    (0.000 0.000)*
G04 Mirror:    No*
G04 Mode:      Positive*
G04 Rotation:  0*
G04 FullContactRelief:  No*
G04 UndefLineWidth:     5.000*
G04 ================== end FILE IDENTIFICATION RECORD ====================*
%FSLAX25Y25*MOIN*%
%IR0*IPPOS*OFA0.00000B0.00000*MIA0B0*SFA1.00000B1.00000*%
%ADD73O,.135X.08*%
%ADD52O,.032X.008*%
%ADD51O,.008X.032*%
%ADD27C,.126*%
%ADD53R,.132X.132*%
%ADD37C,.175*%
%ADD39R,.05315X.141732*%
%ADD31C,.007874*%
%ADD38O,.007874X.029528*%
%ADD35O,.029528X.007874*%
%ADD66O,.04X.02*%
%ADD40O,.032X.01*%
%ADD32O,.027559X.007874*%
%ADD64O,.01X.032*%
%ADD63O,.02X.04*%
%ADD33O,.007874X.019685*%
%ADD25R,.022X.02*%
%ADD24R,.02X.022*%
%ADD70O,.01X.028*%
%ADD47R,.02X.024*%
%ADD28R,.05X.04*%
%ADD17R,.02X.016*%
%ADD59R,.04X.025*%
%ADD11R,.035X.03*%
%ADD55R,.03X.035*%
%ADD18R,.032X.016*%
%ADD62R,.04X.036*%
%ADD76C,.01*%
%ADD34C,.03*%
%ADD14C,.04*%
%ADD13R,.04X.059*%
%ADD65C,.015*%
%ADD44R,.087X.042*%
%ADD12C,.016*%
%ADD46C,.062*%
%ADD19C,.071*%
%ADD42C,.063*%
%ADD57R,.034X.079*%
%ADD74C,.065*%
%ADD30R,.04X.04*%
%ADD15R,.032X.032*%
%AMMACRO56*
21,1,.052,.052,0.0,0.0,45.*%
%ADD56MACRO56*%
%ADD36C,.095*%
%ADD45R,.062X.062*%
%ADD22C,.023622*%
%ADD16R,.035X.035*%
%ADD43R,.063X.063*%
%ADD78O,.09252X.051181*%
%ADD68O,.011811X.031496*%
%ADD58R,.059X.098*%
%ADD29R,.037402X.023622*%
%ADD69O,.031496X.011811*%
%ADD77R,.018504X.021654*%
%ADD20C,.03937*%
%ADD75R,.021654X.018504*%
%ADD48C,.015748*%
%ADD23R,.027559X.011811*%
%ADD71R,.055118X.047244*%
%ADD72R,.055118X.03937*%
%ADD61R,.03937X.047244*%
%ADD49R,.047244X.03937*%
%ADD60R,.043307X.027559*%
%ADD10O,.070866X.03937*%
%ADD21O,.062992X.03937*%
%ADD41R,.033465X.07874*%
%ADD54R,.019685X.044291*%
%ADD50R,.044291X.019685*%
%ADD67R,.066929X.066929*%
%ADD26R,.1X.04*%
%ADD79C,.004*%
%ADD80C,.005*%
%ADD81C,.003201*%
%ADD82C,.006*%
%ADD83C,.007*%
%ADD84C,.0043*%
%ADD85C,.008*%
%ADD86C,.0045*%
%ADD87C,.00472*%
%ADD88C,.003937*%
%ADD89C,.02*%
%ADD90C,.012*%
%ADD91C,.026004*%
%ADD93C,.025752*%
%ADD92C,.053626*%
G75*
%LPD*%
G75*
G36*
G01X-53600Y47800D02*
Y51700D01*
X-53400Y51900D01*
X-44100D01*
X-43600Y51400D01*
Y48000D01*
X-44300Y47300D01*
X-53100D01*
X-53600Y47800D01*
G37*
G36*
G01X-54200Y53100D02*
X-54700Y53600D01*
Y62600D01*
X-54000Y63300D01*
X-42100D01*
X-41750Y62950D01*
Y61400D01*
X-42250Y60900D01*
X-48514D01*
X-48600Y60900D01*
X-49300Y60200D01*
Y53600D01*
X-49800Y53100D01*
X-54200D01*
G37*
G36*
G01X-55500Y71000D02*
X-54900Y71600D01*
X-50000D01*
X-49700Y71300D01*
Y65600D01*
X-50100Y65200D01*
X-55100D01*
X-55500Y65600D01*
Y71000D01*
G37*
G36*
G01X-47750Y53200D02*
X-48250Y53700D01*
Y59750D01*
X-48100Y59900D01*
X-38850D01*
X-38325Y59375D01*
Y56325D01*
X-38300Y56300D01*
Y56200D01*
X-38200D01*
X-38100Y56100D01*
X-34700D01*
X-34500Y56300D01*
Y58200D01*
X-34000Y58700D01*
X-23300D01*
X-22500Y57900D01*
Y53600D01*
X-22900Y53200D01*
X-47750D01*
G37*
G36*
G01X-4336Y158894D02*
G03X-6514Y160125I-1264J306D01*
G01X-7525D01*
X-7600Y160200D01*
Y177200D01*
X-6300Y178500D01*
X28100D01*
X30700Y175900D01*
Y170900D01*
X29400Y169600D01*
X27600D01*
X26900Y170300D01*
X4700D01*
X4000Y169600D01*
Y163100D01*
X4500Y162600D01*
X22400D01*
X23400Y163600D01*
X26500D01*
X26800Y163300D01*
Y162400D01*
X22800Y158400D01*
X-3948D01*
G02X-4336Y158894I0J400D01*
G37*
G36*
G01X-663Y12063D02*
X-1050Y12450D01*
Y23200D01*
X0Y24250D01*
X3600D01*
X4425Y23425D01*
Y12063D01*
X-663D01*
G37*
G36*
G01X9200Y21662D02*
G03X11106Y23423I900J938D01*
G02Y23677I155J127D01*
G03X11389Y24327I-1006J823D01*
G01X11412Y24500D01*
X21379D01*
G03X21421I21J1300D01*
G01X24708D01*
X24921Y24287D01*
X24935Y24233D01*
G03X27620Y23770I1444J357D01*
G02X28287I334J-220D01*
G03X30770I1241J820D01*
G02X31437I334J-220D01*
G03X33919I1241J820D01*
G02X34586I334J-220D01*
G03X36985Y25524I1241J820D01*
G01Y26805D01*
G03X37299Y27519I-1157J934D01*
G01X37309Y27585D01*
X38364Y28640D01*
X39782D01*
X40638Y27785D01*
X40640Y27705D01*
G03X40693Y27344I1487J35D01*
G01X40700Y27318D01*
Y25344D01*
X40677Y25320D01*
Y24922D01*
X40672Y24901D01*
G03X40693Y24194I1455J-311D01*
G01X40700Y24168D01*
Y12900D01*
X37500Y9700D01*
X7200D01*
X6800Y10100D01*
Y11400D01*
X7500Y12100D01*
Y20700D01*
X8110Y21310D01*
X8202Y21304D01*
G03X9200Y21662I98J1297D01*
G37*
G36*
G01X-1050Y44100D02*
X-400Y44750D01*
X4500D01*
Y26500D01*
X-400D01*
X-1050Y27150D01*
Y44100D01*
G37*
G36*
G01X7750Y26000D02*
Y33850D01*
X7800Y33900D01*
X12850D01*
X19931Y40981D01*
X20073Y40839D01*
X20073Y40838D01*
G03X21652Y40625I927J912D01*
G02X22240Y40378I201J-346D01*
G03X24795Y40815I1260J322D01*
G02X25194Y41250I398J35D01*
G01X32950D01*
X33500Y40700D01*
Y39849D01*
X33361Y39710D01*
G03X33037Y39170I919J-919D01*
G01X33023Y39123D01*
X32574Y38674D01*
X32505Y38666D01*
G03X31690Y38300I173J-1477D01*
G01X30517D01*
G03X28540I-988J-1112D01*
G01X27367D01*
G03X25130Y37997I-988J-1112D01*
G01X25119Y37979D01*
X24408Y37268D01*
X22480D01*
X22435Y37406D01*
G03X19959Y36611I-1235J-406D01*
G01X19996Y36496D01*
X19750Y36250D01*
Y27450D01*
X18300Y26000D01*
X7750D01*
G37*
G36*
G01X32611Y45149D02*
X33232Y44529D01*
X33246Y44501D01*
G03X33480Y44181I1154J599D01*
G01Y42979D01*
X33361Y42860D01*
G03X33058Y42382I919J-919D01*
G01X33010Y42250D01*
X22206D01*
X22150Y42357D01*
G03X19850I-1150J-607D01*
G01X19794Y42250D01*
X19250D01*
X14750Y37750D01*
X7750D01*
Y45800D01*
X8450Y46500D01*
X24011D01*
X24968Y45542D01*
X25371D01*
G03X27386I1008J1094D01*
G01X28521D01*
G03X30536I1008J1094D01*
G01X31670D01*
G03X32539Y45156I1007J1095D01*
G01X32611Y45149D01*
G37*
G36*
G01X7911Y47800D02*
X7847Y47736D01*
X7600Y47838D01*
Y53200D01*
X7900Y53500D01*
X11150D01*
X11750Y52900D01*
Y47800D01*
X7911D01*
G37*
G36*
G01X4350Y47000D02*
X-700D01*
X-1000Y47300D01*
Y63150D01*
X-400Y63750D01*
X4750D01*
Y47400D01*
X4350Y47000D01*
G37*
G36*
G01X29691Y52000D02*
X29366D01*
X29007Y52359D01*
G03X27981Y52784I-1026J-1025D01*
G01X27325D01*
X26541Y52000D01*
X16750D01*
X13000Y55750D01*
X7750D01*
Y63750D01*
X12800D01*
G02X13200Y63362I0J-400D01*
G03X15800I1300J38D01*
G02X16200Y63750I400J-12D01*
G01X19750D01*
X24737Y58763D01*
Y56237D01*
X24889Y56085D01*
X24893Y56009D01*
G03X27493Y55100I1486J77D01*
G01X28414D01*
G03X30642I1114J986D01*
G01X31564D01*
G03X33026Y54639I1114J986D01*
G01X33135Y54666D01*
X33600Y54200D01*
Y52284D01*
X33317Y52000D01*
X32515D01*
X32156Y52359D01*
G03X31131Y52784I-1025J-1025D01*
G01X30474D01*
X29691Y52000D01*
G37*
G36*
G01X8250Y65050D02*
X8000Y65300D01*
Y68100D01*
X8950Y69050D01*
X11550D01*
X12250Y68350D01*
Y65050D01*
X8250D01*
G37*
G36*
G01X37500Y170900D02*
X69900D01*
X70400Y170400D01*
Y143026D01*
G02X69824Y142667I-400J0D01*
G03Y140333I-574J-1167D01*
G02X70400Y139974I176J-359D01*
G01Y134700D01*
X69500Y133800D01*
X59425D01*
Y134083D01*
X59475Y134140D01*
G03X57525I-975J860D01*
G01X57575Y134083D01*
Y133800D01*
X55925D01*
Y134083D01*
X55975Y134140D01*
G03X54025I-975J860D01*
G01X54075Y134083D01*
Y133800D01*
X45425D01*
Y134083D01*
X45475Y134140D01*
G03X43525I-975J860D01*
G01X43575Y134083D01*
Y133800D01*
X41925D01*
Y134083D01*
X41975Y134140D01*
G03X40025I-975J860D01*
G01X40075Y134083D01*
Y133800D01*
X33900D01*
X32800Y134900D01*
Y147141D01*
G02X33329Y147520I400J0D01*
G03Y149980I421J1230D01*
G02X32800Y150359I-129J378D01*
G01Y166200D01*
X37500Y170900D01*
G37*
G36*
G01X46500Y1300D02*
X44600Y3200D01*
Y8700D01*
X48500Y12600D01*
Y14935D01*
X48500Y14936D01*
Y28500D01*
X52126D01*
X52577Y28049D01*
X52730D01*
Y16648D01*
X52750Y16628D01*
Y9950D01*
X55100Y7600D01*
Y2200D01*
X54200Y1300D01*
X53347D01*
G02X53062Y1981I0J400D01*
G03X46938I-3062J3019D01*
G02X46653Y1300I-285J-281D01*
G01X46500D01*
G37*
G36*
G01X70900Y14900D02*
X77200D01*
X77500Y14600D01*
Y11800D01*
X76700Y11000D01*
X54400D01*
X54000Y11400D01*
Y14700D01*
X54200Y14900D01*
X56609D01*
G02X56984Y14359I0J-400D01*
G03X59416I1216J-459D01*
G02X59791Y14900I374J141D01*
G01X62500D01*
X65700Y18100D01*
X67700D01*
X70900Y14900D01*
G37*
G36*
G01X65916Y20500D02*
X65800D01*
X61800Y16500D01*
X59691D01*
G02X59316Y17041I0J400D01*
G03X59038Y18400I-1217J459D01*
G03X57162I-938J900D01*
G03X56884Y17041I938J-900D01*
G02X56509Y16500I-374J-141D01*
G01X54292D01*
X53730Y17063D01*
Y22002D01*
G03X53972Y24032I-677J1110D01*
G01X53730Y24274D01*
Y24905D01*
X53953Y25128D01*
G03X54334Y26048I-919J919D01*
G01Y26282D01*
G03X53953Y27201I-1300J0D01*
G01X53730Y27424D01*
Y28055D01*
X54236Y28561D01*
X55296D01*
G03X55865Y28135I1034J788D01*
G01X55905Y28120D01*
X56077Y27948D01*
G02X55921Y27286I-283J-283D01*
G03X56139Y24767I412J-1233D01*
G01X56209Y24756D01*
X56387Y24563D01*
G03X57825Y23103I1487J27D01*
G02X58209Y22655I-13J-400D01*
G03X60790Y22660I1291J-155D01*
G02X61153Y23108I397J49D01*
G03X62265Y23770I-128J1482D01*
G02X62933I334J-220D01*
G03X64257Y23104I1241J820D01*
G03X64855Y23267I-83J1485D01*
G01X64898Y23290D01*
X66420D01*
X66441Y23288D01*
G03X67874Y24548I134J1293D01*
G02X68274Y24937I400J-10D01*
G01X77425D01*
Y17100D01*
X77413Y17087D01*
Y16713D01*
X77200Y16500D01*
X71300D01*
X68021Y19779D01*
X68007Y19831D01*
G03X65970Y20540I-1257J-331D01*
G01X65916Y20500D01*
G37*
G36*
G01X44950Y14950D02*
X44300Y15600D01*
X44250D01*
Y23750D01*
X44000Y24000D01*
X44392Y24392D01*
Y24934D01*
X44669Y25211D01*
G03Y27262I-1025J1025D01*
G01X44392Y27539D01*
Y27954D01*
X44469Y28031D01*
G03X44753Y28433I-1025J1026D01*
G01X44768Y28464D01*
X45102Y28798D01*
X46874D01*
X47152Y28520D01*
X47089Y28392D01*
G03X47500Y26575I1337J-653D01*
G01Y25771D01*
X46976Y25246D01*
Y24922D01*
X46971Y24901D01*
G03X47500Y23426I1455J-311D01*
G01Y15950D01*
X47500Y15350D01*
X47100Y14950D01*
X44950D01*
G37*
G36*
G01X57572Y35924D02*
Y36180D01*
X57000Y36752D01*
Y38511D01*
G02X57501Y38898I400J0D01*
G03X58941Y39300I374J1440D01*
G01X59959D01*
G03X62090I1066J1038D01*
G01X63108D01*
G03X65240I1066J1038D01*
G01X67998D01*
X68033Y39287D01*
G03X68967I467J1213D01*
G01X69002Y39300D01*
X75600D01*
X77425Y37475D01*
Y27563D01*
X73613D01*
G02X73234Y28089I0J400D01*
G03X70868Y27861I-1234J411D01*
G01X70894Y27815D01*
Y27563D01*
X70537D01*
X67300Y30800D01*
Y32068D01*
X67319Y32108D01*
G03X66674Y33845I-1178J550D01*
G01X66640Y33860D01*
X65200Y35300D01*
X64964D01*
X64918Y35327D01*
G03X63385Y35300I-744J-1288D01*
G01X61813D01*
G03X60236I-789J-1261D01*
G01X58663D01*
G03X57952Y35524I-789J-1261D01*
G02X57572Y35924I21J399D01*
G37*
G36*
G01X58866Y44597D02*
G03X58666Y44747I-991J-1109D01*
G01X57324Y46089D01*
G03X56921Y46373I-1026J-1025D01*
G01Y46961D01*
X57661Y47700D01*
X70965D01*
X71216Y47951D01*
X71349Y47874D01*
G03X73126Y49651I651J1126D01*
G01X73049Y49784D01*
X73465Y50200D01*
X79365D01*
Y40400D01*
X69810D01*
X69797Y40587D01*
G03X68402Y41796I-1297J-87D01*
G01X68311Y41790D01*
X65503Y44597D01*
X65168D01*
X65112Y44642D01*
G03X63863Y44942I-938J-1154D01*
G01X63842Y44938D01*
X63517D01*
X63177Y44597D01*
X62015D01*
G03X60713Y44942I-991J-1110D01*
G01X60692Y44938D01*
X60368D01*
X60027Y44597D01*
X58866D01*
G37*
G36*
G01X71408Y50158D02*
X71382Y50144D01*
G03X70856Y49618I618J-1144D01*
G01X70842Y49592D01*
X69950Y48700D01*
X57572D01*
Y48778D01*
X57040Y49311D01*
Y50231D01*
X58326Y51518D01*
X58369Y51533D01*
G03X59034Y52004I-495J1403D01*
G01X59850D01*
X59943Y51911D01*
G03X60014Y51845I1025J1026D01*
G03X62184Y52004I1011J1092D01*
G01X62999D01*
X63093Y51911D01*
G03X63163Y51845I1025J1026D01*
G03X64485Y51482I1011J1092D01*
G01X64506Y51486D01*
X64831D01*
X66802Y53458D01*
G03X67094Y53877I-1025J1026D01*
G01X67109Y53909D01*
X68361Y55161D01*
X68969D01*
X71950Y58142D01*
Y58750D01*
X72419Y59219D01*
Y65776D01*
X73643Y67000D01*
X76979D01*
G03X77021I21J1300D01*
G01X79365D01*
Y57200D01*
X78450D01*
X71408Y50158D01*
G37*
G36*
G01X86500Y40400D02*
X84700Y42200D01*
Y49400D01*
X82900Y51200D01*
X80365D01*
X79100Y51200D01*
X78700Y51600D01*
Y55700D01*
X79200Y56200D01*
X80365D01*
Y56400D01*
X81500D01*
X82600Y57500D01*
Y65700D01*
X82800D01*
X84100Y67000D01*
X93933D01*
Y57259D01*
G02X93349Y56904I-400J0D01*
G03X91781Y54883I-599J-1154D01*
G02Y54617I-149J-133D01*
G03X91831Y52831I969J-867D01*
G01X92861Y51800D01*
X93933D01*
Y40400D01*
X86500D01*
G37*
G36*
G01X91500Y37600D02*
X94500D01*
X96200Y35900D01*
Y17900D01*
X96100Y17800D01*
X91600D01*
X90900Y18500D01*
Y37000D01*
X91500Y37600D01*
G37*
G36*
G01X83000Y11400D02*
X80500D01*
X79600Y12300D01*
Y16700D01*
X80000Y17100D01*
Y25000D01*
X80400Y25400D01*
X83800D01*
X83920Y25280D01*
Y12320D01*
X83000Y11400D01*
G37*
G36*
G01X80512Y27500D02*
X79700D01*
Y34650D01*
X80487Y35437D01*
X88950D01*
X89500Y34887D01*
Y18050D01*
X85500D01*
Y26563D01*
X84500Y27563D01*
X80575D01*
X80512Y27500D01*
G37*
G36*
G01X125500Y64300D02*
X117500D01*
X116300Y63100D01*
Y55300D01*
X117600Y54000D01*
X122700D01*
X123500Y53200D01*
Y49400D01*
X122160Y48060D01*
X118591D01*
X118531Y48000D01*
X111500D01*
X110000Y49500D01*
Y51891D01*
X110007Y51916D01*
G03Y52584I-1257J333D01*
G01X110000Y52609D01*
Y55391D01*
X110007Y55416D01*
G03Y56084I-1257J333D01*
G01X110000Y56109D01*
Y58891D01*
X110007Y58916D01*
G03Y59584I-1257J334D01*
G01X110000Y59609D01*
Y62391D01*
X110007Y62416D01*
G03Y63084I-1257J334D01*
G01X110000Y63109D01*
Y71800D01*
X109100Y72700D01*
X99800D01*
X98100Y71000D01*
Y67300D01*
X97700Y66900D01*
X95900D01*
X95233Y67567D01*
Y68300D01*
X83561D01*
X83481Y68219D01*
X83000Y68700D01*
Y72500D01*
X84400Y73900D01*
X89500D01*
X91500Y75900D01*
X102900D01*
X104300Y77300D01*
Y93500D01*
X111500Y100700D01*
X112800D01*
X117200Y105100D01*
X120550D01*
G03X121034Y104748I1099J1002D01*
G01X121067Y104733D01*
X121800Y104000D01*
Y102000D01*
X121400Y101600D01*
X120700D01*
X119200Y100100D01*
X115600D01*
X113900Y98400D01*
Y84700D01*
X115200Y83400D01*
X116600D01*
X118500Y81500D01*
Y78600D01*
X119300Y77800D01*
X121300D01*
X121800Y77300D01*
Y74400D01*
X122300Y73900D01*
X133400D01*
X134100Y73200D01*
Y71400D01*
X133400Y70700D01*
X128300D01*
X126800Y69200D01*
Y65600D01*
X125500Y64300D01*
G37*
G36*
G01X96400Y14400D02*
Y16600D01*
X97200D01*
Y17100D01*
X97200Y24400D01*
X97200Y27850D01*
X97200Y35150D01*
X97200Y42100D01*
X95400D01*
Y44100D01*
X100100D01*
Y55900D01*
X95400D01*
Y57900D01*
X100100D01*
Y65600D01*
X102100D01*
Y14400D01*
X96400D01*
G37*
G36*
G01X118200Y159100D02*
X117600Y159700D01*
Y164100D01*
X118100Y164600D01*
X124800D01*
X125575Y163825D01*
Y161775D01*
X124930Y161130D01*
X124844Y161133D01*
G03X123312Y159601I-45J-1487D01*
G01X123314Y159514D01*
X123173Y159373D01*
X123102Y159366D01*
G03X122427Y159100I121J-1295D01*
G01X118200D01*
G37*
G36*
G01X133800Y162300D02*
X132900Y163200D01*
Y166400D01*
X132200Y167100D01*
X127600D01*
X125500Y169200D01*
Y175400D01*
X127000Y176900D01*
X193000D01*
X193900Y176000D01*
Y170000D01*
X192100Y168200D01*
X139600D01*
X136000Y164600D01*
Y163307D01*
X135989Y163276D01*
G03X135912Y162884I1408J-480D01*
G01X135908Y162808D01*
X135400Y162300D01*
X133800D01*
G37*
G36*
G01X141100Y86428D02*
G03X140882Y85321I1040J-780D01*
G01X140911Y85211D01*
X140300Y84600D01*
X138600D01*
X138527Y84673D01*
G03X138200Y85062I-1129J-618D01*
G01Y86198D01*
G03Y88211I-803J1007D01*
G01Y89348D01*
G03X138683Y90292I-803J1007D01*
G02X139056Y90672I400J-19D01*
G03X139936Y91100I-87J1297D01*
G01X140500D01*
X141100Y90500D01*
Y89578D01*
G03Y88018I1040J-780D01*
G01Y86428D01*
G37*
G36*
G01X135000Y105538D02*
G03X134551Y104710I841J-992D01*
G01X134542Y104642D01*
X134340Y104440D01*
X134256Y104440D01*
G03X133191Y104000I-9J-1488D01*
G01X132155D01*
G03X130041I-1057J-1047D01*
G01X129005D01*
G03X128523Y104325I-1056J-1047D01*
G01X128400Y104376D01*
Y106400D01*
X128600Y106600D01*
X128840D01*
X128886Y106573D01*
G03X130242Y106600I655J1123D01*
G01X131991D01*
G03X133391I700J1096D01*
G01X134600D01*
X135000Y106200D01*
Y105538D01*
G37*
G36*
G01X141465Y105200D02*
X142600D01*
X144300Y103500D01*
Y102300D01*
X142700Y100700D01*
X141471D01*
G03X139623I-924J-897D01*
G01X138700D01*
X138300Y101100D01*
Y102035D01*
G03X138682Y102873I-903J918D01*
G02X139060Y103248I399J-25D01*
G03X140204Y104080I-70J1298D01*
G01X140220Y104120D01*
X140994Y104894D01*
X141032Y104910D01*
G03X141465Y105200I-485J1193D01*
G37*
G36*
G01X144000Y97610D02*
Y96000D01*
X142600Y94600D01*
X141225D01*
X141179Y94626D01*
G03X139915I-632J-1122D01*
G01X139869Y94600D01*
X138075D01*
X138029Y94626D01*
G03X137949Y94667I-632J-1122D01*
G01X137918Y94682D01*
X137043Y95557D01*
X137028Y95591D01*
G03X136900Y95814I-1187J-531D01*
G01Y97501D01*
G03X137004Y97687I-1078J727D01*
G01X137019Y97719D01*
X137931Y98631D01*
X137961Y98646D01*
G03X138555Y99239I-564J1158D01*
G01X138569Y99269D01*
X138600Y99300D01*
Y99342D01*
X138611Y99375D01*
G03X138658Y99541I-1214J428D01*
G01X138691Y99700D01*
X143114D01*
X143557Y100143D01*
X143900Y99800D01*
Y97710D01*
X144000Y97610D01*
G37*
G36*
G01X139400Y130000D02*
X138744Y130656D01*
X138790Y130776D01*
G03X138400Y132398I-1393J523D01*
G01Y133100D01*
X138800Y133500D01*
X139401D01*
G03X141500Y135591I1146J949D01*
G01Y136456D01*
G03Y138741I-953J1142D01*
G01Y139606D01*
G03Y141890I-953J1142D01*
G01Y142400D01*
X141900Y142800D01*
X142692D01*
G03X144701I1004J1098D01*
G01X144800D01*
X145300Y142300D01*
Y135000D01*
X144000Y133700D01*
Y133154D01*
X143996Y133134D01*
G03Y132616I1274J-259D01*
G01X144000Y132596D01*
Y131100D01*
X142900Y130000D01*
X139400D01*
G37*
G36*
G01X133191Y146000D02*
G03X134316Y145561I1056J1047D01*
G02X134525Y145376I9J-200D01*
G03X134590Y145058I1297J97D01*
G01X134600Y145026D01*
Y143100D01*
X134200Y142700D01*
X129500D01*
X129200Y143000D01*
Y145600D01*
X129600Y146000D01*
X130039D01*
X130096Y145948D01*
G03X132155Y146000I1002J1099D01*
G01X133191D01*
G37*
G36*
G01X148900Y78400D02*
X150600D01*
X151743Y77257D01*
X151759Y77217D01*
G03X152607Y76369I1387J538D01*
G01X152646Y76354D01*
X153700Y75300D01*
X161800D01*
X162300Y74800D01*
Y73500D01*
X161900Y73100D01*
X149700D01*
X148700Y74100D01*
Y78200D01*
X148900Y78400D01*
G37*
G36*
G01X148400Y91600D02*
X151200D01*
X151700Y91100D01*
Y90707D01*
X151695Y90685D01*
G03Y90023I1450J-331D01*
G01X151700Y90001D01*
Y87558D01*
X151695Y87536D01*
G03Y86874I1450J-331D01*
G01X151700Y86852D01*
Y85200D01*
X151100Y84600D01*
X148900D01*
X147900Y85600D01*
Y86155D01*
G03Y88255I-1054J1050D01*
G01Y89304D01*
G03X148041Y91241I-1054J1050D01*
G01X148400Y91600D01*
G37*
G36*
G01X152700Y100200D02*
Y97861D01*
X153600Y96961D01*
Y96700D01*
X153300Y96400D01*
X152100D01*
X151422Y97078D01*
X151408Y97122D01*
G03X148938Y97700I-1412J-469D01*
G01X147904D01*
G03X145789I-1057J-1046D01*
G01X144900D01*
X144600Y98000D01*
Y98621D01*
G03X145178Y99666I-904J1182D01*
G02X145535Y100027I398J-37D01*
G03X146018Y100176I-135J1293D01*
G01X146062Y100200D01*
X147929D01*
X147964Y100186D01*
G03X148914I475J1210D01*
G01X148950Y100200D01*
X150799D01*
G03X152141Y100173I693J1100D01*
G01X152188Y100200D01*
X152700D01*
G37*
G36*
G01X158307Y127800D02*
G03X158296Y127804I-440J-1224D01*
G01X157524Y128576D01*
X157509Y128616D01*
G03X157300Y128974I-1214J-466D01*
G01Y130474D01*
G03Y132124I-1005J825D01*
G01Y133615D01*
X158790Y135105D01*
G03X158876Y135200I-920J919D01*
G01X159700D01*
X159800Y135100D01*
Y133331D01*
X159789Y133299D01*
G03Y132451I1229J-424D01*
G01X159800Y132419D01*
Y132100D01*
X164000Y127900D01*
Y125400D01*
X159800Y121200D01*
Y120693D01*
X159792Y120665D01*
G03Y119923I1246J-371D01*
G01X159800Y119895D01*
Y119800D01*
X159862Y119738D01*
X159877Y119709D01*
G03X160453Y119133I1161J585D01*
G01X160482Y119118D01*
X160600Y119000D01*
X160912D01*
X160921Y118999D01*
G03X161155I117J1295D01*
G01X161164Y119000D01*
X162700D01*
X163300Y118400D01*
Y117400D01*
X162746Y116846D01*
X162657Y116850D01*
G03X162025Y116720I-63J-1299D01*
G01X161983Y116700D01*
X160055D01*
X160014Y116720D01*
G03X158875I-569J-1169D01*
G01X158834Y116700D01*
X156906D01*
X156864Y116720D01*
G03X155726I-569J-1169D01*
G01X155684Y116700D01*
X153793D01*
X153752Y116720D01*
G03X153182Y116851I-569J-1169D01*
G01X153145D01*
G03X152576Y116720I0J-1300D01*
G01X152535Y116700D01*
X150579D01*
X150539Y116719D01*
G03X149453I-543J-1168D01*
G01X149412Y116700D01*
X148500D01*
X148100Y117100D01*
Y118356D01*
X148106Y118380D01*
G03X148144Y118622I-1260J321D01*
G02X148519Y118996I399J-24D01*
G03X149277Y119300I-79J1298D01*
G01X153857D01*
X154199Y119300D01*
X154233Y119286D01*
G03X155800Y121193I467J1214D01*
G01Y122700D01*
X156700Y123600D01*
X159900D01*
X162100Y125800D01*
Y125860D01*
X162127Y125906D01*
G03X161605Y127707I-1126J650D01*
G01X161578Y127722D01*
X161500Y127800D01*
X161381D01*
X161354Y127808D01*
G03X160647I-353J-1251D01*
G01X160621Y127800D01*
X158307D01*
G37*
G36*
G01X143374Y111026D02*
X143363Y111090D01*
G03X142290Y112163I-1283J-210D01*
G01X142226Y112174D01*
X141824Y112576D01*
X141813Y112637D01*
G03X141300Y113446I-1266J-235D01*
G01Y114507D01*
G03Y116596I-753J1044D01*
G01Y117600D01*
X141500Y117800D01*
X142286D01*
X142486Y117600D01*
X143003D01*
X143049Y117573D01*
G03X143168Y117513I647J1128D01*
G01X143202Y117497D01*
X144116Y116584D01*
X144131Y116555D01*
G03X144300Y116301I1159J589D01*
G01Y114838D01*
G03X145991Y112900I990J-843D01*
G01X147100D01*
X147600Y112400D01*
Y111845D01*
X147520Y111765D01*
G03X147249Y111368I919J-919D01*
G01X147234Y111334D01*
X146800Y110900D01*
X143500D01*
X143374Y111026D01*
G37*
G36*
G01X142817Y123800D02*
G03X143789Y123515I879J1200D01*
G01X143879Y123521D01*
X144129Y123271D01*
X144143Y123219D01*
G03X144187Y123083I1257J331D01*
G01X144200Y123048D01*
Y121003D01*
G03Y119585I1090J-709D01*
G01Y118900D01*
X143900Y118600D01*
X142900D01*
X141500Y120000D01*
X141273D01*
X141230Y120022D01*
G03X139822Y120000I-683J-1322D01*
G01X139700D01*
X138900Y120800D01*
Y123500D01*
X139200Y123800D01*
X139666D01*
X139716Y123766D01*
G03X141426Y123800I831J1234D01*
G01X142817D01*
G37*
G36*
G01X155000Y128100D02*
X154223Y128877D01*
G03X154065Y129069I-1078J-727D01*
G01X152489Y130645D01*
G03X152297Y130803I-919J-919D01*
G01X149497Y133603D01*
G03X149147Y133953I-1078J-727D01*
G01X147868Y135232D01*
G03X147629Y135471I-1022J-783D01*
G01X147600Y135500D01*
Y136400D01*
X147900Y136700D01*
X149073D01*
G03X150918I922J898D01*
G01X152223D01*
G03X152513Y136477I922J898D01*
G01X152536Y136464D01*
X153555Y135446D01*
X153569Y135419D01*
G03X154113Y134874I1150J606D01*
G01X154140Y134860D01*
X155131Y133870D01*
X155145Y133843D01*
G03X155689Y133298I1150J606D01*
G01X155716Y133284D01*
X156300Y132700D01*
Y128500D01*
X155900Y128100D01*
X155000D01*
G37*
G36*
G01X149278Y149600D02*
G03X148517Y149920I-858J-977D01*
G02X148332Y150128I15J199D01*
G03X147600Y151479I-1486J69D01*
G01Y152064D01*
G03Y154629I-754J1282D01*
G01Y155214D01*
G03X148158Y155794I-754J1282D01*
G01X148214Y155900D01*
X150000D01*
X150398Y155502D01*
X150353Y155381D01*
G03X150600Y154056I1217J-459D01*
G01Y152639D01*
G03Y150906I969J-867D01*
G01Y149900D01*
X150300Y149600D01*
X149278D01*
G37*
G36*
G01X157800Y91600D02*
X161000D01*
X161377Y91223D01*
X161302Y91090D01*
G03X161600Y89248I1293J-736D01*
G01Y88311D01*
G03Y86098I994J-1107D01*
G01Y85162D01*
G03X161123Y84278I994J-1107D01*
G01X161114Y84214D01*
X161000Y84100D01*
X158100D01*
X157722Y84478D01*
X157707Y84523D01*
G03X157500Y84927I-1412J-468D01*
G01Y86332D01*
G03Y88077I-1205J872D01*
G01Y89482D01*
G03Y91226I-1205J872D01*
G01Y91300D01*
X157800Y91600D01*
G37*
G36*
G01X163600Y99900D02*
Y99086D01*
X164500Y98186D01*
Y98100D01*
X164100Y97700D01*
X163344D01*
G03X161844I-750J-1046D01*
G01X160195D01*
G03X158694I-750J-1046D01*
G01X157045D01*
G03X155545I-750J-1046D01*
G01X154700D01*
X154000Y98400D01*
Y98819D01*
X154065Y98884D01*
G03X154446Y99803I-919J919D01*
G03X154000Y100783I-1300J0D01*
G01Y101990D01*
G03X154428Y102836I-855J963D01*
G02X154826Y103200I398J-36D01*
G01X156214D01*
X156414Y103400D01*
X156700D01*
X157000Y103100D01*
Y102346D01*
G03X157198Y100294I888J-950D01*
G01X157218Y100282D01*
X157300Y100200D01*
X157378D01*
X157413Y100186D01*
G03X158363I475J1210D01*
G01X158398Y100200D01*
X160528D01*
X160563Y100186D01*
G03X161513I475J1210D01*
G01X161548Y100200D01*
X163300D01*
X163600Y99900D01*
G37*
G36*
G01X157900Y104000D02*
X157400Y104500D01*
Y104810D01*
X157500Y104910D01*
Y105613D01*
X157513Y105647D01*
G03X157595Y106095I-1218J455D01*
G01X157700Y106200D01*
X159714D01*
X160183Y106669D01*
X160319Y106582D01*
G03X161747Y106600I701J1095D01*
G01X163000D01*
X163500Y106100D01*
Y104900D01*
X162834Y104234D01*
X162739Y104245D01*
G03X161824Y104000I-145J-1292D01*
G01X160215D01*
G03X158674I-771J-1047D01*
G01X157900D01*
G37*
G36*
G01X153700Y104200D02*
X152769Y105131D01*
X152755Y105158D01*
G03X152300Y105656I-1154J-598D01*
G01Y109600D01*
X152600Y109900D01*
X153846D01*
G03X155631I893J945D01*
G01X156200D01*
X156800Y109300D01*
Y108407D01*
G03Y106984I1088J-712D01*
G01Y105258D01*
G03X156736Y105149I1089J-711D01*
G01X156722Y105122D01*
X155800Y104200D01*
X153700D01*
G37*
G36*
G01X159300Y108514D02*
Y107404D01*
X159146Y107368D01*
G03X158748Y107200I299J-1265D01*
G01X157800D01*
Y109714D01*
X156614Y110900D01*
X152186D01*
X151686Y110400D01*
X151400D01*
X151000Y110800D01*
Y111576D01*
G03X151296Y112371I-1004J826D01*
G02X151649Y112758I400J-10D01*
G03X152267Y113000I-149J1292D01*
G01X153902D01*
G03X155576I837J995D01*
G01X157051D01*
G03X158725I837J995D01*
G01X159700D01*
X160100Y112600D01*
Y111746D01*
G03Y109945I938J-901D01*
G01Y109314D01*
X159300Y108514D01*
G37*
G36*
G01X160614Y113500D02*
X160114Y114000D01*
X152900D01*
X152799Y114101D01*
G03X152500Y114881I-1299J-51D01*
G01Y115700D01*
X162900D01*
X163200Y115400D01*
Y114700D01*
X162108Y113608D01*
X162074Y113593D01*
G03X161898Y113500I521J-1191D01*
G01X160614D01*
G37*
G36*
G01X175692Y119300D02*
X177200Y117792D01*
Y116174D01*
X177179Y116132D01*
G03Y114970I1163J-581D01*
G01X177200Y114928D01*
Y114600D01*
X178800Y113000D01*
Y111591D01*
G03Y110139I1079J-726D01*
G01Y108500D01*
X177100Y106800D01*
Y106467D01*
X177094Y106418D01*
X177091Y106407D01*
G03X177089Y105808I1251J-305D01*
G01X177091Y105796D01*
X177100Y105762D01*
Y105000D01*
X176400Y104300D01*
X175990D01*
X175800Y104300D01*
X172800Y107300D01*
X172517D01*
X172484Y107312D01*
G03X171602I-441J-1210D01*
G01X171569Y107300D01*
X169368D01*
X169334Y107312D01*
G03X168452I-441J-1210D01*
G01X168419Y107300D01*
X166289D01*
X166216Y107314D01*
G03X165271I-473J-1211D01*
G01X165236Y107300D01*
X163139D01*
X163067Y107314D01*
G03X162121I-473J-1211D01*
G01X162086Y107300D01*
X160600D01*
X160300Y107600D01*
Y108100D01*
X165400Y113200D01*
X166256D01*
X166361Y113095D01*
G03X168200I919J919D01*
G01X168304Y113200D01*
X168500D01*
X171500Y116200D01*
Y116423D01*
X171531Y116472D01*
G03X171500Y117903I-1101J692D01*
G01Y119200D01*
X171600Y119300D01*
X172765D01*
G03X174394I814J1014D01*
G01X175692D01*
G37*
G36*
G01X161100Y110856D02*
Y111800D01*
X162100Y112800D01*
X162290D01*
X163900Y114410D01*
Y115690D01*
X163887Y115703D01*
X163876Y115766D01*
G03X163813Y116005I-1282J-215D01*
G01X163800Y116039D01*
Y116486D01*
X164300Y116986D01*
Y118814D01*
X163800Y119314D01*
Y119500D01*
X163400Y119900D01*
X163214D01*
X163114Y120000D01*
X162640D01*
X162637Y120000D01*
G03X162552I-42J-1299D01*
G01X162548Y120000D01*
X161014D01*
X160800Y120214D01*
Y120786D01*
X163414Y123400D01*
X165010D01*
X166500Y123400D01*
X167661Y122239D01*
X167637Y122132D01*
G03X167774Y121214I1256J-281D01*
G01X167800Y121168D01*
Y119383D01*
X167774Y119337D01*
G03X168344Y117536I1119J-636D01*
G01X168375Y117521D01*
X169227Y116670D01*
X169242Y116636D01*
G03X169500Y116256I1188J528D01*
G01Y115200D01*
X168200Y113900D01*
X165110D01*
X161783Y110573D01*
G02X161100Y110856I-283J283D01*
G37*
G36*
G01X155500Y126600D02*
X155830Y126930D01*
X155943Y126898D01*
G03X157196Y127212I352J1252D01*
G02X157476Y127210I139J-144D01*
G01X157886Y126800D01*
X161086D01*
X161100Y126786D01*
Y126214D01*
X159486Y124600D01*
X156286D01*
X155943Y124257D01*
X155500Y124700D01*
Y126600D01*
G37*
G36*
G01X165300Y124100D02*
X164707Y124693D01*
X165000Y124986D01*
Y128314D01*
X160800Y132514D01*
Y133500D01*
X161705D01*
G03X163483I889J949D01*
G01X164855D01*
G03X166633I889J949D01*
G01X167500D01*
X168000Y133000D01*
Y132244D01*
G03Y130355I893J-945D01*
G01Y129094D01*
G03X168289Y126998I893J-945D01*
G01X168316Y126984D01*
X168400Y126900D01*
X168533D01*
X168558Y126893D01*
G03X169228I335J1256D01*
G01X169253Y126900D01*
X170400D01*
X171000Y126300D01*
Y125779D01*
X170966Y125728D01*
G03X170776Y124708I1077J-728D01*
G01X170801Y124601D01*
X170300Y124100D01*
X165300D01*
G37*
G36*
G01X155481Y142900D02*
G03X156120Y142622I814J998D01*
G01X156187Y142613D01*
X156570Y142230D01*
X156578Y142162D01*
G03X156800Y141583I1290J162D01*
G01Y139915D01*
G03Y138434I1068J-741D01*
G01Y137500D01*
X156400Y137100D01*
X155450D01*
G03X154946Y137305I-731J-1075D01*
G01X154884Y137316D01*
X154422Y137778D01*
X154410Y137839D01*
G03X153386Y138863I-1265J-240D01*
G01X153325Y138875D01*
X152860Y139340D01*
X152850Y139402D01*
G03X152500Y140082I-1280J-227D01*
G01Y141416D01*
G03X152867Y142240I-931J908D01*
G02X153237Y142613I399J-26D01*
G03X153959Y142900I-92J1284D01*
G01X155481D01*
G37*
G36*
G01X171431Y136900D02*
G03X171011Y137207I-962J-875D01*
G01X170978Y137222D01*
X170800Y137400D01*
Y137900D01*
X169100Y139600D01*
X162500D01*
X162000Y140100D01*
X161934D01*
X161878Y140150D01*
G03X160105Y140100I-860J-976D01*
G01X158782D01*
G03X157817Y140474I-913J-926D01*
G01X157730Y140470D01*
X157591Y140609D01*
X157594Y140697D01*
G03X157513Y141203I-1299J51D01*
G01X157500Y141237D01*
Y142290D01*
X157300Y142490D01*
Y142700D01*
X157500Y142900D01*
X158630D01*
G03X160259I814J998D01*
G01X161760D01*
G03X163428I834J998D01*
G01X164930D01*
G03X166558I814J998D01*
G01X168079D01*
G03X169707I814J998D01*
G01X171229D01*
G03X172524Y142703I814J998D01*
G01X172647Y142753D01*
X173400Y142000D01*
Y137500D01*
X173130Y137230D01*
X173096Y137215D01*
G03X172657Y136900I523J-1190D01*
G01X171431D01*
G37*
G36*
G01X157800Y149300D02*
X157610Y149490D01*
X157664Y149614D01*
G03X157100Y151448I-1369J583D01*
G01Y152096D01*
G03Y154597I-805J1251D01*
G01Y155245D01*
G03X157610Y155800I-805J1251D01*
G01X159700D01*
X160100Y155400D01*
Y152694D01*
G03Y150852I918J-921D01*
G01Y149800D01*
X159600Y149300D01*
X157800D01*
G37*
G36*
G01X165700Y72600D02*
X164700Y73600D01*
Y75200D01*
X163600Y76300D01*
Y76657D01*
X163657Y76715D01*
G03X163600Y78852I-1063J1041D01*
G01Y79600D01*
X163700Y79700D01*
X164872D01*
G03X165867Y79423I872J1205D01*
G02X166300Y79024I33J-399D01*
G01Y75800D01*
X167100Y75000D01*
X169692D01*
X170075Y74617D01*
Y72875D01*
X169800Y72600D01*
X165700D01*
G37*
G36*
G01X180600Y84984D02*
G03X180210Y84175I892J-929D01*
G01X180203Y84103D01*
X178294Y82194D01*
X178222Y82188D01*
G03X177894Y82112I120J-1282D01*
G01X177860Y82100D01*
X175675D01*
X175641Y82112D01*
G03X174744I-448J-1207D01*
G01X174710Y82100D01*
X172525D01*
X172491Y82112D01*
G03X171594I-448J-1207D01*
G01X171561Y82100D01*
X169375D01*
X169342Y82112D01*
G03X168445I-448J-1207D01*
G01X168411Y82100D01*
X168208D01*
X167000Y83308D01*
Y83772D01*
X167004Y83792D01*
G03Y84318I-1261J263D01*
G01X167000Y84338D01*
Y86922D01*
X167004Y86942D01*
G03Y87467I-1261J263D01*
G01X167000Y87488D01*
Y90071D01*
X167004Y90092D01*
G03Y90617I-1261J263D01*
G01X167000Y90637D01*
Y91300D01*
X168145Y92445D01*
X168277Y92374D01*
G03X169700Y92500I617J1130D01*
G01X171237D01*
G03X172849I806J1004D01*
G01X174386D01*
G03X175999I806J1004D01*
G01X177536D01*
G03X178473Y92223I806J1004D01*
G01X178567Y92233D01*
X180220Y90580D01*
X180211Y90485D01*
G03X180600Y89425I1281J-131D01*
G01Y88134D01*
G03Y86276I892J-929D01*
G01Y84984D01*
G37*
G36*
G01X173120Y104600D02*
X171186D01*
X170586Y104000D01*
X169642D01*
G03X169030Y104233I-749J-1047D01*
G01X168959Y104241D01*
X168425Y104775D01*
X168418Y104846D01*
G03X168317Y105240I-1294J-124D01*
G01X168300Y105279D01*
Y106300D01*
X172386D01*
X173403Y105283D01*
G02X173120Y104600I-283J-283D01*
G37*
G36*
G01X170000Y99500D02*
X169990Y99490D01*
G03X169220Y98744I440J-1224D01*
G01X169205Y98705D01*
X168300Y97800D01*
X166330D01*
G03X166272Y97828I-587J-1146D01*
G01X165330Y98770D01*
X165315Y98803D01*
G03X164635Y99465I-1184J-537D01*
G01X164600Y99500D01*
Y103000D01*
X165100Y103500D01*
X166497D01*
G03X166504Y103496I625J1140D01*
G01X168200Y101800D01*
X168318D01*
X168358Y101782D01*
G03X169429I536J1171D01*
G01X169468Y101800D01*
X169700D01*
X170000Y101500D01*
Y99500D01*
G37*
G36*
G01X176100Y103200D02*
Y98400D01*
X175585Y97885D01*
X175477Y97909D01*
G03X174645Y97819I-285J-1256D01*
G01X174605Y97800D01*
X172631D01*
X172590Y97819D01*
G03X172335Y97908I-547J-1165D01*
G01X172279Y97921D01*
X171712Y98488D01*
X171700Y98545D01*
G03X170924Y99469I-1270J-278D01*
G01X170800Y99520D01*
Y102800D01*
X171600Y103600D01*
X172709D01*
G03X174450I871J966D01*
G01X175700D01*
X176100Y103200D01*
G37*
G36*
G01X169817Y117497D02*
X168800Y118514D01*
Y122514D01*
X168556Y122759D01*
G02X168697Y123100I141J141D01*
G01X169800D01*
X170769Y122131D01*
X170755Y122032D01*
G03X171100Y120955I1287J-181D01*
G01Y120214D01*
X170500Y119614D01*
Y117780D01*
G02X169817Y117497I-400J0D01*
G37*
G36*
G01X172300Y124300D02*
X171700Y124900D01*
Y126156D01*
X171709Y126185D01*
G03Y126967I-1240J391D01*
G01X171700Y126996D01*
Y129305D01*
X171709Y129334D01*
G03Y130117I-1240J391D01*
G01X171700Y130146D01*
Y132455D01*
X171709Y132484D01*
G03Y133266I-1240J391D01*
G01X171700Y133296D01*
Y134500D01*
X172100Y134900D01*
X172965D01*
X173009Y134877D01*
G03X174229I610J1148D01*
G01X174273Y134900D01*
X176114D01*
X176158Y134877D01*
G03X177379I610J1148D01*
G01X177423Y134900D01*
X179200D01*
X180061Y134039D01*
X180076Y133993D01*
G03X180089Y133955I1417J454D01*
G01X180100Y133922D01*
Y131826D01*
X180089Y131794D01*
G03Y130805I1403J-494D01*
G01X180100Y130773D01*
Y128676D01*
X180089Y128644D01*
G03Y127655I1403J-494D01*
G01X180100Y127623D01*
Y127600D01*
X180115Y127585D01*
X180130Y127551D01*
G03X182081Y126784I1362J599D01*
G01X182119Y126800D01*
X182900D01*
X183300Y126400D01*
Y125645D01*
X183283Y125606D01*
G03X183182Y124708I1359J-606D01*
G01X183204Y124604D01*
X182900Y124300D01*
X178700D01*
X178000Y125000D01*
Y126158D01*
X178009Y126187D01*
G03Y126965I-1241J389D01*
G01X178000Y126994D01*
Y127200D01*
X177600Y127600D01*
X177572D01*
X177520Y127637D01*
G03X175967Y127600I-752J-1061D01*
G01X175500D01*
X173500Y125600D01*
Y124600D01*
X173200Y124300D01*
X172300D01*
G37*
G36*
G01X168600Y149300D02*
X167800Y150100D01*
Y150558D01*
X167909Y150614D01*
G03Y152932I-590J1159D01*
G01X167800Y152987D01*
Y155400D01*
X168300Y155900D01*
X170675D01*
X170731Y155794D01*
G03X171100Y155346I1312J702D01*
G01Y154497D01*
G03Y152196I943J-1151D01*
G01Y151348D01*
G03X170619Y149768I943J-1151D01*
G01X170653Y149653D01*
X170300Y149300D01*
X168600D01*
G37*
G36*
G01X188600Y94076D02*
Y93100D01*
X188200Y92700D01*
X186280D01*
G02X185892Y93196I0J400D01*
G03X185125Y94697I-1250J308D01*
G01X185088Y94712D01*
X184232Y95568D01*
X184216Y95608D01*
G03X183800Y96170I-1214J-465D01*
G01Y97123D01*
X184302Y97625D01*
Y98295D01*
G03X183921Y99215I-1300J0D01*
G01X183800Y99336D01*
Y100247D01*
G03Y102554I-600J1153D01*
G01Y103200D01*
X184175Y103575D01*
X185286D01*
G03X186215Y103200I914J925D01*
G01X186299Y103201D01*
X186502Y102998D01*
X186504Y102919D01*
G03X186900Y102023I1287J34D01*
G01Y100733D01*
G03X187247Y98636I891J-930D01*
G01X187279Y98621D01*
X188122Y97778D01*
X188137Y97744D01*
G03X188600Y97189I1190J523D01*
G01Y96136D01*
G03Y94076I793J-1030D01*
G37*
G36*
G01X182214Y119300D02*
G03X183004Y119014I814J1014D01*
G02X183200Y118814I-4J-200D01*
G01Y116814D01*
X182786Y116400D01*
X182482D01*
X182411Y116471D01*
G03X180507Y116400I-919J-919D01*
G01X179332D01*
X179262Y116471D01*
G03X178392Y116850I-919J-919D01*
G02X178200Y117050I8J200D01*
G01Y118714D01*
X177956Y118959D01*
G02X178097Y119300I141J141D01*
G01X179065D01*
G03X180693I814J1014D01*
G01X182214D01*
G37*
G36*
G01X188759Y116400D02*
G03X186589Y116013I-968J-849D01*
G01X186574Y115974D01*
X185882Y115282D01*
X185831Y115268D01*
G03X185073Y114700I347J-1253D01*
G01X184200D01*
X183700Y115200D01*
Y115900D01*
X184200Y116400D01*
Y116599D01*
X184217Y116638D01*
G03Y117691I-1189J527D01*
G01X184200Y117729D01*
Y119200D01*
X184300Y119300D01*
X185364D01*
G03X186992I814J1014D01*
G01X188514D01*
G03X189116Y119031I814J1014D01*
G01X189180Y119020D01*
X189662Y118538D01*
X189673Y118476D01*
G03X191565Y117575I1268J225D01*
G01X191610Y117600D01*
X193420D01*
X193466Y117575D01*
G03X194715I625J1126D01*
G01X194760Y117600D01*
X196570D01*
X196615Y117575D01*
G03X197864I625J1126D01*
G01X197910Y117600D01*
X199400D01*
X200000Y117000D01*
Y113800D01*
X199668Y113468D01*
G03X199467Y113300I721J-1067D01*
G01X198162D01*
G03X196317I-922J-898D01*
G01X195013D01*
G03X194093Y113689I-922J-898D01*
G01X194011Y113689D01*
X193780Y113920D01*
X193776Y113998D01*
G03X192537Y115237I-1299J-60D01*
G01X192459Y115241D01*
X192228Y115472D01*
X192228Y115554D01*
G03X189972Y116400I-1288J-3D01*
G01X188759D01*
G37*
G36*
G01X181586Y130015D02*
G03X182304Y130300I-94J1284D01*
G01X183809D01*
G03X185473I832J999D01*
G01X186300D01*
X186700Y129900D01*
Y128900D01*
X185600Y127800D01*
X183508D01*
X183477Y127810D01*
G03X182659Y127810I-409J-1234D01*
G01X182629Y127800D01*
X181314D01*
X181100Y128014D01*
Y129183D01*
X181116Y129220D01*
G03X181216Y129642I-1198J506D01*
G02X181586Y130015I399J-26D01*
G37*
G36*
G01X178436Y142613D02*
G03X178783Y142688I-94J1284D01*
G01X178816Y142700D01*
X181017D01*
X181051Y142688D01*
G03X181933I441J1210D01*
G01X181966Y142700D01*
X183000D01*
X183400Y142300D01*
Y141200D01*
X182580Y140380D01*
X182546Y140365D01*
G03X182459Y140323I521J-1191D01*
G01X182415Y140300D01*
X180571D01*
X180527Y140323D01*
G03X179309I-609J-1149D01*
G01X179265Y140300D01*
X178400D01*
X178000Y140700D01*
Y141906D01*
X178009Y141935D01*
G03X178066Y142240I-1241J389D01*
G02X178436Y142613I399J-26D01*
G37*
G36*
G01X179821Y149918D02*
G03X179062Y149600I98J-1297D01*
G01X178200D01*
X177600Y150200D01*
Y150773D01*
G03Y152772I-832J1000D01*
G01Y153923D01*
G03X177822Y155684I-832J1000D01*
G01X177722Y155822D01*
X178000Y156100D01*
X180051D01*
X180100Y155971D01*
G03X180600Y155305I1392J526D01*
G01Y154537D01*
G03Y152156I892J-1191D01*
G01Y151388D01*
G03X180006Y150127I892J-1191D01*
G02X179821Y149918I-200J-9D01*
G37*
G36*
G01X197850Y106800D02*
G03X199237Y106496I927J912D01*
G01X199358Y106542D01*
X199800Y106100D01*
Y104400D01*
X199300Y103900D01*
X198112D01*
G03X196368I-872J-947D01*
G01X194962D01*
G03X193218I-872J-947D01*
G01X193200D01*
X192800Y104300D01*
Y106300D01*
X192914Y106414D01*
X192952Y106429D01*
G03X193470Y106800I-475J1210D01*
G01X194769D01*
G03X196431I831J1000D01*
G01X197850D01*
G37*
G36*
G01X194768Y94600D02*
X194722Y94626D01*
G03X194507Y94722I-632J-1122D01*
G01X194463Y94737D01*
X193854Y95346D01*
X193840Y95392D01*
G03X193600Y95831I-1240J-392D01*
G01Y97100D01*
X193800Y97300D01*
X194757D01*
G03X196496I870J967D01*
G01X197907D01*
G03X199566Y97234I870J966D01*
G01X200200Y96600D01*
Y95200D01*
X199600Y94600D01*
X197918D01*
X197872Y94626D01*
G03X196608I-632J-1122D01*
G01X196562Y94600D01*
X194768D01*
G37*
G36*
G01X192600Y124200D02*
X192400Y124400D01*
Y126900D01*
X192600Y127100D01*
X193344D01*
G03X194836I746J1050D01*
G01X196494D01*
G03X197986I746J1050D01*
G01X199500D01*
X200200Y126400D01*
Y124700D01*
X199858Y124358D01*
X195290D01*
X195131Y124200D01*
X192600D01*
G37*
G36*
G01X187500Y137300D02*
X187100Y137700D01*
Y138220D01*
G03Y140129I-883J955D01*
G01Y144300D01*
X188597Y145797D01*
G03X188938Y146100I-806J1250D01*
G01X189794D01*
G03X192088I1147J947D01*
G01X192600D01*
X193200Y145500D01*
Y145089D01*
G03X192656Y144293I890J-1192D01*
G01X192642Y144242D01*
X191825Y143425D01*
G03X191415Y143015I691J-1101D01*
G01X190596Y142196D01*
X190545Y142182D01*
G03X189900Y139685I395J-1434D01*
G01Y138662D01*
G03X189458Y137725I1041J-1063D01*
G01X189452Y137652D01*
X189100Y137300D01*
X187500D01*
G37*
G36*
G01X189652Y150252D02*
X189362Y149962D01*
X189289Y149955D01*
G03X188819Y149821I115J-1295D01*
G01X188776Y149800D01*
X187800D01*
X187100Y150500D01*
Y150815D01*
X187156Y150873D01*
G03X187100Y152725I-939J899D01*
G01Y153968D01*
G03X187354Y155550I-884J954D01*
G01X187282Y155682D01*
X187500Y155900D01*
X189500D01*
X189800Y155600D01*
Y153946D01*
X189780Y153905D01*
G03Y152788I1160J-558D01*
G01X189800Y152747D01*
Y152400D01*
X190100Y152100D01*
X190617D01*
X190640Y152094D01*
G03X191241I301J1252D01*
G01X191264Y152100D01*
X193767D01*
X193790Y152094D01*
G03X194391I301J1252D01*
G01X194414Y152100D01*
X195700D01*
X196000Y151800D01*
Y150900D01*
X195100Y150000D01*
X193800D01*
X192500Y151300D01*
X191607D01*
X191562Y151325D01*
G03X189659Y150323I-621J-1128D01*
G01X189652Y150252D01*
G37*
G36*
G01X208175Y159175D02*
X208117D01*
X206911Y157970D01*
X206819Y157978D01*
G03X205691Y157600I-130J-1482D01*
G01X204700D01*
X204300Y158000D01*
Y158368D01*
G03X203089Y161064I-761J1278D01*
G01X202973Y161027D01*
X202800Y161200D01*
Y163374D01*
G03X203185Y164821I-835J997D01*
G01X203141Y164941D01*
X203900Y165700D01*
X207900D01*
X209200Y164400D01*
Y160200D01*
X208175Y159175D01*
G37*
G36*
G01X226400Y41700D02*
Y36500D01*
X224400Y34500D01*
Y32600D01*
X224000Y32200D01*
X221800D01*
X221300Y32700D01*
Y36439D01*
X221300Y36500D01*
X220100Y37700D01*
Y41700D01*
X220400Y42000D01*
X226100D01*
X226400Y41700D01*
G37*
G36*
G01X211800Y40800D02*
X212200Y41200D01*
X217200D01*
X218000Y40400D01*
Y37900D01*
X220000Y35900D01*
Y32200D01*
X219800Y32000D01*
X218000D01*
X217800Y32200D01*
Y34600D01*
X216600Y35800D01*
X212700D01*
X211800Y36700D01*
Y40800D01*
G37*
G36*
G01X234591Y91659D02*
G03X232302Y92424I-991J841D01*
G02X231903Y92000I-399J-23D01*
G01X229800D01*
Y97800D01*
X230300Y98300D01*
X233500D01*
X235000Y99800D01*
Y107500D01*
X239000Y111500D01*
X243800D01*
X244796Y110504D01*
X244759Y110389D01*
G03X245653Y108747I1241J-389D01*
G01X245800Y108706D01*
Y105300D01*
X245500Y105000D01*
X243407D01*
X243374Y105160D01*
G03X243021Y105818I-1274J-260D01*
G02Y106382I283J282D01*
G03X241179I-921J918D01*
G02Y105818I-283J-282D01*
G03X240821Y105136I921J-918D01*
G02X240398Y104809I-393J72D01*
G03X239379Y102595I-98J-1297D01*
G02Y102030I-283J-282D01*
G03X239881Y99882I921J-918D01*
G02X240116Y99338I-129J-379D01*
G03X240379Y97882I1184J-538D01*
G02Y97318I-283J-282D01*
G03X240056Y96022I921J-918D01*
G02X239774Y95519I-383J-116D01*
G03X239179Y93342I326J-1259D01*
G02Y92778I-283J-282D01*
G03X238848Y91508I921J-918D01*
G02X238463Y91000I-385J-108D01*
G01X234896D01*
G02X234591Y91659I0J400D01*
G37*
G36*
G01X232539Y103200D02*
X232239Y103500D01*
X231000D01*
X230700Y103800D01*
Y106239D01*
X230200Y106739D01*
Y112800D01*
X233200Y115800D01*
Y136100D01*
X231700Y137600D01*
Y139700D01*
X232100Y140100D01*
X236400D01*
X237500Y139000D01*
Y113500D01*
X234554Y110554D01*
X234508Y110540D01*
G03X233687Y108833I392J-1240D01*
G01X233700Y108798D01*
Y108039D01*
X233700Y103600D01*
X233300Y103200D01*
X232539D01*
G37*
G36*
G01X229500Y99200D02*
X229000Y99700D01*
Y100900D01*
X227700Y102200D01*
X226600D01*
X225925Y102875D01*
Y105125D01*
X226700Y105900D01*
X229200D01*
X229400Y105700D01*
Y102700D01*
X229900Y102200D01*
X231700D01*
X232200Y101700D01*
Y99500D01*
X231900Y99200D01*
X229500D01*
G37*
G36*
G01X250000Y70500D02*
X265400D01*
X269600Y66300D01*
Y57900D01*
X266900Y55200D01*
Y40400D01*
X265900Y39400D01*
X253600D01*
X252700Y40300D01*
Y46300D01*
X254400Y48000D01*
X262300D01*
X264000Y49700D01*
Y50479D01*
G03Y50521I-1300J21D01*
G01Y52300D01*
X261100Y55200D01*
X249400D01*
X247700Y56900D01*
Y65200D01*
X249400Y66900D01*
Y68191D01*
X249407Y68216D01*
G03Y68884I-1257J333D01*
G01X249400Y68909D01*
Y69900D01*
X250000Y70500D01*
G37*
G36*
G01X246900Y112900D02*
X245800Y114000D01*
Y115500D01*
X246700Y116400D01*
X248156D01*
X248196Y116382D01*
G03X249405I604J1318D01*
G01X249444Y116400D01*
X250100D01*
X250500Y116800D01*
Y120000D01*
X250800Y120300D01*
X268000D01*
X269100Y119200D01*
Y115800D01*
X266200Y112900D01*
X246900D01*
G37*
%LPC*%
G75*
G36*
G01X22383Y15781D02*
G03X22117I-133J-149D01*
G02X20281Y17617I-867J969D01*
G03Y17883I-149J133D01*
G02Y19617I969J867D01*
G03Y19883I-149J133D01*
G02X22117Y21719I969J867D01*
G03X22383I133J149D01*
G02X24117I867J-969D01*
G03X24383I133J149D01*
G02X26117I867J-969D01*
G03X26383I133J149D01*
G02X28219Y19883I867J-969D01*
G03Y19617I149J-133D01*
G02Y17883I-969J-867D01*
G03Y17617I149J-133D01*
G02X26383Y15781I-969J-867D01*
G03X26117I-133J-149D01*
G02X24383I-867J969D01*
G03X24117I-133J-149D01*
G02X22383I-867J969D01*
G37*
G36*
G01X12700Y13012D02*
G03X12527Y13211I-200J2D01*
G02X14000Y14488I173J1289D01*
G03X14174Y14289I200J-2D01*
G02X12700Y13012I-173J-1289D01*
G37*
G36*
G01X89519Y54617D02*
G02X87581I-969J-867D01*
G03Y54883I-149J133D01*
G02X87458Y55044I969J867D01*
G03X87105Y55011I-168J-109D01*
G02X86837Y56401I-1205J489D01*
G03X87461Y56460I288J277D01*
G02X89519Y54883I1089J-710D01*
G03Y54617I149J-133D01*
G37*
G54D91*
X17250Y15000D03*
X15000Y18000D03*
X14600Y31900D03*
Y28100D03*
X14623Y43097D03*
X20600Y54900D03*
X20800Y59000D03*
X14600Y59200D03*
X58500Y155200D03*
Y151100D03*
Y141400D03*
X55000D03*
X48000D03*
X41500Y151100D03*
X41000Y141400D03*
X44500D03*
X72000Y19500D03*
X69490Y32935D03*
X72000Y37000D03*
Y43000D03*
X86000Y63500D03*
X85900Y59400D03*
X127500Y170600D03*
X135500Y174400D03*
X139500Y170600D03*
X151500D03*
X147500D03*
X143500Y174400D03*
X163500D03*
X155500D03*
X173580Y114015D03*
X234000Y96500D03*
X237225Y100720D03*
X237000Y96810D03*
X264900Y65400D03*
X265000Y60500D03*
G54D93*
X175192Y90354D03*
Y87205D03*
Y84055D03*
X172043Y90354D03*
Y87205D03*
Y84055D03*
G54D92*
X48057Y166373D03*
X55143D03*
X40970D03*
%LPD*%
G75*
G54D10*
X-49757Y7226D03*
Y42659D03*
G54D20*
X-33615Y10277D03*
Y39608D03*
G54D11*
X-51500Y49200D03*
Y54800D03*
X72500Y106200D03*
Y111800D03*
X78500Y117200D03*
Y122800D03*
X258400Y99800D03*
Y105400D03*
G54D21*
X-27670Y7226D03*
Y42659D03*
G54D30*
X-16294Y-5072D03*
X7537Y166400D03*
G54D12*
X-53800Y56000D03*
X-53900Y58100D03*
X-52050Y58000D03*
X-53850Y54000D03*
X-52050D03*
Y56000D03*
X-54400Y66200D03*
X-54350Y68050D03*
X-54300Y70200D03*
X-42100Y17000D03*
X-45900D03*
X-48200Y33300D03*
X-46000Y25500D03*
Y27750D03*
X-48200Y35100D03*
X-44400Y49100D03*
Y51100D03*
X-50150Y58000D03*
Y56000D03*
Y54000D03*
X-44526Y56669D03*
X-42526D03*
X-42900Y67700D03*
X-44600Y68800D03*
X-44700Y66800D03*
X-39800Y63100D03*
X-44526Y58669D03*
X-42526D03*
X-48500Y106500D03*
X-41300Y140400D03*
X-38700Y157400D03*
X-38950Y166900D03*
X-39200Y171650D03*
Y176900D03*
X-39900Y186500D03*
X-36500Y58000D03*
X-30500Y50000D03*
X-26800Y47200D03*
X-30000Y56750D03*
X-27500D03*
X-30000Y54750D03*
X-27500D03*
X-36511Y54000D03*
X-27500Y66250D03*
X-30088D03*
X-30600Y98693D03*
X-29800Y140700D03*
X-31350Y152650D03*
X-26900Y160900D03*
X-29700Y157600D03*
Y173700D03*
X-29900Y166300D03*
X-28500Y177600D03*
X-30500Y190400D03*
X-19400Y4800D03*
X-15000Y6500D03*
X-18000D03*
Y8750D03*
X-15000Y13300D03*
X-23500Y13500D03*
X-21700Y13000D03*
X-19100Y19400D03*
X-17600Y17000D03*
X-21200Y17300D03*
X-23450Y20250D03*
X-21500Y20100D03*
X-23400Y18050D03*
Y15750D03*
X-19100Y11850D03*
Y14100D03*
X-15000Y30500D03*
X-23000Y24200D03*
X-24200Y26100D03*
X-16600Y28100D03*
X-17800Y33450D03*
Y31200D03*
X-21800Y29300D03*
X-23500Y29750D03*
X-21000Y26700D03*
X-15000Y45500D03*
X-23700Y36400D03*
X-22700Y34900D03*
X-18000Y38000D03*
Y40000D03*
X-20000D03*
Y38000D03*
X-22000Y40000D03*
Y38000D03*
X-16000Y40000D03*
Y38000D03*
X-20750Y45000D03*
Y49500D03*
Y51750D03*
Y47250D03*
Y54000D03*
Y56250D03*
X-24000Y50000D03*
X-25000Y56750D03*
Y54750D03*
X-25088Y66250D03*
X-16300Y65500D03*
X-20000Y64000D03*
X-16800Y105700D03*
X-21000D03*
X-16800Y109700D03*
Y113700D03*
X-24800Y109700D03*
X-21000D03*
X-24450Y151900D03*
X-24500Y146350D03*
X-24450Y156800D03*
X-26650Y164050D03*
X-25000Y166800D03*
X-24450Y177650D03*
X-24750Y188250D03*
X-15600Y181500D03*
X-12000Y8750D03*
Y6500D03*
X-11000Y16400D03*
X-4500Y18000D03*
X-13000Y15100D03*
X-8700Y18000D03*
X-5600Y14600D03*
Y12400D03*
X-4400Y31000D03*
X-4300Y24000D03*
X-4250Y28500D03*
X-8750D03*
X-12000Y32750D03*
Y30500D03*
X-12750Y45500D03*
X-14000Y38000D03*
Y40000D03*
X-3100Y42900D03*
X-10000Y50750D03*
Y48750D03*
X-11980Y61620D03*
X-9800Y61300D03*
X-10300Y63500D03*
X-12900Y109700D03*
X-5000Y144400D03*
X-5750Y153000D03*
X-11100Y162000D03*
X-5600Y159200D03*
X-10000Y174900D03*
X-11200Y166900D03*
X-10500Y178900D03*
X-250Y13000D03*
Y19000D03*
Y17000D03*
Y15000D03*
X7550Y10750D03*
X-2500Y22500D03*
X8200Y24500D03*
X8300Y22600D03*
X6300D03*
Y24700D03*
X-300Y29800D03*
Y31700D03*
X-250Y33750D03*
X8600Y27200D03*
X8000Y35300D03*
X6300D03*
X-2750Y45250D03*
X-300Y35800D03*
X-250Y41650D03*
X-200Y39700D03*
X-250Y43750D03*
X8500Y45100D03*
X-250Y56000D03*
Y57800D03*
X-2750Y52000D03*
Y47500D03*
Y54250D03*
Y49750D03*
Y57000D03*
X8800Y67450D03*
X-250Y59600D03*
Y61500D03*
X-2750Y59250D03*
Y61500D03*
X-200Y130800D03*
X2250Y144000D03*
Y153050D03*
X8000Y153000D03*
Y144000D03*
X3150Y165000D03*
X8500Y161900D03*
X3800Y160400D03*
X-1200D03*
X1300D03*
X3150Y168000D03*
X8600Y171050D03*
X-1200Y172900D03*
X1300D03*
X3800D03*
X14000Y13000D03*
X12700Y14500D03*
X11200Y10800D03*
X9400D03*
X17250Y15000D03*
X15000Y18000D03*
X10100Y24500D03*
Y22600D03*
X14600Y28100D03*
X10600Y27200D03*
X14600Y31900D03*
X9800Y35300D03*
X11600D03*
X14623Y43097D03*
X12000Y45100D03*
X10250D03*
X9400Y48400D03*
X9300Y50300D03*
Y52200D03*
X12250Y57000D03*
X20600Y54900D03*
X10600Y67500D03*
X9500Y65500D03*
X18500Y69000D03*
X14400D03*
X20800Y59000D03*
X12200Y60800D03*
Y58900D03*
X14600Y59200D03*
X14500Y63400D03*
X19250Y81500D03*
X19600Y103600D03*
X19400Y95600D03*
X19700Y111200D03*
X19100Y127500D03*
X19500Y119200D03*
X19400Y131800D03*
X20000Y152200D03*
X10500Y141800D03*
Y144000D03*
X20250Y161900D03*
X16250D03*
X12300D03*
X20350Y171050D03*
X16350D03*
X12350D03*
X25250Y18750D03*
X21250D03*
X23250D03*
X21250Y16750D03*
X23250D03*
X25250D03*
X21250Y20750D03*
X23250D03*
X25250D03*
X27250Y16750D03*
Y18750D03*
Y20750D03*
X24850Y26197D03*
X28031Y26242D03*
X31131Y32492D03*
X21300Y30400D03*
X21400Y25800D03*
X27942Y32452D03*
X21300Y28100D03*
X31131Y29342D03*
Y26193D03*
X23500Y40700D03*
X21000Y41750D03*
X31131Y45034D03*
X27981D03*
X31131Y38791D03*
X27981D03*
X21100Y34800D03*
X21200Y37000D03*
X31131Y35641D03*
X27981D03*
X24400Y35456D03*
X31131Y57633D03*
X27981D03*
X24832Y54183D03*
X31131D03*
X27981D03*
X31131Y48184D03*
X27981Y51334D03*
X31131D03*
X27981Y48184D03*
X24889Y48261D03*
X23000Y68000D03*
X23800Y65400D03*
X27981Y60782D03*
X25100Y60300D03*
X30900Y67600D03*
X30250Y91500D03*
X23519Y88026D03*
X27300Y91500D03*
X27200Y103300D03*
X31750Y101250D03*
Y96538D03*
X29600Y97300D03*
X27300Y99500D03*
Y95400D03*
X29500Y111600D03*
X27200Y107100D03*
X27100Y115000D03*
Y111100D03*
X31713Y105987D03*
X27200Y121400D03*
X30500Y123500D03*
X27000Y118700D03*
X22600Y136200D03*
X30250Y141500D03*
X28250D03*
X22900Y144500D03*
X29159Y152200D03*
X29100Y162800D03*
X24100Y161900D03*
X24500Y156250D03*
X24100Y171050D03*
X29100Y169900D03*
X37300Y32500D03*
X43683Y32462D03*
X40531D03*
X37430Y29286D03*
Y26137D03*
X43644Y26237D03*
X43444Y29056D03*
X34281Y26137D03*
Y29286D03*
Y26193D03*
X37401Y45061D03*
X40570Y41894D03*
X43674Y38791D03*
X34400Y45100D03*
X34281Y41941D03*
X37430D03*
X34281Y38791D03*
X37430D03*
X34281Y35641D03*
X43644Y41957D03*
X40531Y45070D03*
X43674Y45034D03*
X40570Y35614D03*
X43683D03*
X37430Y35641D03*
X40500Y51400D03*
X43721Y48221D03*
X43732Y51332D03*
X37430Y54483D03*
Y48184D03*
X40570Y48104D03*
X43722Y57717D03*
X34281Y57633D03*
X37430D03*
X40492Y57757D03*
X37430Y51334D03*
X35659Y64664D03*
X43900Y70100D03*
X43850Y60640D03*
X40580Y60782D03*
X40082Y64860D03*
X40000Y76400D03*
X35200Y73100D03*
X37400Y74693D03*
X41700Y70200D03*
X38300Y93900D03*
X40800D03*
X43300D03*
X34250Y89500D03*
X32750Y87750D03*
X42500Y86750D03*
X40250D03*
X43300Y98900D03*
X40800D03*
X38300D03*
Y96400D03*
X40800D03*
X43300D03*
X38300Y101400D03*
X40800D03*
X43300D03*
X38300Y103900D03*
X36500Y112400D03*
X35600Y115000D03*
X42500Y110700D03*
X40500Y123500D03*
X38000D03*
X33200Y123700D03*
X35200Y125400D03*
X44500Y126000D03*
X41000D03*
X37400Y137100D03*
X33000Y135700D03*
X41000Y135000D03*
X44500D03*
Y141400D03*
X41000D03*
X33884Y129759D03*
X37427D03*
X33900Y143400D03*
X33750Y148750D03*
X41500Y151100D03*
Y155200D03*
X44500Y170600D03*
X34000D03*
X44500Y174750D03*
X40970Y174641D03*
X37427D03*
X34000Y174500D03*
X55250Y22250D03*
X47000Y16000D03*
Y18000D03*
Y20000D03*
X53178Y29349D03*
X53139Y32422D03*
X49987Y32462D03*
X56333Y26052D03*
X56272Y32492D03*
X46796Y32422D03*
X56330Y29349D03*
X46400Y26100D03*
X49973Y23043D03*
Y26193D03*
X53053Y23112D03*
X53034Y26282D03*
X53189Y45024D03*
X53100Y41839D03*
X53122Y35641D03*
X56272Y35585D03*
X49987Y45030D03*
X53122Y38791D03*
X49987Y41878D03*
X49973Y38791D03*
X49908Y35692D03*
X46953Y38687D03*
X56370Y41918D03*
X56299Y45063D03*
X46870Y35613D03*
X56272Y54483D03*
Y51334D03*
X49973D03*
X53122Y48184D03*
X46953Y51256D03*
X46835Y48222D03*
X56272Y48184D03*
Y57633D03*
X50026Y57717D03*
X53122Y54483D03*
X46914Y57717D03*
X49973Y54483D03*
X46800Y67378D03*
X53208Y60800D03*
X56272Y60782D03*
X46832Y60832D03*
X54250Y70000D03*
X50026Y60751D03*
X56262Y63922D03*
X53152Y63961D03*
X48000Y76400D03*
X54250Y80000D03*
X48300Y70200D03*
X46100D03*
X52300Y72600D03*
X52000Y83900D03*
X48100Y93900D03*
X55400Y92800D03*
X47900Y83800D03*
X45750Y86750D03*
X45800Y98900D03*
X48100D03*
X45800Y96400D03*
X48100D03*
X45800Y101400D03*
X48100D03*
X55250Y96500D03*
X46100Y117500D03*
X55000Y108000D03*
X47237Y110170D03*
X56400Y116500D03*
X52750Y108000D03*
X55000Y126000D03*
X48000Y141400D03*
X55000Y135000D03*
X51600Y129759D03*
X55000Y141400D03*
X48057Y129759D03*
X54500Y155100D03*
X66750Y15500D03*
Y19500D03*
Y17500D03*
X59500Y22500D03*
X57250Y22250D03*
X58200Y13900D03*
X58100Y19300D03*
Y17500D03*
Y15800D03*
X66574Y24582D03*
X62547Y26217D03*
X59422Y32492D03*
X62571D03*
X62600Y29460D03*
X65830Y29390D03*
X66141Y32659D03*
X59422Y45034D03*
X62571D03*
X59488Y38725D03*
X62637D03*
X62571Y41941D03*
Y57633D03*
X59478Y51334D03*
X62627D03*
X65777Y54483D03*
X62571D03*
X59422D03*
X64200Y64000D03*
X59404Y60791D03*
X59000Y80000D03*
X60500Y76000D03*
X64400D03*
X68300Y76400D03*
X66600Y79600D03*
X56500Y80000D03*
X56600Y76000D03*
X66500Y91500D03*
X66600Y87400D03*
X56600Y94700D03*
X66500Y95500D03*
X56600Y98300D03*
X60000Y103800D03*
X57250Y104250D03*
X67250Y111050D03*
Y107500D03*
X58500Y126000D03*
X62300Y129800D03*
X58500Y135000D03*
Y141400D03*
X63600Y150600D03*
X67000Y144100D03*
X58500Y151100D03*
Y155200D03*
X67200Y169600D03*
X62200Y174600D03*
X72000Y13500D03*
Y19500D03*
X74800Y17148D03*
X76600Y18900D03*
X74800D03*
X69490Y32935D03*
X72000Y28500D03*
X76500Y32500D03*
Y30500D03*
Y28500D03*
X68500Y40500D03*
X72000Y37000D03*
Y43000D03*
X76500Y44000D03*
Y46000D03*
Y34500D03*
X72000Y49000D03*
X79600Y52000D03*
X79700Y53800D03*
Y55600D03*
X76500Y48000D03*
X72000Y68500D03*
X69500Y59235D03*
X76500Y64000D03*
Y60000D03*
Y62000D03*
X77000Y68300D03*
X73800Y79800D03*
X70400Y79600D03*
X77000Y71500D03*
X70400Y87400D03*
Y91500D03*
X75000Y87500D03*
X80000Y88500D03*
X70400Y83400D03*
X78500Y104500D03*
X70250Y100250D03*
Y98000D03*
X74600Y100600D03*
X70300Y95500D03*
X76000Y104500D03*
X72400Y111700D03*
X78500Y117200D03*
X79700Y109900D03*
X69500Y134800D03*
X69250Y141500D03*
X74000Y132000D03*
X69316Y129759D03*
X75500Y141500D03*
X74041Y152200D03*
Y148657D03*
Y145113D03*
X69500Y155800D03*
X74000Y162800D03*
X75500Y155750D03*
X74000Y169900D03*
X77250Y174750D03*
X69316Y174641D03*
X75000Y182250D03*
X91250Y20750D03*
Y15500D03*
X81200Y15700D03*
Y17600D03*
Y19400D03*
X85950Y20750D03*
Y18750D03*
X85500Y15000D03*
X91250Y31250D03*
Y26000D03*
X85950Y33500D03*
Y31500D03*
Y29500D03*
Y22750D03*
X91250Y36500D03*
X88550Y55750D03*
Y53750D03*
X81700Y55600D03*
Y53800D03*
X81600Y52000D03*
X85900Y55500D03*
X86000Y63500D03*
X80500Y68300D03*
X85900Y59400D03*
X88400Y72000D03*
X86500Y79000D03*
X80500Y71500D03*
X86524Y88460D03*
X82100Y104500D03*
X91000Y100500D03*
X88400Y104500D03*
X81250Y111750D03*
X87250Y151000D03*
X89250D03*
X85250D03*
X81800Y154900D03*
X84800D03*
X81000Y163750D03*
X85000Y163500D03*
X91750Y155000D03*
X85000Y173900D03*
Y167500D03*
X81000Y167400D03*
X91100Y170600D03*
X89000Y167400D03*
X81250Y179750D03*
X94500Y21750D03*
Y19750D03*
X101000Y22500D03*
Y19000D03*
Y15500D03*
X97500D03*
X98000Y20750D03*
X94500Y32250D03*
Y30250D03*
X101000Y33000D03*
Y29500D03*
Y26000D03*
X98000D03*
Y31250D03*
X101000Y36500D03*
Y40000D03*
Y43500D03*
X98000Y36500D03*
Y41750D03*
X92750Y55750D03*
Y53750D03*
X98500Y57000D03*
X96400Y47000D03*
X101000Y70000D03*
X96500Y63900D03*
X96400Y68000D03*
X98500Y60000D03*
X96400Y72000D03*
X101300Y77500D03*
X101000Y92750D03*
Y90500D03*
X97500Y100200D03*
X100000Y104000D03*
X100400Y100200D03*
X101300Y107800D03*
X101400Y110400D03*
X101500Y121700D03*
X102200Y130600D03*
X97600Y149500D03*
Y145500D03*
X101400Y149500D03*
Y145500D03*
Y161500D03*
Y157500D03*
X97600Y153500D03*
X101400D03*
X93500Y163600D03*
X97600Y157500D03*
X93500Y167400D03*
X96900Y176700D03*
X102059Y176691D03*
X103500Y170600D03*
X99537Y167693D03*
X93500Y174400D03*
X115000Y15600D03*
X105200Y13100D03*
X108000Y16000D03*
X107250Y19000D03*
X110250Y20750D03*
X107250Y22500D03*
X110250Y17250D03*
X108750Y31250D03*
X107250Y29500D03*
X110250Y24250D03*
X107250Y26000D03*
X110250Y27750D03*
X113254Y33187D03*
X107250Y33000D03*
Y38750D03*
X108750Y34750D03*
X107250Y36500D03*
X113254Y39092D03*
X107250Y43500D03*
X108750Y45250D03*
X115223Y36139D03*
X107250Y41250D03*
X108750Y55750D03*
X107250Y47000D03*
Y57500D03*
Y50500D03*
X108750Y48750D03*
Y52250D03*
X107250Y54000D03*
Y64500D03*
X108750Y62750D03*
X107250Y61000D03*
X108750Y59250D03*
X105500Y70000D03*
X112663Y90354D03*
X112920Y94780D03*
X111800Y105000D03*
X105700Y103900D03*
X104500Y97300D03*
X105700Y99300D03*
X111100Y109900D03*
Y115000D03*
X107900Y106100D03*
X107400Y111000D03*
X107382Y114000D03*
X114850Y111060D03*
X114800Y113900D03*
X111250Y123750D03*
X111100Y120000D03*
X106000Y129100D03*
X104100Y120000D03*
X107400Y121800D03*
X111500Y141000D03*
Y136000D03*
X111300Y129800D03*
X115500Y136000D03*
X104100Y141700D03*
X112485Y147504D03*
X104672Y147372D03*
X104900Y150300D03*
X112300Y150067D03*
X114750Y147500D03*
X114446Y151722D03*
X104250Y157500D03*
X104900Y153700D03*
Y161500D03*
X106750Y157500D03*
X113400Y156300D03*
X113250Y161500D03*
X112500Y153416D03*
X115750Y161500D03*
X115500Y174400D03*
X111500Y170600D03*
X115500D03*
X107500Y174400D03*
X111500Y176750D03*
X105500D03*
X113750D03*
X122506Y21966D03*
X125656D03*
X121128Y33187D03*
X117191D03*
X125065D03*
X121128Y39092D03*
X119160Y36139D03*
X127034D03*
X125065Y39092D03*
X123097Y36139D03*
X117191Y39092D03*
X122506Y50313D03*
X125656D03*
X120147Y76253D03*
X123224Y79331D03*
X126374D03*
Y76181D03*
X120074Y79331D03*
X123203Y76160D03*
X123224Y91929D03*
X120074Y85630D03*
X126392Y91948D03*
X120074Y82480D03*
X123224D03*
Y85630D03*
X126392Y88798D03*
Y85648D03*
Y82499D03*
X123224Y88780D03*
X120074D03*
Y91929D03*
X120301Y104301D03*
X120074Y98228D03*
X126392Y101396D03*
X123224Y95079D03*
X126392Y98247D03*
X120074Y95079D03*
X126374D03*
X123224Y98228D03*
X123242Y104509D03*
X126392Y107696D03*
Y110845D03*
X126300Y117144D03*
X120300Y113946D03*
X123325Y114025D03*
X120301Y110800D03*
X123400D03*
X120415Y107415D03*
X123400Y107700D03*
X119500Y124600D03*
X127350Y123950D03*
X117250Y124500D03*
X123200Y123600D03*
X116100Y120100D03*
X126200Y120250D03*
X119313Y140748D03*
X126384Y129726D03*
X126412Y139135D03*
X126372Y132875D03*
X119300Y145700D03*
X126372Y151773D03*
X117050Y145503D03*
X119411Y151801D03*
X126372Y148623D03*
X122900Y145800D03*
X119411Y159632D03*
Y162794D03*
X117125Y156529D03*
X123223Y158072D03*
X126372D03*
X127500Y174400D03*
Y170600D03*
X123500Y174400D03*
X128806Y21966D03*
X135105D03*
X131955D03*
X138254D03*
X136876Y33187D03*
X132939D03*
X129002D03*
X132939Y39092D03*
X136876D03*
X129002D03*
X130971Y36139D03*
X138828D03*
X134908D03*
X135105Y50313D03*
X128806D03*
X131955D03*
X135822Y76181D03*
X138972Y79331D03*
X129523D03*
X135822D03*
X129523Y76181D03*
X132673D03*
X138972D03*
X132673Y79331D03*
X132691Y88798D03*
X139000Y82500D03*
X138969Y91969D03*
X129542Y91948D03*
Y82499D03*
X135841D03*
X129542Y88798D03*
X135841Y85648D03*
X132673Y85630D03*
X135804Y91948D03*
X135841Y88798D03*
X132691Y82499D03*
X138991Y88798D03*
Y85648D03*
X138997Y101403D03*
X132691Y104546D03*
X129542D03*
X135822Y98228D03*
X132673D03*
X129542Y98247D03*
Y95097D03*
X132691Y101396D03*
X135841D03*
X132691Y95097D03*
X135841Y104546D03*
X138991D03*
X135841Y95060D03*
X129542Y101396D03*
X138991Y98247D03*
X138972Y95079D03*
X138991Y117144D03*
X135841Y107696D03*
X129542Y110845D03*
X132691Y107696D03*
X138948Y107653D03*
X129542Y107696D03*
X135841Y117144D03*
X138991Y113995D03*
X132691Y110845D03*
X135841D03*
Y113995D03*
X129650Y117150D03*
X138991Y110845D03*
X132691Y113995D03*
X132675Y117150D03*
X132672Y126576D03*
X135841Y123407D03*
X135821Y126576D03*
X139097Y126446D03*
X138971Y132875D03*
X132672Y136025D03*
X138971D03*
X135821Y129726D03*
X132672D03*
Y132875D03*
X129522Y129726D03*
X135861Y139135D03*
X135821Y132875D03*
X139000Y139201D03*
X132711Y139135D03*
X135821Y136025D03*
X129522Y132875D03*
X138969Y148676D03*
X129500Y151700D03*
X135821Y145474D03*
Y148623D03*
X135750Y151750D03*
X132672Y151773D03*
X138971Y145474D03*
X132672D03*
X138971Y151773D03*
X132711Y148584D03*
X138971Y142471D03*
X129522Y148623D03*
X134248Y165000D03*
X135821Y154922D03*
Y158072D03*
X132672Y154922D03*
Y158072D03*
X128000Y165000D03*
X129522Y158072D03*
X129576Y154913D03*
X131098Y165000D03*
X135500Y174400D03*
X139500Y170600D03*
X144554Y21966D03*
X141404Y18816D03*
X150853Y21966D03*
X147703D03*
X144554Y28265D03*
X144750Y33187D03*
X140813D03*
X150853Y31415D03*
Y28265D03*
X147703D03*
X150853Y25116D03*
X147703D03*
X144554D03*
Y44013D03*
X144750Y39092D03*
X140813D03*
X150853Y44013D03*
Y40864D03*
X147703Y44013D03*
X149278Y36139D03*
X146128D03*
X142782D03*
X144554Y50313D03*
X150853D03*
Y47163D03*
X147703D03*
X144554D03*
X147703Y50313D03*
X142654Y61349D03*
X151598Y76160D03*
X142122Y79331D03*
X145271Y76181D03*
Y79331D03*
X142122Y76181D03*
X151600Y79266D03*
X148439Y88798D03*
X142140Y82499D03*
Y85648D03*
Y88798D03*
X145290D03*
X142140Y91948D03*
X145290D03*
X151600Y104560D03*
X142140Y104546D03*
Y101396D03*
X148439D03*
X145290Y95097D03*
X145400Y101320D03*
X145271Y104528D03*
X151492Y101300D03*
X148491Y98344D03*
X145290Y98247D03*
X142140D03*
Y95097D03*
X151589Y110845D03*
Y117144D03*
X148439D03*
Y107696D03*
X148484Y113876D03*
X142080Y110880D03*
X145290Y113995D03*
Y117144D03*
X148439Y110845D03*
X142168Y107668D03*
X142101Y117147D03*
X151500Y114050D03*
X145200Y107606D03*
X148420Y126630D03*
X142140Y120294D03*
X142132Y123435D03*
X145400Y123550D03*
X145290Y120294D03*
X142074Y126622D03*
X151473Y126673D03*
X148439Y120294D03*
X148420Y132875D03*
X142120D03*
Y136025D03*
X151569Y132875D03*
X148420Y136025D03*
X151569D03*
X145270Y129726D03*
Y132875D03*
X151569Y139174D03*
X148420D03*
X151569Y129726D03*
X148420D03*
X142120Y145474D03*
Y142324D03*
X151569D03*
X145270Y148623D03*
X151569Y151773D03*
X142105Y148649D03*
X142120Y151773D03*
X148420Y145474D03*
X151569D03*
Y148623D03*
X148420D03*
Y142324D03*
X145270Y145474D03*
X148420Y151773D03*
Y158072D03*
X151569D03*
Y154922D03*
X145270D03*
X145217Y158125D03*
X148420Y154922D03*
X151500Y174400D03*
X147500D03*
X150250Y165500D03*
X145750D03*
X151500Y170600D03*
X147500D03*
X148000Y165500D03*
X143500D03*
Y174400D03*
X160302Y21966D03*
X154002Y21900D03*
X157152Y21966D03*
X163451D03*
X157152Y25116D03*
Y31415D03*
X163451Y28265D03*
X160302Y31415D03*
X163451D03*
Y25116D03*
X154002D03*
X157152Y28265D03*
X154002Y31415D03*
X160302Y28265D03*
X154002D03*
X160302Y25116D03*
X154002Y44013D03*
X157152Y40864D03*
X163451D03*
Y44013D03*
X160302Y40864D03*
X157152Y44013D03*
X154002Y40864D03*
Y36139D03*
X160302Y44013D03*
X163451Y50313D03*
X157152D03*
X160302Y47163D03*
X157152D03*
X154002D03*
X163451D03*
X154002Y50313D03*
X160302D03*
X158000Y69500D03*
X160953D03*
X161100Y74500D03*
X158000D03*
X161017Y88800D03*
Y85648D03*
X154739Y98247D03*
Y101396D03*
X161038Y104546D03*
X157888D03*
X154739D03*
X161038Y101396D03*
X157888D03*
X151640Y98344D03*
X157888Y107696D03*
X154739Y110845D03*
X157888D03*
Y117144D03*
X154739D03*
X161038D03*
Y113995D03*
X157888D03*
X154739D03*
X161019Y107677D03*
X154739Y107696D03*
X161038Y110845D03*
X157888Y120294D03*
X161122Y129622D03*
X157868Y126576D03*
X161001Y126556D03*
X154700Y120500D03*
X161038Y120294D03*
X157868Y132875D03*
Y129726D03*
X154719Y136025D03*
Y139174D03*
X161018Y132875D03*
X154719D03*
Y129726D03*
X161018Y136025D03*
X157871D03*
X161018Y139174D03*
X157868D03*
X154719Y142324D03*
Y151773D03*
Y145474D03*
Y148623D03*
X157868Y142324D03*
X161018D03*
Y145474D03*
X157868Y151773D03*
X161018D03*
Y148623D03*
X162593Y164961D03*
X157868Y158072D03*
X154719Y154922D03*
X157868D03*
X154721Y164371D03*
X159500Y174400D03*
X163500D03*
X155500D03*
X169750Y21966D03*
X172900D03*
X166601D03*
Y28265D03*
X172900D03*
X166601Y31415D03*
X169750D03*
Y25116D03*
X172900Y31415D03*
X166601Y25116D03*
X172900D03*
X169750Y28265D03*
Y36139D03*
Y44013D03*
X166601Y40864D03*
X172900D03*
X166601Y44013D03*
X169750Y40864D03*
X172900Y44013D03*
X169750Y50313D03*
X172900Y47163D03*
X166601D03*
X172900Y50313D03*
X169750Y47163D03*
X166601Y50313D03*
X166500Y69500D03*
X169453Y69389D03*
Y74389D03*
X166460Y74500D03*
X164100Y79400D03*
X170430Y85668D03*
Y104566D03*
X173580D03*
X170430Y98266D03*
X164131D03*
X167124Y104639D03*
X167280Y101416D03*
Y98266D03*
X173580D03*
Y101416D03*
X170424Y95124D03*
X170430Y117164D03*
X173580Y114015D03*
X167357Y110865D03*
X167318Y107677D03*
X170468Y110827D03*
Y107677D03*
Y113976D03*
X173618Y110827D03*
Y107677D03*
Y117126D03*
X167280Y117164D03*
Y114015D03*
X170430Y120314D03*
X170469Y126576D03*
X167320D03*
X173619D03*
X173580Y120314D03*
X167280D03*
X170469Y132875D03*
X173619Y136025D03*
X167320Y129726D03*
X170469Y136025D03*
X167320Y132875D03*
X173619Y129726D03*
Y132875D03*
X167320Y136025D03*
X170469Y129726D03*
X173619Y145474D03*
X173618Y148622D03*
X170469Y142324D03*
X167320D03*
X170469Y151773D03*
X167320Y148623D03*
Y151773D03*
X170469Y158072D03*
X173619Y161222D03*
Y164371D03*
X170469Y154922D03*
X170430Y164332D03*
X164250Y161220D03*
X171500Y174400D03*
X167500D03*
X185500Y1700D03*
X180600Y14700D03*
X181600Y22140D03*
X185900Y27600D03*
X182000Y25250D03*
X185900Y57500D03*
X186750Y46750D03*
X185900Y61500D03*
X175953Y68000D03*
X179600D03*
X182500Y64500D03*
X180500D03*
X178500D03*
X179600Y71500D03*
X175900Y73700D03*
X181900Y75326D03*
X182989Y79408D03*
X179879Y88818D03*
X186300Y88800D03*
X183200Y101400D03*
X183002Y95144D03*
X176767Y104528D03*
X179879Y104566D03*
X186200Y104500D03*
X183002Y98256D03*
X186169Y95031D03*
X186178Y98266D03*
X186247Y101347D03*
X179879Y117164D03*
X183028D03*
X186178Y114015D03*
X179879Y110865D03*
Y107715D03*
X183028D03*
Y110865D03*
X176767Y110827D03*
X176709Y107677D03*
X176767Y113976D03*
X183028Y114015D03*
X179879D03*
X186178Y110865D03*
Y117164D03*
Y107715D03*
X176729Y120314D03*
X176768Y126576D03*
X186178Y120314D03*
X186217Y126576D03*
X179918D03*
X183068D03*
X179879Y120314D03*
X183028D03*
X176768Y136025D03*
X179918D03*
X186217Y129726D03*
X183068D03*
X186300Y136000D03*
X176768Y129726D03*
X179918Y132875D03*
X176768D03*
X179918Y129726D03*
X183068Y139174D03*
X179918D03*
X176768D03*
X183068Y136025D03*
Y132875D03*
X186217D03*
Y139174D03*
X179918Y151773D03*
X176768Y145474D03*
Y142324D03*
X186217Y148623D03*
X183066Y148622D03*
X186216Y151772D03*
X179917Y145472D03*
X183066Y151772D03*
X179919Y148622D03*
X176767D03*
X176768Y151773D03*
X183068Y145474D03*
X186254Y145511D03*
X183044Y142300D03*
X179918Y164371D03*
Y154922D03*
X183066Y154921D03*
X186216D03*
X183068Y164371D03*
X186217Y161222D03*
X183068D03*
X176768Y164371D03*
Y154922D03*
X186217Y158072D03*
X176768D03*
X183068D03*
X186217Y164371D03*
X176768Y161222D03*
X179918D03*
X179500Y174400D03*
X175500D03*
X183500D03*
X195700Y2100D03*
X187600Y14500D03*
X197700Y27600D03*
X189800D03*
X193700D03*
X197600Y33800D03*
X189900Y33700D03*
X193500Y33600D03*
X195500Y43900D03*
X197750Y45500D03*
X199000Y38500D03*
X195000D03*
X189000Y42500D03*
Y44750D03*
X197016Y40750D03*
X198900Y35600D03*
X189000Y40000D03*
X195200Y36100D03*
X191600D03*
X189500Y37000D03*
Y57600D03*
X195750Y47500D03*
X195400Y55000D03*
X198000Y57600D03*
X189000Y51250D03*
X198000Y55000D03*
X189400Y48900D03*
X187500Y54750D03*
X196000Y67100D03*
X187500Y67250D03*
X195500Y75000D03*
X192000Y70900D03*
X198750Y76250D03*
X198841Y79304D03*
X196000Y70900D03*
X195610Y85570D03*
X198776Y88818D03*
X195627Y91967D03*
X198776D03*
X189400Y88800D03*
X189328Y91967D03*
X195627Y88818D03*
X198776Y82518D03*
X198802Y85766D03*
X195627Y104566D03*
X198776D03*
X189300Y101400D03*
X192474Y101474D03*
X189328Y98266D03*
X198700Y101400D03*
X195627Y101416D03*
X198776Y98266D03*
X189394Y95106D03*
X192600Y95000D03*
X195627Y95117D03*
X198776D03*
X195627Y98266D03*
X192477Y107639D03*
Y110789D03*
X195600Y107800D03*
X198776Y107712D03*
X189328Y117164D03*
X195627Y114015D03*
X198700Y113900D03*
X195627Y110865D03*
X189328D03*
Y114015D03*
X198776Y110865D03*
X192477Y113938D03*
X195666Y126576D03*
X198816D03*
X189328Y120314D03*
X192477D03*
X198776D03*
X189367Y139174D03*
X198816Y136025D03*
X195594Y136094D03*
X189367Y132875D03*
X192516Y136025D03*
Y139174D03*
Y129726D03*
X189367D03*
X195669Y139169D03*
X198816Y139174D03*
Y132875D03*
X192477Y132836D03*
X189367Y136025D03*
X195627Y132836D03*
X189272Y142229D03*
X189367Y145474D03*
X192516D03*
X195666Y148623D03*
X189367Y151773D03*
X195666D03*
X192516Y142324D03*
X195666Y145474D03*
X198816Y151773D03*
Y148623D03*
X198776Y142285D03*
Y145434D03*
X189404Y148660D03*
X192500Y148800D03*
X189379Y161219D03*
X195700Y155000D03*
X198816Y154920D03*
X195666Y158072D03*
X189367Y154922D03*
X198750Y164500D03*
X192516Y154922D03*
X198816Y158070D03*
X195664Y164371D03*
X192517Y161222D03*
X187500Y174400D03*
X191500D03*
X195500D03*
X194750Y183500D03*
X209300Y22400D03*
X201500Y21800D03*
X209700Y14500D03*
X209600Y27600D03*
X205800D03*
X201900D03*
X205500Y33700D03*
X209600D03*
X210200Y44700D03*
X207200Y40300D03*
X201000Y40750D03*
X207000Y43500D03*
X203200Y35900D03*
X207500Y36200D03*
X204000Y51500D03*
X202000Y57600D03*
X200000Y47500D03*
X209600Y54200D03*
X206000Y57600D03*
X207000Y47500D03*
X200250Y55000D03*
X207000Y49700D03*
X202600Y54900D03*
X204000Y67100D03*
X208225Y76219D03*
X205076Y79369D03*
X202023Y76123D03*
X201926Y79369D03*
X204000Y70900D03*
X200000D03*
X208000D03*
X209400Y91200D03*
X201926Y82518D03*
Y88818D03*
X205066Y91992D03*
X201926Y91967D03*
X205076Y88818D03*
X209600Y88500D03*
X208225Y82518D03*
X205097Y82497D03*
X201926Y85668D03*
X209200Y104700D03*
X201926Y95117D03*
X201800Y101400D03*
X201926Y98266D03*
X205000Y104600D03*
X202000Y113900D03*
X208225Y117164D03*
X205076D03*
X201800Y110900D03*
X208265Y120274D03*
X209000Y127000D03*
X209250Y123500D03*
X202000Y123433D03*
X201884Y126495D03*
X205076Y120314D03*
X201926D03*
X201965Y136025D03*
X208343Y129804D03*
X201965Y139174D03*
X205115D03*
X205034Y129644D03*
X201965Y132875D03*
X205115Y136025D03*
X208265Y148623D03*
X205115D03*
X208265Y145474D03*
X201965Y151773D03*
Y148623D03*
Y142324D03*
Y145474D03*
X205115D03*
Y142324D03*
Y164371D03*
X205128Y158072D03*
X201965Y164371D03*
X201963Y158072D03*
X201926Y154960D03*
X208250Y155000D03*
X199600Y174400D03*
X203500Y170600D03*
X207500D03*
X199500D03*
X220900Y10600D03*
X213800Y16600D03*
X219931Y17831D03*
X215864Y12336D03*
X211600Y22400D03*
X222900Y29800D03*
X213400Y27600D03*
X216200Y34300D03*
X214000Y33700D03*
X216350Y31650D03*
X211300Y35100D03*
X215600Y40200D03*
X215700Y38400D03*
X216200Y36600D03*
X220300Y44200D03*
X217900D03*
X212400Y51000D03*
Y54000D03*
X220900Y57500D03*
X212500Y63750D03*
X217800Y64000D03*
X217400Y76500D03*
Y80500D03*
X216400Y72500D03*
X222100Y80700D03*
X222000Y74600D03*
X217800Y92400D03*
X213600Y92500D03*
X217400Y84500D03*
X217800Y88400D03*
X222550Y85550D03*
X213600Y100500D03*
Y96500D03*
X217400D03*
Y100500D03*
Y116500D03*
Y108500D03*
X213600Y112500D03*
X217400D03*
X221250D03*
Y108500D03*
Y116500D03*
X217400Y120500D03*
Y124500D03*
X217500Y128500D03*
X213600D03*
X221250D03*
Y120500D03*
X217400Y132500D03*
Y136500D03*
X213600D03*
Y132500D03*
X221250Y140500D03*
Y137000D03*
Y146750D03*
Y150016D03*
X217400Y148500D03*
Y144500D03*
X219750Y142500D03*
X217400Y152500D03*
Y160500D03*
Y164500D03*
Y156500D03*
X213500D03*
X221250Y160500D03*
X211500Y170600D03*
X219500D03*
X215500D03*
X230400Y15300D03*
Y18400D03*
X224900Y14100D03*
X223450Y10850D03*
X224600Y22100D03*
X223000Y33400D03*
X223600Y27700D03*
X227000Y29800D03*
X225400Y31700D03*
X230300Y33100D03*
X223300Y38100D03*
Y39800D03*
X226000Y77900D03*
X227100Y92500D03*
X226100Y85900D03*
X230700Y89000D03*
X223300Y92500D03*
Y88500D03*
X233600Y92500D03*
X227100Y104500D03*
Y96500D03*
Y100500D03*
X223300D03*
X223700Y96500D03*
X233580Y100820D03*
X234000Y96500D03*
X223300Y104500D03*
X231800Y109100D03*
X227400Y124500D03*
Y128500D03*
X233900Y137100D03*
X227400Y136500D03*
Y132500D03*
Y140500D03*
Y148500D03*
Y152500D03*
X233200Y145200D03*
X232500Y147300D03*
X227400Y144500D03*
Y156500D03*
X232500Y156250D03*
X223600Y160500D03*
X227400D03*
X223500Y170600D03*
X232000Y170900D03*
X226500Y170600D03*
X227500Y174400D03*
X231500D03*
X236800Y40800D03*
X243500Y41200D03*
X241900Y54600D03*
X242600Y51400D03*
X235700Y62500D03*
X245450Y93650D03*
X243140Y89170D03*
X245400Y89600D03*
X240100Y91860D03*
X245500Y99000D03*
X245696Y97300D03*
X237225Y100720D03*
X237000Y96810D03*
X242100Y104900D03*
X240100Y94260D03*
X241300Y96400D03*
Y98800D03*
X240300Y101113D03*
Y103513D03*
X246000Y110000D03*
X234900Y109300D03*
X243400Y110500D03*
X241400D03*
X239400D03*
X242100Y107300D03*
X246500Y119750D03*
X242800Y123600D03*
X244000Y117800D03*
Y119700D03*
X246750Y130500D03*
X242824Y143280D03*
X235500Y174400D03*
X237500Y168250D03*
X242250D03*
X246750D03*
X240000D03*
X244500D03*
X243500Y174400D03*
X239500D03*
X235000Y168250D03*
X254700Y40700D03*
Y44800D03*
X257500Y40800D03*
Y44800D03*
X256100Y42700D03*
X250300Y44100D03*
Y41420D03*
X250900Y56400D03*
X255000D03*
X252900Y49500D03*
X250300Y46539D03*
X250900Y69700D03*
Y60700D03*
X255000D03*
X252900Y58500D03*
X248150Y68550D03*
X253200Y72700D03*
X255500Y72800D03*
X254200Y88600D03*
X254300Y84300D03*
X253900Y93100D03*
X254000Y90800D03*
X247600Y89700D03*
X254800Y102500D03*
X253200Y103600D03*
X257000Y101200D03*
X248700Y100000D03*
X256400Y95700D03*
X248700Y97600D03*
X253900Y98150D03*
X247800Y115300D03*
X258400Y108100D03*
X249900Y111200D03*
X253750Y108850D03*
X248800Y117700D03*
X251000Y119750D03*
X250750Y127500D03*
X247750D03*
X256604Y127646D03*
X248800Y119700D03*
X254600Y131500D03*
X256600Y133400D03*
X250700Y135400D03*
X252700Y137400D03*
X248700Y141300D03*
X258646Y141354D03*
X250400Y137800D03*
X252250Y131468D03*
X253400Y149900D03*
X251153Y141600D03*
X256500Y163450D03*
X249000Y168250D03*
X247500Y174400D03*
X268520Y43980D03*
X268580Y41420D03*
X268900Y54400D03*
Y50500D03*
X259900Y52000D03*
X262700Y50500D03*
X268800Y60600D03*
X268700Y65500D03*
X265000Y60500D03*
X264900Y65400D03*
X265200Y93400D03*
X265500Y87000D03*
X267000Y91900D03*
X267300Y84200D03*
X267000Y89500D03*
X267700Y86500D03*
X263400Y113900D03*
X263000Y108100D03*
X267400Y118300D03*
X259100Y118100D03*
X263700Y150000D03*
X268500Y145750D03*
X258750Y154250D03*
Y158750D03*
X266000Y164000D03*
X271100Y88100D03*
Y84900D03*
X277874Y114300D03*
X273000Y128250D03*
Y137000D03*
Y132750D03*
X277874Y156900D03*
G54D22*
X-33615Y21793D03*
Y18643D03*
Y15494D03*
X-30859Y20218D03*
Y12935D03*
X-33615Y34391D03*
Y31242D03*
Y28092D03*
X-30859Y29667D03*
Y26517D03*
Y23368D03*
Y36950D03*
X40970Y166373D03*
X55143D03*
X48057D03*
G54D13*
X-52000Y68500D03*
X-45000D03*
X2750Y50250D03*
X9750D03*
X87500Y20750D03*
Y31500D03*
X94500Y20750D03*
Y31500D03*
X233700Y16300D03*
X240700D03*
G54D40*
X-2265Y153000D03*
Y150441D03*
Y144000D03*
Y141441D03*
Y146559D03*
Y155559D03*
X5265Y153000D03*
Y150441D03*
Y146559D03*
Y144000D03*
Y141441D03*
Y155559D03*
G54D31*
X-16575Y7638D03*
Y9213D03*
Y10787D03*
Y12362D03*
Y31638D03*
Y33213D03*
Y34787D03*
Y36362D03*
X-13425Y7638D03*
Y9213D03*
X-15000Y8425D03*
X-13425Y10787D03*
X-15000Y11575D03*
X-13425Y12362D03*
Y31638D03*
Y33213D03*
X-15000Y32425D03*
X-13425Y34787D03*
X-15000Y35575D03*
X-13425Y36362D03*
G54D50*
X29159Y134484D03*
Y138027D03*
Y141570D03*
Y145113D03*
Y148657D03*
Y152200D03*
Y155743D03*
Y159287D03*
Y162830D03*
Y166373D03*
Y169916D03*
X74041Y141570D03*
Y138027D03*
Y134484D03*
Y152200D03*
Y148657D03*
Y145113D03*
Y162830D03*
Y159287D03*
Y155743D03*
Y169916D03*
Y166373D03*
G54D41*
X2752Y16000D03*
X9248D03*
X3002Y30000D03*
X9498D03*
X3002Y40750D03*
X9498D03*
X3002Y59750D03*
X9498D03*
X75752Y21000D03*
Y31500D03*
X82248Y21000D03*
Y31500D03*
G54D23*
X-26489Y14116D03*
Y16084D03*
Y18053D03*
Y20021D03*
Y21990D03*
Y23958D03*
Y25927D03*
Y27895D03*
Y29864D03*
Y31832D03*
Y33801D03*
Y35769D03*
G54D14*
G01X230000Y5000D02*
X233700Y8700D01*
Y16300D01*
G01X241920Y27910D02*
X240700Y26690D01*
Y16300D01*
X-42400Y-2900D03*
X-28106Y-5072D03*
X-22200D03*
X252500Y0D03*
Y190000D03*
G54D32*
X-17559Y21213D03*
Y22787D03*
X-12441Y21213D03*
Y22787D03*
G54D60*
X77076Y92200D03*
X86524Y88460D03*
Y95940D03*
G54D15*
X-45453Y50000D03*
X-39547D03*
X-47953Y151250D03*
X-42047D03*
X-48153Y143750D03*
X-42247D03*
X-47953Y158750D03*
X-42047D03*
X-47953Y173750D03*
X-42047D03*
X-47953Y166250D03*
X-42047D03*
G54D42*
X0Y82500D03*
Y92500D03*
X10000Y87500D03*
X0Y102500D03*
X10000Y97500D03*
Y107500D03*
X0Y112500D03*
X10000Y117500D03*
X0Y122500D03*
G54D24*
X-30600Y50000D03*
X-34400D03*
X-31700Y140700D03*
X-35500D03*
X-31900Y157600D03*
X-35700D03*
X-31900Y161500D03*
X-35700D03*
X-31900Y166300D03*
X-35700D03*
X-31900Y173700D03*
X-35700D03*
X-19400Y181500D03*
X-15600D03*
X-4600Y20500D03*
X-8400D03*
X-4600Y11500D03*
X-8400D03*
X-4600Y15500D03*
X-8400D03*
Y28500D03*
X-4600D03*
Y24500D03*
X-8400D03*
X-4600Y33500D03*
X-8400D03*
X-4600Y37500D03*
X-8400D03*
X6150Y23000D03*
X2350D03*
X6900Y67100D03*
X3100D03*
X19100Y127500D03*
Y140500D03*
Y144500D03*
X20100Y166400D03*
X16300D03*
X30600Y72500D03*
X26400D03*
X22600D03*
X23519Y88026D03*
X27319D03*
X23500Y91500D03*
X27300D03*
X23400Y103300D03*
X27200D03*
X23500Y99500D03*
X27300D03*
X23500Y95400D03*
X27300D03*
X23300Y115000D03*
X27100D03*
X23300Y111100D03*
X27100D03*
X23400Y107100D03*
X27200D03*
X23200Y118700D03*
X27000D03*
X22900Y127500D03*
Y140500D03*
Y144500D03*
X34400Y72500D03*
X36600Y112500D03*
X40400D03*
X49550D03*
X45750D03*
X66600Y79600D03*
X62800Y79400D03*
X59000D03*
X58900Y87400D03*
X62700D03*
X59000Y83400D03*
X62800D03*
X58900Y91500D03*
X62700D03*
X66600Y83400D03*
X66500Y91500D03*
X66600Y87400D03*
X58900Y95500D03*
X62700D03*
X66500D03*
X76700Y13600D03*
X70400Y79600D03*
Y83400D03*
X70300Y91500D03*
X70400Y87400D03*
X77200Y100700D03*
X70300Y95500D03*
X80500Y13600D03*
X88400Y104500D03*
X84600D03*
X84700Y100700D03*
X88500D03*
X81000D03*
X101100Y19000D03*
Y22500D03*
Y15500D03*
X93600D03*
X97400D03*
X101100Y33000D03*
Y29500D03*
Y26000D03*
Y43500D03*
Y36500D03*
Y40000D03*
Y54000D03*
Y50500D03*
Y47000D03*
Y57500D03*
Y61000D03*
Y64500D03*
X96900Y100300D03*
X100700D03*
X101400Y157500D03*
X97600D03*
X101400Y161500D03*
X97600D03*
X104900Y19000D03*
Y22500D03*
Y15500D03*
Y33000D03*
Y29500D03*
Y26000D03*
Y43500D03*
Y36500D03*
Y40000D03*
Y54000D03*
Y50500D03*
Y47000D03*
Y57500D03*
Y61000D03*
Y64500D03*
X119032Y15667D03*
X122832D03*
X126906D03*
X119032Y56612D03*
X122832D03*
X126906D03*
X119032Y61336D03*
X122832D03*
X126906D03*
X134780Y15667D03*
X138580D03*
X130706D03*
X134780Y56612D03*
X138580D03*
X130706D03*
Y61336D03*
X134780D03*
X138580D03*
X150528Y15667D03*
X142654D03*
X146454D03*
X150528Y56612D03*
X142654D03*
X146454D03*
X150528Y61336D03*
X154328Y15667D03*
X162202D03*
X158402D03*
X154328Y56612D03*
X162202D03*
X158402D03*
X162202Y61336D03*
X158402D03*
X154328D03*
X170076D03*
X166276D03*
X185900Y36000D03*
X182100D03*
X185900Y40000D03*
X182100D03*
Y44000D03*
X185900D03*
X182100Y57500D03*
X185900D03*
Y61500D03*
X182100D03*
X207200Y14200D03*
X203400D03*
X207200Y18000D03*
X203400D03*
X207200Y21800D03*
X203400D03*
X206200Y54100D03*
X210000D03*
X219100Y33400D03*
X222900D03*
X227400Y112500D03*
X223600D03*
X227400Y108500D03*
X223600D03*
X227400Y116500D03*
X223600D03*
X227400Y124500D03*
X223600D03*
X227400Y128500D03*
X223600D03*
X227400Y120500D03*
X223600D03*
X227400Y140500D03*
X223600D03*
X227400Y136500D03*
X223600D03*
X227400Y132500D03*
X223600D03*
X227400Y144500D03*
X223600D03*
Y148500D03*
X227400D03*
Y152500D03*
X223600D03*
X227400Y160500D03*
X223600D03*
X227400Y156500D03*
X223600D03*
X263700Y163450D03*
X259900D03*
G54D33*
X-15787Y19047D03*
X-17362D03*
Y24953D03*
X-15787D03*
X-12638Y19047D03*
X-14213D03*
Y24953D03*
X-12638D03*
G54D51*
X44087Y89475D03*
X42513D03*
X40938D03*
X39363D03*
X37788D03*
X36213D03*
Y108325D03*
X37788D03*
X39363D03*
X40938D03*
X42513D03*
X44087D03*
X50387Y89475D03*
X48812D03*
X47237D03*
X45662D03*
Y108325D03*
X47237D03*
X48812D03*
X50387D03*
G54D61*
X92659Y118846D03*
Y112154D03*
X87541D03*
Y118846D03*
X88441Y132454D03*
Y139146D03*
X93559D03*
Y132454D03*
G54D43*
X10000Y127500D03*
G54D16*
X-43500Y57841D03*
G54D34*
G01X20000Y185000D02*
Y177000D01*
G01Y195000D02*
Y185000D01*
X-24000Y50000D03*
G54D70*
X221684Y14220D03*
X219716D03*
X217747D03*
Y26380D03*
X219716D03*
X221684D03*
X223653Y14220D03*
Y26380D03*
G54D25*
X-36500Y57900D03*
Y54100D03*
X-28500Y177600D03*
Y181400D03*
X-24500Y177600D03*
Y181400D03*
X-14000Y162100D03*
Y165900D03*
X19400Y91800D03*
X19600Y103600D03*
Y99800D03*
X19400Y95600D03*
X19500Y115400D03*
X19700Y111200D03*
Y107400D03*
X19500Y119200D03*
X12300Y162700D03*
Y166500D03*
X30500Y121900D03*
Y118100D03*
X24100Y162600D03*
Y166400D03*
X44000Y72600D03*
Y76400D03*
Y80100D03*
X40000D03*
Y76400D03*
Y72600D03*
X44000Y83900D03*
X40000D03*
X34000Y121900D03*
Y118100D03*
X56600Y72600D03*
Y76400D03*
X48000Y80100D03*
X52000D03*
Y76400D03*
Y72600D03*
X48000Y76400D03*
Y72600D03*
Y83900D03*
X52000D03*
X51500Y118100D03*
Y121900D03*
X68300Y72600D03*
Y76400D03*
X60500Y72600D03*
Y76400D03*
X64400Y72600D03*
Y76400D03*
X72000D03*
Y72600D03*
X91300Y90100D03*
Y93900D03*
X81500Y138100D03*
Y141900D03*
X96500Y43100D03*
Y46900D03*
Y53100D03*
Y56900D03*
Y63900D03*
Y60100D03*
X97600Y114300D03*
Y110500D03*
X101400Y114200D03*
Y110400D03*
X101500Y117900D03*
Y121700D03*
X97600Y121800D03*
Y118000D03*
X98361Y134332D03*
Y130532D03*
X102200Y137900D03*
X98361Y138030D03*
X102200Y134400D03*
Y130600D03*
Y141700D03*
X98361Y141830D03*
X93500Y163600D03*
Y170600D03*
Y174400D03*
Y167400D03*
X179600Y18200D03*
Y22000D03*
X185900Y27100D03*
Y30900D03*
X182000D03*
Y27100D03*
X199200Y20600D03*
Y16800D03*
X193700Y27100D03*
Y30900D03*
X189800Y27100D03*
Y30900D03*
X197700Y27100D03*
Y30900D03*
X198000Y57600D03*
X194000D03*
X190000D03*
X198000Y61400D03*
X194000D03*
X190000D03*
X209600Y30900D03*
Y27100D03*
X201900D03*
Y30900D03*
X205800Y27100D03*
Y30900D03*
X206000Y57600D03*
X210000D03*
X202000D03*
X209600Y50400D03*
Y46600D03*
X206000Y61400D03*
X210000D03*
X202000D03*
X213800Y22400D03*
Y18600D03*
X213400Y27100D03*
Y30900D03*
X218000Y57600D03*
X214000D03*
X218000Y61400D03*
X214000D03*
X230900Y92900D03*
Y89100D03*
Y96600D03*
Y100400D03*
X237500Y88700D03*
Y92500D03*
X244700Y102300D03*
Y106100D03*
X239500Y170600D03*
Y174400D03*
X243500Y170600D03*
Y174400D03*
X235500D03*
Y170600D03*
X249900Y102300D03*
X253700D03*
X249900Y106100D03*
X253700D03*
X247500Y170600D03*
Y174400D03*
X263000Y102300D03*
Y106100D03*
G54D52*
X33875Y91813D03*
Y93388D03*
Y94963D03*
Y96538D03*
Y98113D03*
Y99687D03*
Y101262D03*
Y102837D03*
Y104412D03*
Y105987D03*
X52725Y93388D03*
Y91813D03*
Y104412D03*
Y102837D03*
Y101262D03*
Y99687D03*
Y98113D03*
Y96538D03*
Y94963D03*
Y105987D03*
G54D80*
G01X-53100Y68500D02*
X-52000D01*
G01X-54350Y68050D02*
X-53900Y68500D01*
X-53100D01*
G01D02*
Y69000D01*
X-54300Y70200D01*
G01X-15000Y30500D02*
Y26500D01*
X-15787Y25713D01*
Y24953D01*
G01X-11000Y16400D02*
X-11600Y17000D01*
X-13500D01*
X-14213Y17713D01*
Y19047D01*
G01Y24953D02*
Y29713D01*
X-15000Y30500D01*
G01X-9800Y61300D02*
X-10100D01*
X-10946Y60454D01*
X-11496D01*
Y61136D01*
X-11980Y61620D01*
G01X46046Y117241D02*
X46100Y116600D01*
Y117500D01*
G01X97500Y15500D02*
X97400D01*
G01X124799Y80906D02*
X123224Y79331D01*
G01X127948Y80906D02*
X126374Y79331D01*
G01X127948Y77756D02*
Y76681D01*
X127448Y76181D01*
X126374D01*
G01X124799Y93504D02*
X123224Y91929D01*
G01X120074Y85630D02*
X121649Y87205D01*
G01X127948Y93504D02*
X126392Y91948D01*
G01X121649Y84055D02*
X120074Y82480D01*
G01X124799Y84055D02*
X123224Y82480D01*
G01X124799Y87205D02*
X123224Y85630D01*
G01X127948Y90354D02*
X126392Y88798D01*
G01X127948Y87205D02*
X126392Y85648D01*
G01X127948Y84055D02*
X126392Y82499D01*
G01X124799Y90354D02*
X123224Y88780D01*
G01X121649Y90354D02*
X120074Y88780D01*
G01X121649Y99803D02*
X120074Y98228D01*
G01X127948Y102953D02*
X126392Y101396D01*
G01X124799Y96654D02*
X123224Y95079D01*
G01X127948Y99803D02*
X126392Y98247D01*
G01X121649Y96654D02*
X120074Y95079D01*
G01X127948Y96654D02*
X126374Y95079D01*
G01X124799Y99803D02*
X123224Y98228D01*
G01X127948Y109252D02*
X126392Y107696D01*
G01X127948Y112402D02*
X126392Y110845D01*
G01X137397Y77756D02*
Y64047D01*
X136626Y63276D01*
X129169D01*
X128669Y63776D01*
Y64526D01*
X129169Y65026D01*
X135322D01*
X135822Y65526D01*
Y66276D01*
X135322Y66776D01*
X129169D01*
X128669Y67276D01*
Y68026D01*
X129169Y68526D01*
X135322D01*
X135822Y69026D01*
Y76181D01*
G01X138972D02*
Y63776D01*
X139472Y63276D01*
X145419D01*
X145919Y63776D01*
Y64526D01*
X145419Y65026D01*
X141047D01*
X140547Y65526D01*
Y66276D01*
X141047Y66776D01*
X145419D01*
X145919Y67276D01*
Y68026D01*
X145419Y68526D01*
X141047D01*
X140547Y69026D01*
Y77756D01*
G01Y80906D02*
X138972Y79331D01*
G01X131098Y80906D02*
X129523Y79331D01*
G01X137397Y80906D02*
X136322D01*
X135822Y80406D01*
Y79331D01*
G01X131098Y77756D02*
X129523Y76181D01*
G01X134248Y77756D02*
X132673Y76181D01*
G01X134248Y80906D02*
X132673Y79331D01*
G01X138969Y91969D02*
X139019Y92019D01*
X139062D01*
X140547Y93504D01*
G01X131098D02*
X129542Y91948D01*
G01X131098Y84055D02*
X130042D01*
X129542Y83555D01*
Y82499D01*
G01X137397Y84055D02*
X136341D01*
X135841Y83555D01*
Y82499D01*
G01X131098Y90354D02*
X129542Y88798D01*
G01X137397Y87205D02*
X136341D01*
X135841Y86705D01*
Y85648D01*
G01X132673Y85630D02*
Y86573D01*
X133305Y87205D01*
X134248D01*
G01Y93504D02*
X135804Y91948D01*
G01X137397Y90354D02*
X135841Y88798D01*
G01X137397Y99803D02*
X135822Y98228D01*
G01X134248Y99803D02*
X132673Y98228D01*
G01X131098Y99803D02*
X129542Y98247D01*
G01X131098Y96654D02*
X129542Y95097D01*
G01X134248Y102953D02*
X132691Y101396D01*
G01X137397Y102953D02*
X135841Y101396D01*
G01X134248Y96654D02*
X132691Y95097D01*
G01X137397Y106102D02*
X135841Y104546D01*
G01X140547Y106102D02*
X138991Y104546D01*
G01X137397Y93504D02*
X135841Y95060D01*
G01X131098Y102953D02*
X129542Y101396D01*
G01X137397Y109252D02*
X135841Y107696D01*
G01X131098Y112402D02*
X129542Y110845D01*
G01X134248Y109252D02*
X132691Y107696D01*
G01X140547Y109252D02*
X138948Y107653D01*
G01X131098Y109252D02*
X129542Y107696D01*
G01X131098Y143900D02*
Y143898D01*
G01X149278Y29840D02*
X150853Y31415D01*
G01X149278Y26691D02*
X147703Y28265D01*
G01X149278Y42439D02*
X150853Y44013D01*
G01X152428Y42439D02*
X150853Y40864D01*
G01X143696Y77756D02*
Y72526D01*
X144196Y72026D01*
X156169D01*
X156669Y71526D01*
Y70776D01*
X156169Y70276D01*
X152624D01*
X152231Y69882D01*
Y67169D01*
X151837Y66776D01*
X151050D01*
X150656Y67169D01*
Y69882D01*
X150262Y70276D01*
X149475D01*
X149081Y69882D01*
Y67169D01*
X148687Y66776D01*
X147900D01*
X147506Y67169D01*
Y69882D01*
X147113Y70276D01*
X142622D01*
X142122Y70776D01*
Y76181D01*
G01X143696Y80906D02*
X142706D01*
X142122Y80322D01*
Y79331D01*
G01X146846Y77756D02*
X145271Y76181D01*
G01X146846Y80906D02*
X145771D01*
X145271Y80406D01*
Y79331D01*
G01X143696Y84055D02*
X142140Y82499D01*
G01X143696Y87205D02*
X142140Y85648D01*
G01X143696Y90354D02*
X142140Y88798D01*
G01X146846Y90354D02*
X145290Y88798D01*
G01X143696Y93504D02*
X142140Y91948D01*
G01X146846Y93504D02*
X145290Y91948D01*
G01X149996Y102953D02*
X148439Y101396D01*
G01X146846Y96654D02*
X145290Y95097D01*
G01X145400Y101320D02*
Y101507D01*
X146846Y102953D01*
G01X145271Y104528D02*
X146846Y106102D01*
G01X161876Y26691D02*
X158727D01*
G01X152428Y23541D02*
Y26691D01*
G01X158727Y29840D02*
X160302Y31415D01*
G01X161876Y29840D02*
X163451Y31415D01*
G01X155577Y26691D02*
X154002Y25116D01*
G01X155577Y29840D02*
X157152Y28265D01*
G01X152428Y29840D02*
X152428Y34565D01*
X154002Y36139D01*
G01X155577Y45588D02*
X157152Y47163D01*
G01X161876Y42439D02*
X161876Y39776D01*
X161376Y39276D01*
X158169D01*
X157669Y38776D01*
Y38026D01*
X158169Y37526D01*
X162169D01*
X162669Y37026D01*
Y35965D01*
X163108Y35526D01*
X163730D01*
X164169Y35965D01*
Y37526D01*
X164669Y38026D01*
X165419D01*
X165919Y37526D01*
Y35965D01*
X166358Y35526D01*
X166980D01*
X167419Y35965D01*
Y38776D01*
X166919Y39276D01*
X163951D01*
X163451Y39776D01*
Y40864D01*
G01X152428Y45588D02*
Y46663D01*
X152928Y47163D01*
X154002D01*
G01X158727Y42439D02*
X157152Y44013D01*
G01X153145Y102953D02*
X151492Y101300D01*
G01X165026Y29840D02*
X166601Y31415D01*
G01X168176Y29840D02*
X169750Y31415D01*
G01X168176Y26691D02*
X169750Y25116D01*
G01X171325Y29840D02*
X172900Y31415D01*
G01X165026Y26691D02*
X166601Y25116D01*
G01X168176Y42439D02*
X168176Y40019D01*
X169750Y38444D01*
Y36139D01*
G01X171325Y45588D02*
X172900Y47163D01*
G01X171325Y42439D02*
X172900Y40864D01*
G01X165026Y42439D02*
X166601Y44013D01*
G01X165026Y45588D02*
X166601Y47163D01*
G01X194253Y22140D02*
X197660D01*
X199200Y20600D01*
G01X190000Y57600D02*
X189500D01*
G01X203400Y21800D02*
X201500D01*
G01D02*
X201000D01*
X199800Y20600D01*
X199200D01*
G01X253700Y102300D02*
Y103100D01*
X253200Y103600D01*
G01X-32500Y-12500D02*
X232500D01*
G03X282500Y37500I0J50000D01*
G01Y152500D01*
G03X232500Y202500I-50000J0D01*
G01X-32500D01*
G03X-57500Y177500I0J-25000D01*
G01Y12500D01*
G03X-32500Y-12500I25000J0D01*
G54D26*
X-27500Y55750D03*
Y66750D03*
G54D71*
X223431Y39608D03*
G54D44*
X1600Y160560D03*
Y172240D03*
G54D62*
X88199Y150589D03*
X81801D03*
Y155411D03*
X88199D03*
G54D17*
X-47240Y56441D03*
X-39760D03*
X-47240Y59000D03*
Y61559D03*
X-39760D03*
Y59000D03*
G54D35*
X-17406Y46626D03*
Y48201D03*
Y49776D03*
Y51350D03*
Y52925D03*
Y54500D03*
Y56075D03*
Y57650D03*
Y59224D03*
Y60799D03*
Y62374D03*
X-5594Y57650D03*
Y56075D03*
Y54500D03*
Y52925D03*
Y51350D03*
Y49776D03*
Y48201D03*
Y46626D03*
Y62374D03*
Y60799D03*
Y59224D03*
G54D53*
X43300Y98900D03*
G54D90*
G01X-26505Y14100D02*
X-29694D01*
X-30859Y12935D01*
G01X-26473Y20006D02*
X-30646D01*
X-30859Y20218D01*
G01X-26505Y29848D02*
X-30678D01*
X-30859Y29667D01*
G01X-26505Y35754D02*
X-29662D01*
X-30859Y36950D01*
G01X-31700Y140700D02*
X-29800D01*
G01X-26505Y14100D02*
X-26489Y14116D01*
G01X-23500Y13500D02*
X-24200D01*
X-24800Y14100D01*
X-26505D01*
G01X-26473Y20006D02*
X-23694D01*
X-23450Y20250D01*
G01X-26473Y20006D02*
X-26489Y20021D01*
G01X-26505Y29848D02*
X-26489Y29864D01*
G01X-26505Y29848D02*
X-23598D01*
X-23500Y29750D01*
G01X-26505Y35754D02*
X-26489Y35769D01*
G01X-22700Y34900D02*
X-23554Y35754D01*
X-24154D01*
X-23700Y36207D01*
Y36400D01*
G01X-26505Y35754D02*
X-24346D01*
X-23700Y36400D01*
G01X-17839Y152650D02*
Y151900D01*
X-24450D01*
G01X3150Y165000D02*
Y161900D01*
X8500D01*
G01D02*
X12300D01*
G01X3150Y165000D02*
Y168000D01*
G01X8600Y171050D02*
X3150D01*
Y168000D01*
G01X24100Y161900D02*
X20250D01*
G01D02*
X16250D01*
G01D02*
X12300D01*
G01D02*
Y162700D01*
G01X8600Y171050D02*
X12350D01*
G01X16350D02*
X20350D01*
G01D02*
X24100D01*
G01X12350D02*
X16350D01*
G01X29528Y24590D02*
Y24745D01*
X28031Y26242D01*
G01X26379Y24590D02*
Y24668D01*
X24850Y26197D01*
G01X32678Y34039D02*
X31131Y32492D01*
G01X27981Y35641D02*
X26435Y37188D01*
X26379D01*
G01Y56086D02*
X26435D01*
X27981Y57633D01*
G01X31131D02*
X29528Y59235D01*
G01X32678Y56086D02*
X31131Y57633D01*
G01D02*
X31075D01*
X29528Y56086D01*
G01X29528Y59235D02*
X29528Y59179D01*
X27981Y57633D01*
G01X29528Y56086D02*
X27981Y57633D01*
G01Y60782D02*
X29528Y59235D01*
G01X26379D02*
X26165D01*
X25100Y60300D01*
G01X24100Y162600D02*
Y161900D01*
G01Y162600D02*
Y162750D01*
G01D02*
X29100D01*
Y162800D01*
G01X29159Y169916D02*
X27584D01*
X26450Y171050D01*
X24100D01*
G01X38977Y30889D02*
X37366Y32500D01*
X37300D01*
G01X45276Y30889D02*
X43704Y32462D01*
X43683D01*
G01D02*
Y32445D01*
X42127Y30889D01*
G01X40531Y32462D02*
Y32443D01*
X38977Y30889D01*
G01X34281Y35641D02*
X32678Y34039D01*
G01X42127Y30889D02*
X40554Y32462D01*
X40531D01*
G01X42127Y34039D02*
Y34058D01*
X40570Y35614D01*
G01X38977Y27739D02*
X37430Y29286D01*
G01X38977Y24590D02*
X37430Y26137D01*
G01X35828Y27739D02*
X34281Y26193D01*
G01X35828Y27739D02*
X34281Y29286D01*
G01X35828Y24590D02*
X34281Y26137D01*
G01X32678Y24590D02*
X32734D01*
X34281Y26137D01*
G01X42127Y40338D02*
X43674Y38791D01*
G01X40580D02*
X42127Y37244D01*
Y37188D01*
G01X45276Y43487D02*
X43746Y41957D01*
X43657D01*
G01X40580Y38791D02*
X40524D01*
X38977Y40338D01*
G01X37430Y41941D02*
X35828Y40338D01*
G01X38977D02*
Y40394D01*
X37430Y41941D01*
G01X35828Y43487D02*
X35883D01*
X37430Y41941D01*
G01X35828Y43487D02*
X34281Y41941D01*
G01X38977Y43487D02*
X37430Y41941D01*
G01Y38791D02*
X35828Y37188D01*
G01X38977Y40338D02*
X37430Y38791D01*
G01X35828Y46637D02*
X34400Y45209D01*
Y45100D01*
G01X37401Y45061D02*
X38977Y46637D01*
G01Y43487D02*
X38975D01*
X37401Y45061D01*
G01X40570Y41894D02*
X38977Y43487D01*
G01X34400Y45100D02*
X35828Y43672D01*
Y43487D01*
G01Y40338D02*
X34281Y41885D01*
Y41941D01*
G01X42127Y40338D02*
X43644Y41855D01*
Y41957D01*
G01X42127Y40338D02*
X40570Y41894D01*
G01X35828Y37188D02*
X34281Y35641D01*
G01X43657Y41957D02*
X45276Y40338D01*
G01X40531Y45070D02*
X40560D01*
X42127Y46637D01*
G01X35828D02*
Y46635D01*
X37401Y45061D01*
G01X38977Y46637D02*
X40531Y45083D01*
Y45070D01*
G01X35828Y43487D02*
X37401Y45061D01*
G01X38977Y43487D02*
X40531Y45041D01*
Y45070D01*
G01X34281Y38791D02*
X35828Y40338D01*
G01D02*
X37374Y38791D01*
X37430D01*
G01X38977Y40338D02*
X39014D01*
X40570Y41894D01*
G01X42127Y40338D02*
X40580Y38791D01*
G01X35828Y37188D02*
X34281Y38735D01*
Y38791D01*
G01X43674D02*
Y38735D01*
X42127Y37188D01*
G01X43674Y38791D02*
X43730D01*
X45276Y40338D01*
G01X37374Y48184D02*
X35828Y46637D01*
G01X37374Y48184D02*
X37430D01*
G01X40500Y51400D02*
X40590D01*
X42127Y52936D01*
G01X40500Y51400D02*
Y51413D01*
X38977Y52936D01*
G01X35828Y49787D02*
X37374Y48240D01*
Y48184D01*
G01X35828Y52936D02*
X35883D01*
X37430Y54483D01*
G01X38977Y46637D02*
X37430Y48184D01*
G01X43721Y48221D02*
X45276Y46666D01*
Y46637D01*
G01Y49787D02*
X43721Y48232D01*
Y48221D01*
G01X42127Y46637D02*
X42137D01*
X43721Y48221D01*
G01X38977Y52936D02*
X37430Y54483D01*
G01X45276Y52936D02*
X43732Y51392D01*
X43732Y51332D01*
G01D02*
X42127Y52936D01*
G01X38977Y59235D02*
X40456Y57757D01*
X40492D01*
G01X44000Y76400D02*
X44200D01*
X48000Y72600D01*
G01X51576Y30889D02*
X53109Y32422D01*
X53139D01*
G01X48426Y30889D02*
X49987Y32450D01*
Y32462D01*
G01X53178Y29349D02*
X53115D01*
X51576Y30889D01*
G01X53139Y32422D02*
X54672Y30889D01*
X54725D01*
G01X51576D02*
X51560D01*
X49987Y32462D01*
G01X54725Y30889D02*
X53185Y29349D01*
X53178D01*
G01X51576Y27739D02*
X53034Y26282D01*
G01X51576Y24590D02*
X53034Y26048D01*
Y26282D01*
G01X53053Y23112D02*
X51576Y24590D01*
G01X54725Y40338D02*
X53224Y41839D01*
X53100D01*
G01D02*
X54725Y43465D01*
Y43487D01*
G01D02*
X53189Y45024D01*
G01X56272Y35585D02*
Y35641D01*
X54725Y37188D01*
G01X51576D02*
X53122Y35641D01*
G01D02*
X53178D01*
X54725Y37188D01*
G01X51576Y46637D02*
X53122Y48184D01*
G01X48426Y49787D02*
X49973Y51334D01*
G01X54725Y49787D02*
X56272Y51334D01*
G01X45276Y49787D02*
X45484D01*
X46953Y51256D01*
G01X46835Y48222D02*
Y48228D01*
X45276Y49787D01*
G01X56272Y48184D02*
Y48240D01*
X54725Y49787D01*
G01X53122Y48184D02*
X54669Y46637D01*
X54725D01*
G01X49973Y51334D02*
X50029D01*
X51576Y49787D01*
G01X56272Y51334D02*
Y51389D01*
X54725Y52936D01*
G01X46835Y48222D02*
X46861D01*
X48426Y49787D01*
G01D02*
X48422D01*
X46953Y51256D01*
G01X54725Y49787D02*
X53122Y48184D01*
G01X54725Y46637D02*
X56272Y48184D01*
G01X45276Y46637D02*
X46835Y48196D01*
Y48222D01*
G01X51576Y49787D02*
Y49731D01*
X53122Y48184D01*
G01X54725Y52936D02*
X56272Y54483D01*
G01X45276Y52936D02*
X46953Y51259D01*
Y51256D01*
G01X48426Y56086D02*
Y56117D01*
X50026Y57717D01*
G01X51576Y52936D02*
X53122Y54483D01*
G01X45276Y62385D02*
X45280D01*
X46832Y60832D01*
G01X54725Y59235D02*
X56272Y60782D01*
G01X57875Y59235D02*
X57819D01*
X56272Y60782D01*
G01X46832Y60832D02*
X48426Y59239D01*
Y59235D01*
G01X53208Y60800D02*
Y60752D01*
X54725Y59235D01*
G01X51576D02*
X50060Y60751D01*
X50026D01*
G01X51576Y62385D02*
X53152Y63961D01*
G01X54725Y62385D02*
X56262Y63922D01*
G01X48300Y70200D02*
X48200Y70300D01*
Y72400D01*
X48000Y72600D01*
G01X51500Y118100D02*
X46046D01*
Y117241D01*
G01X64174Y24590D02*
X62547Y26217D01*
G01X64174Y24590D02*
X66566D01*
X66574Y24582D01*
G01X62547Y26217D02*
X62612Y26282D01*
X62717D01*
X64174Y27739D01*
G01X61024D02*
X62547Y26217D01*
G01X61024Y56086D02*
X62571Y57633D01*
G01X64200Y64000D02*
Y62411D01*
X64174Y62385D01*
G01X72000Y72600D02*
X77403D01*
G01D02*
X77588Y72785D01*
G01X77000Y71500D02*
Y72197D01*
X77403Y72600D01*
G01X100400Y100200D02*
Y99600D01*
X98800Y98000D01*
X93500D01*
X91000Y100500D01*
G01X103800Y114250D02*
Y107600D01*
X102100Y105900D01*
X98300D01*
X96700Y107500D01*
X86500D01*
X84100Y109900D01*
Y111700D01*
X84400Y112000D01*
G01X92200Y122500D02*
X85300D01*
X84100Y121300D01*
Y112300D01*
X84400Y112000D01*
G01D02*
X87387D01*
X87541Y112154D01*
G01X88441Y132454D02*
X88800Y132094D01*
Y127900D01*
G01X93500Y143000D02*
X86000D01*
X85100Y142100D01*
Y129400D01*
X86600Y127900D01*
X88800D01*
G01D02*
X104800D01*
X106000Y129100D01*
G01X88740Y164110D02*
Y167140D01*
X89000Y167400D01*
G01X96500Y53100D02*
X93400D01*
X92750Y53750D01*
G01X92659Y118846D02*
X92364D01*
X92200Y119010D01*
Y122500D01*
G01X97600Y121800D02*
Y122000D01*
G01D02*
Y123200D01*
X98800Y124400D01*
X102600D01*
X103800Y123200D01*
Y120000D01*
G01X97600Y122000D02*
X97100Y122500D01*
X92200D01*
G01X93500Y143000D02*
Y139206D01*
X93559Y139146D01*
G01X106000Y134800D02*
X102600D01*
X102200Y134400D01*
G01X93500Y143000D02*
X97191D01*
X98361Y141830D01*
G01X103800Y120000D02*
Y114250D01*
G01X106000Y129100D02*
Y134800D01*
G01X103800Y120000D02*
X104100D01*
G01X119032Y15667D02*
X122506Y19142D01*
Y21966D01*
G01X126906Y15667D02*
X128806Y17567D01*
Y21966D01*
G01X122832Y15667D02*
X125656Y18491D01*
Y21966D01*
G01X126906Y56612D02*
X128806Y54712D01*
Y50313D01*
G01X126906Y61336D02*
Y56612D01*
G01X119032Y61336D02*
Y56612D01*
G01D02*
X122506Y53137D01*
G01D02*
Y50313D01*
G01X122832Y61336D02*
Y56612D01*
G01D02*
X125656Y53787D01*
Y50313D01*
G01X126300Y117144D02*
X126384D01*
X127941Y118701D01*
X127948D01*
G01Y150197D02*
X126372Y151773D01*
G01X134780Y15667D02*
X135105Y15992D01*
Y21966D01*
G01X130706Y15667D02*
X131955Y16916D01*
Y21966D01*
G01X134780Y61336D02*
Y56612D01*
G01D02*
X135105Y56287D01*
Y50313D01*
G01X138580Y61336D02*
Y56612D01*
G01X130706Y61336D02*
Y56612D01*
G01D02*
X131955Y55362D01*
Y50313D01*
G01X138580Y61336D02*
X142641D01*
X142654Y61349D01*
G01X140547Y118701D02*
X138991Y117144D01*
G01X134248Y115551D02*
X132691Y113995D01*
G01X131098Y115551D02*
X131135D01*
X132691Y113995D01*
G01X134248Y125000D02*
X132672Y126576D01*
G01X131098Y125000D02*
Y125002D01*
X132672Y126576D01*
G01X137397Y121850D02*
X135841Y123407D01*
G01X139097Y126446D02*
X139101D01*
X140547Y125000D01*
G01Y131299D02*
X138971Y132875D01*
G01X134248Y134449D02*
X132672Y136025D01*
G01X131098Y134449D02*
Y134451D01*
X132672Y136025D01*
G01X134248Y150197D02*
X132672Y151773D01*
G01X140547Y147047D02*
X138973Y145474D01*
X138971D01*
G01X140547Y143898D02*
X138971Y145474D01*
G01X142654Y15667D02*
X144554Y17567D01*
Y21966D01*
G01X150528Y15667D02*
X150853Y15992D01*
Y21966D01*
G01X146454Y15667D02*
X147703Y16916D01*
Y21966D01*
G01X142654Y56612D02*
X144554Y54712D01*
Y50313D01*
G01X150528Y61336D02*
Y56612D01*
G01D02*
X154002Y53137D01*
Y50313D01*
G01X146454Y56612D02*
X147703Y55362D01*
Y50313D01*
G01X149996Y99803D02*
X148491Y98298D01*
Y98344D01*
G01X146846Y99803D02*
X145290Y98247D01*
G01X146846Y115551D02*
X145290Y113995D01*
G01X146846Y118701D02*
X145290Y117144D01*
G01X143696Y109252D02*
X142168Y107724D01*
Y107668D01*
G01X149996Y112402D02*
X148439Y110845D01*
G01X142168Y107668D02*
X143696Y106139D01*
Y106102D01*
G01X149996Y109252D02*
Y109289D01*
X148439Y110845D01*
G01X143696Y115551D02*
X143200Y115055D01*
Y112935D01*
X143696Y112439D01*
Y112402D01*
G01D02*
X144328Y111770D01*
X146215D01*
X146846Y112402D01*
G01X143696Y118701D02*
Y118738D01*
X142140Y120294D01*
G01X140547Y121850D02*
X142132Y123435D01*
G01X149996Y125000D02*
X153145Y121850D01*
G01X146846Y128150D02*
X145270Y129726D01*
G01X143696Y128150D02*
Y128152D01*
X145270Y129726D01*
G01X145400Y123550D02*
Y123554D01*
X146846Y125000D01*
G01Y121850D02*
X145290Y120294D01*
G01X149996Y128150D02*
X148420Y129726D01*
G01X143696Y125000D02*
X142074Y126622D01*
G01D02*
X140547Y128150D01*
G01X149996Y121850D02*
X148439Y120294D01*
G01X143696Y140748D02*
X142120Y142324D01*
G01X143696Y131299D02*
X142120Y132875D01*
G01X143696Y134449D02*
X142120Y136025D01*
G01X143696Y137598D02*
X143694D01*
X142120Y136025D01*
G01X149996Y131299D02*
Y131302D01*
X151569Y132875D01*
G01X149996Y134449D02*
X148420Y136025D01*
G01X149996Y140748D02*
X148420Y142324D01*
G01X146846Y140748D02*
Y140750D01*
X148420Y142324D01*
G01X146846Y143898D02*
X145270Y145474D01*
G01X143696Y143898D02*
Y143900D01*
X145270Y145474D01*
G01X149996Y150197D02*
X148420Y151773D01*
G01X149996Y153346D02*
X148420Y154922D01*
G01X154328Y15667D02*
Y17867D01*
X154002Y18192D01*
Y21900D01*
G01X162202Y15667D02*
X160302Y17567D01*
Y21966D01*
G01X158402Y15667D02*
X157152Y16916D01*
Y21966D01*
G01X162202Y61336D02*
Y56612D01*
G01D02*
X163451Y55362D01*
Y50313D01*
G01X154328Y61336D02*
Y56612D01*
G01D02*
X157152Y53787D01*
Y50313D01*
G01X158402Y61336D02*
Y56612D01*
G01D02*
X160302Y54712D01*
Y50313D01*
G01X162594Y106102D02*
X161038Y104546D01*
G01X159444Y106102D02*
X157888Y104546D01*
G01X156295Y106102D02*
X154739Y104546D01*
G01X153145Y106102D02*
X153182D01*
X154739Y104546D01*
G01X162594Y102953D02*
X161038Y101396D01*
G01X159444Y102953D02*
X157888Y101396D01*
G01X151640Y98344D02*
Y98298D01*
G01D02*
Y98159D01*
X153145Y96654D01*
G01X151640Y98298D02*
X153145Y99803D01*
G01X156295Y118701D02*
X156332D01*
X157888Y117144D01*
G01X156295Y118701D02*
X154739Y117144D01*
G01X162594Y118701D02*
X161038Y117144D01*
G01X162594Y115551D02*
X161038Y113995D01*
G01X159444Y115551D02*
X157888Y113995D01*
G01X156295Y115551D02*
X154739Y113995D01*
G01D02*
X153182Y115551D01*
G01D02*
X153145D01*
G01X162594Y109252D02*
X161019Y107677D01*
G01X156295Y109252D02*
X154739Y107696D01*
G01X153145Y109252D02*
X153182D01*
X154739Y107696D01*
G01X162594Y112402D02*
X161038Y110845D01*
G01X156295Y118701D02*
X157888Y120294D01*
G01X156295Y121850D02*
X156332D01*
X157888Y120294D01*
G01X162594Y125000D02*
X163420Y125826D01*
Y127324D01*
X162594Y128150D01*
G01Y125000D02*
X159444Y121850D01*
G01Y128150D02*
X157868Y129726D01*
G01X162594Y128150D02*
X161122Y129622D01*
G01D02*
X160914D01*
X159444Y128152D01*
Y128150D01*
G01X156295Y125000D02*
Y125002D01*
X157868Y126576D01*
G01X159444Y125000D02*
X161001Y126556D01*
G01X159444Y125000D02*
X157868Y126576D01*
G01X154700Y120500D02*
X154600Y120600D01*
X154396D01*
X153145Y121850D01*
G01X156295Y128150D02*
X154719Y129726D01*
G01X153145Y128150D02*
X151569Y129726D01*
G01X162594Y121850D02*
X161038Y120294D01*
G01X151473Y126673D02*
X153145Y125000D01*
G01X157868Y129726D02*
X157871D01*
X159444Y131299D01*
G01Y134449D02*
X159442D01*
X157868Y132875D01*
G01X159444Y131299D02*
X157868Y132875D01*
G01X153145Y140748D02*
Y140750D01*
X154719Y142324D01*
G01X156295Y140748D02*
X154719Y142324D01*
G01X156295Y137598D02*
X154719Y139174D01*
G01X162594Y131299D02*
X161018Y132875D01*
G01X156295Y131299D02*
X154719Y132875D01*
G01X153145Y131299D02*
X151569Y132875D01*
G01X153145Y134449D02*
X151569Y136025D01*
G01X159444Y140748D02*
X157868Y142324D01*
G01X162594Y140748D02*
X161018Y142324D01*
G01X162594Y134449D02*
X161018Y136025D01*
G01X156295Y134449D02*
X157871Y136025D01*
G01X162594Y143898D02*
X161018Y145474D01*
G01X159444Y150197D02*
X157868Y151773D01*
G01X159444Y153346D02*
X157868Y154922D01*
G01X172550Y15667D02*
X169750Y18467D01*
Y21966D01*
G01X166950Y15667D02*
X166601Y16016D01*
Y21966D01*
G01X170076Y61336D02*
Y59087D01*
X172550Y56612D01*
G01D02*
X169750Y53812D01*
Y50313D01*
G01X166276Y61336D02*
Y57287D01*
X166950Y56612D01*
G01D02*
X166601Y56262D01*
Y50313D01*
G01X167124Y104639D02*
Y104722D01*
X165744Y106102D01*
G01Y102953D02*
X167280Y101416D01*
G01X168893Y99803D02*
X168817Y99803D01*
X167280Y98266D01*
G01X165744Y99803D02*
X167280Y98266D01*
G01X173580D02*
X173656D01*
X175192Y99803D01*
G01X172043Y99803D02*
X173580Y98266D01*
G01X175192Y102953D02*
X175116D01*
X173580Y101416D01*
G01X172043Y102953D02*
X173580Y101416D01*
G01X170468Y113976D02*
Y113979D01*
X172041Y115551D01*
X172043D01*
G01X170468Y113976D02*
X170466D01*
X168893Y112404D01*
Y112402D01*
G01X175192Y109252D02*
X173618Y110827D01*
G01X165744Y109252D02*
X167318Y107677D01*
G01X168893Y109252D02*
X170468Y107677D01*
G01X172043Y109252D02*
X173618Y107677D01*
G01Y110827D02*
X172043Y109252D01*
G01X165744Y112402D02*
X167280Y110865D01*
X167357D01*
G01D02*
X168893Y112402D01*
G01D02*
X170468Y110827D01*
G01X172043Y112402D02*
X173618Y110827D01*
G01D02*
X175192Y112402D01*
G01D02*
X176767Y110827D01*
G01X172043Y118701D02*
X173618Y117126D01*
G01D02*
X175192Y118701D01*
G01X173618Y117126D02*
X172043Y115551D01*
G01X175192D02*
X173618Y117126D01*
G01X175192Y115551D02*
X176767Y113976D01*
G01X172043Y112402D02*
X170468Y113976D01*
G01X176767D02*
X176765D01*
X175192Y112404D01*
Y112402D01*
G01X170468Y110827D02*
X170470D01*
X172043Y112399D01*
Y112402D01*
G01X165744Y109252D02*
Y109254D01*
X167316Y110827D01*
X167321D01*
X168893Y109254D01*
Y109252D01*
G01X170468Y110827D02*
Y110824D01*
G01X175192Y109252D02*
X175195D01*
X176767Y110824D01*
Y110827D01*
G01X175192Y109252D02*
X175190D01*
X173618Y107680D01*
Y107677D01*
G01X168893Y109252D02*
X168891D01*
X167318Y107680D01*
Y107677D01*
G01X173618D02*
Y107675D01*
X175190Y106102D01*
X175192D01*
G01D02*
X176767Y104528D01*
G01X170468Y110824D02*
X168896Y109252D01*
X168893D01*
G01X175192Y106102D02*
Y106192D01*
X176500Y107500D01*
X176590D01*
G01D02*
Y107854D01*
X175192Y109252D01*
G01X170468Y110824D02*
X172041Y109252D01*
X172043D01*
G01X165744Y118701D02*
X167280Y117164D01*
G01X165744Y115551D02*
X167280Y114015D01*
G01D02*
X168817Y115551D01*
X168893D01*
G01X175192Y125000D02*
X176768Y126576D01*
G01X165744Y128150D02*
X167320Y129726D01*
G01X168893Y125000D02*
X170469Y126576D01*
G01X165744Y125000D02*
X167320Y126576D01*
G01X172043Y128150D02*
X173619Y129726D01*
G01Y126576D02*
X175192Y128150D01*
G01X172043Y125000D02*
X173619Y126576D01*
G01X172043Y128150D02*
X172045D01*
X173619Y126576D01*
G01X175192Y128150D02*
Y128152D01*
X173619Y129726D01*
G01X175192Y128150D02*
X176768Y129726D01*
G01X172043Y121850D02*
X173580Y120314D01*
G01X165744Y121850D02*
X167280Y120314D01*
G01X168893Y128150D02*
X170469Y129726D01*
G01X168893Y134449D02*
X170469Y136025D01*
G01X165744Y131299D02*
X167320Y132875D01*
G01X175192Y131299D02*
X175195D01*
X176768Y129726D01*
G01X172043Y131299D02*
X173619Y132875D01*
G01X172043Y134449D02*
X172045D01*
X173619Y132875D01*
G01X175192Y134449D02*
X173619Y132875D01*
G01X175192Y134449D02*
X175195D01*
X176768Y132875D01*
G01X173619Y129726D02*
X173616D01*
X172043Y131299D01*
G01X175192Y137598D02*
X176768Y139174D01*
G01X168893Y140748D02*
Y140750D01*
X167320Y142324D01*
G01X172043Y140748D02*
Y140750D01*
X170469Y142324D01*
G01X165744Y140748D02*
X167320Y142324D01*
G01X165744Y134449D02*
X167320Y136025D01*
G01X168893Y131299D02*
X168896D01*
X170469Y129726D01*
G01X175192Y143898D02*
X175195D01*
X176768Y142324D01*
G01X175192Y140748D02*
X176768Y142324D01*
G01X168893Y150197D02*
X170469Y151773D01*
G01X168893Y153346D02*
X170469Y154922D01*
G01X179879Y88818D02*
X178342Y90354D01*
G01Y87205D02*
Y87281D01*
X179879Y88818D01*
G01X181492Y96654D02*
X183002Y98164D01*
Y98256D01*
G01D02*
Y98295D01*
X181494Y99803D01*
X181492D01*
G01X187791Y93504D02*
X186263Y95031D01*
X186169D01*
G01X184641Y102953D02*
X186247Y101347D01*
G01X184641Y99803D02*
X186178Y98266D01*
G01X184641Y96654D02*
Y96730D01*
X186178Y98266D01*
G01X186169Y95031D02*
X187791Y96654D01*
G01X181492Y109252D02*
Y109328D01*
X183028Y110865D01*
G01X181492Y112402D02*
X183028Y110865D01*
G01X176767Y110827D02*
X178342Y112402D01*
G01X176767Y113976D02*
Y113974D01*
X178340Y112402D01*
X178342D01*
G01Y109252D02*
X176590Y107500D01*
G01X181492Y115551D02*
X183028Y114015D01*
G01X178342Y115551D02*
X179879Y114015D01*
G01X184641Y112402D02*
X186178Y110865D01*
G01X187791Y109252D02*
X186178Y110865D01*
G01X184641Y118701D02*
X186178Y117164D01*
G01X184641Y115551D02*
Y115628D01*
X186178Y117164D01*
G01X184641Y106102D02*
Y106179D01*
X186178Y107715D01*
G01X184641Y109252D02*
X186178Y107715D01*
G01X184641Y128150D02*
X186217Y129726D01*
G01X181492Y128150D02*
X183068Y129726D01*
G01X184641Y121850D02*
X186178Y120314D01*
G01X184641Y125000D02*
X186217Y126576D01*
G01X178342Y128150D02*
Y128152D01*
X176768Y129726D01*
G01X178342Y128150D02*
X179918Y129726D01*
G01Y126576D02*
X179916D01*
X178342Y128150D01*
G01Y125000D02*
X179918Y126576D01*
G01X181492Y125000D02*
Y125002D01*
X179918Y126576D01*
G01X181492Y125000D02*
X183068Y126576D01*
G01X178342Y134449D02*
X178344D01*
X179918Y132875D01*
G01X178342Y134449D02*
X176768Y132875D01*
G01X178342Y131299D02*
X178344D01*
X179918Y129726D01*
G01X178342Y131299D02*
Y131302D01*
X176768Y132875D01*
G01X178342Y131299D02*
X179918Y132875D01*
G01X176768Y129726D02*
X178342Y131299D01*
G01X181492Y137598D02*
X183068Y139174D01*
G01X181492Y134449D02*
X183068Y136025D01*
G01X184641Y131299D02*
X186217Y132875D01*
G01X184641Y134449D02*
X184644D01*
X186217Y132875D01*
G01X184641Y137598D02*
X186217Y139174D01*
G01X184641Y140748D02*
X184644D01*
X186217Y139174D01*
G01X178342Y150197D02*
X179918Y151773D01*
G01X178342Y153346D02*
X179918Y154922D01*
G01X194090Y90354D02*
X195627Y88818D01*
G01X194090Y96654D02*
X195627Y95117D01*
G01X197240Y96654D02*
X198776Y95117D01*
G01X187791Y118701D02*
X189328Y117164D01*
G01X194090Y115551D02*
X195627Y114015D01*
G01X197240Y115551D02*
X198593Y113910D01*
X198700Y113900D01*
G01X194090Y125000D02*
X195666Y126576D01*
G01X197240Y125000D02*
X198816Y126576D01*
G01X187791Y137598D02*
X189367Y139174D01*
G01X189272Y142229D02*
X187791Y140748D01*
G01X197240Y134449D02*
X198816Y136025D01*
G01X187791Y143898D02*
X189367Y145474D01*
G01X190941Y143898D02*
X192516Y145474D01*
G01X187791Y150197D02*
X189367Y151773D01*
G01X194090Y150197D02*
X195666Y151773D01*
G01X194090Y156496D02*
X195666Y158072D01*
G01X187791Y153346D02*
X189367Y154922D01*
G01X200389Y90354D02*
X201926Y88818D01*
G01X203539Y93504D02*
X205051Y91992D01*
X205066D01*
G01X206689Y121850D02*
X208265Y120274D01*
G01X206689Y147047D02*
X208265Y148623D01*
G01X203539Y147047D02*
X205115Y148623D01*
G01X223600Y148500D02*
Y148100D01*
X222250Y146750D01*
X221250D01*
G01X223600Y152500D02*
Y148500D01*
G54D81*
G01X242824Y145248D02*
X241840Y146232D01*
Y148600D01*
G01X243809Y148594D02*
Y146232D01*
X244793Y145248D01*
G01X245777Y148594D02*
Y146232D01*
X246761Y145248D01*
G01X247746Y148594D02*
Y146232D01*
X248730Y145248D01*
G01X249714Y148594D02*
Y146232D01*
X250698Y145248D01*
G54D54*
X44513Y129759D03*
X40970D03*
X37427D03*
X33884D03*
Y174641D03*
X37427D03*
X40970D03*
X44513D03*
X55143Y129759D03*
X51600D03*
X48057D03*
Y174641D03*
X51600D03*
X55143D03*
X65773Y129759D03*
X62230D03*
X58687D03*
Y174641D03*
X62230D03*
X65773D03*
X69316Y129759D03*
Y174641D03*
G54D72*
X214769Y38820D03*
X223431Y46380D03*
X214769D03*
G54D45*
X20000Y-5000D03*
Y185000D03*
G54D36*
X-12992Y73996D03*
Y136004D03*
G54D18*
X-43500Y61559D03*
G54D63*
X88740Y164110D03*
X85000D03*
X81260D03*
Y173890D03*
X85000D03*
X88740D03*
G54D27*
X-25000Y82500D03*
Y127500D03*
G54D82*
G01X35600Y115000D02*
X36100Y114500D01*
X37900D01*
X38400Y114000D01*
Y110800D01*
X39363Y109837D01*
Y108325D01*
G01X42513D02*
Y110687D01*
X42500Y110700D01*
G01X47237Y110170D02*
Y110150D01*
X47250D01*
Y108338D01*
X47237Y108325D01*
G01X57875Y30889D02*
X57870D01*
X56330Y29349D01*
G01X64174Y34039D02*
X64761D01*
X66141Y32659D01*
G01X96900Y176700D02*
Y173800D01*
X96941Y173765D01*
G01X194090Y134449D02*
X197240D01*
G01X270931Y84731D02*
X271100Y84900D01*
G54D19*
X-40984Y78898D03*
Y88898D03*
Y121102D03*
Y131102D03*
G54D46*
X20000Y5000D03*
Y195000D03*
X30000Y-5000D03*
Y5000D03*
Y185000D03*
Y195000D03*
X40000Y-5000D03*
Y5000D03*
Y185000D03*
Y195000D03*
X50000Y-5000D03*
Y5000D03*
Y185000D03*
Y195000D03*
X70000Y-5000D03*
X60000D03*
X70000Y5000D03*
X60000D03*
X70000Y185000D03*
X60000D03*
X70000Y195000D03*
X60000D03*
X80000Y-5000D03*
Y5000D03*
Y185000D03*
Y195000D03*
X90000Y-5000D03*
Y5000D03*
Y185000D03*
Y195000D03*
X100000Y-5000D03*
Y5000D03*
Y185000D03*
Y195000D03*
X110000Y-5000D03*
Y5000D03*
Y185000D03*
Y195000D03*
X130000Y-5000D03*
X120000D03*
X130000Y5000D03*
X120000D03*
X130000Y185000D03*
X120000D03*
X130000Y195000D03*
X120000D03*
X140000Y-5000D03*
Y5000D03*
Y185000D03*
Y195000D03*
X150000Y-5000D03*
Y5000D03*
Y185000D03*
Y195000D03*
X160000Y-5000D03*
Y5000D03*
Y185000D03*
Y195000D03*
X170000Y-5000D03*
Y5000D03*
Y185000D03*
Y195000D03*
X180000Y-5000D03*
Y5000D03*
Y185000D03*
Y195000D03*
X200000Y-5000D03*
X190000D03*
X200000Y5000D03*
X190000D03*
X200000Y185000D03*
X190000D03*
X200000Y195000D03*
X190000D03*
X210000Y-5000D03*
Y5000D03*
Y185000D03*
Y195000D03*
X220000Y-5000D03*
Y5000D03*
Y185000D03*
Y195000D03*
X230000Y-5000D03*
Y5000D03*
Y185000D03*
Y195000D03*
X240000Y-5000D03*
Y5000D03*
Y185000D03*
Y195000D03*
G54D55*
X55300Y13500D03*
X49700D03*
X100700Y70000D03*
X106300D03*
X172550Y15667D03*
X166950D03*
X172550Y56612D03*
X166950D03*
X231800Y105000D03*
X237400D03*
X268700Y164250D03*
X274300D03*
G54D28*
X-35161Y146350D03*
Y152650D03*
Y186350D03*
Y192650D03*
X-17839Y152650D03*
Y146350D03*
Y186350D03*
Y192650D03*
G54D64*
X102059Y166235D03*
X96941D03*
Y173765D03*
X99500D03*
X102059D03*
G54D37*
X0Y0D03*
Y190000D03*
X260000Y12500D03*
Y177500D03*
G54D73*
X241920Y27910D03*
Y79650D03*
G54D83*
G01X139829Y26691D02*
Y25903D01*
X141404Y24328D01*
Y21966D01*
X138254Y18816D01*
Y15992D01*
X138580Y15667D01*
G01X136680Y26691D02*
X138254Y25116D01*
Y21966D01*
G54D29*
X-26731Y164200D03*
X-18069Y160460D03*
Y167940D03*
G54D56*
X58824Y111176D03*
X67176Y102824D03*
G54D74*
X231250Y40000D03*
Y49840D03*
Y57720D03*
Y67560D03*
G54D65*
G01X-39900Y186500D02*
Y190300D01*
X-37550Y192650D01*
X-35161D01*
G01Y152650D02*
X-31350D01*
G01X-31900Y161500D02*
Y157600D01*
G01D02*
X-29700D01*
G01X-31900Y173700D02*
X-29700D01*
G01X-31900Y166300D02*
X-29900D01*
G01X-35161Y192650D02*
X-17839D01*
G01X-16294Y-5072D02*
Y1006D01*
X-15000Y2300D01*
Y6500D01*
G01X-23500Y13500D02*
X-22200D01*
X-21700Y13000D01*
G01X-21500Y20100D02*
X-21200Y19800D01*
Y17300D01*
G01X-23450Y20250D02*
X-21650D01*
X-21500Y20100D01*
G01X-23500Y29750D02*
X-22250D01*
X-21800Y29300D01*
G01X-24500Y177600D02*
Y174500D01*
X-18069Y168069D01*
Y167940D01*
G01D02*
X-16040D01*
X-14000Y165900D01*
G01X-24450Y177650D02*
X-24500Y177600D01*
G01X-19400Y181500D02*
Y179150D01*
X-20900Y177650D01*
X-24450D01*
G01X0Y102500D02*
X-7750D01*
X-12900Y107650D01*
Y109700D01*
G01X8800Y67450D02*
X7250D01*
X6900Y67100D01*
G01X0Y102500D02*
X5000D01*
X10000Y107500D01*
G01X29528Y27739D02*
X28031Y26242D01*
G01X26379Y27739D02*
X24850Y26210D01*
Y26197D01*
G01X29528Y34039D02*
X27942Y32452D01*
G01X29528Y37188D02*
X27981Y35641D01*
G01X31131D02*
X29585Y37188D01*
X29528D01*
G01X32678D02*
X31131Y35641D01*
G01X24400Y35456D02*
X24647D01*
X26379Y37188D01*
G01X32678Y49787D02*
X31131Y51334D01*
G01X26379Y46637D02*
X27926Y48184D01*
X27981D01*
G01X29528Y46637D02*
X27981Y48184D01*
G01X29528Y49787D02*
X27981Y48240D01*
Y48184D01*
G01X26379Y49787D02*
X26379Y49751D01*
X24889Y48261D01*
G01X31131Y48184D02*
Y48240D01*
X32678Y49787D01*
G01X24889Y48261D02*
X26379Y46772D01*
Y46637D01*
G01X31131Y48184D02*
X29585Y46637D01*
X29528D01*
G01X27981Y48184D02*
X26379Y49787D01*
G01X31131Y48184D02*
X29528Y49787D01*
G01X31131Y48184D02*
X32678Y46637D01*
G01X27981Y51334D02*
X29528Y49787D01*
G01X26379D02*
X27926Y51334D01*
X27981D01*
G01X29528Y49787D02*
X31075Y51334D01*
X31131D01*
G01X33570Y162830D02*
X29159D01*
G01X34500Y167200D02*
X31783Y169916D01*
X29159D01*
G01X43644Y26237D02*
X42141Y27739D01*
X42127D01*
G01Y24590D02*
Y24720D01*
X43644Y26237D01*
G01X42127Y27739D02*
X43444Y29056D01*
G01X42127Y56086D02*
X43722Y57682D01*
Y57717D01*
G01X35828Y56086D02*
X34281Y57633D01*
G01X38977Y56086D02*
X37430Y57633D01*
G01X35828Y62385D02*
Y64495D01*
X35659Y64664D01*
G01X40000Y72600D02*
X37860Y70460D01*
Y63502D01*
X38977Y62385D01*
G01X42127Y59235D02*
X40580Y60782D01*
G01X42127Y62385D02*
Y62513D01*
X40082Y64558D01*
Y64860D01*
G01X33600Y162800D02*
X33570Y162830D01*
G01X46618Y1618D02*
X50000Y5000D01*
G01D02*
X53382Y8382D01*
G01X46618D02*
X50000Y5000D01*
G01D02*
X53382Y1618D01*
G01X48426Y24590D02*
X49973Y23043D01*
G01Y26193D02*
X51520Y27739D01*
X51576D01*
G01X49973Y26193D02*
X48426Y24646D01*
Y24590D01*
G01X51576D02*
X51520D01*
X49973Y23043D01*
G01X48426Y27739D02*
X49973Y26193D01*
G01X48426Y37188D02*
X47124Y38490D01*
X47111D01*
X46953Y38648D01*
Y38687D01*
G01X57875Y40338D02*
X56370Y41843D01*
Y41918D01*
G01X56299Y45063D02*
X57875Y43487D01*
G01X45276Y56086D02*
X46750Y57559D01*
X46756D01*
X46914Y57717D01*
G01X48426Y62385D02*
Y64422D01*
X49750Y65746D01*
Y68750D01*
X48300Y70200D01*
G01X61024Y30889D02*
X62453Y29460D01*
X62600D01*
G01D02*
X62745D01*
X64174Y30889D01*
G01D02*
X65673Y29390D01*
X65830D01*
G01X61024Y43487D02*
X60968D01*
X59422Y41941D01*
G01X64174Y43487D02*
X64118D01*
X62571Y41941D01*
G01X61024Y40338D02*
X59422Y41941D01*
G01X64174Y40338D02*
X62571Y41941D01*
G01D02*
X61024Y43487D01*
G01X62571Y41941D02*
X61024Y40394D01*
Y40338D01*
G01X59422Y41941D02*
X57875Y43487D01*
G01X59422Y41941D02*
X57875Y40394D01*
Y40338D01*
G01X61024Y52936D02*
X62571Y54483D01*
G01X59422D02*
X60968Y52936D01*
X61024D01*
G01X62571Y54483D02*
X64118Y52936D01*
X64174D01*
G01X57875D02*
X59422Y54483D01*
G01X65777D02*
X64230Y52936D01*
X64174D01*
G01X62230Y129759D02*
Y134170D01*
G01Y170270D02*
Y174641D01*
G01X69830Y162830D02*
X74041D01*
G01X69900Y169900D02*
X69916Y169916D01*
G01D02*
X74041D01*
G01X111100Y120000D02*
Y115000D01*
G01D02*
Y109900D01*
G01X111250Y123750D02*
Y120150D01*
X111100Y120000D01*
G01X143696Y115551D02*
X142101Y117147D01*
G01X149996Y128150D02*
X151473Y126673D01*
G01X172900Y50313D02*
X172913Y50300D01*
X178600D01*
X182100Y46800D01*
Y44000D01*
G01X175192Y121850D02*
X176729Y120314D01*
G01X179600Y18200D02*
Y15700D01*
X180600Y14700D01*
G01X179600Y18200D02*
X179800Y18400D01*
X184347D01*
G01Y14660D02*
X187440D01*
X187600Y14500D01*
G01X184347Y22140D02*
X181600D01*
G01X179600Y22000D02*
X181460D01*
X181600Y22140D01*
G01X176729Y120314D02*
X178342Y118701D01*
G01X207200Y21800D02*
X208700D01*
X209300Y22400D01*
G01X207200Y18000D02*
Y21800D01*
G01X213800Y18600D02*
Y16600D01*
G01X217500Y22400D02*
X218931D01*
X219716Y23184D01*
G01X213800Y22400D02*
X211600D01*
G01X217500D02*
X213800D01*
G01X230400Y18400D02*
X231600D01*
X233700Y16300D01*
G01X230400Y15300D02*
X232700D01*
X233700Y16300D01*
G01X231800Y105000D02*
Y109100D01*
G01X237500Y88700D02*
X242670D01*
X243140Y89170D01*
G01X245250Y92400D02*
Y93450D01*
X245450Y93650D01*
G01X243140Y89170D02*
Y90290D01*
X245250Y92400D01*
G01Y96400D02*
Y93850D01*
X245450Y93650D01*
G01X245664Y97326D02*
X245696Y97300D01*
G01X254200Y88600D02*
X254000Y88400D01*
Y84600D01*
X254300Y84300D01*
G01D02*
X255750D01*
X256400Y84950D01*
G01X263000Y102300D02*
X260500Y99800D01*
X258400D01*
G01X253700Y102300D02*
X254600D01*
X254800Y102500D01*
G01X258300Y99900D02*
X257000Y101200D01*
G01X258300Y99900D02*
X258400Y99800D01*
G01X258300Y99900D02*
X255500D01*
X253700Y101700D01*
Y102300D01*
G01X258400Y105400D02*
Y108100D01*
G01X248800Y119700D02*
Y117700D01*
G01X259900Y163450D02*
X256500D01*
G01X263000Y106100D02*
Y108100D01*
G01X263700Y163450D02*
X264250Y164000D01*
X266000D01*
G01D02*
X268450D01*
X268700Y164250D01*
X127231Y29840D03*
Y26691D03*
Y23541D03*
X124081Y29840D03*
Y26691D03*
Y23541D03*
X127231Y45588D03*
Y42439D03*
X124081Y45588D03*
Y42439D03*
X127231Y48738D03*
X124081D03*
X136680Y29840D03*
Y26691D03*
Y23541D03*
X133530Y29840D03*
Y26691D03*
Y23541D03*
X130380Y29840D03*
Y26691D03*
Y23541D03*
X136680Y45588D03*
Y42439D03*
X133530Y45588D03*
Y42439D03*
X130380Y45588D03*
Y42439D03*
X136680Y48738D03*
X133530D03*
X130380D03*
X149278Y29840D03*
Y26691D03*
Y23541D03*
X146128Y29840D03*
Y26691D03*
Y23541D03*
X142979Y29840D03*
Y26691D03*
Y23541D03*
X139829Y29840D03*
Y26691D03*
Y23541D03*
X149278Y45588D03*
Y42439D03*
X146128Y45588D03*
Y42439D03*
X142979Y45588D03*
Y42439D03*
X139829Y45588D03*
Y42439D03*
X149278Y48738D03*
X146128D03*
X142979D03*
X139829D03*
X161876Y29840D03*
Y26691D03*
Y23541D03*
X158727Y29840D03*
Y26691D03*
Y23541D03*
X155577Y29840D03*
Y26691D03*
Y23541D03*
X152428Y29840D03*
Y26691D03*
Y23541D03*
X161876Y45588D03*
Y42439D03*
X158727Y45588D03*
Y42439D03*
X155577Y45588D03*
Y42439D03*
X152428Y45588D03*
Y42439D03*
X161876Y48738D03*
X158727D03*
X155577D03*
X152428D03*
X171325Y29840D03*
Y26691D03*
Y23541D03*
X168176Y29840D03*
Y26691D03*
Y23541D03*
X165026Y29840D03*
Y26691D03*
Y23541D03*
X171325Y45588D03*
Y42439D03*
X168176Y45588D03*
Y42439D03*
X165026Y45588D03*
Y42439D03*
X171325Y48738D03*
X168176D03*
X165026D03*
G54D47*
X19409Y131816D03*
Y136184D03*
X22591D03*
Y131816D03*
G54D38*
X-8350Y42689D03*
X-9925D03*
X-11500D03*
X-13075D03*
X-14650D03*
Y66311D03*
X-13075D03*
X-11500D03*
X-9925D03*
X-8350D03*
G54D84*
G01X-46000Y25500D02*
X-46800D01*
X-48500Y27200D01*
Y29200D01*
X-47270Y30430D01*
X-41673D01*
X-37073Y25830D01*
X-31546D01*
X-30859Y26517D01*
G01Y23368D02*
Y23859D01*
X-31800Y24800D01*
X-37500D01*
X-42100Y29400D01*
X-46843D01*
X-47470Y28773D01*
Y27627D01*
X-47134Y27290D01*
X-46460D01*
X-46000Y27750D01*
G01X-16575Y7638D02*
X-17713Y6500D01*
X-18000D01*
G01X-16575Y9213D02*
X-17570D01*
X-18000Y8783D01*
Y8750D01*
G01X-26489Y18053D02*
X-23403D01*
X-23400Y18050D01*
G01X-26489Y16084D02*
X-23734D01*
X-23400Y15750D01*
G01X-19100Y11850D02*
X-17637D01*
X-16575Y10787D01*
G01X-19100Y14100D02*
X-18500Y13500D01*
X-17713D01*
X-16575Y12362D01*
G01X-23000Y24200D02*
X-23242Y23958D01*
X-26489D01*
G01X-24200Y26100D02*
X-24700Y25600D01*
X-26162D01*
X-26489Y25927D01*
G01X-17800Y33450D02*
X-17700D01*
X-17350Y33100D01*
X-16687D01*
X-16575Y33213D01*
G01X-17800Y31200D02*
X-17700D01*
X-17660Y31160D01*
X-17052D01*
X-16575Y31638D01*
G01X-26489Y33801D02*
X-25101D01*
X-24616Y33316D01*
X-21541D01*
X-18856Y36000D01*
X-16937D01*
X-16575Y36362D01*
G01X-26489Y31832D02*
X-24668D01*
X-24214Y32286D01*
X-21114D01*
X-18430Y34970D01*
X-16758D01*
X-16575Y34787D01*
G01X-17406Y46626D02*
X-19124D01*
X-20750Y45000D01*
G01X-17406Y49776D02*
X-20474D01*
X-20750Y49500D01*
G01X-17406Y51350D02*
X-20350D01*
X-20750Y51750D01*
G01X-17406Y48201D02*
X-19799D01*
X-20750Y47250D01*
G01X-17406Y52925D02*
X-19675D01*
X-20750Y54000D01*
G01X-17406Y54500D02*
X-19000D01*
X-20750Y56250D01*
G01X-13425Y9213D02*
X-12963Y8750D01*
X-12000D01*
G01X-13425Y7638D02*
X-12287Y6500D01*
X-12000D01*
G01X-5600Y14600D02*
X-5500D01*
X-4600Y15500D01*
G01X-5600Y12400D02*
X-5500D01*
X-4600Y11500D01*
G01X-13425Y10787D02*
X-12713D01*
X-12250Y11250D01*
Y12000D01*
X-11500Y12750D01*
X-9250D01*
X-8400Y11900D01*
Y11500D01*
G01X-13425Y12362D02*
X-13344D01*
X-11927Y13780D01*
X-9720D01*
X-8400Y15100D01*
Y15500D01*
G01X-11500Y42689D02*
Y40750D01*
X-10220Y39470D01*
X-6720D01*
X-6250Y39000D01*
Y35150D01*
X-4600Y33500D01*
G01X-8400D02*
X-9870Y34970D01*
X-13243D01*
X-13425Y34787D01*
G01Y33213D02*
X-12963Y32750D01*
X-12000D01*
G01X-13425Y31638D02*
X-12287Y30500D01*
X-12000D01*
G01X-9925Y42689D02*
X-10000D01*
Y40707D01*
X-9793Y40500D01*
X-6750D01*
X-6250Y41000D01*
Y42000D01*
X-5750Y42500D01*
X-5250D01*
X-4750Y42000D01*
Y37500D01*
X-4600D01*
G01X-8400D02*
X-9900Y36000D01*
X-13175D01*
X-13425Y36250D01*
Y36362D01*
G01X-5594Y46626D02*
X-4126D01*
X-2750Y45250D01*
G01X-5594Y51350D02*
X-3400D01*
X-2750Y52000D01*
G01X-5594Y48201D02*
X-3451D01*
X-2750Y47500D01*
G01X-5594Y52925D02*
X-4075D01*
X-2750Y54250D01*
G01X127948Y128150D02*
Y128162D01*
X126384Y129726D01*
G01X127948Y131299D02*
X126372Y132875D01*
G01X135821Y129726D02*
X137397Y128150D01*
G01X132672Y129726D02*
X133818D01*
X134248Y129296D01*
Y128150D01*
G01X131098D02*
X129522Y129726D01*
G01X134248Y131299D02*
X132672Y132875D01*
G01X137397Y131299D02*
X135821Y132875D01*
G01X131098Y131299D02*
X129522Y132875D01*
G01X222620Y46380D02*
X220045D01*
X219615Y45950D01*
Y44885D01*
X220300Y44200D01*
G01X215479Y46380D02*
X218155D01*
X218585Y45950D01*
Y44885D01*
X217900Y44200D01*
G01X231250Y49840D02*
Y50050D01*
X227800Y53500D01*
X221300D01*
X219430Y51630D01*
Y49570D01*
X222620Y46380D01*
G01X231250Y57720D02*
X228060Y54530D01*
X220873D01*
X218400Y52057D01*
Y49300D01*
X215479Y46380D01*
G01X214769D02*
X215479D01*
G01X223431D02*
X222620D01*
G54D48*
X32678Y24590D03*
X29528D03*
X26379D03*
X32678Y27739D03*
X29528D03*
X26379D03*
X32678Y30889D03*
X29528D03*
X26379D03*
X32678Y34039D03*
X29528D03*
X26379D03*
X32678Y37188D03*
X29528D03*
X26379D03*
X32678Y40338D03*
X29528D03*
X26379D03*
X32678Y43487D03*
X29528D03*
X26379D03*
X32678Y46637D03*
X29528D03*
X26379D03*
X32678Y49787D03*
X29528D03*
X26379D03*
X32678Y52936D03*
X29528D03*
X26379D03*
X32678Y56086D03*
X29528D03*
X26379D03*
X32678Y59235D03*
X29528D03*
X26379D03*
X32678Y62385D03*
X29528D03*
X26379D03*
X42127Y24590D03*
X38977D03*
X35828D03*
X42127Y27739D03*
X38977D03*
X35828D03*
X42127Y30889D03*
X38977D03*
X35828D03*
X42127Y34039D03*
X38977D03*
X35828D03*
X42127Y37188D03*
X38977D03*
X35828D03*
X42127Y40338D03*
X38977D03*
X35828D03*
X42127Y43487D03*
X38977D03*
X35828D03*
X42127Y46637D03*
X38977D03*
X35828D03*
X42127Y49787D03*
X38977D03*
X35828D03*
X42127Y52936D03*
X38977D03*
X35828D03*
X42127Y56086D03*
X38977D03*
X35828D03*
X42127Y59235D03*
X38977D03*
X35828D03*
X42127Y62385D03*
X38977D03*
X35828D03*
X54725Y24590D03*
X51576D03*
X48426D03*
X45276D03*
X54725Y27739D03*
X51576D03*
X48426D03*
X45276D03*
X54725Y30889D03*
X51576D03*
X48426D03*
X45276D03*
X54725Y34039D03*
X51576D03*
X48426D03*
X45276D03*
X54725Y37188D03*
X51576D03*
X48426D03*
X45276D03*
X54725Y40338D03*
X51576D03*
X48426D03*
X45276D03*
X54725Y43487D03*
X51576D03*
X48426D03*
X45276D03*
X54725Y46637D03*
X51576D03*
X48426D03*
X45276D03*
X54725Y49787D03*
X51576D03*
X48426D03*
X45276D03*
X54725Y52936D03*
X51576D03*
X48426D03*
X45276D03*
X54725Y56086D03*
X51576D03*
X48426D03*
X45276D03*
X54725Y59235D03*
X51576D03*
X48426D03*
X45276D03*
X54725Y62385D03*
X51576D03*
X48426D03*
X45276D03*
X64174Y24590D03*
X61024D03*
X57875D03*
X64174Y27739D03*
X61024D03*
X57875D03*
X64174Y30889D03*
X61024D03*
X57875D03*
X64174Y34039D03*
X61024D03*
X57875D03*
X64174Y37188D03*
X61024D03*
X57875D03*
X64174Y40338D03*
X61024D03*
X57875D03*
X64174Y43487D03*
X61024D03*
X57875D03*
X64174Y46637D03*
X61024D03*
X57875D03*
X64174Y49787D03*
X61024D03*
X57875D03*
X64174Y52936D03*
X61024D03*
X57875D03*
X64174Y56086D03*
X61024D03*
X57875D03*
X64174Y59235D03*
X61024D03*
X57875D03*
X64174Y62385D03*
X61024D03*
X57875D03*
X124799Y80906D03*
Y77756D03*
X121649Y80906D03*
Y77756D03*
X124799Y93504D03*
Y90354D03*
Y87205D03*
Y84055D03*
X121649Y93504D03*
Y90354D03*
Y87205D03*
Y84055D03*
X124799Y102953D03*
Y99803D03*
Y96654D03*
X121649Y102953D03*
Y99803D03*
Y96654D03*
X124799Y115551D03*
Y112402D03*
Y109252D03*
Y106102D03*
X121649Y115551D03*
Y112402D03*
Y109252D03*
Y106102D03*
X124799Y128150D03*
Y125000D03*
Y121850D03*
Y118701D03*
X121649Y128150D03*
Y125000D03*
Y121850D03*
Y118701D03*
X124799Y140748D03*
Y137598D03*
Y134449D03*
Y131299D03*
X121649Y140748D03*
Y137598D03*
Y134449D03*
Y131299D03*
X124799Y153346D03*
Y150197D03*
Y147047D03*
Y143898D03*
X121649Y153346D03*
Y150197D03*
Y147047D03*
Y143898D03*
X124799Y162795D03*
Y159646D03*
Y156496D03*
X121649Y162795D03*
Y159646D03*
Y156496D03*
X137397Y80906D03*
Y77756D03*
X134248Y80906D03*
Y77756D03*
X131098Y80906D03*
Y77756D03*
X127948Y80906D03*
Y77756D03*
X137397Y93504D03*
Y90354D03*
Y87205D03*
Y84055D03*
X134248Y93504D03*
Y90354D03*
Y87205D03*
Y84055D03*
X131098Y93504D03*
Y90354D03*
Y84055D03*
X127948Y93504D03*
Y90354D03*
Y87205D03*
Y84055D03*
X137397Y102953D03*
Y99803D03*
Y96654D03*
X134248Y102953D03*
Y99803D03*
Y96654D03*
X131098Y102953D03*
Y99803D03*
Y96654D03*
X127948Y102953D03*
Y99803D03*
Y96654D03*
X137397Y115551D03*
Y112402D03*
Y109252D03*
Y106102D03*
X134248Y115551D03*
Y112402D03*
Y109252D03*
Y106102D03*
X131098Y115551D03*
Y112402D03*
Y109252D03*
Y106102D03*
X127948Y112402D03*
Y109252D03*
X137397Y128150D03*
Y125000D03*
Y121850D03*
Y118701D03*
X134248Y128150D03*
Y125000D03*
Y121850D03*
Y118701D03*
X131098Y128150D03*
Y125000D03*
Y121850D03*
Y118701D03*
X127948Y128150D03*
Y121850D03*
Y118701D03*
X137397Y140748D03*
Y137598D03*
Y134449D03*
Y131299D03*
X134248Y140748D03*
Y137598D03*
Y134449D03*
Y131299D03*
X131098Y140748D03*
Y137598D03*
Y134449D03*
Y131299D03*
X127948Y140748D03*
Y137598D03*
Y131299D03*
X137397Y153346D03*
Y150197D03*
Y147047D03*
Y143898D03*
X134248Y153346D03*
Y150197D03*
Y147047D03*
Y143898D03*
X131098Y150197D03*
Y147047D03*
Y143898D03*
X127948Y153346D03*
Y150197D03*
Y147047D03*
X137397Y162795D03*
Y159646D03*
Y156496D03*
X134248Y162795D03*
Y159646D03*
Y156496D03*
X131098Y162795D03*
Y159646D03*
Y156496D03*
X127948Y162795D03*
Y159646D03*
Y156496D03*
X149996Y80906D03*
Y77756D03*
X146846Y80906D03*
Y77756D03*
X143696Y80906D03*
Y77756D03*
X140547Y80906D03*
Y77756D03*
X149996Y93504D03*
Y90354D03*
Y87205D03*
X146846Y93504D03*
Y90354D03*
Y87205D03*
Y84055D03*
X143696Y93504D03*
Y90354D03*
Y87205D03*
X140547Y93504D03*
Y90354D03*
Y87205D03*
X143696Y84055D03*
X149996Y102953D03*
Y99803D03*
Y96654D03*
X146846Y102953D03*
Y99803D03*
Y96654D03*
X143696Y102953D03*
Y99803D03*
Y96654D03*
X140547Y102953D03*
Y99803D03*
Y96654D03*
X149996Y115551D03*
Y112402D03*
Y109252D03*
Y106102D03*
X146846Y115551D03*
Y112402D03*
Y109252D03*
Y106102D03*
X143696Y115551D03*
Y112402D03*
Y109252D03*
Y106102D03*
X140547Y115551D03*
Y112402D03*
Y109252D03*
Y106102D03*
X149996Y128150D03*
Y125000D03*
Y121850D03*
Y118701D03*
X146846Y128150D03*
Y125000D03*
Y121850D03*
Y118701D03*
X143696Y128150D03*
Y125000D03*
Y121850D03*
Y118701D03*
X140547Y128150D03*
Y125000D03*
Y121850D03*
Y118701D03*
X149996Y140748D03*
Y137598D03*
Y134449D03*
Y131299D03*
X146846Y140748D03*
Y137598D03*
Y134449D03*
Y131299D03*
X143696Y140748D03*
Y137598D03*
Y134449D03*
Y131299D03*
X140547Y140748D03*
Y137598D03*
Y134449D03*
Y131299D03*
X149996Y153346D03*
Y150197D03*
Y147047D03*
Y143898D03*
X146846Y153346D03*
Y150197D03*
Y147047D03*
Y143898D03*
X143696Y153346D03*
Y150197D03*
Y147047D03*
Y143898D03*
X140547Y153346D03*
Y150197D03*
Y147047D03*
Y143898D03*
X149996Y162795D03*
Y159646D03*
X146846Y162795D03*
Y159646D03*
Y156496D03*
X143696Y162795D03*
Y159646D03*
Y156496D03*
X140547Y162795D03*
Y159646D03*
Y156496D03*
X162594Y80906D03*
Y77756D03*
X159444Y80906D03*
Y77756D03*
X156295Y80906D03*
Y77756D03*
X153145Y80906D03*
Y77756D03*
X162594Y93504D03*
Y90354D03*
Y87205D03*
Y84055D03*
X159444Y93504D03*
Y90354D03*
Y87205D03*
X156295Y93504D03*
Y90354D03*
Y87205D03*
Y84055D03*
X153145Y93504D03*
Y90354D03*
Y87205D03*
Y84055D03*
X162594Y102953D03*
Y99803D03*
Y96654D03*
X159444Y102953D03*
Y99803D03*
Y96654D03*
X156295Y102953D03*
Y99803D03*
Y96654D03*
X153145Y102953D03*
Y99803D03*
Y96654D03*
X162594Y115551D03*
Y112402D03*
Y109252D03*
Y106102D03*
X159444Y115551D03*
Y112402D03*
Y109252D03*
Y106102D03*
X156295Y115551D03*
Y112402D03*
Y109252D03*
Y106102D03*
X153145Y115551D03*
Y112402D03*
Y109252D03*
Y106102D03*
X162594Y128150D03*
Y125000D03*
Y121850D03*
Y118701D03*
X159444Y128150D03*
Y125000D03*
Y121850D03*
Y118701D03*
X156295Y128150D03*
Y125000D03*
Y121850D03*
Y118701D03*
X153145Y128150D03*
Y125000D03*
Y121850D03*
Y118701D03*
X162594Y140748D03*
Y137598D03*
Y134449D03*
Y131299D03*
X159444Y140748D03*
Y137598D03*
Y134449D03*
Y131299D03*
X156295Y140748D03*
Y137598D03*
Y134449D03*
Y131299D03*
X153145Y140748D03*
Y137598D03*
Y134449D03*
Y131299D03*
X162594Y153346D03*
Y150197D03*
Y147047D03*
Y143898D03*
X159444Y153346D03*
Y150197D03*
Y147047D03*
Y143898D03*
X156295Y153346D03*
Y150197D03*
Y147047D03*
Y143898D03*
X153145Y153346D03*
Y150197D03*
Y147047D03*
Y143898D03*
X162594Y162795D03*
Y159646D03*
Y156496D03*
X159444Y162795D03*
Y159646D03*
X156295Y162795D03*
Y159646D03*
Y156496D03*
X153145Y162795D03*
Y159646D03*
Y156496D03*
X175192Y80906D03*
Y77756D03*
X172043Y80906D03*
Y77756D03*
X168893Y80906D03*
Y77756D03*
X165744Y80906D03*
Y77756D03*
X175192Y93504D03*
Y90354D03*
Y87205D03*
Y84055D03*
X172043Y93504D03*
Y90354D03*
Y87205D03*
X168893Y93504D03*
Y90354D03*
Y87205D03*
X165744Y93504D03*
Y90354D03*
Y87205D03*
Y84055D03*
X172043D03*
X175192Y102953D03*
Y99803D03*
Y96654D03*
X172043Y102953D03*
Y99803D03*
Y96654D03*
X168893Y102953D03*
Y99803D03*
Y96654D03*
X165744Y102953D03*
Y99803D03*
Y96654D03*
X175192Y115551D03*
Y112402D03*
Y109252D03*
Y106102D03*
X172043Y115551D03*
Y112402D03*
Y109252D03*
Y106102D03*
X168893Y115551D03*
Y112402D03*
Y109252D03*
Y106102D03*
X165744Y115551D03*
Y112402D03*
Y109252D03*
Y106102D03*
X175192Y128150D03*
Y125000D03*
Y121850D03*
Y118701D03*
X172043Y128150D03*
Y125000D03*
Y121850D03*
Y118701D03*
X168893Y128150D03*
Y125000D03*
Y121850D03*
Y118701D03*
X165744Y128150D03*
Y125000D03*
Y121850D03*
Y118701D03*
X175192Y140748D03*
Y137598D03*
Y134449D03*
Y131299D03*
X172043Y140748D03*
Y137598D03*
Y134449D03*
Y131299D03*
X168893Y140748D03*
Y137598D03*
Y134449D03*
Y131299D03*
X165744Y140748D03*
Y137598D03*
Y134449D03*
Y131299D03*
X175192Y153346D03*
Y150197D03*
Y147047D03*
Y143898D03*
X172043Y153346D03*
Y150197D03*
Y147047D03*
Y143898D03*
X168893Y153346D03*
Y150197D03*
Y147047D03*
Y143898D03*
X165744Y153346D03*
Y150197D03*
Y147047D03*
Y143898D03*
X175192Y162795D03*
Y159646D03*
Y156496D03*
X172043Y162795D03*
Y159646D03*
Y156496D03*
X168893Y162795D03*
Y159646D03*
X165744Y162795D03*
Y159646D03*
Y156496D03*
X184641Y80906D03*
Y77756D03*
X181492Y80906D03*
Y77756D03*
X178342Y80906D03*
Y77756D03*
X184641Y93504D03*
Y90354D03*
Y87205D03*
Y84055D03*
X181492Y93504D03*
Y90354D03*
Y87205D03*
X178342Y93504D03*
Y90354D03*
Y87205D03*
X181492Y84055D03*
X184641Y102953D03*
Y99803D03*
Y96654D03*
X181492Y102953D03*
Y99803D03*
Y96654D03*
X178342Y102953D03*
Y99803D03*
Y96654D03*
X184641Y115551D03*
Y112402D03*
Y109252D03*
Y106102D03*
X181492Y115551D03*
Y112402D03*
Y109252D03*
Y106102D03*
X178342Y115551D03*
Y112402D03*
Y109252D03*
Y106102D03*
X184641Y128150D03*
Y125000D03*
Y121850D03*
Y118701D03*
X181492Y128150D03*
Y125000D03*
Y121850D03*
Y118701D03*
X178342Y128150D03*
Y125000D03*
Y121850D03*
Y118701D03*
X184641Y140748D03*
Y137598D03*
Y134449D03*
Y131299D03*
X181492Y140748D03*
Y137598D03*
Y134449D03*
Y131299D03*
X178342Y140748D03*
Y137598D03*
Y134449D03*
Y131299D03*
X184641Y153346D03*
Y150197D03*
Y147047D03*
Y143898D03*
X181492Y153346D03*
Y150197D03*
Y147047D03*
Y143898D03*
X178342Y153346D03*
Y150197D03*
Y147047D03*
Y143898D03*
X184641Y162795D03*
Y159646D03*
Y156496D03*
X181492Y162795D03*
Y159646D03*
Y156496D03*
X178342Y162795D03*
Y159646D03*
X197240Y80906D03*
Y77756D03*
X194090Y80906D03*
Y77756D03*
X190941Y80906D03*
Y77756D03*
X187791Y80906D03*
Y77756D03*
X197240Y93504D03*
Y90354D03*
Y84055D03*
X194090Y93504D03*
Y90354D03*
Y87205D03*
Y84055D03*
X190941Y93504D03*
Y90354D03*
Y87205D03*
Y84055D03*
X187791Y93504D03*
Y90354D03*
Y87205D03*
Y84055D03*
X197240Y102953D03*
Y99803D03*
Y96654D03*
X194090Y102953D03*
Y99803D03*
Y96654D03*
X190941Y102953D03*
Y99803D03*
Y96654D03*
X187791Y102953D03*
Y99803D03*
Y96654D03*
X197240Y115551D03*
Y112402D03*
Y109252D03*
Y106102D03*
X194090Y115551D03*
Y112402D03*
Y109252D03*
Y106102D03*
X190941Y115551D03*
Y112402D03*
Y109252D03*
Y106102D03*
X187791Y115551D03*
Y112402D03*
Y109252D03*
Y106102D03*
X197240Y128150D03*
Y125000D03*
Y121850D03*
Y118701D03*
X194090Y128150D03*
Y125000D03*
Y121850D03*
Y118701D03*
X190941Y128150D03*
Y125000D03*
Y121850D03*
Y118701D03*
X187791Y128150D03*
Y125000D03*
Y121850D03*
Y118701D03*
X197240Y140748D03*
Y137598D03*
Y134449D03*
Y131299D03*
X194090Y140748D03*
Y137598D03*
Y134449D03*
Y131299D03*
X190941Y140748D03*
Y137598D03*
Y134449D03*
Y131299D03*
X187791Y140748D03*
Y137598D03*
Y134449D03*
Y131299D03*
X197240Y150197D03*
Y147047D03*
Y143898D03*
X194090Y153346D03*
Y150197D03*
Y147047D03*
Y143898D03*
X190941Y153346D03*
Y150197D03*
Y147047D03*
Y143898D03*
X187791Y153346D03*
Y150197D03*
Y147047D03*
Y143898D03*
X197240Y162795D03*
Y159646D03*
Y156496D03*
X194090Y162795D03*
Y159646D03*
Y156496D03*
X190941Y162795D03*
Y159646D03*
Y156496D03*
X187791Y162795D03*
Y159646D03*
X206689Y80906D03*
Y77756D03*
X203539Y80906D03*
Y77756D03*
X200389Y80906D03*
Y77756D03*
X206689Y93504D03*
Y90354D03*
Y87205D03*
Y84055D03*
X203539Y93504D03*
Y90354D03*
Y87205D03*
Y84055D03*
X200389Y93504D03*
Y90354D03*
Y87205D03*
Y84055D03*
X206689Y102953D03*
Y99803D03*
Y96654D03*
X203539Y102953D03*
Y99803D03*
Y96654D03*
X200389Y102953D03*
Y99803D03*
X206689Y115551D03*
Y112402D03*
Y109252D03*
Y106102D03*
X203539Y115551D03*
Y112402D03*
Y109252D03*
Y106102D03*
X200389Y112402D03*
Y109252D03*
X206689Y128150D03*
Y125000D03*
Y121850D03*
Y118701D03*
X203539Y128150D03*
Y125000D03*
Y121850D03*
Y118701D03*
X200389Y128150D03*
Y121850D03*
Y118701D03*
X206689Y140748D03*
Y137598D03*
Y134449D03*
Y131299D03*
X203539Y140748D03*
Y137598D03*
Y134449D03*
Y131299D03*
X200389Y140748D03*
Y137598D03*
Y131299D03*
X206689Y153346D03*
Y150197D03*
Y147047D03*
Y143898D03*
X203539Y153346D03*
Y150197D03*
Y147047D03*
Y143898D03*
X200389Y153346D03*
Y150197D03*
Y147047D03*
Y143898D03*
X206689Y162795D03*
Y159646D03*
Y156496D03*
X203539Y162795D03*
Y159646D03*
Y156496D03*
X200389Y162795D03*
Y159646D03*
Y156496D03*
G54D75*
X245250Y92400D03*
Y96400D03*
X251550Y92400D03*
Y96400D03*
G54D57*
X66252Y120000D03*
X72748D03*
G54D66*
X184347Y14660D03*
Y18400D03*
Y22140D03*
X194253D03*
Y14660D03*
G54D39*
X-11500Y54500D03*
G54D85*
G01X-16600Y28100D02*
X-17300Y27400D01*
Y26200D01*
X-17362Y26138D01*
Y24953D01*
G01X-17406Y56075D02*
X-13075D01*
X-11500Y54500D01*
G01X-20000Y64000D02*
Y58450D01*
X-19200Y57650D01*
X-17406D01*
G01X-14650Y66311D02*
X-15489D01*
X-16300Y65500D01*
G01X-15000Y11575D02*
Y8425D01*
G01D02*
Y6500D01*
G01Y11575D02*
Y13300D01*
G01Y35575D02*
Y32425D01*
G01D02*
Y30500D01*
G01Y45500D02*
X-14650D01*
Y42689D01*
G01X-13075D02*
Y45500D01*
X-12750D01*
G01X-2750Y49750D02*
X-5594D01*
Y49776D01*
G01X-10300Y63500D02*
X-10200Y63600D01*
X-9400D01*
X-8350Y64650D01*
Y66311D01*
G01X-5594Y59224D02*
X-2750D01*
Y59250D01*
G01X31750Y101250D02*
X31500D01*
Y101262D01*
X33875D01*
G01Y96538D02*
X31750D01*
G01X33875Y105987D02*
X31713D01*
G01X45750Y86750D02*
X45662D01*
Y89475D01*
G01X67176Y102824D02*
Y102750D01*
X66426Y102000D01*
X57000D01*
X56163Y102837D01*
X52725D01*
G01X104887Y143600D02*
X104687Y143800D01*
X100330D01*
X98361Y141830D01*
G01X102059Y166235D02*
Y167384D01*
X101750Y167693D01*
X99537D01*
G01X124081Y23541D02*
X122506Y21966D01*
G01X127231Y23541D02*
X125656Y21966D01*
G01X124081Y48738D02*
X122506Y50313D01*
G01X127231Y48738D02*
X125656Y50313D01*
G01X136680Y23541D02*
X135105Y21966D01*
G01X130380Y23541D02*
X128806Y21966D01*
G01X133530Y23541D02*
X131955Y21966D01*
G01X136680Y48738D02*
X135105Y50313D01*
G01X130380Y48738D02*
X128806Y50313D01*
G01X133530Y48738D02*
X131955Y50313D01*
G01X137397Y96654D02*
X138991Y98247D01*
G01X137397Y96654D02*
X138972Y95079D01*
G01X140547Y96654D02*
Y96691D01*
X138991Y98247D01*
G01X140547Y96654D02*
X138972Y95079D01*
G01X140547Y99803D02*
X138991Y98247D01*
G01X134248Y156496D02*
X132672Y158072D01*
G01X146128Y26691D02*
X144554Y28265D01*
G01X142979Y26691D02*
X144554Y25116D01*
G01X149278Y23541D02*
X150853Y21966D01*
G01X144554Y44013D02*
X146128Y45588D01*
G01X149278D02*
X147703Y47163D01*
G01X142979Y45588D02*
X144554Y47163D01*
G01X152428Y48738D02*
X150853Y50313D01*
G01X149278Y48738D02*
X147703Y50313D01*
G01X140547Y96654D02*
X142140Y98247D01*
G01Y95097D02*
X142103D01*
X140547Y96654D01*
G01X142140Y98247D02*
X143696Y99803D01*
G01X140547Y99803D02*
X140584Y99803D01*
X142140Y98247D01*
G01X143696Y96654D02*
Y96691D01*
X142140Y98247D01*
G01X143696Y96654D02*
X142140Y95097D01*
G01X145200Y107606D02*
X146846Y109252D01*
G01X154002Y21900D02*
Y21966D01*
X155577Y23541D01*
G01X152428D02*
X152800Y23168D01*
Y23102D01*
X154002Y21900D01*
G01X158727Y23541D02*
X157152Y21966D01*
G01X158727Y26691D02*
G01X158727D02*
X157152Y25116D01*
G01X152428Y23541D02*
G01X161876D02*
X163451Y21966D01*
G01X158727Y45588D02*
X160302Y47163D01*
G01X161876Y45588D02*
X160302Y44013D01*
G01X161876Y48738D02*
X163451Y50313D01*
G01X158727Y48738D02*
X157152Y50313D01*
G01X155577Y48738D02*
X154002Y50313D01*
G01X171325Y23541D02*
X169750Y21966D01*
G01X168176Y23541D02*
X169750Y21966D01*
G01X165026Y23541D02*
X166601Y21966D01*
G01X171325Y26691D02*
X169750Y28265D01*
G01X168176Y45588D02*
X169750Y47163D01*
G01X168176Y48738D02*
X169750Y50313D01*
G01X171325Y48738D02*
X172900Y50313D01*
G01X165026Y48738D02*
X166601Y50313D01*
G01X164100Y79400D02*
X165744Y77756D01*
G01X172043Y137598D02*
X172400Y137956D01*
Y140391D01*
X172043Y140748D01*
G01X178342D02*
X178494Y140900D01*
X181340D01*
X181492Y140748D01*
G01D02*
X183044Y142300D01*
G01X246761Y123594D02*
X244793Y121626D01*
G01X244000Y119700D02*
Y120833D01*
X244793Y121626D01*
G01X244000Y119700D02*
Y117800D01*
G01X250698Y121626D02*
X248730Y123594D01*
G01X246761Y121626D02*
X248730Y123594D01*
G01X246500Y119750D02*
X246750D01*
X246761Y119761D01*
Y121626D01*
G01X250698D02*
Y119802D01*
G01D02*
X250750Y119750D01*
X251000D01*
G01X256604Y129500D02*
X256604Y127646D01*
G01X246761Y125563D02*
Y123594D01*
G01X248730Y121626D02*
Y119770D01*
X248800Y119700D01*
G01X254636Y129500D02*
X254635D01*
Y131465D01*
X254600Y131500D01*
G01X258572Y133437D02*
X256637D01*
X256600Y133400D01*
G01X252667Y139343D02*
Y137433D01*
X252700Y137400D01*
G01X248730Y135406D02*
X250695Y135406D01*
X250700Y135400D01*
G01X258572Y131468D02*
X256604Y129500D01*
G01X250698Y139343D02*
Y138098D01*
X250400Y137800D01*
G01X248730Y137374D02*
X249974D01*
X250400Y137800D01*
G01X246761Y143280D02*
Y143239D01*
X248700Y141300D01*
G01X250698Y143280D02*
Y142055D01*
X251153Y141600D01*
G54D67*
X198000Y45500D03*
G54D49*
X25154Y82559D03*
X31846D03*
Y77441D03*
X25154D03*
X46046Y117241D03*
X39354D03*
Y122359D03*
X46046D03*
G54D58*
X76416Y45300D03*
Y62100D03*
X90984Y45300D03*
Y62100D03*
G54D76*
G01X5265Y150441D02*
X2959D01*
X2250Y151150D01*
Y153050D01*
G01X5265Y141441D02*
X3009D01*
X2250Y142200D01*
Y144000D01*
G01X-2265Y146559D02*
X991D01*
X2250Y145300D01*
Y144000D01*
G01X-2265Y155559D02*
X1191D01*
X2250Y154500D01*
Y153050D01*
G01X22600Y72500D02*
X23000Y72100D01*
Y68000D01*
G01X23800Y65400D02*
Y64964D01*
X26379Y62385D01*
G01X23000Y68000D02*
Y66200D01*
X23800Y65400D01*
G01X31846Y77441D02*
X31906Y77500D01*
X35500D01*
G01X21500Y82500D02*
Y73600D01*
X22600Y72500D01*
G01X25154Y82559D02*
X25094Y82500D01*
X21500D01*
G01X35500Y77500D02*
Y84694D01*
X34419Y85776D01*
X22419D01*
X21500Y84857D01*
Y82500D01*
G01X30500Y118100D02*
Y117500D01*
X33000Y115000D01*
X35600D01*
G01X30500Y121900D02*
Y123500D01*
G01X45276Y49787D02*
X43732Y51332D01*
G01X34400Y72500D02*
Y65922D01*
X35659Y64664D01*
G01X34400Y72500D02*
X34600D01*
X35200Y73100D01*
G01X35500Y77500D02*
Y73400D01*
X35200Y73100D01*
G01X40000Y80100D02*
Y76400D01*
G01X34000Y121900D02*
Y122900D01*
X33200Y123700D01*
G01X57875Y34039D02*
X59422Y32492D01*
G01X61024Y34039D02*
X62571Y32492D01*
G01X64174Y59235D02*
X69500D01*
G01X67176Y102824D02*
Y107426D01*
X67250Y107500D01*
G01D02*
X71200D01*
X72500Y106200D01*
G01X72000Y76400D02*
X75800D01*
X77100Y77700D01*
Y79778D01*
X77588Y80266D01*
G01Y80266D02*
X77076Y80778D01*
Y92200D01*
G01D02*
Y100576D01*
X77200Y100700D01*
G01X85950Y18750D02*
X86500D01*
Y18450D01*
G01D02*
X87500Y17450D01*
Y15000D01*
X89000Y13500D01*
X92250D01*
X93600Y14850D01*
Y15500D01*
G01X86500Y79000D02*
Y76526D01*
X86250D01*
G01X86524Y88460D02*
X88165Y90100D01*
X91300D01*
G01X91000Y100500D02*
X88500D01*
Y100700D01*
G01X84600Y104500D02*
X84700D01*
X88500Y100700D01*
G01X81000D02*
X84700D01*
G01D02*
Y97765D01*
X86524Y95940D01*
G01D02*
X88565Y93900D01*
X91300D01*
G01X98500Y60000D02*
Y60100D01*
X96500D01*
G01X101400Y114200D02*
X103750D01*
X103800Y114250D01*
G01X106000Y134800D02*
Y142487D01*
X104887Y143600D01*
G01X105200Y13100D02*
Y13300D01*
X104900Y13600D01*
Y15500D01*
G01X107250Y41250D02*
X106500D01*
X105250Y40000D01*
X104900D01*
G01Y64500D02*
Y69400D01*
X105500Y70000D01*
G01X120147Y76253D02*
X121649Y77756D01*
G01Y80906D02*
X120074Y79331D01*
G01X124799Y77756D02*
X123203Y76160D01*
G01X120301Y104301D02*
X121649Y102953D01*
G01X124799D02*
X123242Y104509D01*
G01X121649Y140748D02*
X119313D01*
G01X121649Y159646D02*
X119424D01*
X119411Y159632D01*
G01Y162794D02*
X119424Y162795D01*
X121649D01*
G01X124799D02*
X121649D01*
G01X134248Y90354D02*
X132691Y88798D01*
G01X134248Y84055D02*
X132691Y82499D01*
G01X140547Y90354D02*
X138991Y88798D01*
G01X140547Y87205D02*
X138991Y85648D01*
G01X134248Y106102D02*
X132691Y104546D01*
G01X131098Y106102D02*
X129542Y104546D01*
G01X140547Y102953D02*
X138997Y101403D01*
G01X134248Y143898D02*
X132672Y145474D01*
G01D02*
X131098Y143900D01*
G01X134248Y162795D02*
Y165000D01*
G01X149996Y77756D02*
X150002D01*
X151598Y76160D01*
G01X149996Y80906D02*
X151600Y79301D01*
Y79266D01*
G01X148439Y88798D02*
X149996Y87242D01*
Y87205D01*
G01Y90354D02*
X148439Y88798D01*
G01X143696Y102953D02*
X142140Y101396D01*
G01X149996Y118701D02*
X148439Y117144D01*
G01X149996Y115551D02*
X151497Y114050D01*
X151500D01*
G01X143696Y121850D02*
X142140Y120294D01*
G01X150250Y165500D02*
X149996Y165246D01*
Y162795D01*
G01X159444Y90354D02*
X160998Y88800D01*
X161017D01*
G01X159444Y87205D02*
X161001Y85648D01*
X161017D01*
G01X156295Y99803D02*
X154739Y98247D01*
G01X156295Y102953D02*
X154739Y101396D01*
G01X162594Y99803D02*
G01Y99803D02*
X164131Y98266D01*
G01X162594Y99803D02*
X161993Y99202D01*
X160046D01*
X159444Y99803D01*
G01Y109252D02*
X157888Y107696D01*
G01X156295Y112402D02*
X154739Y110845D01*
G01X159444Y112402D02*
X157888Y110845D01*
G01X159444Y118701D02*
X157888Y117144D01*
G01X153145Y112402D02*
X151589Y110845D01*
G01X153145Y118701D02*
X151589Y117144D01*
G01X159444Y121850D02*
X157888Y120294D01*
G01X162594Y162795D02*
Y164959D01*
X162593Y164961D01*
G01X168893Y90354D02*
X169290Y89958D01*
Y87601D01*
X168893Y87205D01*
G01D02*
X170430Y85668D01*
G01X168893Y106102D02*
X170430Y104566D01*
G01X172043Y106102D02*
X173580Y104566D01*
G01X168893Y96654D02*
X170424Y95124D01*
G01X168893Y118701D02*
X170430Y117164D01*
G01X168893Y121850D02*
X170430Y120314D01*
G01X181900Y75326D02*
Y75428D01*
X181702Y75626D01*
Y77546D01*
X181492Y77756D01*
G01Y80906D02*
X182989Y79408D01*
G01X178342Y118701D02*
X179879Y117164D01*
G01X181492Y118701D02*
X183028Y117164D01*
G01X178342Y162795D02*
X179918Y164371D01*
G01X192094Y46484D02*
X194734D01*
X195750Y47500D01*
G01X194000Y57600D02*
X198000D01*
G01X194090Y106102D02*
X195627Y104566D01*
G01X197240Y106102D02*
X198776Y104566D01*
G01X189379Y161219D02*
X190941Y162781D01*
Y162795D01*
G01X214000Y57600D02*
X210000D01*
G01X206689Y77756D02*
X208225Y76219D01*
G01X209400Y91200D02*
X207096Y93504D01*
X206689D01*
G01X205128Y158072D02*
X205129D01*
X206689Y159631D01*
Y159646D01*
G01Y162795D02*
Y162798D01*
X205115Y164371D01*
G01X203539Y162795D02*
X205115Y164371D01*
G01X217747Y14220D02*
X215864Y12336D01*
G01X219716Y23184D02*
Y26380D01*
G01X217747D02*
Y22647D01*
X217500Y22400D01*
G01X212400Y54000D02*
X212500D01*
X214000Y55500D01*
Y57600D01*
G01X220900Y57500D02*
X218100D01*
X218000Y57600D01*
G01X224900Y14100D02*
X224400D01*
X224280Y14220D01*
X223653D01*
X244793Y121626D03*
X242824D03*
X240856D03*
X244793Y123594D03*
X242824D03*
X240856D03*
X244793Y125563D03*
X242824D03*
X240856D03*
X244793Y127532D03*
X242824D03*
X240856D03*
X244793Y129500D03*
X242824D03*
X240856D03*
X244793Y131468D03*
X242824D03*
X240856D03*
X244793Y133437D03*
X242824D03*
X240856D03*
X244793Y135406D03*
X242824D03*
X240856D03*
X244793Y137374D03*
X242824D03*
X240856D03*
X244793Y139343D03*
X242824D03*
X240856D03*
X244793Y141311D03*
X242824D03*
X240856D03*
X244793Y143280D03*
X242824D03*
X240856D03*
X244793Y145248D03*
X242824D03*
X240856D03*
X244793Y147217D03*
X242824D03*
X240856D03*
X256604Y121626D03*
X254636D03*
X252667D03*
X250698D03*
X248730D03*
X246761D03*
X256604Y123594D03*
X254636D03*
X252667D03*
X250698D03*
X248730D03*
X246761D03*
X256604Y125563D03*
X254636D03*
X252667D03*
X250698D03*
X248730D03*
X246761D03*
X256604Y129500D03*
X254636D03*
X252667D03*
X250698D03*
X248730D03*
Y131468D03*
Y133437D03*
Y135406D03*
Y137374D03*
X256604Y139343D03*
X254636D03*
X252667D03*
X250698D03*
X248730D03*
X246761Y141311D03*
X256604Y143280D03*
X254636D03*
X252667D03*
X250698D03*
X248730D03*
X246761D03*
X256604Y145248D03*
X254636D03*
X252667D03*
X250698D03*
X248730D03*
X246761D03*
X256604Y147217D03*
X254636D03*
X252667D03*
X250698D03*
X248730D03*
X246761D03*
X266447Y121626D03*
X264478D03*
X262510D03*
X260541D03*
X258572D03*
X266447Y123594D03*
X264478D03*
X262510D03*
X260541D03*
X258572D03*
X266447Y125563D03*
X264478D03*
X262510D03*
X260541D03*
X258572D03*
X266447Y127532D03*
X264478D03*
X262510D03*
X266447Y129500D03*
X264478D03*
X262510D03*
X258572D03*
X266447Y131468D03*
X264478D03*
X262510D03*
X258572D03*
X266447Y133437D03*
X264478D03*
X262510D03*
X258572D03*
X266447Y135406D03*
X264478D03*
X262510D03*
X258572D03*
X266447Y137374D03*
X264478D03*
X262510D03*
X258572D03*
X266447Y139343D03*
X264478D03*
X262510D03*
X258572D03*
X266447Y141311D03*
X264478D03*
X262510D03*
X266447Y143280D03*
X264478D03*
X262510D03*
X260541D03*
X258572D03*
X266447Y145248D03*
X264478D03*
X262510D03*
X260541D03*
X258572D03*
X266447Y147217D03*
X264478D03*
X262510D03*
X260541D03*
X258572D03*
G54D86*
G01X-39547Y50000D02*
X-34400D01*
G01X-39760Y61559D02*
Y63060D01*
X-39800Y63100D01*
G01D02*
X-39300Y63600D01*
Y68900D01*
X-34200Y74000D01*
Y95093D01*
X-30600Y98693D01*
G01X-48153Y143750D02*
X-44803Y140400D01*
X-41300D01*
G01X-2265Y141441D02*
X-4590D01*
X-4650Y141500D01*
X-5400D01*
X-7200Y143300D01*
X-38400D01*
X-39000Y143900D01*
Y147100D01*
X-39500Y147600D01*
X-44000D01*
X-47650Y151250D01*
X-47953D01*
G01X-42047D02*
Y153575D01*
X-39822Y155800D01*
X-37400D01*
X-35700Y157500D01*
Y157600D01*
G01X-35500Y140700D02*
X-38200D01*
X-41250Y143750D01*
X-42247D01*
G01X-42047Y158750D02*
X-39297Y161500D01*
X-35700D01*
G01X-47953Y158750D02*
X-43103Y163600D01*
X-30600D01*
X-29500Y162500D01*
Y160300D01*
X-27500Y158300D01*
Y157000D01*
X-25700Y155200D01*
X-21800D01*
X-21300Y155700D01*
X-13600D01*
X-6400Y148500D01*
X2750D01*
X4691Y146559D01*
X5265D01*
G01X-42047Y173750D02*
X-37475D01*
X-37425Y173700D01*
X-35700D01*
G01X-2265Y150441D02*
X-6841D01*
X-13100Y156700D01*
X-20600D01*
X-23050Y159150D01*
Y167950D01*
X-24200Y169100D01*
X-45103D01*
X-47953Y166250D01*
G01Y173750D02*
Y171425D01*
X-46628Y170100D01*
X-23800D01*
X-21950Y168250D01*
Y159750D01*
X-19900Y157700D01*
X-12600D01*
X-11800Y156900D01*
X2850D01*
X4191Y155559D01*
X5265D01*
G01X-42047Y166250D02*
Y165947D01*
X-41100Y165000D01*
X-37000D01*
X-35700Y166300D01*
G01X-35161Y146350D02*
X-24500D01*
G01X-35161Y186350D02*
X-24500D01*
G01X-28500Y181400D02*
X-24500D01*
G01X-19100Y19400D02*
X-19250Y19550D01*
Y20500D01*
X-18537Y21213D01*
X-17559D01*
G01X-15787Y19047D02*
Y17487D01*
X-13400Y15100D01*
X-13000D01*
G01X-17362Y19047D02*
Y17238D01*
X-17600Y17000D01*
G01X-26489Y27895D02*
X-24905D01*
X-24600Y28200D01*
X-22900D01*
X-21700Y27000D01*
X-21000D01*
X-20900Y26900D01*
G01D02*
X-19250Y25250D01*
Y23250D01*
X-18787Y22787D01*
X-17559D01*
G01X-21000Y26700D02*
X-20900Y26800D01*
Y26900D01*
G01X-24500Y146350D02*
X-17839D01*
G01X-18069Y160460D02*
X-15840D01*
X-14200Y162100D01*
X-14000D01*
G01X-24500Y186350D02*
X-17839D01*
G01X-24500Y181400D02*
Y186350D01*
G01X-2500Y22500D02*
X-2750D01*
X-4600Y20650D01*
Y20500D01*
G01X-8700Y18000D02*
X-11591D01*
X-12638Y19047D01*
G01X-12441Y21213D02*
X-9113D01*
X-8400Y20500D01*
G01X-4600Y24500D02*
X-4300Y24200D01*
Y24000D01*
G01X-12638Y24953D02*
Y27612D01*
X-11750Y28500D01*
X-8750D01*
G01D02*
X-8400D01*
G01X-12441Y22787D02*
X-10113D01*
X-8400Y24500D01*
G01X-3100Y42900D02*
Y43150D01*
X-4513Y44563D01*
X-7559D01*
X-8350Y43772D01*
Y42689D01*
G01X-2750Y61500D02*
X-3451Y60799D01*
X-5594D01*
G01X3100Y67100D02*
X214D01*
X-4512Y62374D01*
X-5594D01*
G01X-2750Y57000D02*
X-3400Y57650D01*
X-5594D01*
G01X-2265Y144000D02*
X-4600D01*
X-5000Y144400D01*
G01X-5750Y153000D02*
X-2265D01*
G01X-5600Y159200D02*
X-11100D01*
X-14000Y162100D01*
G01X8000Y144000D02*
X5265D01*
G01X8000Y153000D02*
X5265D01*
G01X19400Y91800D02*
X23200D01*
X23500Y91500D01*
G01X19600Y99800D02*
X23200D01*
X23400Y99600D01*
G01X19500Y115400D02*
X22900D01*
X23200Y115100D01*
G01X19700Y107400D02*
X23100D01*
X23300Y107200D01*
G01X19100Y140500D02*
Y136494D01*
X19409Y136184D01*
G01X19100Y144500D02*
Y140500D01*
G01X21300Y30400D02*
X21789Y30889D01*
X26379D01*
G01X21600Y26100D02*
X24849Y29349D01*
X27989D01*
X29528Y30889D01*
G01X32678Y27739D02*
X31131Y26193D01*
G01X21200Y37000D02*
X21400D01*
X22700Y35700D01*
Y34600D01*
X23500Y33800D01*
X26140D01*
X26379Y34039D01*
G01X30900Y67600D02*
Y66800D01*
X34300Y63400D01*
Y60858D01*
X32678Y59235D01*
G01Y62385D02*
X28800Y66263D01*
Y70600D01*
X30600Y72400D01*
Y72500D01*
G01X26400D02*
X26500D01*
X27500Y71500D01*
Y65600D01*
X29528Y63572D01*
Y62385D01*
G01X30600Y72500D02*
Y72600D01*
X28700Y74500D01*
Y79806D01*
X31453Y82559D01*
X31846D01*
G01X25154Y77441D02*
X26428Y76166D01*
Y74862D01*
X26400Y72500D01*
G01X30250Y91500D02*
Y91563D01*
X30500Y91813D01*
X33875D01*
G01X27319Y88026D02*
X30250Y90957D01*
Y91500D01*
G01X33875Y93388D02*
X29188D01*
X27300Y91500D01*
G01X23500Y95400D02*
Y91500D01*
G01X33875Y99687D02*
X31139D01*
X30176Y100650D01*
X30150D01*
X27500Y103300D01*
X27200D01*
G01X33875Y102837D02*
X31037D01*
X28850Y105024D01*
Y105450D01*
X27200Y107100D01*
G01X23400Y103300D02*
Y99600D01*
G01D02*
X23500Y99500D01*
G01X33875Y104412D02*
X31088D01*
X30000Y105500D01*
Y108200D01*
X27100Y111100D01*
G01X27300Y99500D02*
X29700D01*
X31087Y98113D01*
X33875D01*
G01Y94963D02*
X27737D01*
X27300Y95400D01*
G01X23200Y118700D02*
Y115100D01*
G01D02*
X23300Y115000D01*
G01X27100D02*
X27250D01*
X27319Y114931D01*
X27457D01*
X27532Y115005D01*
X28495D01*
X31500Y112000D01*
X32374D01*
X34824Y109550D01*
X36213D01*
Y108325D01*
G01X23300Y111100D02*
Y107200D01*
G01D02*
X23400Y107100D01*
G01X27000Y118700D02*
Y118300D01*
X28820Y116480D01*
Y116307D01*
X31976Y113150D01*
X32850D01*
X35300Y110700D01*
X36800D01*
X37788Y109712D01*
Y108325D01*
G01X22591Y131816D02*
Y127809D01*
X22900Y127500D01*
G01X29159Y134484D02*
X25258D01*
X22591Y131816D01*
G01X29159Y138027D02*
X25373D01*
X22900Y140500D01*
G01X24500Y156250D02*
Y150250D01*
X26000Y148750D01*
X29066D01*
X29159Y148657D01*
G01X45276Y59235D02*
X43872Y60640D01*
X43850D01*
G01X41700Y70200D02*
X44000Y72500D01*
Y72600D01*
G01X39363Y89475D02*
Y88113D01*
X38500Y87250D01*
Y85400D01*
X40000Y83900D01*
G01X34250Y89500D02*
X34275Y89475D01*
X36213D01*
G01X32750Y87750D02*
X33400Y87100D01*
X36613D01*
X37788Y88275D01*
Y89475D01*
G01X42500Y86750D02*
X42513D01*
Y89475D01*
G01X40250Y86750D02*
X40938Y87438D01*
Y89475D01*
G01Y108325D02*
Y111962D01*
X40400Y112500D01*
G01X44087Y108325D02*
Y112507D01*
X39354Y117241D01*
G01X34000Y118100D02*
X38494D01*
X39354Y117241D01*
G01X41000Y135000D02*
Y129789D01*
X40970Y129759D01*
G01X54250Y70000D02*
Y74000D01*
X52000Y76250D01*
Y76400D01*
G01X48000Y80100D02*
X44000D01*
G01X52000D02*
X48000D01*
G01X52000D02*
X54150D01*
X54250Y80000D01*
G01X55400Y92800D02*
X55200Y93000D01*
Y93050D01*
X54862Y93388D01*
X52725D01*
G01X59000Y83400D02*
X58700D01*
X56300Y85800D01*
X48950D01*
X47237Y87513D01*
Y89475D01*
G01X58900Y95500D02*
X58800D01*
X58200Y94900D01*
Y94000D01*
X57000Y92800D01*
Y92000D01*
X56200Y91200D01*
X54400D01*
X53787Y91813D01*
X52725D01*
G01X44087Y89475D02*
Y83987D01*
X44000Y83900D01*
G01X58900Y87400D02*
X58300Y86800D01*
X49450D01*
X48812Y87438D01*
Y89475D01*
G01X50387D02*
X56725D01*
X58450Y91200D01*
X58600D01*
X58900Y91500D01*
G01X56600Y94700D02*
X56500D01*
Y94713D01*
X56250Y94963D01*
X52725D01*
G01X55250Y96500D02*
X52725D01*
Y96538D01*
G01X70250Y100250D02*
X68487Y98487D01*
X66263D01*
X63875Y100875D01*
X56125D01*
X55738Y101262D01*
X52725D01*
G01X56600Y98300D02*
X56400Y98100D01*
X52725D01*
Y98113D01*
G01Y99687D02*
X52963Y99925D01*
X62575D01*
X65000Y97500D01*
X69750D01*
X70250Y98000D01*
G01X52725Y104412D02*
X57088D01*
X57250Y104250D01*
G01X58824Y111176D02*
X58248Y110600D01*
X49700D01*
X48800Y109700D01*
Y108325D01*
X48812D01*
G01X45750Y112500D02*
X45662Y112062D01*
Y108325D01*
G01X52725Y105987D02*
X57763D01*
X60000Y103750D01*
Y103800D01*
G01X51500Y121900D02*
X51600D01*
X53500Y120000D01*
Y113400D01*
X52600Y112500D01*
X49550D01*
G01X52750Y108000D02*
X50712D01*
X50387Y108325D01*
G01X46046Y122359D02*
X51041D01*
X51500Y121900D01*
G01X44500Y135000D02*
Y129759D01*
X44513D01*
G01X55000Y135000D02*
Y129902D01*
X55143Y129759D01*
G01X44513Y174641D02*
X44500Y174250D01*
Y174750D01*
G01X59500Y22500D02*
Y23090D01*
X58000Y24590D01*
X57875D01*
G01X59404Y60791D02*
Y58300D01*
G01X68300Y72600D02*
Y68700D01*
X71025Y65975D01*
Y58525D01*
X68586Y56086D01*
X64174D01*
G01X61024Y59235D02*
X62635Y60845D01*
Y71135D01*
X63950Y72450D01*
X64550D01*
X64400Y72600D01*
G01X60500D02*
X61024Y72076D01*
Y62385D01*
G01X57875D02*
Y71325D01*
X56600Y72600D01*
G01X62800Y79400D02*
X66400D01*
X66600Y79600D01*
G01X62800Y83400D02*
Y79400D01*
G01X62700Y91500D02*
X66500D01*
G01X66600Y87400D02*
Y83400D01*
G01X62700Y87400D02*
X66600D01*
G01X62700Y95500D02*
X66500D01*
G01X58500Y135000D02*
Y129946D01*
X58687Y129759D01*
G01X74041Y138027D02*
X81427D01*
X81500Y138100D01*
G01X85500Y15000D02*
Y-500D01*
X90000Y-5000D01*
G01X88400Y104500D02*
X90125D01*
X92225Y102400D01*
X100600D01*
X105750Y107550D01*
Y123750D01*
X109000Y127000D01*
X112250D01*
X113500Y128250D01*
Y141750D01*
X109750Y145500D01*
Y177500D01*
X110750Y178500D01*
X199250D01*
X201750Y176000D01*
Y169750D01*
X203500Y168000D01*
X208500D01*
X213525Y162975D01*
X228025D01*
X239200Y151800D01*
Y119100D01*
X247900Y110400D01*
Y104300D01*
X249900Y102300D01*
G01X87541Y118846D02*
X87500D01*
Y118400D01*
X90400Y115500D01*
X96400D01*
X97600Y114300D01*
G01X88441Y139146D02*
Y138559D01*
X91400Y135600D01*
X97092D01*
X98361Y134332D01*
G01X81500Y141900D02*
Y150287D01*
X81801Y150589D01*
G01X91750Y155000D02*
X88610D01*
X88199Y155411D01*
G01X93500Y174400D02*
X89240D01*
X88740Y173900D01*
Y173890D01*
G01X81250Y179750D02*
Y173900D01*
X81260Y173890D01*
G01X101300Y77500D02*
X102700Y78900D01*
Y97700D01*
X104000Y99000D01*
Y102200D01*
X105700Y103900D01*
G01X97600Y110500D02*
X101300D01*
X101400Y110400D01*
G01X92659Y112154D02*
X94313Y110500D01*
X97600D01*
G01Y118000D02*
Y114300D01*
G01Y118000D02*
X101400D01*
X101500Y117900D01*
G01X98361Y130532D02*
X102200Y130600D01*
G01X98361Y130532D02*
X95681D01*
X93559Y132454D01*
G01X98361Y138030D02*
Y134332D01*
G01X102200Y137900D02*
X98491D01*
X98361Y138030D01*
G01X102200Y141700D02*
X104100D01*
G01X97600Y149500D02*
X95500Y151600D01*
Y168250D01*
X96500Y169250D01*
X102250D01*
X102750Y168750D01*
X104500D01*
X105500Y169750D01*
Y176750D01*
G01X97600Y157500D02*
Y157400D01*
X99750Y155250D01*
X106250D01*
X108000Y153500D01*
Y133100D01*
X111300Y129800D01*
G01X97600Y157500D02*
Y161500D01*
G01X96941Y166235D02*
Y162159D01*
X97600Y161500D01*
G01X102059Y173765D02*
Y176691D01*
G01X93500Y170600D02*
X93650Y170750D01*
X98250D01*
X99500Y172000D01*
Y173765D01*
G01X105700Y103900D02*
X108300D01*
X113100Y108700D01*
Y124600D01*
X119250Y130750D01*
Y138000D01*
X120500Y139250D01*
X123301D01*
X124799Y140748D01*
G01X107400Y121800D02*
Y123400D01*
X109500Y125500D01*
X112300D01*
X117250Y130450D01*
Y141000D01*
X118574Y142324D01*
X126372D01*
X127948Y140748D01*
G01X114446Y151722D02*
X117519Y148649D01*
X123075D01*
X124676Y147047D01*
X124799D01*
G01X111500Y176750D02*
Y173500D01*
X113250Y171750D01*
Y169000D01*
X111250Y167000D01*
Y161250D01*
X115155Y157345D01*
Y155345D01*
X117005Y153495D01*
X121500D01*
X121649Y153346D01*
G01X124799Y159646D02*
X126500Y161347D01*
Y164343D01*
X119200Y171643D01*
Y173400D01*
X115850Y176750D01*
X113750D01*
G01X127948Y121850D02*
X126850D01*
X125200Y123500D01*
X123300D01*
X123200Y123600D01*
G01X126200Y120250D02*
X132698D01*
X134248Y118701D01*
G01X127948Y137598D02*
X126412Y139135D01*
G01X119411Y151801D02*
X123075D01*
X124679Y150197D01*
X124799D01*
G01X127948Y147047D02*
X126372Y148623D01*
G01X121649Y147047D02*
X121653D01*
X122900Y145800D01*
G01X117125Y156529D02*
Y156332D01*
X118544Y154913D01*
X123193D01*
X124760Y153346D01*
X124799D01*
G01Y156496D02*
X123223Y158072D01*
G01X127948Y156496D02*
X126372Y158072D01*
G01X130000Y-5000D02*
X135100Y100D01*
X221900D01*
X224300Y2500D01*
Y7700D01*
X226600Y10000D01*
Y27300D01*
X225400Y28500D01*
Y31700D01*
G01X140547Y115551D02*
X138991Y113995D01*
G01X134248Y112402D02*
X132691Y110845D01*
G01X137397Y112402D02*
X135841Y110845D01*
G01X137397Y115551D02*
X135841Y113995D01*
G01X140547Y112402D02*
X138991Y110845D01*
G01X127350Y123950D02*
X127400Y123900D01*
X129048D01*
X131098Y121850D01*
G01X137397Y118701D02*
X135841Y117144D01*
G01X137397Y125000D02*
X135821Y126576D01*
G01X129650Y117150D02*
X131098Y118598D01*
Y118701D01*
G01X140547Y134449D02*
X138971Y136025D01*
G01X137397Y137598D02*
X135861Y139135D01*
G01X140547Y140748D02*
X139025Y139226D01*
Y139201D01*
X139000D01*
G01X134248Y137598D02*
X132711Y139135D01*
G01X137397Y134449D02*
X135821Y136025D01*
G01X137397Y143898D02*
X135821Y145474D01*
G01X137397Y147047D02*
X135821Y148623D01*
G01X140547Y150197D02*
X138971Y151773D01*
G01X134248Y147047D02*
X132711Y148584D01*
G01X138971Y142471D02*
X137397Y140897D01*
Y140748D01*
G01X131098Y147047D02*
X129522Y148623D01*
G01X131098Y150197D02*
Y153391D01*
X129576Y154913D01*
G01X137397Y153346D02*
X135821Y154922D01*
G01X137397Y156496D02*
X135821Y158072D01*
G01X134248Y153346D02*
X132672Y154922D01*
G01X232500Y156250D02*
X230750Y154500D01*
X222000D01*
X218000Y158500D01*
X216500D01*
X208000Y167000D01*
X203000D01*
X202975Y167025D01*
X140500D01*
X138900Y165425D01*
Y161600D01*
X138550Y161250D01*
X132702D01*
X131098Y159646D01*
G01X127948Y162795D02*
X128000Y162847D01*
Y165000D01*
G01X131098Y156496D02*
X129522Y158072D01*
G01X131098Y162795D02*
Y165000D01*
G01X227000Y29800D02*
X227600Y29200D01*
Y9400D01*
X225599Y7399D01*
Y1999D01*
X222700Y-900D01*
X144350D01*
X140250Y-5000D01*
X140000D01*
G01X146846Y131299D02*
X145270Y132875D01*
G01X149996Y137598D02*
X148420Y139174D01*
G01X146846Y147047D02*
X145270Y148623D01*
G01X142105Y148649D02*
Y148639D01*
X143696Y147047D01*
G01Y150197D02*
X142120Y151773D01*
G01X149996Y143898D02*
X148420Y145474D01*
G01X149996Y147047D02*
X148420Y148623D01*
G01X145750Y165500D02*
X146846Y164404D01*
Y162795D01*
G01X148000Y165500D02*
X148500Y165000D01*
Y161141D01*
X149996Y159646D01*
G01X143500Y165500D02*
X145296Y163704D01*
Y161178D01*
X146829Y159646D01*
X146846D01*
G01Y153346D02*
X145270Y154922D01*
G01X146846Y156496D02*
X145217Y158125D01*
G01X153145Y80906D02*
X154740Y82500D01*
X166500D01*
X167250Y81750D01*
Y76750D01*
X168000Y76000D01*
X170000D01*
X171000Y75000D01*
Y66250D01*
X175750Y61500D01*
X182100D01*
G01X153145Y77756D02*
X154601Y76300D01*
X162200D01*
X163750Y74750D01*
Y67500D01*
X165250Y66000D01*
X169000D01*
X177500Y57500D01*
X182100D01*
G01X153145Y137598D02*
X151569Y139174D01*
G01X162594Y137598D02*
X161018Y139174D01*
G01X159444Y137598D02*
X157868Y139174D01*
G01X156295Y150197D02*
X154719Y151773D01*
G01X153145Y150197D02*
X151569Y151773D01*
G01X156295Y143898D02*
X154719Y145474D01*
G01X156295Y147047D02*
X154719Y148623D01*
G01X153145Y143898D02*
X151569Y145474D01*
G01X153145Y147047D02*
X151569Y148623D01*
G01X162594Y150197D02*
X161018Y151773D01*
G01X162594Y147047D02*
X161018Y148623D01*
G01X156295Y153346D02*
X154719Y154922D01*
G01X153145Y156496D02*
X151569Y158072D01*
G01X153145Y153346D02*
X151569Y154922D01*
G01X153145Y162795D02*
X154721Y164371D01*
G01X164250Y161220D02*
X154720D01*
X153145Y159646D01*
G01X172043Y77756D02*
Y68957D01*
X174750Y66250D01*
X182907D01*
X185157Y64000D01*
X187400D01*
X190000Y61400D01*
G01X172043Y80906D02*
X173500Y79448D01*
Y73000D01*
X176750Y69750D01*
X182500D01*
X187000Y65250D01*
X190050D01*
X193900Y61400D01*
X194000D01*
G01X172043Y143898D02*
X173619Y145474D01*
G01X172043Y147047D02*
X173618Y148622D01*
G01X165744Y147047D02*
X167320Y148623D01*
G01X165744Y150197D02*
X167320Y151773D01*
G01X172043Y159646D02*
X173619Y161222D01*
G01X172043Y162795D02*
X173619Y164371D01*
G01X168893Y162795D02*
X170430Y164332D01*
G01X182000Y27100D02*
Y25250D01*
G01X185900Y30900D02*
Y31200D01*
X187900Y33200D01*
Y38900D01*
X189000Y40000D01*
G01X182000Y30900D02*
X184000Y32900D01*
Y51250D01*
X187500Y54750D01*
G01X185900Y36000D02*
Y40000D01*
G01D02*
Y44000D01*
G01X184641Y77756D02*
Y75859D01*
X187000Y73500D01*
X191557D01*
X194000Y71057D01*
Y70000D01*
X195000Y69000D01*
X198300D01*
X205900Y61400D01*
X206000D01*
G01X178342Y77756D02*
Y75158D01*
X182000Y71500D01*
X187000D01*
X195000Y63500D01*
X195800D01*
X197900Y61400D01*
X198000D01*
G01X210000D02*
Y65000D01*
X206000Y69000D01*
X203000D01*
X202000Y70000D01*
Y71500D01*
X201000Y72500D01*
X193900D01*
X191900Y74500D01*
X188500D01*
X186250Y76750D01*
Y79297D01*
X184641Y80906D01*
G01X178342D02*
X180000Y79248D01*
Y75000D01*
X182500Y72500D01*
X188243D01*
X195743Y65000D01*
X198300D01*
X201900Y61400D01*
X202000D01*
G01X178342Y106102D02*
X179879Y104566D01*
G01X186200Y104500D02*
X183200D01*
X181598Y106102D01*
X181492D01*
G01X178342Y121850D02*
X179879Y120314D01*
G01X181492Y121850D02*
X183028Y120314D01*
G01X178342Y137598D02*
X179918Y139174D01*
G01X181492Y131299D02*
X183068Y132875D01*
G01X184641Y147047D02*
X186217Y148623D01*
G01X181492Y147047D02*
X183066Y148622D01*
G01X184641Y150197D02*
X186216Y151772D01*
G01X178342Y143898D02*
X179917Y145472D01*
G01X183066Y151772D02*
X181492Y150197D01*
G01X178342Y147047D02*
X179919Y148624D01*
Y148622D01*
G01X175192Y147047D02*
X176767Y148622D01*
G01X175192Y150197D02*
X176768Y151773D01*
G01X181492Y143898D02*
X183068Y145474D01*
G01X187791Y147047D02*
X186254Y145511D01*
G01X181492Y153346D02*
X183066Y154921D01*
G01X184641Y153346D02*
X186216Y154921D01*
G01X181492Y162795D02*
X183068Y164371D01*
G01X184641Y159646D02*
X186217Y161222D01*
G01X181492Y159646D02*
X183068Y161222D01*
G01X175192Y162795D02*
X176768Y164371D01*
G01X175192Y153346D02*
X176768Y154922D01*
G01X184641Y156496D02*
X186217Y158072D01*
G01X175192Y156496D02*
X176768Y158072D01*
G01X181492Y156496D02*
X183068Y158072D01*
G01X184641Y162795D02*
X186217Y164371D01*
G01X175192Y159646D02*
X176768Y161222D01*
G01X178342Y159646D02*
X179918Y161222D01*
G01X199200Y16800D02*
X196393D01*
X194253Y14660D01*
G01X197700Y30900D02*
X198500D01*
X199700Y32100D01*
Y35150D01*
X199250Y35600D01*
X198900D01*
G01X193700Y30900D02*
X194350D01*
X195300Y31850D01*
Y36000D01*
X195200Y36100D01*
G01X189800Y30900D02*
X190400D01*
X191600Y32100D01*
Y36100D01*
G01X195047Y39594D02*
Y38547D01*
X195000Y38500D01*
G01X192094Y42547D02*
X189047D01*
X189000Y42500D01*
G01X192094Y44516D02*
X189234D01*
X189000Y44750D01*
G01X197016Y39594D02*
Y40750D01*
G01X195047Y51405D02*
X189156D01*
X189000Y51250D01*
G01X198000Y55000D02*
X197016Y54016D01*
Y51405D01*
G01X189400Y48900D02*
X189847Y48453D01*
X192094D01*
G01X198750Y76250D02*
X198740D01*
X197240Y77750D01*
Y77756D01*
G01X198841Y79304D02*
X197240Y80906D01*
G01X218000Y61400D02*
X215500Y63900D01*
Y68500D01*
X209500Y74500D01*
X198157D01*
X195792Y76864D01*
Y78666D01*
X195000Y79458D01*
X189238D01*
X187791Y80906D01*
G01Y77756D02*
X190047Y75500D01*
X192244D01*
X194269Y73475D01*
X208025D01*
X214257Y67243D01*
Y61557D01*
X214100Y61400D01*
X214000D01*
G01X197240Y90354D02*
X198776Y88818D01*
G01X197240Y93504D02*
X198776Y91967D01*
G01X190941Y93504D02*
X190864D01*
X189328Y91967D01*
G01X197240Y84055D02*
X198776Y82518D01*
G01X194090Y87205D02*
X197363D01*
X198802Y85766D01*
G01X192474Y101474D02*
X190995Y102953D01*
X190941D01*
G01X187791Y99803D02*
X189328Y98266D01*
G01X197240Y102953D02*
X198700Y101493D01*
Y101400D01*
G01X194090Y102953D02*
X195627Y101416D01*
G01X197240Y99803D02*
X198776Y98266D01*
G01X190941Y96654D02*
X189394Y95106D01*
G01X192600Y95000D02*
X192500Y95100D01*
Y98244D01*
X190941Y99803D01*
G01X194090Y99803D02*
X195627Y98266D01*
G01X190941Y106102D02*
X192477Y107639D01*
G01X190941Y109252D02*
X192477Y110789D01*
G01X195600Y107800D02*
Y108000D01*
X194348Y109252D01*
X194090D01*
G01X197240D02*
Y109249D01*
X198776Y107712D01*
G01X194090Y112402D02*
X195627Y110865D01*
G01X187791Y112402D02*
X189328Y110865D01*
G01X187791Y115551D02*
X189328Y114015D01*
G01X197240Y112402D02*
X198776Y110865D01*
G01X190941Y112402D02*
X192477Y113938D01*
G01X187791Y121850D02*
X189328Y120314D01*
G01X190941Y121850D02*
X192477Y120314D01*
G01X202000Y123433D02*
X195673D01*
X194090Y121850D01*
G01X190941Y128150D02*
X192516Y129726D01*
G01X187791Y128150D02*
X189367Y129726D01*
G01X197240Y121850D02*
X198776Y120314D01*
G01X194090Y137598D02*
X195594Y136094D01*
G01X190941Y140748D02*
X192516Y142324D01*
G01X187791Y131299D02*
X189367Y132875D01*
G01X190941Y134449D02*
X192516Y136025D01*
G01X190941Y137598D02*
X192516Y139174D01*
G01X194090Y140748D02*
X195669Y139169D01*
G01X197240Y137598D02*
X198816Y139174D01*
G01X197240Y131299D02*
X198816Y132875D01*
G01X190941Y131299D02*
X192477Y132836D01*
G01X187791Y134449D02*
X189367Y136025D01*
G01X197240Y140748D02*
X198776Y142285D01*
G01X194090Y131299D02*
X195627Y132836D01*
G01X194090Y147047D02*
X195666Y148623D01*
G01X194090Y143898D02*
X195666Y145474D01*
G01X197240Y150197D02*
X198816Y151773D01*
G01X197240Y147047D02*
X198816Y148623D01*
G01X197240Y143898D02*
X198776Y145434D01*
G01X190941Y150197D02*
X189404Y148660D01*
G01X197240Y156496D02*
X198816Y154920D01*
G01X190941Y153346D02*
X192516Y154922D01*
G01X197240Y159646D02*
X198816Y158070D01*
G01X197240Y162795D02*
X195664Y164371D01*
G01X190941Y159646D02*
X192517Y161222D01*
G01X194750Y183500D02*
Y189750D01*
X200000Y195000D01*
G01X207200Y14200D02*
X209400D01*
X209700Y14500D01*
G01X203400Y14200D02*
Y18000D01*
G01X199200Y16800D02*
X201800Y14200D01*
X203400D01*
G01X209600Y30900D02*
X209700D01*
X211600Y32800D01*
Y34800D01*
X211300Y35100D01*
G01X201900Y30900D02*
Y34600D01*
X203200Y35900D01*
G01X205800Y30900D02*
Y31500D01*
X207600Y33300D01*
Y36100D01*
X207500Y36200D01*
G01X210200Y44700D02*
X210050D01*
X209600Y45150D01*
Y46600D01*
G01X207200Y40300D02*
X204953Y42547D01*
X203906D01*
G01X200953Y39594D02*
Y40703D01*
X201000Y40750D01*
G01X198984Y39594D02*
Y38516D01*
X199000Y38500D01*
G01X203906Y44516D02*
X203921Y44500D01*
X206000D01*
X207000Y43500D01*
G01Y47500D02*
X205984Y46484D01*
X203906D01*
G01X200250Y55000D02*
X198984Y53734D01*
Y51405D01*
G01X207000Y49700D02*
X208900D01*
X209600Y50400D01*
G01X207000Y49700D02*
X206887Y49813D01*
X206250D01*
X204890Y48453D01*
X203906D01*
G01X200953Y51405D02*
Y52390D01*
X202600Y54037D01*
Y54900D01*
G01X206200Y54100D02*
X203400D01*
X202600Y54900D01*
G01X203539Y80906D02*
X205076Y79369D01*
G01X200389Y77756D02*
X202023Y76123D01*
G01X200389Y80906D02*
X201926Y79369D01*
G01X200389Y84055D02*
X201926Y82518D01*
G01X200389Y93504D02*
X201926Y91967D01*
G01X203539Y90354D02*
X205076Y88818D01*
G01X209600Y88500D02*
X211000Y89900D01*
Y93000D01*
X209000Y95000D01*
X205193D01*
X203539Y96654D01*
G01X206689Y84055D02*
X208225Y82518D01*
G01X203539Y84055D02*
X205097Y82497D01*
G01X201926Y85668D02*
X209432D01*
X210600Y84500D01*
Y75500D01*
X215300Y70800D01*
X219700D01*
X221300Y72400D01*
X233000D01*
X243200Y62200D01*
Y55900D01*
X249600Y49500D01*
X252900D01*
G01X200389Y87205D02*
X201926Y85668D01*
G01X201800Y101400D02*
X201700Y101500D01*
Y101642D01*
X200389Y102953D01*
G01Y99803D02*
X201926Y98266D01*
G01X222100Y80700D02*
X219200Y83600D01*
Y85200D01*
X218100Y86300D01*
X216700D01*
X216200Y86800D01*
Y94900D01*
X215500Y95600D01*
Y97200D01*
X213950Y98750D01*
X210350D01*
X209297Y99803D01*
X206689D01*
G01X222000Y74600D02*
X216500D01*
X212000Y79100D01*
Y94000D01*
X209346Y96654D01*
X206689D01*
G01X259900Y52000D02*
X249000D01*
X244400Y56600D01*
Y62500D01*
X233500Y73400D01*
X225400D01*
X220000Y78800D01*
Y80600D01*
X218400Y82200D01*
X216800D01*
X215200Y83800D01*
Y93900D01*
X214300Y94800D01*
X212900D01*
X209400Y98300D01*
X205042D01*
X203539Y99803D01*
G01X262700Y50500D02*
X262600Y50600D01*
Y51700D01*
X260700Y53600D01*
X248900D01*
X245700Y56800D01*
Y62700D01*
X234000Y74400D01*
X226100D01*
X224100Y76400D01*
Y80900D01*
X220450Y84550D01*
Y85650D01*
X219400Y86700D01*
Y97000D01*
X217800Y98600D01*
X216500D01*
X215700Y99400D01*
Y101500D01*
X215000Y102200D01*
X212100D01*
X211400Y101500D01*
X204992D01*
X203539Y102953D01*
G01X205000Y104600D02*
Y104800D01*
X203698Y106102D01*
X203539D01*
G01X223300Y92500D02*
X225300Y94500D01*
Y97800D01*
X224500Y98600D01*
X222400D01*
X221500Y99500D01*
Y102400D01*
X218000Y105900D01*
X213400D01*
X210048Y109252D01*
X206689D01*
G01Y106102D02*
X207102D01*
X207600Y106600D01*
X209700D01*
X212600Y103700D01*
X216700D01*
X219300Y101100D01*
Y98800D01*
X220400Y97700D01*
Y88100D01*
X222500Y86000D01*
Y85900D01*
X222550Y85550D01*
G01X200389Y109252D02*
X201926Y107715D01*
X210185D01*
X213100Y104800D01*
X217400D01*
X220350Y101850D01*
Y99250D01*
X221375Y98225D01*
Y90725D01*
X223300Y88500D01*
G01X201800Y110900D02*
X200389Y112311D01*
Y112402D01*
G01X206689Y118701D02*
X208225Y117164D01*
G01X203539Y125000D02*
X205085Y126546D01*
X208546D01*
X209000Y127000D01*
G01X206689Y128150D02*
X208343Y129804D01*
G01X203539Y118701D02*
X205076Y117164D01*
G01X209250Y123500D02*
X208250D01*
X206750Y125000D01*
X206689D01*
G01X203539Y128150D02*
X201884Y126495D01*
G01X203539Y121850D02*
X205076Y120314D01*
G01X200389Y121850D02*
X201926Y120314D01*
G01X200389Y137598D02*
X201965Y139174D01*
G01X206689Y137598D02*
X207598D01*
X207750Y137750D01*
X212350D01*
X213600Y136500D01*
G01X203539Y137598D02*
X205115Y139174D01*
G01X206689Y131299D02*
X205034Y129644D01*
G01X200389Y140748D02*
X201965Y142324D01*
G01X200389Y131299D02*
X201965Y132875D01*
G01X203539Y134449D02*
X205115Y136025D01*
G01X223600Y124500D02*
X221600Y126500D01*
X212250D01*
X211250Y127500D01*
Y133250D01*
X210051Y134449D01*
X206689D01*
G01X203539Y140748D02*
X205115Y142324D01*
G01X206689Y143898D02*
X208265Y145474D01*
G01X200389Y150197D02*
X201965Y151773D01*
G01X206689Y150197D02*
X211197D01*
X213500Y152500D01*
Y156500D01*
G01X200389Y147047D02*
X201965Y148623D01*
G01X200389Y143898D02*
X201965Y145474D01*
G01X203539Y143898D02*
X205115Y145474D01*
G01X206689Y140748D02*
X217252D01*
X219250Y138750D01*
X221750D01*
X223600Y136900D01*
Y136500D01*
G01X200389Y162795D02*
X201965Y164371D01*
G01X198750Y164500D02*
Y161389D01*
X200389Y159750D01*
Y159646D01*
G01X203539Y156496D02*
X201963Y158072D01*
G01X200389Y156496D02*
X201926Y154960D01*
G01X223600Y144500D02*
X219750D01*
X217750Y146500D01*
X216250D01*
X215500Y147250D01*
Y157000D01*
X214250Y158250D01*
X208500D01*
X206746Y156496D01*
X206689D01*
G01X203539Y153346D02*
X205193Y155000D01*
X208250D01*
G01X241840Y148600D02*
Y150410D01*
X228250Y164000D01*
X220000D01*
X218925Y165075D01*
Y165132D01*
X217057Y167000D01*
X211000D01*
X209000Y169000D01*
X205000D01*
X203500Y170500D01*
Y170600D01*
G01X207500D02*
X207675Y170425D01*
X208825D01*
X211250Y168000D01*
X217250D01*
X220250Y165000D01*
X228500D01*
X243809Y149691D01*
Y148594D01*
G01X220900Y10600D02*
Y11200D01*
X219716Y12384D01*
Y14220D01*
G01X221684D02*
X221700Y14204D01*
Y12600D01*
X223450Y10850D01*
G01X222900Y29800D02*
X222600D01*
X221684Y28884D01*
Y26380D01*
G01X213400Y30900D02*
X216000Y33500D01*
Y34100D01*
X216200Y34300D01*
G01X219100Y33400D02*
Y34490D01*
X214769Y38820D01*
G01D02*
Y38031D01*
X216200Y36600D01*
G01X235700Y62500D02*
X220300D01*
X218800Y64000D01*
X217800D01*
G01X226000Y77900D02*
Y82100D01*
X224500Y83600D01*
Y86800D01*
X228800Y91100D01*
Y97700D01*
X227800Y98700D01*
X226200D01*
X225000Y99900D01*
Y105575D01*
X224550Y106025D01*
X221475D01*
X219500Y108000D01*
Y110500D01*
X217500Y112500D01*
X217400D01*
G01X223600D02*
X221250D01*
G01X223600Y108500D02*
X221250D01*
G01X223600Y116500D02*
X221250D01*
G01X223600Y128500D02*
X221250D01*
G01X223600Y120500D02*
X221250D01*
G01X223600Y140500D02*
X221250D01*
G01Y137000D02*
Y134750D01*
X223500Y132500D01*
X223600D01*
G01X221250Y160500D02*
Y158850D01*
X223600Y156500D01*
G01X244793Y147217D02*
Y149957D01*
X228750Y166000D01*
X220500D01*
X217500Y169000D01*
X213100D01*
X211500Y170600D01*
G01X246761Y147217D02*
Y150488D01*
X244829Y152421D01*
X229230Y168020D01*
X222080D01*
X219500Y170600D01*
G01X215500D02*
X215600Y170500D01*
X217250D01*
X220750Y167000D01*
X229000D01*
X245777Y150223D01*
Y148594D01*
G01X223600Y27700D02*
X223653Y27647D01*
Y26380D01*
G01X227400Y124500D02*
X227250D01*
X225500Y122750D01*
Y110350D01*
X227250Y108600D01*
X227400D01*
Y108500D01*
G01Y136500D02*
X230750Y133150D01*
Y119850D01*
X227400Y116500D01*
G01Y140500D02*
X232250Y135650D01*
Y117350D01*
X227400Y112500D01*
G01Y120500D02*
Y120600D01*
X229250Y122450D01*
Y126550D01*
X227400Y128400D01*
Y128500D01*
G01X223500Y170600D02*
X225100Y169000D01*
X229500D01*
X247329Y151171D01*
Y151167D01*
X247746Y150750D01*
Y148594D01*
G01X232000Y170900D02*
X231500Y170400D01*
Y169500D01*
X249714Y151286D01*
Y148594D01*
G01X226500Y170600D02*
X229150D01*
X248730Y151020D01*
Y147217D01*
G01X246000Y110000D02*
X246800Y109200D01*
Y103600D01*
X245500Y102300D01*
X244700D01*
G01X268500Y145750D02*
Y150250D01*
X266500Y152250D01*
X262000D01*
X261000Y151250D01*
X254500D01*
X237500Y168250D01*
G01X273000Y128250D02*
X270250Y131000D01*
Y150750D01*
X267500Y153500D01*
X261000D01*
X260000Y152500D01*
X255750D01*
X240000Y168250D01*
G01X250698Y147217D02*
Y152552D01*
X235000Y168250D01*
G01X237500D02*
Y168500D01*
X235500Y170500D01*
Y170600D01*
G01X258750Y154250D02*
X256250D01*
X242250Y168250D01*
G01X240000D02*
Y170100D01*
X239500Y170600D01*
G01X243500D02*
X244500Y169600D01*
Y168250D01*
G01X273000Y132750D02*
X271250Y134500D01*
Y151900D01*
X268150Y155000D01*
X261200D01*
X259450Y156750D01*
X256000D01*
X244500Y168250D01*
G01X248150Y68550D02*
X248200Y68600D01*
Y70300D01*
X251900Y74000D01*
Y82500D01*
X249600Y84800D01*
Y94700D01*
X251300Y96400D01*
X251550D01*
G01Y92400D02*
Y84350D01*
X253300Y82600D01*
Y72800D01*
X253200Y72700D01*
G01X255500Y72800D02*
Y80500D01*
X258400Y83400D01*
Y89500D01*
X256650Y91250D01*
X256400D01*
G01X251550Y92400D02*
X253200D01*
X253900Y93100D01*
G01X256400Y91250D02*
X254450D01*
X254000Y90800D01*
G01X256400Y95700D02*
X252250D01*
X251550Y96400D01*
G01X262069Y86600D02*
Y94331D01*
X259100Y97300D01*
X254750D01*
X253900Y98150D01*
G01X249900Y106100D02*
Y111200D01*
G01X253750Y108850D02*
Y106150D01*
X253700Y106100D01*
G01X250698Y125563D02*
Y127448D01*
X250750Y127500D01*
G01X247750D02*
X248750Y126500D01*
Y125563D01*
X248730D01*
G01Y129500D02*
X247750D01*
X246750Y130500D01*
G01X248730Y131468D02*
X252250D01*
G01X249000Y168250D02*
X256750Y160500D01*
X259300D01*
X263300Y156500D01*
X271750D01*
X273000Y155250D01*
Y137000D01*
G01X258750Y158750D02*
X256250D01*
X246750Y168250D01*
G01X247500Y170600D02*
X249000Y169100D01*
Y168250D01*
G01X270731Y90340D02*
Y88469D01*
X271100Y88100D01*
G01X270731Y82860D02*
Y84531D01*
X270931Y84731D01*
G54D77*
X256400Y91250D03*
Y84950D03*
G54D68*
X197016Y39594D03*
X195047D03*
Y51405D03*
X197016D03*
X200953Y39594D03*
X198984D03*
Y51405D03*
X200953D03*
G54D59*
X77588Y80266D03*
Y72785D03*
X86250Y76526D03*
X270731Y82860D03*
Y90340D03*
X262069Y86600D03*
G54D87*
G01X32678Y30889D02*
X31131Y29342D01*
G01X42127Y43487D02*
X43674Y45034D01*
G01X45276Y34039D02*
X43701Y35614D01*
X43683D01*
G01X38977Y37188D02*
X37430Y35641D01*
G01X42127Y49787D02*
Y49660D01*
X40570Y48104D01*
G01X38977Y49787D02*
X37430Y51334D01*
G01X54725Y34039D02*
X56272Y32492D01*
G01X48426Y34039D02*
X46889Y32501D01*
X46874D01*
X46796Y32422D01*
G01X48426Y43487D02*
X49969Y45030D01*
X49987D01*
G01X51576Y40338D02*
X53122Y38791D01*
G01X51576Y43487D02*
X50105Y42017D01*
Y41996D01*
X49987Y41878D01*
G01X48426Y40338D02*
X49973Y38791D01*
G01X51576Y34039D02*
X49922Y35692D01*
X49908D01*
G01X45276Y37188D02*
X46852Y35613D01*
X46870D01*
G01X54725Y56086D02*
X56272Y57633D01*
G01X48426Y52936D02*
X49973Y54483D01*
G01X59404Y58300D02*
Y57615D01*
X57875Y56086D01*
G54D69*
X192094Y42547D03*
Y44516D03*
Y46484D03*
Y48453D03*
X203906Y44516D03*
Y42547D03*
Y48453D03*
Y46484D03*
G54D78*
X275768Y74295D03*
Y98705D03*
G54D88*
G01X110250Y20750D02*
X106650D01*
X104900Y22500D01*
G01X110250Y17250D02*
X110000Y17500D01*
X106400D01*
X104900Y19000D01*
G01X108750Y31250D02*
X106650D01*
X104900Y33000D01*
G01X142979Y23541D02*
Y24328D01*
X141404Y25903D01*
Y27478D01*
X140616Y28265D01*
X135892D01*
X135105Y27478D01*
Y25903D01*
X134317Y25116D01*
X121719D01*
X115026Y31809D01*
Y34171D01*
X113254Y35942D01*
Y39092D01*
G01X110250Y24250D02*
X106650D01*
X104900Y26000D01*
G01X110250Y27750D02*
X106650D01*
X104900Y29500D01*
G01X142979Y48738D02*
X141404Y47163D01*
X118963D01*
X111483Y39683D01*
Y34958D01*
X113254Y33187D01*
G01X104900Y36500D02*
X106650Y34750D01*
X108750D01*
G01X104900Y43500D02*
X106650Y45250D01*
X108750D01*
G01X124081Y45588D02*
X120152D01*
X114778Y40214D01*
Y36565D01*
X115203Y36139D01*
X115223D01*
G01X104900Y54000D02*
X106650Y55750D01*
X108750D01*
G01X104900Y47000D02*
X106650Y48750D01*
X108750D01*
G01X104900Y50500D02*
X106650Y52250D01*
X108750D01*
G01X104900Y57500D02*
X106650Y59250D01*
X108750D01*
G01X104900Y61000D02*
X106650Y62750D01*
X108750D01*
G01X121649Y93504D02*
X118294D01*
X117400Y94398D01*
Y98306D01*
X117006Y98700D01*
X115700D01*
X115000Y98000D01*
Y85494D01*
X115394Y85100D01*
X117206D01*
X117600Y85494D01*
Y91300D01*
X118200Y91900D01*
X118548D01*
X118578Y91929D01*
X120074D01*
G01X124081Y29840D02*
X123779D01*
X122653Y30966D01*
Y33889D01*
X121578Y34965D01*
Y38639D01*
X121128Y39089D01*
Y39092D01*
G01X124081Y42439D02*
X122355D01*
X119570Y39654D01*
Y38322D01*
X120678Y37214D01*
Y33637D01*
X121128Y33187D01*
G01X127231Y45588D02*
Y45576D01*
X125656Y44000D01*
X119964D01*
X115678Y39715D01*
Y38189D01*
X116728Y37139D01*
Y33639D01*
X117181Y33187D01*
X117191D01*
G01X127231Y42439D02*
X125656Y40864D01*
X124703D01*
X123553Y39714D01*
Y37965D01*
X124628Y36889D01*
Y33589D01*
X125031Y33187D01*
X125065D01*
G01X127231Y26691D02*
X126752D01*
X125177Y28265D01*
X121880D01*
X119628Y30517D01*
Y35665D01*
X119160Y36133D01*
Y36139D01*
G01X127231Y29840D02*
Y30712D01*
X126578Y31364D01*
Y34164D01*
X125528Y35214D01*
Y38630D01*
X125065Y39092D01*
G01X130380Y26691D02*
X129494D01*
X127920Y28265D01*
X126443D01*
X125656Y29053D01*
Y30411D01*
X123553Y32514D01*
Y35683D01*
X123103Y36133D01*
X123097D01*
Y36139D01*
G01X124081Y26691D02*
X121735D01*
X118703Y29722D01*
Y34139D01*
X117653Y35189D01*
Y38628D01*
X117528Y38753D01*
X117516D01*
X117191Y39078D01*
Y39092D01*
G01X133530Y26691D02*
X131955Y28265D01*
X129494D01*
X128806Y28954D01*
Y31037D01*
X127503Y32339D01*
Y35689D01*
X127053Y36139D01*
X127034D01*
G01X133530Y29840D02*
X133553D01*
X134453Y30740D01*
Y33965D01*
X133403Y35014D01*
Y38614D01*
X132939Y39078D01*
Y39092D01*
G01X136680Y29840D02*
X138378Y31539D01*
Y34140D01*
X137328Y35189D01*
Y38639D01*
X136876Y39091D01*
Y39092D01*
G01X136680Y42439D02*
Y41041D01*
X135378Y39739D01*
Y38014D01*
X136428Y36964D01*
Y33611D01*
X136853Y33187D01*
X136876D01*
G01X133530Y42439D02*
Y42415D01*
X132850Y41735D01*
X131428Y40313D01*
Y38089D01*
X132503Y37014D01*
Y33614D01*
X132931Y33187D01*
X132939D01*
G01X130380Y42439D02*
X130207D01*
X128622Y40853D01*
X127503Y39734D01*
Y38315D01*
X128553Y37265D01*
Y33589D01*
X128956Y33187D01*
X129002D01*
G01X130380Y29840D02*
X130403D01*
X130503Y29940D01*
Y33965D01*
X129453Y35014D01*
Y38642D01*
X129003Y39092D01*
X129002D01*
G01X130971Y36139D02*
X130953D01*
X130528Y36565D01*
Y40678D01*
X131955Y42105D01*
Y44013D01*
X130380Y45588D01*
G01X136680D02*
X136796D01*
X138408Y43977D01*
Y36559D01*
X138828Y36139D01*
G01X133530Y45588D02*
X135105Y44013D01*
Y41166D01*
X134478Y40539D01*
Y36565D01*
X134903Y36139D01*
X134908D01*
G01X142979Y42439D02*
X143253Y42164D01*
Y38227D01*
X144628Y36852D01*
Y33287D01*
X144728Y33187D01*
X144750D01*
G01X139829Y42439D02*
X139827D01*
X139303Y41914D01*
Y38139D01*
X140353Y37089D01*
Y33637D01*
X140803Y33187D01*
X140813D01*
G01X139829Y29840D02*
X142328Y32339D01*
Y34139D01*
X141278Y35189D01*
Y38628D01*
X140813Y39092D01*
G01X146128Y42439D02*
X145087D01*
X144707Y42058D01*
Y41246D01*
X145013Y40939D01*
X147581D01*
X147998Y40522D01*
Y39542D01*
X147548Y39092D01*
X144750D01*
G01X139829Y45588D02*
X141369Y44048D01*
Y41686D01*
X142328Y40727D01*
Y36396D01*
X142585Y36139D01*
X142782D01*
G54D79*
G01X21400Y25800D02*
X21600Y26000D01*
Y26100D01*
G01X104500Y97300D02*
X106400D01*
X111000Y101900D01*
X112600D01*
X115100Y104400D01*
Y106244D01*
X118700Y109844D01*
Y115000D01*
X119700Y116000D01*
X122098D01*
X121649Y115551D01*
G01X105700Y99300D02*
X106700D01*
X110400Y103000D01*
X112144D01*
X114000Y104856D01*
Y106700D01*
X117600Y110300D01*
Y115456D01*
X119244Y117100D01*
X123250D01*
X124799Y115551D01*
G01X120300Y113946D02*
Y113751D01*
X121649Y112402D01*
G01X124799D02*
X123325Y113875D01*
Y114025D01*
G01X120301Y110800D02*
Y110600D01*
X121649Y109252D01*
G01X124799D02*
X123400Y110651D01*
Y110800D01*
G01X120415Y107415D02*
X120425Y107405D01*
Y107375D01*
X120800Y107000D01*
Y106952D01*
X121649Y106102D01*
G01X123400Y107700D02*
Y107501D01*
X124799Y106102D01*
G01X146128Y29840D02*
Y30646D01*
X146391Y30909D01*
X147600Y32118D01*
Y35350D01*
X148389Y36139D01*
X149278D01*
G01X142979Y29840D02*
X144160Y31021D01*
X144947D01*
X145613Y31687D01*
X146500Y32574D01*
Y35768D01*
X146128Y36139D01*
G01X149278D02*
X148669Y36748D01*
Y37376D01*
X149293Y38000D01*
X154289D01*
X159263Y33026D01*
X170331D01*
X173750Y36444D01*
Y37750D01*
X174500Y38500D01*
X179700D01*
X180250Y37950D01*
Y36000D01*
X180500Y35750D01*
X181850D01*
X182100Y36000D01*
G01X146128Y36139D02*
Y36391D01*
X147569Y37831D01*
X148838Y39100D01*
X154745D01*
X159719Y34126D01*
X169876D01*
X172650Y36900D01*
Y38206D01*
X174044Y39600D01*
X181700D01*
X182100Y40000D01*
G01X155577Y42439D02*
X154002Y40864D01*
G01X194090Y93504D02*
X195627Y91967D01*
G54D89*
G01X-51500Y49200D02*
X-46253D01*
X-45453Y50000D01*
G01X7537Y166400D02*
Y166500D01*
X12300D01*
G01X24100Y166400D02*
X20100D01*
G01X12300Y166500D02*
X16200D01*
X16300Y166400D01*
G01X29159Y166373D02*
X24127D01*
X24100Y166400D01*
G01X65773Y129759D02*
Y120479D01*
X66252Y120000D01*
G01X74041Y134484D02*
X77016D01*
X78500Y133000D01*
Y122800D01*
G01D02*
X73248D01*
X72748Y122300D01*
Y120000D01*
G01X259900Y163450D02*
Y162300D01*
X262800Y159400D01*
X272700D01*
X274300Y161000D01*
Y164250D01*
M02*
